<?xml version="1.0" encoding="utf-8" ?>
<svg xmlns="http://www.w3.org/2000/svg" xmlns:xlink="http://www.w3.org/1999/xlink" width="1024" height="1024">
	<path d="M0 0L1024 0L1024 476.205L1024 1024L734.046 1024L290.53 1024L0 1024L0 490.663L0 0Z"/>
	<path fill="#F1C910" d="M351.441 98.2867C352.695 99.5951 353.698 101.142 354.192 102.904C354.883 105.372 354.512 107.009 353.274 109.194C352.04 108.646 350.883 108.204 350.247 106.898C349.051 104.441 350.675 100.711 351.441 98.2867Z"/>
	<path fill="#F1C910" d="M935.103 298.793C935.233 298.912 935.373 299.02 935.493 299.149C936.952 300.711 937.582 303.409 937.555 305.499C937.521 308.098 936.881 309.581 934.988 311.331C933.719 310.342 932.69 309.547 932.16 307.945C931.167 304.943 933.729 301.3 935.103 298.793Z"/>
	<path fill="#F1C910" d="M393.057 39.1488C394.664 39.913 395.47 41.6708 395.99 43.2904C396.984 46.3918 396.48 49.0586 394.993 51.8618C394.765 51.8303 394.535 51.8098 394.308 51.7673C393.284 51.5748 392.335 51.1709 391.837 50.2069C390.192 47.0261 392.005 42.359 393.057 39.1488Z"/>
	<path fill="#F1C910" d="M969.339 62.2801C970.755 63.5474 971.207 66.4044 971.3 68.2846C971.454 71.4049 970.765 73.3991 968.746 75.7133C967.361 74.6903 966.393 73.7537 966.089 71.9967C965.477 68.4558 967.385 65.0713 969.339 62.2801Z"/>
	<path fill="#F1C910" d="M114.638 273.882C116.059 275.603 117.263 278.751 117.416 280.98C117.602 283.691 116.836 285.196 115.095 287.202C113.668 286.416 112.69 285.384 112.211 283.812C111.194 280.475 113.208 276.811 114.638 273.882Z"/>
	<path fill="#F1C910" d="M109.081 29.1892C109.225 29.2975 109.38 29.3925 109.513 29.5139C111.619 31.4395 112.865 34.7414 113.056 37.5442C113.238 40.2263 112.842 41.7208 111.093 43.7422C109.424 43.0254 108.234 42.7009 107.534 40.8605C106.11 37.1167 107.571 32.6805 109.081 29.1892Z"/>
	<path fill="#F1C910" d="M841.878 29.2899L842.566 29.7355C844.2 32.8286 844.868 35.9188 844.434 39.4069C844.13 41.8569 843.366 42.9267 841.425 44.4126C840.296 43.8612 839.392 43.3348 838.857 42.1241C837.188 38.3439 840.271 32.7211 841.878 29.2899Z"/>
	<path fill="#F1C910" d="M149.65 206.844C149.818 207.026 150.012 207.187 150.154 207.39C152.072 210.147 152.47 215.336 151.858 218.577C151.475 220.601 150.719 221.226 149.129 222.321C147.758 221.155 146.663 220.317 146.195 218.468C145.208 214.566 147.595 210.007 149.65 206.844Z"/>
	<path fill="#F1C910" d="M968.103 223.31C968.59 224.134 968.91 224.955 969.188 225.867C970.077 228.779 970.666 233.291 968.969 236.051C968.151 237.384 967.474 237.566 966.023 237.962C964.501 236.769 963.467 235.888 963.13 233.854C962.515 230.147 966.105 226.099 968.103 223.31Z"/>
	<path fill="#F1C910" d="M920.049 182.748C921.934 184.379 922.737 187.396 923.583 189.681C923.003 192.828 922.57 195.577 920.659 198.207C919.171 197.405 917.398 196.569 916.79 194.865C915.532 191.34 918.654 186.023 920.049 182.748Z"/>
	<path fill="#F1C910" d="M736.375 135.859C736.55 136.047 736.757 136.21 736.902 136.422C738.63 138.962 739.261 144.241 738.662 147.203C738.239 149.298 737.526 150.524 735.721 151.652C734.129 150.57 732.953 149.635 732.439 147.672C731.366 143.575 734.472 139.254 736.375 135.859Z"/>
	<path fill="#F1C910" d="M114.132 108.789C114.806 109.395 115.181 110.179 115.485 111.02C116.745 114.507 117.47 119.608 115.627 123.041C114.855 124.479 114.255 124.62 112.741 125.07C111.832 124.4 110.622 123.638 110.109 122.602C108.324 118.996 112.535 112.167 114.132 108.789Z"/>
	<path fill="#F1C910" d="M784.413 115.834C785.127 116.351 785.564 116.937 785.888 117.757C787.182 121.03 788.017 127.335 786.021 130.472C785.207 131.751 784.24 131.628 782.902 131.838C782.686 131.726 782.466 131.623 782.255 131.503C780.757 130.648 780.054 129.729 779.702 128.021C778.86 123.932 782.144 119.018 784.413 115.834Z"/>
	<path fill="#F1C910" d="M872.72 268.762C874.879 270.652 876.003 274.489 876.157 277.283C876.376 281.252 875.404 283.935 872.803 286.878C871.464 285.914 870.194 284.999 869.498 283.45C867.469 278.937 870.977 272.832 872.72 268.762Z"/>
	<path fill="#F1C910" d="M518.588 21.3352L519.477 21.8308C520.171 23.1126 520.696 24.344 521.045 25.7662C521.756 28.6712 522.122 33.53 520.152 36.0701C519.038 37.5055 518.15 37.478 516.498 37.8761C516.009 37.4994 515.518 37.1198 515.065 36.6991C513.74 35.4701 513.172 33.802 513.149 32.0206C513.096 27.8636 515.747 24.1166 518.588 21.3352Z"/>
	<path fill="#F1C910" d="M831.519 180.402C832.605 181.229 833.139 182.77 833.618 184C835.174 187.992 835.952 193.377 833.97 197.367C833.169 198.98 832.349 199.337 830.673 199.819C828.509 198.501 826.807 197.009 826.199 194.437C825.043 189.543 829.134 184.38 831.519 180.402Z"/>
	<path fill="#F1C910" d="M33.5558 383.957C35.3475 385.984 36.4191 388.411 36.8598 391.068C37.4541 394.651 37.5669 399.672 35.1021 402.663C34.0144 403.983 33.2216 403.921 31.6553 404.084C30.0062 402.884 28.5161 401.608 27.9231 399.574C26.5 394.694 31.3333 388.116 33.5558 383.957Z"/>
	<path fill="#F1C910" d="M50.253 248.374C52.2234 250.584 52.44 257.175 52.4845 260.109C52.5488 264.343 52.3095 268.906 49.2286 272.109C47.7657 272.88 46.747 272.603 45.2013 272.34C43.7298 271.13 42.6528 270.145 42.2269 268.225C40.7566 261.593 46.8276 253.714 50.253 248.374Z"/>
	<path fill="#F1C910" d="M642.211 37.8299C642.374 37.99 642.557 38.1327 642.701 38.3102C645.115 41.2782 645.038 48.0083 644.795 51.7023C644.563 55.2432 643.705 59.7486 640.739 62.096C638.995 63.476 637.169 63.1496 635.122 62.9039C633.679 61.5477 632.723 60.4257 632.375 58.4241C631.174 51.5029 638.431 43.1879 642.211 37.8299Z"/>
	<path fill="#F1C910" d="M224.574 78.9646C224.661 79.0862 224.762 79.1993 224.836 79.3294C227.411 83.833 227.538 98.1826 226.194 103.249C225.546 105.693 224.307 108.492 221.972 109.753C220.264 110.675 218.85 110.348 217.076 109.9C214.491 107.474 213.075 105.463 212.916 101.823C212.534 93.0888 219.039 84.9623 224.574 78.9646Z"/>
	<path fill="#F1C910" d="M60.768 77.8798C64.4395 82.9938 65.0488 93.6419 64.1408 99.7081C63.611 103.248 62.3881 107.35 59.2812 109.491C57.2466 110.893 55.3229 110.642 53.008 110.24C52.8353 110.124 52.6576 110.014 52.4899 109.89C49.9963 108.052 48.3726 105.642 48.0388 102.516C47.1075 93.796 55.7573 84.1991 60.768 77.8798Z"/>
	<path fill="#F1C910" d="M913.668 80.8365C916.494 84.4993 918.698 94.7323 918.708 99.4723C918.716 103.759 917.713 108.724 914.51 111.816C912.133 114.111 909.745 114.51 906.559 114.432C906.436 114.351 906.309 114.274 906.188 114.188C903.491 112.281 901.501 109.928 900.957 106.58C899.533 97.8251 908.734 87.3481 913.668 80.8365Z"/>
	<path fill="#FCEFAA" d="M503.024 780.194C511.915 779.109 521.525 779.831 530.208 781.999C556.55 788.574 581.625 812.948 595.314 835.986L597.038 1005.15L520.938 1005.32L429.864 1005.29L427.455 874.536C427.379 866.813 425.687 849.059 427.018 842.63C429.166 832.249 435.823 821.034 442.464 812.887Q443.155 812.025 443.867 811.18Q444.579 810.336 445.312 809.509Q446.045 808.683 446.798 807.875Q447.551 807.067 448.325 806.278Q449.098 805.489 449.891 804.72Q450.684 803.951 451.496 803.202Q452.307 802.453 453.138 801.724Q453.968 800.995 454.816 800.288Q455.665 799.58 456.53 798.894Q457.396 798.208 458.279 797.544Q459.161 796.88 460.06 796.238Q460.959 795.596 461.874 794.976Q462.789 794.357 463.719 793.761Q464.649 793.165 465.593 792.592Q466.538 792.019 467.497 791.47Q468.455 790.922 469.427 790.397Q470.399 789.872 471.384 789.372Q472.369 788.871 473.366 788.396Q474.363 787.92 475.372 787.47Q476.381 787.02 477.4 786.595Q478.42 786.17 479.45 785.77Q480.48 785.371 481.519 784.998Q482.559 784.624 483.608 784.277Q484.656 783.929 485.713 783.608Q486.77 783.287 487.835 782.993Q488.9 782.698 489.971 782.431Q491.043 782.163 492.121 781.922Q493.199 781.681 494.283 781.468Q495.367 781.254 496.456 781.067Q497.544 780.881 498.638 780.721Q499.731 780.562 500.827 780.43Q501.924 780.298 503.024 780.194Z"/>
	<path d="M564.18 876.539C566.551 876.476 569.012 876.695 571.138 877.833Q571.619 878.087 572.071 878.391Q572.522 878.694 572.94 879.043Q573.357 879.392 573.735 879.783Q574.114 880.174 574.449 880.602Q574.784 881.031 575.072 881.492Q575.361 881.954 575.599 882.443Q575.837 882.932 576.023 883.443Q576.208 883.955 576.339 884.483C577.152 887.737 576.476 891.349 574.655 894.15C572.579 897.342 569.974 898.64 566.355 899.413C564.753 899.361 563.139 899.288 561.618 898.739C558.819 897.729 556.389 895.842 555.154 893.089C553.915 890.326 554.003 887.112 555.171 884.343C556.913 880.211 560.135 878.098 564.18 876.539Z"/>
	<path fill="#FCEFAA" d="M563.362 881.463C564.356 881.385 565.368 881.304 566.362 881.408C568.223 881.602 569.79 882.401 570.899 883.935Q571.073 884.175 571.221 884.431Q571.369 884.687 571.491 884.957Q571.613 885.227 571.707 885.507Q571.801 885.788 571.866 886.077Q571.932 886.366 571.967 886.66Q572.003 886.954 572.009 887.25Q572.015 887.546 571.991 887.841Q571.967 888.136 571.913 888.427C571.399 891.115 569.842 892.934 567.67 894.468Q566.484 894.606 565.289 894.619C563.429 894.624 561.868 893.955 560.589 892.589C559.424 891.346 559.003 889.721 559.147 888.047C559.406 885.04 561.179 883.322 563.362 881.463Z"/>
	<path fill="#71E2DF" d="M362.749 171.922Q364.424 166.043 366.442 160.273C379.835 122.769 407.252 86.1934 443.827 68.9636C475.737 53.9312 509.811 53.0505 542.884 64.9185C601.589 85.9846 650.605 138.013 676.897 193.549Q681.674 191.334 686.739 189.893C715.469 181.829 747.253 190.387 772.576 204.668C815.557 228.906 852.857 274.491 866.114 322.272Q872.339 322.55 878.487 323.566Q879.764 323.774 881.035 324.014Q882.306 324.254 883.571 324.525Q884.835 324.796 886.093 325.099Q887.351 325.401 888.6 325.735Q889.85 326.068 891.091 326.433Q892.332 326.797 893.564 327.192Q894.796 327.588 896.017 328.013Q897.239 328.439 898.449 328.894Q899.66 329.35 900.859 329.835Q902.058 330.321 903.244 330.836Q904.431 331.351 905.604 331.895Q906.778 332.44 907.937 333.013Q909.097 333.586 910.242 334.188Q911.387 334.79 912.516 335.42Q913.646 336.05 914.76 336.708Q915.873 337.365 916.97 338.051Q918.068 338.736 919.147 339.448Q920.227 340.16 921.289 340.899Q922.351 341.638 923.394 342.403Q924.437 343.167 925.461 343.958Q926.485 344.748 927.489 345.564Q928.493 346.38 929.476 347.22Q930.46 348.06 931.422 348.924Q932.384 349.789 933.325 350.677Q934.265 351.565 935.184 352.476Q936.102 353.386 936.997 354.32Q937.893 355.253 938.765 356.209Q939.637 357.164 940.485 358.141Q941.333 359.117 942.157 360.115Q942.98 361.112 943.779 362.13Q944.578 363.147 945.351 364.184Q946.124 365.221 946.871 366.277Q947.684 367.425 948.468 368.594Q949.253 369.762 950.008 370.949Q950.764 372.136 951.49 373.341Q952.216 374.546 952.912 375.769Q953.608 376.992 954.274 378.231Q954.94 379.47 955.576 380.726Q956.211 381.981 956.816 383.252Q957.42 384.523 957.993 385.808Q958.566 387.093 959.107 388.392Q959.648 389.69 960.157 391.002Q960.667 392.314 961.143 393.638Q961.62 394.961 962.064 396.297Q962.508 397.632 962.919 398.977Q963.331 400.323 963.709 401.678Q964.087 403.034 964.431 404.398Q964.776 405.762 965.087 407.134Q965.398 408.507 965.675 409.886Q965.952 411.266 966.195 412.651Q966.439 414.037 966.648 415.429Q966.857 416.82 967.032 418.216Q967.206 419.612 967.347 421.012Q967.488 422.412 967.594 423.816Q967.7 425.219 967.771 426.624Q967.843 428.029 967.88 429.436Q967.917 430.842 967.919 432.249Q967.922 433.656 967.89 435.063Q967.857 436.47 967.791 437.875Q967.724 439.281 967.623 440.684Q967.522 442.087 967.386 443.488Q967.251 444.888 967.081 446.285Q966.911 447.682 966.707 449.074Q966.502 450.466 966.264 451.853C960.927 483.23 943.928 509.933 918.065 528.355C918.048 528.154 918.007 527.953 918.013 527.75C918.052 526.601 925.668 507.931 926.548 505.053C936.259 473.291 930.155 437.028 909.21 410.992C890.27 387.45 858.172 369.92 828.125 366.318C832.413 338.668 826.681 313.413 810.047 290.693C794.075 268.879 768.969 255.254 742.449 251.3C714.372 247.113 685.707 253.48 662.921 270.633Q660.493 272.438 658.203 274.416Q655.912 276.394 653.773 278.534Q651.634 280.674 649.657 282.965Q647.679 285.256 645.875 287.685C646.631 279.739 647.329 271.901 647.105 263.904Q647.03 261.243 646.845 258.588Q646.66 255.933 646.365 253.288Q646.07 250.642 645.666 248.012Q645.262 245.381 644.749 242.769Q644.237 240.157 643.617 237.569Q642.997 234.98 642.27 232.42Q641.543 229.859 640.711 227.331Q639.879 224.803 638.944 222.311Q638.008 219.819 636.97 217.368Q635.931 214.918 634.793 212.512Q633.654 210.106 632.417 207.749Q631.18 205.393 629.846 203.089Q628.513 200.786 627.085 198.539Q625.657 196.293 624.138 194.108Q622.618 191.922 621.01 189.802Q619.401 187.681 617.706 185.629C594.083 157.246 561.153 140.902 524.551 137.653C491.789 134.745 457.467 146.633 432.446 167.727C414.394 182.946 399.322 203.847 392.525 226.584C375.411 213.891 353.857 209.871 332.92 212.923Q331.71 213.098 330.504 213.303Q329.298 213.508 328.098 213.744Q326.898 213.979 325.704 214.244Q324.511 214.51 323.324 214.805Q322.137 215.1 320.958 215.425Q319.779 215.75 318.609 216.105Q317.438 216.459 316.277 216.843Q315.116 217.227 313.965 217.64Q312.813 218.052 311.673 218.494Q310.533 218.935 309.404 219.406Q308.275 219.876 307.158 220.374Q306.041 220.872 304.937 221.398Q303.833 221.924 302.742 222.478Q301.652 223.032 300.576 223.612Q299.5 224.193 298.438 224.801Q297.377 225.409 296.331 226.043Q295.286 226.677 294.256 227.337Q293.227 227.997 292.214 228.683Q291.202 229.369 290.207 230.08Q289.211 230.791 288.235 231.527Q287.258 232.262 286.3 233.023Q285.342 233.783 284.403 234.566Q283.464 235.35 282.546 236.158Q281.627 236.965 280.729 237.795Q279.83 238.625 278.953 239.477Q278.076 240.329 277.221 241.203Q276.366 242.077 275.532 242.973Q274.699 243.868 273.889 244.784Q273.078 245.699 272.291 246.635Q271.504 247.571 270.74 248.527Q269.977 249.482 269.238 250.456Q268.499 251.431 267.784 252.423Q266.971 253.52 266.185 254.636Q265.399 255.753 264.641 256.889Q263.883 258.024 263.154 259.179Q262.425 260.333 261.724 261.505Q261.024 262.677 260.353 263.866Q259.682 265.056 259.041 266.261Q258.399 267.467 257.789 268.688Q257.178 269.909 256.597 271.145Q256.017 272.381 255.467 273.631Q254.918 274.881 254.4 276.144Q253.882 277.407 253.395 278.683Q252.908 279.959 252.454 281.246Q251.999 282.534 251.577 283.832Q251.154 285.13 250.764 286.439Q250.374 287.747 250.017 289.065Q249.659 290.383 249.335 291.709Q249.01 293.036 248.719 294.37Q248.428 295.704 248.17 297.044Q247.912 298.385 247.687 299.732Q247.463 301.079 247.272 302.431Q247.081 303.783 246.923 305.139Q246.766 306.495 246.643 307.855Q246.519 309.215 246.43 310.578Q246.34 311.94 246.284 313.304Q246.229 314.669 246.207 316.034Q246.185 317.399 246.198 318.764Q246.21 320.13 246.256 321.494Q246.303 322.859 246.383 324.222Q246.463 325.585 246.577 326.946Q246.691 328.306 246.839 329.664Q246.987 331.021 247.169 332.374Q247.351 333.728 247.566 335.076Q248.898 343.558 251.355 351.785C243.481 350.571 235.572 349.255 227.587 349.137C202.619 348.769 175.974 357.638 155.874 372.33C138.165 385.275 124.39 403.787 121.125 425.867C118.338 444.716 124.769 461.824 136.006 476.778C175.747 529.667 272.463 551.493 334.612 560.063Q353.591 562.497 372.639 564.32C378.915 564.893 385.527 564.954 391.725 566.033C392.743 566.211 393.245 566.502 394.029 567.136C390.649 570.631 387.016 573.843 383.402 577.091C367.282 575.813 351.104 575.222 334.978 573.933C281.104 569.63 227.248 562.103 175.921 544.648C149.285 535.59 123.075 523.799 101.085 505.956C78.3721 487.526 61.8081 460.841 58.8544 431.42Q58.7172 429.993 58.6151 428.563Q58.513 427.134 58.4461 425.702Q58.3793 424.27 58.3476 422.837Q58.316 421.404 58.3196 419.97Q58.3233 418.537 58.3622 417.104Q58.4011 415.671 58.4752 414.24Q58.5493 412.808 58.6587 411.379Q58.768 409.95 58.9125 408.524Q59.0569 407.098 59.2364 405.676Q59.4159 404.254 59.6304 402.836Q59.8448 401.419 60.0941 400.007Q60.3433 398.596 60.6272 397.191Q60.9111 395.786 61.2294 394.388Q61.5478 392.991 61.9005 391.601Q62.2531 390.212 62.6399 388.832Q63.0266 387.451 63.4472 386.081Q63.8677 384.711 64.3219 383.351Q64.776 381.992 65.2635 380.644Q65.751 379.296 66.2714 377.96Q66.7919 376.625 67.3451 375.302Q67.8983 373.98 68.4838 372.672Q69.0694 371.363 69.6869 370.07Q70.3045 368.776 70.9537 367.498Q71.6029 366.22 72.2833 364.959Q72.9637 363.697 73.675 362.453Q74.3863 361.208 75.1279 359.981Q75.8696 358.755 76.6412 357.547Q77.4129 356.339 78.214 355.15Q79.0151 353.962 79.8452 352.793Q80.6753 351.624 81.5339 350.477Q82.3925 349.329 83.2791 348.203Q84.1657 347.076 85.0797 345.972C108.127 317.806 144.393 299.317 180.59 295.795Q180.37 294.332 180.185 292.865Q179.999 291.397 179.847 289.925Q179.694 288.454 179.576 286.979Q179.458 285.505 179.373 284.028Q179.289 282.551 179.238 281.073Q179.188 279.594 179.171 278.115Q179.155 276.636 179.172 275.157Q179.19 273.677 179.241 272.199Q179.292 270.721 179.378 269.244Q179.463 267.767 179.582 266.292Q179.701 264.818 179.854 263.346Q180.007 261.875 180.194 260.408Q180.381 258.94 180.601 257.477Q180.821 256.015 181.075 254.557Q181.329 253.1 181.616 251.649Q181.904 250.198 182.224 248.753Q182.545 247.309 182.898 245.873Q183.252 244.436 183.638 243.008Q184.025 241.58 184.444 240.162Q184.863 238.743 185.315 237.334Q185.766 235.926 186.25 234.528Q186.734 233.13 187.25 231.743Q187.766 230.357 188.313 228.983Q188.861 227.608 189.439 226.247Q190.018 224.886 190.628 223.538Q191.238 222.19 191.879 220.857Q192.52 219.524 193.191 218.205Q193.862 216.887 194.564 215.585Q195.265 214.282 195.996 212.996Q196.727 211.71 197.487 210.441Q198.248 209.172 199.037 207.921Q199.826 206.67 200.644 205.437Q201.463 204.197 202.313 202.978Q203.163 201.759 204.043 200.561Q204.923 199.363 205.832 198.188Q206.741 197.012 207.679 195.859Q208.617 194.706 209.584 193.577Q210.55 192.448 211.544 191.343Q212.538 190.238 213.559 189.158Q214.58 188.078 215.627 187.024Q216.674 185.969 217.748 184.941Q218.821 183.913 219.919 182.912Q221.017 181.91 222.14 180.937Q223.263 179.963 224.409 179.017Q225.556 178.071 226.725 177.154Q227.895 176.237 229.086 175.349Q230.278 174.462 231.492 173.603Q232.705 172.745 233.94 171.918Q235.174 171.09 236.428 170.293Q237.683 169.496 238.956 168.73Q240.23 167.965 241.523 167.231Q242.815 166.497 244.125 165.795Q245.435 165.093 246.762 164.424Q248.089 163.755 249.432 163.119Q250.776 162.483 252.134 161.88Q253.493 161.278 254.866 160.709Q256.239 160.14 257.625 159.606Q259.012 159.071 260.412 158.571Q261.811 158.071 263.223 157.605Q264.634 157.14 266.057 156.71Q267.479 156.279 268.912 155.884Q270.345 155.489 271.787 155.13Q273.229 154.771 274.679 154.447Q276.13 154.124 277.588 153.836C307.697 148.045 337.434 154.862 362.749 171.922Z"/>
	<path fill="#FCEFAA" d="M512.041 478.99C532.771 497.404 551.411 518.001 571.455 537.124C594.601 559.206 618.148 580.818 640.909 603.306C662.962 625.096 684.142 647.778 706.243 669.55C719.297 682.41 733.317 694.237 746.264 707.187C736.049 707.962 725.578 707.815 715.316 708.207C714.494 737.807 715.373 767.637 715.476 797.266L717.043 1005.42L601.739 1005.29L599.745 833.883C592.548 823.273 584.821 813.116 575.723 804.048C557.294 785.679 536.36 775.416 510.177 775.434L509.739 775.429C485.951 775.347 462.627 786.085 445.986 802.8C436.131 812.699 426.132 826.801 422.787 840.557C421.022 847.821 422.783 873.039 422.959 882.388Q424.519 943.843 425.449 1005.31L309.284 1005.18Q309.398 951.652 308.674 898.129L307.41 710.26C297.359 710.096 287.31 710.521 277.259 710.14C281.98 703.126 289.815 696.731 295.89 690.814L329.165 658.42C350.186 637.752 369.572 615.467 390.567 594.825C411.765 573.982 434.595 554.849 455.995 534.214Q470.506 520.07 484.4 505.32C493.046 496.253 501.945 486.489 512.041 478.99Z"/>
	<path d="M497.935 546.068L498.152 546.208L497.248 547.158L497.381 547.878C494.922 548.438 485.226 558.303 482.814 560.481Q445.829 594.119 410.602 629.593Q375.375 665.066 341.996 702.285L341.544 701.797C357.494 682.988 372.274 663.395 388.781 645C421.455 608.588 458.975 575.592 497.935 546.068Z"/>
	<path fill="#F1C910" d="M970.588 433.524C989.849 443.733 1012.72 457.083 1024 476.205L1024 1024L734.046 1024L735.002 728.042C756.743 727.757 777.395 728.558 798.963 731.567C792.132 724.839 784.686 718.648 777.65 712.125C766.137 701.451 754.83 690.499 743.446 679.684C728.044 665.052 713.365 649.662 698.345 634.641C681.634 617.929 664.464 601.395 648.315 584.15C664.73 584.015 681.139 584.815 697.572 584.404C769.642 582.603 876.999 573.165 932.149 521.451C957.64 497.547 969.424 468.204 970.588 433.524Z"/>
	<path d="M880.104 673.961C882.753 676.05 885.3 679.442 886.544 682.551C887.841 685.789 887.901 688.341 886.478 691.517C885.647 691.687 884.886 691.708 884.042 691.739C883.008 691.309 882.413 691.053 881.637 690.2C878.377 686.617 879.489 678.401 880.104 673.961Z"/>
	<path d="M846.247 789.678C849.206 792.037 852.22 794.92 854.117 798.217C856.524 802.401 856.785 805.754 855.488 810.324C854.953 810.65 854.357 810.794 853.764 810.989C852.849 810.849 852.041 810.767 851.296 810.15C846.667 806.316 846.896 795.268 846.247 789.678Z"/>
	<path d="M765.018 858.971C768.153 862.128 771.627 865.37 773.673 869.374C775.758 873.456 775.958 876.939 774.466 881.218C773.77 881.682 773.309 881.827 772.518 882.056C771.631 881.826 770.85 881.649 770.16 880.994C765.45 876.524 764.962 865.009 765.018 858.971Z"/>
	<path d="M894.315 913.723C896.854 914.877 900.066 918.471 901.711 920.755C905.287 925.721 906.333 930.793 905.315 936.749C905.055 936.82 904.798 936.9 904.537 936.964C903.157 937.305 901.75 936.924 900.584 936.148C895.273 932.612 895.44 919.541 894.315 913.723Z"/>
	<path d="M790.535 608.697C793.549 610.167 797.778 616.293 799.585 619.2C802.789 624.351 803.513 628.078 802.114 633.905L800.996 634.392C799.346 634.229 798.238 633.977 797.002 632.729C791.34 627.014 790.759 616.222 790.535 608.697Z"/>
	<path d="M938.366 621.231C942.752 624.661 949.028 632.229 951.613 637.273C953.306 640.575 953.312 642.417 952.119 645.876L950.505 646.513C948.496 646.248 947.013 645.976 945.466 644.595C939.502 639.271 938.847 628.673 938.366 621.231Z"/>
	<path d="M936.268 770.353C942.288 773.668 950.093 781.756 953.546 787.79C955.976 792.037 956.437 795.007 955.078 799.654C954.531 800.009 953.894 800.438 953.243 800.591C951.243 801.06 948.631 800.085 947.085 798.846C940.141 793.284 937.426 778.829 936.268 770.353Z"/>
	<path fill="#F1C910" d="M0 490.663C12.8098 478.916 28.8183 471.693 44.367 464.34C50.1338 461.612 55.9737 458.497 62.0066 456.402C65.015 464.197 68.059 471.79 72.442 478.948C89.4239 506.681 119.352 525.233 148.464 538.167C202.607 562.221 266.976 571.567 325.651 576.353C343.796 577.833 362.068 578.265 380.173 579.885C355.536 604.701 331.502 630.157 306.591 654.691C281.833 679.076 256.076 702.642 231.91 727.602L288.502 727.392L290.53 1024L0 1024L0 490.663Z"/>
	<path d="M157.994 683.844L158.634 684.563C158.968 688.4 158.239 692.002 156.198 695.298C155.207 696.897 154.329 697.427 152.525 697.835C151.693 696.594 151.019 695.533 151.073 693.959C151.218 689.686 155.083 686.511 157.994 683.844Z"/>
	<path d="M239.864 629.885C239.902 630.117 239.945 630.349 239.978 630.583C240.418 633.709 239.491 641.757 237.081 644.106C235.975 645.183 235.142 644.824 233.757 644.668C233.121 643.485 232.659 642.583 232.722 641.21C232.931 636.615 236.541 632.684 239.864 629.885Z"/>
	<path d="M242.319 849.907L242.582 850.158C242.999 852.628 240.978 857.575 240.101 860.069C238.969 863.284 238.374 865.348 235.188 866.883C234.233 865.459 233.858 864.113 233.95 862.406C234.222 857.371 238.9 853.163 242.319 849.907Z"/>
	<path d="M204.351 766.461C204.948 767.583 204.703 767.892 204.418 769.111C203.346 773.681 201.175 780.638 197.046 783.234C195.92 781.716 195.359 780.267 195.592 778.377C196.203 773.433 200.747 769.48 204.351 766.461Z"/>
	<path d="M77.1155 807.332C77.1802 807.498 77.2631 807.659 77.3096 807.831C78.0958 810.749 76.8237 821.133 74.9223 823.427C73.9851 824.558 72.9124 824.398 71.5963 824.51C71.0172 823.281 70.4922 822.178 70.4364 820.801C70.2302 815.716 73.7714 810.849 77.1155 807.332Z"/>
	<path d="M101.414 553.343C102.085 553.949 102.19 554.628 102.313 555.505C102.769 558.755 103.077 563.93 100.464 566.448C99.3006 567.568 98.1158 567.378 96.6425 567.442C95.3779 566.146 94.3667 565.012 94.511 563.039C94.7932 559.182 98.833 555.879 101.414 553.343Z"/>
	<path d="M167.722 587.397C168.228 588.065 168.208 588.567 168.21 589.429C168.219 592.914 166.823 601.613 163.761 603.705C162.342 604.675 161.503 604.367 159.912 604.223C158.804 602.822 157.968 601.45 158.115 599.608C158.524 594.504 164.068 590.391 167.722 587.397Z"/>
	<path d="M78.4524 668.067L78.7181 669.04C77.1071 674.967 75.5054 683.93 71.3076 688.495C69.9322 689.99 68.632 690.119 66.7369 690.264C65.6288 688.243 65.2018 686.324 65.6185 684.021C66.7805 677.596 73.2787 671.63 78.4524 668.067Z"/>
	<path d="M133.645 887.347C134.552 889.688 134.27 892.352 133.852 894.782C132.778 901.018 128.426 913.905 122.978 917.336C121.456 918.295 120.081 918.019 118.442 917.689C117.337 916.057 116.605 914.163 116.507 912.185C116.059 903.165 128.013 893.757 133.645 887.347Z"/>
	<path fill="#50C3BD" d="M392.525 226.584C399.322 203.847 414.394 182.946 432.446 167.727C457.467 146.633 491.789 134.745 524.551 137.653C561.153 140.902 594.083 157.246 617.706 185.629Q619.401 187.681 621.01 189.802Q622.618 191.922 624.138 194.108Q625.657 196.293 627.085 198.539Q628.513 200.786 629.846 203.089Q631.18 205.393 632.417 207.749Q633.654 210.106 634.793 212.512Q635.931 214.918 636.97 217.368Q638.008 219.819 638.944 222.311Q639.879 224.803 640.711 227.331Q641.543 229.859 642.27 232.42Q642.997 234.98 643.617 237.569Q644.237 240.157 644.749 242.769Q645.262 245.381 645.666 248.012Q646.07 250.642 646.365 253.288Q646.66 255.933 646.845 258.588Q647.03 261.243 647.105 263.904C647.329 271.901 646.631 279.739 645.875 287.685Q647.679 285.256 649.657 282.965Q651.634 280.674 653.773 278.534Q655.912 276.394 658.203 274.416Q660.493 272.438 662.921 270.633C685.707 253.48 714.372 247.113 742.449 251.3C768.969 255.254 794.075 268.879 810.047 290.693C826.681 313.413 832.413 338.668 828.125 366.318C858.172 369.92 890.27 387.45 909.21 410.992C930.155 437.028 936.259 473.291 926.548 505.053C925.668 507.931 918.052 526.601 918.013 527.75C918.007 527.953 918.048 528.154 918.065 528.355C883.915 556.425 824.89 568.767 782.254 573.889C762.608 576.249 742.732 577.337 722.975 578.373Q683.628 580.445 644.228 580.029C635.978 573.101 628.569 565.074 620.664 557.747C601.376 539.869 581.869 522.298 563.382 503.568Q547.866 487.854 532.62 471.877C525.556 464.424 518.664 456.674 511.28 449.544C504.609 455.711 498.484 462.509 492.255 469.117L464.61 498.49C447.435 516.719 429.635 533.943 411.183 550.851C405.475 556.08 400.043 562.403 394.029 567.136C393.245 566.502 392.743 566.211 391.725 566.033C385.527 564.954 378.915 564.893 372.639 564.32Q353.591 562.497 334.612 560.063C272.463 551.493 175.747 529.667 136.006 476.778C124.769 461.824 118.338 444.716 121.125 425.867C124.39 403.787 138.165 385.275 155.874 372.33C175.974 357.638 202.619 348.769 227.587 349.137C235.572 349.255 243.481 350.571 251.355 351.785Q248.898 343.558 247.566 335.076Q247.351 333.728 247.169 332.374Q246.987 331.021 246.839 329.664Q246.691 328.306 246.577 326.946Q246.463 325.585 246.383 324.222Q246.303 322.859 246.256 321.494Q246.21 320.13 246.198 318.764Q246.185 317.399 246.207 316.034Q246.229 314.669 246.284 313.304Q246.34 311.94 246.43 310.578Q246.519 309.215 246.643 307.855Q246.766 306.496 246.923 305.139Q247.081 303.783 247.272 302.431Q247.463 301.079 247.687 299.732Q247.912 298.385 248.17 297.044Q248.428 295.704 248.719 294.37Q249.01 293.036 249.335 291.709Q249.659 290.383 250.017 289.065Q250.374 287.747 250.764 286.439Q251.154 285.13 251.577 283.832Q251.999 282.534 252.454 281.246Q252.908 279.959 253.395 278.683Q253.882 277.407 254.4 276.144Q254.918 274.881 255.467 273.631Q256.017 272.381 256.597 271.145Q257.178 269.909 257.789 268.688Q258.399 267.467 259.041 266.261Q259.682 265.056 260.353 263.866Q261.024 262.677 261.724 261.505Q262.425 260.333 263.154 259.179Q263.883 258.024 264.641 256.889Q265.399 255.753 266.185 254.636Q266.971 253.52 267.784 252.423Q268.499 251.431 269.238 250.456Q269.977 249.482 270.74 248.527Q271.504 247.571 272.291 246.635Q273.078 245.699 273.889 244.784Q274.699 243.868 275.532 242.973Q276.366 242.077 277.221 241.203Q278.076 240.329 278.953 239.477Q279.83 238.625 280.729 237.795Q281.627 236.965 282.546 236.158Q283.464 235.35 284.403 234.566Q285.342 233.783 286.3 233.023Q287.258 232.262 288.235 231.527Q289.212 230.791 290.207 230.08Q291.202 229.369 292.214 228.683Q293.227 227.997 294.256 227.337Q295.286 226.677 296.331 226.043Q297.377 225.409 298.438 224.801Q299.5 224.193 300.576 223.612Q301.652 223.032 302.742 222.478Q303.833 221.924 304.937 221.398Q306.041 220.872 307.158 220.374Q308.275 219.876 309.404 219.406Q310.533 218.935 311.673 218.494Q312.813 218.052 313.965 217.64Q315.116 217.227 316.277 216.843Q317.438 216.459 318.609 216.105Q319.779 215.75 320.958 215.425Q322.137 215.1 323.324 214.805Q324.511 214.51 325.704 214.244Q326.898 213.979 328.098 213.744Q329.298 213.508 330.504 213.303Q331.71 213.098 332.92 212.923C353.857 209.871 375.411 213.891 392.525 226.584Z"/>
</svg>
