<?xml version="1.0" encoding="utf-8" ?>
<svg xmlns="http://www.w3.org/2000/svg" xmlns:xlink="http://www.w3.org/1999/xlink" width="1024" height="1024">
	<path fill="#F3CA0D" d="M0 0L0.727083 0L1023.25 0L1024 0L1024 655.448L1024 900.623L1024 900.958L1024 1024L1022.49 1024L0 1024L0 891.274L0 890.416L0 658.286L0 0Z"/>
	<path fill="#E2B30C" d="M132.392 579.436C134.162 579.421 136.045 579.556 137.337 580.939C138.132 581.79 138.297 582.662 138.275 583.776C138.234 585.788 136.877 587.013 135.552 588.338C133.908 588.238 132.416 588.009 131.285 586.694C130.335 585.59 129.935 584.479 130.084 583.012C130.253 581.338 131.23 580.483 132.392 579.436Z"/>
	<path fill="#FBE072" d="M56.3133 68.6039C57.2257 68.705 58.0302 68.8309 58.7095 69.5187C61.2061 72.0466 64.178 86.3185 64.4914 90.1644C64.1052 89.6955 64.0646 89.6656 63.6729 89.0745C60.3613 84.0775 55.1212 74.7014 56.3133 68.6039Z"/>
	<path fill="#E2B30C" d="M993.201 564.967C993.806 564.945 994.407 564.914 995.011 564.971C996.765 565.136 998.327 565.911 999.331 567.411C1000.08 568.536 1000.32 569.87 1000 571.187C999.497 573.301 998.103 574.273 996.322 575.296C996.169 575.302 996.015 575.316 995.862 575.314C993.828 575.3 991.911 574.887 990.586 573.184C989.773 572.139 989.534 570.825 989.766 569.537C990.166 567.326 991.541 566.271 993.201 564.967Z"/>
	<path fill="#E2B30C" d="M885.375 579.413C885.689 579.385 886.003 579.352 886.318 579.329C888.105 579.197 890.041 579.593 891.313 580.96C892.401 582.132 892.87 583.457 892.683 585.056C892.387 587.579 890.941 588.816 889.075 590.314C886.972 590.219 885.027 589.857 883.53 588.235C882.625 587.254 882.191 585.912 882.253 584.591C882.365 582.21 883.712 580.946 885.375 579.413Z"/>
	<path fill="#E2B30C" d="M886.215 643.944C886.433 643.936 886.651 643.919 886.869 643.92C888.841 643.922 890.529 644.439 891.856 645.938C892.965 647.191 893.428 648.719 893.247 650.374C893.001 652.621 891.812 653.862 890.165 655.275C890.008 655.286 889.85 655.303 889.692 655.306C887.792 655.343 886.045 654.903 884.663 653.535C883.479 652.364 883.045 650.943 883.128 649.313C883.254 646.837 884.507 645.598 886.215 643.944Z"/>
	<path fill="#E2B30C" d="M92.9512 604.896C93.2515 604.87 93.5514 604.839 93.8521 604.818C95.6278 604.695 97.534 605.156 98.7805 606.517C99.911 607.752 100.411 609.147 100.204 610.806C99.8968 613.263 98.4654 614.395 96.6036 615.791C96.0452 615.874 95.3255 616.026 94.7501 615.972C93.1112 615.82 91.4975 615.173 90.5076 613.794C89.696 612.664 89.4831 611.241 89.6349 609.885C89.9006 607.511 91.1924 606.357 92.9512 604.896Z"/>
	<path fill="#E2B30C" d="M926.996 640.517C928.944 640.424 931.14 640.434 932.61 641.948C933.564 642.93 934.045 644.069 934.021 645.439C933.969 648.311 932.326 650.157 930.3 651.971C929.705 652.006 929.656 652.031 928.982 651.949C927.38 651.753 925.657 650.826 924.654 649.56C923.655 648.3 923.326 646.716 923.561 645.15C923.909 642.827 925.161 641.816 926.996 640.517Z"/>
	<path fill="#E2B30C" d="M893.037 669.871C893.698 669.826 894.584 669.708 895.256 669.812C896.755 670.044 898.192 670.99 899.046 672.243C899.994 673.634 900.216 675.248 899.842 676.873C899.339 679.057 898.087 680.068 896.262 681.209C894.395 681.383 892.324 681.094 890.887 679.775C889.734 678.717 889.32 677.241 889.436 675.722C889.642 673.011 891.097 671.6 893.037 669.871Z"/>
	<path fill="#E2B30C" d="M969.589 648.88C970.109 648.896 970.63 648.901 971.147 648.953C972.678 649.105 974.373 649.84 975.236 651.183C976.134 652.578 976.326 653.979 975.926 655.559C975.242 658.257 973.752 659.419 971.466 660.827C971.221 660.817 970.975 660.818 970.73 660.796C969.07 660.648 967.171 659.983 966.175 658.538C965.234 657.172 964.997 655.827 965.326 654.208C965.872 651.517 967.39 650.333 969.589 648.88Z"/>
	<path fill="#E2B30C" d="M41.6101 637.43C41.928 637.433 42.2459 637.43 42.5636 637.438C44.4512 637.487 46.1079 638.272 47.3477 639.697C48.4673 640.983 48.8612 642.637 48.7228 644.312C48.5093 646.896 47.142 648.253 45.2833 649.897C44.4744 649.983 43.6691 650.059 42.854 650.026C41.4323 649.969 40.1729 649.249 39.2379 648.204C38.1514 646.99 37.7887 645.35 37.9236 643.761C38.1729 640.825 39.4361 639.271 41.6101 637.43Z"/>
	<path fill="#E2B30C" d="M34.5351 526.287L34.9214 526.292C35.8785 527.126 36.2831 526.93 37.5102 527.034C38.256 527.669 38.9496 528.241 39.4626 529.089C40.6099 530.987 41.0274 533.5 40.2732 535.628C39.646 537.397 38.4793 538.412 36.8534 539.244C35.9423 539.71 34.7713 539.025 33.82 538.723C33.241 538.982 32.6017 539.156 31.9996 539.357C29.9501 537.872 28.8376 536.04 28.2034 533.587C27.8315 532.149 27.4307 530.928 28.151 529.613L29.5987 529.818C30.9595 528.922 29.8258 527.848 30.9767 526.522L32.7136 527.31L34.5351 526.287Z"/>
	<path fill="#E2B30C" d="M87.9728 657.106C89.2511 656.981 90.8577 656.699 92.1081 657.066C93.983 657.618 95.4782 658.75 96.4314 660.472C97.2953 662.034 97.4232 663.86 96.934 665.563C96.2156 668.062 94.7327 669.153 92.5728 670.422C91.6854 670.46 90.8111 670.505 89.9279 670.38C87.8023 670.081 85.7761 668.969 84.5446 667.182C83.5855 665.79 83.2764 664.122 83.5959 662.468C84.1178 659.766 85.7941 658.557 87.9728 657.106Z"/>
	<path fill="#FBE072" d="M69.6385 61.833C69.9747 61.9483 70.3114 62.0632 70.6415 62.1949C72.1016 62.7777 72.9755 63.6403 73.5508 65.1182C75.9047 71.1655 70.3482 81.3605 68.0029 86.9696L67.2971 88.3518L66.801 88.1917C65.1106 83.4335 64.4738 70.9987 65.79 66.233C66.4349 63.8978 67.6037 63.0177 69.6385 61.833Z"/>
	<path fill="#FBE072" d="M724.684 44.8245C725.265 44.9967 726.193 45.2004 726.734 45.5292C727.481 45.9825 727.864 46.6152 728.091 47.4519C729.671 53.2724 718.921 66.5659 715.825 71.7753C715.523 72.3747 715.175 72.9109 714.811 73.4737C713.889 70.7652 715.835 61.4459 716.532 58.4185C717.813 52.86 719.642 47.9473 724.684 44.8245Z"/>
	<path fill="#FBE072" d="M80.8203 69.4282C81.0197 69.4215 81.219 69.4015 81.4184 69.408C83.1275 69.4639 84.23 70.0981 85.4196 71.258C85.7869 72.2023 85.9302 72.7299 85.7876 73.7626C84.8809 80.3284 75.1832 87.6529 70.2583 91.3914L66.7716 93.7073C71.3024 85.3136 72.1685 74.915 80.8203 69.4282Z"/>
	<path fill="#FBE072" d="M735.355 53.4473C736.87 53.7294 738.276 54.4125 739.13 55.7457C739.587 56.4589 739.454 57.1139 739.247 57.9154C737.623 64.2054 723.523 70.6347 718.208 73.3527C717.642 73.7599 717.169 73.8602 716.507 74.0502L716.474 73.0899C720.225 65.7878 727.684 56.6384 735.355 53.4473Z"/>
	<path fill="#E2B30C" d="M136.084 682.539C137.458 682.376 138.889 682.24 140.241 682.636C142.172 683.202 143.953 684.87 144.918 686.6Q145.132 686.983 145.305 687.387Q145.478 687.791 145.608 688.211Q145.737 688.63 145.822 689.061Q145.907 689.492 145.946 689.93Q145.984 690.368 145.977 690.807Q145.97 691.246 145.916 691.682Q145.863 692.118 145.764 692.546Q145.665 692.974 145.521 693.389C144.644 695.877 143.028 696.93 140.772 698.089C139.751 698.109 138.684 698.09 137.671 697.947C135.378 697.623 133.13 696.139 131.876 694.198C130.784 692.509 130.477 690.486 130.961 688.538C131.699 685.571 133.585 684.067 136.084 682.539Z"/>
	<path fill="#E2B30C" d="M976.047 608.535C976.252 608.738 976.872 609.361 977.073 609.517C978.247 610.429 979.824 609.651 981.254 609.462L981.719 610.128C981.363 611.132 981.201 611.606 981.23 612.693C983.027 613.645 982.104 612.311 983.719 612.008L984.181 613.021C983.719 613.992 983.403 614.557 983.326 615.645L985.405 617.199L985.342 618.038L983.381 619.244C983.316 619.972 983.279 620.769 983.1 621.478C982.602 623.447 981.14 624.272 979.502 625.204L977.931 624.705C977.681 624.895 976.67 625.682 976.416 625.799C975.154 626.378 974.864 624.705 973.461 624.128L971.995 624.959C970.767 624.171 971.76 623.294 970.812 622.003C969.852 622.296 969.544 622.451 968.539 622.225C967.43 620.037 968.921 617.057 968.253 614.71C967.986 613.773 968.059 614.654 968.117 613.312C969.326 612.781 970.476 612.605 971.764 612.361L971.912 611.794L970.904 610.3L971.11 609.669L972.282 609.438L973.49 610.387C974.877 610.133 975.117 609.524 976.047 608.535Z"/>
	<path fill="#FBE072" d="M204.064 71.7518C206.357 72.6205 207.85 74.2159 208.973 76.3508C211.461 81.0826 213.666 99.6554 212.247 104.674L211.501 104.241C207.635 96.8083 201.495 88.6079 201.041 79.9633C200.86 76.4997 201.765 74.2947 204.064 71.7518Z"/>
	<path fill="#E2B30C" d="M877.531 699.176C878.966 699.602 880.425 699.869 881.891 700.166C883.146 701.278 884.314 702.273 885.073 703.797C885.957 705.574 886.218 707.762 885.565 709.65C884.322 713.246 881.322 714.877 878.081 716.352C876.339 716.001 874.342 715.322 872.922 714.229C870.957 712.717 869.579 710.287 869.33 707.817C869.101 705.55 869.767 703.413 871.338 701.747C873.07 699.911 875.061 699.222 877.531 699.176Z"/>
	<path fill="#FBE072" d="M233.785 79.4293C235.992 79.4354 237.255 80.1714 238.932 81.4649C239.557 82.5258 239.665 83.1096 239.439 84.34C237.993 92.199 225.55 100.323 219.416 104.252L214.589 107.72C220.016 99.4355 224.966 83.9261 233.785 79.4293Z"/>
	<path fill="#E2B30C" d="M29.0179 587.1C29.6815 587.794 30.1868 588.887 30.695 589.715L31.3121 589.771C31.9795 588.743 32.1195 588.4 33.2479 587.836C36.1078 589.285 38.5207 593.638 40.3164 596.244C39.9658 597.242 40.1641 597.034 39.5892 597.672C38.8553 598.486 38.1811 598.91 38.0091 600.06L39.1623 601.473L39.0365 602.237C37.296 603.008 36.7835 601.688 35.1503 602.282C35.3523 603.627 35.6864 604.362 35.1164 605.64C33.6208 606.04 32.9484 604.386 31.3019 604.119L30.3219 606.642L29.3504 606.993C28.7918 605.818 28.449 604.628 27.3659 603.864C26.877 604.536 26.4062 605.123 25.8078 605.701L24.756 605.311C24.1565 603.736 25.3041 604.091 25.5015 602.501L24.7412 601.947C23.6914 602.445 23.4392 602.605 22.2406 602.527L21.8889 601.477C22.4872 600.636 22.6491 600.368 22.8713 599.319C22.0796 598.707 21.3353 598.089 20.6066 597.404L20.8042 596.665L22.5808 596.244L22.867 595.742L21.0877 593.757L21.6766 593.206C22.7003 593.544 23.1928 593.772 24.2827 593.633C24.6059 592.367 24.0236 591.939 23.4086 590.846L23.6178 590.174C24.598 590.533 24.8321 590.482 25.8288 590.337C26.0832 590.048 26.5557 589.498 26.821 589.254C27.4331 588.69 27.9276 588.38 28.4992 587.721C28.676 587.518 28.845 587.307 29.0179 587.1Z"/>
	<path fill="#FBE072" d="M220.023 66.8872C220.689 66.932 221.32 67.0411 221.951 67.2796C223.481 67.8581 224.579 69.1162 225.098 70.6553C227.947 79.0999 220.207 92.9352 216.457 100.38C216.026 101.316 215.957 101.454 215.085 102.099C213.519 99.0637 214.402 78.4155 215.34 74.3212C216.138 70.8345 216.984 68.8168 220.023 66.8872Z"/>
	<path fill="#E2B30C" d="M44.4865 461.262L44.8478 461.444L45.1198 462.968L45.7349 463.333Q47.064 462.78 48.4218 462.302C49.2821 462.692 49.4875 462.555 49.8656 463.468L48.6323 464.526L48.662 465.126L49.5085 465.466C50.2493 465.224 50.9442 465.046 51.7132 464.918L52.3405 465.954L51.4222 467.737L51.7671 468.521L53.6826 469.215L53.9066 470.215C53.3162 471.095 52.9429 471.688 52.6009 472.706L53.8914 473.771L53.6901 474.679L51.6528 475.152L51.3393 475.951L52.7414 477.664C51.8875 478.654 51.5514 478.512 50.3222 478.807C49.6194 479.735 49.0677 480.713 47.9119 481.091L46.6825 480.06L45.8067 480.345L45.4154 482.207L44.5847 482.371L43.9028 481.333L43.073 481.651L41.9432 481.852C39.802 480.912 37.1133 480.199 36.0376 477.954C35.9761 477.826 35.9312 477.69 35.8781 477.558L33.9754 477.953L33.4985 477.304C34.2565 476.658 34.5425 476.494 34.8825 475.529C34.2775 475.072 33.8345 474.857 33.1064 474.579C32.8509 474.482 32.592 474.394 32.3347 474.301L32.102 473.574L33.4281 472.853L33.5311 472.237C32.7642 471.497 32.2739 471.062 31.8002 470.091C32.4361 469.316 33.429 469.909 34.3655 468.755C33.858 467.997 33.7348 467.7 33.495 466.769L34.094 466.058C35.0074 466.038 35.5446 465.991 36.4363 465.72C36.4518 464.649 36.535 465.001 36.2535 464.082C36.1932 463.885 36.1215 463.692 36.0555 463.497L36.7526 463.064L38.5103 464.145C40.0489 463.678 39.3173 462.656 40.5195 461.543C41.2789 461.852 42.0126 462.071 42.8078 462.271L44.4865 461.262Z"/>
	<path fill="#E2B30C" d="M125.802 620.72C127.689 621.835 127.262 623.89 128.863 625.331C129.775 624.697 129.507 624.952 130.195 624.249C130.341 624.1 130.481 623.947 130.624 623.795C132.076 624.698 130.691 625.96 131.509 627.488L133.767 627.709L132.72 629.484C133.083 631.118 134.558 631.002 135.043 632.704C132.286 635.131 134.605 635.836 133.527 638.453L131.866 638.255C130.542 638.922 131.524 641.203 130.667 642.707L129.492 642.909C128.896 642.376 128.401 641.869 127.889 641.248C127.717 641.04 127.551 640.828 127.383 640.618C125.742 640.924 125.979 642.771 124.431 643.697L123.688 643.409L123.263 641.528C121.991 641.746 121.722 642.123 120.73 642.917L120.075 642.695L120.087 641.573L119.569 639.847C118.067 639.151 118.049 640.482 116.457 640.67L115.933 639.748L116.765 636.801L116.034 636.059C115.302 636.37 114.583 636.617 113.82 636.844L113.093 636.228C113.158 634.487 114.476 633.301 115.51 631.927L115.359 631.21C114.334 631.698 113.874 631.926 112.715 631.988L112.612 630.934C113.491 629.684 113.904 629.757 115.328 629.328C116.214 628.382 114.862 627.094 114.994 625.514C116.079 625.033 117.286 625.588 118.591 624.981L118.94 623.217L119.46 622.959C120.245 623.831 119.778 623.577 120.806 623.813L121.402 621.727L121.87 621.578C122.356 622.633 122.725 623.518 123.518 624.384C124.808 623.541 125.153 622.097 125.802 620.72Z"/>
	<path fill="#E2B30C" d="M969.485 453.16C970.229 453.94 970.988 454.646 971.809 455.344C972.562 455.211 972.403 453.55 973.529 452.866L974.035 453.257L974.26 455.763L974.845 455.837C975.611 455.004 976.326 454.262 977.216 453.554L977.885 454.105L978.115 456.491L978.733 456.834L980.174 455.742C981.2 456.371 981.309 456.509 981.861 457.581L980.858 459.76L981.093 460.381C981.83 460.464 982.357 460.461 983.103 460.344C983.337 460.308 983.568 460.261 983.801 460.219L984.46 461.004L984.069 461.78L982.172 462.207C982.016 463.545 984.089 464.788 984.731 466.178L984.297 466.681C983.226 466.852 982.572 467.009 981.66 467.605L981.613 468.489C982.432 469.207 983.087 469.71 983.516 470.729L982.985 471.402C981.936 471.245 981.32 471.127 980.268 471.348L979.476 473.291C978.806 472.969 978.127 472.779 977.418 472.559L977.026 473.006L978.082 475.379C973.944 474.377 975.969 475.421 972.974 476.117L972.262 474.274L971.584 474.047C971.088 474.661 971.276 474.405 970.825 475.059L970.51 475.521C970.08 475.035 969.726 474.574 969.367 474.027C969.242 473.838 969.122 473.646 969 473.455C968.252 473.883 967.566 474.223 966.752 474.506L965.943 474L966.845 471.29L966.27 470.92C965.139 471.298 964.709 471.475 963.498 471.326L963.123 470.286C963.92 469.513 963.62 469.756 964.418 469.144C964.591 469.011 964.766 468.883 964.939 468.752L964.827 467.699C963.727 467.23 962.76 466.771 961.745 466.129L961.809 465.209C962.701 464.995 963.538 464.761 964.397 464.437L964.276 463.412L962.202 462.281C962.34 460.608 963.95 461.79 964.89 460.509L963.593 458.208L963.976 457.558L966.256 458.001L966.996 457.492C966.649 456.788 966.402 456.313 966.28 455.529L967.098 455.343L967.973 456.09C968.968 455.238 969.062 454.369 969.485 453.16Z"/>
	<path fill="#FBE072" d="M130.781 249.018C131.728 248.974 132.665 248.916 133.607 249.061C135.366 249.331 136.593 250.052 137.597 251.55C138.549 252.97 138.938 254.486 138.514 256.173C136.375 264.692 120.018 273.679 112.717 277.931C110.829 279.135 108.807 280.183 106.859 281.289C107.948 278.198 109.016 275.16 110.449 272.204C114.826 263.178 120.81 252.508 130.781 249.018Z"/>
	<path fill="#E2B30C" d="M912.154 703.47C908.562 700.966 911.3 701.388 910.154 698.75L907.365 698.12L906.94 697.296L907.923 696.46C908.298 694.896 905.95 692.581 905.682 690.759C905.541 689.794 907.221 688.075 907.816 687.263C907.679 686.194 907.832 686.456 907.388 685.684C907.301 685.533 907.2 685.391 907.106 685.244C907.138 685.213 907.164 685.176 907.2 685.152C910.66 682.807 912.412 678.387 914.484 677.791C917.266 678.661 919.615 677.777 922.469 677.796C924.927 677.812 927.802 678.181 929.551 680.055L929.155 681.717C932.313 684.364 933.417 685.793 934.265 689.918C926.598 693.997 919.401 698.704 912.154 703.47Z"/>
	<path fill="#FBE072" d="M865.108 287.636C866.814 287.639 868.752 288.154 870.191 289.085C871.14 289.699 871.652 290.558 871.836 291.644C872.255 294.115 870.639 296.896 869.221 298.799C861.189 309.574 846.16 310.764 833.938 312.632C831.429 313.032 828.929 313.741 826.456 314.327C839.395 304.758 848.183 290.498 865.108 287.636Z"/>
	<path fill="#FBE072" d="M76.6673 238.051C78.9594 237.8 81.0287 237.751 83.1986 238.652C88.341 240.787 91.4202 245.828 93.4202 250.787C94.8874 254.425 101.707 278.974 100.422 282.013L99.5088 281.701C91.8111 273.546 73.3388 253.62 74.0547 242.596C74.1967 240.409 75.019 239.39 76.6673 238.051Z"/>
	<path fill="#FBE072" d="M871.109 126.127C871.648 126.048 872.189 125.985 872.731 125.938C877.601 125.515 881.762 127.717 885.367 130.823C891.035 135.706 905.573 158.135 906.111 164.653L905.314 164.634C895.365 156.702 883.779 151.703 875.099 141.91C872.299 138.751 868.37 133.811 868.858 129.371C869.059 127.546 869.739 127.144 871.109 126.127Z"/>
	<path fill="#FBE072" d="M904.62 109.484C907.748 110.372 909.408 111.832 910.964 114.707C916.746 125.392 912.821 142.541 910.697 153.711C910.079 156.964 909.876 160.349 908.996 163.538L908.376 163.596C904.374 149.581 898.315 140.655 897.807 124.882C897.697 121.465 897.735 117.843 899.08 114.645C900.306 111.73 901.742 110.64 904.62 109.484Z"/>
	<path fill="#E2B30C" d="M976.081 515.779C977.082 516.606 977.587 517.684 978.245 518.788L979.035 518.734C979.507 517.728 979.85 516.918 980.636 516.112L981.312 516.435C981.391 517.542 981.5 518.573 981.739 519.657L982.575 519.643C983.355 518.747 983.92 517.966 985.023 517.466L985.472 518.018L985.041 521.044L985.444 521.529C987.068 520.8 987.736 520.4 989.458 520.877C989.465 521.995 988.28 523.113 987.618 524.021C988.286 524.776 990.781 524.39 991.955 524.677C991.505 526.267 989.625 526.525 988.959 528.225C990.07 529.314 991.483 528.688 992.846 529.642C992.936 530.829 993.172 530.732 992.351 531.709C991.367 531.923 990.19 532.042 989.42 532.733C988.927 533.176 989.145 533.213 989.212 533.993Q990.551 534.924 991.907 535.83L991.637 536.699C990.59 536.803 989.689 536.869 988.715 537.288Q989.163 538.796 989.648 540.293L989.008 540.919C987.891 540.567 986.89 540.13 985.707 540.386C985.253 541.651 985.697 541.981 986.2 543.157L985.894 543.844C984.885 543.502 983.965 543.053 983.006 542.592C981.856 543.211 981.88 544.252 981.502 545.459L981.017 545.638L979.405 544.197L978.655 544.355L977.86 545.891C977.354 545.25 976.824 544.676 976.263 544.083L975.552 544.114L974.487 546.142L973.822 546.132C973.104 545.512 973.204 545.735 972.853 545.057C972.587 544.542 972.382 543.948 972.06 543.466C971.5 542.627 971.395 542.375 970.425 542.227C969.903 542.821 969.404 543.425 968.914 544.046L968.317 543.71C968.366 542.708 968.329 541.906 968.121 540.924C967.334 541.108 966.799 541.176 966.01 541.198L965.19 540.397C965.859 540.113 966.465 539.916 967.176 539.734C967.436 539.667 967.697 539.606 967.957 539.542C967.503 538.404 967.462 538.631 966.427 538.141C965.552 538.443 964.876 538.665 963.945 538.661L963.589 537.975L966.014 535.359C965.612 534.284 963.76 534.769 962.61 533.892L962.774 533.06L965.485 532.848L965.993 532.253C965.361 530.906 964.055 530.558 962.775 529.854L962.609 529.134C963.849 528.942 965.036 528.85 966.286 528.79C967.316 526.088 965.123 526.154 964.791 524.073C966.079 524.142 967.201 524.167 968.487 523.992L968.814 523.215L967.103 521.232L967.227 520.327C968.641 520.03 968.92 521.665 970.517 521.78C971.317 520.706 971.152 519.627 971.148 518.35C971.145 517.469 970.992 517.887 971.665 517.179C973.104 517.501 973.526 518.517 974.435 519.629L975.02 519.555C975.438 518.311 975.756 517.049 976.081 515.779Z"/>
	<path fill="#FBE072" d="M847.888 262.514C849.454 262.705 850.351 262.977 851.552 264.016C853.171 265.417 854.01 266.96 854.113 269.127C854.722 281.972 837.114 299.416 829.294 308.418L825.025 312.75C827.393 299.415 829.951 285.68 836.311 273.573C839.02 268.414 842.158 264.329 847.888 262.514Z"/>
	<path fill="#FBE072" d="M108.472 223.028C110.041 222.835 111.395 222.663 112.927 223.226Q113.338 223.379 113.73 223.575Q114.122 223.77 114.49 224.008Q114.858 224.245 115.199 224.52Q115.54 224.796 115.849 225.106Q116.158 225.417 116.432 225.759Q116.705 226.101 116.941 226.471Q117.176 226.841 117.37 227.234Q117.564 227.626 117.714 228.038C122.5 241.232 111.724 262.421 106.373 274.649C105.62 276.558 104.73 278.399 103.852 280.253C100.927 266.864 97.7403 250.838 100.409 237.216C101.5 231.644 103.594 226.288 108.472 223.028Z"/>
	<path fill="#E2B30C" d="M940.852 583.612C941.456 583.859 941.885 584.176 942.413 584.551C942.676 585.443 942.893 586.278 943.035 587.2C943.075 587.463 943.107 587.726 943.144 587.989C944.619 587.985 945.556 585.857 947.27 585.502L947.761 586.038Q947.678 588.068 947.534 590.095L948.085 590.604C950.121 590.172 951.949 588.535 953.626 587.342C952.715 589.135 950.727 592.211 951.29 594.159C952.804 593.807 953.762 592.975 955.355 593.133C955.408 594.749 953.182 595.41 952.604 597.139C953.913 597.719 955.343 597.469 956.778 597.829L957.092 598.745L956.511 599.531C955.317 599.906 954.239 600.26 953.119 600.834L953.262 601.568C954.518 601.981 955.723 602.42 956.942 602.931L956.995 603.738L956.023 604.613C954.781 604.827 953.36 604.859 952.422 605.775C952.83 606.849 954.92 607.581 955.87 608.474L955.732 609.391L954.723 610.059C953.595 609.749 952.753 609.439 951.576 609.64L951.46 610.493C952.046 611.473 952.557 612.322 952.913 613.415C951.732 613.795 949.751 612.941 948.51 612.597L947.991 613.209C948.129 614.291 948.252 615.369 948.349 616.456L947.553 616.812C946.51 616.057 945.561 615.4 944.367 614.888C943.145 615.666 942.962 617.244 942.286 618.539C941.51 617.84 940.698 617.241 939.849 616.632C938.482 616.932 938.117 618.13 937.358 619.261C936.126 618.138 936.154 617.226 935.762 615.632L935.136 615.716C934.186 616.833 933.658 617.713 932.242 618.229L931.51 617.462L931.831 613.762L931.307 613.208C930.039 613.685 929.227 614.434 928.185 615.274L927.263 614.993L926.946 614.06C927.629 612.859 928.178 611.918 928.36 610.516C927.758 609.521 927.751 609.381 926.692 608.945C925.772 609.501 925.363 609.787 924.275 609.92L923.634 608.559C923.908 606.879 924.571 606.561 925.757 605.386L925.398 604.681C924.133 604.426 922.619 604.362 921.724 603.351L921.978 602.557C923.126 602.084 924.247 601.72 925.435 601.373C925.941 599.543 922.57 599.432 922.032 597.52C923.44 596.275 925.094 597.506 926.784 596.459C926.711 595.204 925.353 594.42 924.448 593.57C924.723 593.613 924.994 593.689 925.272 593.698C926.309 593.732 927.269 593.596 928.068 592.92Q927.112 591.572 926.122 590.248L926.398 589.52L927.314 589.492C928.385 590.401 928.923 591.031 930.347 591.306L930.832 590.292C930.53 588.921 930.079 587.641 930.561 586.268C931.945 586.065 932.881 588.484 934.489 588.966C935.007 588.246 935.079 587.796 935.132 586.941C935.189 586.01 935.32 585.192 935.545 584.281L936.23 584.605C936.89 585.742 937.346 586.566 938.384 587.406C939.657 586.818 940.227 584.888 940.852 583.612Z"/>
	<path fill="#E2B30C" d="M913.698 513.324C915.589 514.369 915.425 516.919 917.212 517.693C917.499 517.125 917.779 516.548 918.093 515.994C918.772 514.799 918.873 514.354 920.245 514.004C921.58 515.232 921.842 517.152 922.36 518.875L923.181 518.947C923.949 517.919 924.675 517.009 925.596 516.108L926.632 516.377L926.912 517.263C926.629 518.512 926.255 519.649 926.578 520.926C928.343 521.106 928.272 519.665 929.998 519.568C930.741 521.267 930.115 521.978 929.535 523.721C930.624 524.179 932.338 523.216 933.523 522.881L934.171 523.509C933.979 525.15 932.507 526.127 931.58 527.507L931.967 527.958C933.47 528.094 935.075 528.013 936.297 528.997L936.337 530.202C935.513 531.071 934.44 531.409 933.358 531.857L933.001 532.748C934.411 535.342 936.008 532.689 937.959 533.763C938.166 534.999 938.241 535.189 937.749 536.322C935.988 537.662 933.477 537.783 931.339 538.153C932.739 538.62 934.147 539.08 935.526 539.605C936.774 540.08 937.452 540.491 937.999 541.737C936.855 542.836 934.55 542.993 933.04 543.747C933.093 544.934 935.247 546.554 935.933 547.787L935.641 548.626C933.664 549.12 932.523 547.826 930.56 548.117C930.608 549.206 930.931 549.666 931.552 550.513C932.527 551.841 933.395 553.2 934.259 554.602C932.222 553.432 930.541 551.892 928.278 551.143C926.624 551.966 929.078 554.56 928.224 556.164C927.594 555.864 927.877 556.052 927.281 555.495C926.403 554.671 925.773 553.774 924.506 553.658L923.981 554.495C924.239 555.724 924.599 556.869 924.276 558.117L923.281 558.668C921.921 558.011 920.981 556.065 920.07 554.802L919.23 554.733L918.438 555.751C918.244 557.162 918.224 558.638 917.333 559.803L916.321 559.773C915.884 558.333 915.534 556.265 914.379 555.275C912.754 556.257 912.611 558.077 911.159 559.285L910.111 558.879C909.337 557.314 909.72 556.451 909.958 554.75L909.491 554.183C907.492 554.862 907.08 556.87 905.086 557.382C904.065 556.243 905.138 554.02 904.833 552.36C903.553 552.212 902.529 553.449 901.514 554.216L901.178 553.96L902.526 550.513C902.007 549.162 900.381 550.036 899.116 549.214C899.44 547.995 899.717 546.958 899.748 545.688L898.724 545.39C897.664 545.832 896.901 546.14 895.744 546.153L895.118 545.492L895.234 544.73C896.402 544.196 897.382 543.716 898.419 542.944L898.491 541.994C897.523 540.868 895.455 540.834 893.967 540.482L893.647 539.631C894.961 538.138 897.105 537.552 898.913 536.823L893.015 533.91C893.146 533.247 897.055 532.892 897.986 532.247C897.438 530.518 894.873 530.354 894.143 528.51C895.823 527.55 897.451 528.705 899.347 528.295C898.798 526.203 896.804 524.077 895.533 522.304C898.31 523.259 900.894 524.632 903.518 525.939L902.865 524.65C902.018 522.96 900.544 520.725 901.161 518.869C903.182 519.091 904.343 521.06 906.289 521.166L906.58 520.004C906.135 518.743 905.676 517.658 905.776 516.293L906.724 515.503C908.575 516.171 910.145 518.34 911.482 519.763Q912.618 516.553 913.698 513.324Z"/>
	<path fill="#E2B30C" d="M72.3053 548.212C73.3367 548.384 73.9106 548.659 74.7857 549.227C76.0858 551.149 76.2169 553.506 76.5824 555.754C77.2641 553.506 77.6946 550.524 79.288 548.772L80.4932 548.841C81.6756 550.106 81.355 551.892 81.3585 553.578L81.958 554.131C83.9909 553.471 84.6297 551.156 86.7045 550.65C89.3143 552.398 85.9947 554.983 86.9474 557.229C88.6044 557.191 90.587 555.735 92.0272 554.942L92.906 555.322C93.4322 557.155 91.8757 559.919 91.3915 561.819L91.8435 562.276C94.4619 561.429 97.1206 560.714 99.7704 559.972C98.1515 562.583 95.9537 564.805 94.1931 567.334C94.8091 567.905 97.1807 568.037 98.1398 568.308C99.3376 568.647 99.8137 568.865 100.37 570.015C99.0643 572.32 96.0509 572.897 93.6876 573.735C95.6816 574.679 97.8587 575.469 99.4141 577.072C99.565 578.271 99.3752 578.286 98.8483 579.31C97.6519 580.001 96.6403 579.726 95.335 579.56C94.3866 579.439 94.936 579.38 93.8219 579.921C93.7888 582.401 96.497 583.247 96.2963 585.633C94.7459 586.206 92.9969 585.417 91.283 585.578C90.8888 587.051 91.9463 588.686 91.774 590.345C90.1263 590.686 89.0955 589.286 87.4868 588.706L86.4456 589.242L86.126 590.27C86.5029 591.52 86.8708 592.585 86.7649 593.913L85.7458 594.48L84.804 594.188C84.2468 593.022 83.8214 592.09 82.8368 591.207L81.934 591.377C80.8153 592.947 80.5333 594.514 80.1175 596.373L78.9631 596.215C77.7402 594.833 77.9819 593.705 77.165 592.108L76.409 592.244C75.9525 593.214 75.5135 594.318 74.7453 595.082C73.9663 595.857 73.9022 595.928 72.7816 595.912L72.1296 595.013C72.0717 593.722 72.2065 592.351 71.4006 591.273L70.583 591.323C69.6661 592.467 68.7896 593.613 67.94 594.808L66.9127 594.807L66.077 593.779C65.6693 592.28 65.7918 591.634 66.3278 590.243C66.3825 590.101 66.4415 589.961 66.4984 589.821L66.1483 589.337C65.0198 589.657 63.8341 590.066 62.6616 590.155C61.5233 590.242 61.4389 590.122 60.6008 589.434L60.499 588.373C61.2676 587.427 62.051 586.517 62.8694 585.616L62.2791 584.972C60.6901 584.599 59.5101 584.624 57.886 584.799C57.0045 584.895 57.5057 584.952 56.4996 584.51C56.9865 582.578 59.6749 580.784 61.155 579.523C59.0719 579.023 56.88 578.718 55.124 577.432L54.9951 576.552C56.5285 575.011 58.752 574.54 60.7696 573.861L51.8546 569.688C54.4404 569.244 57.896 569.49 59.9286 567.645C59.2048 565.561 56.5058 565.347 55.5276 563.237L55.9363 562.258C57.9353 561.784 59.3374 563.312 61.2524 563.005C61.9312 562.896 62.1848 562.249 62.5771 561.742C62.3615 559.835 60.9729 558.722 59.8737 557.166L60.0921 556.064C61.8847 555.671 64.5634 557.011 66.4081 557.525L67.1443 557.075C67.0518 556.443 66.9123 555.978 66.6271 555.405C66.2305 554.607 65.7538 553.843 65.6104 552.951C65.4369 551.873 65.4507 551.82 66.0874 550.891C68.2138 551.406 70.4228 554.621 71.9096 556.275C71.8658 553.661 71.1486 550.603 72.3053 548.212Z"/>
	<path fill="#FDF7E2" d="M270.597 389.145C259.911 356.681 251.932 323.793 247.712 289.845C246.32 278.652 245.02 267.231 245.46 255.938C246.469 230.029 253.628 202.17 265.317 179.04C292.306 125.635 343.49 88.4378 399.568 70.1451C467.044 48.1344 552.389 51.4859 616.08 83.917C639.307 95.7445 663.837 115.403 672.366 141.007Q673.53 144.582 674.437 148.23C690.452 143.559 705.583 143.748 720.431 151.973C739.991 162.808 749.545 183.091 755.38 203.777C768.582 250.573 765.158 344.982 751.634 391.152C759.502 394.017 765.212 398.192 768.829 406.005C773.888 416.934 772.988 430.291 768.813 441.339C764.51 452.728 747.553 479.914 736.102 484.933C731.934 486.76 728.008 486.797 723.824 485.02C720.275 483.513 717.413 481.283 714.731 478.554C708.824 490.345 702.731 502.042 695.377 513.013C691.89 518.215 686.61 523.198 683.84 528.697C671.388 534.027 658.089 537.874 645.452 542.9C618.673 553.553 591.796 566.778 567.132 581.712C555.038 589.034 542.918 596.922 531.704 605.553C525.569 610.275 518.819 617.976 512.202 621.422C510.248 622.439 496.495 609.686 493.755 607.501C448.067 571.054 388.49 545 332.978 527.414C329.023 520.356 324.321 513.64 320.197 506.662C314.856 497.626 310.352 488.332 306.055 478.765Q304.685 479.642 303.264 480.433C297.885 483.374 291.473 483.42 285.722 481.668C273.705 478.005 264.383 467.067 258.686 456.334C251.333 442.48 248.499 425.161 253.295 410.006C256.314 400.466 261.676 393.724 270.597 389.145Z"/>
	<path fill="#010101" d="M521.887 480.909C523.466 480.988 524.069 481.077 525.127 482.218C525.172 483.46 525.187 483.907 524.532 485.023C522.579 488.348 517.899 490.449 514.279 491.175C508.684 492.297 504.222 490.795 499.628 487.737C498.339 486.574 497.301 485.608 497.259 483.725C497.234 482.562 497.178 482.563 497.998 481.671C502.954 480.835 506.779 487.225 512.377 486.868C516.036 486.635 519.641 483.557 521.887 480.909Z"/>
	<path fill="#010101" d="M472.319 531.649C476.015 532.276 480.458 537.177 483.758 539.215C485.454 540.262 487.302 541.06 489.147 541.804C505.168 548.272 522.311 547.63 537.82 539.942C542.199 537.771 546.083 534.316 550.522 532.424C551.791 532.71 551.745 532.732 552.526 533.783C552.742 535.321 552.647 535.519 552.005 536.947C547.88 539.814 543.694 542.635 539.16 544.82C523.925 552.161 506.794 553.461 490.782 547.837C484.626 545.674 474.054 541.248 471.122 535.19C471.116 533.542 471.527 533.06 472.319 531.649Z"/>
	<path fill="#010101" d="M387.427 354.712C398.758 354.504 407.294 358.479 415.471 366.154C399.398 364.638 382.817 365.352 367.443 370.548C360.037 373.236 355.651 377.916 350.658 383.763Q351.313 381.825 352.136 379.953Q352.96 378.08 353.946 376.288Q354.933 374.496 356.074 372.799Q357.215 371.101 358.502 369.511C365.853 360.548 376.029 355.788 387.427 354.712Z"/>
	<path fill="#010101" d="M628.383 354.206Q630.404 354.147 632.422 354.283Q634.439 354.419 636.434 354.75Q638.429 355.081 640.383 355.603Q642.336 356.125 644.23 356.834C657.024 361.656 665.336 371.698 670.851 383.841C666.033 377.466 660.932 374.672 653.624 371.813C637.928 366.323 617.951 364.172 601.332 366.547C608.648 358.84 617.882 354.91 628.383 354.206Z"/>
	<path fill="#010101" d="M393.54 409.588C397.234 409.346 400.53 409.475 403.961 411.029Q404.697 411.355 405.396 411.753Q406.094 412.152 406.749 412.62Q407.404 413.087 408.008 413.619Q408.612 414.151 409.158 414.742Q409.705 415.332 410.189 415.975Q410.672 416.618 411.088 417.307Q411.504 417.995 411.848 418.723Q412.192 419.45 412.46 420.209Q412.732 420.987 412.925 421.789Q413.118 422.591 413.228 423.408Q413.339 424.225 413.367 425.049Q413.395 425.874 413.339 426.696Q413.284 427.519 413.146 428.332Q413.007 429.145 412.788 429.94Q412.568 430.735 412.27 431.504Q411.971 432.272 411.597 433.007C408.82 438.574 404.182 441.264 398.502 443.088C394.573 443.733 390.6 443.23 387.116 441.217C383.256 438.988 380.48 435.117 379.328 430.838Q379.215 430.417 379.124 429.991Q379.032 429.564 378.964 429.134Q378.895 428.703 378.849 428.27Q378.803 427.836 378.779 427.401Q378.756 426.966 378.755 426.53Q378.754 426.094 378.777 425.659Q378.799 425.223 378.843 424.79Q378.888 424.356 378.956 423.925Q379.023 423.495 379.113 423.068Q379.203 422.642 379.315 422.22Q379.427 421.799 379.56 421.384Q379.694 420.969 379.85 420.562Q380.005 420.154 380.181 419.756Q380.358 419.357 380.555 418.968Q380.752 418.579 380.969 418.201Q381.186 417.823 381.422 417.457C384.33 412.857 388.441 410.819 393.54 409.588Z"/>
	<path fill="#FDF7E2" d="M404.594 427.16C405.135 427.413 405.483 427.553 405.996 427.908C407.121 428.689 407.332 429.444 407.561 430.717C407.103 432.323 406.193 433.011 404.992 434.067C404.479 433.79 403.874 433.506 403.419 433.128C402.353 432.242 402.188 431.621 402.005 430.296C402.553 428.763 403.378 428.144 404.594 427.16Z"/>
	<path fill="#FDF7E2" d="M385.56 415.994C385.72 415.97 385.88 415.939 386.041 415.922C388.158 415.695 390.15 415.883 391.75 417.449C392.703 418.382 393.156 419.623 393.027 420.951C392.808 423.205 391.36 424.207 389.685 425.445C387.648 425.513 385.399 425.591 383.838 424.019C382.848 423.023 382.372 421.982 382.509 420.555C382.715 418.408 384.038 417.306 385.56 415.994Z"/>
	<path fill="#010101" d="M621.43 409.12C625.355 408.885 628.939 409.176 632.517 410.947Q632.913 411.14 633.299 411.353Q633.685 411.566 634.059 411.798Q634.434 412.031 634.795 412.283Q635.157 412.535 635.505 412.805Q635.853 413.075 636.187 413.363Q636.521 413.651 636.839 413.956Q637.157 414.261 637.459 414.582Q637.761 414.904 638.046 415.24Q638.331 415.576 638.598 415.927Q638.865 416.278 639.113 416.642Q639.361 417.006 639.591 417.382Q639.82 417.759 640.029 418.147Q640.238 418.534 640.427 418.933Q640.616 419.331 640.784 419.738Q640.952 420.146 641.099 420.562Q641.245 420.977 641.37 421.4Q641.595 422.179 641.739 422.976Q641.883 423.774 641.944 424.582Q642.005 425.39 641.982 426.2Q641.96 427.01 641.855 427.814Q641.749 428.617 641.562 429.406Q641.374 430.194 641.107 430.959Q640.839 431.724 640.494 432.458Q640.149 433.191 639.731 433.885C636.827 438.784 632.409 441.003 627.122 442.419C622.789 442.786 618.551 442.276 614.713 440.09Q614 439.689 613.331 439.219Q612.662 438.749 612.043 438.214Q611.424 437.68 610.862 437.086Q610.299 436.492 609.799 435.845Q609.299 435.198 608.866 434.504Q608.433 433.81 608.072 433.077Q607.71 432.343 607.424 431.577Q607.137 430.811 606.929 430.02Q606.73 429.238 606.61 428.44Q606.49 427.642 606.449 426.836Q606.408 426.031 606.447 425.225Q606.486 424.419 606.605 423.621Q606.723 422.823 606.92 422.04Q607.117 421.258 607.391 420.499Q607.664 419.739 608.011 419.011Q608.358 418.283 608.775 417.592C611.705 412.663 616.093 410.474 621.43 409.12Z"/>
	<path fill="#FDF7E2" d="M632.866 427.339C633.377 427.523 634.456 427.821 634.911 428.191C636.034 429.104 636.068 429.63 636.215 430.952C635.69 432.565 634.93 433.185 633.682 434.225C633.175 433.97 632.36 433.635 631.915 433.249C630.831 432.308 630.758 431.893 630.528 430.559C631.006 429.058 631.758 428.377 632.866 427.339Z"/>
	<path fill="#FDF7E2" d="M614.112 414.03C615.068 413.97 616.06 413.891 617.015 413.972C618.766 414.12 620.656 415.146 621.692 416.57C622.44 417.599 622.697 418.828 622.316 420.055C621.661 422.165 619.823 423.062 618.012 423.996C617.014 424.07 615.991 424.16 614.99 424.111C613.308 424.028 611.261 423.25 610.24 421.845C609.541 420.883 609.419 419.597 609.76 418.478C610.43 416.282 612.314 415.212 614.112 414.03Z"/>
	<path fill="#3FC0C1" d="M632.865 459.705C639.088 459.341 646.197 460.847 651.217 464.621C654.315 466.951 656.824 470.343 657.274 474.281C657.625 477.358 656.504 480.294 654.539 482.633C649.873 488.181 641.922 489.985 635.011 490.601C628.012 490.73 621.197 489.993 615.338 485.749C612.28 483.535 609.772 480.362 609.363 476.504C609.033 473.398 610.229 470.382 612.209 468.028C617.194 462.101 625.542 460.361 632.865 459.705Z"/>
	<path fill="#3FC0C1" d="M380.872 459.179C388.632 458.516 396.985 459.133 403.742 463.384C407.241 465.585 410.42 468.97 411.158 473.171C411.693 476.217 410.81 479.167 409.04 481.659C404.786 487.646 397.359 489.686 390.531 490.909C382.482 491.642 374.309 491.048 367.265 486.684C363.596 484.411 360.264 481.018 359.43 476.639C358.844 473.564 359.675 470.451 361.52 467.952C365.842 462.097 374.017 460.031 380.872 459.179Z"/>
	<path fill="#010101" d="M270.597 389.145C259.911 356.681 251.932 323.793 247.712 289.845C246.32 278.652 245.02 267.231 245.46 255.938C246.469 230.029 253.628 202.17 265.317 179.04C292.306 125.635 343.49 88.4378 399.568 70.1451C467.044 48.1344 552.389 51.4859 616.08 83.917C639.307 95.7445 663.837 115.403 672.366 141.007Q673.53 144.582 674.437 148.23C690.452 143.559 705.583 143.748 720.431 151.973C739.991 162.808 749.545 183.091 755.38 203.777C768.582 250.573 765.158 344.982 751.634 391.152C744.471 409.813 735.481 426.305 724.258 442.839C727.732 412.726 728.733 383.513 726.875 353.228C729.812 355.334 732.188 358.038 735.482 359.63L735.66 359.416C726.569 352.922 718.141 344.749 710.521 336.602C684.322 308.588 669.757 278.954 660.656 241.954Q656.729 246.224 652.577 250.276C611.781 290.145 539.106 316.679 482.439 315.943C519.918 302.287 550.801 276.544 576.374 246.366C582.807 238.776 589.392 230.808 594.75 222.424C589.976 227.396 585.338 232.452 580.32 237.186C565.527 251.141 548.88 263.734 531.917 274.927C488.501 303.572 443.664 319.916 391.36 322.391C381.235 322.87 371.069 322.572 360.943 322.285L360.664 321.742L361.54 321.671C373.237 320.669 384.999 318.236 395.778 313.49C417.858 303.77 455.471 271.672 471.285 252.801C413.985 294.249 349.883 314.483 279.269 313.896C287.063 317.111 295.96 318.904 304.085 321.262C293.137 361.01 290.992 403.161 294.623 444.088C285.842 425.977 277.306 408.174 270.597 389.145Z"/>
	<path fill="#010101" d="M683.84 528.697C706.326 522.009 728.878 514.982 751.75 509.708Q767.512 506.159 783.407 503.264C790.242 502.048 797.215 501.174 803.985 499.656C810.17 498.27 816.179 495.889 822.24 494.034C829.883 491.696 837.625 489.765 845.238 487.307C834.64 493.567 816.152 508.882 805.907 511.992Q811.296 519.734 816.369 527.687C824.907 525.708 842.534 519.849 849.991 519.392C853.009 519.207 856.257 519.67 858.829 521.359C861.72 523.259 863.74 526.521 864.393 529.893C865.53 535.761 864.723 542.762 864.581 548.733L863.644 583.65C862.193 638.726 859.36 693.83 858.339 748.905C876.39 730.775 891.042 718.026 912.154 703.47C919.401 698.704 926.598 693.997 934.265 689.918C942.846 685.961 951.065 681.221 959.685 677.306C980.16 668.008 1001.18 661.354 1023.05 656.271L1023.5 655.342L1024 655.448L1024 900.623L1024 900.958L1024 1024L1022.49 1024L0 1024L0 891.274L0 890.416L0 658.286L0.599061 658.443L0.880043 658.846C59.7389 661.385 117.876 689.061 160.611 728.939C161.107 729.402 160.903 729.227 161.542 729.646C161.206 714.396 160.346 699.149 159.86 683.9Q158.24 631.16 157.602 578.399L157.425 549.403C157.401 543.605 156.882 537.243 157.895 531.543C158.47 528.305 160.22 524.972 163.028 523.135C170.378 518.327 189.821 524.44 198.448 526.382C200.5 520.825 201.91 514.957 203.52 509.256C194.107 501.028 183.03 494.912 172.387 488.449C191.482 493.287 211.13 496.592 230.378 500.864Q282.232 511.998 332.978 527.414C388.49 545 448.067 571.054 493.755 607.501C496.495 609.686 510.248 622.439 512.202 621.422C518.819 617.976 525.569 610.275 531.704 605.553C542.918 596.922 555.038 589.034 567.132 581.712C591.796 566.778 618.673 553.553 645.452 542.9C658.089 537.874 671.388 534.027 683.84 528.697Z"/>
	<path fill="#FDF7E2" d="M212.323 509.324C223.488 510.717 234.745 513.662 245.728 516.116C310.547 530.598 376.163 552.278 433.777 585.765C445.064 592.326 456.56 599.107 466.494 607.628L460.925 604.538C438.624 592.805 414.222 584.162 390.51 575.798Q367.997 567.61 345.119 560.503Q322.241 553.396 299.051 547.387Q275.861 541.378 252.411 536.48Q228.961 531.582 205.304 527.807C207.865 521.754 209.873 515.435 212.323 509.324Z"/>
	<path fill="#FDF7E2" d="M541.121 613.207C552.462 603.516 573.16 591.248 586.512 583.728C655.685 544.766 727.693 523.708 805.907 511.992Q811.296 519.734 816.369 527.687C805.536 530.403 794.419 532.3 783.48 534.597Q744.983 542.335 706.896 551.885C667.7 562.077 628.309 574.368 590.934 590.062C574.02 597.165 557.887 605.822 541.121 613.207Z"/>
	<path fill="#FAF1B5" d="M1023.5 655.342L1024 655.448L1024 900.623L1024 900.958L1024 1024L1022.49 1024L0 1024L0 891.274L0 890.416L0 658.286L0.599061 658.443L0.880043 658.846C59.7389 661.385 117.876 689.061 160.611 728.939C161.107 729.402 160.903 729.227 161.542 729.646C162.874 750.91 164.054 772.459 164.605 793.752C166.766 817.441 167.312 841.42 168.658 865.184C169.166 874.146 168.494 884.87 170.935 893.472C172.268 898.169 174.88 901.753 178.609 904.885C187.31 912.191 210.545 918.666 222.068 922.545Q251.983 932.778 282.307 941.725Q312.632 950.672 343.311 958.316Q373.989 965.959 404.967 972.286Q435.944 978.613 467.163 983.611C478.988 995.157 495.685 998.994 511.818 998.804C526.403 998.631 544.164 995.001 554.694 984.056C554.965 983.775 555.217 983.476 555.471 983.179C571.956 981.718 588.936 977.575 605.192 974.391Q653.924 964.411 701.956 951.476Q749.989 938.542 797.143 922.702C809.235 918.737 830.569 912.894 840.985 907.129C843.952 905.487 846.404 903.15 848.57 900.569C851.313 897.301 852.567 893.594 853.35 889.452C855.187 879.735 854.638 868.697 854.957 858.798C855.539 840.72 856.284 822.606 856.603 804.522C857.377 785.989 857.516 767.43 858.339 748.905C876.39 730.775 891.042 718.026 912.154 703.47C919.401 698.704 926.598 693.997 934.265 689.918C942.846 685.961 951.065 681.221 959.685 677.306C980.16 668.008 1001.18 661.354 1023.05 656.271L1023.5 655.342Z"/>
	<path fill="#FBE072" d="M0 658.286L0.599061 658.443L0.880043 658.846C59.7389 661.385 117.876 689.061 160.611 728.939C161.107 729.402 160.903 729.227 161.542 729.646C162.874 750.91 164.054 772.459 164.605 793.752C126.15 811.177 88.3226 828.988 52.8029 852.015C41.2807 859.485 29.7552 867.384 19.0063 875.939C15.4476 878.771 2.93608 890.451 0 891.274L0 890.416L0 658.286Z"/>
	<path fill="#FDF7E2" d="M42.8905 809.276C43.9351 809.431 45.0207 809.536 45.9222 810.142C46.9354 810.822 47.6177 811.53 47.7468 812.799C47.9574 814.87 46.7019 816.259 45.4576 817.715C44.4339 817.619 43.4665 817.559 42.6008 816.938C41.5301 816.169 40.7531 815.287 40.6232 813.92C40.4247 811.831 41.5459 810.634 42.8905 809.276Z"/>
	<path fill="#FDF7E2" d="M76.3731 702.397C78.0467 702.345 80.3614 702.422 81.5834 703.77C82.4686 704.746 82.8385 705.617 82.6884 706.953C82.5122 708.523 81.2259 709.678 80.179 710.735C78.605 710.959 77.0385 710.927 75.6712 710.012C74.6093 709.302 74.0626 708.297 73.9914 707.028C73.8718 704.897 75.0006 703.792 76.3731 702.397Z"/>
	<path fill="#FDF7E2" d="M106.983 764.484C108.73 764.713 110.304 765 111.513 766.449C112.324 767.421 112.653 768.622 112.422 769.871C112.028 772 110.648 772.977 108.964 774.077C107.201 773.963 105.615 773.638 104.387 772.233C103.555 771.282 103.27 770.035 103.475 768.802C103.842 766.597 105.265 765.64 106.983 764.484Z"/>
	<path fill="#FDF7E2" d="M32.9415 734.65C35.1697 734.582 37.5843 734.979 39.6202 735.899Q40.2227 736.165 40.7952 736.49Q41.3678 736.816 41.9046 737.197Q42.4414 737.579 42.937 738.013Q43.4326 738.446 43.882 738.928Q44.3313 739.409 44.7298 739.933Q45.1283 740.458 45.4718 741.02Q45.8154 741.581 46.1005 742.175Q46.3857 742.769 46.6095 743.388C47.9437 747.018 47.8695 751.134 46.0794 754.599C43.8574 758.9 40.3447 760.646 35.9646 762.06C32.8831 762.267 29.8952 762.098 27.1458 760.554C23.8017 758.675 21.5935 755.496 20.7068 751.787C19.8283 748.111 20.2785 744.075 22.358 740.871C24.8976 736.959 28.5332 735.492 32.9415 734.65Z"/>
	<path fill="#FBE072" d="M1023.5 655.342L1024 655.448L1024 900.623L1023.02 900.419C1009.61 890.86 996.697 880.732 983.021 871.497C956.241 853.413 927.253 837.157 898.308 822.817C892.932 820.154 860.774 803.87 857.724 804.144C857.331 804.179 856.977 804.396 856.603 804.522C857.377 785.989 857.516 767.43 858.339 748.905C876.39 730.775 891.042 718.026 912.154 703.47C919.401 698.704 926.598 693.997 934.265 689.918C942.846 685.961 951.065 681.221 959.685 677.306C980.16 668.008 1001.18 661.354 1023.05 656.271L1023.5 655.342Z"/>
	<path fill="#FDF7E2" d="M996.913 720.945C998.714 720.963 1000.32 721.038 1001.75 722.331C1002.67 723.174 1003.15 724.295 1003 725.553C1002.74 727.64 1001.3 728.709 999.754 729.885C999.612 729.892 999.471 729.91 999.33 729.907C997.824 729.876 996.091 729.262 995.139 728.021C994.342 726.983 994.106 725.833 994.301 724.542C994.555 722.869 995.717 721.975 996.913 720.945Z"/>
	<path fill="#FDF7E2" d="M940.627 721.442C942.256 721.363 943.743 721.35 945.092 722.458C946.121 723.302 946.587 724.377 946.562 725.701C946.519 727.964 945.378 729.07 943.864 730.547C942.21 730.628 940.946 730.646 939.578 729.514C938.47 728.598 938.142 727.741 938.068 726.332C937.951 724.144 939.209 722.877 940.627 721.442Z"/>
	<path fill="#FDF7E2" d="M901.475 748.397C903.245 748.766 904.782 749.166 905.922 750.723C906.734 751.832 906.865 752.847 906.605 754.168C906.204 756.207 904.582 757.216 902.955 758.223C901.133 757.899 899.42 757.405 898.257 755.833C897.534 754.857 897.303 753.556 897.601 752.382C898.124 750.325 899.781 749.385 901.475 748.397Z"/>
	<path fill="#FDF7E2" d="M971.522 778.609C974.317 778.332 976.938 778.121 979.641 779.088Q980.305 779.319 980.942 779.616Q981.579 779.914 982.182 780.276Q982.785 780.638 983.348 781.059Q983.91 781.481 984.427 781.959Q984.943 782.436 985.408 782.964Q985.872 783.492 986.28 784.065Q986.688 784.637 987.034 785.249Q987.381 785.861 987.663 786.505Q987.952 787.162 988.174 787.844Q988.396 788.527 988.548 789.228Q988.701 789.929 988.783 790.642Q988.865 791.355 988.876 792.072Q988.886 792.79 988.825 793.505Q988.764 794.22 988.633 794.925Q988.5 795.63 988.299 796.319Q988.097 797.008 987.828 797.673C985.975 802.157 982.653 804.345 978.381 806.141C975.533 806.518 973.04 806.734 970.275 805.791C966.603 804.54 963.74 801.83 962.206 798.276C960.715 794.822 960.402 790.74 961.838 787.213C963.706 782.622 967.232 780.529 971.522 778.609Z"/>
	<path fill="#3FC0C1" d="M841.388 542.098L842.206 542.012L842.797 542.528C843.004 546.182 842.502 549.858 842.331 553.512C842.006 560.464 841.842 567.426 841.577 574.381L839.003 643.276Q835.037 732.153 832.27 821.075C831.611 841.206 830.664 861.318 830.291 881.458Q749.812 910.563 667.212 932.95Q638.858 940.716 610.307 947.723C598.74 950.568 586.048 952.74 574.895 956.863C560.861 962.05 548.989 971.684 535.38 977.693Q534.28 978.167 533.163 978.599Q532.045 979.03 530.912 979.418Q529.778 979.807 528.631 980.151Q527.484 980.495 526.324 980.794Q525.164 981.093 523.993 981.348Q522.823 981.602 521.643 981.811Q520.464 982.02 519.277 982.184Q518.09 982.347 516.898 982.464Q515.706 982.582 514.51 982.653Q513.314 982.725 512.117 982.75Q510.919 982.775 509.721 982.754Q508.523 982.733 507.327 982.665Q506.131 982.598 504.939 982.484Q503.746 982.371 502.559 982.211Q501.372 982.052 500.192 981.847Q499.011 981.642 497.84 981.391C477.735 977.173 461.952 961.596 442.309 955.524C430.722 951.942 418.654 949.681 406.854 946.896Q381.018 940.606 355.282 933.92Q313.736 923.103 272.895 909.869Q232.054 896.635 192.059 881.031L191.57 872.51C191.508 858.732 190.473 844.874 189.896 831.105L187.482 766.148C184.572 692.431 181.871 618.436 182.497 544.661Q211.525 549.551 240.325 555.645Q269.124 561.738 297.645 569.024Q326.167 576.309 354.36 584.775Q382.554 593.24 410.371 602.871C427.993 609.164 446.369 615.249 463.136 623.55C463.687 626.227 464.488 628.964 465.826 631.36C470.266 639.311 478.825 643.586 487.294 645.893C504.453 650.567 528.961 650.143 544.686 640.983C552.026 636.707 556.199 631.036 558.314 622.836C568.251 618.092 578.772 614.185 589.01 610.118C643.522 588.462 700.496 573.626 757.647 560.815C785.532 554.564 813.683 549.112 841.388 542.098Z"/>
	<path fill="#010101" d="M548.215 657.601C550.486 663.874 550.371 704.161 550.473 713.271Q552.715 831.103 547.832 948.855L547.591 949.308C546.173 946.149 546.474 919.459 546.37 913.483C544.902 828.315 543.949 742.693 548.215 657.601Z"/>
	<path fill="#010101" d="M474.769 656.631C478.545 704.009 478.116 751.997 477.983 799.494Q478.065 873.974 475.723 948.417C474.218 940.509 474.644 931.524 474.345 923.461Q473.154 891.867 472.976 860.25Q471.922 795.678 472.295 731.099C472.513 706.513 472.191 681.084 474.769 656.631Z"/>
</svg>
