<?xml version="1.0" encoding="utf-8" ?>
<svg xmlns="http://www.w3.org/2000/svg" xmlns:xlink="http://www.w3.org/1999/xlink" width="1024" height="1024">
	<path d="M0 0L1023.27 0L1024 0L1024 383.918L1024 789.344L1024 850.418L1024 1024L1023.41 1024L0 1024L0 787.588L0 445.164L0 0Z"/>
	<path fill="#2F2B33" d="M1023.56 789.468L1024 789.344L1024 850.418L1023.53 850.322C1022.99 839.466 1023.58 828.357 1023.61 817.468C1023.63 808.171 1023.08 798.747 1023.56 789.468Z"/>
	<path fill="#5D515D" d="M1023.53 850.322L1024 850.418L1024 1024L1023.41 1024L1023.53 850.322Z"/>
	<path fill="#65CEBD" d="M369.369 388.325C366.436 383.115 363.845 377.925 362.257 372.134C354.232 342.87 364.557 308.066 379.244 282.367Q380.181 280.758 381.157 279.173Q382.133 277.588 383.147 276.027Q384.162 274.466 385.214 272.93Q386.266 271.394 387.356 269.885Q388.446 268.375 389.572 266.893Q390.698 265.411 391.86 263.956Q393.022 262.502 394.22 261.077Q395.417 259.651 396.649 258.256Q397.881 256.86 399.147 255.495Q400.413 254.13 401.712 252.796Q403.011 251.462 404.342 250.161Q405.673 248.859 407.035 247.591Q408.398 246.322 409.791 245.087Q411.184 243.852 412.607 242.652Q414.03 241.452 415.482 240.287Q416.934 239.121 418.414 237.992Q419.894 236.863 421.401 235.77Q422.909 234.678 424.442 233.622Q425.976 232.567 427.535 231.549Q429.093 230.531 430.677 229.552Q432.26 228.573 433.867 227.633Q435.474 226.693 437.103 225.792Q438.733 224.892 440.384 224.032Q442.034 223.171 443.706 222.352Q445.377 221.532 447.069 220.754Q448.76 219.975 450.469 219.238Q452.179 218.501 453.906 217.807Q455.633 217.112 457.377 216.459Q459.12 215.807 460.879 215.198Q462.638 214.588 464.412 214.022Q466.185 213.456 467.972 212.933Q469.759 212.411 471.558 211.932Q473.432 211.434 475.318 210.982Q477.204 210.531 479.1 210.125Q480.997 209.72 482.902 209.361Q484.808 209.002 486.722 208.69Q488.636 208.378 490.557 208.113Q492.478 207.847 494.405 207.629Q496.332 207.411 498.264 207.24Q500.195 207.069 502.13 206.946Q504.066 206.822 506.003 206.746Q507.941 206.67 509.88 206.641Q511.819 206.613 513.758 206.631Q515.698 206.65 517.636 206.717Q519.574 206.783 521.51 206.896Q523.445 207.01 525.378 207.171Q527.31 207.332 529.238 207.54Q531.166 207.749 533.089 208.004Q535.011 208.26 536.927 208.562Q538.842 208.864 540.75 209.214Q542.657 209.563 544.556 209.959Q546.454 210.354 548.342 210.796Q550.23 211.239 552.107 211.727Q553.984 212.215 555.848 212.749Q557.712 213.283 559.563 213.862Q561.413 214.442 563.249 215.067Q565.085 215.691 566.905 216.361Q568.725 217.03 570.528 217.744Q572.331 218.457 574.117 219.215Q575.902 219.973 577.668 220.774Q579.434 221.575 581.18 222.419Q582.925 223.263 584.65 224.149Q586.375 225.036 588.077 225.965Q589.78 226.893 591.459 227.863C617.179 242.783 639.161 267.102 651.851 294.029C656.766 304.458 660.181 315.258 663.142 326.374C646.654 334.658 631.354 349.435 620.28 364.106C619.263 365.453 617.018 367.944 617.251 369.642C631.134 353.072 641.489 342.302 661.767 333.008Q663.292 332.312 664.835 331.655Q666.377 330.997 667.934 330.377Q669.492 329.757 671.065 329.176Q672.637 328.595 674.224 328.053Q675.81 327.511 677.41 327.008Q679.009 326.505 680.62 326.041Q682.231 325.578 683.854 325.154Q685.476 324.731 687.108 324.347Q688.74 323.964 690.381 323.62Q692.022 323.277 693.671 322.974Q695.32 322.672 696.976 322.41Q698.632 322.148 700.294 321.927Q701.956 321.705 703.622 321.525Q705.289 321.345 706.96 321.206Q708.631 321.067 710.305 320.969Q711.978 320.871 713.654 320.815Q715.329 320.758 717.006 320.743Q718.682 320.727 720.359 320.753Q722.035 320.779 723.71 320.847Q725.385 320.914 727.058 321.022Q728.731 321.131 730.401 321.28Q732.071 321.43 733.737 321.621Q735.402 321.811 737.063 322.043Q738.723 322.275 740.378 322.547Q742.032 322.82 743.679 323.133Q745.326 323.446 746.965 323.8Q748.604 324.153 750.233 324.547Q751.863 324.941 753.482 325.375Q755.101 325.809 756.71 326.283Q758.318 326.756 759.914 327.269Q761.51 327.782 763.093 328.335Q764.676 328.887 766.245 329.478Q767.764 330.06 769.269 330.679Q770.774 331.297 772.264 331.952Q773.753 332.607 775.227 333.297Q776.7 333.988 778.156 334.714Q779.612 335.44 781.05 336.201Q782.488 336.962 783.908 337.757Q785.327 338.553 786.727 339.383Q788.126 340.212 789.506 341.076Q790.885 341.939 792.243 342.835Q793.601 343.731 794.937 344.66Q796.272 345.589 797.585 346.55Q798.898 347.511 800.188 348.503Q801.477 349.496 802.742 350.519Q804.007 351.542 805.247 352.596Q806.487 353.649 807.701 354.733Q808.915 355.816 810.103 356.928Q811.291 358.04 812.451 359.181Q813.611 360.322 814.744 361.49Q815.876 362.658 816.98 363.854Q818.084 365.049 819.158 366.271Q820.233 367.493 821.278 368.74Q822.322 369.987 823.337 371.26Q824.351 372.532 825.334 373.828Q826.317 375.125 827.269 376.445Q828.22 377.764 829.14 379.107Q830.059 380.449 830.946 381.814Q831.833 383.178 832.686 384.563Q833.539 385.948 834.359 387.354Q835.179 388.76 835.964 390.184Q836.75 391.609 837.501 393.053Q838.251 394.496 838.967 395.958Q839.683 397.419 840.363 398.897C857.48 437.084 855.815 476.639 841.078 515.168Q832.592 514.981 824.134 515.693C783.505 519.238 741.696 541.637 715.49 572.767C722.221 566.707 728.601 560.451 735.779 554.889Q737.739 553.385 739.744 551.941Q741.748 550.497 743.796 549.114Q745.843 547.732 747.932 546.412Q750.02 545.091 752.147 543.835Q754.275 542.579 756.439 541.387Q758.603 540.196 760.802 539.07Q763.002 537.945 765.234 536.886Q767.466 535.828 769.73 534.837Q771.993 533.847 774.285 532.925Q776.578 532.003 778.897 531.151Q781.216 530.299 783.56 529.518Q785.903 528.737 788.27 528.026Q790.636 527.316 793.023 526.678Q795.41 526.04 797.814 525.474Q800.219 524.908 802.64 524.415Q805.061 523.922 807.496 523.503C845.08 517.004 882.723 524.933 913.944 547.056Q915.315 548.016 916.662 549.01Q918.008 550.004 919.329 551.032Q920.651 552.06 921.946 553.12Q923.241 554.18 924.509 555.273Q925.777 556.365 927.018 557.489Q928.258 558.613 929.47 559.767Q930.682 560.922 931.864 562.107Q933.047 563.291 934.199 564.505Q935.352 565.719 936.473 566.961Q937.595 568.204 938.685 569.474Q939.775 570.744 940.833 572.041Q941.891 573.338 942.917 574.661Q943.942 575.984 944.934 577.332Q945.925 578.681 946.883 580.053Q947.841 581.426 948.764 582.822Q949.687 584.219 950.574 585.638Q951.462 587.057 952.314 588.498Q953.166 589.938 953.981 591.4Q954.797 592.862 955.575 594.343Q956.354 595.825 957.095 597.326Q957.837 598.826 958.54 600.345Q959.243 601.864 959.908 603.4Q960.574 604.936 961.2 606.488Q961.827 608.04 962.414 609.608Q963.001 611.175 963.549 612.757Q964.097 614.338 964.605 615.933Q965.114 617.528 965.582 619.135Q966.05 620.742 966.477 622.36Q966.905 623.978 967.292 625.607Q967.679 627.235 968.025 628.873Q968.371 630.51 968.676 632.156Q968.98 633.802 969.244 635.455Q969.496 636.969 969.71 638.488Q969.925 640.007 970.102 641.531Q970.28 643.055 970.42 644.583Q970.56 646.111 970.663 647.642Q970.766 649.172 970.831 650.705Q970.897 652.238 970.925 653.772Q970.953 655.306 970.943 656.841Q970.934 658.375 970.887 659.909Q970.84 661.442 970.756 662.974Q970.672 664.506 970.55 666.036Q970.428 667.565 970.269 669.091Q970.11 670.617 969.914 672.139Q969.718 673.661 969.485 675.177Q969.252 676.693 968.981 678.204Q968.711 679.714 968.404 681.217Q968.097 682.721 967.754 684.216Q967.41 685.711 967.03 687.198Q966.65 688.684 966.234 690.161Q965.818 691.638 965.366 693.104Q964.914 694.57 964.426 696.025Q963.938 697.48 963.415 698.922Q962.892 700.365 962.334 701.794Q961.775 703.223 961.182 704.638Q960.59 706.053 959.962 707.453Q959.335 708.854 958.674 710.238Q958.013 711.623 957.318 712.99Q956.623 714.358 955.895 715.709Q955.167 717.06 954.406 718.392Q953.645 719.724 952.852 721.038Q952.059 722.351 951.234 723.645Q950.409 724.939 949.553 726.212Q948.697 727.485 947.81 728.737C921.219 765.483 886.636 778.688 844.144 788.008C832.933 790.468 821.683 792.907 810.351 794.741Q773.479 801.237 736.322 805.839Q699.166 810.441 661.823 813.137Q637.52 815.262 613.168 816.717Q588.815 818.172 564.432 818.957Q540.049 819.742 515.653 819.856Q491.258 819.969 466.868 819.412Q442.479 818.854 418.114 817.626Q393.749 816.398 369.427 814.5Q345.106 812.602 320.845 810.035Q296.585 807.469 272.404 804.236C239.124 799.549 206.17 794.461 173.353 787.098C161.522 784.443 148.833 781.941 137.48 777.681C106.504 766.057 79.0603 738.212 65.6115 708.351C50.9249 675.741 51.0378 637.733 63.8521 604.567C76.0605 572.969 99.7037 546.622 131.003 532.977Q132.193 532.458 133.394 531.966Q134.595 531.474 135.807 531.009Q137.019 530.544 138.241 530.106Q139.464 529.669 140.695 529.259Q141.927 528.849 143.168 528.467Q144.408 528.085 145.657 527.731Q146.906 527.377 148.163 527.051Q149.419 526.725 150.683 526.428Q151.947 526.13 153.217 525.862Q154.486 525.593 155.762 525.353Q157.038 525.112 158.319 524.901Q159.6 524.69 160.885 524.507Q162.17 524.325 163.459 524.171Q164.748 524.018 166.04 523.893Q167.332 523.769 168.627 523.674Q169.922 523.578 171.218 523.512Q172.514 523.446 173.812 523.409Q175.11 523.372 176.408 523.365Q177.706 523.357 179.004 523.379Q180.302 523.4 181.599 523.451Q182.896 523.502 184.192 523.582Q185.487 523.662 186.781 523.772Q188.074 523.881 189.365 524.019Q190.656 524.157 191.943 524.325Q193.23 524.492 194.514 524.688Q195.797 524.885 197.075 525.11Q198.354 525.335 199.627 525.589Q200.9 525.843 202.167 526.126Q203.434 526.408 204.694 526.719Q205.954 527.03 207.208 527.369Q208.46 527.709 209.706 528.076Q210.951 528.444 212.187 528.839C217.224 530.427 222.077 532.943 226.998 534.884C218.163 527.765 196.625 523.389 185.278 521.941C182.201 512.866 178.231 504.293 175.713 494.993Q174.939 492.083 174.288 489.143Q173.637 486.203 173.11 483.238Q172.584 480.274 172.183 477.289Q171.782 474.305 171.507 471.306Q171.231 468.308 171.083 465.3Q170.934 462.293 170.913 459.282Q170.891 456.271 170.996 453.261Q171.101 450.252 171.333 447.25Q171.564 444.247 171.922 441.258Q172.28 438.268 172.764 435.296Q173.248 432.324 173.856 429.374Q174.464 426.425 175.196 423.505Q175.928 420.584 176.783 417.696Q177.637 414.809 178.612 411.96Q179.588 409.111 180.682 406.306Q181.776 403.501 182.988 400.744Q183.648 399.243 184.345 397.759Q185.042 396.275 185.775 394.809Q186.507 393.342 187.276 391.894Q188.045 390.446 188.849 389.017Q189.652 387.588 190.491 386.18Q191.33 384.771 192.203 383.383Q193.076 381.996 193.982 380.63Q194.889 379.264 195.829 377.92Q196.769 376.577 197.741 375.257Q198.714 373.937 199.718 372.642Q200.723 371.346 201.759 370.076Q202.795 368.805 203.862 367.56Q204.929 366.315 206.026 365.097Q207.123 363.879 208.249 362.688Q209.376 361.497 210.531 360.333Q211.687 359.17 212.87 358.036Q214.054 356.901 215.265 355.796Q216.476 354.691 217.714 353.616Q218.951 352.541 220.215 351.497Q221.479 350.452 222.768 349.439Q224.056 348.426 225.37 347.445Q226.683 346.463 228.02 345.515Q229.357 344.566 230.717 343.65Q232.077 342.734 233.459 341.852Q234.841 340.97 236.244 340.122Q237.647 339.274 239.07 338.461Q240.494 337.648 241.937 336.869Q243.38 336.091 244.841 335.348Q246.303 334.606 247.782 333.899Q249.262 333.193 250.758 332.523Q252.254 331.852 253.767 331.219Q255.279 330.586 256.806 329.99C287.594 317.994 324.019 316.64 354.591 329.977C354.406 334.019 354.063 338.057 354.014 342.103C353.805 359.234 357.083 375.721 369.369 388.325Z"/>
	<path fill="#FDFDFD" d="M277.68 361.485C277.903 361.46 278.124 361.427 278.347 361.412C279.998 361.298 281.752 361.513 282.922 362.813C283.876 363.875 284.362 365.062 284.362 366.487C284.364 369.518 283.166 371.14 281.061 373.17C280.494 373.286 279.825 373.448 279.248 373.448C278.087 373.449 276.776 372.836 275.978 372.007C274.756 370.736 274.435 369.034 274.536 367.332C274.698 364.594 275.718 363.293 277.68 361.485Z"/>
	<path fill="#FDFDFD" d="M484.473 247.012C485.407 246.954 486.361 246.871 487.296 246.969C488.783 247.125 490.498 247.891 491.36 249.177C492.37 250.684 492.546 252.073 492.263 253.824C491.72 257.179 489.718 259.332 487.123 261.335C486.242 261.582 485.401 261.815 484.474 261.81C482.794 261.801 481.286 261.012 480.311 259.637C479.047 257.853 479.024 255.513 479.455 253.454C480.139 250.191 481.728 248.695 484.473 247.012Z"/>
	<path fill="#FDFDFD" d="M159.029 563.891C159.707 563.89 160.572 563.835 161.25 563.977C162.832 564.307 164.311 565.23 165.226 566.578C166.385 568.286 166.482 570.32 166.088 572.291C165.409 575.684 163.746 577.572 161.002 579.516C160.341 579.575 159.676 579.633 159.012 579.632C157.341 579.628 155.662 578.86 154.623 577.527C153.622 576.243 153.362 574.656 153.504 573.08C153.878 568.936 155.871 566.401 159.029 563.891Z"/>
	<path fill="#FDFDFD" d="M128.123 588.056C129.077 587.953 130.046 587.842 131.007 587.845C133.146 587.85 135.517 588.631 137.013 590.21C138.664 591.953 138.909 594.591 138.735 596.874C137.753 609.757 122.549 632.212 112.845 640.715C111.193 641.682 109.299 642.592 107.337 641.966C106.134 641.582 105.338 640.502 104.864 639.387C101.389 631.208 105.859 618.866 109.168 611.357C113.038 602.573 118.703 591.736 128.123 588.056Z"/>
	<path fill="#FDFDFD" d="M248.787 373.094C250.394 373.117 251.878 373.148 253.364 373.83C255.141 374.646 256.651 376.001 257.291 377.888C258.874 382.558 256.256 389.247 254.244 393.545C249.054 404.632 239.503 418.141 227.64 422.468C226.416 422.535 225.192 422.531 224.061 421.991C222.077 421.044 220.126 419.431 219.491 417.249C217.659 410.956 221.167 402.095 224.188 396.612C229.295 387.346 238.223 376.109 248.787 373.094Z"/>
	<path fill="#FDFDFD" d="M448.387 265.541C450.515 265.396 452.655 265.345 454.662 266.18C456.659 267.011 458.12 268.431 458.918 270.451C460.869 275.388 458.549 281.544 456.396 286.081C451.529 296.34 440.219 316.619 429.27 320.534C427.775 320.509 426.579 320.404 425.196 319.79C422.348 318.525 420.08 316.337 419.06 313.369C416.568 306.115 418.941 296.619 422.16 289.921C427.53 278.744 436.637 269.675 448.387 265.541Z"/>
	<path d="M468.449 559.048C469.918 558.975 471.996 558.931 473.344 559.547C476.829 561.138 479.776 567.41 482.485 570.325C484.88 572.902 488.085 575.03 491.19 576.653C503.824 583.257 526.02 582.935 537.617 574.088C542.752 570.171 547.133 560.474 553.084 558.879C554.556 558.485 556.143 558.67 557.387 559.614C558.741 560.641 559.513 562.302 559.862 563.922C560.693 567.779 559.108 569.932 557.096 573.004C553.869 577.618 550.067 581.776 545.522 585.125C532.966 594.376 516.035 596.262 500.962 593.894C487.555 591.788 474.607 584.508 466.72 573.295C464.881 570.682 463.304 567.601 464.023 564.311C464.586 561.736 466.354 560.419 468.449 559.048Z"/>
	<path d="M368.574 508.577C374.289 508.264 379.057 508.954 384.02 512.124C391.748 517.062 396.563 525.71 398.481 534.509C400.862 545.434 399.17 557.874 392.964 567.301C388.476 574.118 382.511 577.793 374.619 579.443C369.055 579.809 364.519 579.002 359.643 576.147C351.883 571.605 347.058 563.422 344.934 554.872C342.204 543.881 343.68 531.724 349.697 522.041C354.161 514.855 360.344 510.544 368.574 508.577Z"/>
	<path fill="#FDFDFD" d="M358.583 526.47C359.609 526.505 360.696 526.515 361.699 526.749C363.318 527.126 364.835 528.421 365.661 529.832C366.79 531.758 366.946 534.016 366.224 536.118C365.27 538.897 363.728 540.109 361.137 541.288C360.084 541.191 358.954 541.119 357.952 540.766C356.12 540.12 354.495 538.546 353.672 536.806C352.831 535.029 352.804 533.012 353.506 531.184C354.477 528.655 356.248 527.612 358.583 526.47Z"/>
	<path d="M653.545 508.135C658.552 507.991 663.155 508.692 667.624 511.116C675.76 515.529 681.234 524.506 683.659 533.224Q683.942 534.271 684.174 535.33Q684.406 536.389 684.586 537.458Q684.767 538.527 684.895 539.604Q685.024 540.681 685.1 541.762Q685.176 542.844 685.199 543.928Q685.223 545.012 685.194 546.096Q685.165 547.18 685.083 548.261Q685.002 549.342 684.868 550.418Q684.734 551.494 684.548 552.562Q684.362 553.63 684.125 554.688Q683.888 555.746 683.599 556.792Q683.311 557.837 682.972 558.867Q682.634 559.897 682.245 560.909Q681.857 561.922 681.42 562.914Q680.984 563.906 680.499 564.876Q680.015 565.847 679.484 566.792C675.069 574.562 668.879 579.313 660.285 581.636C653.755 582.309 647.907 581.456 642.394 577.66C634.561 572.265 630.058 562.933 628.314 553.797C626.159 542.512 628.535 529.852 635.125 520.378C639.588 513.963 645.756 509.514 653.545 508.135Z"/>
	<path fill="#FDFDFD" d="M641.049 528.037C641.858 527.928 642.69 527.813 643.508 527.831C645.408 527.873 647.319 528.837 648.496 530.325C649.707 531.857 650.077 533.768 649.794 535.678C649.381 538.458 647.805 540.104 645.644 541.722C644.578 541.881 643.572 542.062 642.493 541.864C640.908 541.574 639.361 540.597 638.419 539.29C637.241 537.659 636.916 535.577 637.216 533.615C637.637 530.862 638.929 529.705 641.049 528.037Z"/>
	<path fill="#FBF6D2" d="M519.797 710.495Q521.342 706.707 523.204 703.065Q525.067 699.424 527.234 695.954Q529.401 692.485 531.856 689.213Q534.311 685.941 537.037 682.891Q537.974 681.873 538.937 680.878Q539.899 679.884 540.885 678.913Q541.871 677.942 542.881 676.996Q543.891 676.049 544.923 675.128Q545.956 674.207 547.011 673.311Q548.066 672.415 549.142 671.545Q550.219 670.676 551.316 669.833Q552.414 668.99 553.531 668.174Q554.649 667.358 555.786 666.57Q556.924 665.781 558.08 665.021Q559.237 664.261 560.411 663.529Q561.586 662.798 562.778 662.095Q563.97 661.392 565.18 660.719Q566.389 660.046 567.614 659.402Q568.839 658.759 570.08 658.146Q571.32 657.532 572.576 656.95Q573.831 656.367 575.1 655.815Q576.369 655.264 577.651 654.743Q578.934 654.223 580.228 653.734Q581.523 653.245 582.829 652.788Q584.135 652.331 585.452 651.906Q586.769 651.481 588.096 651.088Q589.423 650.696 590.76 650.336Q592.096 649.976 593.441 649.649Q594.785 649.322 596.138 649.028Q597.49 648.733 598.849 648.473Q600.208 648.212 601.573 647.984Q602.938 647.757 604.308 647.563Q605.679 647.369 607.053 647.208Q608.428 647.048 609.806 646.921Q611.184 646.795 612.565 646.702Q613.945 646.609 615.328 646.55Q616.783 646.483 618.239 646.452Q619.695 646.421 621.152 646.425Q622.608 646.43 624.064 646.471Q625.52 646.511 626.974 646.588Q628.429 646.664 629.881 646.776Q631.333 646.888 632.782 647.036Q634.231 647.184 635.675 647.368Q637.12 647.551 638.56 647.77Q640 647.99 641.434 648.244Q642.868 648.498 644.295 648.788Q645.723 649.078 647.142 649.403Q648.562 649.727 649.974 650.087Q651.385 650.447 652.787 650.841Q654.189 651.235 655.581 651.664Q656.973 652.093 658.354 652.555Q659.735 653.018 661.104 653.515Q662.473 654.012 663.83 654.542Q665.186 655.072 666.529 655.635Q667.872 656.199 669.201 656.795Q670.529 657.392 671.843 658.021Q673.157 658.65 674.454 659.311Q675.752 659.972 677.033 660.665Q678.314 661.357 679.578 662.082Q680.842 662.806 682.087 663.561Q683.333 664.316 684.559 665.102Q685.785 665.887 686.992 666.702Q688.199 667.518 689.385 668.363Q690.571 669.208 691.737 670.082Q692.902 670.956 694.045 671.858Q695.188 672.76 696.309 673.691Q697.43 674.621 698.527 675.578Q699.625 676.536 700.698 677.52C722.758 697.914 734.314 726.211 735.522 755.935C749.24 751.606 764.121 753.183 777.182 758.914C794.865 766.672 803.487 777.082 810.351 794.741Q773.479 801.237 736.322 805.839Q699.166 810.441 661.823 813.137Q637.52 815.262 613.168 816.717Q588.815 818.172 564.432 818.957Q540.049 819.742 515.653 819.856Q491.258 819.969 466.868 819.412Q442.479 818.854 418.114 817.626Q393.749 816.398 369.427 814.5Q345.106 812.602 320.845 810.035Q296.585 807.469 272.404 804.236C273.251 799.033 274.595 794.309 277.333 789.764C281.4 783.013 287.563 777.863 295.387 776.12C303.573 774.295 311.23 776.78 318.113 781.085C320.051 768.625 325.995 756.84 333.989 747.177C345.798 732.903 363.948 723.397 382.395 721.738C400.645 720.096 413.959 726.633 427.639 737.953C429.108 733.829 430.623 729.914 432.895 726.158C440.814 713.066 454.316 704.197 469.026 700.604C488.75 695.786 503.004 700.205 519.797 710.495Z"/>
	<path fill="#FBE265" d="M0 0L1023.27 0L1024 0L1024 383.918L1024 789.344L1023.56 789.468L1023.18 788.713C995.509 772.51 963.144 763.274 931.739 757.967C956.149 735.644 972.182 709.439 977.055 676.218Q977.304 674.525 977.511 672.827Q977.718 671.128 977.883 669.425Q978.048 667.722 978.172 666.016Q978.295 664.309 978.377 662.6Q978.459 660.891 978.498 659.18Q978.538 657.47 978.536 655.759Q978.534 654.048 978.49 652.337Q978.445 650.627 978.359 648.918Q978.273 647.209 978.145 645.503Q978.017 643.796 977.848 642.094Q977.678 640.391 977.467 638.693Q977.255 636.995 977.002 635.303Q976.75 633.611 976.455 631.925Q976.161 630.24 975.825 628.562Q975.49 626.884 975.113 625.215Q974.737 623.546 974.319 621.886Q973.902 620.227 973.444 618.578Q972.986 616.93 972.488 615.293Q971.99 613.656 971.452 612.032Q970.914 610.407 970.336 608.797Q969.758 607.186 969.141 605.59Q968.524 603.995 967.868 602.414Q967.212 600.834 966.518 599.27Q965.823 597.706 965.09 596.16Q964.358 594.614 963.588 593.086Q962.817 591.558 962.01 590.05Q961.202 588.541 960.358 587.053Q959.514 585.565 958.633 584.098Q957.753 582.63 956.836 581.185Q955.92 579.74 954.969 578.318Q954.018 576.896 953.032 575.497Q952.046 574.099 951.026 572.725Q949.309 570.396 947.5 568.137Q945.691 565.879 943.792 563.695Q941.894 561.511 939.91 559.406Q937.925 557.3 935.858 555.275Q933.79 553.251 931.643 551.311Q929.496 549.371 927.272 547.519Q925.049 545.667 922.753 543.906Q920.457 542.145 918.093 540.477Q915.728 538.81 913.298 537.239Q910.868 535.667 908.377 534.195Q905.886 532.723 903.338 531.352Q900.79 529.98 898.189 528.713Q895.588 527.445 892.938 526.283Q890.288 525.12 887.593 524.066Q884.899 523.011 882.164 522.065Q879.429 521.119 876.659 520.284C867.578 517.638 858.439 516.173 849.104 514.833Q849.75 513.278 850.361 511.709Q850.971 510.14 851.547 508.558Q852.122 506.975 852.663 505.381Q853.203 503.786 853.707 502.179Q854.211 500.573 854.679 498.956Q855.148 497.338 855.58 495.711Q856.012 494.084 856.407 492.447Q856.803 490.81 857.162 489.165Q857.521 487.52 857.843 485.868Q858.165 484.215 858.45 482.556Q858.735 480.896 858.983 479.231Q859.231 477.566 859.441 475.895Q859.652 474.225 859.825 472.55Q859.998 470.875 860.134 469.197Q860.27 467.518 860.368 465.838Q860.466 464.157 860.527 462.474Q860.587 460.791 860.61 459.108Q860.633 457.424 860.619 455.741Q860.604 454.057 860.552 452.374Q860.499 450.691 860.41 449.01Q860.32 447.329 860.192 445.65Q860.065 443.971 859.9 442.295Q859.735 440.619 859.533 438.948Q859.331 437.276 859.091 435.61Q858.851 433.943 858.575 432.282Q858.298 430.622 857.984 428.967Q857.67 427.313 857.32 425.666Q856.969 424.02 856.581 422.381Q856.194 420.742 855.77 419.113Q855.346 417.483 854.886 415.864Q854.426 414.244 853.93 412.635Q853.433 411.026 852.901 409.429Q852.343 407.768 851.744 406.12Q851.145 404.473 850.505 402.841Q849.866 401.21 849.187 399.594Q848.507 397.978 847.788 396.38Q847.069 394.782 846.31 393.202Q845.552 391.622 844.755 390.061Q843.957 388.5 843.122 386.959Q842.286 385.419 841.413 383.899Q840.54 382.379 839.63 380.882Q838.719 379.384 837.772 377.909Q836.825 376.435 835.841 374.984Q834.858 373.533 833.84 372.107Q832.821 370.681 831.767 369.28Q830.714 367.879 829.626 366.505Q828.538 365.131 827.416 363.784Q826.295 362.437 825.141 361.118Q823.986 359.8 822.8 358.51Q821.613 357.22 820.395 355.96Q819.177 354.699 817.928 353.469Q816.68 352.24 815.401 351.041Q814.122 349.842 812.814 348.676Q811.506 347.509 810.17 346.375Q808.834 345.241 807.47 344.14Q806.106 343.04 804.715 341.973Q803.325 340.906 801.908 339.874Q800.491 338.842 799.05 337.845Q797.608 336.848 796.143 335.887Q794.677 334.926 793.188 334.002Q791.699 333.077 790.187 332.19Q788.676 331.303 787.143 330.453Q785.611 329.603 784.057 328.791Q782.504 327.979 780.931 327.206C745.146 309.802 707.608 309.044 670.333 321.921C665.792 305.287 659.53 289.609 650.378 274.934Q649.339 273.256 648.26 271.604Q647.18 269.953 646.06 268.328Q644.941 266.703 643.781 265.106Q642.622 263.509 641.424 261.941Q640.226 260.374 638.99 258.835Q637.754 257.297 636.481 255.79Q635.207 254.283 633.897 252.807Q632.587 251.331 631.242 249.888Q629.896 248.445 628.515 247.035Q627.134 245.625 625.719 244.25Q624.305 242.874 622.856 241.534Q621.408 240.194 619.928 238.889Q618.447 237.585 616.935 236.317Q615.423 235.049 613.88 233.819Q612.337 232.589 610.765 231.396Q609.193 230.204 607.591 229.051Q605.99 227.898 604.361 226.784Q602.732 225.671 601.076 224.597Q599.421 223.524 597.739 222.491Q596.057 221.459 594.351 220.468Q592.645 219.477 590.915 218.528Q589.184 217.579 587.432 216.673Q585.679 215.767 583.904 214.904Q582.129 214.041 580.334 213.222Q578.539 212.403 576.724 211.628Q574.909 210.853 573.076 210.123Q571.243 209.393 569.393 208.708Q567.542 208.023 565.675 207.383Q563.808 206.744 561.927 206.151Q560.045 205.557 558.149 205.01Q556.253 204.463 554.344 203.962Q552.435 203.462 550.515 203.008Q548.532 202.548 546.537 202.136Q544.543 201.725 542.54 201.362Q540.536 200.999 538.525 200.686Q536.513 200.372 534.494 200.108Q532.475 199.843 530.45 199.628Q528.426 199.414 526.396 199.248Q524.367 199.083 522.334 198.967Q520.301 198.851 518.266 198.785Q516.231 198.719 514.195 198.702Q512.159 198.686 510.123 198.719Q508.087 198.753 506.053 198.836Q504.019 198.919 501.987 199.052Q499.955 199.184 497.927 199.367Q495.899 199.549 493.876 199.781Q491.854 200.013 489.837 200.294Q487.82 200.575 485.811 200.906Q483.802 201.236 481.802 201.615Q479.801 201.995 477.811 202.423Q475.82 202.851 473.841 203.328Q471.861 203.804 469.894 204.329Q467.926 204.854 465.973 205.427Q464.019 205.999 462.079 206.62Q460.14 207.24 458.217 207.908Q456.293 208.575 454.386 209.289Q452.48 210.004 450.591 210.764Q448.702 211.525 446.833 212.332Q444.963 213.138 443.114 213.99Q441.265 214.842 439.437 215.739Q437.609 216.636 435.803 217.577Q433.998 218.519 432.216 219.504Q430.434 220.489 428.677 221.518Q426.92 222.546 425.188 223.617Q423.552 224.643 421.942 225.709Q420.332 226.775 418.749 227.881Q417.167 228.986 415.612 230.131Q414.057 231.276 412.531 232.459Q411.004 233.641 409.508 234.862Q408.012 236.082 406.547 237.34Q405.081 238.597 403.647 239.89Q402.214 241.183 400.812 242.512Q399.411 243.84 398.043 245.203Q396.675 246.566 395.342 247.962Q394.008 249.358 392.71 250.787Q391.411 252.216 390.149 253.677Q388.886 255.138 387.66 256.63Q386.434 258.122 385.246 259.643Q384.057 261.165 382.907 262.716Q381.757 264.267 380.645 265.845Q379.534 267.424 378.462 269.03Q377.39 270.636 376.358 272.268Q375.326 273.9 374.335 275.557Q373.344 277.215 372.395 278.896Q371.445 280.577 370.538 282.282Q369.63 283.986 368.766 285.712Q367.901 287.439 367.079 289.186Q366.257 290.933 365.479 292.7Q364.701 294.467 363.967 296.253Q363.233 298.039 362.544 299.843Q361.855 301.646 361.21 303.467Q360.566 305.287 359.967 307.122Q359.368 308.958 358.815 310.808Q358.262 312.658 357.755 314.521Q357.247 316.384 356.787 318.259Q356.326 320.134 355.912 322.02C324.178 309.062 287.188 310.166 255.392 322.18Q253.734 322.814 252.091 323.489Q250.449 324.165 248.824 324.88Q247.2 325.596 245.593 326.352Q243.986 327.108 242.399 327.903Q240.812 328.699 239.245 329.533Q237.677 330.368 236.131 331.241Q234.585 332.115 233.062 333.026Q231.538 333.937 230.037 334.886Q228.536 335.835 227.06 336.821Q225.583 337.806 224.131 338.829Q222.679 339.851 221.253 340.909Q219.827 341.966 218.428 343.059Q217.029 344.152 215.657 345.279Q214.285 346.407 212.942 347.568Q211.598 348.729 210.284 349.923Q208.97 351.117 207.686 352.343Q206.402 353.569 205.149 354.827Q203.895 356.084 202.674 357.373Q201.452 358.661 200.262 359.979Q199.073 361.298 197.917 362.645Q196.76 363.992 195.638 365.368Q194.515 366.744 193.427 368.147Q192.339 369.55 191.286 370.979Q190.234 372.409 189.217 373.865Q188.199 375.32 187.219 376.8Q186.238 378.28 185.294 379.784Q184.351 381.288 183.445 382.815Q182.539 384.342 181.671 385.891Q180.803 387.44 179.974 389.01Q179.145 390.58 178.355 392.17Q177.565 393.76 176.814 395.369Q176.064 396.979 175.354 398.606C158.316 436.632 159.737 477.003 174.314 515.434Q172.49 515.416 170.667 515.484C138.32 516.57 105.993 533.252 84.206 556.743Q83.011 558.051 81.8483 559.388Q80.6856 560.725 79.5558 562.09Q78.426 563.454 77.3298 564.846Q76.2336 566.238 75.1717 567.656Q74.1097 569.074 73.0826 570.518Q72.0556 571.962 71.064 573.43Q70.0724 574.898 69.1169 576.39Q68.1614 577.882 67.2426 579.397Q66.3237 580.912 65.4421 582.449Q64.5604 583.985 63.7165 585.543Q62.8725 587.101 62.0668 588.679Q61.2611 590.257 60.494 591.854Q59.727 593.451 58.9991 595.066Q58.2713 596.682 57.583 598.314Q56.8947 599.947 56.2464 601.596Q55.5981 603.245 54.9902 604.909Q54.3822 606.573 53.8151 608.251Q53.2479 609.93 52.7218 611.622Q52.1957 613.313 51.711 615.018Q51.2262 616.722 50.7832 618.437Q50.3402 620.153 49.9391 621.878Q49.538 623.604 49.1791 625.339Q48.8202 627.074 48.5036 628.817Q48.1871 630.56 47.9132 632.311Q47.6392 634.061 47.408 635.818Q47.1768 637.574 46.9885 639.336Q46.8002 641.098 46.6548 642.864Q46.5095 644.629 46.4072 646.398Q46.305 648.167 46.2459 649.938Q46.1868 651.708 46.1708 653.48Q46.1549 655.252 46.1821 657.023Q46.2094 658.795 46.2798 660.565C47.9664 699.022 63.8621 732.037 92.1302 757.97C64.0529 761.817 23.2583 771.142 0 787.588L0 445.164L0 0Z"/>
	<path fill="#E9BC0A" d="M0 0L1023.27 0L1024 0L1024 383.918L1023.46 383.778L1023.07 384.733C1018.47 386.81 1013.94 388.81 1009.76 391.685C1007.04 357.847 994.208 318.534 967.777 296.141C953.564 284.099 935.806 277.904 917.157 279.503C900.435 280.936 884.492 289.287 872.195 300.418C871.635 291.885 869.85 283.235 867.96 274.904C859.26 236.555 840.609 199.7 810.76 173.539C788.112 153.688 758.375 139.882 727.714 142.031C705.683 143.574 686.398 154.204 672.047 170.804C667.876 175.63 663.84 180.946 660.763 186.548C639.166 129.455 598.223 81.5334 542.048 56.2568C505.965 40.0204 463.416 33.5723 424.26 39.8231C409.044 42.2521 393.977 46.769 379.595 52.2411C319.117 75.2514 271.933 125.542 245.835 183.944C235.353 207.403 229.206 231.112 224.534 256.302C223.16 263.709 221.416 271.313 220.863 278.822C196.434 267.007 172.911 260.892 146.385 270.037C117.867 279.869 96.7422 304.712 83.9641 331.23C70.0821 360.039 66.0782 390.711 65.7821 422.305C50.6499 418.021 33.1364 422.122 19.6308 429.592C12.1468 433.731 5.87681 438.998 0 445.164L0 0Z"/>
	<path fill="#FBE265" d="M1023.27 0L1024 0L1024 383.918L1023.46 383.778C1023.02 370.14 1023.4 356.381 1023.43 342.728L1023.52 268.507L1023.27 0Z"/>
</svg>
