<?xml version="1.0" encoding="utf-8" ?>
<svg xmlns="http://www.w3.org/2000/svg" xmlns:xlink="http://www.w3.org/1999/xlink" width="1024" height="1024">
	<path d="M0 0L1024 0L1024 1024L0 1024L0 0Z"/>
	<path fill="#FEE244" d="M981.031 307.414C981.64 307.673 982.098 307.843 982.672 308.21C983.761 308.907 984.015 309.806 984.301 310.979C983.94 312.683 983.234 313.385 982.063 314.573C981.127 314.291 980.033 313.836 979.342 313.123C978.588 312.347 978.28 311.355 978.488 310.298C978.751 308.961 980.013 308.161 981.031 307.414Z"/>
	<path fill="#FEE244" d="M181.915 664.991C182.58 665.181 183.612 665.381 184.173 665.771C185.112 666.425 185.58 667.299 185.54 668.451C185.488 669.96 184.242 671.192 183.3 672.25C182.534 671.959 181.624 671.67 180.945 671.21C179.839 670.458 179.677 669.532 179.446 668.312C179.973 666.67 180.591 666.069 181.915 664.991Z"/>
	<path fill="#FEE244" d="M122.561 278.32C123.302 278.39 124.44 278.42 125.115 278.774C126.401 279.446 126.557 279.937 127.058 281.197C126.977 282.906 126.471 283.718 125.523 285.118C124.712 285.079 123.559 285.106 122.807 284.786C121.544 284.247 121.353 283.48 120.948 282.319C121.119 280.594 121.59 279.74 122.561 278.32Z"/>
	<path fill="#FEE244" d="M102.488 167.215C103.105 167.389 104.183 167.639 104.724 168.035C105.643 168.71 106.314 169.539 106.332 170.723C106.358 172.347 105.33 173.532 104.358 174.706C103.511 174.415 102.428 174.161 101.685 173.638C100.579 172.858 100.36 172.068 100.12 170.813C100.532 169.137 101.279 168.411 102.488 167.215Z"/>
	<path fill="#FEE244" d="M858.388 400.243C859.391 400.32 860.248 400.559 861.209 400.848C862.062 401.691 862.73 402.117 862.721 403.433C862.709 405.135 861.651 406.366 860.623 407.598C859.835 407.365 858.895 407.168 858.188 406.748C857.246 406.19 856.586 405.156 856.561 404.053C856.527 402.586 857.555 401.346 858.388 400.243Z"/>
	<path fill="#FEE244" d="M261.897 12.8032C262.714 12.9188 264.061 13.0231 264.784 13.4831C265.936 14.216 265.99 14.7067 266.289 15.9346C265.902 17.646 265.282 18.4455 264.126 19.7453C263.082 19.6389 261.894 19.4579 260.996 18.8706C259.882 18.1425 259.816 17.4928 259.544 16.3029C259.959 14.5953 260.61 13.9651 261.897 12.8032Z"/>
	<path fill="#FEE244" d="M438.416 51.7537C439.338 51.8397 440.491 51.997 441.303 52.4542C442.467 53.109 442.59 53.7748 442.937 54.9452C442.702 56.6255 442.16 57.48 441.173 58.8425C440.229 58.798 439.004 58.6962 438.167 58.2386C436.896 57.5436 436.756 56.8211 436.388 55.5546C436.664 53.7811 437.223 53.0688 438.416 51.7537Z"/>
	<path fill="#FEE244" d="M312.058 1002.83C312.979 1002.82 314.128 1002.86 314.954 1003.31C316.2 1003.99 316.276 1004.71 316.612 1005.96C316.336 1007.72 315.771 1008.46 314.598 1009.78C313.577 1009.71 312.384 1009.56 311.502 1009C310.492 1008.35 309.968 1007.5 309.926 1006.3C309.875 1004.84 311.128 1003.77 312.058 1002.83Z"/>
	<path fill="#FEE244" d="M223.007 172.736C224.07 172.933 225.253 173.198 226.082 173.952C227.137 174.91 227.057 175.648 227.133 176.952C226.513 178.562 225.878 179.178 224.524 180.223C223.744 179.954 222.56 179.623 221.92 179.069C220.834 178.128 220.773 177.623 220.55 176.295C220.984 174.589 221.733 173.91 223.007 172.736Z"/>
	<path fill="#FEE244" d="M28.5295 17.3907C29.3642 17.4217 30.4064 17.3824 31.2021 17.6784C32.53 18.1724 32.9164 18.9993 33.4667 20.2026C33.4318 21.9579 33.1036 22.7272 32.1441 24.1846C31.0439 24.2057 29.7237 24.2308 28.7275 23.6786C27.6803 23.0981 27.0387 22.2479 26.908 21.0523C26.7474 19.5844 27.698 18.4681 28.5295 17.3907Z"/>
	<path fill="#28CEC7" d="M164.467 27.388C165.624 27.3057 166.925 27.2091 167.963 27.8576C168.912 28.4502 169.395 29.3449 169.431 30.451C169.479 31.9665 168.519 33.1052 167.646 34.2224C166.741 34.3138 165.613 34.328 164.784 33.8919C163.753 33.3492 163.096 32.4433 162.975 31.284C162.812 29.7239 163.609 28.5863 164.467 27.388Z"/>
	<path fill="#28CEC7" d="M816.137 34.9131C817.287 34.9011 818.504 34.9498 819.513 35.5957C820.453 36.1977 820.964 37.0968 821.003 38.2095C821.057 39.7628 820.032 40.8188 819.072 41.8811C818.192 41.7457 817.145 41.6488 816.325 41.275C815.062 40.6995 814.686 40.0004 814.185 38.7792C814.335 36.9907 814.994 36.2545 816.137 34.9131Z"/>
	<path fill="#FEE244" d="M1001.96 14.7242C1002.89 14.8808 1004.06 15.1745 1004.81 15.7434C1005.79 16.4789 1006.21 17.4912 1006.09 18.6988C1005.93 20.2465 1004.56 21.3211 1003.48 22.2831C1002.42 22.0913 1001.3 21.7096 1000.49 20.9656C999.656 20.2015 999.36 19.134 999.504 18.0335C999.701 16.5355 1000.88 15.6194 1001.96 14.7242Z"/>
	<path fill="#FEE244" d="M91.871 8.80178C93.2007 8.91166 94.5493 8.96493 95.5975 9.93421C96.3929 10.6697 96.8125 11.6143 96.6589 12.7031C96.441 14.2467 95.3568 15.0238 94.2395 15.9128C93.413 15.7273 92.4149 15.5778 91.6577 15.1759C90.4526 14.5363 90.1588 13.7709 89.7798 12.5436C90.0533 10.828 90.7325 10.0785 91.871 8.80178Z"/>
	<path fill="#FEE244" d="M670.962 983.716C672.306 983.822 673.544 983.874 674.489 985.019C675.279 985.976 675.41 987.052 675.179 988.24C674.877 989.793 673.732 990.536 672.536 991.37C671.767 991.055 670.869 990.742 670.184 990.27C669.146 989.556 668.968 988.697 668.727 987.545C669.108 985.818 669.79 985.015 670.962 983.716Z"/>
	<path fill="#FEE244" d="M940.181 234.212C941.061 234.432 941.998 234.684 942.686 235.329C943.585 236.173 943.925 237.284 943.821 238.491C943.676 240.176 942.63 241.189 941.49 242.304C940.581 242.017 939.29 241.544 938.621 240.834C937.74 239.898 937.358 239.097 937.491 237.794C937.652 236.228 939.086 235.175 940.181 234.212Z"/>
	<path fill="#FEE244" d="M27.9742 933.361C29.2009 933.299 30.5508 933.166 31.6301 933.908C32.6506 934.609 33.1444 935.46 33.1479 936.703C33.1522 938.205 32.0793 939.228 31.1234 940.231C30.1125 940.214 28.8629 940.162 27.9546 939.672C26.9172 939.111 26.3325 938.219 26.247 937.045C26.143 935.616 27.1609 934.417 27.9742 933.361Z"/>
	<path fill="#FEE244" d="M502.903 985.819C503.894 986.188 504.892 986.641 505.701 987.338C506.71 988.209 506.781 989.21 506.86 990.437C506.222 991.999 505.501 992.596 504.164 993.595C503.164 993.358 501.926 993.044 501.175 992.289C500.145 991.254 500.204 990.45 500.162 989.113C500.857 987.471 501.46 986.849 502.903 985.819Z"/>
	<path fill="#FEE244" d="M931.889 376.79C932.865 377.153 934.067 377.618 934.756 378.439C935.53 379.363 935.835 380.527 935.5 381.697C935.069 383.2 933.717 384.054 932.488 384.847C931.639 384.461 930.542 383.93 929.919 383.232C928.984 382.185 929.063 381.344 929.048 380.052C929.795 378.443 930.448 377.805 931.889 376.79Z"/>
	<path fill="#FEE244" d="M351.984 909.386C352.912 909.333 354.119 909.313 354.993 909.627C356.319 910.105 356.619 910.805 357.219 911.95C357.297 913.673 356.873 914.542 356.06 916.041C354.844 916.166 353.436 916.382 352.298 915.785C351.302 915.262 350.609 914.464 350.482 913.32C350.314 911.789 351.16 910.572 351.984 909.386Z"/>
	<path fill="#FEE244" d="M208.473 271.739C209.665 272.138 210.929 272.545 211.671 273.662C212.358 274.696 212.411 275.821 212.058 276.983C211.604 278.477 210.387 279.213 209.16 279.999C208.708 279.73 208.25 279.469 207.807 279.185C206.74 278.501 205.78 277.648 205.677 276.281C205.531 274.355 207.225 272.929 208.473 271.739Z"/>
	<path fill="#FEE244" d="M793.071 138.252C793.925 138.331 795.025 138.526 795.738 139.018C796.776 139.734 797.268 140.721 797.253 141.971C797.236 143.515 796.103 144.652 795.14 145.72C794.034 145.661 792.716 145.576 791.779 144.901C790.785 144.186 790.422 143.258 790.518 142.06C790.645 140.47 792.015 139.304 793.071 138.252Z"/>
	<path fill="#FEE244" d="M996.099 988.355C997.061 988.361 998.243 988.378 999.09 988.906C1000.13 989.556 1000.74 990.476 1000.78 991.714C1000.84 993.251 999.952 994.45 999.079 995.609C997.903 995.619 996.526 995.65 995.496 994.981C994.526 994.351 994.052 993.461 994.056 992.316C994.061 990.751 995.183 989.507 996.099 988.355Z"/>
	<path fill="#FEE244" d="M119.41 711.263C120.721 711.418 122.006 711.504 122.98 712.542C123.854 713.473 124.156 714.456 123.99 715.72C123.801 717.163 122.717 717.996 121.71 718.888C120.539 718.664 119.296 718.404 118.373 717.58C117.525 716.824 117.108 715.933 117.17 714.797C117.253 713.306 118.438 712.258 119.41 711.263Z"/>
	<path fill="#FEE244" d="M34.9325 990.268C36.1362 990.276 37.5033 990.194 38.5116 990.993C39.5096 991.784 40.0573 992.673 40.0585 993.964C40.0599 995.503 39.0922 996.49 38.1114 997.517C37.2046 997.486 35.7879 997.399 34.9996 996.914C33.7306 996.134 33.6219 995.62 33.2032 994.289C33.4291 992.521 33.8744 991.69 34.9325 990.268Z"/>
	<path fill="#FEE244" d="M739.357 953.337C740.715 953.413 742.248 953.417 743.247 954.503C744.034 955.359 744.37 956.303 744.167 957.454C743.89 959.029 742.721 959.899 741.559 960.825C740.665 960.688 739.529 960.464 738.779 959.945C737.755 959.237 737.242 958.284 737.241 957.042C737.239 955.561 738.444 954.371 739.357 953.337Z"/>
	<path fill="#FEE244" d="M133.355 822.858C134.563 822.897 135.884 822.908 136.897 823.689C137.806 824.391 138.336 825.287 138.283 826.449C138.21 828.039 137.107 829.075 136.072 830.126C134.803 830.011 133.477 829.858 132.421 829.05C131.528 828.366 131.058 827.431 131.121 826.306C131.204 824.837 132.38 823.813 133.355 822.858Z"/>
	<path fill="#FEE244" d="M804.483 870.332C805.57 870.458 806.782 870.653 807.653 871.386C808.586 872.172 808.998 873.255 808.89 874.463C808.743 876.107 807.649 877.188 806.537 878.27C805.367 878.055 804.175 877.729 803.271 876.895C802.345 876.041 802.03 875.028 802.122 873.792C802.233 872.313 803.487 871.284 804.483 870.332Z"/>
	<path fill="#FEE244" d="M29.9529 463.852C31.2843 463.973 32.7243 464.053 33.7145 465.092C34.57 465.989 34.851 466.997 34.6635 468.218C34.4348 469.708 33.3244 470.564 32.2293 471.428C31.1764 471.244 29.9805 471.007 29.1176 470.324C28.2067 469.604 27.6434 468.728 27.6705 467.547C27.7062 465.988 28.9476 464.886 29.9529 463.852Z"/>
	<path fill="#FEE244" d="M847.916 960.82C849.193 960.885 850.553 960.891 851.589 961.782C852.49 962.558 852.808 963.525 852.655 964.696C852.451 966.266 851.145 967.285 850.03 968.245C849.024 968.126 847.62 967.825 846.834 967.131C845.917 966.321 845.461 965.544 845.547 964.293C845.649 962.789 846.896 961.771 847.916 960.82Z"/>
	<path fill="#FEE244" d="M1008.44 939.77C1009.85 939.791 1011.33 939.794 1012.46 940.811C1013.31 941.584 1013.79 942.546 1013.67 943.712C1013.5 945.258 1012.52 946.036 1011.43 946.962C1010.34 946.956 1009.1 946.859 1008.15 946.271C1007.14 945.649 1006.51 944.733 1006.46 943.541C1006.38 941.95 1007.46 940.858 1008.44 939.77Z"/>
	<path fill="#FEE244" d="M174.881 351.401C176.106 351.416 177.417 351.417 178.49 352.12C179.738 352.938 179.855 353.602 180.213 354.937C179.909 356.677 179.394 357.351 178.188 358.619C176.978 358.561 175.676 358.445 174.622 357.772C173.415 357.001 173.272 356.325 172.912 355.053C173.153 353.34 173.731 352.662 174.881 351.401Z"/>
	<path fill="#28CEC7" d="M1001.47 202.33C1002.65 202.416 1003.95 202.519 1004.89 203.35C1005.83 204.182 1006.21 205.235 1006.07 206.473C1005.88 208.189 1004.65 209.092 1003.4 210.085C1002.34 209.912 1001.12 209.612 1000.25 208.95C999.301 208.227 998.933 207.219 999.005 206.051C999.102 204.501 1000.44 203.348 1001.47 202.33Z"/>
	<path fill="#FEE244" d="M250.971 888.876C252.277 889.049 253.724 889.162 254.677 890.217C255.528 891.161 255.794 892.227 255.575 893.466C255.285 895.1 254.085 896.004 252.87 896.977C251.765 896.833 250.663 896.561 249.8 895.794C248.906 895.001 248.535 893.958 248.612 892.776C248.72 891.1 249.867 890.001 250.971 888.876Z"/>
	<path fill="#FEE244" d="M915.866 848.254C917.313 848.281 918.804 848.272 919.948 849.327C920.887 850.193 921.264 851.195 921.158 852.466C921.028 854.012 919.933 854.945 918.864 855.898C917.763 855.869 916.518 855.8 915.561 855.177C914.51 854.493 914.026 853.534 913.962 852.296C913.88 850.727 914.982 849.43 915.866 848.254Z"/>
	<path fill="#28CEC7" d="M28.8649 158.905C30.2309 158.883 31.8017 158.795 32.951 159.679C33.8595 160.379 34.4103 161.266 34.355 162.434C34.2783 164.051 33.2102 165.177 32.1871 166.307C30.7486 166.413 29.7475 166.444 28.5298 165.467C27.507 164.646 27.0651 163.541 27.0757 162.248C27.0888 160.655 27.8431 159.965 28.8649 158.905Z"/>
	<path fill="#28CEC7" d="M937.027 14.3572C938.379 14.5448 939.784 14.6785 940.772 15.7656C941.604 16.6804 941.857 17.7555 941.658 18.9605C941.407 20.4808 940.23 21.419 939.134 22.3545C937.833 22.1206 936.547 21.8647 935.543 20.9032C934.641 20.0398 934.272 19.0459 934.427 17.8075C934.62 16.2809 935.943 15.2864 937.027 14.3572Z"/>
	<path fill="#FEE244" d="M880.545 642.889C881.937 642.884 883.449 642.798 884.581 643.774C885.487 644.556 885.875 645.496 885.786 646.696C885.667 648.322 884.535 649.426 883.462 650.517C882.133 650.49 880.815 650.453 879.706 649.577C878.717 648.796 878.238 647.788 878.281 646.531C878.336 644.922 879.474 643.914 880.545 642.889Z"/>
	<path fill="#28CEC7" d="M898.981 997.334C900.323 997.468 901.406 997.67 902.503 998.528C903.445 999.265 903.851 1000.57 903.777 1001.72C903.668 1003.41 902.556 1004.51 901.451 1005.67C900.068 1005.48 898.726 1005.34 897.688 1004.26C896.783 1003.32 896.508 1002.32 896.609 1001.04C896.733 999.468 897.951 998.389 898.981 997.334Z"/>
	<path fill="#28CEC7" d="M608.166 55.9451C609.857 55.9062 610.89 55.9131 612.403 56.7101C613.232 57.7674 613.74 58.2304 613.566 59.6849C613.367 61.3591 612.174 62.5115 611.053 63.6442C609.737 63.6364 608.411 63.6643 607.297 62.813C606.28 62.0362 605.815 61.1105 605.849 59.8285C605.892 58.1925 607.118 57.0492 608.166 55.9451Z"/>
	<path fill="#28CEC7" d="M977.957 870.896C979.456 871.005 981.072 871.075 982.24 872.164C983.143 873.006 983.498 873.973 983.403 875.193C983.284 876.703 982.093 877.797 981.112 878.825C979.688 878.728 978.213 878.662 977.073 877.67C976.067 876.793 975.609 875.883 975.63 874.54C975.655 872.968 976.924 871.905 977.957 870.896Z"/>
	<path fill="#28CEC7" d="M980.886 641.48C982.276 641.799 983.66 642.101 984.626 643.263C985.399 644.193 985.61 645.277 985.356 646.444C985.003 648.061 983.674 649.028 982.461 650.006C981.223 649.79 979.98 649.6 979.024 648.715C978.107 647.866 977.612 646.641 977.769 645.394C978.022 643.385 979.339 642.487 980.886 641.48Z"/>
	<path fill="#28CEC7" d="M488.896 19.3038C490.078 19.4439 491.259 19.5028 492.282 20.1895C493.253 20.8413 493.982 21.9059 494.064 23.0898C494.209 25.1649 493.033 26.3561 491.633 27.6387C490.153 27.5667 488.68 27.5075 487.547 26.4064C486.667 25.5511 486.313 24.5115 486.423 23.2964C486.578 21.5664 487.742 20.4642 488.896 19.3038Z"/>
	<path fill="#FEE244" d="M96.5153 549.788C97.7658 550.072 99.0292 550.362 99.9753 551.287C100.856 552.149 101.339 553.358 101.2 554.592C100.966 556.674 99.6355 557.676 98.0525 558.778C96.6642 558.282 95.497 557.875 94.4987 556.704Q94.353 556.53 94.2277 556.341Q94.1024 556.151 93.9991 555.949Q93.8957 555.747 93.8156 555.535Q93.7355 555.322 93.6796 555.102Q93.6238 554.882 93.5928 554.657Q93.5619 554.433 93.5564 554.206Q93.5508 553.979 93.5706 553.753Q93.5904 553.526 93.6354 553.304C93.9718 551.685 95.2935 550.743 96.5153 549.788Z"/>
	<path fill="#28CEC7" d="M330.346 807.933C332.031 807.938 333.866 807.94 335.126 809.259C335.991 810.164 336.272 811.224 336.084 812.451C335.833 814.08 334.654 815.066 333.485 816.084C332.362 816.059 331.024 816.103 330.049 815.464C329.004 814.779 328.27 813.996 328.114 812.706C327.859 810.611 329.012 809.324 330.346 807.933Z"/>
	<path fill="#28CEC7" d="M43.8996 663.331C45.9026 663.325 47.4491 663.488 48.8895 665.049C49.6947 665.921 49.9972 667.356 49.7091 668.495C49.3166 670.047 48.381 670.748 47.1689 671.632C45.4888 671.585 44.1008 671.597 42.7586 670.454C41.8421 669.674 41.4128 668.48 41.4978 667.296C41.622 665.566 42.7515 664.489 43.8996 663.331Z"/>
	<path fill="#28CEC7" d="M106.258 435.37C107.801 435.335 109.345 435.274 110.674 436.159C111.701 436.842 112.454 437.774 112.547 439.052C112.695 441.079 111.545 442.371 110.228 443.698C108.967 443.841 107.412 443.817 106.321 443.071C105.246 442.334 104.566 441.52 104.391 440.189C104.121 438.13 105.042 436.87 106.258 435.37Z"/>
	<path fill="#28CEC7" d="M729.136 771.9C730.75 772.04 732.378 772.453 733.545 773.661C734.425 774.572 734.888 775.835 734.715 777.1C734.442 779.095 733.11 780.017 731.585 781.053C729.847 780.741 727.385 780.314 726.308 778.731C725.816 778.008 725.548 777.419 725.628 776.547C725.84 774.256 727.468 773.229 729.136 771.9Z"/>
	<path fill="#28CEC7" d="M944.944 567.321C946.625 567.53 948.25 567.949 949.432 569.268C950.276 570.21 950.621 571.407 950.429 572.654C950.101 574.773 948.68 575.758 947.078 576.916C945.588 576.779 944.032 576.496 942.98 575.322C941.979 574.204 941.64 573.294 941.749 571.791C941.902 569.687 943.406 568.496 944.944 567.321Z"/>
	<path fill="#28CEC7" d="M46.0223 867.863C47.8149 868.114 49.3781 868.394 50.6089 869.897C51.4248 870.893 51.7388 872.099 51.5065 873.368C51.1189 875.485 49.6662 876.583 48.0083 877.75C46.2489 877.427 44.6733 876.979 43.4775 875.539C42.5746 874.452 42.3564 873.386 42.5344 872.012C42.8028 869.94 44.4241 868.898 46.0223 867.863Z"/>
	<path fill="#28CEC7" d="M837.269 534.549C839.623 534.392 841.871 534.391 844.101 535.279Q844.641 535.493 845.155 535.761Q845.67 536.03 846.154 536.352Q846.637 536.673 847.084 537.043Q847.531 537.414 847.937 537.829Q848.343 538.244 848.703 538.7Q849.063 539.155 849.374 539.646Q849.684 540.136 849.942 540.657Q850.199 541.177 850.4 541.722C851.532 544.793 851.322 548.365 849.901 551.306C848.18 554.866 845.723 556.372 842.119 557.655C839.557 557.691 836.981 557.698 834.605 556.602C831.798 555.307 829.483 552.992 828.407 550.075Q828.208 549.538 828.064 548.983Q827.919 548.428 827.83 547.862Q827.742 547.296 827.71 546.724Q827.678 546.152 827.703 545.579Q827.728 545.006 827.81 544.439Q827.892 543.872 828.03 543.316Q828.168 542.76 828.36 542.22Q828.553 541.68 828.798 541.162C830.561 537.489 833.551 535.781 837.269 534.549Z"/>
	<path fill="#FBFCFC" d="M805.51 997.116C808.142 996.768 810.341 996.639 812.87 997.581Q813.476 997.8 814.056 998.08Q814.636 998.36 815.184 998.698Q815.733 999.036 816.244 999.427Q816.755 999.819 817.224 1000.26Q817.693 1000.7 818.114 1001.19Q818.535 1001.68 818.904 1002.21Q819.273 1002.73 819.587 1003.3Q819.901 1003.86 820.155 1004.45Q820.38 1004.97 820.551 1005.52Q820.722 1006.06 820.837 1006.62Q820.952 1007.17 821.01 1007.74Q821.067 1008.31 821.067 1008.88Q821.067 1009.44 821.009 1010.01Q820.951 1010.58 820.836 1011.13Q820.721 1011.69 820.55 1012.23Q820.378 1012.78 820.153 1013.3C818.567 1016.98 815.479 1018.98 811.927 1020.49C808.43 1020.99 805.498 1020.99 802.397 1019.05C798.732 1016.75 797.302 1013 796.283 1009.02C796.632 1007.4 796.987 1005.77 797.615 1004.22C799.201 1000.31 801.81 998.74 805.51 997.116Z"/>
	<path fill="#FBFCFC" d="M998.329 80.6342C1000.65 80.7985 1002.63 81.0246 1004.66 82.2519C1007.63 84.0514 1009.64 86.9295 1010.38 90.3209C1011.11 93.6649 1010.59 97.2587 1008.63 100.101C1006.2 103.616 1003.13 104.656 999.084 105.329C996.802 105.19 994.758 104.922 992.744 103.757Q992.234 103.462 991.757 103.119Q991.279 102.775 990.837 102.386Q990.396 101.996 989.996 101.565Q989.595 101.133 989.24 100.664Q988.884 100.195 988.577 99.6933Q988.269 99.1913 988.014 98.6612Q987.758 98.1311 987.556 97.5782Q987.354 97.0253 987.208 96.4551Q987.043 95.8352 986.942 95.2017Q986.841 94.5681 986.806 93.9275Q986.771 93.287 986.801 92.6462Q986.832 92.0054 986.928 91.3711Q987.024 90.7368 987.184 90.1157Q987.345 89.4946 987.568 88.8932Q987.792 88.2918 988.076 87.7166Q988.36 87.1413 988.701 86.5981C991.032 82.93 994.222 81.5126 998.329 80.6342Z"/>
	<path fill="#BBFCFD" d="M46.2081 249.519C48.4089 249.413 50.3789 249.485 52.4658 250.27C55.7799 251.517 58.505 253.956 59.9061 257.233Q60.1605 257.817 60.3526 258.425Q60.5447 259.033 60.6725 259.657Q60.8002 260.282 60.8621 260.916Q60.9241 261.551 60.9196 262.188Q60.9151 262.825 60.8442 263.459Q60.7732 264.092 60.6367 264.715Q60.5001 265.337 60.2994 265.942Q60.0988 266.547 59.8361 267.128C58.0279 271.027 55.0151 272.767 51.1264 274.18C48.8293 274.279 46.6978 274.321 44.4896 273.576C41.1744 272.459 38.3694 270.073 36.9336 266.861Q36.6806 266.298 36.4884 265.711Q36.2962 265.124 36.167 264.521Q36.0379 263.917 35.9732 263.303Q35.9084 262.689 35.9089 262.071Q35.9093 261.454 35.9749 260.84Q36.0405 260.226 36.1706 259.622Q36.3006 259.019 36.4936 258.432Q36.6867 257.846 36.9405 257.283C38.7756 253.134 42.128 251.063 46.2081 249.519Z"/>
	<path fill="#28CEC7" d="M167.136 493.105C169.668 492.733 172.045 492.802 174.441 493.78Q175.05 494.026 175.631 494.333Q176.213 494.64 176.759 495.005Q177.306 495.37 177.813 495.788Q178.32 496.207 178.781 496.675Q179.243 497.143 179.654 497.655Q180.065 498.168 180.423 498.72Q180.779 499.271 181.078 499.857Q181.377 500.442 181.615 501.055C182.904 504.316 182.891 508.077 181.383 511.264C179.645 514.936 176.75 516.738 173.04 518.046C169.835 518.178 166.863 517.967 164.009 516.35C159.838 513.986 158.384 510.002 157.318 505.626C157.583 504.509 157.846 503.381 158.208 502.292C159.761 497.621 162.944 495.242 167.136 493.105Z"/>
	<path fill="#FBFCFC" d="M1006.15 521.549C1008.43 521.458 1010.55 521.331 1012.72 522.159C1016.36 523.546 1019.31 526.157 1020.8 529.793Q1021.03 530.361 1021.21 530.95Q1021.38 531.539 1021.49 532.142Q1021.61 532.746 1021.66 533.358Q1021.71 533.969 1021.7 534.583Q1021.68 535.197 1021.61 535.807Q1021.53 536.416 1021.4 537.015Q1021.26 537.613 1021.06 538.195Q1020.87 538.776 1020.61 539.334C1018.8 543.241 1015.72 545.037 1011.82 546.45C1009.35 546.625 1007.16 546.745 1004.81 545.853Q1004.21 545.631 1003.63 545.348Q1003.06 545.066 1002.52 544.726Q1001.97 544.386 1001.47 543.992Q1000.96 543.599 1000.5 543.156Q1000.03 542.712 999.62 542.224Q999.205 541.736 998.842 541.207Q998.479 540.679 998.172 540.117Q997.865 539.554 997.617 538.963Q997.368 538.377 997.179 537.769Q996.99 537.161 996.863 536.537Q996.736 535.914 996.672 535.28Q996.608 534.647 996.609 534.01Q996.609 533.374 996.673 532.74Q996.737 532.107 996.864 531.483Q996.992 530.859 997.181 530.251Q997.37 529.644 997.62 529.058C999.361 525.028 1002.29 523.209 1006.15 521.549Z"/>
	<path fill="#FBFCFC" d="M994.372 778.552C996.847 778.567 999.164 778.944 1001.38 780.1C1004.5 781.73 1006.7 784.581 1007.6 787.974Q1007.77 788.607 1007.88 789.254Q1007.99 789.901 1008.03 790.555Q1008.07 791.21 1008.04 791.865Q1008.01 792.52 1007.92 793.17Q1007.83 793.819 1007.67 794.455Q1007.51 795.092 1007.29 795.709Q1007.07 796.326 1006.79 796.917Q1006.5 797.509 1006.16 798.068C1003.9 801.678 1000.71 803.088 996.706 803.988C994.392 803.964 992.298 803.746 990.158 802.795C987.045 801.411 984.67 798.865 983.623 795.61Q983.428 794.99 983.297 794.353Q983.166 793.716 983.1 793.069Q983.033 792.423 983.032 791.773Q983.031 791.123 983.095 790.476Q983.16 789.829 983.289 789.192Q983.418 788.555 983.611 787.934Q983.803 787.313 984.057 786.714Q984.311 786.116 984.624 785.546C986.82 781.523 990.139 779.808 994.372 778.552Z"/>
	<path fill="#28CEC7" d="M393.674 954.565C395.628 954.449 397.816 954.185 399.722 954.708Q400.373 954.892 401.002 955.144Q401.63 955.395 402.229 955.71Q402.828 956.026 403.39 956.402Q403.953 956.778 404.473 957.21Q404.993 957.643 405.466 958.128Q405.938 958.613 406.357 959.144Q406.776 959.675 407.138 960.247Q407.499 960.819 407.799 961.426C409.302 964.51 409.553 968.237 408.31 971.45C406.671 975.686 403.474 977.746 399.445 979.422C396.76 979.726 394.289 979.893 391.759 978.794C388.484 977.372 385.96 974.81 384.672 971.473Q384.44 970.878 384.269 970.263Q384.098 969.648 383.99 969.019Q383.882 968.39 383.839 967.753Q383.796 967.116 383.818 966.478Q383.839 965.84 383.926 965.207Q384.012 964.575 384.162 963.954Q384.312 963.333 384.524 962.731Q384.737 962.129 385.009 961.552C386.828 957.767 389.85 955.913 393.674 954.565Z"/>
	<path fill="#FBFCFC" d="M352.096 17.0764C354.645 16.9118 356.776 16.8307 359.175 17.8103Q359.787 18.0578 360.372 18.3649Q360.957 18.6719 361.509 19.0355Q362.06 19.399 362.573 19.8155Q363.086 20.232 363.555 20.6973Q364.024 21.1625 364.444 21.6721Q364.865 22.1816 365.233 22.7303Q365.6 23.279 365.912 23.8615Q366.224 24.444 366.476 25.0545Q366.734 25.663 366.93 26.2946Q367.125 26.9262 367.254 27.5745Q367.384 28.2227 367.447 28.8808Q367.51 29.5388 367.506 30.1999Q367.501 30.861 367.43 31.5181Q367.358 32.1753 367.22 32.8218Q367.081 33.4682 366.878 34.0972Q366.674 34.7262 366.408 35.3312C364.628 39.2914 361.592 41.1962 357.698 42.7314C355.226 42.9739 352.574 42.8852 350.209 42.0707C347.026 40.9742 344.397 38.692 343.014 35.6076Q342.758 35.0268 342.561 34.4236Q342.364 33.8204 342.228 33.2007Q342.091 32.581 342.016 31.9509Q341.942 31.3207 341.93 30.6863Q341.917 30.0518 341.968 29.4193Q342.019 28.7867 342.131 28.1623Q342.244 27.5378 342.418 26.9275Q342.592 26.3172 342.825 25.7271C344.574 21.274 347.85 18.9154 352.096 17.0764Z"/>
	<path fill="#28CEC7" d="M978.388 389.08C980.337 389.148 982.273 389.404 984.073 390.187C987.302 391.592 989.744 394.117 990.96 397.432C992.223 400.875 992.052 404.898 990.372 408.173C988.167 412.469 984.927 414.255 980.485 415.599C977.554 415.606 974.984 415.169 972.463 413.582C968.351 410.994 966.928 406.631 965.852 402.175C966.382 399.905 966.979 397.81 968.2 395.801C970.592 391.866 974.018 390.086 978.388 389.08Z"/>
	<path fill="#FBFCFC" d="M258.64 967.514C261.128 967.487 263.909 967.817 266.197 968.835Q266.798 969.101 267.371 969.425Q267.943 969.75 268.48 970.129Q269.017 970.508 269.514 970.938Q270.012 971.369 270.464 971.846Q270.916 972.324 271.319 972.844Q271.722 973.363 272.072 973.92Q272.421 974.477 272.714 975.066Q273.007 975.655 273.24 976.27C274.56 979.748 274.483 983.837 272.772 987.167C270.737 991.128 267.626 992.8 263.546 994.145C261.158 994.385 258.798 994.181 256.544 993.319Q255.931 993.091 255.344 992.803Q254.757 992.514 254.203 992.168Q253.648 991.822 253.131 991.422Q252.613 991.022 252.139 990.572Q251.665 990.122 251.238 989.627Q250.811 989.131 250.436 988.595Q250.062 988.06 249.743 987.489Q249.424 986.918 249.164 986.318Q248.904 985.712 248.706 985.084Q248.508 984.455 248.373 983.81Q248.239 983.164 248.17 982.509Q248.101 981.853 248.097 981.194Q248.094 980.535 248.157 979.879Q248.219 979.223 248.347 978.576Q248.475 977.929 248.667 977.299Q248.859 976.668 249.113 976.06C250.943 971.633 254.396 969.303 258.64 967.514Z"/>
	<path fill="#28CEC7" d="M19.2164 550.085C22.0259 549.828 24.8166 549.814 27.4778 550.865Q28.0868 551.1 28.6684 551.397Q29.25 551.694 29.7982 552.048Q30.3463 552.403 30.8552 552.812Q31.3641 553.221 31.8283 553.68Q32.2926 554.139 32.7073 554.644Q33.1221 555.148 33.4829 555.692Q33.8438 556.236 34.147 556.814Q34.4501 557.393 34.6924 557.999Q34.9292 558.612 35.1049 559.245Q35.2806 559.877 35.3936 560.524Q35.5066 561.171 35.5558 561.826Q35.605 562.481 35.5899 563.138Q35.5748 563.794 35.4955 564.446Q35.4162 565.099 35.2736 565.74Q35.131 566.381 34.9263 567.005Q34.7216 567.629 34.4569 568.23C32.5921 572.388 29.6631 574.128 25.6292 575.724C22.8123 576.124 20.1725 576.108 17.4756 575.076Q16.8683 574.848 16.2871 574.56Q15.7059 574.272 15.1567 573.927Q14.6076 573.581 14.0959 573.183Q13.5843 572.784 13.1155 572.335Q12.6467 571.887 12.2255 571.394Q11.8043 570.901 11.4349 570.367Q11.0655 569.834 10.7518 569.266Q10.438 568.699 10.1831 568.102Q9.91581 567.464 9.71561 566.802Q9.5154 566.14 9.3844 565.461Q9.2534 564.782 9.193 564.093Q9.1326 563.404 9.14344 562.713Q9.15428 562.021 9.23624 561.335Q9.31821 560.648 9.47043 559.973Q9.62264 559.299 9.8435 558.643Q10.0644 557.988 10.3515 557.359C12.2238 553.331 15.229 551.587 19.2164 550.085Z"/>
	<path fill="#FBFCFC" d="M54.0704 775.611C56.7328 775.195 59.4341 775.121 62.0181 775.986C65.3736 777.109 68.2475 779.475 69.8174 782.667Q70.105 783.257 70.3314 783.874Q70.5577 784.49 70.7204 785.126Q70.8831 785.763 70.9805 786.412Q71.0779 787.061 71.1089 787.717Q71.14 788.373 71.1044 789.029Q71.0688 789.685 70.967 790.333Q70.8652 790.982 70.6981 791.617Q70.5311 792.252 70.3005 792.867C68.6443 797.221 65.3327 799.387 61.201 801.1C58.4458 801.663 55.4684 801.712 52.8057 800.72C49.4839 799.482 46.9952 797.001 45.5901 793.767Q45.3297 793.168 45.1291 792.546Q44.9285 791.924 44.7895 791.285Q44.6505 790.646 44.5745 789.997Q44.4985 789.348 44.4862 788.695Q44.4739 788.041 44.5254 787.39Q44.5769 786.738 44.6918 786.095Q44.8066 785.451 44.9837 784.822Q45.1608 784.193 45.3984 783.584C47.1065 779.305 50.0558 777.375 54.0704 775.611Z"/>
	<path fill="#FBFCFC" d="M189.129 71.5968C191.76 71.4191 194.271 71.4228 196.759 72.4208Q197.374 72.6621 197.961 72.9634Q198.548 73.2646 199.103 73.6229Q199.658 73.9811 200.174 74.3928Q200.69 74.8045 201.163 75.2655Q201.635 75.7265 202.06 76.2322Q202.484 76.7379 202.856 77.2834Q203.228 77.8289 203.544 78.4087Q203.859 78.9885 204.116 79.5968Q204.391 80.2413 204.597 80.911Q204.803 81.5807 204.939 82.2682Q205.074 82.9557 205.137 83.6537Q205.199 84.3515 205.189 85.0522Q205.178 85.7528 205.095 86.4485Q205.011 87.1443 204.856 87.8275Q204.7 88.5107 204.474 89.1739Q204.248 89.8372 203.954 90.4732C201.964 94.7253 198.671 96.6495 194.438 98.1835C191.83 98.5073 189.373 98.2449 186.92 97.2672Q186.305 97.0259 185.718 96.7242Q185.131 96.4224 184.576 96.0631Q184.022 95.7039 183.507 95.2908Q182.992 94.8777 182.521 94.415Q182.05 93.9523 181.627 93.4446Q181.205 92.9369 180.836 92.3893Q180.467 91.8418 180.155 91.2599Q179.842 90.6781 179.59 90.0678Q179.342 89.4744 179.154 88.8593Q178.966 88.2443 178.839 87.6137Q178.713 86.983 178.65 86.343Q178.587 85.7029 178.587 85.0598Q178.588 84.4166 178.652 83.7766Q178.716 83.1367 178.843 82.5062Q178.97 81.8757 179.159 81.2609Q179.348 80.6462 179.597 80.0531C181.506 75.5897 184.825 73.3817 189.129 71.5968Z"/>
	<path fill="#FBFCFC" d="M816.126 211.576C818.683 211.329 821.161 211.242 823.61 212.153C827.232 213.501 830.189 216.23 831.647 219.83C832.949 223.046 832.961 226.775 831.554 229.957C829.706 234.137 826.251 236.263 822.147 237.851C819.585 238.416 817.497 238.399 814.972 237.581C811.574 236.481 808.89 234.06 807.367 230.836C805.763 227.443 805.532 223.407 806.882 219.891C808.619 215.363 811.875 213.334 816.126 211.576Z"/>
	<path fill="#FBFCFC" d="M553.249 968.086C556.054 967.907 558.902 968.009 561.489 969.231C564.975 970.877 567.498 973.906 568.617 977.584C569.656 981.001 569.47 984.734 567.761 987.903C565.736 991.658 562.497 993.491 558.574 994.779C555.352 994.945 552.402 994.866 549.495 993.295C546.24 991.536 543.912 988.598 542.855 985.059C541.776 981.444 542.127 977.476 544.115 974.234C546.26 970.734 549.398 969.086 553.249 968.086Z"/>
	<path fill="#FBFCFC" d="M929.288 712.986C930.927 713.233 932.684 713.442 933.842 714.791C935.509 716.733 935.115 720.491 935.145 722.912C937.684 722.118 941.575 720.458 944.175 721.598C945.523 722.189 945.61 722.535 946.168 723.805C945.949 726.928 944.386 728.702 942.499 731.071C944.75 732.158 948.116 733.347 949.242 735.749C949.841 737.028 949.595 737.55 949.146 738.76C946.315 741.458 943.047 741.412 939.332 741.878C939.85 744.284 940.573 746.896 940.456 749.366C940.384 750.899 940.065 751.766 938.973 752.827C934.847 753.494 932.096 748.717 928.291 748.448L926.935 749.961C925.381 751.46 923.251 753.742 920.946 753.864C919.718 753.929 918.937 753.506 918.189 752.557C915.958 749.724 917.451 744.749 918.109 741.639C916.011 740.98 913.693 740.4 911.714 739.446C909.782 738.515 907.514 736.408 906.873 734.357C907.937 731.309 913.024 731.436 915.673 729.839C916.51 727.435 913.087 723.047 913.75 719.621C914.613 718.612 914.817 718.436 916.249 718.365C919.183 718.219 921.774 720.202 923.901 721.922C925.225 718.298 925.789 715.126 929.288 712.986Z"/>
	<path fill="#FBFCFC" d="M274.859 97.6927C275.62 97.8225 276.435 97.9894 277.12 98.3639C279.813 99.8344 280.472 103.689 281.198 106.386C283.467 105.94 285.944 105.318 288.258 105.388C289.66 105.43 290.456 105.863 291.435 106.859C292.645 110.136 290.647 113.541 289.439 116.579C291.457 117.994 293.586 119.354 294.89 121.486C295 122.283 295.266 122.807 294.831 123.54C293.408 125.934 289.001 126.844 286.497 127.704C286.984 130.17 287.842 133.172 287.64 135.673C287.542 136.886 287.334 137.493 286.421 138.327C283.434 138.615 280.232 135.236 277.351 134.379C276.205 134.038 276.069 134.316 275.114 134.912C274.022 136.203 272.907 137.53 271.654 138.67C270.516 139.705 269.64 139.962 268.134 139.874C265.446 137.912 265.366 133.81 264.858 130.755C261.801 129.975 257.359 129.484 255.332 126.873C255.19 123.321 258.737 120.598 261.001 118.132C259.933 115.437 258.115 111.989 257.928 109.097C257.837 107.694 258.08 107.262 258.973 106.219C262.292 105.15 265.474 106.561 268.691 107.496C270.612 104.105 272.51 100.808 274.859 97.6927Z"/>
	<path fill="#FBFCFC" d="M146.293 589.754C147.086 589.85 147.686 590.068 148.433 590.336C150.609 592.697 151.631 595.841 152.909 598.753C155.129 598.415 158.897 597.279 160.998 598.23C161.632 598.517 162.206 598.962 162.388 599.651C163.097 602.333 160.28 606.86 159.153 609.284C160.964 610.221 163.46 611.226 164.939 612.598C165.97 613.554 166.206 614.216 166.316 615.573C164.566 618.481 160.049 619.113 157.002 619.998C157.4 622.581 157.601 625.141 157.536 627.754C157.499 629.257 157.306 630.021 156.228 631.062C152.671 631.587 148.831 626.667 145.488 625.458L144.633 625.935C142.894 627.843 140.331 631.004 137.621 631.47C136.529 631.658 135.585 631.409 134.868 630.531C132.848 628.056 134.066 623.219 134.436 620.364C131.738 619.467 126.795 618.238 124.9 616.081C123.954 615.003 124.011 614.731 124.035 613.374C125.774 610.426 128.91 609.587 131.918 608.347C131.101 606.046 129.477 602.716 129.438 600.306C129.415 598.9 129.553 598.665 130.405 597.659C133.582 596.64 137.383 597.963 140.562 598.621C142.188 595.24 143.714 592.484 146.293 589.754Z"/>
	<path fill="#FBFCFC" d="M878.714 278.265C879.278 278.315 879.948 278.344 880.484 278.536C883.245 279.527 884.491 284.703 885.373 287.158C887.626 286.454 891.007 285.092 893.337 285.613C894.796 285.939 895.043 286.334 895.848 287.473C896.24 291.313 894.118 294.072 892.252 297.25C894.251 298.573 897.017 300.236 898.344 302.268C899.188 303.561 899.188 304.372 898.845 305.834C896.538 308.455 893.145 308.332 889.903 308.72C890.279 310.833 890.837 313.131 890.834 315.276C890.832 317.148 890.25 318.49 888.908 319.789C888.068 319.98 887.541 320.243 886.686 319.988C883.608 319.068 880.676 315.014 879.328 312.25C877.754 314.761 874.285 319.573 871.143 320.025C870.056 320.181 869.215 320.059 868.418 319.241C866.211 316.977 867.463 312.004 867.821 309.211C865.239 308.764 861.775 308.564 859.586 307.061C858.46 306.288 858.273 305.67 858.044 304.386C859.391 300.859 862.546 299.206 865.534 297.175C864.298 294.792 861.872 290.815 862.697 288.065C863.04 286.92 863.553 286.184 864.729 285.779C867.272 284.902 870.907 286.79 873.207 287.805C874.625 284.202 876.017 281.136 878.714 278.265Z"/>
	<path fill="#28CEC7" d="M784.483 660.612C788.117 660.411 791.75 661.038 794.954 662.809C799.234 665.176 802.249 669.289 803.473 673.999C804.794 679.082 804.066 684.805 801.265 689.276C798.216 694.144 793.814 696.287 788.43 697.574C783.93 697.66 780.092 697.135 776.206 694.691Q775.433 694.201 774.713 693.637Q773.992 693.074 773.331 692.442Q772.669 691.81 772.073 691.116Q771.477 690.421 770.952 689.672Q770.428 688.922 769.979 688.125Q769.531 687.327 769.164 686.49Q768.796 685.652 768.513 684.782Q768.23 683.912 768.034 683.018Q767.933 682.568 767.854 682.114Q767.776 681.66 767.72 681.203Q767.664 680.746 767.631 680.286Q767.599 679.827 767.589 679.366Q767.579 678.905 767.593 678.445Q767.606 677.984 767.643 677.525Q767.679 677.066 767.739 676.609Q767.799 676.152 767.881 675.698Q767.963 675.245 768.068 674.797Q768.173 674.348 768.301 673.905Q768.428 673.462 768.578 673.026Q768.727 672.591 768.898 672.163Q769.069 671.735 769.262 671.316Q769.454 670.898 769.667 670.489Q769.88 670.081 770.114 669.683Q770.347 669.286 770.6 668.901C773.94 663.888 778.742 661.651 784.483 660.612Z"/>
	<path fill="#FBFCFC" d="M731.914 53.9186C732.486 54.0884 733.212 54.2603 733.744 54.5557C736.837 56.2725 737.642 60.6334 738.641 63.7454C741.349 62.7103 745.369 60.5859 748.264 61.9193C749.359 62.4233 749.762 63.2352 749.993 64.3652C750.594 67.3098 747.844 71.068 746.375 73.4371C748.619 74.7091 752.696 76.5338 753.651 79.0622C754.055 80.1335 754.189 81.0041 753.473 81.9801C751.674 84.4318 747.212 84.7135 744.463 85.1785C745.262 87.961 746.824 92.6709 744.778 95.2855C743.993 96.288 743.2 96.7728 741.888 96.6969C739.049 96.5327 736.666 93.3064 734.975 91.3165C734.438 90.9577 734.807 91.1149 733.771 91.2694C732.049 93.4549 729.375 96.8604 726.574 97.5657C725.169 97.9197 724.924 97.682 723.805 96.9467C721.907 93.605 722.522 89.4017 722.623 85.6934Q721.054 85.6995 719.486 85.6248C717.192 85.4997 714.031 85.1275 712.66 82.9571C711.985 81.888 712.033 80.7331 712.504 79.6073C713.565 77.0663 717.009 75.4455 719.332 74.3536C718.061 72.1857 716.207 69.3415 715.806 66.8575C715.557 65.3128 715.843 64.4318 716.744 63.1989C720.148 61.5612 723.397 63.0381 726.834 63.9753C727.683 59.829 728.276 56.4696 731.914 53.9186Z"/>
	<path fill="#28CEC7" d="M318.431 618.112C322.645 617.829 326.605 618.349 330.292 620.535C334.396 622.968 337.328 627.155 338.463 631.766Q338.58 632.244 338.674 632.728Q338.767 633.212 338.837 633.699Q338.906 634.187 338.951 634.677Q338.995 635.168 339.016 635.66Q339.036 636.152 339.032 636.645Q339.027 637.137 338.999 637.629Q338.97 638.121 338.916 638.61Q338.863 639.1 338.785 639.586Q338.708 640.073 338.606 640.555Q338.504 641.036 338.378 641.513Q338.252 641.989 338.103 642.458Q337.954 642.928 337.781 643.389Q337.609 643.85 337.413 644.302Q337.218 644.755 337 645.196Q336.782 645.638 336.543 646.069Q336.304 646.499 336.043 646.917C332.951 651.859 328.64 654.164 323.17 655.527C318.862 655.559 315.062 655.25 311.181 653.118Q310.756 652.884 310.344 652.628Q309.932 652.372 309.534 652.096Q309.136 651.819 308.752 651.522Q308.369 651.225 308.002 650.909Q307.634 650.592 307.283 650.257Q306.933 649.922 306.6 649.569Q306.267 649.217 305.953 648.847Q305.639 648.478 305.345 648.092Q305.05 647.707 304.776 647.307Q304.502 646.907 304.249 646.493Q303.996 646.08 303.764 645.654Q303.533 645.227 303.324 644.79Q303.115 644.352 302.929 643.904Q302.743 643.456 302.58 643Q302.418 642.543 302.279 642.078Q302.14 641.613 302.026 641.142Q301.913 640.681 301.824 640.215Q301.735 639.749 301.67 639.279Q301.605 638.808 301.565 638.336Q301.524 637.863 301.507 637.388Q301.491 636.914 301.498 636.439Q301.506 635.965 301.538 635.491Q301.57 635.018 301.626 634.546Q301.682 634.075 301.762 633.607Q301.842 633.14 301.946 632.676Q302.05 632.213 302.178 631.756Q302.305 631.299 302.456 630.849Q302.607 630.399 302.78 629.957Q302.954 629.515 303.15 629.083Q303.346 628.651 303.563 628.229Q303.781 627.807 304.02 627.397Q304.259 626.987 304.519 626.59C307.823 621.575 312.72 619.232 318.431 618.112Z"/>
	<path fill="#FBFCFC" d="M527.486 401.581C528.615 401.566 529.826 401.516 530.938 401.738C532.575 402.066 534.134 403.144 535.047 404.532C536.956 407.434 536.288 411.23 535.541 414.399C533.478 423.152 528.563 430.84 520.832 435.602Q520.266 435.943 519.685 436.256Q519.103 436.569 518.506 436.852Q517.909 437.136 517.299 437.389Q516.689 437.642 516.067 437.865Q515.445 438.088 514.813 438.279Q514.181 438.471 513.54 438.631Q512.899 438.79 512.251 438.918Q511.603 439.046 510.949 439.141Q510.296 439.237 509.638 439.299Q508.98 439.362 508.32 439.392Q507.66 439.422 507 439.419Q506.339 439.416 505.68 439.38Q505.02 439.345 504.363 439.276Q503.706 439.208 503.053 439.106Q502.401 439.005 501.754 438.872Q501.107 438.738 500.467 438.573C491.738 436.31 486.235 430.255 481.943 422.73C479.885 418.032 477.804 411.757 479.258 406.632C479.767 404.837 480.924 403.223 482.608 402.367C484.213 401.551 486.485 401.589 488.148 402.238C493.138 404.185 492.731 412.106 494.642 416.315C496.193 419.732 498.81 423.107 502.469 424.37C505.985 425.583 510.546 425.046 513.837 423.396C521.009 419.802 520.561 412.614 522.754 406.105C523.621 403.534 525.115 402.67 527.486 401.581Z"/>
	<path fill="#FBFCFC" d="M230.768 731.224L232.689 731.577C235.975 734.353 237.413 739.735 238.951 743.677Q246.582 742.311 254.334 742.237C253.23 747.602 251.36 752.16 248.867 757.023C251.459 758.92 256.756 761.979 258.089 764.922C258.716 766.306 258.53 766.624 258.055 767.965C254.918 771.004 249.884 771.693 245.763 772.748C245.905 776.35 246.657 781.746 245.054 785.033C244.533 786.102 243.743 786.996 242.539 787.276C239.005 788.098 233.387 782.897 230.816 780.749C227.68 779.516 222.401 787.385 218.465 787.281C217.647 787.26 217.36 786.697 216.808 786.17C215.274 782.042 216.062 776.884 216.301 772.534C211.266 770.994 206.714 769.696 202.345 766.68C205.25 762.322 208.968 759.668 213.428 757.131C211.97 753.493 209.517 748.876 209.124 744.995C208.983 743.606 209.214 743.114 210.032 742.026C213.716 740.464 219.784 742.641 223.62 743.494C225.667 739.063 227.597 734.97 230.768 731.224Z"/>
	<path fill="#FBFCFC" d="M45.2216 325.772C45.3845 325.808 45.553 325.825 45.7105 325.881C49.1978 327.112 51.294 334.61 52.5476 337.882C55.8416 336.959 59.4227 335.698 62.8231 335.334C64.4448 335.161 65.2982 335.302 66.5467 336.341C67.592 340.131 64.5711 345.953 63.2443 349.596C66.3352 351.194 70.899 353.231 73.1625 355.903C74.0334 356.931 74.0829 357.459 73.9552 358.755C71.7523 362.042 66.4965 363.491 62.9387 364.951C63.6943 368.003 64.8531 372.446 64.335 375.541C64.0813 377.057 63.5621 377.674 62.3461 378.553C58.1787 379.069 53.8809 376.01 50.2883 374.112C48.3625 377.315 46.4524 380.413 44.131 383.346C42.9799 384.162 42.7785 384.578 41.3372 384.438C38.2738 382.247 37.2806 376.749 36.1766 373.244C33.1143 373.971 29.6894 375.078 26.5632 375.21C25.014 375.276 24.1844 375.023 23.0513 373.988C22.0861 370.441 24.5353 366.071 25.8368 362.771C23.44 361.304 20.3618 359.804 18.4036 357.79C17.2439 356.598 16.9915 355.676 17.0139 354.056C19.0009 350.545 23.8222 348.82 27.3184 347.036C26.6522 344.632 25.8806 342.244 25.307 339.816C24.8303 337.798 24.6051 336.282 25.7389 334.462C28.8132 332.961 35.0673 336.191 38.2624 337.265C40.0152 332.802 41.5072 329.024 45.2216 325.772Z"/>
	<path fill="#FBFCFC" d="M887.22 438.356C887.795 438.389 888.676 438.381 889.239 438.591C893.097 440.029 895.554 448.192 897.069 451.837C900.294 450.67 904.931 448.659 908.375 448.994C909.77 449.13 910.206 449.538 911.127 450.537C912.221 454.879 908.718 461.174 907.069 465.121C910.152 467.225 916.868 471.139 917.512 475.08C917.648 475.909 917.522 476.723 917.079 477.428C914.695 481.222 906.693 482.261 902.56 483.282C902.639 486.58 903.225 490.758 902.119 493.884C901.536 495.53 900.79 496.126 899.27 496.893C894.548 497.074 889.81 492.23 886.347 489.464C883.78 491.991 879.401 496.648 875.764 497.164C874.711 497.314 873.642 497.2 872.84 496.446C869.71 493.5 870.755 486.002 870.86 482.001C867.238 481.127 859.17 479.714 857.316 476.188C856.893 475.384 856.823 474.624 856.992 473.761C857.811 469.58 864.341 466.063 867.678 463.777C866.129 460.824 862.853 454.523 863.503 451.195C863.767 449.846 864.115 449.632 865.113 448.794C869.471 447.623 874.668 449.755 878.924 450.905C881.317 446.31 883.18 441.79 887.22 438.356Z"/>
	<path fill="#FBFCFC" d="M681.792 856.517C683.742 856.258 685.366 856.131 687.073 857.336C690.698 859.895 691.181 866.146 691.985 870.15C694.523 868.957 697.217 867.477 699.959 866.837C702.009 866.358 704.713 866.137 706.493 867.493C707.414 868.195 707.973 869.262 708.189 870.382C709.145 875.319 705.357 880.27 702.886 884.152C705.388 885.18 707.928 886.248 710.205 887.728C712.275 889.073 714.835 891.355 715.179 893.971C715.38 895.503 714.999 896.853 713.936 897.999C710.766 901.415 704.693 901.172 700.444 901.39C701.393 903.465 702.295 905.733 702.863 907.948C703.445 910.219 703.74 913.252 702.255 915.265C701.437 916.373 700.217 916.962 698.876 917.114C693.906 917.68 689.498 913.185 686.07 910.24C684.69 913.676 683.201 916.805 681.066 919.841C679.83 920.826 678.649 921.905 676.997 922.039C675.436 922.166 674.062 921.598 672.973 920.503C669.857 917.37 669.556 912.518 669.435 908.385C666.632 909.354 663.513 910.715 660.561 910.973C658.384 911.163 655.401 911.052 653.72 909.41C652.758 908.471 652.386 907.466 652.453 906.116C652.646 902.205 656.351 897.721 659.08 895.091C655.495 893.452 649.206 891.183 647.864 887.102C647.439 885.809 647.475 884.682 648.162 883.474C650.335 879.657 657.166 878.594 661.065 877.627C660.316 875.759 659.516 873.877 658.89 871.964C658.139 869.667 657.799 866.103 659.167 863.961C660.014 862.635 661.181 861.83 662.738 861.608C667.144 860.98 671.298 864.544 674.532 867.042C676.412 862.805 677.929 859.336 681.792 856.517Z"/>
	<path fill="#FBFCFC" d="M576.473 323.581C581.556 323.107 586.24 323.48 590.913 325.748C598.979 329.661 604.33 337.977 607.064 346.269C611.13 358.6 610.13 372.875 604.236 384.463C600.035 392.724 593.934 397.777 585.11 400.587C579.007 401.432 573.437 400.961 568.01 397.742C560.295 393.165 555.547 384.582 553.272 376.133C549.966 363.856 550.939 349.592 557.355 338.469C561.848 330.679 567.748 325.963 576.473 323.581Z"/>
	<path fill="#FBFCFC" d="M439.241 323.207C444.522 323.292 449.179 324.524 453.631 327.467C461.957 332.971 466.93 342.989 468.793 352.568C471.122 364.545 469.187 377.821 462.195 387.979C457.074 395.418 450.565 399.37 441.708 401.037C435.071 401.134 429.397 399.427 424.207 395.2C416.084 388.584 411.96 378.308 410.845 368.104C409.56 356.334 412.09 343.346 419.687 334.003C424.786 327.731 431.175 324.087 439.241 323.207Z"/>
	<path fill="#FBFCFC" d="M838.433 752.708Q839.176 752.698 839.918 752.719Q840.66 752.741 841.401 752.794Q842.142 752.848 842.879 752.933Q843.617 753.019 844.35 753.136Q845.084 753.253 845.811 753.402Q846.539 753.551 847.259 753.731Q847.98 753.911 848.692 754.122Q849.404 754.333 850.106 754.575Q850.808 754.816 851.5 755.088Q852.191 755.359 852.87 755.661Q853.548 755.962 854.214 756.292Q854.879 756.622 855.529 756.981Q856.179 757.339 856.814 757.726Q857.448 758.112 858.065 758.525Q858.682 758.939 859.28 759.378Q859.879 759.818 860.458 760.283C867.799 766.161 872.184 774.77 873.101 784.089C874.078 794.011 871.371 803.521 864.932 811.176C858.388 818.955 849.706 822.623 839.73 823.542C831.193 823.607 823.233 820.861 816.606 815.464Q815.92 814.908 815.262 814.319Q814.604 813.73 813.977 813.108Q813.35 812.487 812.754 811.835Q812.159 811.183 811.597 810.502Q811.035 809.821 810.507 809.113Q809.98 808.404 809.488 807.671Q808.997 806.937 808.543 806.18Q808.089 805.423 807.673 804.644Q807.258 803.865 806.881 803.066Q806.505 802.267 806.169 801.45Q805.833 800.633 805.539 799.801Q805.244 798.969 804.992 798.123Q804.739 797.276 804.529 796.419Q804.319 795.561 804.152 794.694Q803.985 793.827 803.862 792.953Q803.738 792.078 803.659 791.199C802.772 781.746 806.134 772.19 812.263 765.002C819.023 757.076 828.289 753.589 838.433 752.708Z"/>
	<path fill="#FBFCFC" d="M155.798 153.146C164.232 152.41 172.315 154.055 179.342 158.926C187.291 164.436 192.463 173.083 194.055 182.581Q194.208 183.449 194.318 184.324Q194.427 185.199 194.493 186.079Q194.559 186.958 194.581 187.84Q194.603 188.721 194.581 189.603Q194.558 190.484 194.493 191.363Q194.427 192.243 194.317 193.118Q194.207 193.993 194.054 194.861Q193.901 195.73 193.705 196.589Q193.508 197.449 193.27 198.298Q193.031 199.147 192.75 199.982Q192.469 200.818 192.147 201.639Q191.825 202.46 191.462 203.264Q191.1 204.068 190.697 204.852Q190.295 205.637 189.854 206.401Q189.413 207.164 188.935 207.905Q188.457 208.646 187.942 209.362C181.76 217.904 172.896 222.72 162.619 224.433C154.01 224.75 146.415 223.383 139.257 218.304C131.155 212.555 125.821 203.489 124.241 193.72C122.787 184.739 125.203 174.818 130.601 167.499C136.742 159.174 145.746 154.707 155.798 153.146Z"/>
	<path fill="#BBFCFD" d="M70.9178 43.9999C72.1614 44.3028 73.4435 44.5791 74.4519 45.4138C78.8576 49.0608 78.8699 57.1847 79.3112 62.3932C82.7053 61.0926 86.1592 59.8004 89.7003 58.963C92.4652 58.3091 97.2498 57.3487 99.7312 59.2778C100.881 60.1715 101.328 61.0702 101.508 62.5009C102.232 68.2644 94.8773 77.1375 91.4482 81.2609C96.1365 82.1731 101.99 82.7689 106.011 85.4862C107.65 86.5941 108.517 87.652 108.875 89.6542C108.655 90.6603 108.485 91.2446 107.798 92.0506C104.813 95.5569 95.8884 97.396 91.4601 97.8219C93.2917 99.8217 95.075 101.832 96.6838 104.018C99.0355 107.215 102.288 111.984 101.217 116.149C100.805 117.75 99.6843 118.901 98.2215 119.577C92.5063 122.219 82.3644 118.492 76.9243 116.269C76.2918 120.855 75.9503 130.504 72.2355 133.461C71.2433 134.251 70.1127 134.557 68.8563 134.26C64.9176 133.328 62.0054 126.453 60.3413 123.137L59.0298 119.005Q55.6955 122.948 51.6643 126.175C49.5727 127.82 46.6229 129.516 43.8461 128.912C42.5154 128.622 41.457 127.769 40.7609 126.623C37.6259 121.461 40.6802 112.142 42.2144 106.735C37.4028 106.23 28.0538 106.207 24.744 102.252C23.8888 101.23 23.3851 100.14 23.5715 98.7763C24.2764 93.6177 32.8506 88.8251 36.7608 86.2289C33.1447 83.3814 29.1597 80.2133 26.8201 76.1911C25.7675 74.3816 24.7308 71.6202 25.4986 69.5203C26.0025 68.1421 26.7098 67.4038 28.0113 66.7398C32.401 64.5006 40.5107 67.5514 44.7564 69.2486C43.1346 64.9802 41.2382 60.2354 41.105 55.6179C41.0468 53.5977 41.2615 51.2823 42.8008 49.8076C43.7101 48.9366 44.7284 48.6752 45.9821 48.7992C50.7291 49.2684 56.039 56.9483 58.4939 60.6252C61.3273 54.125 64.2144 47.3581 70.9178 43.9999Z"/>
	<path fill="#FBFCFC" d="M58.0362 70.1555C59.3203 70.1667 70.1504 70.7018 70.3269 70.7716C70.6365 70.8942 70.9588 71.0596 71.1572 71.3271C72.147 72.6621 70.8505 74.4704 72.3932 75.9903C73.8889 75.8331 75.1462 75.7631 76.6358 75.996C79.4184 78.2088 80.9986 81.3592 81.7284 84.8089C83.0324 90.9727 81.2302 99.6359 77.594 104.816C74.2878 109.525 70.2161 110.617 64.8849 111.578C61.2672 111.625 57.5322 111.868 54.0189 110.886C51.9095 109.289 50.8499 105.726 49.2342 103.567C47.1359 100.764 41.0143 98.7926 40.3604 95.3992C39.9449 93.2431 41.2134 91.0394 42.225 89.2434C41.8935 86.5454 40.6747 81.573 42.1287 79.2159C44.481 78.519 45.3018 77.9524 46.6917 75.9179C46.7678 74.6926 46.67 73.0698 47.3382 72.0117C47.7158 71.4138 48.2128 71.5869 48.8458 71.5293C49.9424 72.1326 51.2751 73.0894 52.5437 73.143C53.4806 73.1826 54.3932 72.1454 54.9857 71.5091C55.9455 70.4783 56.711 70.502 58.0362 70.1555Z"/>
	<path fill="#BBFCFD" d="M943.188 875.116C945.548 875.48 947.554 876.29 949.186 878.101C953.794 883.215 953.435 891.765 953.214 898.196C957.482 894.644 963.278 891.608 968.503 889.727C971.363 888.698 975.954 887.397 978.771 889.105C979.924 889.803 980.484 890.8 980.81 892.072C982.519 898.74 975.437 909.175 972.245 914.809C977.508 915.354 983.072 915.938 988.073 917.757C990.914 918.79 993.917 920.467 995.155 923.388C995.893 925.132 995.732 927.121 994.894 928.797C991.838 934.908 983.139 938.5 977.04 940.543C981.347 943.057 986.122 946.193 989.424 949.981C991.106 951.91 992.529 954.317 992.169 956.973C991.916 958.835 990.706 960.266 989.19 961.272C983.278 965.197 970.81 965.214 964.036 963.837C965.343 968.593 966.798 973.393 966.999 978.357C967.097 980.78 966.852 984.328 964.916 986.101C963.761 987.159 962.538 987.626 960.974 987.646C953.254 987.743 945.247 979.077 940.336 973.934C937.057 981.286 934.211 988.388 927.551 993.323C927.328 993.366 927.106 993.421 926.881 993.452C925.279 993.67 924.121 993.265 922.919 992.232C917.983 987.987 917.597 976.567 917.232 970.551C912.314 972.253 907.39 973.994 902.272 975.001C898.782 975.688 893.569 976.579 890.592 974.107C889.559 973.248 889.069 971.971 889.032 970.654C888.859 964.581 895.91 956.718 899.646 952.374C894.806 951.214 889.752 949.789 885.132 947.949C882.592 946.936 878.819 945.171 877.908 942.325C877.423 940.81 877.568 939.475 878.4 938.11C881.726 932.652 891.863 930.477 897.66 928.845C893.548 925.026 889.248 921.21 885.841 916.73C884.002 914.31 881.59 910.572 882.355 907.354C882.699 905.904 883.735 904.912 885.032 904.261C892.146 900.689 901.65 903.632 908.628 906.174C907.654 903.447 906.776 900.615 906.117 897.795C905.169 893.734 903.487 885.686 906.214 882.164C907.07 881.058 907.818 880.649 909.206 880.502C915.514 879.836 924.02 891.067 928.477 895.066Q928.926 894.133 929.395 893.21C932.162 887.728 936.972 877.171 943.188 875.116Z"/>
	<path fill="#FBFCFC" d="M926.684 906.629C929.181 907.481 929.159 909.865 930.52 910.255C936.072 911.845 942.152 906.129 947.768 908.494C948.697 909.629 948.527 910.938 948.573 912.335L948.593 913.065C950.136 914.356 951.863 913.932 953.633 914.732C957.423 916.446 957.363 922.16 960.158 924.662C962.389 926.658 966.017 927.15 967.061 930.198C966.612 932.451 965.096 934.363 963.868 936.271C964.503 939.689 964.627 940.589 962.707 943.526L962.355 944.058C962.045 945.924 963.941 947.718 964.274 949.592C964.427 950.448 964.477 950.078 963.93 950.831C963.39 950.755 962.848 950.675 962.306 950.623C962.047 950.597 960.881 950.557 960.726 950.786C958.823 953.594 959.246 964.382 954.708 968.137C950.563 968.656 946.417 965.032 942.339 964.581C942.048 964.549 941.756 964.529 941.464 964.502C939.024 965.708 936.573 966.534 933.987 967.362C928.35 965.806 926.146 963.881 922.871 959.088C921.658 959.887 920.305 960.9 918.953 961.413C916.694 962.269 913.689 960.736 911.688 959.672C902.436 954.752 911.422 949.074 909.218 943.473C908.804 942.42 902.891 940.672 901.474 940.141C904.308 938.85 907.28 937.847 910.202 936.772L909.936 936.175C908.389 932.607 908.876 931.374 910.239 927.898C909.006 925.551 907.205 923.226 906.763 920.594C907.798 919.094 911.432 918.881 913.321 918.302C916.524 917.32 919.894 914.183 922.98 912.536C924.101 910.437 925.206 908.512 926.684 906.629Z"/>
	<path fill="#28CEC7" d="M220.668 428.296L376.629 428.495C377.549 434.527 377.844 440.67 378.784 446.723C381.188 462.208 384.859 477.193 389.403 492.175C373.297 493.317 356.677 492.217 340.511 492.246L231.836 492.238C226.87 470.945 223.284 449.981 220.668 428.296Z"/>
	<path fill="#28CEC7" d="M132.03 863.18C149.464 861.603 166.742 865.315 181.151 875.597Q182.602 876.634 184 877.743Q185.397 878.852 186.737 880.029Q188.077 881.206 189.356 882.449Q190.636 883.692 191.851 884.998Q193.067 886.304 194.215 887.668Q195.364 889.033 196.442 890.454Q197.521 891.875 198.527 893.348Q199.533 894.821 200.463 896.343Q201.394 897.864 202.248 899.43Q203.101 900.997 203.875 902.604Q204.649 904.211 205.341 905.855Q206.033 907.499 206.642 909.176Q207.251 910.852 207.776 912.557Q208.3 914.262 208.738 915.992Q209.176 917.721 209.527 919.47Q209.877 921.219 210.14 922.983Q210.425 924.798 210.622 926.625Q210.818 928.452 210.926 930.287Q211.033 932.121 211.051 933.959Q211.069 935.796 210.998 937.633Q210.926 939.469 210.766 941.299Q210.605 943.13 210.356 944.951Q210.106 946.771 209.768 948.577Q209.431 950.384 209.005 952.171Q208.58 953.959 208.068 955.724Q207.557 957.489 206.96 959.227Q206.363 960.965 205.682 962.672Q205.001 964.379 204.238 966.05Q203.475 967.722 202.632 969.355Q201.789 970.987 200.867 972.577Q199.945 974.167 198.947 975.709Q197.949 977.252 196.877 978.745C185.062 994.861 167.405 1004.16 147.88 1007.07C130.09 1009.79 110.02 1003.57 95.719 993.01C81.0595 982.186 71.3291 965.189 68.7005 947.222C65.8986 928.071 70.2706 908.032 82.0734 892.499C94.6745 875.916 111.386 865.977 132.03 863.18Z"/>
	<path fill="#28CEC7" d="M896.773 41.697C915.146 41.4097 932.357 47.6607 946.041 60.0291C960.028 72.6722 968.668 91.74 969.572 110.515Q969.653 112.301 969.647 114.089Q969.641 115.876 969.548 117.662Q969.454 119.447 969.274 121.226Q969.094 123.004 968.826 124.772Q968.559 126.539 968.206 128.292Q967.853 130.045 967.415 131.778Q966.976 133.511 966.454 135.221Q965.931 136.93 965.326 138.612Q964.721 140.294 964.034 141.945Q963.347 143.596 962.58 145.211Q961.814 146.826 960.969 148.401Q960.125 149.977 959.204 151.509Q958.284 153.042 957.289 154.528Q956.295 156.013 955.229 157.449Q954.164 158.884 953.029 160.266Q951.895 161.647 950.694 162.972Q949.479 164.319 948.198 165.604Q946.917 166.889 945.575 168.109Q944.232 169.329 942.83 170.48Q941.428 171.632 939.97 172.712Q938.513 173.793 937.004 174.8Q935.495 175.806 933.937 176.737Q932.38 177.667 930.778 178.519Q929.176 179.371 927.534 180.143Q925.892 180.914 924.213 181.602Q922.535 182.291 920.824 182.896Q919.114 183.5 917.375 184.019Q915.637 184.537 913.875 184.969Q912.113 185.401 910.331 185.744Q908.55 186.088 906.753 186.342Q904.957 186.597 903.15 186.762Q901.344 186.927 899.531 187.002C882.105 187.036 864.04 180.838 850.708 169.506C835.985 156.992 827.478 140.069 826.003 120.854Q825.863 119.042 825.812 117.226Q825.761 115.409 825.799 113.592Q825.838 111.775 825.965 109.963Q826.093 108.15 826.31 106.346Q826.527 104.541 826.832 102.75Q827.138 100.959 827.531 99.1844Q827.924 97.4102 828.404 95.6575Q828.884 93.9048 829.449 92.1778Q830.015 90.4508 830.665 88.7538Q831.315 87.0567 832.047 85.3936Q832.78 83.7306 833.593 82.1056Q834.407 80.4807 835.299 78.8977Q836.192 77.3147 837.161 75.7775Q838.13 74.2404 839.174 72.7527Q840.218 71.2651 841.333 69.8307Q842.449 68.3962 843.634 67.0184C857.751 50.8553 875.611 43.1698 896.773 41.697Z"/>
	<path fill="#FEE244" d="M501.307 752.203C523.013 749.825 547.391 758.253 564.263 771.722Q565.19 772.454 566.099 773.209Q567.007 773.964 567.897 774.74Q568.786 775.517 569.657 776.316Q570.527 777.115 571.377 777.934Q572.227 778.754 573.057 779.595Q573.887 780.435 574.696 781.296Q575.504 782.157 576.292 783.037Q577.079 783.918 577.844 784.818Q578.61 785.717 579.352 786.635Q580.095 787.554 580.815 788.49Q581.536 789.426 582.232 790.38Q582.929 791.334 583.602 792.304Q584.275 793.275 584.924 794.262Q585.572 795.249 586.197 796.252Q586.821 797.254 587.42 798.272Q588.02 799.29 588.594 800.322Q589.168 801.354 589.716 802.401Q590.265 803.447 590.787 804.506Q591.309 805.565 591.805 806.637Q592.302 807.709 592.771 808.793Q593.241 809.877 593.683 810.972Q594.126 812.067 594.542 813.172Q594.957 814.278 595.345 815.393Q595.733 816.509 596.094 817.634Q596.454 818.759 596.787 819.892Q597.119 821.025 597.424 822.166Q597.728 823.308 598.005 824.456Q598.281 825.604 598.529 826.759Q598.777 827.914 598.996 829.075Q599.215 830.235 599.406 831.401Q599.597 832.567 599.758 833.736Q599.92 834.906 600.053 836.08Q600.182 837.222 600.282 838.366Q600.383 839.511 600.454 840.657Q600.526 841.804 600.568 842.952Q600.611 844.1 600.625 845.249Q600.638 846.398 600.623 847.547Q600.608 848.696 600.564 849.844Q600.52 850.992 600.447 852.138Q600.374 853.285 600.272 854.43Q600.171 855.574 600.04 856.715Q599.91 857.857 599.75 858.995Q599.591 860.133 599.404 861.266Q599.216 862.4 599 863.528Q598.784 864.656 598.539 865.779Q598.295 866.902 598.022 868.018Q597.749 869.134 597.449 870.243Q597.148 871.352 596.82 872.453Q596.491 873.554 596.135 874.646Q595.779 875.738 595.396 876.821Q595.013 877.905 594.602 878.978Q594.192 880.051 593.755 881.113Q593.317 882.176 592.853 883.227Q592.389 884.278 591.899 885.317Q591.409 886.356 590.893 887.383Q590.377 888.409 589.835 889.422Q589.293 890.435 588.726 891.434Q588.159 892.434 587.567 893.418Q586.974 894.403 586.358 895.372Q585.741 896.342 585.1 897.295Q584.459 898.249 583.795 899.186Q583.13 900.123 582.442 901.043Q581.754 901.963 581.043 902.866Q580.332 903.769 579.599 904.653C562.66 925.232 540.939 935.7 514.622 938.299C514.409 938.322 514.195 938.351 513.981 938.368C490.874 940.177 465.414 932.007 447.698 917.083Q446.829 916.364 445.978 915.623Q445.127 914.882 444.294 914.12Q443.462 913.358 442.649 912.576Q441.836 911.793 441.043 910.991Q440.25 910.188 439.477 909.366Q438.704 908.544 437.952 907.703Q437.2 906.862 436.469 906.002Q435.739 905.142 435.029 904.264Q434.32 903.387 433.633 902.491Q432.947 901.596 432.282 900.684Q431.618 899.772 430.977 898.844Q430.335 897.915 429.718 896.971Q429.1 896.027 428.506 895.068Q427.911 894.109 427.342 893.135Q426.772 892.161 426.226 891.173Q425.681 890.185 425.16 889.184Q424.64 888.183 424.144 887.169Q423.649 886.156 423.179 885.13Q422.709 884.104 422.265 883.067Q421.821 882.029 421.403 880.981Q420.985 879.933 420.594 878.875Q420.202 877.817 419.837 876.749Q419.472 875.682 419.134 874.605Q418.795 873.529 418.484 872.444Q418.173 871.359 417.889 870.267Q417.605 869.175 417.348 868.077Q417.091 866.978 416.862 865.873Q416.633 864.768 416.432 863.658Q416.23 862.548 416.057 861.433Q415.883 860.318 415.738 859.199Q415.592 858.08 415.474 856.958Q415.357 855.836 415.267 854.711C413.187 829.218 420.686 804.596 437.309 785.038Q438.049 784.151 438.81 783.283Q439.572 782.415 440.355 781.567Q441.138 780.718 441.943 779.889Q442.747 779.061 443.572 778.253Q444.396 777.444 445.241 776.657Q446.086 775.87 446.95 775.104Q447.815 774.338 448.698 773.595Q449.581 772.851 450.483 772.129Q451.384 771.408 452.304 770.709Q453.223 770.011 454.16 769.335Q455.097 768.66 456.05 768.008Q457.003 767.357 457.973 766.729Q458.942 766.102 459.927 765.499Q460.912 764.896 461.912 764.318Q462.911 763.74 463.925 763.187Q464.939 762.635 465.966 762.108Q466.994 761.58 468.034 761.079Q469.074 760.578 470.127 760.103Q471.18 759.628 472.244 759.18Q473.308 758.732 474.383 758.31Q475.458 757.888 476.543 757.494Q477.629 757.1 478.724 756.733Q479.818 756.366 480.922 756.026Q482.026 755.687 483.138 755.375Q484.25 755.064 485.369 754.78Q486.488 754.496 487.615 754.241Q488.741 753.985 489.873 753.758Q491.005 753.531 492.143 753.333Q493.28 753.134 494.422 752.964Q495.565 752.794 496.711 752.653Q497.857 752.511 499.006 752.399Q500.155 752.286 501.307 752.203Z"/>
	<path fill="#FEE244" d="M220.668 428.296C217.265 388.834 216.903 339.474 227.445 301.243C231.74 285.668 238.262 270.392 245.149 255.808Q249.313 247.005 254.031 238.487Q258.75 229.968 264.003 221.768Q269.256 213.568 275.022 205.721Q280.788 197.874 287.044 190.411C325.558 144.582 376.227 109.778 434.717 95.4136C450.173 91.618 466.531 89.4172 482.383 88.0522C498.316 86.6802 514.397 87.1928 530.326 88.3547C592.73 92.9067 650.549 114.307 698.591 154.831C741.206 190.776 778.053 239.882 792.018 294.545C795.423 307.873 797.017 322.201 798.185 335.895C804.168 406.066 786.9 480.354 740.731 534.856C698.88 584.26 639.635 616.965 577.901 634.314L577.829 681.394C577.813 688.829 578.435 697.007 577.449 704.361C577.102 706.945 576.449 710.413 574.437 712.261C571.564 714.899 567.347 716.328 563.547 716.818C558.3 717.493 552.717 717.13 547.425 717.107Q533.009 716.989 518.592 717.036Q493.111 717.29 467.628 717.247C459.91 717.242 451.705 717.811 444.044 717.107C440.106 716.746 436.296 715.038 433.754 711.939C432.151 709.985 431.409 707.928 431.186 705.428C430.786 700.961 431.163 696.211 431.22 691.722Q431.409 679.381 431.4 667.038L431.304 625.177C431.275 614.925 430.892 604.513 432.158 594.323C436.394 560.219 454.796 530.938 481.738 510.114C493.567 500.97 506.473 493.331 518.746 484.818C532.575 475.226 545.888 464.885 560.055 455.785C578.189 444.137 604.274 432.311 618.422 416.484C628.263 405.474 633.495 391.953 635.413 377.404C638.627 353.023 631.838 324.235 616.572 304.716C596.821 279.462 560.203 263.852 528.972 260.271C493.497 256.203 449.361 261.361 420.88 283.983C393.268 305.915 380.864 341.749 377.095 375.776C375.158 393.257 375.512 410.971 376.629 428.495L220.668 428.296Z"/>
	<path fill="#AC856E" d="M259.553 400.521C260.737 400.432 262.08 400.264 263.245 400.53C265.252 400.987 267.273 402.706 268.212 404.512Q268.345 404.768 268.451 405.036Q268.558 405.304 268.636 405.582Q268.715 405.859 268.766 406.143Q268.816 406.427 268.838 406.715Q268.86 407.002 268.852 407.29Q268.845 407.579 268.808 407.865Q268.772 408.151 268.707 408.432Q268.642 408.713 268.549 408.986C267.805 411.177 266.153 412.087 264.2 413.086C262.925 413.107 261.577 413.176 260.319 412.95C258.212 412.571 256.473 411.168 255.387 409.352C254.593 408.025 254.407 406.505 254.881 405.029C255.679 402.54 257.317 401.623 259.553 400.521Z"/>
	<defs>
		<linearGradient id="gradient_0" gradientUnits="userSpaceOnUse" x1="313.34686" y1="405.71191" x2="294.44464" y2="405.24597">
			<stop offset="0" stop-color="#9D7860"/>
			<stop offset="1" stop-color="#C29E82"/>
		</linearGradient>
	</defs>
	<path fill="url(#gradient_0)" d="M302.095 396.585C305.164 396.404 308.149 396.216 311.087 397.301C314.578 398.59 317.825 401.034 319.26 404.566C320.001 406.392 320.092 408.396 319.198 410.187C317.633 413.32 314.385 414.601 311.243 415.578C308.76 415.662 306.226 415.805 303.789 415.225C300.11 414.35 296.144 412.418 294.181 409.029C293.238 407.402 292.929 405.503 293.535 403.697C294.786 399.967 298.768 398.079 302.095 396.585Z"/>
	<path d="M278.224 365.519C280.609 365.444 282.773 365.467 285.014 366.399C288.57 367.876 291.154 370.791 292.491 374.371C294.114 378.716 294.199 384.086 292.122 388.296C290.059 392.478 287.012 394.536 282.713 396.018C280.581 396.07 278.638 395.818 276.666 394.953C272.93 393.315 270.173 390.132 268.72 386.357C267.143 382.256 267.047 377.527 268.887 373.493C270.852 369.183 273.914 367.128 278.224 365.519Z"/>
	<path fill="#FBFCFC" d="M504.363 630.538C508.686 630.22 512.804 630.369 516.767 632.342Q517.167 632.541 517.557 632.76Q517.946 632.98 518.323 633.219Q518.701 633.458 519.066 633.717Q519.43 633.975 519.781 634.252Q520.132 634.529 520.468 634.824Q520.804 635.119 521.124 635.43Q521.445 635.742 521.748 636.07Q522.052 636.398 522.339 636.741Q522.625 637.084 522.893 637.441Q523.162 637.799 523.411 638.17Q523.661 638.54 523.891 638.924Q524.121 639.307 524.331 639.701Q524.541 640.096 524.73 640.501Q524.919 640.906 525.087 641.32Q525.256 641.734 525.402 642.156Q525.549 642.579 525.673 643.008Q525.929 643.886 526.098 644.785Q526.266 645.684 526.346 646.596Q526.425 647.507 526.415 648.422Q526.405 649.336 526.304 650.245Q526.204 651.155 526.015 652.05Q525.825 652.945 525.549 653.817Q525.273 654.689 524.912 655.529Q524.552 656.37 524.11 657.171C521.517 661.916 517.328 664.949 512.215 666.459C507.908 666.618 504.147 666.489 500.177 664.514Q499.768 664.306 499.37 664.078Q498.971 663.85 498.585 663.603Q498.199 663.355 497.825 663.089Q497.452 662.822 497.092 662.537Q496.733 662.252 496.388 661.949Q496.043 661.647 495.714 661.327Q495.385 661.008 495.072 660.672Q494.759 660.336 494.464 659.986Q494.168 659.635 493.89 659.269Q493.613 658.904 493.354 658.525Q493.095 658.147 492.855 657.755Q492.615 657.364 492.395 656.961Q492.176 656.559 491.976 656.145Q491.777 655.732 491.599 655.309Q491.42 654.887 491.263 654.456Q491.106 654.024 490.971 653.586Q490.698 652.736 490.512 651.862Q490.326 650.989 490.229 650.101Q490.132 649.213 490.125 648.32Q490.117 647.427 490.2 646.538Q490.283 645.649 490.455 644.772Q490.628 643.896 490.887 643.042Q491.147 642.187 491.491 641.363Q491.835 640.539 492.261 639.754C494.888 634.897 499.208 632.133 504.363 630.538Z"/>
	<path fill="#FBFCFC" d="M483.759 138.706C496.005 137.27 512.228 138.244 524.605 139.332C572.421 143.535 617.755 157.087 656.664 185.979C696.067 215.238 727.247 257.578 734.468 306.926C737.921 330.522 736.163 354.253 730.597 377.377C724.972 400.752 713.901 423.744 698.338 442.182C693.192 448.277 687.262 453.59 681.313 458.878C658.798 478.886 633.744 494.468 608.516 510.744C598.736 517.053 589.158 523.819 579.588 530.45C565.306 540.346 551.076 550.499 538.778 562.844C530.855 570.798 524.969 579.53 522.419 590.601C521.075 596.436 522.107 605.813 518.255 610.484C515.866 613.382 511.805 614.954 508.126 615.062C505.089 615.15 501.962 614.394 499.738 612.22C496.798 609.345 496.105 604.833 496.048 600.908C495.791 583.28 506.569 563.959 518.142 551.344C529.494 538.97 543.69 529.019 557.387 519.444C578.144 504.932 599.703 491.488 620.867 477.569C641.128 464.244 661 451.073 677.975 433.589C684.635 426.358 690.677 418.94 695.892 410.567C714.947 379.975 721.041 335.332 712.85 300.262C701.784 252.882 665.935 216.724 625.819 191.794C609.299 181.528 590.958 174.574 572.232 169.572Q568.236 168.478 564.207 167.511Q560.178 166.543 556.121 165.704Q552.064 164.865 547.982 164.155Q543.9 163.445 539.798 162.865Q535.695 162.284 531.577 161.834Q527.458 161.384 523.327 161.064Q519.196 160.744 515.057 160.556Q510.918 160.367 506.776 160.31Q502.633 160.253 498.49 160.326Q494.348 160.4 490.21 160.605Q486.072 160.81 481.942 161.146Q477.812 161.482 473.696 161.949Q469.579 162.415 465.479 163.012Q461.379 163.609 457.3 164.335Q453.221 165.062 449.167 165.917Q445.113 166.772 441.088 167.755C374.331 183.447 329.565 229.296 307.763 293.303C306.163 298.002 304.616 302.804 303.451 307.628C301.938 313.894 300.141 329.889 297.094 334.427Q296.787 334.891 296.432 335.321Q296.078 335.75 295.68 336.14Q295.283 336.53 294.846 336.875Q294.409 337.221 293.939 337.518Q293.468 337.816 292.969 338.062Q292.469 338.308 291.947 338.5Q291.424 338.693 290.884 338.829Q290.344 338.965 289.793 339.043C286.734 339.469 282.832 338.883 280.412 336.837C278.323 335.071 277.472 332.363 277.302 329.708C276.924 323.817 278.944 317.018 280.141 311.268Q280.889 307.831 281.742 304.418Q282.595 301.005 283.551 297.619Q284.508 294.234 285.567 290.879Q286.626 287.525 287.788 284.204Q288.949 280.883 290.211 277.6Q291.473 274.316 292.835 271.072Q294.196 267.829 295.656 264.628Q297.117 261.427 298.674 258.273Q300.231 255.118 301.883 252.013Q303.536 248.907 305.283 245.854Q307.029 242.8 308.868 239.801Q310.707 236.802 312.637 233.861Q314.567 230.919 316.585 228.038Q318.604 225.157 320.71 222.339Q322.815 219.521 325.006 216.768Q327.196 214.015 329.47 211.331C369.363 164.9 423.697 143.277 483.759 138.706Z"/>
</svg>
