<?xml version="1.0" encoding="utf-8" ?>
<svg xmlns="http://www.w3.org/2000/svg" xmlns:xlink="http://www.w3.org/1999/xlink" width="1024" height="1024">
	<path d="M0 0L1024 0L1024 113.451L1024 768.999L1024 832.379L1024 1024L0 1024L0 1016.56L0 356.7L0 0Z"/>
	<path fill="#FCE867" d="M871.651 94.7572C872.869 94.8163 873.45 94.9468 874.486 95.597C874.873 97.0732 874.404 97.9388 873.989 99.3878C872.925 98.9805 872.211 98.5273 871.319 97.8207C870.956 96.3822 871.131 96.1727 871.651 94.7572Z"/>
	<path fill="#FCE867" d="M119.625 353.388C120.555 353.347 120.692 353.516 121.498 353.912L121.369 355.093C119.999 356.702 119.645 356.472 117.622 356.746C117.369 357.086 117.57 356.885 116.824 357.05L116.367 356.249C117.248 354.603 118.051 354.339 119.625 353.388Z"/>
	<path fill="#FCE867" d="M116.109 358.782L117.692 359.034C118.467 360.158 118.541 360.887 118.703 362.205L118.278 362.72C116.714 362.302 115.256 361.402 113.717 361.892L113.208 363.452L112.597 363.761C112.132 363.014 112.026 363.204 112.212 362.467C112.457 361.503 113.023 361.054 113.696 360.373L114.804 360.299L116.109 358.782Z"/>
	<path fill="#F8D115" d="M113.696 360.373C112.564 360.026 111.748 359.743 110.548 359.834L110.947 361.241L110.223 361.095C109.802 360.082 109.682 359.188 110.135 358.132C110.682 356.859 111.254 356.703 112.436 356.247C114.122 356.513 114.971 357.626 116.109 358.782L114.804 360.299L113.696 360.373Z"/>
	<path fill="#F8D115" d="M214.949 941.853C215.367 941.991 215.901 942.146 216.275 942.368C217.45 943.062 217.674 943.52 218.124 944.719C217.879 946.312 217.247 946.866 216.139 947.919C214.791 947.17 213.79 946.752 213.161 945.25C213.26 943.654 213.95 942.992 214.949 941.853Z"/>
	<path fill="#F8D115" d="M785.468 161.789C785.585 162.675 785.644 163.547 785.7 164.438L785.029 164.909C783.499 163.145 781.454 162.799 779.548 161.617C778.318 160.853 778.066 160.394 777.74 159.016C779.007 158.213 780.057 158.761 781.493 159.007L782.679 158.974C783.619 159.902 784.57 160.82 785.468 161.789Z"/>
	<path fill="#FCE867" d="M985.921 116.474L984.553 116.237C986.185 115.833 988.384 115.898 989.758 114.931L989.684 113.936C990.685 113.258 991.151 112.982 992.447 113.169C993.845 113.371 994.601 114.297 995.459 115.284C995.691 116.513 995.391 117.239 995.067 118.413C994.164 118.77 993.392 119.017 992.43 119.153C992.14 119.075 991.854 118.981 991.561 118.917C991.294 118.858 991.021 118.829 990.752 118.786C989.109 117.297 988.149 116.685 985.921 116.474Z"/>
	<path fill="#F8D115" d="M18.0022 327.371C19.3363 327.53 20.6951 327.605 21.6942 328.65C22.4351 329.424 22.8149 330.385 22.657 331.459C22.4285 333.014 21.2914 333.843 20.1395 334.716C19.1698 334.488 17.7612 334.169 16.9757 333.527C15.8509 332.607 15.7892 332.157 15.5358 330.815C15.999 329.141 16.7152 328.5 18.0022 327.371Z"/>
	<path fill="#E2C409" d="M912.131 838.992C912.298 839.013 912.466 839.037 912.633 839.055C915.48 839.366 919.035 837.281 920.895 839.863C921.586 840.822 921.686 841.72 921.404 842.806C919.396 843.515 917.684 843.464 915.594 843.204C914.412 843.056 914.218 843.35 913.179 843.479C912.927 843.51 912.671 843.455 912.418 843.443C911.905 842.013 912.089 840.488 912.131 838.992Z"/>
	<path fill="#F8D115" d="M30.4416 294.483C31.638 294.394 33.2751 294.162 34.3382 294.829C35.291 295.426 35.9275 296.251 35.9215 297.409C35.9129 299.048 34.9253 300.333 33.9822 301.568C32.8349 301.607 31.5051 301.651 30.4682 301.056C29.3858 300.435 28.771 299.547 28.6743 298.298C28.5591 296.811 29.5996 295.586 30.4416 294.483Z"/>
	<path fill="#FCE867" d="M154.492 944.522C155.268 944.487 156.035 944.464 156.811 944.521C158.808 944.665 160.631 945.445 161.919 947.022C162.92 948.248 163.425 949.865 163.201 951.441C162.785 954.363 161.183 955.757 158.914 957.427C157.99 957.533 157.057 957.621 156.125 957.594C154.348 957.542 152.907 956.812 151.753 955.459C150.622 954.132 150.229 952.503 150.403 950.787C150.698 947.865 152.243 946.219 154.492 944.522Z"/>
	<path fill="#F8D115" d="M195.48 974.014C196.315 973.987 197.174 973.953 198.006 974.048C200.079 974.283 202.023 975.542 203.152 977.282C204.219 978.928 204.457 980.902 203.954 982.783C203.285 985.289 201.702 986.583 199.563 987.868C198.904 987.888 198.153 987.946 197.493 987.857Q197.108 987.805 196.731 987.712Q196.353 987.62 195.987 987.489Q195.622 987.358 195.271 987.19Q194.921 987.022 194.59 986.818Q194.26 986.614 193.952 986.377Q193.644 986.14 193.363 985.872Q193.081 985.604 192.829 985.309Q192.577 985.013 192.357 984.693C191.244 983.095 190.906 981.127 191.288 979.229C191.798 976.688 193.407 975.362 195.48 974.014Z"/>
	<path fill="#F8D115" d="M878.228 50.55C878.981 50.4468 879.743 50.3254 880.507 50.3178C882.406 50.2989 884.361 51.0906 885.686 52.4559C887.063 53.8751 887.609 55.7745 887.46 57.7241C887.224 60.8097 885.603 62.4838 883.348 64.3948C882.221 64.4817 881.022 64.6176 879.897 64.4728C878.12 64.244 876.464 63.1223 875.417 61.6935C874.233 60.0771 873.846 58.1363 874.223 56.1789C874.739 53.5065 876.088 52.0986 878.228 50.55Z"/>
	<path fill="#FCE867" d="M820.555 77.0242C821.75 76.9421 822.921 76.8782 824.101 77.1396C826.01 77.5629 827.709 78.9162 828.698 80.585C829.872 82.5671 830.045 85.0225 829.336 87.1965C828.43 89.976 826.648 91.3283 824.144 92.6215C822.944 92.6572 821.737 92.6753 820.554 92.4293C818.717 92.0472 817.048 90.5703 816.096 88.9959Q815.882 88.6461 815.706 88.2758Q815.529 87.9056 815.392 87.519Q815.255 87.1324 815.16 86.7336Q815.064 86.3349 815.01 85.9283Q814.956 85.5218 814.945 85.1118Q814.934 84.7019 814.966 84.293Q814.997 83.8841 815.071 83.4807Q815.145 83.0774 815.261 82.6839C816.129 79.6448 817.864 78.4383 820.555 77.0242Z"/>
	<path fill="#FCE867" d="M841.043 116.529C842.45 116.409 843.892 116.262 845.291 116.524C847.595 116.957 849.723 118.471 850.963 120.454C852.198 122.428 852.486 124.712 851.875 126.951C851.098 129.793 849.089 131.344 846.68 132.809C845.432 132.963 844.234 133.07 842.986 132.846C840.667 132.43 838.578 131.161 837.295 129.161C835.993 127.133 835.692 124.645 836.247 122.32C836.939 119.425 838.649 118.086 841.043 116.529Z"/>
	<path fill="#F8D115" d="M65.2878 309.033C66.6752 308.999 68.1623 309.169 69.4892 309.595C71.738 310.318 73.7505 312.071 74.8188 314.168C76.0697 316.624 76.0998 319.464 75.09 322.006C73.8282 325.182 71.4856 326.687 68.485 328.031C66.4956 328.212 64.6267 328.336 62.8052 327.369Q62.3642 327.133 61.9495 326.852Q61.5349 326.572 61.1509 326.251Q60.767 325.93 60.4177 325.572Q60.0685 325.214 59.7577 324.821Q59.4468 324.429 59.1775 324.008Q58.9082 323.586 58.6833 323.139Q58.4585 322.692 58.2803 322.224Q58.1021 321.756 57.9726 321.273C57.2458 318.649 57.4856 315.75 58.8574 313.373C60.363 310.763 62.4922 309.809 65.2878 309.033Z"/>
	<path fill="#F8D115" d="M926.649 882.57C928.467 882.478 930.261 882.404 932.018 882.971C934.905 883.904 937.317 886.166 938.522 888.937Q938.751 889.458 938.928 889.998Q939.104 890.539 939.226 891.094Q939.348 891.65 939.415 892.215Q939.481 892.78 939.492 893.348Q939.502 893.917 939.456 894.484Q939.41 895.051 939.308 895.61Q939.206 896.17 939.049 896.717Q938.892 897.263 938.682 897.792C937.274 901.273 934.918 902.854 931.567 904.24C929.238 904.467 927.092 904.586 924.896 903.664Q924.389 903.449 923.906 903.182Q923.424 902.915 922.972 902.599Q922.521 902.283 922.104 901.921Q921.688 901.56 921.312 901.157Q920.936 900.754 920.604 900.314Q920.271 899.874 919.987 899.402Q919.703 898.93 919.469 898.43Q919.235 897.931 919.055 897.41Q918.86 896.867 918.718 896.307Q918.577 895.748 918.491 895.177Q918.406 894.606 918.377 894.03Q918.347 893.453 918.375 892.877Q918.402 892.3 918.486 891.729Q918.57 891.158 918.71 890.598Q918.849 890.038 919.043 889.495Q919.237 888.951 919.483 888.429C921.079 885.107 923.328 883.85 926.649 882.57Z"/>
	<path fill="#F8D115" d="M918.334 95.1573C920.954 95.146 923.494 95.6065 925.811 96.8702Q926.392 97.1876 926.937 97.5625Q927.482 97.9375 927.987 98.3661Q928.491 98.7947 928.949 99.2725Q929.407 99.7504 929.814 100.272Q930.221 100.794 930.572 101.355Q930.924 101.916 931.216 102.51Q931.509 103.103 931.739 103.724Q931.97 104.344 932.136 104.985C933.113 108.624 932.645 112.652 930.648 115.873C928.326 119.618 925.154 121.024 921.021 122.029C918.09 122 915.482 121.765 912.918 120.216Q912.318 119.853 911.758 119.429Q911.199 119.005 910.687 118.526Q910.175 118.046 909.715 117.516Q909.256 116.985 908.854 116.41Q908.452 115.834 908.113 115.22Q907.773 114.606 907.499 113.96Q907.225 113.314 907.02 112.643Q906.815 111.972 906.681 111.283C905.946 107.629 906.638 103.657 908.801 100.593C911.21 97.1814 914.33 95.8253 918.334 95.1573Z"/>
	<path fill="#F8D115" d="M246.421 890.561C249.139 890.415 251.818 890.756 254.299 891.937C258.192 893.789 260.93 897.312 262.193 901.389C263.619 905.992 263.094 911.294 260.645 915.462C258.346 919.374 255.284 921.033 251.05 922.25C248.001 922.355 245.181 922.212 242.414 920.787C238.455 918.748 235.771 915.111 234.587 910.856C233.349 906.411 233.812 901.316 236.24 897.343C238.706 893.306 241.989 891.706 246.421 890.561Z"/>
	<path fill="#E5B80C" d="M1003.58 771.982C1006.51 771.946 1009.51 770.906 1012.32 770.166C1013.91 769.75 1015.44 769.307 1016.88 770.156L1017.24 772.118C1019.13 772.087 1021.18 769.998 1023.08 769.312C1023.39 769.202 1023.69 769.103 1024 768.999L1024 832.379C1020.77 830.979 1022.27 829.413 1020.51 827.028L1019.7 827.049L1018.26 828.74C1016.84 827.175 1015.39 827.24 1013.4 827.099C1012 827 1013.1 825.875 1012.05 824.901C1011.36 825.008 1010.9 825.149 1010.25 825.438C1010.03 825.533 1009.82 825.637 1009.61 825.737L1008.29 824.628C1000.55 829.037 1002.6 830.056 998.016 835.355L997.185 834.957C996.822 832.792 998.212 830.825 998.183 828.653L996.352 827.892C995.657 826.832 995.865 826.939 996.05 825.771L996.544 825.498L997.744 827.165L998.582 827.22L998.624 826.357C997.796 825.579 997.197 825.136 996.945 823.997C997.189 822.876 997.706 821.4 997.424 820.275C997.268 819.657 996.705 819.627 996.178 819.388C995.141 820.624 995.536 821.898 994.966 823.374L994.405 822.59C991.392 822.746 993.268 827.571 991.663 828.693C990.948 829.192 990.011 828.959 988.585 830.14L988.004 829.902C989.74 825.856 991.326 821.669 991.939 817.293L992.048 816.481C990.861 818.872 989.784 821.524 987.556 823.112C986.767 825.631 985.852 829.817 983.667 831.447L982.854 831.24C981.467 828.05 984.303 825.46 984.255 822.261C984.25 821.948 984.224 821.635 984.209 821.322C984.287 820.332 985.293 819.283 985.86 818.453C985.783 817.232 985.772 817.502 984.962 816.737L983.342 816.884L982.265 818.209C982.289 818.506 982.37 818.805 982.336 819.102C982.035 821.782 980.184 828.461 978.214 830.263C977.382 831.023 977.207 831.056 976.145 831.043L975.782 830.434C975.574 826.602 978.008 820.911 979.615 817.448L978.904 817.315L979.219 817.025C979.484 815.622 979.881 814.779 980.654 813.576C981.087 812.903 980.923 813.364 980.863 812.232C980.09 812.344 979.423 813.612 978.937 814.239L977.517 813.848C976.667 814.545 977.746 815.301 977.356 816.593L976.607 816.821C975.866 816.065 975.619 815.812 974.6 815.422L974.051 816.18C973.872 818.172 973.83 819.111 972.353 820.47C971.522 820.309 970.782 820.217 969.935 820.217C970.198 820.509 970.018 820.353 970.587 820.598C971.661 821.061 972.574 821.372 973.403 822.236L973.166 823.11C968.525 824.933 971.084 826.434 968.276 828.785C967.389 828.371 967.098 828.012 966.652 827.17C966.498 826.879 966.351 826.585 966.2 826.292L965.481 826.222L964.965 827.032L965.687 828.293C965.085 828.824 964.636 829.285 964.115 829.91C964.528 830.173 964.963 830.414 965.335 830.734C964.749 830.887 953.23 829.546 953.113 829.461C951.298 828.146 951.256 824.626 948.847 823.289Q948.713 824.203 948.612 825.122L947.573 824.757L947.329 822.963L946.496 822.507C942.769 823.026 943.206 821.748 940.491 820.032L938.233 820.92L937.913 820.518C938.234 818.716 938.553 818.583 939.804 817.334C938.904 817.36 938.299 817.434 937.484 816.979C936.885 816.646 936.341 816.332 935.714 816.044C934.262 817.069 934.657 818.662 933.339 819.771L932.88 819.248C933.197 818.427 933.342 818.102 933.285 817.203C932.663 817.337 932.174 817.426 931.53 817.385C930.678 817.332 930.312 816.488 929.779 815.868C929.61 817.11 929.645 818.254 928.87 819.272C927.975 817.82 927.432 815.803 925.989 814.931C925.507 815.704 924.514 816.885 924.255 817.711C923.775 819.242 924.819 820.119 923.484 821.437C923.29 821.384 923.098 821.322 922.902 821.279C921.954 821.068 922.3 821.125 921.211 821.397L920.197 820.79L920.346 820.118L921.559 819.765L920.931 819.428L921.432 819.612C920.757 818.348 919.772 817.683 918.69 816.777C918.728 818.357 918.902 818.923 918.066 820.301L917.27 820.476C916.248 819.49 915.517 818.457 914.732 817.287L914.099 817.502C914.292 818.794 916.88 820.803 916.84 821.302C916.69 823.135 915.013 822.118 917.874 824.321L917.482 825.551L917.855 825.632L917.942 824.665L917.217 825.354L915.443 823.941L914.929 824.357L914.926 826.389C917.054 827.043 921.235 827.815 922.381 829.873C922.459 830.013 922.498 830.171 922.557 830.321C921.716 831.167 921.407 831.053 920.236 831.051C918.288 831.048 916.371 830.642 914.934 829.293C912.178 830.076 908.235 828.606 905.669 827.219C906.333 828.862 907.015 830.302 907.968 831.798C908.941 831.179 908.706 831.084 909.946 831.292C910.084 832.249 909.886 832.397 909.514 833.255C910.463 833.554 911.192 833.48 912.176 833.453L913.399 834.116C913.428 835.315 913.274 835.338 912.525 836.3C911.013 836.065 910.519 834.647 909.134 835.035L909.169 835.824L909.557 836.159C910.535 837.015 911.25 837.668 911.848 838.853L912.131 838.992C912.089 840.488 911.905 842.013 912.418 843.443C912.128 843.482 911.839 843.528 911.549 843.56C909.135 843.827 906.361 842.832 903.785 842.856L903.253 842.343L903.267 841.479C901.874 841.928 901.016 842.715 899.934 843.648C898.202 843.56 894.701 842.263 893.261 842.698L893.923 845.046C893.261 846.097 893.242 846.035 892.042 846.398C891.905 846.275 891.77 846.15 891.63 846.031C891.126 845.601 890.644 845.302 890.07 844.98C889.176 845.162 889.18 845.567 888.687 846.295L888.548 848.034C886.597 848.475 883.365 846.264 882.118 846.983C882.829 847.959 882.704 848.176 883.923 848.48C884.926 848.729 884.598 848.518 885.111 848.967C884.073 849.783 884.086 849.86 882.781 849.83C880.717 847.671 882.398 845.218 878.727 844.654L878.34 845.142C877.722 845.908 877.959 845.624 877.184 846.423C875.631 845.823 874.625 842.615 873.586 842.646C873.65 843.779 873.837 844.428 874.349 845.439C873.507 844.762 871.933 843.149 870.925 843.099L871.3 843.912C872.117 845.7 873.061 847.427 873.101 849.429L872.599 849.814C871.327 849.23 870.619 848.678 869.628 847.729C869.675 847.492 869.724 847.255 869.768 847.018C869.953 846.018 869.905 846.422 869.931 845.429L868.366 846.248L867.248 845.592L867.556 846.533L866.053 846.875C866.618 847.492 867.38 847.643 868.149 847.941L868.312 848.756L865.938 850.853C870.95 854.419 876.332 853.416 879.243 855.603L879.376 856.462L878.982 856.692C878.534 856.957 878.1 857.243 877.666 857.529L877.555 857.994C878.657 857.846 880.022 857.536 881.108 857.82C882.078 858.073 882.216 858.36 882.697 859.151C882.621 859.305 882.565 859.471 882.468 859.613C881.03 861.728 876.984 862.609 874.642 863.012C869.935 863.821 863.21 863.683 859.23 860.869L859.755 859.305C859.543 857.611 859.071 856.552 858.242 855.068L857.365 856.125C857.098 856.139 856.799 856.267 856.562 856.141C855.577 855.617 853.962 854.81 853.646 853.756C854.367 853.087 854.903 852.759 855.211 851.801C853.672 851.797 852.184 853.179 850.969 854.039L851.316 854.103L850.204 854.802L851.469 856.894L851.263 857.491C848.021 857.137 848.431 854.368 845.79 853.548C844.815 854.434 843.809 855.521 842.508 855.888C840.455 856.467 838.416 854.423 836.65 853.528C836.59 854.554 836.543 855.301 836.101 856.237Q833.774 856.507 831.441 856.729C833.385 857.548 835.597 858.203 836.626 860.14C835.433 860.781 833.921 860.352 832.563 860.762C835.092 861.633 837.735 860.629 840.277 861.158C843.056 861.738 845.75 863.216 848.532 863.965C848.98 863.674 849.428 863.383 849.863 863.073L850.25 862.794C853.82 864.717 857.52 866.077 861.126 867.882C819.062 885.393 775.058 894.875 730.404 903.036C691.331 910.178 652.421 915.881 613.014 920.783C622.873 911.826 633.713 903.95 643.534 894.902Q661.88 878.04 679.168 860.096Q696.456 842.152 712.623 823.191C722.151 811.8 731.058 799.926 740.013 788.084C741.418 788.545 742.687 788.664 743.644 789.825L742.982 791.244C743.785 792.372 745.911 792.982 747.239 793.168C748.011 793.276 748.543 792.984 749.283 792.856C749.558 792.809 750.03 792.825 750.335 792.83C751.24 794.028 750.563 795.707 751.815 795.928L753.026 794.943C756.006 795.703 762.875 800.303 765.272 802.466L765.613 803.382L764.943 804.69C767.151 805.771 771.116 804.992 772.38 807.3L771.761 808.009C770.201 807.773 769.605 807.474 768.161 808.18L768.508 808.823C769.397 808.968 770.135 809.068 771.033 808.967C772.954 808.185 773.726 808.157 775.612 808.99C777.652 809.892 779.825 811.184 781.644 812.483C783.014 812.482 784.377 811.756 785.808 811.665C795.213 811.07 804.768 808.726 813.987 806.719C830.496 803.125 846.878 798.99 863.366 795.312C891.607 789.011 920.094 784.033 948.462 778.407C947.177 779.762 945.766 780.639 944.187 781.622C946.937 782.543 949.756 783.686 952.65 784.03C955.325 785.825 961.037 783.971 965.164 785.251L965.087 783.768C964.01 782.541 961.662 782.259 960.125 781.702L959.856 780.968C961.359 778.343 963.237 778.113 965.929 777.347C970.003 776.44 974.015 775.347 978.138 774.654C981.542 774.081 985.217 774.178 988.504 773.128C989.76 772.726 990.787 772.54 992.104 772.415C995.395 773.974 1000.35 769.535 1003.8 770.547L1003.58 771.982Z"/>
	<path fill="#E2C409" d="M771.033 808.967C772.954 808.185 773.726 808.157 775.612 808.99C777.652 809.892 779.825 811.184 781.644 812.483L779.597 812.805C778.435 812.999 777.445 813.322 776.296 812.882C775.455 812.56 775.282 811.705 774.887 810.956C774.513 810.784 773.672 810.41 773.35 810.205C772.426 809.614 772.179 809.27 771.033 808.967Z"/>
	<path d="M782.193 874.223C782.364 874.243 782.537 874.245 782.704 874.281C784.015 874.564 785.249 875.551 785.937 876.679C785.086 877.098 784.403 877.525 783.662 878.117C783.917 879.629 784.993 879.921 786.175 880.824L785.927 881.779C784.628 883.033 784.34 883.002 782.635 883.315L779.773 883.45C778.636 882.8 778.404 882.577 777.996 881.235C777.615 879.984 777.997 878.659 778.504 877.523C780.145 876.769 780.756 877.898 782.347 877.336C782.365 876.285 782.28 875.269 782.193 874.223Z"/>
	<path d="M756.531 872.506C757.835 872.717 759.22 872.728 760.172 873.736L759.853 875.302L760.343 876.027L762.037 875.506C763.333 873.836 761.788 874.383 762.194 872.868C763.494 873.103 764.267 873.391 765.104 874.479C766.331 876.076 766.431 877.011 766.129 878.908L764.953 880.099C764.567 880.008 764.183 879.908 763.792 879.843C761.21 879.408 758.558 879.053 756.312 877.625C755.923 875.979 756.427 875.562 757.157 874.079L756.531 872.506Z"/>
	<path d="M810.994 848.481L814.261 848.632C815.268 849.339 815.695 849.673 816.123 850.841C815.738 852.142 815.401 852.804 814.239 853.587C811.226 855.616 807.806 854.711 804.491 854.218C803.364 853.746 802.324 853.421 801.541 852.431Q803.086 852.058 804.64 851.722C804.268 850.891 803.995 850.674 804.166 849.753C806.081 850.041 807.903 850.325 809.844 850.268L810.994 848.481Z"/>
	<path fill="#F8D115" d="M992.104 772.415C995.395 773.974 1000.35 769.535 1003.8 770.547L1003.58 771.982C995.763 774.062 987.963 777.036 980.303 779.671C977.68 780.574 975.091 782.258 972.319 782.512L971.806 782.043C971.948 781.771 972.043 781.469 972.232 781.228C973.193 780.001 983.075 777.243 985.297 776.295C986.814 775.647 988.585 774.447 990.164 774.099C990.74 773.973 990.835 774.008 991.345 774.044C992.01 772.974 991.769 773.523 992.104 772.415Z"/>
	<path fill="#E2C409" d="M922.676 788.448C926.805 787.068 940.857 780.935 944.187 781.622C946.937 782.543 949.756 783.686 952.65 784.03C955.325 785.825 961.037 783.971 965.164 785.251C963.974 786.761 962.552 786.873 960.768 787.34C960.549 787.398 960.332 787.465 960.112 787.524C958.151 788.05 956.228 787.96 954.22 787.909L954.173 789.838C951.371 792.062 945.697 792.251 942.285 793.282C938.934 794.295 935.667 795.807 932.37 797.012C930.051 797.859 930.515 799.283 928.463 799.99C924.724 801.279 920.572 801.378 916.831 802.712C913.164 804.019 910.672 806.52 906.526 806.124C905.375 805.428 905.411 805.459 905.005 804.175C905.485 802.911 905.671 802.391 906.884 801.625C907.439 801.275 908.317 801.16 908.947 800.974C909.485 800.814 910.018 800.638 910.554 800.471L910.702 800.119L910.224 799.154C911.373 798.489 912.006 798.676 913.291 798.692C913.202 797.939 912.996 797.715 912.783 797.034C912.722 796.837 912.757 796.623 912.743 796.417L913.252 795.881L914.6 796.278L914.993 795.651C914.367 794.768 913.72 793.97 912.994 793.169C915.716 791.102 918.906 790.13 921.745 788.309L922.676 788.448Z"/>
	<path fill="#FCE867" d="M998.954 114.52C1007.35 114.584 1015.63 114.127 1024 113.451L1024 768.999C1023.69 769.103 1023.39 769.202 1023.08 769.312C1021.18 769.998 1019.13 772.087 1017.24 772.118L1016.88 770.156C1015.44 769.307 1013.91 769.75 1012.32 770.166C1009.51 770.906 1006.51 771.946 1003.58 771.982L1003.8 770.547C1000.35 769.535 995.395 773.974 992.104 772.415C990.787 772.54 989.76 772.726 988.504 773.128C985.217 774.178 981.542 774.081 978.138 774.654C974.015 775.347 970.003 776.44 965.929 777.347C963.237 778.113 961.359 778.343 959.856 780.968L960.125 781.702C961.662 782.259 964.01 782.541 965.087 783.768L965.164 785.251C961.037 783.971 955.325 785.825 952.65 784.03C949.756 783.686 946.937 782.543 944.187 781.622C945.766 780.639 947.177 779.762 948.462 778.407C920.094 784.033 891.607 789.011 863.366 795.312C846.878 798.99 830.496 803.125 813.987 806.719C804.768 808.726 795.213 811.07 785.808 811.665C784.377 811.756 783.014 812.482 781.644 812.483C779.825 811.184 777.652 809.892 775.612 808.99C773.726 808.157 772.954 808.185 771.033 808.967C770.135 809.068 769.397 808.968 768.508 808.823L768.161 808.18C769.605 807.474 770.201 807.773 771.761 808.009L772.38 807.3C771.116 804.992 767.151 805.771 764.943 804.69L765.613 803.382L765.272 802.466C762.875 800.303 756.006 795.703 753.026 794.943L751.815 795.928C750.563 795.707 751.24 794.028 750.335 792.83C750.03 792.825 749.558 792.809 749.283 792.856C748.543 792.984 748.011 793.276 747.239 793.168C745.911 792.982 743.785 792.372 742.982 791.244L743.644 789.825C742.687 788.664 741.418 788.545 740.013 788.084C778.145 738.621 809.697 679.243 832.336 621.171C839.099 603.824 844.598 586 850.769 568.439C851.399 565.807 852.425 563.132 853.241 560.543Q858.028 544.766 862.475 528.89Q863.769 523.486 865.164 518.107C883.416 438.183 894.736 357.462 895.838 275.398Q896.463 235.357 893.806 195.399C893.561 191.583 891.45 171.823 892.506 170.096C893.527 170.153 894.082 170.176 895.083 169.892C891.367 166.321 880.982 161.386 875.732 160.609L875.201 160.753C867.975 162.779 861.039 166.244 853.956 168.772C840.013 173.748 817.128 178.817 802.038 178.053C795.815 179.027 765.85 176.766 761.461 173.612C760.45 172.885 759.724 172.283 759.525 171.059C760.481 170.846 760.072 170.895 761.096 170.846C761.342 170.834 761.588 170.828 761.835 170.819L762.44 168.487L762.953 168.306C762.974 169.387 762.842 169.526 763.462 170.472L764.745 169.169L765.463 169.21C765.995 170.367 766.547 171.212 767.36 172.192L767.784 171.963L767.068 169.554C767.484 168.002 768.375 167.316 769.72 166.568C771.516 165.569 777.519 163.365 779.479 163.905C781.501 164.983 784.119 165.558 785.411 167.519C785.171 168.691 784.93 168.9 784.17 169.777C785.856 169.483 789.899 170.166 791.426 170.864C792.447 170.875 792.521 170.711 793.371 170.229L792.885 170.361L793.228 169.557C792.175 168.324 789.267 168.079 787.695 167.73C787.752 166.426 789.098 167.11 789.956 166.044L789.518 165.4C788.576 166.034 789.052 165.97 788.138 165.818L788.905 164.798L787.994 165.184L788.509 165.258C789.51 164.499 789.275 164.601 789.48 163.463C789.348 163.431 789.219 163.357 789.084 163.367C788.01 163.452 787.888 163.761 786.685 163.561L785.468 161.789C784.57 160.82 783.619 159.902 782.679 158.974L781.493 159.007C780.745 158.455 780.331 157.787 779.376 157.939C778.538 158.073 778.863 158.01 777.988 158.252L776.929 157.704C777.327 156.581 777.888 156.103 778.94 155.569C779.834 155.116 780.882 154.79 781.791 155.375C782.475 155.815 783.104 156.609 783.707 157.16C784.486 157.872 784.167 157.636 785.285 157.953C785.506 156.988 785.238 156.823 784.85 155.948C786.762 155.688 789.874 157.649 791.261 158.854C791.44 159.009 791.584 159.2 791.745 159.374L791.479 160.453C792.995 159.477 794.416 159.011 796.139 158.502C793.624 154.418 792.45 156.443 790.769 154.958C789.809 154.11 788.237 150.926 788.194 149.679C789.35 149.501 790.177 149.559 791.327 149.766L791.059 151.159C791.921 152.088 792.618 152.247 793.792 152.612C795.514 151.999 795.877 150.416 797.024 149.005C798.413 148.983 798.799 149.324 799.988 149.991C801.83 148.563 803.67 147.603 806.077 147.817C808.961 148.072 811.274 150.591 814.012 151.348C817.313 152.261 820.733 150.401 823.924 150.408C825.866 150.412 827.635 152.758 829.859 152.26C830.437 151.1 830.787 150.046 831.135 148.806C833.968 147.294 856.808 157.634 860.487 155.034C858.255 152.371 857.276 155.867 857.454 150.05L857.966 149.418C860.239 150.591 866.838 155.556 869.076 157.312C871.666 157.475 874.039 158.268 876.575 158.486C876.906 159.548 876.882 159.075 876.815 159.886L877.318 160.137C877.937 159.487 878.664 158.428 879.532 158.156C885.353 156.332 893.901 160.688 899.797 161.241C907.691 161.982 911.987 158.731 919.92 162.187C922.312 163.229 925.009 164.461 927.592 163.439C927.656 162.521 926.826 161.812 926.284 161.082L926.403 160.345L928.119 160.053C928.497 161.077 928.364 160.616 928.621 161.78C928.868 162.903 929.006 162.838 929.796 163.596C934.236 164.589 933.088 162.624 935.92 162.152L937.975 164.205C941.358 164.757 944.528 164.286 947.83 164.636C949.202 164.781 952.329 165.819 953.487 165.561C953.784 165.495 954.029 165.286 954.3 165.148C952.676 163.156 951.06 161.177 949.31 159.292C948.679 159.642 947.89 160.172 947.197 160.352C943.849 161.222 942.196 156.106 939.515 154.662C938.847 155.133 938.379 155.422 937.608 155.728C936.934 154.458 936.832 154.427 937.09 153.03L938.236 152.271C939.291 152.147 939.927 151.995 940.939 152.415C941.135 152.497 941.317 152.611 941.506 152.708L941.599 151.849L940.038 150.229L940.126 148.483C940.519 145.282 941.373 147.05 943.164 145.418C942.285 144.257 941.725 143.283 941.152 141.944L941.513 141.573C942.435 142.142 943.095 142.65 944.203 142.699L944.8 141.989L944.039 140.275L944.529 139.955L947.078 140.982L947.651 140.453L946.506 138.353L946.927 137.74C948.075 137.822 948.735 137.71 949.718 138.366C949.344 139.516 948.959 140.162 949.192 141.378L950.522 141.613L951.018 140.9L950.528 138.257C951.229 136.496 952.305 138.206 954.528 135.833C954.681 136.683 954.866 137.257 955.291 138.01C962.26 134.43 953.197 126.21 956.236 121.291C956.934 120.16 958.049 119.739 959.313 119.591C960.649 119.434 962.166 119.83 963.188 120.705C964.278 121.639 964.397 122.842 964.567 124.168C964.589 124.335 964.606 124.503 964.625 124.67L965.604 124.967L966.49 124.405C966.713 123.132 966.269 122.319 965.777 121.18L965.561 120.689L965.939 120.278C967.901 120.763 969.819 121.353 971.748 121.951C974.211 121.088 974.687 122.248 976.972 122.812C977.635 121.841 977.215 122.066 978.031 121.852C978.226 122.715 978.197 122.326 978.143 123.301C978.13 123.544 978.109 123.786 978.092 124.028C979.014 125.114 979.199 125.022 980.621 125.305L981.035 124.873L980.783 123.244C981.982 122.639 983.284 122.104 984.202 121.096C984.338 120.947 984.441 120.77 984.561 120.607L985.818 120.645L986.359 120.662C986.303 120.502 986.253 120.339 986.189 120.182C985.662 118.876 985.814 117.847 985.921 116.474C988.149 116.685 989.109 117.297 990.752 118.786C991.021 118.829 991.294 118.858 991.561 118.917C991.854 118.981 992.14 119.075 992.43 119.153C993.392 119.017 994.164 118.77 995.067 118.413C996.534 118.455 997.859 118.207 999.075 119.15C999.171 119.225 999.236 119.333 999.317 119.424C1001.15 119.733 1002.24 119.664 1003.67 120.897C1004.17 122.31 1004.39 123.71 1004.62 125.184C1008.35 124.12 1009.7 128.061 1014.92 127.162C1015.96 126.984 1017.32 127.038 1017.94 126.162C1012.36 125.889 1012.39 122.834 1008.18 121.481C1006 120.783 1004.98 120.156 1003.71 118.219C1002.42 116.23 1001.03 115.573 998.954 114.52Z"/>
	<path d="M944.552 170.407C945.632 171.129 946.575 171.507 947.173 172.685C947.055 172.776 946.949 172.884 946.82 172.957C945.003 173.98 942.012 173.308 940.121 172.783C938.887 172.291 938.046 171.878 936.997 171.028C938.924 170.336 941.911 170.827 944.078 170.487C944.236 170.462 944.394 170.434 944.552 170.407Z"/>
	<path fill="#F8D115" d="M779.479 163.905C781.501 164.983 784.119 165.558 785.411 167.519C785.171 168.691 784.93 168.9 784.17 169.777C783.283 170.321 782.882 170.513 781.834 170.465C780.895 169.741 780.343 169.176 780.219 167.918C780.105 166.752 780.237 165.913 779.819 164.786C779.71 164.491 779.593 164.198 779.479 163.905Z"/>
	<path fill="#F8D115" d="M985.921 116.474C988.149 116.685 989.109 117.297 990.752 118.786C991.021 118.829 991.294 118.858 991.561 118.917C991.854 118.981 992.14 119.075 992.43 119.153C993.392 119.017 994.164 118.77 995.067 118.413C996.534 118.455 997.859 118.207 999.075 119.15C999.171 119.225 999.236 119.333 999.317 119.424C997.988 121.182 998.175 121.6 998.137 123.733C996.462 124.021 994.833 124.263 993.136 124.375L992.249 124.585C991.49 123.895 990.757 123.287 989.904 122.717C988.487 122.938 987.166 123.068 985.732 123.105L985.295 122.515L985.818 120.645L986.359 120.662C986.303 120.502 986.253 120.339 986.189 120.182C985.662 118.876 985.814 117.847 985.921 116.474Z"/>
	<path fill="#F8D115" d="M920.483 427.935C920.661 427.927 920.838 427.914 921.016 427.912C923.064 427.884 924.967 428.233 926.311 429.919C927.152 430.974 927.4 432.309 927.198 433.617C926.841 435.921 925.515 437.122 923.771 438.517C923.248 438.569 923.047 438.602 922.477 438.592C920.704 438.562 919.252 438.072 918.11 436.643C917.222 435.53 916.984 434.231 917.139 432.849C917.413 430.404 918.666 429.377 920.483 427.935Z"/>
	<path fill="#F8D115" d="M1003.23 295.976C1004.13 295.904 1005.1 295.815 1006 295.942C1007.57 296.162 1009.21 297.23 1010.09 298.543C1010.99 299.901 1011.19 301.542 1010.87 303.124C1010.4 305.479 1009.01 306.595 1007.14 307.937C1006.86 307.961 1006.59 307.99 1006.31 308.008C1004.52 308.128 1002.7 307.536 1001.39 306.278C1000.36 305.291 999.862 303.896 999.848 302.488C999.818 299.468 1001.14 297.965 1003.23 295.976Z"/>
	<path fill="#F8D115" d="M995.955 364.481C996.879 364.443 997.84 364.388 998.761 364.493C1000.63 364.705 1002.42 365.944 1003.48 367.459C1004.6 369.077 1004.93 371.054 1004.52 372.971C1003.92 375.835 1002.18 377.317 999.837 378.865C999.147 378.92 998.442 378.997 997.748 378.935C995.879 378.77 994.03 377.736 992.899 376.246C991.578 374.506 991.314 372.284 991.733 370.18C992.27 367.479 993.799 366.033 995.955 364.481Z"/>
	<path fill="#F8D115" d="M904.031 476.501C904.88 476.505 905.726 476.507 906.569 476.631C908.472 476.909 910.259 478.157 911.304 479.757C912.448 481.507 912.724 483.74 912.139 485.737C911.339 488.471 909.613 489.939 907.187 491.241C906.453 491.258 905.701 491.297 904.969 491.196C903.115 490.94 901.268 489.754 900.244 488.192C899.079 486.414 898.937 484.189 899.431 482.164C900.118 479.344 901.679 478.029 904.031 476.501Z"/>
	<path fill="#F8D115" d="M913.962 370.518C915.29 370.416 916.634 370.297 917.958 370.522C919.809 370.837 921.517 372.088 922.532 373.651C923.602 375.298 923.843 377.35 923.432 379.247C922.726 382.496 920.742 384.252 918.017 385.918C916.904 386.092 915.612 386.187 914.495 386.02C912.859 385.777 911.286 384.665 910.35 383.329C908.975 381.365 908.753 378.879 909.276 376.585C909.957 373.596 911.437 372.106 913.962 370.518Z"/>
	<path fill="#F8D115" d="M936.97 302.542C938.415 302.397 940.011 302.144 941.44 302.495C943.556 303.015 945.542 304.511 946.61 306.407C947.736 308.406 947.921 310.752 947.248 312.935C946.344 315.863 944.525 317.335 941.949 318.793C941.054 318.889 940.25 318.956 939.353 318.826C936.817 318.457 934.35 317.347 932.865 315.178C931.577 313.296 931.29 310.877 931.84 308.69C932.579 305.748 934.507 304.102 936.97 302.542Z"/>
	<path fill="#F8D115" d="M880.971 647.607C882.463 647.41 884.173 647.221 885.66 647.505C888.166 647.984 890.512 649.603 891.827 651.789C893.301 654.239 893.539 657.349 892.72 660.062C891.606 663.759 889.318 665.595 885.997 667.28C884.52 667.417 883.082 667.543 881.62 667.214C879.058 666.637 876.803 665.176 875.469 662.888C874.101 660.539 873.832 657.723 874.516 655.109C875.509 651.314 877.697 649.505 880.971 647.607Z"/>
	<path fill="#F8D115" d="M789.034 780.527C790.683 780.441 792.589 780.233 794.175 780.767C796.858 781.67 799.139 783.941 800.212 786.534Q800.408 786.996 800.555 787.476Q800.703 787.956 800.802 788.449Q800.901 788.941 800.949 789.441Q800.998 789.94 800.995 790.443Q800.993 790.945 800.94 791.444Q800.888 791.943 800.785 792.435Q800.682 792.926 800.53 793.405Q800.378 793.883 800.178 794.344C798.899 797.235 796.611 798.806 793.765 799.93C792.004 800.282 790.256 800.435 788.507 799.938Q788.046 799.811 787.601 799.637Q787.156 799.462 786.731 799.242Q786.307 799.022 785.908 798.758Q785.509 798.494 785.14 798.19Q784.771 797.886 784.436 797.545Q784.102 797.203 783.804 796.829Q783.507 796.454 783.251 796.05Q782.995 795.647 782.783 795.218C781.473 792.583 781.394 789.445 782.421 786.704C783.679 783.347 785.919 781.997 789.034 780.527Z"/>
	<path fill="#F8D115" d="M865.164 518.107C868.34 519.322 878.035 514.382 881.129 522.005C882.388 525.109 882.357 528.238 881.89 531.483C880.889 532.802 879.694 534.181 879.056 535.717C877.585 539.261 877.144 541.735 872.765 542.308C870.279 542.633 866.595 541.918 864.803 540.026C863.912 539.086 864.057 538.618 864.199 537.458C865.049 536.53 865.266 536.34 866.618 536.244C869.635 536.029 872.553 538.553 875.591 538.243L875.982 537.588C873.341 536.578 870.298 536.584 867.775 535.545C864.932 534.374 864.91 530.595 862.475 528.89Q863.769 523.486 865.164 518.107Z"/>
	<path fill="#F8D115" d="M978.13 425.529C979.749 425.46 981.247 425.492 982.818 425.943Q983.373 426.102 983.909 426.318Q984.444 426.534 984.954 426.805Q985.464 427.075 985.944 427.398Q986.423 427.72 986.866 428.09Q987.309 428.461 987.711 428.875Q988.113 429.289 988.47 429.743Q988.827 430.197 989.134 430.686Q989.442 431.175 989.697 431.693Q989.963 432.24 990.17 432.812Q990.377 433.384 990.523 433.974Q990.67 434.564 990.754 435.166Q990.839 435.769 990.86 436.376Q990.882 436.984 990.84 437.591Q990.798 438.197 990.694 438.797Q990.589 439.396 990.422 439.981Q990.256 440.565 990.03 441.13C988.535 444.867 986.107 446.319 982.551 447.871C980.345 448.008 978.28 448.087 976.195 447.24C973.347 446.082 971.135 443.881 970.045 440.996Q969.843 440.458 969.694 439.903Q969.545 439.347 969.45 438.78Q969.355 438.213 969.316 437.64Q969.277 437.066 969.294 436.492Q969.31 435.917 969.383 435.347Q969.455 434.776 969.582 434.216Q969.709 433.655 969.89 433.109Q970.071 432.564 970.304 432.038C971.952 428.37 974.533 426.971 978.13 425.529Z"/>
	<path fill="#F8D115" d="M853.241 560.543C853.462 560.52 853.688 560.525 853.905 560.474C858.619 559.368 860.483 550.767 870.523 555.443C873.248 556.712 875.157 559.022 876.027 561.887C877.146 565.571 876.573 569.629 874.713 572.974C873.195 575.704 870.706 577.915 867.647 578.708C864.35 579.563 860.238 578.711 857.346 576.969C854.691 575.368 853.173 571.95 851.656 569.345C851.298 568.731 851.429 568.942 850.769 568.439C851.399 565.807 852.425 563.132 853.241 560.543Z"/>
	<path fill="#F8D115" d="M948.462 778.407C948.448 777.668 948.53 777.884 948.267 777.288C946.925 774.26 944.83 770.844 944.89 767.453C944.947 764.288 946.56 761.015 948.917 758.931C951.41 756.725 954.854 755.538 958.176 755.897Q958.734 755.959 959.282 756.079Q959.831 756.198 960.364 756.375Q960.896 756.551 961.408 756.782Q961.919 757.013 962.404 757.297Q962.889 757.58 963.341 757.912Q963.793 758.244 964.209 758.622Q964.624 759 964.998 759.418Q965.371 759.837 965.699 760.293C969.929 766.162 967.018 770.491 966.051 776.534L965.929 777.347C963.237 778.113 961.359 778.343 959.856 780.968L960.125 781.702C961.662 782.259 964.01 782.541 965.087 783.768L965.164 785.251C961.037 783.971 955.325 785.825 952.65 784.03C949.756 783.686 946.937 782.543 944.187 781.622C945.766 780.639 947.177 779.762 948.462 778.407Z"/>
	<path fill="#F8D115" d="M952.472 388.026C954.94 387.905 957.034 388.067 959.316 389.114C962.538 390.593 964.87 393.33 966.013 396.666C967.313 400.456 967.153 404.831 965.301 408.416C963.161 412.56 960.049 414.308 955.715 415.568C952.662 415.71 950.212 415.618 947.458 414.166Q946.878 413.862 946.332 413.501Q945.786 413.14 945.28 412.726Q944.773 412.311 944.311 411.847Q943.849 411.383 943.437 410.875Q943.025 410.366 942.666 409.819Q942.308 409.271 942.007 408.69Q941.705 408.109 941.465 407.5Q941.224 406.891 941.047 406.261Q940.85 405.559 940.725 404.841Q940.599 404.123 940.546 403.397Q940.493 402.67 940.513 401.941Q940.532 401.213 940.625 400.49Q940.717 399.767 940.881 399.057Q941.045 398.347 941.279 397.657Q941.514 396.966 941.815 396.303Q942.117 395.64 942.484 395.01C944.84 390.971 948.107 389.233 952.472 388.026Z"/>
	<path fill="#F8D115" d="M979.126 202.128C982.061 202.336 984.531 202.703 987.107 204.209Q987.731 204.574 988.314 205.002Q988.897 205.43 989.432 205.916Q989.967 206.402 990.448 206.941Q990.93 207.48 991.353 208.066Q991.776 208.652 992.136 209.279Q992.496 209.906 992.789 210.567Q993.081 211.228 993.304 211.916Q993.526 212.604 993.676 213.311C994.503 217.047 993.87 221.033 991.705 224.217C988.946 228.274 985.182 229.573 980.615 230.493Q980.061 230.514 979.507 230.493Q978.952 230.472 978.401 230.408Q977.85 230.345 977.306 230.24Q976.761 230.135 976.226 229.988Q975.691 229.842 975.169 229.655Q974.647 229.468 974.14 229.242Q973.634 229.016 973.146 228.752Q972.658 228.488 972.192 228.188Q971.592 227.792 971.035 227.338Q970.479 226.883 969.971 226.375Q969.462 225.867 969.008 225.31Q968.554 224.753 968.158 224.154Q967.762 223.554 967.429 222.917Q967.096 222.28 966.828 221.613Q966.561 220.946 966.362 220.256Q966.163 219.565 966.035 218.858C965.316 215.047 966.06 211.068 968.343 207.9C971.061 204.13 974.684 202.801 979.126 202.128Z"/>
	<path fill="#F8D115" d="M833.727 700.092C837.228 699.815 840.096 699.907 843.347 701.367C847.664 703.306 850.866 707.089 852.369 711.547Q852.659 712.42 852.862 713.318Q853.064 714.216 853.177 715.129Q853.289 716.043 853.31 716.963Q853.331 717.883 853.261 718.8Q853.191 719.718 853.03 720.624Q852.869 721.53 852.62 722.416Q852.37 723.302 852.033 724.158Q851.697 725.015 851.277 725.834C848.538 731.298 844.131 734.462 838.466 736.4C835.01 737.085 831.744 736.795 828.48 735.413C824.544 733.747 821.693 730.498 820.174 726.543C818.285 721.625 818.533 715.844 820.706 711.06C823.35 705.24 827.933 702.187 833.727 700.092Z"/>
	<path fill="#F8D115" d="M956.23 568.628C960.945 568.304 965.318 568.217 969.713 570.294C974.985 572.785 978.727 577.612 980.486 583.105Q980.678 583.71 980.84 584.324Q981.001 584.938 981.132 585.559Q981.263 586.181 981.362 586.808Q981.462 587.435 981.53 588.066Q981.597 588.697 981.634 589.331Q981.67 589.965 981.674 590.6Q981.679 591.234 981.651 591.869Q981.624 592.503 981.565 593.135Q981.505 593.767 981.415 594.396Q981.324 595.024 981.202 595.647Q981.08 596.27 980.927 596.886Q980.774 597.502 980.59 598.11Q980.406 598.718 980.192 599.315Q979.978 599.913 979.734 600.499Q979.491 601.086 979.218 601.659Q978.945 602.232 978.644 602.791C975.172 609.202 969.919 612.492 963.093 614.384C958.813 614.751 954.551 614.113 950.676 612.206Q950.177 611.962 949.691 611.693Q949.204 611.424 948.732 611.131Q948.26 610.838 947.803 610.521Q947.346 610.205 946.905 609.867Q946.465 609.528 946.041 609.168Q945.618 608.808 945.213 608.427Q944.809 608.046 944.423 607.646Q944.038 607.245 943.673 606.826Q943.309 606.406 942.965 605.969Q942.622 605.532 942.301 605.079Q941.98 604.625 941.682 604.156Q941.384 603.687 941.109 603.204Q940.835 602.72 940.585 602.224Q940.336 601.728 940.111 601.219Q939.886 600.711 939.687 600.192Q939.488 599.673 939.315 599.145Q939.124 598.573 938.962 597.992Q938.799 597.412 938.666 596.824Q938.532 596.235 938.428 595.642Q938.324 595.048 938.249 594.449Q938.174 593.851 938.13 593.25Q938.085 592.648 938.069 592.046Q938.054 591.443 938.069 590.84Q938.084 590.237 938.128 589.636Q938.173 589.034 938.247 588.436Q938.321 587.838 938.425 587.244Q938.529 586.65 938.662 586.061Q938.795 585.473 938.957 584.892Q939.119 584.312 939.31 583.74Q939.5 583.167 939.719 582.605Q939.937 582.043 940.184 581.493Q940.43 580.943 940.703 580.405C944.039 573.904 949.483 570.675 956.23 568.628Z"/>
	<path fill="#FCE867" d="M0 356.7C29.0766 345.573 59.3705 337.101 90.4125 333.841C93.7037 333.495 99.2226 332.26 102.381 333.213C102.607 333.282 102.81 333.414 103.027 333.507C103.819 333.845 104.195 333.815 105.036 333.836C106.387 333.871 107.428 333.984 108.423 335.022C109.059 335.686 109.483 336.322 109.68 337.219C109.54 337.44 109.395 337.658 109.26 337.882C108.854 338.555 108.664 338.977 108.491 339.721L109.83 340.846C109.523 342.485 101.401 348.445 99.6134 349.674C94.8602 352.942 90.9548 351.212 88.2246 352.466C86.3631 353.322 84.6741 355.818 82.6234 356.325C78.2125 357.417 77.1691 354.777 75.2641 360.673C77.9335 361.034 80.4058 360.097 82.9756 360.918L83.369 359.765C84.8666 359.083 85.371 360.256 86.511 359.446C88.3922 358.109 89.5881 357.904 91.7941 358.089C93.8184 358.258 95.1969 357.334 96.9518 356.451C97.4651 356.193 97.9883 355.952 98.504 355.698C99.7566 356.585 101.146 357.399 102.078 358.638L103.886 359.251C102.95 360.328 101.047 360.116 100.793 361.217C100.584 362.123 100.68 361.788 100.184 362.711C99.1589 362.66 98.6473 362.442 97.7616 361.931L96.188 362.126C96.3263 363.213 96.498 364.192 96.3759 365.288L96.7235 365.455L97.9783 364.258L98.5523 364.32C98.4662 364.582 98.3528 364.836 98.294 365.105C98.233 365.384 98.2277 365.673 98.1946 365.957L99.2693 366.842C100.099 366.079 99.9502 365.54 100.137 364.46C102.106 365.79 100.861 366.945 103.978 367.298L105.095 368.436L105.001 368.927C104.092 368.685 103.571 368.41 102.771 367.942C101.524 368.279 101.464 368.41 100.623 369.409C102.155 369.997 103.443 370.565 104.796 371.499L104.601 371.725L103.234 371.514L103.12 372.32C104.104 373.101 105.063 372.896 106.293 372.714C107.754 372.497 109.038 372.101 110.147 371.098L110.271 370.147C109.043 369.521 107.936 369.31 106.599 369.078C108.369 368.332 111.252 367.033 113.211 367.53C114.171 367.773 115.234 368.682 116.027 369.266C117.175 369.362 117.42 369.644 118.371 368.916C118.127 368.032 117.1 365.756 117.198 364.958C117.966 364.355 118.277 364.38 119.237 364.547C120.357 364.741 121.344 365.615 122.23 366.288L122.179 366.912L119.56 367.357L120.239 367.251C120.422 367.52 120.558 367.83 120.789 368.059C121.681 368.939 122.416 368.912 123.538 368.844C123.749 368.635 123.958 368.423 124.171 368.216C125.084 367.334 124.697 367.66 125.748 366.957L127.409 368.496L127.934 368.326L127.586 366.406L129.598 366.959C131.128 365.943 130.265 364.919 132.185 364.568L133.269 365.056C134.47 368.419 134.347 372.519 134.641 376.082C134.415 376.089 134.19 376.1 133.964 376.104C131.103 376.151 129.381 374.782 126.846 374.584C124.091 374.37 120.791 375.95 117.954 376.219L117.378 377.015C116.86 377.718 116.462 378.133 115.681 378.554L114.549 377.708C112.008 378.279 109.211 378.643 106.951 379.977L106.514 380.788L106.881 381.534C108.945 381.918 115.177 379.256 116.148 379.813Q115.906 381.513 115.622 383.207C116.671 383.69 117.057 383.939 118.222 383.398C119.411 382.844 120.612 381.448 121.809 380.722C121.933 380.842 122.052 380.968 122.181 381.082C123.633 382.356 124.774 382.513 126.625 382.34C129.362 382.084 132.221 380.554 134.736 379.484L134.872 380.114C136.775 389.312 137.128 398.945 138.379 408.258Q142.077 435.249 147.064 462.032C171.006 585.499 211.763 694.487 289.294 795.149L309.868 819.684C313.059 823.443 316.642 827.057 319.591 830.999Q306.025 833.852 292.576 837.215C285.007 839.158 230.215 854.27 225.944 857.798L225.577 858.96L225.976 859.321C227.526 860.703 230.049 861.752 231.189 863.361C230.863 864.255 230.755 865.466 229.744 865.762C229.553 865.818 228.781 865.794 228.561 865.791L229.33 866.673L228.851 867.305L227.962 867.176L227.435 866.093L226.734 866.274L226.211 867.722C223.889 867.685 221.784 866.544 220.15 864.932C218.737 863.538 218.034 861.946 217.332 860.122L216.659 859.961L216.334 860.641C216.019 861.291 215.69 861.913 215.333 862.54L214.708 862.369C214.666 861.559 214.642 860.766 214.669 859.955C213.47 859.515 214.066 859.532 212.884 859.858C212.466 860.837 212.421 860.424 212.81 861.331C213.422 862.757 214.653 863.971 215.655 865.137L215.327 865.55L213.425 865.457C212.622 866.526 212.921 867.322 212.96 868.618C212.752 868.55 212.548 868.463 212.335 868.414C211.071 868.124 209.886 868.388 208.63 868.587L207.487 867.254L207.156 867.425C207.734 869.445 208.744 871.771 208.003 873.78C206.711 874.055 206.725 874.087 205.588 873.368C205.219 873.134 204.864 872.88 204.505 872.63C203.727 873.236 202.984 873.866 202.243 874.517C201.375 874.341 200.59 874.12 199.758 873.815C197.669 875.159 199.725 877.632 196.197 877.708L195.498 876.971C194.948 876.396 194.459 875.941 193.768 875.533L193.37 876.814C191.99 876.135 191.37 874.548 189.913 874.551C189.156 874.553 188.531 874.612 187.916 874.121C186.262 872.8 185.577 870.493 183.48 869.675C181.22 869.792 177.746 869.623 176.064 871.197C176.058 872.378 176.233 872.911 177.131 873.744C179.669 876.096 183.942 877.217 187.162 878.404C178.222 880.251 169.167 881.798 160.329 884.081C142.261 888.748 124.603 895.461 107.47 902.812C115.2 901.425 132.44 897.14 139.36 901.152C144.584 904.182 151.084 899.979 154.344 910.709L153.64 910.858L152.526 910.071L151.799 910.49C152.008 910.75 152.223 911.005 152.426 911.269C152.657 911.569 152.868 911.883 153.085 912.192L152.563 913.325C152.35 913.401 152.136 913.474 151.924 913.553C150.954 913.913 151.323 913.758 150.346 914.313L150.571 916.046C149.474 916.702 150.123 916.524 148.874 916.448C144.859 916.201 142.142 920.929 140.084 920.811L138.942 917.773C138.93 918.028 138.923 918.283 138.905 918.537C138.847 919.324 138.746 919.796 138.461 920.511C136.224 922.232 133.253 920.697 131.297 921.936C131.823 923.055 132.414 923.411 133.358 924.15C132.543 925.522 131.649 925.585 130.196 926.174C129.4 925.058 129.28 924.666 128.008 924.076L127.683 924.198C127.806 924.352 127.936 924.5 128.052 924.659C128.554 925.343 128.783 925.969 129.063 926.757L128.691 927.358C128.457 927.264 128.224 927.166 127.989 927.076C127.294 926.81 126.733 926.657 126.009 926.542L124.781 927.98L124.843 927.739L124.4 929.068C125.791 930.97 128.134 930.587 129.46 932.502C129.143 934.199 127.947 935.361 126.935 936.7C121.178 937.401 115.262 936.382 109.486 936.633C105.276 936.816 100.653 938.219 96.59 939.341C94.8879 939.81 91.9953 940.318 90.8348 941.652C90.9658 943.84 92.3212 944.993 93.9194 946.37C96.179 948.316 98.7578 948.868 100.952 950.482L100.945 950.822C97.54 952.455 90.2902 950.42 88.0937 952.691L89.08 954.056L88.793 954.868C86.4263 955.588 84.2434 956.254 81.7493 956.382C81.6274 957.52 81.8528 957.569 82.3917 958.525C81.5732 959.098 80.9295 959.397 80.016 959.771L81.316 960.338L81.3714 961.024C78.8155 961.519 76.2975 959.311 74.0273 960.772C73.966 962.217 74.8462 963.632 75.4315 964.922C79.5926 967.703 87.9591 964.723 92.6491 968.143L92.5523 968.89L90.0465 970.54C90.0451 971.439 89.8594 971.354 90.4328 971.938C91.1549 972.674 91.6682 972.83 92.5776 973.218C94.1644 973.896 95.0149 974.697 96.1268 975.984C65.2435 992.547 33.8624 1007.04 0 1016.56L0 356.7Z"/>
	<path fill="#E2C409" d="M246.266 844.448C242.184 846.132 240.061 847.288 235.528 847.627C237.051 847.007 238.151 846.483 239.029 845.044C239.815 843.755 240.719 842.669 241.699 841.525L241.349 842.78C242.193 843.246 242.518 843.301 243.438 843.463C244.523 843.654 245.298 843.892 246.266 844.448Z"/>
	<path d="M74.0042 936.927C77.1633 936.858 79.1748 937.902 81.8623 939.424C81.0934 940.444 81.17 940.621 81.1398 941.918C78.5653 941.279 75.7633 941.676 73.7113 939.686C73.2772 938.218 73.3149 938.304 74.0042 936.927Z"/>
	<path d="M39.7179 967.876C41.5319 968.269 43.2214 968.349 45.074 968.388C45.8768 969.107 45.7207 968.807 46.1049 969.638C46.6227 970.759 46.965 971.756 47.8347 972.67C48.0316 972.877 48.2373 973.076 48.4386 973.279L47.774 974.1C45.7054 973.331 44.1218 971.762 41.992 971.13L40.705 972.341L39.7671 971.956C39.0657 970.343 39.4258 969.582 39.7179 967.876Z"/>
	<path d="M51.8399 967.783C53.0165 968.285 54.0499 968.756 55.0511 969.567C55.7834 970.16 56.4256 970.549 57.2972 970.935C58.533 970.437 59.7203 970.172 61.0186 969.913C61.8077 970.667 61.5926 970.378 62.0719 971.057C63.0058 972.381 63.978 973.439 65.464 974.167C66.7003 974.772 67.3641 974.838 68.6599 974.464C69.1175 972.898 68.5366 971.621 67.9616 970.133L67.624 969.271L69.6617 970.407L70.556 971.429C69.9976 972.691 70.1857 974.036 70.1926 975.4Q63.0256 975.65 55.9415 974.535C53.6291 972.846 52.7676 970.401 51.8399 967.783Z"/>
	<path d="M76.6321 368.524L78.3018 369.218C79.5061 368.831 80.2165 368.466 81.4639 368.898C81.6821 372.745 79.3967 378.365 78.275 382.056C77.2896 382.439 76.3274 382.763 75.3074 383.04C74.6746 382.666 74.2043 382.568 73.901 381.849C72.5386 378.618 75.265 371.555 76.6321 368.524Z"/>
	<path fill="#F8D115" d="M75.9046 550.377C76.4739 550.368 77.0443 550.36 77.6129 550.4C79.2273 550.511 80.7425 551.285 81.7127 552.597C82.6724 553.895 82.9424 555.472 82.6442 557.042C82.1581 559.599 80.7832 560.946 78.697 562.349C76.9983 562.433 74.9785 561.991 73.7892 560.66C72.8401 559.598 72.4249 558.404 72.4257 556.991C72.4272 554.002 73.8111 552.328 75.9046 550.377Z"/>
	<path fill="#F8D115" d="M23.4019 396.447C24.3487 396.415 25.3647 396.356 26.2895 396.592C27.6174 396.932 28.8297 397.846 29.5299 399.024C30.3914 400.473 30.4158 402.059 29.9243 403.635C29.2028 405.948 27.8148 406.802 25.7764 407.937C25.5185 407.906 25.26 407.879 25.0026 407.844C22.9337 407.562 21.1411 406.739 19.9582 404.945C19.0985 403.641 18.873 402.09 19.3488 400.587C20.0249 398.451 21.6078 397.547 23.4019 396.447Z"/>
	<path fill="#F8D115" d="M8.50307 949.922C9.42427 950.067 10.3173 950.236 11.209 950.515C12.8807 951.039 14.1464 952.222 14.875 953.813C15.5995 955.396 15.5552 957.173 14.9094 958.774C13.9534 961.144 12.3276 962.176 10.0897 963.202C9.6992 963.164 9.30803 963.133 8.91836 963.087C6.93854 962.856 5.25718 962.094 4.07219 960.427C3.09378 959.051 2.91471 957.362 3.31363 955.748C4.02602 952.866 6.05139 951.331 8.50307 949.922Z"/>
	<path fill="#F8D115" d="M75.9781 891.876C78.482 892.044 80.8057 892.802 82.4773 894.763C83.648 896.137 84.2579 897.884 83.9707 899.696C83.5539 902.325 81.7493 903.689 79.6809 905.099L78.7183 905.101C76.4851 905.089 74.5656 904.668 73.021 902.931C71.8907 901.659 71.5049 900.013 71.7107 898.347C72.0722 895.419 73.7695 893.638 75.9781 891.876Z"/>
	<path fill="#F8D115" d="M171.095 637.943C173.431 638.261 175.354 638.763 176.789 640.763C177.885 642.292 178.174 644.148 177.751 645.966C177.077 648.859 175.375 650.113 172.946 651.591C172.195 651.556 171.47 651.512 170.745 651.292C168.892 650.729 167.283 649.443 166.432 647.687C165.609 645.989 165.602 644.004 166.274 642.255C167.178 639.904 168.901 638.928 171.095 637.943Z"/>
	<path fill="#F8D115" d="M84.6869 741.937C85.5599 742.087 86.3742 742.279 87.184 742.642C88.9456 743.433 90.1392 744.906 90.7038 746.745C91.251 748.526 90.862 750.506 89.9765 752.111C88.7707 754.296 87.258 754.929 84.958 755.663C84.2466 755.458 83.5325 755.248 82.8427 754.977C81.1889 754.328 79.6203 752.915 79.006 751.21C78.4281 749.606 78.4848 748.014 79.1857 746.465C80.3447 743.905 82.1932 742.966 84.6869 741.937Z"/>
	<path fill="#F8D115" d="M42.0617 774.923C42.719 774.919 43.377 774.918 44.0333 774.959Q44.3826 774.981 44.7275 775.041Q45.0724 775.1 45.409 775.196Q45.7456 775.292 46.07 775.423Q46.3945 775.555 46.7031 775.72Q47.0117 775.885 47.301 776.082Q47.5902 776.279 47.8569 776.505Q48.1235 776.732 48.3644 776.986Q48.6054 777.24 48.8179 777.518C50.1882 779.291 50.4585 781.324 50.0354 783.49C49.4525 786.473 47.8065 787.876 45.4014 789.534C44.6544 789.531 44.5661 789.55 43.7478 789.45C41.8488 789.219 39.8786 788.061 38.7351 786.539C37.5182 784.92 37.2137 782.986 37.5321 781.013C38.009 778.057 39.6907 776.536 42.0617 774.923Z"/>
	<path fill="#F8D115" d="M37.9746 721.493C38.6544 721.526 39.3282 721.551 40.0002 721.668C42.2284 722.054 44.1849 723.21 45.3724 725.167Q45.5651 725.48 45.7224 725.811Q45.8796 726.143 45.9995 726.49Q46.1193 726.837 46.2004 727.195Q46.2814 727.553 46.3227 727.918Q46.3639 728.283 46.3649 728.65Q46.3658 729.017 46.3265 729.382Q46.2871 729.747 46.2079 730.106Q46.1287 730.464 46.0106 730.812C45.1577 733.386 43.5215 734.543 41.2111 735.759C40.2919 735.765 39.3518 735.801 38.4472 735.601C36.5554 735.185 34.948 733.895 33.9599 732.25C32.9092 730.501 32.7244 728.374 33.2973 726.429C34.0588 723.842 35.7139 722.736 37.9746 721.493Z"/>
	<path fill="#F8D115" d="M54.604 382.991C55.2477 382.977 55.8921 382.966 56.5356 383.001C58.5297 383.11 60.3692 384.196 61.6142 385.744C63.0497 387.529 63.4894 389.757 63.0685 391.987C62.546 394.757 60.8498 396.137 58.6273 397.646C57.9151 397.64 57.2 397.647 56.4925 397.548C54.3312 397.245 52.2501 395.967 51.0376 394.15C49.9532 392.525 49.6793 390.555 50.1045 388.667C50.7356 385.864 52.3118 384.545 54.604 382.991Z"/>
	<path d="M98.0905 919.186C98.7928 919.1 99.3704 919.139 100.072 919.192C99.9583 920.073 99.9442 920.697 100.129 921.567C100.899 921.176 101.677 920.758 102.478 920.436C103.726 919.934 104.22 919.782 105.469 920.29C106.087 921.306 106.503 921.96 106.593 923.16L106.005 923.311L104.911 922.076C103.71 923.002 102.543 922.764 101.478 923.755L102.293 925.342C101.267 926.207 101.102 926.015 99.8496 926.192C98.3614 926.402 97.7025 926.538 96.7785 927.76C97.7229 927.931 98.2682 928.01 99.1052 928.508C98.0444 929.444 95.9987 929.3 94.5665 929.429L93.4015 928.442L93.5062 927.719C93.3924 927.751 93.2657 927.752 93.1649 927.814C92.9733 927.93 92.834 928.119 92.6466 928.242C90.882 929.4 87.8172 929.59 85.7565 929.366L85.3027 928.778L86.5448 927.446L86.3187 927.069C84.9316 927.12 83.2877 927.298 81.9208 927.039C80.865 926.839 80.7885 926.67 80.2315 925.832C81.0022 924.812 83.0714 924.981 84.3522 924.752C84.3472 923.628 84.3047 923.365 84.864 922.41C87.8183 921.462 91.1345 920.194 94.2255 919.933C95.4199 919.831 96.4624 919.625 97.6221 919.314L98.0905 919.186Z"/>
	<path fill="#F8D115" d="M13.1184 670.444C13.9418 670.535 14.7479 670.678 15.5489 670.895C17.5228 671.43 19.2242 672.86 20.2106 674.644C21.3433 676.692 21.4276 679.11 20.6644 681.301C19.634 684.259 17.6053 685.33 14.8841 686.547C13.9712 686.456 13.0859 686.329 12.1971 686.092Q11.8263 685.989 11.4682 685.849Q11.11 685.708 10.7683 685.531Q10.4266 685.354 10.1049 685.143Q9.78331 684.932 9.48521 684.689Q9.18711 684.445 8.91574 684.173Q8.64436 683.9 8.4026 683.6Q8.16084 683.301 7.95129 682.978Q7.74174 682.656 7.56664 682.313C6.51978 680.278 6.5995 677.846 7.41709 675.749C8.48929 673 10.5363 671.629 13.1184 670.444Z"/>
	<path fill="#F8D115" d="M52.0519 593.038C54.0193 592.976 56.0116 592.873 57.8846 593.582C60.4086 594.537 62.572 596.41 63.6839 598.889Q63.8819 599.332 64.0352 599.792Q64.1885 600.252 64.2955 600.725Q64.4025 601.198 64.4621 601.68Q64.5218 602.161 64.5336 602.646Q64.5454 603.131 64.5091 603.615Q64.4729 604.098 64.389 604.576Q64.305 605.054 64.1743 605.521Q64.0435 605.988 63.8672 606.44C62.547 609.923 60.2576 611.216 57.0216 612.723C55.7045 612.876 54.3206 613.071 52.9994 612.887C50.4451 612.53 47.929 611.202 46.4964 609.021C44.0833 605.348 44.5929 601.875 45.5438 597.88C47.4947 595.421 49.1449 594.275 52.0519 593.038Z"/>
	<path fill="#F8D115" d="M45.4935 411.033C47.3515 410.908 49.3606 410.786 51.1626 411.348C53.9671 412.222 56.413 414.485 57.6035 417.157Q57.8276 417.654 57.9988 418.171Q58.1699 418.688 58.2862 419.22Q58.4025 419.752 58.4626 420.293Q58.5228 420.834 58.5261 421.379Q58.5295 421.924 58.4761 422.466Q58.4226 423.008 58.3129 423.541Q58.2032 424.075 58.0384 424.594Q57.8737 425.113 57.6557 425.612C56.26 428.741 53.9944 430.213 50.9328 431.488C48.9391 431.634 46.8656 431.694 44.9651 430.98Q44.4578 430.788 43.9719 430.547Q43.486 430.306 43.0262 430.018Q42.5664 429.73 42.1371 429.398Q41.7079 429.067 41.3134 428.694Q40.9189 428.322 40.5629 427.913Q40.207 427.503 39.8931 427.061Q39.5791 426.619 39.3103 426.147Q39.0415 425.676 38.8203 425.181Q38.6099 424.708 38.4485 424.216Q38.287 423.724 38.1761 423.219Q38.0652 422.713 38.006 422.199Q37.9468 421.684 37.9398 421.167Q37.9329 420.649 37.9783 420.133Q38.0237 419.617 38.1211 419.109Q38.2184 418.601 38.3666 418.104Q38.5148 417.608 38.7124 417.13C40.0653 413.884 42.4001 412.412 45.4935 411.033Z"/>
	<path fill="#F8D115" d="M160.312 796.091C162.498 796.244 164.529 796.546 166.445 797.688Q166.873 797.942 167.274 798.238Q167.674 798.535 168.043 798.87Q168.411 799.204 168.744 799.575Q169.077 799.945 169.371 800.347Q169.665 800.749 169.917 801.179Q170.169 801.608 170.376 802.061Q170.583 802.514 170.744 802.985Q170.905 803.457 171.017 803.942Q171.144 804.496 171.213 805.061Q171.283 805.625 171.295 806.194Q171.307 806.763 171.262 807.329Q171.216 807.896 171.114 808.456Q171.011 809.015 170.852 809.561Q170.693 810.107 170.479 810.634Q170.265 811.161 169.999 811.664Q169.734 812.167 169.418 812.64C167.484 815.552 164.93 816.733 161.622 817.49C159.712 817.424 157.68 816.956 156.017 815.983Q155.579 815.728 155.169 815.429Q154.759 815.13 154.381 814.791Q154.004 814.452 153.663 814.077Q153.322 813.701 153.021 813.293Q152.72 812.885 152.463 812.448Q152.205 812.011 151.993 811.55Q151.781 811.089 151.617 810.609Q151.453 810.129 151.339 809.635Q151.208 809.078 151.133 808.511Q151.059 807.944 151.042 807.372Q151.026 806.801 151.067 806.23Q151.108 805.66 151.206 805.096Q151.304 804.533 151.459 803.982Q151.614 803.432 151.823 802.899Q152.033 802.367 152.295 801.859Q152.557 801.35 152.869 800.871C154.74 798.007 157.075 796.851 160.312 796.091Z"/>
	<path fill="#F8D115" d="M62.61 696.064C65.0723 696.012 67.2165 696.073 69.4819 697.142C72.2476 698.447 74.4918 700.812 75.4303 703.749Q75.5823 704.227 75.6861 704.718Q75.7899 705.209 75.8445 705.708Q75.899 706.207 75.9039 706.708Q75.9087 707.21 75.8637 707.71Q75.8187 708.21 75.7244 708.703Q75.6301 709.196 75.4873 709.677Q75.3445 710.158 75.1547 710.622Q74.9649 711.087 74.73 711.53C72.9834 714.835 70.1572 716.409 66.716 717.499C64.8245 717.591 63.0668 717.559 61.2506 716.95C58.3936 715.993 55.9212 713.877 54.6718 711.121Q54.4478 710.624 54.2777 710.107Q54.1076 709.589 53.9934 709.057Q53.8791 708.524 53.822 707.982Q53.7649 707.44 53.7655 706.895Q53.7662 706.351 53.8246 705.809Q53.883 705.267 53.9985 704.735Q54.114 704.202 54.2853 703.685Q54.4566 703.168 54.6818 702.672C56.3198 699.008 59.0386 697.489 62.61 696.064Z"/>
	<path fill="#F8D115" d="M150.772 554.537C153.077 554.422 155.223 554.44 157.331 555.514C160.116 556.932 162.132 559.492 163.041 562.461C164.046 565.743 163.794 569.427 162.141 572.455C160.249 575.92 157.566 577.265 153.896 578.302C151.946 578.374 149.804 578.143 147.996 577.371Q147.49 577.153 147.008 576.885Q146.525 576.617 146.072 576.303Q145.619 575.988 145.2 575.63Q144.781 575.272 144.399 574.874Q144.017 574.476 143.677 574.042Q143.337 573.608 143.042 573.143Q142.747 572.677 142.499 572.184Q142.252 571.691 142.055 571.176Q141.83 570.588 141.665 569.98Q141.499 569.373 141.395 568.752Q141.291 568.131 141.249 567.503Q141.207 566.874 141.227 566.245Q141.247 565.616 141.33 564.992Q141.413 564.367 141.557 563.755Q141.701 563.142 141.905 562.546Q142.11 561.95 142.372 561.378C144.126 557.612 146.969 555.842 150.772 554.537Z"/>
	<path fill="#F8D115" d="M136.581 693.119C139.019 692.816 141.343 692.591 143.747 693.255C147.03 694.162 149.898 696.373 151.461 699.419Q151.759 700.01 151.997 700.629Q152.234 701.247 152.409 701.886Q152.584 702.525 152.694 703.178Q152.803 703.831 152.847 704.492Q152.891 705.153 152.869 705.815Q152.847 706.477 152.759 707.133Q152.67 707.79 152.517 708.434Q152.363 709.078 152.146 709.704C150.715 713.792 148 715.894 144.244 717.733C141.913 718.186 139.626 718.366 137.294 717.811C134.011 717.028 131.268 715.016 129.621 712.061Q129.288 711.452 129.02 710.811Q128.752 710.17 128.552 709.505Q128.352 708.84 128.222 708.158Q128.093 707.475 128.035 706.783Q127.977 706.091 127.992 705.396Q128.007 704.702 128.093 704.013Q128.18 703.324 128.338 702.648Q128.496 701.971 128.724 701.315C130.148 697.134 132.745 695.019 136.581 693.119Z"/>
	<path fill="#F8D115" d="M102.166 654.611C104.963 654.446 107.563 654.705 110.202 655.71C114.157 657.217 117.382 660.171 118.988 664.117Q119.29 664.871 119.515 665.652Q119.739 666.433 119.883 667.232Q120.027 668.032 120.089 668.842Q120.151 669.652 120.131 670.464Q120.111 671.276 120.008 672.082Q119.906 672.888 119.722 673.679Q119.538 674.471 119.275 675.239Q119.013 676.008 118.673 676.746C116.342 681.742 112.446 683.9 107.524 685.69C104.437 686.058 101.923 685.982 98.9987 684.825C95.09 683.279 92.1689 680.141 90.652 676.247Q90.3507 675.483 90.1282 674.692Q89.9058 673.901 89.7645 673.092Q89.6232 672.283 89.5645 671.464Q89.5058 670.644 89.5303 669.823Q89.5548 669.002 89.6622 668.188Q89.7697 667.374 89.959 666.574Q90.1483 665.775 90.4174 664.999Q90.6866 664.223 91.033 663.478C93.3708 658.54 97.2649 656.357 102.166 654.611Z"/>
	<path fill="#F8D115" d="M93.4077 483.625C96.9263 483.919 100.234 484.603 103.267 486.504Q103.643 486.738 104.008 486.991Q104.372 487.244 104.722 487.515Q105.073 487.786 105.41 488.075Q105.746 488.364 106.068 488.669Q106.389 488.974 106.694 489.296Q107 489.617 107.289 489.954Q107.577 490.29 107.849 490.641Q108.12 490.992 108.373 491.356Q108.626 491.72 108.86 492.096Q109.094 492.472 109.309 492.86Q109.524 493.248 109.719 493.647Q109.913 494.045 110.088 494.452Q110.262 494.86 110.415 495.276Q110.568 495.692 110.7 496.115Q110.832 496.539 110.942 496.968Q111.053 497.398 111.141 497.832Q111.316 498.713 111.404 499.606Q111.491 500.5 111.491 501.398Q111.491 502.296 111.403 503.189Q111.315 504.083 111.14 504.963Q110.964 505.844 110.704 506.703Q110.443 507.562 110.1 508.392Q109.756 509.222 109.333 510.013Q108.91 510.805 108.411 511.552C105.207 516.38 100.719 518.395 95.2413 519.488C91.3617 519.272 87.7307 518.455 84.4654 516.233C80.4881 513.527 77.9194 509.201 77.1754 504.472Q77.0344 503.6 76.9803 502.718Q76.9262 501.836 76.9595 500.954Q76.9927 500.071 77.1131 499.196Q77.2335 498.321 77.4397 497.462Q77.646 496.603 77.9361 495.768Q78.2262 494.934 78.5974 494.133Q78.9685 493.331 79.4171 492.57Q79.8656 491.809 80.3872 491.096C83.6401 486.631 88.0726 484.502 93.4077 483.625Z"/>
	<path fill="#F8D115" d="M54.9795 820.584C59.8353 820.297 64.2664 820.34 68.6754 822.74C73.7916 825.524 77.4539 830.536 79.0596 836.088C80.8981 842.445 80.0831 849.614 76.6985 855.321C73.3434 860.978 68.2832 863.862 62.0784 865.413C57.2151 865.878 52.569 865.49 48.1859 863.138C42.9481 860.327 39.4927 855.417 37.8541 849.775C36.0623 843.605 36.662 836.807 39.9091 831.22C43.3814 825.246 48.5019 822.295 54.9795 820.584Z"/>
	<path fill="#E5B80C" d="M289.294 795.149L309.868 819.684C313.059 823.443 316.642 827.057 319.591 830.999Q306.025 833.852 292.576 837.215C285.007 839.158 230.215 854.27 225.944 857.798L225.577 858.96C225.297 857.639 225.192 856.872 224.208 855.893C223.976 855.663 223.735 855.442 223.499 855.216L223.75 854.497C226.325 853.995 225.843 853.093 227.734 852.382C227.467 853.598 227.119 853.901 227.728 855.038L228.748 854.995L230.006 853.397L230.985 854.001L232.057 853.464L231.795 854.226L232.677 853.02C232.071 851.8 231.211 852.581 230.166 851.564C230.715 850.552 231.132 850.48 232.093 849.899C233.545 849.898 233.563 849.868 234.644 850.867C234.823 851.032 234.993 851.206 235.167 851.376C237.271 850.292 239.024 848.688 241.133 847.686C244.203 846.228 247.715 845.444 250.63 843.725C249.082 843.774 247.762 844.056 246.266 844.448C245.298 843.892 244.523 843.654 243.438 843.463C242.518 843.301 242.193 843.246 241.349 842.78L241.699 841.525C243.271 841.419 244.772 841.086 246.309 840.764C245.593 840.45 244.907 840.111 244.211 839.758C244.83 837.558 251.885 835.003 253.933 832.429C255.208 830.827 257.132 830.29 258.273 828.541L257.958 827.968C256.078 827.619 253.126 826.522 251.32 826.907L250.931 828.375C249.523 827.947 249.125 826.905 248.27 825.751L248.551 826.605L248.219 826.624C248.246 827.47 248.116 828.244 248 829.08C245.187 830.858 240.836 831.409 237.608 832.576C230.941 834.985 224.392 837.908 217.674 840.131Q215.202 840.965 212.603 841.181C207.077 841.673 200.701 840.37 195.11 839.91C210.515 829.513 228.394 822.953 245.208 815.3C259.974 808.58 274.229 801.268 289.294 795.149Z"/>
	<path fill="#FEFCCA" d="M513.013 59.8892C517.153 62.7959 523.647 71.2521 527.579 75.4121C534.083 82.2923 540.92 88.9024 547.719 95.4895Q553.094 100.706 558.635 105.746Q564.176 110.786 569.877 115.644Q575.578 120.501 581.434 125.172Q587.289 129.843 593.293 134.321Q599.297 138.8 605.442 143.082Q611.588 147.363 617.869 151.444Q624.15 155.525 630.56 159.4Q636.97 163.275 643.502 166.94C698.951 198.246 764.388 216.698 828.094 205.487C840.531 203.299 851.902 198.888 863.978 195.522C865.658 203.47 865.656 211.995 866.018 220.104Q867.337 249.127 866.597 278.171Q866.287 298.048 865.166 317.896Q864.045 337.744 862.115 357.53Q860.185 377.315 857.448 397.005Q854.712 416.696 851.174 436.258C834.583 532.595 805.495 626.834 755.582 711.395Q750.698 719.612 745.596 727.694Q740.493 735.777 735.176 743.721Q729.859 751.664 724.33 759.462Q718.802 767.259 713.067 774.906Q707.332 782.553 701.394 790.044Q695.456 797.534 689.319 804.863Q683.182 812.191 676.852 819.353Q670.521 826.514 664 833.504Q657.48 840.493 650.774 847.305Q644.069 854.117 637.183 860.747Q630.297 867.377 623.236 873.82Q616.176 880.263 608.945 886.514Q601.714 892.765 594.318 898.821Q586.922 904.876 579.366 910.731Q571.811 916.586 564.101 922.237Q556.391 927.887 548.533 933.329C541.559 938.131 517.378 955.174 511.898 956.584C506.526 952.829 500.395 949.779 494.735 946.433Q481.586 938.743 469.17 929.917Q458.817 922.572 448.729 914.867Q438.64 907.163 428.83 899.108Q419.019 891.053 409.497 882.657Q399.976 874.262 390.756 865.537Q381.536 856.812 372.629 847.767Q363.722 838.723 355.139 829.371Q346.556 820.019 338.307 810.37Q330.058 800.722 322.154 790.789Q316.75 783.97 311.516 777.019Q306.282 770.068 301.221 762.99Q296.161 755.912 291.277 748.711Q286.393 741.51 281.688 734.19Q276.984 726.87 272.462 719.437Q267.94 712.003 263.603 704.46Q259.266 696.917 255.116 689.269Q250.967 681.62 247.008 673.872Q243.05 666.124 239.284 658.28Q235.517 650.436 231.946 642.502Q228.375 634.567 225.002 626.547Q221.628 618.527 218.453 610.425Q215.279 602.324 212.306 594.147Q209.332 585.969 206.562 577.721Q203.792 569.473 201.227 561.158Q198.661 552.844 196.302 544.469Q186.051 507.471 178.549 469.819Q174.329 448.753 170.971 427.533Q167.612 406.313 165.121 384.974Q162.63 363.634 161.01 342.211Q159.39 320.788 158.644 299.317Q157.295 262.147 158.291 224.967C158.616 214.812 158.831 204.473 159.962 194.379C184.927 202.915 209.801 208.887 236.304 209.11C318.055 209.799 399.734 164.055 459.932 111.829C470.899 102.315 481.76 92.4152 491.919 82.0469C499.057 74.7627 505.735 67.0368 513.013 59.8892Z"/>
	<path d="M190.467 219.16C192.119 219.366 193.786 219.547 195.322 220.228Q195.898 220.483 196.443 220.796Q196.989 221.11 197.498 221.479Q198.008 221.848 198.476 222.269Q198.944 222.69 199.365 223.157Q199.786 223.625 200.155 224.134Q200.525 224.644 200.839 225.189Q201.153 225.734 201.408 226.31Q201.663 226.885 201.856 227.484C202.861 230.581 202.584 234.12 200.979 236.969C199.004 240.478 196.218 241.677 192.505 242.75C189.94 242.633 187.716 242.334 185.509 240.921Q185.017 240.608 184.559 240.247Q184.1 239.887 183.679 239.483Q183.258 239.08 182.879 238.637Q182.5 238.193 182.167 237.715Q181.833 237.237 181.549 236.728Q181.264 236.219 181.031 235.684Q180.798 235.15 180.618 234.595Q180.439 234.04 180.315 233.47Q180.185 232.868 180.117 232.256Q180.049 231.644 180.044 231.028Q180.039 230.413 180.096 229.799Q180.153 229.186 180.273 228.582Q180.392 227.978 180.573 227.39Q180.753 226.801 180.993 226.233Q181.232 225.666 181.528 225.126Q181.824 224.586 182.173 224.079C184.293 221.049 186.937 219.852 190.467 219.16Z"/>
	<path d="M510.831 904.522C513.038 904.435 514.98 904.618 517.042 905.472C520.182 906.774 522.515 909.13 523.667 912.339Q523.87 912.915 524.013 913.509Q524.156 914.103 524.239 914.708Q524.321 915.313 524.342 915.924Q524.362 916.534 524.321 917.143Q524.28 917.753 524.177 918.355Q524.075 918.957 523.911 919.546Q523.748 920.134 523.526 920.703Q523.304 921.272 523.026 921.816C521.065 925.638 518.154 927.197 514.205 928.47C512.077 928.579 510.132 928.496 508.121 927.709Q507.549 927.481 507.004 927.194Q506.459 926.907 505.947 926.565Q505.435 926.222 504.962 925.828Q504.489 925.433 504.06 924.991Q503.63 924.549 503.25 924.065Q502.87 923.581 502.542 923.059Q502.215 922.537 501.944 921.984Q501.673 921.431 501.462 920.852Q501.245 920.268 501.088 919.666Q500.931 919.063 500.837 918.447Q500.743 917.831 500.712 917.209Q500.681 916.587 500.714 915.965Q500.747 915.343 500.844 914.728Q500.94 914.113 501.099 913.511Q501.257 912.908 501.477 912.325Q501.696 911.742 501.974 911.185C503.899 907.356 506.902 905.763 510.831 904.522Z"/>
	<path d="M508.634 90.5776C510.901 90.4219 513.121 90.2478 515.296 91.0473C518.506 92.2278 521.01 94.8537 522.28 97.9945Q522.514 98.5671 522.69 99.16Q522.866 99.7529 522.982 100.36Q523.098 100.968 523.154 101.584Q523.21 102.2 523.204 102.818Q523.198 103.437 523.131 104.051Q523.065 104.666 522.937 105.271Q522.81 105.877 522.623 106.466Q522.436 107.056 522.192 107.624C520.527 111.417 517.59 113.146 513.85 114.484C511.622 114.634 509.35 114.709 507.221 113.919Q506.678 113.716 506.157 113.46Q505.636 113.205 505.142 112.9Q504.649 112.595 504.187 112.243Q503.726 111.891 503.301 111.496Q502.877 111.1 502.493 110.665Q502.109 110.23 501.769 109.76Q501.429 109.289 501.138 108.788Q500.846 108.287 500.604 107.759C499.196 104.697 499.062 101.014 500.328 97.8821C501.934 93.9073 504.815 92.1152 508.634 90.5776Z"/>
	<path d="M830.046 220.088C832.067 219.901 834.017 219.877 835.985 220.456C839.329 221.44 842.274 223.691 843.905 226.798Q844.194 227.339 844.425 227.908Q844.656 228.476 844.827 229.065Q844.997 229.655 845.106 230.259Q845.214 230.863 845.259 231.474Q845.303 232.086 845.284 232.7Q845.265 233.313 845.182 233.921Q845.098 234.529 844.952 235.125Q844.806 235.721 844.599 236.298C843.167 240.218 840.25 242.247 836.586 243.879C834.05 244.329 831.596 244.38 829.137 243.484Q828.586 243.286 828.057 243.034Q827.528 242.782 827.027 242.478Q826.526 242.175 826.058 241.823Q825.589 241.471 825.159 241.074Q824.728 240.676 824.339 240.238Q823.95 239.8 823.607 239.326Q823.263 238.851 822.969 238.344Q822.675 237.837 822.433 237.304Q822.172 236.719 821.971 236.11Q821.77 235.501 821.632 234.875Q821.495 234.249 821.421 233.612Q821.348 232.975 821.34 232.334Q821.331 231.693 821.388 231.055Q821.445 230.416 821.566 229.787Q821.688 229.158 821.872 228.544Q822.057 227.93 822.303 227.338C823.843 223.623 826.448 221.627 830.046 220.088Z"/>
	<path fill="#FCE867" d="M364.881 800.871C365.7 801.072 366.207 801.298 366.915 801.801C370.793 804.552 374.36 808.783 377.93 812.007C383.867 817.369 390.104 822.45 396.232 827.595C410.205 839.33 424.992 850.315 439.54 861.33C445.094 865.534 474.966 886.265 476.714 889.105C477.634 890.598 477.426 891.768 477.109 893.37C475.859 893.795 474.841 894.149 473.505 894.016C467.969 893.466 460.71 888.025 456.177 884.971C449.169 880.25 442.019 875.536 435.378 870.301C415.841 854.902 393.989 833.345 377.327 814.865C373.205 810.294 368.432 805.896 364.881 800.871Z"/>
	<path fill="#FCE867" d="M319.004 220.069C330.594 219.363 370.704 200.836 382.431 194.947C391.102 190.593 399.582 185.601 408.368 181.518C412.105 179.782 416.254 180.524 419.705 178.381C419.988 178.205 420.276 178.038 420.561 177.865C427.172 173.849 431.911 168.199 439.295 165.437C437.018 169.342 434.736 174.447 431.658 177.705C424.974 184.781 415.234 190.544 406.876 195.431C379.953 211.171 354.644 221.985 324.502 229.946C306.759 234.633 280.316 238.053 261.925 236.874C270.899 234.734 279.673 232.618 288.462 229.797C297.845 226.786 306.951 223.204 316.543 220.827C313.096 224.32 299.356 227.324 294.124 228.84C293.391 229.052 293.004 228.779 293.002 229.66C295.645 230.317 297.557 229.891 299.961 228.715C302.296 227.572 305.1 227.239 307.639 226.735C311.566 225.375 313.859 225.404 317.916 225.544C320.716 223.181 324.157 224.596 327.242 221.631L327.164 220.87C324.244 220.09 321.486 223.395 318.275 222.758L317.934 222.075L319.004 220.069Z"/>
	<path fill="#FCE867" d="M768.536 612.162C769.77 612.496 769.508 612.434 770.172 613.374C770.489 617.426 768.011 622.789 766.727 626.624C757.575 653.945 744.943 679.384 730.368 704.184C723.277 716.251 699.983 750.931 689.586 759.132C688.317 760.132 687.035 760.611 685.486 761.012C685.128 760.864 684.591 760.669 684.299 760.422C683.793 759.995 683.348 759.306 683.252 758.649C682.733 755.08 697.473 732.488 699.959 728.585C706.117 718.916 711.954 709.058 718.015 699.331C723.96 689.791 730.172 680.406 735.626 670.572L757.129 632.268C760.84 625.633 764.114 618.332 768.536 612.162Z"/>
	<path fill="#FCE867" d="M237.745 566.24C238.287 564.21 238.347 563.995 237.618 562.038C236.522 560.815 235.318 560.649 233.79 560.265L233.107 560.099L232.629 559.25C232.891 558.606 232.774 558.61 233.715 558.322C234.855 557.973 237.491 560.496 238.626 561.222C238.897 559.953 238.635 560.473 239.404 559.505C240.021 558.727 239.962 558.944 240.298 558.121C240.609 557.361 239.882 556.189 239.587 555.431L239.984 554.84C240.983 554.917 241.606 555.188 242.427 555.732C245.338 557.664 246.836 560.658 247.538 564.002C251.4 575.054 258.224 585.909 263.326 596.506C274.026 618.729 285.182 641.126 297.651 662.412C316.717 694.962 338.552 726.159 360.733 756.648C365.351 762.994 384.345 786.677 385.458 791.954C385.097 793.246 384.965 793.308 383.922 794.174C382.545 794.455 381.62 794.314 380.378 793.683C373.399 790.138 365.517 778.906 360.246 772.965C345.987 756.893 332.839 739.709 320.161 722.376C297.28 691.094 276.49 659.069 258.328 624.789C249.559 608.238 241.362 592.212 235.264 574.447C233.973 570.686 232.092 567.059 231.037 563.222C230.788 562.315 230.405 561.098 230.877 560.265L231.422 562.554L231.791 562.534L232.445 561.26L233.053 563C233.44 565.142 235.178 569.666 236.794 571.027L237.419 570.77C237.481 568.755 236.537 566.871 235.889 564.994C236.022 565.097 236.158 565.196 236.288 565.302C236.78 565.699 237.149 566.109 237.553 566.589L237.745 566.24Z"/>
	<path fill="#FEFCCA" d="M240.745 572.233L242.324 572.36C242.405 572.473 242.496 572.579 242.567 572.698C247.82 581.56 251.621 591.623 255.731 601.041C256.918 603.761 258.762 606.413 259.782 609.146C260.14 610.106 260.109 610.268 259.895 611.169C259.832 611.131 259.757 611.107 259.706 611.053C257.513 608.726 241.534 575.769 240.745 572.233Z"/>
	<path d="M511.985 145.42C516.225 148.938 519.969 152.982 523.951 156.781C529.503 162.076 535.333 167.152 541.107 172.209C599.936 223.729 674.011 259.252 752.798 263.437C766.845 264.183 780.714 263.328 794.721 262.405C800.762 352.173 789.642 456.302 760.45 541.56Q758.646 546.724 756.752 551.855Q754.858 556.986 752.873 562.083Q750.889 567.18 748.815 572.241Q746.742 577.302 744.58 582.326Q742.418 587.35 740.168 592.336Q737.918 597.321 735.58 602.266Q733.243 607.211 730.819 612.114Q728.395 617.017 725.885 621.877Q723.376 626.737 720.781 631.552Q718.186 636.367 715.507 641.135Q712.828 645.904 710.066 650.624Q707.304 655.345 704.459 660.017Q701.614 664.688 698.687 669.309Q695.761 673.93 692.753 678.498Q689.746 683.067 686.659 687.582Q683.572 692.097 680.406 696.557Q677.24 701.017 673.996 705.421Q670.752 709.825 667.432 714.171Q664.111 718.517 660.714 722.804Q657.317 727.091 653.846 731.318Q650.375 735.545 646.829 739.71Q643.284 743.875 639.666 747.977Q636.048 752.079 632.359 756.117Q628.67 760.155 624.91 764.127Q621.15 768.1 617.321 772.005Q613.492 775.911 609.595 779.749Q605.698 783.587 601.734 787.355Q597.77 791.124 593.74 794.823Q589.711 798.521 585.617 802.148Q581.523 805.775 577.366 809.33Q573.209 812.885 568.99 816.366Q564.771 819.847 560.492 823.253C552.904 829.238 522.387 852.619 515.153 855.198C513.546 855.771 512.878 855.038 511.459 854.322C470.641 828.599 434.128 794.937 401.14 759.933Q384.598 742.101 369.468 723.055Q354.339 704.01 340.711 683.863C330.312 668.538 320.294 653.093 311.244 636.919C274.054 570.452 251.741 497.338 238.841 422.547Q235.306 402.333 232.797 381.967Q230.288 361.6 228.811 341.133Q227.334 320.665 226.893 300.15Q226.452 279.634 227.047 259.122C239.056 262.188 252.747 262.727 265.121 262.988C336.914 264.5 405.658 237.093 461.099 192.443C471.643 183.951 482.088 174.845 491.84 165.45C498.659 158.88 505.154 151.982 511.985 145.42Z"/>
	<path fill="#F8D115" d="M511.718 147.273C514.866 149.063 520.805 156.326 523.805 159.226Q532.613 167.709 541.88 175.688C613.568 236.948 697.423 272.207 792.7 264.745C797.891 327.794 791.252 395.032 780.113 457.07Q778.836 464.055 777.415 471.012C756.113 470.022 734.847 468.469 713.771 465.113C661.975 456.866 609.418 438.54 564.194 411.907C549.811 403.436 534.189 393.783 522.274 382.001C521.795 374.45 522.118 366.781 522.153 359.214Q522.232 344.618 521.78 330.029Q520.047 269.881 515.018 209.918L511.586 171.972C510.959 165.458 509.737 158.586 509.684 152.057C509.676 151.008 509.642 150.021 510.288 149.166L511.718 147.273Z"/>
	<path fill="#E2C409" d="M572.949 231.266C577.646 233.485 583.245 239.325 587.621 242.595C591.892 245.787 596.578 248.556 601.079 251.42C623.344 265.586 646.417 276.498 671.799 283.842C678.09 285.662 684.463 286.831 690.763 288.516L691.004 288.981C681.252 291.284 668.32 289.547 658.587 287.578C625.055 280.796 591.949 259.863 572.949 231.266Z"/>
	<path fill="#E2C409" d="M755.263 312.867C756.151 319.659 755.843 327.161 755.982 334.055C756.637 366.516 753.568 396.906 745.317 428.364C743.118 436.747 739.563 444.708 737.297 453.049L737.168 453.535L736.925 453.513L737.08 452.478L736.72 452.309L736.875 451.357C737.929 445.144 737.645 438.274 737.891 431.956Q738.573 415.631 739.781 399.337C742.14 369.94 748.14 341.413 755.263 312.867Z"/>
	<path fill="#3DBFB1" d="M522.819 385.83C574.732 429.182 648.927 457.566 715.292 467.897C735.763 471.084 756.523 472.242 777.207 472.984C774.116 485.704 771.43 498.405 767.749 510.987C743.661 593.323 702.626 667.99 648.406 734.275C614.798 775.69 562.002 824.41 516.208 851.484Q520.33 800.198 523.237 748.829Q529.662 647.657 529.085 546.282Q529.319 465.924 522.819 385.83Z"/>
	<path fill="#28A091" d="M744.784 495.382C745.363 498.946 744.037 503.786 743.368 507.356C739.342 528.818 732.862 549.411 724.927 569.739C695.121 646.099 628.645 743.214 551.454 777.092C551.673 776.12 569.601 760.715 572.115 758.223C589.905 740.586 606.217 721.202 621.51 701.371C633.749 685.5 644.925 668.609 655.956 651.889C672.809 626.343 689.193 600.235 703.742 573.292L730.694 522.575C735.404 513.533 739.752 504.247 744.784 495.382Z"/>
	<path fill="#3DBFB1" d="M507.303 152.403C508.964 155.688 509.121 167.724 509.59 172.193Q514.99 224.381 517.629 276.782Q520.268 329.182 520.139 381.649C511.476 390.357 502.937 399.314 493.715 407.432Q488.916 411.603 484.008 415.644Q479.1 419.686 474.086 423.596Q469.073 427.506 463.957 431.282Q458.842 435.058 453.628 438.697Q448.414 442.336 443.106 445.835Q437.797 449.334 432.398 452.691Q426.998 456.048 421.512 459.261Q416.025 462.474 410.455 465.54Q404.885 468.606 399.236 471.523Q393.587 474.441 387.862 477.207Q382.138 479.974 376.342 482.587Q370.546 485.201 364.682 487.66Q358.819 490.119 352.893 492.421Q346.966 494.724 340.981 496.868Q334.995 499.013 328.955 500.998Q322.915 502.983 316.824 504.807C299.13 510.096 281.377 513.691 263.428 517.864C261.284 511.355 259.5 504.745 257.676 498.141Q253.819 483.734 250.472 469.2Q247.124 454.665 244.291 440.022Q241.457 425.38 239.141 410.646Q236.824 395.912 235.028 381.106Q233.232 366.3 231.958 351.44Q230.684 336.58 229.934 321.684Q229.184 306.788 228.958 291.876Q228.733 276.963 229.033 262.051Q240.212 263.828 251.503 264.618Q262.795 265.408 274.112 265.206C368.881 263.226 443.098 219.366 507.303 152.403Z"/>
	<path fill="#28A091" d="M447.834 229.025L448.176 229.246C439 247.159 416.991 268.276 400.671 279.568Q399.002 280.734 397.304 281.859Q395.607 282.984 393.882 284.066Q392.157 285.149 390.406 286.188Q388.655 287.228 386.879 288.224Q385.103 289.22 383.303 290.172Q381.503 291.124 379.68 292.032Q377.857 292.939 376.012 293.801Q374.167 294.663 372.302 295.48Q370.436 296.296 368.551 297.066Q366.666 297.836 364.762 298.56Q362.859 299.283 360.938 299.959Q359.017 300.636 357.08 301.264Q355.143 301.893 353.192 302.474Q351.24 303.054 349.274 303.587Q347.309 304.119 345.331 304.603Q343.353 305.087 341.363 305.522Q339.374 305.956 337.375 306.342Q335.375 306.728 333.367 307.064Q331.358 307.4 329.342 307.687Q327.326 307.974 325.304 308.21Q323.281 308.447 321.253 308.634Q319.226 308.821 317.194 308.958Q315.162 309.095 313.128 309.181Q311.093 309.268 309.057 309.304Q307.021 309.341 304.985 309.327Q302.949 309.313 300.913 309.249Q298.878 309.185 296.845 309.071Q294.812 308.957 292.782 308.793Q290.752 308.629 288.727 308.414Q286.702 308.2 284.683 307.936Q282.664 307.672 280.652 307.358Q278.64 307.044 276.636 306.681Q276.176 337.435 276.963 368.181C277.336 386.303 277.964 404.483 277.298 422.605C275 417.319 273.168 411.796 271.202 406.379Q268.593 398.878 266.343 391.262Q264.092 383.645 262.205 375.931Q260.317 368.217 258.797 360.422Q257.277 352.627 256.128 344.769Q254.979 336.911 254.203 329.007Q253.427 321.103 253.027 313.171Q252.626 305.24 252.602 297.298Q252.577 289.356 252.929 281.422C257.066 282.205 261.424 282.504 265.627 282.791C318.93 286.424 371.759 275.808 418.238 249.101C428.401 243.261 438.996 236.754 447.834 229.025Z"/>
	<path fill="#F8D115" d="M519.577 385.854C519.877 385.969 520.067 386.269 520.297 386.493C524.55 418.48 524.827 451.687 525.788 483.934Q527.486 547.591 526.453 611.263Q525.42 674.934 521.657 738.503Q519.665 774.823 517.012 811.101C516.031 824.945 515.503 839.121 513.561 852.865C504.428 847.952 495.612 840.992 487.289 834.806Q473.366 824.343 460.036 813.135Q446.706 801.926 434.01 790.005Q421.313 778.084 409.288 765.486Q397.262 752.888 385.944 739.651C331.421 674.729 288.098 601.462 264.007 519.792C271.023 517.775 278.481 516.74 285.62 515.14Q302.406 511.229 318.917 506.282Q325.046 504.455 331.124 502.464Q337.202 500.473 343.224 498.319Q349.246 496.165 355.208 493.849Q361.169 491.534 367.067 489.059Q372.964 486.584 378.792 483.951Q384.621 481.318 390.377 478.529Q396.132 475.74 401.81 472.797Q407.489 469.854 413.086 466.76Q418.683 463.665 424.195 460.421Q429.706 457.177 435.129 453.785Q440.551 450.394 445.88 446.858Q451.21 443.321 456.442 439.643Q461.674 435.965 466.805 432.147Q471.936 428.329 476.962 424.374Q481.988 420.42 486.907 416.331Q491.825 412.242 496.631 408.023C504.614 401.031 511.793 393.08 519.577 385.854Z"/>
	<path fill="#E2C409" d="M307.795 534.305C311.613 537.999 316.433 548.564 319.369 553.595L339.847 587.996C372.97 642.953 416.17 706.161 463.754 749.171C470.857 755.59 478.233 762.238 486.169 767.602C479.106 766.349 471.467 761.64 465.193 758.145C444.719 746.739 427.7 731.926 411.489 715.11C368.708 670.733 337.008 615.782 316.027 558.007C313.184 550.177 310.073 542.318 307.795 534.305Z"/>
</svg>
