<?xml version="1.0" encoding="utf-8" ?>
<svg xmlns="http://www.w3.org/2000/svg" xmlns:xlink="http://www.w3.org/1999/xlink" width="1024" height="1024">
	<path fill="#040404" d="M0 0L1024 0L1024 787.844L1024 863.719L1024 881.581L1024 958.523L1024 1024L0 1024L0 935.768L0 864.324L0 846.05L0 788.2L0 0Z"/>
	<path fill="#FEFEFD" d="M609.987 635.081C611.02 635.007 612.088 634.918 613.116 635.078C615.058 635.38 616.684 636.403 617.789 638.03C618.852 639.596 619.068 641.508 618.574 643.311C617.86 645.919 616.315 647.021 614.073 648.337C613.108 648.398 612.122 648.459 611.161 648.32C609.238 648.042 607.48 647.057 606.367 645.444C605.303 643.904 605.096 642.024 605.564 640.231C606.225 637.705 607.855 636.397 609.987 635.081Z"/>
	<path fill="#FEFEFD" d="M137.02 635.044C138.388 635.051 139.844 635.003 141.154 635.448C142.94 636.054 144.471 637.419 145.216 639.158C145.872 640.687 145.784 642.418 145.147 643.941C144.185 646.24 142.423 647.231 140.254 648.221C139.141 648.204 137.968 648.213 136.882 647.948C134.979 647.484 133.229 646.177 132.253 644.48C131.439 643.062 131.286 641.47 131.763 639.921C132.563 637.319 134.716 636.139 137.02 635.044Z"/>
	<path fill="#FEFEFD" d="M325.934 635.004C327.294 634.918 328.793 634.742 330.128 635.07C331.888 635.501 333.734 636.861 334.577 638.48C335.341 639.948 335.553 641.419 335.114 643.012C334.423 645.521 332.862 646.896 330.721 648.214C329.627 648.352 328.473 648.527 327.372 648.395C325.442 648.164 323.767 647.13 322.638 645.557C321.518 643.997 321.205 642.04 321.651 640.183C322.279 637.57 323.749 636.389 325.934 635.004Z"/>
	<path fill="#FEFEFD" d="M566.132 634.47C567.048 634.586 567.961 634.686 568.838 634.989C570.67 635.623 572.157 636.92 572.978 638.685C573.818 640.488 573.813 642.532 573.062 644.363C572.055 646.817 570.383 647.791 568.03 648.775C567.022 648.679 565.981 648.596 564.993 648.368C563.188 647.951 561.577 646.498 560.744 644.877C559.828 643.097 559.791 641.133 560.54 639.287C561.624 636.617 563.566 635.486 566.132 634.47Z"/>
	<path fill="#FEFEFD" d="M469.007 634.971C470.177 634.967 471.461 634.908 472.601 635.2C474.386 635.656 476.081 637.072 476.966 638.668C477.884 640.323 478.022 642.235 477.378 644.016C476.513 646.41 474.772 647.487 472.596 648.575C471.356 648.605 469.848 648.745 468.656 648.357C466.913 647.789 465.448 646.655 464.599 645.012C463.768 643.404 463.649 641.657 464.221 639.943C465.089 637.347 466.681 636.22 469.007 634.971Z"/>
	<path fill="#FEFEFD" d="M422.021 635.017C423.246 634.943 424.65 634.77 425.854 635.033C427.536 635.4 429.264 636.824 430.14 638.281C431.136 639.938 431.294 641.915 430.713 643.745C429.94 646.175 428.214 647.324 426.082 648.503C424.999 648.538 423.923 648.568 422.849 648.397C420.874 648.083 419.021 646.936 417.941 645.237C417.03 643.807 416.85 642.104 417.28 640.479C417.996 637.772 419.749 636.446 422.021 635.017Z"/>
	<path fill="#FEFEFD" d="M230.145 634.565C231.116 634.722 232.124 634.876 233.034 635.263C234.95 636.08 236.552 637.762 237.155 639.769C237.651 641.418 237.416 643.181 236.618 644.694C235.359 647.081 233.413 647.833 230.957 648.6C229.889 648.495 228.76 648.381 227.74 648.026C225.987 647.414 224.485 645.773 223.86 644.048C223.209 642.255 223.412 640.253 224.286 638.571C225.588 636.068 227.556 635.277 230.145 634.565Z"/>
	<path fill="#FEFEFD" d="M372.454 634.977C373.66 634.897 374.97 634.756 376.163 634.996C378.061 635.378 379.671 636.581 380.717 638.188Q380.89 638.449 381.036 638.726Q381.182 639.002 381.301 639.292Q381.419 639.582 381.508 639.882Q381.598 640.181 381.657 640.489Q381.717 640.796 381.746 641.107Q381.775 641.419 381.773 641.732Q381.771 642.045 381.738 642.356Q381.706 642.667 381.643 642.974C381.042 645.761 379.514 647.061 377.164 648.472C376.113 648.504 375.03 648.556 373.982 648.455C372.107 648.275 370.299 647.155 369.148 645.692C368.048 644.295 367.542 642.581 367.872 640.808C368.401 637.969 370.138 636.472 372.454 634.977Z"/>
	<path fill="#FEFEFD" d="M518.021 634.963C519.393 634.957 520.851 634.896 522.163 635.357C524.006 636.003 525.608 637.478 526.412 639.257C527.101 640.785 527.163 642.455 526.563 644.019C525.625 646.465 523.842 647.488 521.551 648.495C520.228 648.523 518.854 648.583 517.571 648.205C515.774 647.676 514.138 646.299 513.315 644.613C512.557 643.06 512.467 641.379 513.043 639.751C513.931 637.241 515.751 636.112 518.021 634.963Z"/>
	<path fill="#FEFEFD" d="M182.06 635.034C183.322 634.927 184.634 634.785 185.886 635.034Q186.242 635.107 186.59 635.215Q186.938 635.323 187.273 635.465Q187.608 635.607 187.928 635.781Q188.248 635.954 188.549 636.159Q188.85 636.363 189.129 636.596Q189.409 636.829 189.664 637.088Q189.92 637.348 190.148 637.631Q190.377 637.914 190.577 638.218C191.504 639.644 191.752 641.364 191.385 643.016C190.808 645.612 189.191 646.982 187.06 648.38C185.926 648.471 184.748 648.588 183.613 648.469Q183.24 648.426 182.873 648.346Q182.506 648.266 182.149 648.15Q181.792 648.033 181.448 647.881Q181.105 647.729 180.778 647.544Q180.452 647.358 180.145 647.141Q179.839 646.923 179.556 646.676Q179.274 646.429 179.017 646.154Q178.761 645.88 178.533 645.581C177.472 644.189 177.1 642.51 177.406 640.79C177.925 637.874 179.692 636.545 182.06 635.034Z"/>
	<path fill="#FEFEFD" d="M277.429 634.989C278.697 634.872 279.963 634.762 281.223 635.012Q281.589 635.083 281.946 635.191Q282.303 635.299 282.647 635.442Q282.991 635.584 283.32 635.761Q283.648 635.937 283.957 636.145Q284.266 636.354 284.553 636.592Q284.84 636.83 285.101 637.096Q285.363 637.361 285.597 637.651Q285.83 637.942 286.034 638.254C286.959 639.69 287.226 641.401 286.855 643.062C286.24 645.814 284.72 646.984 282.425 648.427C281.287 648.497 280.11 648.592 278.971 648.511C277.044 648.373 275.144 647.062 274.02 645.543C272.944 644.088 272.486 642.328 272.858 640.532C273.441 637.723 275.105 636.433 277.429 634.989Z"/>
	<path fill="#0E1C23" d="M88.1618 677.951C87.0898 676.661 86.1291 675.253 85.2143 673.848C79.44 664.979 54.8065 616.312 56.4056 608.938L57.2226 608.675C59.8871 610.597 63.052 623.824 64.6806 627.632Q71.2682 643.239 78.895 658.366C81.8264 664.073 85.4677 669.626 88.0426 675.479C88.3937 676.277 88.5709 676.608 89.1256 677.331L91.4445 677.596L88.1618 677.951Z"/>
	<path fill="#FDE310" d="M65.8091 16.8325C66.735 17.7262 67.4351 19.524 68.0747 20.6776C71.2623 26.4272 74.0309 26.7742 80.1217 28.867C72.027 32.1417 69.928 32.9575 66.3181 41.1224L66.0278 41.1856C64.7335 39.3506 64.4795 36.959 63.3034 35.0316C61.0899 31.4041 56.4388 30.1009 52.6359 28.9734C54.5636 28.3249 56.5876 27.7138 58.4204 26.8298C62.806 24.7145 64.2658 21.1167 65.8091 16.8325Z"/>
	<path fill="#FDE310" d="M482.246 41.8905C483.029 43.2859 483.535 44.8039 484.325 46.1833C487.004 50.8593 490.995 52.1756 495.82 53.6629C488.62 56.3449 485.928 58.4905 482.405 65.2322L481.919 65.2623C478.643 58.5571 475.912 56.7845 469.03 54.0519L469.832 53.7236C476.24 51.086 479.573 48.3167 482.246 41.8905Z"/>
	<path fill="#FDE310" d="M777.213 224.885C778.504 226.222 779.705 229.864 780.746 231.698C783.089 235.825 787.922 236.736 792.189 237.943Q790.41 238.623 788.643 239.334C782.025 242.013 780.179 245.575 777.532 251.87C777.083 250.244 776.648 248.597 775.86 247.096C773.046 241.736 767.9 239.995 762.517 238.261C764.448 237.699 766.338 237.068 768.167 236.225C773.382 233.822 775.314 229.982 777.213 224.885Z"/>
	<path fill="#FDE310" d="M653.955 42.5246C655.024 44.5045 655.437 47.0183 656.515 49.0953C659.134 54.1449 663.28 55.2214 668.329 56.8516C666.663 57.3325 664.995 57.8206 663.415 58.5478C658.022 61.031 655.908 65.29 653.934 70.5585C653.307 68.6883 652.713 66.7206 651.727 65.0049C648.827 59.9615 644.047 58.2933 638.738 56.9652Q641.062 56.0502 643.358 55.0691C649.482 52.426 651.596 48.4065 653.955 42.5246Z"/>
	<path fill="#FDE310" d="M259.585 237.306C260.033 238.072 260.351 238.937 260.722 239.744C263.791 246.435 267.517 248.392 274.149 250.85C266.68 254.148 263.544 256.632 259.998 264.058C259.07 263.221 258.462 261.709 257.804 260.613C254.445 255.018 251.735 253.386 245.864 250.788Q248.04 249.932 250.185 249C255.8 246.521 257.493 242.684 259.585 237.306Z"/>
	<path fill="#0E1C23" d="M961.521 559.805L962.108 560.327C961.665 564.179 911.907 667.042 907.134 673.604L906.807 672.704C908.207 667.799 910.994 662.917 913.218 658.319L924.702 634.608C936.668 609.735 947.7 583.693 961.521 559.805Z"/>
	<path fill="#FDE310" d="M286.172 80.34C287.875 81.9224 288.894 86.7155 289.933 88.9936C291.917 93.3432 298.035 95.0952 302.197 96.5717C299.903 97.1775 297.482 97.726 295.328 98.7344C289.646 101.396 288.304 107.245 286.456 112.662C285.564 110.132 284.721 107.491 283.416 105.138C280.313 99.5415 275.466 98.2583 269.769 96.493C272.492 95.5625 275.365 94.7039 277.907 93.3408C283.265 90.4686 284.555 85.7716 286.172 80.34Z"/>
	<path fill="#FDE310" d="M91.2599 293.396C91.709 293.961 91.5278 293.653 91.8253 294.418C92.2749 295.573 92.7198 296.707 93.304 297.802C97.6834 306.008 100.649 306.428 109.211 309.1Q106.471 310.099 103.759 311.171C96.643 314.035 93.9466 318.166 91.0666 324.907C89.2828 323.249 88.06 318.226 86.7623 315.952C84.5164 312.016 76.8943 310.412 72.8426 309.352C75.7742 308.455 78.8411 307.636 81.6256 306.34C87.4985 303.607 89.1328 299.088 91.2599 293.396Z"/>
	<path fill="#FDE310" d="M605.513 159.766C606.48 161.888 607.037 164.18 608.057 166.302C611.202 172.848 616.224 174.298 622.6 176.544C617.492 178.531 610.754 180.503 608.323 185.934C607.399 187.996 606.948 190.168 605.93 192.232L605.398 192.176C604.722 190.383 604.074 188.51 603.166 186.819C599.675 180.322 593.582 178.614 587.022 176.631C589.513 175.987 592.101 175.245 594.435 174.14C600.9 171.079 603.151 166.079 605.513 159.766Z"/>
	<path fill="#FDE310" d="M962.983 36.8029C964.044 39.9363 965.076 43.1682 966.791 46.0166C970.471 52.1278 976.44 53.4105 982.866 55.0663C979.732 56.0009 976.29 56.7972 973.353 58.2448C966.835 61.4581 965.396 67.8154 963.29 74.1346C961.804 71.1085 961.366 67.6589 959.725 64.5633C956.251 58.0082 949.983 56.8781 943.392 54.9114C947.189 53.7659 951.514 52.7489 954.988 50.7895C960.364 47.7569 961.571 42.3285 962.983 36.8029Z"/>
	<path fill="#FDE310" d="M921.161 271.318C921.879 274.005 922.506 276.904 923.868 279.347C927.522 285.907 934.098 287.679 940.833 289.574C937.93 290.422 934.903 291.266 932.143 292.512C925.284 295.609 922.911 300.751 920.425 307.396C919.667 304.82 918.901 302.167 917.654 299.778C914.102 292.975 906.895 291.372 900.113 289.438C903.738 288.564 907.514 287.825 910.868 286.144C917.072 283.037 919.02 277.44 921.161 271.318Z"/>
	<path fill="#FDE310" d="M395.458 165.746C397.958 168.871 398.742 174.573 400.471 177.339C402.616 180.769 412.214 183.105 416.104 184.372C413.229 185.223 410.223 185.982 407.459 187.15C400.31 190.169 398.692 196.94 396.162 203.546C394.248 200.582 392.929 195.092 391.265 191.649C389.209 187.395 380.192 185.494 375.906 184.049C379.338 183.114 383.023 182.244 386.193 180.59C392.15 177.484 393.599 171.67 395.458 165.746Z"/>
	<path fill="#FEFEFD" d="M809.115 588.115C813.922 587.696 819.182 589.088 823.205 591.728Q823.636 592.017 824.053 592.327Q824.47 592.637 824.871 592.967Q825.272 593.297 825.656 593.647Q826.04 593.996 826.407 594.364Q826.774 594.732 827.122 595.117Q827.47 595.503 827.799 595.904Q828.128 596.306 828.436 596.724Q828.745 597.142 829.033 597.574Q829.321 598.006 829.587 598.452Q829.853 598.898 830.098 599.356Q830.342 599.815 830.563 600.285Q830.784 600.754 830.982 601.235Q831.18 601.715 831.354 602.204Q831.529 602.693 831.679 603.19Q831.829 603.688 831.954 604.192Q832.079 604.695 832.18 605.205Q832.295 605.741 832.382 606.281Q832.47 606.822 832.531 607.366Q832.591 607.91 832.625 608.457Q832.658 609.004 832.664 609.551Q832.67 610.099 832.649 610.646Q832.627 611.194 832.578 611.739Q832.53 612.285 832.454 612.827Q832.378 613.37 832.275 613.907Q832.172 614.445 832.042 614.977Q831.913 615.51 831.756 616.034Q831.6 616.559 831.418 617.076Q831.236 617.592 831.028 618.099Q830.821 618.606 830.588 619.102Q830.355 619.598 830.098 620.081Q829.84 620.565 829.559 621.035Q829.278 621.505 828.974 621.96C825.25 627.491 819.932 630.102 813.616 631.46C808.902 631.736 804.776 630.975 800.705 628.456C795.485 625.227 791.543 619.937 790.354 613.877C789.245 608.223 790.54 601.937 793.814 597.194C797.588 591.726 802.736 589.209 809.115 588.115Z"/>
	<path fill="#FDE310" d="M725.469 534.546C715.184 546.942 705.852 560.204 696.253 573.138C692.088 578.75 688.071 584.72 683.437 589.944L599.192 590.015Q599.43 562.373 599.39 534.729C620.079 535.197 640.854 534.837 661.552 534.834C682.834 534.83 704.196 535.162 725.469 534.546Z"/>
	<path fill="#FEFEFD" d="M660.016 306.031C680.144 306.038 700.325 305.77 720.448 306.087L720.436 326.799C713.461 326.788 706.473 326.861 699.501 326.665L699.539 353.649C709.801 353.797 720.072 353.539 730.328 353.717L730.382 375.332C740.607 375.356 750.862 375.21 761.083 375.464C761.216 381.013 761.394 386.566 761.456 392.117C757.98 392.953 628.364 393.47 622.604 392.252Q622.735 383.598 622.705 374.943L646.939 374.897L646.915 353.758C657.608 353.787 668.327 353.976 679.018 353.741L679.049 326.904L659.987 326.84L660.016 306.031Z"/>
	<path fill="#040404" d="M702.128 361.085Q712 361.034 721.872 361.142L721.884 375.368L702.162 375.426L702.128 361.085Z"/>
	<path fill="#040404" d="M655.034 360.914C661.893 360.712 668.779 360.84 675.641 360.857L675.611 375.029L655.076 374.851L655.034 360.914Z"/>
	<path fill="#F3EFC1" d="M854.186 93.147C865.425 91.8283 876.586 94.0377 886.043 100.364C895.796 106.888 902.149 117.234 904.313 128.701Q904.517 129.806 904.667 130.919Q904.817 132.032 904.911 133.151Q905.005 134.271 905.044 135.393Q905.083 136.516 905.066 137.639Q905.049 138.762 904.977 139.883Q904.905 141.004 904.777 142.12Q904.65 143.236 904.467 144.345Q904.284 145.453 904.047 146.551Q903.81 147.649 903.518 148.734Q903.227 149.819 902.882 150.888Q902.538 151.957 902.141 153.008Q901.744 154.059 901.295 155.089Q900.847 156.118 900.348 157.125Q899.849 158.131 899.3 159.112Q898.752 160.092 898.156 161.044Q897.56 161.996 896.918 162.918C889.405 173.718 878.892 179.612 866.112 181.929C854.915 183.254 843.806 180.745 834.595 174.142Q833.682 173.5 832.802 172.813Q831.922 172.126 831.078 171.396Q830.234 170.666 829.427 169.894Q828.621 169.122 827.854 168.311Q827.088 167.5 826.362 166.651Q825.637 165.803 824.956 164.919Q824.274 164.035 823.638 163.117Q823.002 162.2 822.412 161.253Q821.823 160.305 821.282 159.328Q820.741 158.352 820.249 157.35Q819.758 156.348 819.317 155.322Q818.876 154.297 818.488 153.25Q818.099 152.204 817.764 151.139Q817.428 150.075 817.147 148.995Q816.865 147.915 816.638 146.822Q816.411 145.729 816.239 144.626C814.416 132.83 817.803 120.197 824.862 110.629Q825.515 109.749 826.21 108.903Q826.905 108.057 827.642 107.246Q828.378 106.435 829.153 105.661Q829.928 104.887 830.741 104.153Q831.553 103.418 832.401 102.725Q833.249 102.031 834.13 101.381Q835.011 100.73 835.923 100.123Q836.835 99.5164 837.776 98.9556Q838.717 98.3947 839.684 97.8809Q840.651 97.3671 841.643 96.9017Q842.634 96.4362 843.648 96.0202Q844.661 95.6043 845.693 95.2388Q846.726 94.8733 847.775 94.5592Q848.825 94.2451 849.888 93.9832Q850.952 93.7212 852.027 93.5121Q853.102 93.3029 854.186 93.147Z"/>
	<path fill="#FEFEFD" d="M328.371 315.061L445.543 315.113Q445.853 349.458 445.648 383.803Q386.919 383.385 328.192 383.946Q327.996 349.502 328.371 315.061Z"/>
	<path fill="#FDE310" d="M374.516 534.515L589.007 534.652L588.979 589.997C579.329 589.616 569.6 589.864 559.941 589.868L508.521 589.884L374.489 589.973L374.516 534.515Z"/>
	<path fill="#FDE310" d="M761.456 392.117C771.4 391.648 781.425 391.905 791.381 391.917L791.325 454.64L589.942 454.959L590.033 391.998C600.779 391.948 611.918 391.333 622.604 392.252C628.364 393.47 757.98 392.953 761.456 392.117Z"/>
	<path fill="#FDE310" d="M599.402 463.88L824.056 463.786L824.079 511.127C817.142 512.153 809.618 511.819 802.59 512.072Q784.333 512.663 766.068 512.475C758.668 512.47 751.131 512.702 743.748 512.317C740.019 516.766 736.355 521.295 732.465 525.604C716.892 525.165 701.238 525.492 685.653 525.491L599.265 525.498L599.402 463.88Z"/>
	<path fill="#FDE310" d="M574.245 464.25L588.778 464.144L589.003 525.54L388.875 525.807L374.522 525.903L374.531 464.598C441.067 464.767 507.719 465.093 574.245 464.25Z"/>
	<path fill="#FDE310" d="M121.517 464.471L365.609 464.637L365.609 526.174L121.3 526.048L121.517 464.471Z"/>
	<path fill="#FDE310" d="M140.643 75.2026C159.447 74.4783 177.619 79.6073 192.578 91.237Q194.083 92.3992 195.529 93.6346Q196.975 94.8699 198.358 96.1753Q199.74 97.4808 201.057 98.8531Q202.373 100.225 203.62 101.661Q204.867 103.097 206.042 104.593Q207.216 106.089 208.315 107.641Q209.413 109.193 210.434 110.797Q211.455 112.402 212.394 114.055Q213.334 115.708 214.191 117.406Q215.048 119.104 215.82 120.842Q216.592 122.58 217.276 124.354Q217.961 126.128 218.557 127.934Q219.153 129.74 219.659 131.573Q220.165 133.406 220.579 135.262Q220.994 137.118 221.316 138.992Q221.638 140.866 221.867 142.754Q221.993 143.714 222.095 144.677Q222.197 145.639 222.274 146.604Q222.352 147.569 222.405 148.536Q222.458 149.503 222.487 150.47Q222.516 151.438 222.52 152.406Q222.525 153.374 222.504 154.342Q222.484 155.31 222.44 156.277Q222.396 157.244 222.327 158.21Q222.258 159.176 222.165 160.139Q222.072 161.103 221.954 162.064Q221.837 163.025 221.695 163.982Q221.553 164.94 221.388 165.894Q221.222 166.848 221.032 167.797Q220.842 168.746 220.629 169.691Q220.415 170.635 220.178 171.574Q219.94 172.512 219.679 173.444Q219.418 174.377 219.134 175.302Q218.85 176.227 218.542 177.145Q218.234 178.063 217.904 178.973Q217.573 179.883 217.219 180.784Q216.866 181.686 216.49 182.578Q216.113 183.47 215.715 184.352Q215.316 185.234 214.896 186.106Q214.475 186.978 214.032 187.839Q213.59 188.7 213.126 189.55Q212.662 190.399 212.176 191.237Q211.691 192.075 211.185 192.9Q210.678 193.725 210.151 194.537Q209.624 195.349 209.077 196.148Q208.529 196.946 207.962 197.731Q207.395 198.515 206.808 199.285Q206.221 200.055 205.615 200.81C192.085 217.974 173.087 226.452 151.838 228.939C131.141 229.818 112.148 225.006 96.0819 211.393Q94.6135 210.148 93.2082 208.833Q91.8028 207.518 90.4638 206.135Q89.1248 204.752 87.8555 203.305Q86.5862 201.858 85.3896 200.35Q84.193 198.842 83.072 197.277Q81.951 195.712 80.9084 194.094Q79.8657 192.476 78.9039 190.809Q77.9421 189.141 77.0635 187.429Q76.1849 185.716 75.3916 183.962Q74.5983 182.208 73.8922 180.417Q73.1862 178.627 72.569 176.803Q71.9519 174.98 71.4252 173.129Q70.8985 171.277 70.4636 169.402Q70.0286 167.527 69.6864 165.633Q69.3442 163.738 69.0955 161.83Q68.8469 159.921 68.6925 158.002C67.0595 137.209 73.1229 117.035 86.7952 101.163C100.636 85.0965 119.691 76.7192 140.643 75.2026Z"/>
	<path fill="#FDE310" d="M182.092 392.782L480.583 392.936L480.423 455.688L182.019 456.144L182.092 392.782Z"/>
	<path fill="#FEFEFD" d="M824.079 511.127C856.503 508.875 888.957 506.113 921.415 504.484Q955.854 502.893 990.329 502.827C981.767 521.744 970.997 539.686 962.45 558.566L811.863 558.157L759.49 558.114C749.578 558.115 739.474 557.731 729.587 558.346C716.008 574.34 704.258 591.932 690.951 608.178C662.92 607.5 634.804 607.966 606.763 607.974L458.512 608.03L59.7994 608.031L59.785 590.916L100.919 590.557C107.331 590.531 115.05 591.335 121.315 590.219L121.341 578.132C121.048 563.747 121.246 549.313 121.326 534.924L252.618 534.932L365.646 534.946C365.685 553.252 366.104 571.641 365.667 589.937L374.489 589.973L508.521 589.884L559.941 589.868C569.6 589.864 579.329 589.616 588.979 589.997L599.192 590.015L683.437 589.944C688.071 584.72 692.088 578.75 696.253 573.138C705.852 560.204 715.184 546.942 725.469 534.546C727.955 531.729 730.168 528.582 732.465 525.604C736.355 521.295 740.019 516.766 743.748 512.317C751.131 512.702 758.668 512.47 766.068 512.475Q784.333 512.663 802.59 512.072C809.618 511.819 817.142 512.153 824.079 511.127Z"/>
	<path fill="#FDE310" d="M252.618 534.932L365.646 534.946C365.685 553.252 366.104 571.641 365.667 589.937C353.363 589.244 340.799 589.695 328.463 589.675L252.466 589.984L252.529 577.437C252.572 563.292 253.15 549.063 252.618 534.932Z"/>
	<path fill="#FEFEFD" d="M91.4445 677.596C98.7667 678.557 106.823 677.949 114.23 677.939L156.464 677.886L303.576 677.902Q513.081 678.804 722.578 676.752L827.375 675.35Q867.238 674.35 907.11 673.914C888.643 708.346 878.078 748.778 880.722 788.063L880.437 789.955C878.464 791.141 871.183 789.159 868.785 788.574C850.684 784.152 831.978 771.974 822.282 755.839C818.771 749.997 815.988 743.912 808.744 741.958C804.684 740.862 799.55 741.282 795.879 743.409C790.697 746.41 788.256 753.494 784.344 757.925C766.051 778.642 736.824 786.333 710.23 780.031C694.937 776.407 681.87 767.4 672.345 755.014C669.676 751.545 667.808 742.244 663.371 741.461C657.946 740.502 651.708 741.402 646.152 741.112C636.198 760.311 623.311 771.389 602.461 777.937C582.863 784.092 559.633 782.301 541.41 772.752C532.243 767.948 523.445 761.393 517.439 752.861C514.87 749.212 512.792 745.229 510.236 741.579C503.43 740.753 496.22 740.995 489.365 741.15L489.014 741.565C484.913 746.511 481.851 752.065 477.431 756.815C460.719 774.775 435.83 784.924 411.728 787.304C383.021 790.138 351.986 782.877 329.489 764.226C324.809 760.346 320.424 755.991 316.904 751.019C314.727 747.945 312.784 744.167 310.067 741.571C305.072 741.499 287.648 740.217 284.432 743.059C279.862 747.099 276.495 754.225 271.817 758.928C256.182 774.645 237.237 784.934 216.037 790.991C212.658 791.957 208.494 793.722 204.977 793.789C203.968 793.809 203.449 793.669 202.545 793.292C191.389 787.579 180.781 780.212 170.816 772.641C136.843 746.829 109.725 714.722 88.1618 677.951L91.4445 677.596Z"/>
	<path fill="#28E4C2" d="M489.365 741.15C496.22 740.995 503.43 740.753 510.236 741.579C512.792 745.229 514.87 749.212 517.439 752.861C523.445 761.393 532.243 767.948 541.41 772.752C559.633 782.301 582.863 784.092 602.461 777.937C623.311 771.389 636.198 760.311 646.152 741.112C651.708 741.402 657.946 740.502 663.371 741.461C667.808 742.244 669.676 751.545 672.345 755.014C681.87 767.4 694.937 776.407 710.23 780.031C736.824 786.333 766.051 778.642 784.344 757.925C788.256 753.494 790.697 746.41 795.879 743.409C799.55 741.282 804.684 740.862 808.744 741.958C815.988 743.912 818.771 749.997 822.282 755.839C831.978 771.974 850.684 784.152 868.785 788.574C871.183 789.159 878.464 791.141 880.437 789.955L880.722 788.063C881.032 789.711 880.977 790.35 882.466 791.351C889.631 796.174 905.785 796.45 913.985 794.482C931.437 790.293 933.375 773.247 948.926 773.053Q950.254 773.033 951.573 773.196Q952.891 773.359 954.175 773.7Q955.458 774.042 956.683 774.556Q957.908 775.071 959.051 775.748C963.578 778.395 966.964 782.688 970.721 786.274C980.593 795.697 994.85 796.978 1007.61 793.968C1013.26 792.636 1018.84 790.492 1024 787.844L1024 863.719L1024 881.581C1017.84 881.649 1012.04 881.208 1006.24 878.976C994.587 874.491 987.089 863.422 973.672 863.356C955.116 863.266 949.167 878.455 931.094 880.681C895.716 885.039 894.174 864.776 874.797 863.874C852.97 862.858 850.74 880.861 824.242 880.647C800.16 880.452 796.756 866.175 778.54 863.999C753.058 860.956 751.927 880.435 725.634 880.574C718.019 880.614 710.698 879.761 703.755 876.451C690.173 869.976 688.108 862.758 670.815 863.479C652.804 864.231 649.276 881.432 625.231 881.456C618.798 881.462 612.381 880.764 606.325 878.497C592.681 873.389 582.826 862.583 567.168 863.28C548.403 864.116 544.378 885.676 512.811 881.71C494.477 879.407 484.001 863.049 464.588 863.026C438.075 862.995 430.509 883.77 403.799 881.845C382.048 880.278 378.62 861.931 356.195 861.94C325.294 861.954 326.072 884.758 292.279 883.339C266.155 882.241 258.56 862.409 234.383 862.293C208.737 862.17 202.136 884.022 170.754 883.482C141.857 882.984 134.852 858.582 106.699 860.197C84.8988 861.447 75.3496 880.311 52.2043 882.432C32.2797 884.258 15.1261 876.837 0 864.324L0 846.05L0 788.2C19.4287 795.282 51.2532 800.265 70.7456 791.105C84.7429 784.527 89.6976 768.925 106.19 768.037C109.918 767.836 113.899 768.334 117.416 769.563C123.378 771.645 127.258 775.744 131.517 780.135C144.533 793.554 159.928 796.23 178.111 796.025C184.71 795.95 196.152 795.84 202.136 793.487C202.276 793.431 202.409 793.357 202.545 793.292C203.449 793.669 203.968 793.809 204.977 793.789C208.494 793.722 212.658 791.957 216.037 790.991C237.237 784.934 256.182 774.645 271.817 758.928C276.495 754.225 279.862 747.099 284.432 743.059C287.648 740.217 305.072 741.499 310.067 741.571C312.784 744.167 314.727 747.945 316.904 751.019C320.424 755.991 324.809 760.346 329.489 764.226C351.986 782.877 383.021 790.138 411.728 787.304C435.83 784.924 460.719 774.775 477.431 756.815C481.851 752.065 484.913 746.511 489.014 741.565L489.365 741.15Z"/>
	<path fill="#040404" d="M0 846.05C6.16614 849.691 11.8791 854.047 18.0433 857.641C29.6447 864.405 44.1805 867.377 57.3527 864.084C67.3209 861.591 74.0014 854.547 82.5677 849.445C97.7926 840.377 120.348 839.799 135.685 848.836C154.133 859.706 156.65 871.445 182.753 864.862C189.119 863.257 193.62 859.928 198.69 855.936C210.906 846.318 221.953 842.027 237.645 842.152C245.461 842.214 253.513 843.415 260.348 847.431C265.321 850.352 269.322 854.592 273.728 858.255C283.119 866.065 295.225 867.91 306.933 864.916C320.36 861.482 325.94 848.586 338.482 844.887C344.264 843.181 350.891 843.232 356.876 843.268C363.531 843.309 370.193 843.718 376.06 847.222C379.976 849.56 382.955 852.966 386.072 856.23C394.263 864.807 403.75 865.956 414.932 863.385C436.727 858.371 438.535 842.562 468.306 843.145C475.507 843.287 482.588 844.753 488.764 848.593C493.463 851.514 497.072 855.674 501.311 859.157C508.974 865.45 519.846 866.532 529.295 864.491C539.014 862.392 543.578 855.399 551.168 850.038C563.98 840.99 582.434 843.814 595.027 851.858C604.84 858.127 609.332 864.267 622.191 864.277C625.672 864.28 629.176 864.12 632.593 863.412C641.798 861.505 646.359 855.068 653.815 850.365C665.549 842.963 682.928 843.36 694.56 850.798C698.324 853.205 701.554 856.381 705.278 858.838C712.876 863.851 724.368 864.48 733.107 862.688C741.14 861.04 745.901 855.566 752.583 851.46C765.937 843.254 783.66 843.277 796.774 851.837C809.248 859.979 814.82 866.018 831.242 862.536C840.319 860.612 845.312 854.344 852.827 849.772C863.534 843.259 880.018 843.956 890.407 850.602C901.072 857.423 906.685 863.315 920.12 863.93C924.166 864.115 928.359 864.083 932.324 863.166C948.898 859.33 948.952 845.14 974.607 845.393C981.281 845.459 987.227 846.451 993.009 849.93C1005.82 857.64 1007.47 863.06 1024 863.719L1024 881.581C1017.84 881.649 1012.04 881.208 1006.24 878.976C994.587 874.491 987.089 863.422 973.672 863.356C955.116 863.266 949.167 878.455 931.094 880.681C895.716 885.039 894.174 864.776 874.797 863.874C852.97 862.858 850.74 880.861 824.242 880.647C800.16 880.452 796.756 866.175 778.54 863.999C753.058 860.956 751.927 880.435 725.634 880.574C718.019 880.614 710.698 879.761 703.755 876.451C690.173 869.976 688.108 862.758 670.815 863.479C652.804 864.231 649.276 881.432 625.231 881.456C618.798 881.462 612.381 880.764 606.325 878.497C592.681 873.389 582.826 862.583 567.168 863.28C548.403 864.116 544.378 885.676 512.811 881.71C494.477 879.407 484.001 863.049 464.588 863.026C438.075 862.995 430.509 883.77 403.799 881.845C382.048 880.278 378.62 861.931 356.195 861.94C325.294 861.954 326.072 884.758 292.279 883.339C266.155 882.241 258.56 862.409 234.383 862.293C208.737 862.17 202.136 884.022 170.754 883.482C141.857 882.984 134.852 858.582 106.699 860.197C84.8988 861.447 75.3496 880.311 52.2043 882.432C32.2797 884.258 15.1261 876.837 0 864.324L0 846.05Z"/>
	<path fill="#28E4C2" d="M0 864.324C15.1261 876.837 32.2797 884.258 52.2043 882.432C75.3496 880.311 84.8988 861.447 106.699 860.197C134.852 858.582 141.857 882.984 170.754 883.482C202.136 884.022 208.737 862.17 234.383 862.293C258.56 862.409 266.155 882.241 292.279 883.339C326.072 884.758 325.294 861.954 356.195 861.94C378.62 861.931 382.048 880.278 403.799 881.845C430.509 883.77 438.075 862.995 464.588 863.026C484.001 863.049 494.477 879.407 512.811 881.71C544.378 885.676 548.403 864.116 567.168 863.28C582.826 862.583 592.681 873.389 606.325 878.497C612.381 880.764 618.798 881.462 625.231 881.456C649.276 881.432 652.804 864.231 670.815 863.479C688.108 862.758 690.173 869.976 703.755 876.451C710.698 879.761 718.019 880.614 725.634 880.574C751.927 880.435 753.058 860.956 778.54 863.999C796.756 866.175 800.16 880.452 824.242 880.647C850.74 880.861 852.97 862.858 874.797 863.874C894.174 864.776 895.716 885.039 931.094 880.681C949.167 878.455 955.116 863.266 973.672 863.356C987.089 863.422 994.587 874.491 1006.24 878.976C1012.04 881.208 1017.84 881.649 1024 881.581L1024 958.523L1024 1024L0 1024L0 935.768L0 864.324Z"/>
	<path fill="#05688D" d="M0 864.324C15.1261 876.837 32.2797 884.258 52.2043 882.432C75.3496 880.311 84.8988 861.447 106.699 860.197C134.852 858.582 141.857 882.984 170.754 883.482C202.136 884.022 208.737 862.17 234.383 862.293C258.56 862.409 266.155 882.241 292.279 883.339C326.072 884.758 325.294 861.954 356.195 861.94C378.62 861.931 382.048 880.278 403.799 881.845C430.509 883.77 438.075 862.995 464.588 863.026C484.001 863.049 494.477 879.407 512.811 881.71C544.378 885.676 548.403 864.116 567.168 863.28C582.826 862.583 592.681 873.389 606.325 878.497C612.381 880.764 618.798 881.462 625.231 881.456C649.276 881.432 652.804 864.231 670.815 863.479C688.108 862.758 690.173 869.976 703.755 876.451C710.698 879.761 718.019 880.614 725.634 880.574C751.927 880.435 753.058 860.956 778.54 863.999C796.756 866.175 800.16 880.452 824.242 880.647C850.74 880.861 852.97 862.858 874.797 863.874C894.174 864.776 895.716 885.039 931.094 880.681C949.167 878.455 955.116 863.266 973.672 863.356C987.089 863.422 994.587 874.491 1006.24 878.976C1012.04 881.208 1017.84 881.649 1024 881.581L1024 958.523C1018.52 958.592 1013.14 958.543 1007.81 957.085C989.422 952.054 986.65 935.492 964.983 934.995C936.112 934.332 940.917 956.56 914.186 957.319C900.784 957.7 895.441 953.132 886.061 944.451C875.855 935.005 858.21 932.936 846.201 940.317C834.456 947.536 832.552 957.155 816.244 957.605C802.074 957.996 797.122 953.936 787.178 944.618C777.063 935.139 760.015 932.738 747.908 940.147C734.804 948.166 735.311 957.41 716.247 958.008C703.411 958.411 698.641 953.403 689.928 945.319C679.38 935.533 662.594 932.56 649.986 940.43C639.335 947.078 636.505 957.019 621.841 957.513C617.447 957.661 612.975 957.157 608.887 955.46C603.681 953.298 599.319 949.39 594.81 946.083C585.344 939.141 573.177 934.922 561.374 936.745C543.799 939.46 542.179 957.056 522.134 957.683C508.405 958.112 505.26 953.093 496.18 944.832C486.435 935.968 465.741 934.726 454.174 940.382C450.739 942.062 448.01 944.4 445.133 946.856C435.907 954.732 428.541 958.101 416.221 957.828C393.787 957.331 389.83 938.863 369.304 936.273C355.47 934.528 341.34 938.534 329.401 945.392C317.75 952.086 311.73 957.674 297.567 957.53C273.523 957.285 266.628 941.238 247.257 935.75C242.655 934.446 237.8 934.278 233.043 934.324C200.632 934.64 201.413 960.899 162.728 958.422C134.047 956.586 136.206 933.996 105.566 935.227C100.479 935.432 95.0621 936.035 90.3644 938.113C86.5715 939.79 83.5466 942.436 80.4418 945.113C71.3598 952.943 63.9925 956.713 51.8163 957.186C30.4308 958.016 15.3454 949.972 0 935.768L0 864.324Z"/>
</svg>
