<?xml version="1.0" encoding="utf-8" ?>
<svg xmlns="http://www.w3.org/2000/svg" xmlns:xlink="http://www.w3.org/1999/xlink" width="1024" height="1024">
	<path d="M0 0L1024 0L1024 1024L0 1024L0 0Z"/>
	<path fill="#FDFDFC" d="M383.056 724.508C384.078 724.463 385.094 724.427 386.112 724.56C388.386 724.858 390.604 726.125 391.968 727.98C393.307 729.801 393.637 732.06 393.13 734.237C392.437 737.215 390.409 738.83 387.965 740.426C386.612 740.544 385.172 740.725 383.83 740.45C381.678 740.009 379.613 738.493 378.484 736.62C377.34 734.721 377.161 732.455 377.749 730.341C378.562 727.417 380.557 725.986 383.056 724.508Z"/>
	<path fill="#FDFDFC" d="M791.692 364.51C792.993 364.524 794.181 364.66 795.432 365.046Q795.84 365.174 796.233 365.342Q796.626 365.511 797 365.72Q797.373 365.928 797.723 366.174Q798.073 366.419 798.397 366.7Q798.72 366.98 799.012 367.292Q799.305 367.604 799.564 367.944Q799.823 368.285 800.045 368.65Q800.268 369.015 800.452 369.401C801.365 371.333 801.413 373.522 800.686 375.523C799.649 378.382 797.608 379.562 794.955 380.728C793.389 380.677 791.574 380.787 790.103 380.194C788.031 379.358 786.173 377.523 785.313 375.466C784.478 373.464 784.583 371.233 785.51 369.283C786.801 366.566 789.005 365.523 791.692 364.51Z"/>
	<path fill="#FDFDFC" d="M215.021 632.086C215.937 632.151 216.866 632.215 217.771 632.378C220.363 632.847 222.513 634.3 223.879 636.557Q224.086 636.9 224.254 637.263Q224.422 637.626 224.55 638.005Q224.678 638.384 224.764 638.775Q224.849 639.166 224.892 639.564Q224.935 639.962 224.934 640.362Q224.933 640.762 224.888 641.16Q224.844 641.557 224.756 641.948Q224.669 642.338 224.539 642.717C223.536 645.73 221.257 647.206 218.535 648.508C217.068 648.568 215.31 648.649 213.91 648.141C211.591 647.299 209.627 645.23 208.776 642.933C207.997 640.829 208.027 638.532 209.048 636.513C210.33 633.975 212.411 632.885 215.021 632.086Z"/>
	<path fill="#FDFDFC" d="M785.944 622.552C787.319 622.401 788.811 622.183 790.185 622.382C792.642 622.737 795.042 624.428 796.344 626.519C797.488 628.359 797.881 630.575 797.327 632.68C796.556 635.612 794.668 637.105 792.169 638.598C790.928 638.837 789.735 639.026 788.467 638.889C786.198 638.643 784.067 637.561 782.667 635.733C781.212 633.832 780.759 631.37 781.187 629.039C781.753 625.956 783.514 624.328 785.944 622.552Z"/>
	<path fill="#FDFDFC" d="M636.506 270.531C638.043 270.445 639.736 270.248 641.24 270.64C643.574 271.249 645.712 272.943 646.834 275.075C647.762 276.838 648.003 278.979 647.379 280.88C646.423 283.791 644.542 285.297 641.907 286.655C640.409 286.795 638.776 287.021 637.295 286.683C635.203 286.206 633.273 284.807 632.155 282.98C630.944 281.001 630.673 278.731 631.286 276.499C632.11 273.498 633.949 272.08 636.506 270.531Z"/>
	<path fill="#FDFDFC" d="M83.0818 85.5658C84.4648 85.4918 86.0814 85.3198 87.4474 85.5792C89.6181 85.9914 91.6598 87.6836 92.8225 89.5049Q93.045 89.8584 93.2299 90.233Q93.4147 90.6076 93.5598 90.9993Q93.7049 91.391 93.8088 91.7955Q93.9126 92.2001 93.9741 92.6133Q94.0356 93.0264 94.0541 93.4437Q94.0725 93.861 94.0478 94.278Q94.023 94.695 93.9553 95.1071Q93.8876 95.5193 93.7776 95.9223C92.9102 99.0227 90.894 100.519 88.1642 101.946C87.0924 102.152 85.9593 102.394 84.8659 102.256C82.7659 101.991 80.5275 100.771 79.2649 99.0592C77.7009 96.9386 77.3002 94.2602 77.8872 91.7185C78.5912 88.6699 80.5675 87.1718 83.0818 85.5658Z"/>
	<path fill="#FDFDFC" d="M939.568 326.98C940.89 326.986 942.327 326.955 943.6 327.353C945.771 328.031 947.633 329.677 948.686 331.676Q948.879 332.048 949.035 332.438Q949.19 332.827 949.306 333.23Q949.423 333.633 949.499 334.046Q949.575 334.458 949.61 334.876Q949.645 335.294 949.639 335.713Q949.633 336.132 949.586 336.549Q949.538 336.966 949.45 337.376Q949.362 337.786 949.234 338.185C948.249 341.204 946.246 342.67 943.49 343.991C942.218 343.977 940.843 344.016 939.604 343.707C937.457 343.172 935.428 341.544 934.337 339.638Q934.122 339.264 933.947 338.869Q933.771 338.475 933.638 338.065Q933.504 337.654 933.414 337.232Q933.323 336.81 933.276 336.381Q933.23 335.952 933.227 335.521Q933.225 335.089 933.268 334.66Q933.31 334.23 933.396 333.807Q933.483 333.385 933.612 332.973C934.605 329.824 936.731 328.357 939.568 326.98Z"/>
	<path fill="#FDFDFC" d="M918.077 963.065C919.492 963.16 921.059 963.18 922.379 963.744C924.425 964.618 926.147 966.448 926.936 968.52C927.73 970.607 927.593 973.041 926.648 975.055C925.345 977.834 923.262 979.063 920.494 980.118C919.14 980.102 917.593 979.972 916.329 979.47C914.209 978.628 912.404 976.866 911.564 974.742Q911.404 974.344 911.285 973.931Q911.167 973.518 911.091 973.096Q911.016 972.673 910.984 972.245Q910.953 971.817 910.965 971.387Q910.978 970.958 911.034 970.533Q911.091 970.107 911.191 969.69Q911.292 969.272 911.434 968.867Q911.577 968.462 911.76 968.074C913.067 965.266 915.25 964.005 918.077 963.065Z"/>
	<path fill="#FDFDFC" d="M256.962 386.02C258.186 385.917 259.467 385.779 260.688 385.954C262.891 386.27 265.081 387.501 266.377 389.329C267.756 391.273 268.069 393.49 267.583 395.792C266.87 399.172 264.75 400.7 261.953 402.431C260.678 402.505 259.312 402.633 258.053 402.383C255.672 401.912 253.4 400.296 252.186 398.196C251.037 396.209 250.814 393.977 251.484 391.784C252.387 388.831 254.395 387.475 256.962 386.02Z"/>
	<path fill="#FDFDFC" d="M395.513 242.005C396.704 242.045 397.95 242.057 399.113 242.336C401.517 242.913 403.666 244.612 404.806 246.802Q405.003 247.184 405.157 247.586Q405.311 247.987 405.421 248.402Q405.532 248.818 405.596 249.243Q405.661 249.668 405.68 250.097Q405.699 250.527 405.671 250.956Q405.644 251.385 405.57 251.808Q405.497 252.232 405.378 252.645Q405.259 253.058 405.097 253.456C403.935 256.363 401.75 257.576 399.027 258.808C397.554 258.768 395.944 258.805 394.546 258.291C392.375 257.494 390.514 255.659 389.598 253.548Q389.433 253.165 389.309 252.768Q389.185 252.371 389.102 251.963Q389.019 251.554 388.979 251.14Q388.938 250.726 388.941 250.309Q388.943 249.893 388.988 249.479Q389.033 249.065 389.12 248.658Q389.208 248.251 389.337 247.855Q389.465 247.459 389.634 247.078C390.849 244.369 392.859 243.1 395.513 242.005Z"/>
	<path fill="#FDFDFC" d="M923.964 73.02C925.097 72.8817 926.364 72.7995 927.497 72.9594C929.819 73.2866 932.268 74.8271 933.535 76.7992C934.852 78.8467 935.125 81.1927 934.558 83.5366C933.781 86.7457 931.664 88.2776 928.962 89.8929C927.52 90.1369 925.839 90.3397 924.396 90.0052C922.247 89.5071 920.343 88.0683 919.219 86.1783C918.008 84.1429 917.77 81.6534 918.367 79.3831C919.224 76.1233 921.156 74.6403 923.964 73.02Z"/>
	<path fill="#FDFDFC" d="M66.0693 951.037C67.5532 951.006 69.2094 951.107 70.6054 951.654C72.7098 952.478 74.5412 954.194 75.4353 956.276Q75.6065 956.672 75.7375 957.082Q75.8685 957.493 75.9581 957.914Q76.0476 958.336 76.0948 958.764Q76.142 959.193 76.1463 959.624Q76.1506 960.055 76.1121 960.484Q76.0735 960.913 75.9925 961.337Q75.9114 961.76 75.7887 962.173Q75.6659 962.586 75.5027 962.985C74.296 965.943 71.9983 967.436 69.1376 968.567C67.7018 968.607 66.0377 968.633 64.6701 968.144Q64.2348 967.985 63.8188 967.781Q63.4028 967.576 63.0107 967.329Q62.6187 967.082 62.255 966.795Q61.8914 966.507 61.5602 966.183Q61.229 965.859 60.9341 965.501Q60.6391 965.144 60.3836 964.757Q60.1282 964.37 59.9151 963.959Q59.7021 963.547 59.5338 963.115Q59.3765 962.7 59.2617 962.271Q59.1469 961.842 59.0757 961.404Q59.0045 960.966 58.9776 960.523Q58.9508 960.08 58.9685 959.636Q58.9863 959.193 59.0485 958.753Q59.1107 958.314 59.2167 957.883Q59.3227 957.452 59.4715 957.033Q59.6202 956.615 59.8102 956.214C61.1412 953.338 63.24 952.171 66.0693 951.037Z"/>
	<path fill="#FDFDFC" d="M752.699 504.235Q777.654 504.174 802.606 504.613C802.51 508.99 802.578 513.379 802.577 517.757L795.108 517.794L744.825 518.005L744.793 504.53L752.699 504.235Z"/>
	<path fill="#FDFDFC" d="M247.015 506.251Q260.997 506.184 274.977 506.401C273.593 510.723 272.259 515.023 271.136 519.424L235.75 519.297L207.403 519.201L207.412 506.318C220.604 506.119 233.82 506.267 247.015 506.251Z"/>
	<path fill="#FDFDFC" d="M501.867 236.625C506.028 236.805 510.111 236.757 514.271 236.562C514.821 265.849 514.457 295.201 514.375 324.495C510.221 324.702 506.005 324.542 501.844 324.526C500.909 295.311 501.813 265.868 501.867 236.625Z"/>
	<path fill="#E0C308" d="M501.022 625.468C505.522 625.35 510.015 625.42 514.516 625.485C514.894 644.948 514.63 664.475 514.666 683.946C514.713 709.26 514.971 734.596 514.669 759.908C510.165 760.16 505.529 759.938 501.011 759.942L501.022 625.468Z"/>
	<path fill="#FDFDFC" d="M388.413 923.17C393.825 923.168 398.616 923.986 403.3 926.927Q403.84 927.263 404.363 927.626Q404.885 927.989 405.388 928.378Q405.892 928.767 406.374 929.182Q406.857 929.596 407.318 930.034Q407.779 930.473 408.217 930.934Q408.655 931.396 409.069 931.879Q409.483 932.362 409.872 932.865Q410.26 933.369 410.623 933.892Q410.985 934.415 411.321 934.955Q411.656 935.496 411.964 936.053Q412.271 936.61 412.55 937.182Q412.828 937.753 413.077 938.339Q413.327 938.924 413.546 939.522Q413.764 940.119 413.953 940.727Q414.141 941.334 414.298 941.951Q414.455 942.567 414.58 943.191C415.855 949.712 414.392 956.843 410.479 962.233C405.985 968.424 399.476 971.269 392.123 972.345Q391.039 972.434 389.952 972.427Q388.865 972.42 387.783 972.316Q386.701 972.212 385.632 972.013Q384.563 971.813 383.516 971.519Q382.469 971.226 381.453 970.84Q380.436 970.455 379.458 969.98Q378.479 969.506 377.547 968.946Q376.615 968.387 375.736 967.747Q375.245 967.392 374.772 967.013Q374.3 966.633 373.847 966.231Q373.394 965.828 372.962 965.403Q372.53 964.978 372.12 964.532Q371.71 964.086 371.323 963.62Q370.936 963.153 370.573 962.668Q370.21 962.183 369.872 961.68Q369.534 961.177 369.222 960.658Q368.909 960.139 368.624 959.604Q368.338 959.07 368.079 958.522Q367.821 957.974 367.59 957.413Q367.36 956.853 367.158 956.282Q366.956 955.71 366.783 955.13Q366.61 954.549 366.466 953.96Q366.323 953.372 366.209 952.776Q366.095 952.181 366.012 951.581Q365.914 950.95 365.848 950.314Q365.782 949.679 365.748 949.041Q365.715 948.403 365.713 947.764Q365.712 947.125 365.743 946.487Q365.774 945.849 365.837 945.213Q365.901 944.578 365.996 943.946Q366.091 943.314 366.219 942.688Q366.346 942.062 366.505 941.443Q366.664 940.824 366.853 940.214Q367.043 939.604 367.264 939.005Q367.484 938.405 367.735 937.818Q367.986 937.23 368.266 936.656Q368.546 936.082 368.854 935.522Q369.163 934.963 369.5 934.42Q369.837 933.877 370.2 933.352Q370.564 932.827 370.954 932.321C375.364 926.675 381.478 924.042 388.413 923.17Z"/>
	<path fill="#FDFDFC" d="M103.537 323.625C108.367 323.288 112.938 323.994 117.3 326.184Q117.867 326.471 118.419 326.786Q118.971 327.101 119.506 327.444Q120.041 327.787 120.558 328.157Q121.074 328.527 121.572 328.922Q122.069 329.318 122.546 329.738Q123.023 330.159 123.477 330.603Q123.932 331.047 124.363 331.513Q124.795 331.98 125.202 332.468Q125.609 332.955 125.991 333.463Q126.373 333.971 126.728 334.498Q127.084 335.025 127.412 335.569Q127.741 336.113 128.041 336.673Q128.341 337.233 128.612 337.808Q128.884 338.383 129.125 338.97Q129.367 339.558 129.579 340.158Q129.79 340.757 129.971 341.366Q130.149 341.973 130.295 342.589Q130.442 343.205 130.557 343.827Q130.673 344.449 130.757 345.076Q130.841 345.704 130.893 346.334Q130.945 346.965 130.965 347.597Q130.985 348.23 130.973 348.863Q130.961 349.495 130.917 350.127Q130.874 350.758 130.798 351.386Q130.722 352.015 130.615 352.638Q130.508 353.262 130.369 353.879Q130.23 354.497 130.061 355.107Q129.891 355.716 129.691 356.317Q129.49 356.917 129.26 357.506Q129.03 358.096 128.77 358.673Q128.51 359.25 128.221 359.813Q127.933 360.376 127.616 360.924C123.703 367.783 117.84 371.069 110.452 373.017C104.783 373.608 99.5075 372.902 94.4719 370.052Q93.9289 369.743 93.4021 369.408Q92.8754 369.072 92.3662 368.711Q91.8571 368.349 91.3668 367.962Q90.8766 367.575 90.4065 367.164Q89.9364 366.753 89.4876 366.319Q89.0389 365.884 88.6127 365.428Q88.1864 364.971 87.7837 364.494Q87.3811 364.016 87.003 363.519Q86.6249 363.022 86.2724 362.507Q85.9199 361.991 85.5939 361.458Q85.2679 360.926 84.9692 360.377Q84.6705 359.829 84.3998 359.266Q84.1291 358.703 83.8872 358.127Q83.6453 357.552 83.4328 356.964Q83.2202 356.377 83.0376 355.78Q82.8549 355.183 82.7027 354.577C81.0052 347.982 82.0807 340.508 85.7447 334.746C89.8753 328.25 96.295 325.179 103.537 323.625Z"/>
	<path fill="#FDFDFC" d="M943.663 685.571C948.575 685.264 953.226 685.898 957.674 688.11Q958.248 688.396 958.807 688.71Q959.366 689.025 959.908 689.368Q960.449 689.71 960.973 690.081Q961.497 690.451 962.001 690.847Q962.505 691.244 962.988 691.665Q963.471 692.087 963.932 692.533Q964.392 692.979 964.83 693.448Q965.267 693.917 965.68 694.407Q966.093 694.898 966.48 695.41Q966.867 695.921 967.227 696.451Q967.587 696.982 967.92 697.53Q968.253 698.078 968.557 698.642Q968.861 699.207 969.136 699.786Q969.411 700.365 969.656 700.958Q969.901 701.551 970.115 702.155Q970.329 702.76 970.512 703.374C972.437 709.904 971.567 717.362 968.108 723.238C964.276 729.749 958.395 733.057 951.348 735.004C945.448 735.91 939.559 735.196 934.355 732.115Q933.816 731.789 933.294 731.436Q932.773 731.083 932.27 730.704Q931.767 730.325 931.284 729.92Q930.801 729.516 930.339 729.087Q929.877 728.659 929.438 728.207Q928.999 727.756 928.583 727.282Q928.167 726.809 927.776 726.315Q927.385 725.821 927.02 725.308Q926.655 724.795 926.316 724.264Q925.978 723.733 925.667 723.185Q925.356 722.637 925.073 722.074Q924.79 721.511 924.537 720.934Q924.283 720.358 924.059 719.769Q923.836 719.18 923.642 718.581Q923.449 717.981 923.286 717.373Q923.123 716.764 922.992 716.148Q922.854 715.52 922.747 714.885Q922.64 714.251 922.564 713.613Q922.489 712.974 922.445 712.332Q922.401 711.69 922.388 711.047Q922.376 710.404 922.396 709.761Q922.415 709.118 922.466 708.477Q922.517 707.836 922.6 707.198Q922.683 706.56 922.797 705.927Q922.911 705.294 923.056 704.667Q923.201 704.041 923.377 703.422Q923.553 702.803 923.759 702.194Q923.965 701.585 924.201 700.986Q924.437 700.388 924.702 699.802Q924.968 699.216 925.261 698.644Q925.555 698.072 925.877 697.515Q926.198 696.958 926.547 696.417C930.637 690.107 936.557 687.141 943.663 685.571Z"/>
	<path fill="#FDFDFC" d="M86.2953 670.142C91.2819 669.742 96.302 670.597 100.756 672.934Q101.316 673.228 101.861 673.55Q102.406 673.873 102.933 674.222Q103.461 674.571 103.971 674.946Q104.48 675.322 104.97 675.723Q105.46 676.123 105.929 676.548Q106.398 676.973 106.845 677.421Q107.291 677.87 107.715 678.34Q108.139 678.81 108.538 679.301Q108.938 679.792 109.312 680.302Q109.686 680.812 110.034 681.341Q110.381 681.87 110.702 682.415Q111.023 682.961 111.316 683.522Q111.608 684.083 111.872 684.658Q112.136 685.233 112.371 685.821Q112.606 686.409 112.81 687.008Q113.015 687.607 113.189 688.215Q113.358 688.814 113.496 689.42Q113.634 690.026 113.741 690.639Q113.848 691.251 113.924 691.869Q113.999 692.486 114.043 693.106Q114.088 693.726 114.1 694.348Q114.113 694.97 114.094 695.591Q114.075 696.213 114.024 696.833Q113.974 697.453 113.891 698.069Q113.809 698.685 113.696 699.297Q113.583 699.908 113.438 700.513Q113.294 701.118 113.119 701.715Q112.944 702.311 112.739 702.898Q112.534 703.485 112.299 704.061Q112.065 704.637 111.801 705.2Q111.537 705.764 111.245 706.313Q110.954 706.862 110.634 707.395C106.617 714.084 100.387 717.611 93.0491 719.495C86.3127 719.901 80.3953 719.333 74.654 715.349Q74.146 714.993 73.6564 714.613Q73.1667 714.232 72.6966 713.828Q72.2264 713.423 71.7769 712.996Q71.3275 712.569 70.8998 712.12Q70.4721 711.671 70.0673 711.201Q69.6625 710.731 69.2815 710.242Q68.9005 709.752 68.5443 709.245Q68.1881 708.737 67.8576 708.212Q67.5271 707.687 67.2231 707.147Q66.9191 706.606 66.6423 706.052Q66.3655 705.497 66.1166 704.928Q65.8677 704.36 65.6474 703.781Q65.4271 703.201 65.2358 702.611Q65.0446 702.021 64.8829 701.422Q64.7212 700.824 64.5895 700.218Q64.4578 699.612 64.3563 699Q64.2501 698.374 64.1756 697.744Q64.1011 697.113 64.0584 696.48Q64.0158 695.847 64.0052 695.212Q63.9946 694.578 64.016 693.943Q64.0375 693.309 64.0909 692.676Q64.1443 692.044 64.2295 691.415Q64.3147 690.786 64.4316 690.162Q64.5485 689.538 64.6967 688.921Q64.8449 688.304 65.024 687.695Q65.2032 687.086 65.4128 686.487Q65.6225 685.888 65.8621 685.3Q66.1017 684.712 66.3706 684.137Q66.6396 683.562 66.9372 683.001Q67.2348 682.441 67.5603 681.896Q67.8858 681.351 68.2384 680.823Q68.591 680.295 68.9698 679.786C73.3191 673.933 79.2577 671.158 86.2953 670.142Z"/>
	<path fill="#FDFDFC" d="M365.112 104.594C370.916 104.402 375.878 104.943 381.035 107.974Q381.589 108.303 382.126 108.66Q382.663 109.017 383.182 109.4Q383.7 109.783 384.199 110.192Q384.697 110.601 385.175 111.034Q385.652 111.468 386.107 111.925Q386.561 112.382 386.993 112.861Q387.424 113.34 387.831 113.84Q388.237 114.341 388.618 114.861Q388.999 115.381 389.353 115.92Q389.707 116.459 390.034 117.015Q390.36 117.57 390.659 118.142Q390.957 118.714 391.226 119.299Q391.495 119.885 391.734 120.484Q391.973 121.083 392.182 121.693Q392.391 122.303 392.569 122.922Q392.747 123.542 392.893 124.17Q393.035 124.78 393.146 125.397Q393.257 126.014 393.338 126.635Q393.418 127.257 393.467 127.881Q393.516 128.506 393.534 129.132Q393.551 129.759 393.537 130.385Q393.524 131.012 393.479 131.637Q393.433 132.262 393.357 132.883Q393.281 133.505 393.173 134.123Q393.066 134.74 392.928 135.351Q392.79 135.962 392.621 136.566Q392.452 137.169 392.254 137.764Q392.055 138.358 391.827 138.942Q391.599 139.525 391.342 140.097Q391.085 140.668 390.799 141.226Q390.514 141.784 390.201 142.327Q389.888 142.87 389.548 143.396C385.405 149.951 379.352 153.287 371.967 154.905C365.909 155.641 360.062 154.599 354.853 151.293Q354.334 150.963 353.832 150.608Q353.33 150.252 352.846 149.873Q352.362 149.493 351.898 149.089Q351.433 148.686 350.99 148.26Q350.546 147.834 350.124 147.387Q349.701 146.94 349.302 146.472Q348.903 146.004 348.527 145.517Q348.151 145.03 347.8 144.525Q347.449 144.02 347.124 143.498Q346.798 142.976 346.499 142.439Q346.199 141.902 345.927 141.35Q345.655 140.798 345.41 140.234Q345.166 139.67 344.95 139.094Q344.733 138.518 344.546 137.932Q344.359 137.346 344.201 136.752Q344.042 136.158 343.914 135.556Q343.778 134.929 343.673 134.297Q343.568 133.664 343.494 133.027Q343.42 132.39 343.378 131.75Q343.336 131.111 343.325 130.469Q343.314 129.828 343.335 129.187Q343.356 128.547 343.408 127.907Q343.46 127.268 343.544 126.633Q343.628 125.997 343.743 125.366Q343.857 124.735 344.003 124.111Q344.149 123.486 344.326 122.87Q344.502 122.253 344.708 121.646Q344.915 121.039 345.151 120.443Q345.387 119.847 345.653 119.263Q345.918 118.679 346.211 118.109Q346.505 117.539 346.826 116.984Q347.148 116.429 347.496 115.891C351.673 109.525 357.821 106.124 365.112 104.594Z"/>
	<path fill="#FDFDFC" d="M648.928 893.582C654.305 893.139 659.26 893.346 664.266 895.544C670.609 898.329 675.399 903.721 677.764 910.202Q677.985 910.799 678.175 911.406Q678.365 912.014 678.524 912.63Q678.683 913.247 678.81 913.871Q678.936 914.494 679.031 915.124Q679.125 915.753 679.188 916.387Q679.25 917.021 679.279 917.656Q679.308 918.292 679.305 918.929Q679.302 919.565 679.266 920.201Q679.23 920.836 679.161 921.469Q679.093 922.102 678.991 922.731Q678.89 923.359 678.757 923.981Q678.624 924.604 678.459 925.219Q678.294 925.833 678.097 926.439Q677.901 927.045 677.674 927.639Q677.446 928.234 677.189 928.816Q676.931 929.398 676.644 929.966C672.96 937.279 667.04 941.147 659.516 943.628C653.698 944.769 647.575 944.135 642.278 941.392Q641.719 941.103 641.175 940.786Q640.631 940.47 640.104 940.126Q639.576 939.783 639.067 939.414Q638.557 939.044 638.066 938.65Q637.575 938.256 637.105 937.838Q636.635 937.42 636.186 936.979Q635.737 936.538 635.31 936.075Q634.884 935.612 634.481 935.128Q634.078 934.645 633.7 934.142Q633.321 933.639 632.968 933.118Q632.616 932.597 632.289 932.058Q631.963 931.52 631.664 930.966Q631.365 930.413 631.094 929.845Q630.822 929.277 630.58 928.696Q630.337 928.115 630.124 927.523Q629.911 926.931 629.727 926.329Q629.54 925.711 629.383 925.085Q629.226 924.459 629.1 923.826Q628.975 923.193 628.88 922.555Q628.786 921.916 628.723 921.274Q628.66 920.631 628.628 919.987Q628.597 919.342 628.597 918.697Q628.597 918.051 628.63 917.406Q628.662 916.762 628.725 916.12Q628.789 915.477 628.884 914.839Q628.979 914.201 629.106 913.568Q629.232 912.935 629.39 912.309Q629.547 911.683 629.735 911.065Q629.923 910.448 630.141 909.841Q630.359 909.233 630.607 908.637Q630.855 908.041 631.131 907.458Q631.408 906.875 631.713 906.306C635.49 899.336 641.562 895.718 648.928 893.582Z"/>
	<path fill="#E0C308" d="M374.346 624.233L382.043 624.111L298.308 719.451L278.576 741.925C275.065 745.939 271.561 750.713 267.452 754.1C264.361 751.418 261.373 748.608 258.352 745.848Q293.786 706.649 328.31 666.647C340.539 652.629 352.449 637.417 365.809 624.488L374.346 624.233Z"/>
	<path fill="#FDFDFC" d="M660.184 60.0803C666.336 59.543 672.495 60.8128 677.723 64.1804Q678.242 64.513 678.744 64.871Q679.246 65.229 679.73 65.6115Q680.214 65.994 680.677 66.4Q681.141 66.806 681.585 67.2345Q682.028 67.663 682.45 68.1131Q682.871 68.563 683.27 69.0334Q683.668 69.5038 684.043 69.9933Q684.418 70.4829 684.768 70.9905Q685.118 71.498 685.442 72.0224Q685.767 72.5467 686.065 73.0864Q686.363 73.6262 686.634 74.1801Q686.905 74.734 687.148 75.3007Q687.391 75.8673 687.605 76.4453Q687.82 77.0233 688.005 77.6113Q688.191 78.1993 688.347 78.7957Q688.504 79.3921 688.63 79.9956C690.1 86.8246 688.98 94.0603 685.111 99.9217C680.809 106.438 674.564 109.855 667.114 111.465C660.881 111.901 655.215 111.254 649.793 107.846Q649.245 107.5 648.716 107.128Q648.186 106.756 647.675 106.358Q647.164 105.96 646.674 105.537Q646.183 105.114 645.714 104.667Q645.245 104.221 644.799 103.752Q644.353 103.282 643.931 102.792Q643.508 102.301 643.11 101.79Q642.713 101.279 642.341 100.749Q641.969 100.219 641.624 99.6706Q641.279 99.1228 640.961 98.5585Q640.643 97.9942 640.354 97.4149Q640.065 96.8356 639.804 96.2427Q639.544 95.6497 639.313 95.0447Q639.083 94.4396 638.882 93.8238Q638.682 93.2081 638.512 92.5832Q638.343 91.9583 638.204 91.3257Q638.076 90.6893 637.98 90.0473Q637.884 89.4053 637.82 88.7593Q637.756 88.1134 637.724 87.465Q637.692 86.8167 637.693 86.1676Q637.693 85.5185 637.725 84.8702Q637.758 84.2218 637.822 83.5759Q637.887 82.93 637.983 82.2881Q638.08 81.6462 638.208 81.0099Q638.336 80.3735 638.495 79.7443Q638.655 79.1151 638.845 78.4946Q639.036 77.874 639.257 77.2637Q639.478 76.6534 639.729 76.0548Q639.98 75.4561 640.261 74.8707Q640.541 74.2853 640.85 73.7144Q641.159 73.1436 641.496 72.5888Q641.833 72.034 642.197 71.4966C646.505 65.1032 652.767 61.5881 660.184 60.0803Z"/>
	<path fill="#E0C308" d="M632.946 624.337Q640.941 624.154 648.937 624.182C655.035 630.228 660.64 636.937 666.342 643.357L699.477 681.037L739.27 726.046C745.475 733.049 752.06 739.792 757.994 747.016C754.645 749.386 751.084 752.026 748.238 754.973C743.205 750.225 738.704 744.439 734.142 739.234L707.794 709.214C682.82 680.961 657.223 653.193 632.946 624.337Z"/>
	<path fill="#FDFDFC" d="M269.042 269.041C277.329 273.025 285.34 280.279 292.721 285.829L323.347 308.546L372.257 345.382C382.062 352.741 392.539 359.646 401.461 368.071C398.909 371.199 395.887 374.076 393.105 377.009C386.049 373.058 379.638 367.438 373.223 362.544L344.971 341.386L293.329 302.598C282.321 294.368 270.803 286.414 260.379 277.467L269.042 269.041Z"/>
	<path fill="#FDFDFC" d="M627.137 737.696Q628.229 737.697 629.318 737.784Q630.406 737.871 631.485 738.044Q632.563 738.216 633.625 738.472Q634.687 738.729 635.725 739.067Q636.763 739.406 637.771 739.826Q638.78 740.245 639.752 740.742Q640.725 741.24 641.655 741.812Q642.585 742.384 643.468 743.027Q643.991 743.417 644.494 743.832Q644.997 744.247 645.479 744.687Q645.961 745.126 646.421 745.589Q646.88 746.052 647.316 746.538Q647.752 747.023 648.164 747.529Q648.575 748.036 648.961 748.562Q649.346 749.088 649.706 749.632Q650.065 750.177 650.396 750.738Q650.728 751.3 651.032 751.878Q651.335 752.455 651.609 753.047Q651.884 753.639 652.129 754.243Q652.373 754.848 652.588 755.464Q652.802 756.08 652.986 756.706Q653.169 757.332 653.322 757.966Q653.474 758.601 653.595 759.242Q653.715 759.883 653.804 760.529Q653.897 761.19 653.957 761.854Q654.017 762.519 654.044 763.185Q654.07 763.852 654.063 764.519Q654.057 765.186 654.017 765.852Q653.977 766.518 653.903 767.181Q653.83 767.844 653.724 768.503Q653.617 769.162 653.478 769.814Q653.339 770.467 653.168 771.112Q652.996 771.756 652.793 772.392Q652.589 773.027 652.354 773.651Q652.119 774.276 651.853 774.888Q651.587 775.5 651.291 776.097Q650.995 776.695 650.669 777.277Q650.343 777.86 649.989 778.425Q649.634 778.99 649.252 779.537Q648.87 780.084 648.461 780.611C643.314 787.332 636.708 790.325 628.55 791.443C622.612 791.325 617.14 790.044 612.196 786.558Q611.648 786.167 611.12 785.749Q610.593 785.331 610.087 784.886Q609.582 784.442 609.1 783.972Q608.617 783.503 608.16 783.009Q607.702 782.515 607.27 781.999Q606.838 781.483 606.433 780.945Q606.028 780.408 605.65 779.85Q605.273 779.293 604.925 778.717Q604.576 778.141 604.258 777.548Q603.939 776.955 603.651 776.346Q603.363 775.738 603.106 775.116Q602.85 774.493 602.625 773.859Q602.401 773.224 602.208 772.579Q602.016 771.934 601.857 771.28Q601.698 770.626 601.573 769.964Q601.448 769.303 601.356 768.636C600.361 761.332 602.065 753.87 606.68 748.041C611.936 741.403 619.028 738.646 627.137 737.696Z"/>
	<path fill="#FDFDFC" d="M745.32 269.916C748.032 270.826 752.353 276.621 754.446 278.823C733.153 296.594 709.709 312.313 687.282 328.628C663.551 345.892 640.417 363.912 616.288 380.643C613.321 379.581 609.559 373.682 607.479 371.079C629.617 353.954 652.459 337.777 674.884 321.036C698.005 303.776 721.078 285.58 745.32 269.916Z"/>
	<path fill="#08D6D8" d="M501.352 92.2002C501.526 92.1753 501.699 92.1449 501.873 92.1256C519.445 90.1776 538.189 96.4887 551.976 107.263C566.739 118.8 575.709 136.006 577.944 154.506Q578.157 156.234 578.284 157.97Q578.411 159.706 578.453 161.446Q578.495 163.187 578.45 164.927Q578.406 166.667 578.276 168.403Q578.146 170.139 577.931 171.866Q577.715 173.594 577.415 175.308Q577.114 177.023 576.73 178.721Q576.345 180.419 575.877 182.095Q575.409 183.772 574.859 185.424Q574.309 187.075 573.679 188.698Q573.048 190.32 572.338 191.91Q571.628 193.499 570.84 195.052Q570.053 196.604 569.19 198.116Q568.327 199.628 567.39 201.095Q566.453 202.562 565.445 203.982Q564.438 205.401 563.361 206.769C550.854 222.573 534.008 231.538 514.118 233.903C495.717 235.199 477.558 230.13 463.115 218.498Q461.724 217.394 460.391 216.221Q459.057 215.049 457.785 213.81Q456.512 212.572 455.303 211.271Q454.095 209.97 452.954 208.61Q451.812 207.25 450.741 205.834Q449.669 204.418 448.67 202.95Q447.672 201.481 446.748 199.965Q445.825 198.448 444.979 196.887Q444.133 195.326 443.367 193.724Q442.601 192.122 441.917 190.483Q441.233 188.845 440.632 187.174Q440.031 185.503 439.515 183.804Q438.999 182.105 438.57 180.382Q438.14 178.659 437.798 176.916Q437.456 175.174 437.202 173.416Q436.948 171.659 436.783 169.891Q436.606 168.169 436.513 166.441Q436.42 164.712 436.413 162.982Q436.405 161.251 436.482 159.522Q436.56 157.792 436.722 156.069Q436.884 154.346 437.13 152.633Q437.377 150.919 437.707 149.22Q438.038 147.521 438.451 145.84Q438.864 144.16 439.359 142.501Q439.855 140.843 440.431 139.21Q441.007 137.578 441.663 135.976Q442.318 134.374 443.051 132.807Q443.785 131.239 444.594 129.709Q445.404 128.179 446.287 126.69Q447.171 125.202 448.126 123.759Q449.082 122.316 450.107 120.921Q451.133 119.527 452.225 118.184Q453.357 116.806 454.556 115.485Q455.754 114.165 457.017 112.905Q458.28 111.646 459.604 110.45Q460.927 109.255 462.309 108.127Q463.69 106.998 465.125 105.94Q466.561 104.882 468.047 103.896Q469.534 102.91 471.067 101.999Q472.6 101.088 474.177 100.254Q475.753 99.4201 477.369 98.6654Q478.985 97.9107 480.637 97.2371Q482.288 96.5635 483.971 95.9725Q485.654 95.3816 487.364 94.8748Q489.074 94.368 490.807 93.9466Q492.54 93.5253 494.291 93.1903Q496.043 92.8554 497.809 92.6077Q499.576 92.36 501.352 92.2002Z"/>
	<path fill="#FDFDFC" d="M508.447 150.585C510.732 150.501 512.96 150.684 515.093 151.582Q515.674 151.832 516.226 152.14Q516.778 152.449 517.294 152.813Q517.811 153.178 518.287 153.594Q518.763 154.01 519.193 154.474Q519.623 154.937 520.002 155.443Q520.382 155.949 520.706 156.492Q521.031 157.034 521.297 157.608Q521.564 158.181 521.769 158.779C523.238 162.985 523.07 168.224 520.935 172.18C518.843 176.057 516.145 177.356 512.059 178.543C508.759 178.559 505.857 178.705 502.902 176.928C499.793 175.06 497.818 172.176 497.043 168.647C496.152 164.594 496.531 159.896 498.846 156.361C501.218 152.74 504.357 151.441 508.447 150.585Z"/>
	<path fill="#08D6D8" d="M507.491 157.462C509.612 157.35 511.443 157.371 513.08 158.923C514.462 160.234 515.231 162.22 515.215 164.113C515.189 167.334 514.003 169.541 511.713 171.696C511.509 171.737 511.307 171.786 511.102 171.818C509.435 172.081 507.937 172.033 506.57 170.925C504.929 169.595 504.289 167.463 504.269 165.42C504.236 162.012 505.158 159.872 507.491 157.462Z"/>
	<path fill="#FDFDFC" d="M543.109 141.488L550.952 141.42C550.875 146.846 551.853 175.761 549.85 178.122C546.288 179.999 546.369 177.18 543.482 176.936C540.713 176.703 539.338 179.32 533.584 178.304C530.494 176.771 528.23 175.274 526.494 172.192C524.367 168.415 524.02 163.768 525.287 159.644C526.312 156.31 528.469 153.352 531.677 151.848C535.721 149.952 539.059 150.729 543.053 152.086L543.109 141.488Z"/>
	<path fill="#08D6D8" d="M535.94 157.312C536.487 157.275 536.691 157.249 537.284 157.278C538.989 157.36 540.266 157.846 541.429 159.131C542.939 160.799 543.528 163.115 543.329 165.323C543.051 168.409 542.121 169.868 539.75 171.755C539.607 171.768 539.464 171.787 539.32 171.792C537.455 171.848 535.734 171.499 534.352 170.136C532.923 168.725 532.338 166.89 532.361 164.909C532.4 161.636 533.612 159.494 535.94 157.312Z"/>
	<path fill="#FDFDFC" d="M488.562 141.145C489.727 141.088 490.711 141.14 491.86 141.337C493.127 143.247 492.857 174.295 492.356 178.106C491.755 178.583 491.549 178.892 490.748 178.994C488.917 179.226 487.774 178.124 486.435 177.062C484.704 175.688 481.222 178.567 479.18 178.754C476.862 178.967 474.38 177.979 472.259 177.17C469.543 175.059 467.851 172.987 466.774 169.672C465.451 165.601 465.713 160.818 467.713 157.009C469.152 154.267 471.604 152.056 474.588 151.149C478.735 149.888 481.819 151.004 485.441 153.019C485.465 150.281 484.393 145.161 485.631 142.811C486.354 141.439 487.196 141.51 488.562 141.145Z"/>
	<path fill="#08D6D8" d="M478.508 156.906C478.717 156.932 478.928 156.948 479.135 156.983C481.177 157.326 482.929 158.213 484.136 159.932C485.463 161.823 485.751 164.064 485.217 166.287C484.534 169.131 482.94 170.665 480.519 172.137C479.9 172.13 479.106 172.167 478.49 172.022C476.858 171.636 475.578 170.641 474.718 169.22C473.511 167.224 473.314 164.961 473.859 162.719C474.577 159.763 475.926 158.379 478.508 156.906Z"/>
	<path fill="#08D6D8" d="M502.361 769.202C519.905 767.67 539.71 775.53 553.051 786.642Q554.409 787.783 555.709 788.99Q557.009 790.196 558.247 791.466Q559.486 792.735 560.66 794.064Q561.835 795.393 562.942 796.778Q564.049 798.164 565.087 799.602Q566.124 801.041 567.09 802.529Q568.055 804.016 568.945 805.55Q569.836 807.084 570.65 808.66Q571.463 810.236 572.198 811.85Q572.933 813.464 573.587 815.113Q574.241 816.761 574.813 818.44Q575.385 820.119 575.874 821.824Q576.362 823.529 576.766 825.256Q577.169 826.983 577.487 828.728Q577.805 830.473 578.036 832.231Q578.267 833.989 578.411 835.757Q578.575 837.525 578.651 839.299Q578.727 841.072 578.715 842.848Q578.704 844.623 578.604 846.396Q578.505 848.168 578.318 849.934Q578.131 851.7 577.857 853.454Q577.583 855.208 577.223 856.946Q576.863 858.685 576.417 860.403Q575.971 862.122 575.441 863.816Q574.911 865.511 574.297 867.177Q573.684 868.843 572.989 870.477Q572.294 872.111 571.519 873.708Q570.745 875.305 569.892 876.863Q569.039 878.42 568.11 879.933Q567.181 881.446 566.179 882.911Q565.176 884.377 564.103 885.791Q563.029 887.205 561.887 888.564Q560.736 889.916 559.52 891.21Q558.304 892.505 557.025 893.737Q555.746 894.97 554.409 896.138Q553.071 897.305 551.677 898.406Q550.284 899.507 548.837 900.537Q547.391 901.568 545.896 902.526Q544.4 903.484 542.86 904.367Q541.319 905.25 539.737 906.056Q538.154 906.863 536.534 907.59Q534.914 908.317 533.26 908.963Q531.606 909.61 529.922 910.174Q528.238 910.738 526.528 911.218Q524.818 911.698 523.087 912.094Q521.356 912.489 519.607 912.799Q517.858 913.109 516.097 913.332Q514.335 913.555 512.564 913.691C495.008 915.296 477.101 909.28 463.411 898.3Q462.015 897.2 460.676 896.031Q459.337 894.862 458.059 893.628Q456.78 892.393 455.565 891.095Q454.35 889.798 453.202 888.441Q452.054 887.084 450.976 885.671Q449.898 884.258 448.892 882.793Q447.886 881.328 446.955 879.814Q446.024 878.3 445.17 876.741Q444.316 875.182 443.542 873.582Q442.768 871.982 442.075 870.345Q441.382 868.709 440.773 867.039Q440.163 865.37 439.638 863.671Q439.113 861.973 438.674 860.251Q438.236 858.529 437.884 856.786Q437.532 855.044 437.269 853.286Q437.005 851.529 436.83 849.76Q436.73 848.851 436.652 847.94Q436.575 847.029 436.52 846.117Q436.466 845.204 436.434 844.291Q436.403 843.377 436.394 842.463Q436.385 841.549 436.4 840.635Q436.414 839.721 436.451 838.807Q436.488 837.894 436.548 836.982Q436.608 836.07 436.691 835.159Q436.774 834.249 436.88 833.341Q436.986 832.433 437.114 831.528Q437.243 830.623 437.394 829.721Q437.545 828.819 437.719 827.922Q437.893 827.024 438.089 826.132Q438.285 825.239 438.504 824.351Q438.722 823.463 438.963 822.581Q439.204 821.7 439.467 820.824Q439.73 819.948 440.014 819.08Q440.299 818.211 440.605 817.35Q440.912 816.488 441.24 815.635Q441.568 814.782 441.917 813.937Q442.266 813.092 442.636 812.256Q443.007 811.42 443.398 810.594Q443.789 809.768 444.201 808.952Q444.613 808.135 445.045 807.33Q445.477 806.524 445.929 805.73Q446.381 804.935 446.853 804.152Q447.325 803.369 447.816 802.599Q448.308 801.828 448.819 801.07Q449.329 800.311 449.859 799.566Q450.388 798.821 450.936 798.089Q451.484 797.358 452.051 796.64Q452.617 795.922 453.201 795.219C465.638 780.15 482.967 771.055 502.361 769.202Z"/>
	<path fill="#FDFDFC" d="M511.636 832.601C514.451 832.631 517.295 832.74 519.37 834.899C523.695 839.401 521.962 852.828 521.984 859.173L513.857 859.231C513.763 854.159 515.673 843.641 512.377 839.616C511.349 838.36 509.844 838.368 508.355 838.23C508.183 838.404 508.002 838.57 507.839 838.753C504.785 842.207 506.214 854.431 506.276 859.175L498.329 859.184Q498.318 846.232 498.475 833.282C500.838 833.134 503.113 832.97 505.478 833.207C505.789 833.875 506.025 834.352 506.492 834.932C508.054 833.922 509.379 833.149 511.199 832.701C511.344 832.665 511.491 832.634 511.636 832.601Z"/>
	<path fill="#FDFDFC" d="M542.939 823.382L551.159 823.378Q550.989 841.021 551.01 858.664C548.708 858.778 545.96 859.25 543.759 858.534L543.298 857.035C541.116 856.953 539.278 858.554 537.174 858.941C535.751 859.202 534.057 859.024 532.605 858.962C532.292 858.856 531.978 858.754 531.668 858.642C528.715 857.581 526.642 855.383 525.377 852.543C523.542 848.421 523.642 842.968 525.456 838.856C526.701 836.033 528.85 833.727 531.834 832.761C535.863 831.457 539.393 832.752 542.981 834.612L542.939 823.382Z"/>
	<path fill="#08D6D8" d="M535.962 838.429C536.845 838.439 537.639 838.499 538.509 838.677C540.111 839.004 541.4 839.985 542.264 841.351C543.399 843.145 543.653 845.172 543.207 847.224C542.577 850.12 541.469 851.05 539.057 852.57C538.146 852.592 537.191 852.629 536.294 852.436C534.889 852.135 533.745 851.22 532.952 850.043C531.783 848.308 531.526 846.264 531.907 844.235C532.428 841.462 533.664 839.956 535.962 838.429Z"/>
	<path fill="#FDFDFC" d="M479.958 826.067C483.159 825.977 486.087 826.048 489.007 827.579C492.409 829.364 494.669 832.485 495.608 836.181C496.944 841.438 496.382 848.826 493.487 853.44C491.09 857.261 488.147 858.629 483.877 859.596C480.481 859.673 477.319 859.661 474.25 858.013C470.601 856.053 468.288 852.722 467.193 848.774C465.807 843.781 466.192 838.031 468.915 833.548C471.483 829.319 475.254 827.166 479.958 826.067Z"/>
	<path fill="#08D6D8" d="M480.426 833.017C481.373 833.094 482.358 833.159 483.285 833.378C484.994 833.782 486.315 835.128 487.106 836.64C488.932 840.135 488.758 844.661 487.483 848.304C486.486 851.156 485.204 852.416 482.502 853.66C481.947 853.601 481.593 853.579 481.071 853.48C479.144 853.112 477.634 851.91 476.636 850.249C474.644 846.932 474.554 842.612 475.572 838.966C476.44 835.859 477.647 834.561 480.426 833.017Z"/>
	<path fill="#08D6D8" d="M131.538 439.223Q133.174 439.198 134.809 439.246Q136.444 439.295 138.075 439.418Q139.706 439.54 141.33 439.737Q142.954 439.933 144.567 440.203Q146.181 440.472 147.78 440.814Q149.38 441.156 150.962 441.571Q152.545 441.985 154.107 442.47Q155.669 442.955 157.208 443.511Q158.746 444.066 160.258 444.691Q161.77 445.315 163.252 446.008Q164.734 446.7 166.183 447.458Q167.633 448.217 169.046 449.04Q170.46 449.864 171.834 450.75Q173.209 451.636 174.542 452.584Q175.876 453.532 177.165 454.539Q178.454 455.546 179.696 456.61C194.061 468.808 203.647 487.137 205.002 505.992C206.452 526.181 201.001 544.381 187.556 559.689C173.22 576.012 155.884 583.602 134.439 584.933C116.122 584.532 99.6305 580.027 85.6779 567.618C70.7813 554.37 61.8212 536.702 60.6503 516.754Q60.5323 514.932 60.5056 513.105Q60.479 511.279 60.5438 509.454Q60.6086 507.629 60.7646 505.81Q60.9207 503.99 61.1676 502.18Q61.4146 500.371 61.7518 498.576Q62.089 496.781 62.5156 495.005Q62.9423 493.23 63.4572 491.478Q63.9722 489.725 64.5742 488.001Q65.1763 486.277 65.8639 484.585Q66.5514 482.893 67.3228 481.238Q68.0943 479.582 68.9475 477.968Q69.8008 476.353 70.7339 474.783Q71.6669 473.213 72.6774 471.692Q73.6879 470.171 74.7732 468.702Q75.8586 467.233 77.0161 465.821Q78.1735 464.408 79.4003 463.055C93.0286 447.895 111.385 440.321 131.538 439.223Z"/>
	<path fill="#FDFDFC" d="M142.102 504.217C143.013 504.168 143.927 504.113 144.839 504.101C145.668 504.089 147.373 504.118 147.942 504.857C149.579 506.984 149.562 525.506 149.311 529.239C148.965 529.27 148.619 529.29 148.273 529.307C146.578 529.391 144.968 529.483 143.74 528.05C140.29 524.023 142.087 509.541 142.102 504.217Z"/>
	<path fill="#FDFDFC" d="M124.513 504.059C126.399 503.947 128.388 503.756 130.234 504.267Q130.784 504.424 131.314 504.636Q131.845 504.849 132.351 505.115Q132.856 505.381 133.332 505.698Q133.808 506.015 134.248 506.379Q134.689 506.743 135.089 507.151Q135.49 507.559 135.846 508.005Q136.203 508.452 136.511 508.933Q136.82 509.415 137.077 509.925C138.903 513.532 138.988 518.285 137.588 522.045C136.09 526.068 133.809 527.83 129.974 529.459C127.932 529.606 125.845 529.717 123.876 529.044C120.908 528.03 118.482 525.749 117.136 522.937C115.499 519.52 115.33 515.318 116.651 511.77C118.128 507.803 120.762 505.755 124.513 504.059Z"/>
	<path fill="#08D6D8" d="M126.517 510.274C127.478 510.598 128.63 510.915 129.354 511.661C130.534 512.877 131.073 515.248 130.947 516.888C130.702 520.102 129.804 521.746 127.336 523.711C126.256 523.184 125.057 522.662 124.267 521.722C122.925 520.123 122.326 517.681 122.719 515.647C123.214 513.081 124.407 511.706 126.517 510.274Z"/>
	<path fill="#FDFDFC" d="M170.38 494.93C172.34 494.83 174.07 494.709 175.984 495.197C176.262 495.475 176.618 495.691 176.817 496.03C177.488 497.17 177.184 521.974 177.143 525.372C177.124 526.929 177.19 528.022 176.038 529.102C171.229 530.586 173.007 528.53 170.467 527.729C168.819 527.209 165.44 529.503 163.592 529.693C162.035 529.853 160.122 529.187 158.634 528.781C157.949 528.45 157.304 528.09 156.678 527.656C153.72 525.603 152.007 522.868 151.469 519.289C150.886 515.414 151.795 511.126 154.138 507.958C155.908 505.565 158.55 503.816 161.556 503.536C165.153 503.201 167.665 504.542 170.372 506.74L170.38 494.93Z"/>
	<path fill="#08D6D8" d="M161.577 510.489C162.164 510.433 162.752 510.379 163.342 510.37C165.262 510.338 167.101 511.229 168.398 512.636C169.525 513.858 170.061 515.447 169.977 517.101C169.861 519.38 168.752 520.63 167.165 522.14Q165.992 522.384 164.806 522.56C163.243 522.777 161.952 522.59 160.672 521.55C159.558 520.644 158.949 519.311 158.807 517.904C158.508 514.939 159.685 512.645 161.577 510.489Z"/>
	<path fill="#FDFDFC" d="M106.436 494.658L112.954 494.605C112.907 502.831 114.295 521.422 112.145 528.389C111.408 529.152 111.667 529.117 110.728 529.331C108.797 529.77 107.568 529.058 106.066 527.97C105.239 527.372 100.951 529.605 99.635 529.798C97.9521 530.045 96.0927 529.499 94.4636 529.124C92.2435 527.914 90.5769 526.744 89.2359 524.552C87.1485 521.14 86.6576 516.749 87.6121 512.894C88.6998 508.501 90.8676 506.279 94.6701 504.039C99.3404 503.873 102.098 504.355 106.316 506.441C106.506 502.526 106.426 498.578 106.436 494.658Z"/>
	<path fill="#08D6D8" d="M98.4407 509.91C98.5867 509.915 98.7331 509.914 98.8789 509.925C101.25 510.1 103.135 510.902 104.603 512.831C105.803 514.408 106.193 516.37 105.817 518.307C105.324 520.847 103.746 522.053 101.683 523.396C99.6564 523.462 98.0287 523.285 96.5089 521.791C95.0971 520.404 94.5981 518.415 94.7357 516.489C94.9562 513.401 96.1355 511.838 98.4407 509.91Z"/>
	<path fill="#08D6D8" d="M878.042 439.223Q879.808 439.173 881.574 439.207Q883.34 439.242 885.102 439.36Q886.864 439.478 888.619 439.68Q890.374 439.882 892.117 440.168Q893.86 440.453 895.587 440.822Q897.315 441.19 899.023 441.64Q900.731 442.09 902.415 442.621Q904.1 443.152 905.757 443.763Q907.415 444.374 909.041 445.062Q910.668 445.751 912.259 446.517Q913.851 447.283 915.404 448.123Q916.958 448.964 918.47 449.877Q919.981 450.791 921.448 451.776Q922.914 452.76 924.332 453.814Q925.75 454.867 927.116 455.987Q928.482 457.106 929.793 458.29Q931.127 459.518 932.398 460.81Q933.67 462.102 934.876 463.456Q936.083 464.809 937.221 466.22Q938.359 467.631 939.426 469.097Q940.493 470.562 941.486 472.079Q942.48 473.595 943.397 475.159Q944.315 476.722 945.154 478.329Q945.993 479.936 946.752 481.583Q947.511 483.229 948.188 484.911Q948.865 486.593 949.458 488.306Q950.051 490.019 950.559 491.759Q951.067 493.5 951.488 495.263Q951.91 497.026 952.244 498.808Q952.578 500.59 952.823 502.386Q953.069 504.182 953.226 505.988Q953.383 507.794 953.45 509.606C954.353 529.014 947.405 546.969 934.266 561.255C920.599 576.116 901.661 584.291 881.605 585.074C863.321 584.802 845.937 579.371 831.867 567.382C817.567 555.198 807.832 537.072 806.396 518.276Q806.257 516.473 806.207 514.665Q806.158 512.858 806.199 511.05Q806.239 509.242 806.369 507.439Q806.5 505.635 806.719 503.84Q806.939 502.045 807.248 500.263Q807.557 498.482 807.953 496.717Q808.35 494.953 808.834 493.211Q809.318 491.469 809.888 489.752Q810.458 488.036 811.113 486.351Q811.768 484.665 812.505 483.014Q813.243 481.363 814.062 479.751Q814.88 478.138 815.778 476.569Q816.676 474.999 817.651 473.476Q818.625 471.953 819.674 470.48Q820.724 469.007 821.845 467.588Q822.966 466.169 824.156 464.808C838.264 448.669 856.881 440.56 878.042 439.223Z"/>
	<path fill="#FDFDFC" d="M879.151 504.092C881.732 503.956 884.402 503.985 886.834 504.955Q887.427 505.189 887.993 505.483Q888.559 505.777 889.092 506.127Q889.625 506.477 890.12 506.88Q890.614 507.283 891.064 507.735Q891.515 508.186 891.917 508.681Q892.319 509.176 892.668 509.71Q893.017 510.244 893.309 510.811Q893.602 511.377 893.835 511.971C895.196 515.45 895.074 519.63 893.447 523.001C891.62 526.788 888.729 528.592 884.87 529.871C882.398 530.064 879.994 530.057 877.64 529.168Q877.013 528.927 876.414 528.622Q875.815 528.317 875.251 527.951Q874.688 527.585 874.165 527.162Q873.642 526.74 873.167 526.265Q872.691 525.79 872.268 525.268Q871.844 524.747 871.477 524.184Q871.11 523.62 870.804 523.022Q870.498 522.424 870.256 521.797C868.874 518.285 868.908 514.119 870.609 510.721C872.432 507.076 875.405 505.32 879.151 504.092Z"/>
	<path fill="#08D6D8" d="M879.921 510.981L880.53 510.954C882.889 510.875 884.576 510.96 886.315 512.75C887.413 513.881 887.942 515.385 887.83 516.951C887.628 519.773 886.237 521.272 884.155 523.004C883.986 523.008 883.816 523.014 883.646 523.016C881.274 523.042 879.306 522.643 877.633 520.827C876.531 519.63 875.99 518.118 876.162 516.481C876.441 513.829 877.903 512.523 879.921 510.981Z"/>
	<path fill="#FDFDFC" d="M863.388 496.119C864.002 496.173 864.603 496.324 865.206 496.447C865.372 496.825 865.5 497.069 865.605 497.455C866.255 499.822 866.109 527.839 865.462 528.878C864.454 529.012 863.286 529.264 862.276 529.22C860.853 529.158 860.73 528.893 859.914 527.868C858.07 527.694 855.952 528.988 854.176 529.557C851.327 530.469 848.835 529.022 846.366 527.73C844.594 526.057 843.297 524.339 842.428 522.04C841.083 518.48 841.046 514.466 842.658 510.983C843.942 508.21 846.186 506.027 849.098 505.042C852.926 503.748 855.793 504.823 859.255 506.554C859.17 503.564 858.54 500.019 859.733 497.246C860.992 496.154 861.76 496.3 863.388 496.119Z"/>
	<path fill="#08D6D8" d="M853.092 510.436C853.452 510.459 853.812 510.481 854.17 510.519C855.905 510.703 857.221 511.384 858.264 512.799C859.408 514.35 859.588 516.26 859.201 518.104C858.649 520.732 857.311 522.015 855.154 523.473C854.596 523.468 854.156 523.483 853.616 523.426C851.965 523.252 850.627 522.247 849.686 520.924C848.688 519.521 848.666 517.467 849.007 515.851C849.576 513.151 850.885 511.951 853.092 510.436Z"/>
	<path fill="#FDFDFC" d="M915.41 495.948L921.995 495.971C922.014 502.179 922.917 523.306 921.831 527.996C921.597 529.01 921.386 528.871 920.551 529.383C918.555 529.4 916.649 527.817 915.098 527.943C910.31 528.333 912.236 531.064 904.936 529.258C901.57 527.245 899.302 525.032 898.025 521.235C896.837 517.702 897.015 513.646 898.706 510.302C900.104 507.536 902.446 505.372 905.443 504.475C909.158 503.364 912.114 504.31 915.456 505.984L915.41 495.948Z"/>
	<path fill="#08D6D8" d="M907.9 510.448C908.086 510.447 908.271 510.443 908.457 510.444C910.706 510.45 912.379 510.67 913.978 512.419C915.121 513.67 915.648 515.271 915.512 516.957C915.293 519.69 913.933 521.276 911.855 522.892C911.017 522.966 910.067 523.103 909.231 523.019C907.912 522.886 906.69 522.168 905.82 521.177C904.726 519.931 904.34 518.286 904.474 516.663C904.708 513.851 905.855 512.287 907.9 510.448Z"/>
	<path fill="#E0C308" d="M189.869 116.207C212.538 114.063 235.87 121.474 253.752 135.4Q254.654 136.108 255.539 136.837Q256.423 137.567 257.29 138.318Q258.156 139.069 259.004 139.841Q259.852 140.613 260.68 141.405Q261.509 142.198 262.318 143.01Q263.127 143.823 263.916 144.655Q264.705 145.487 265.474 146.338Q266.242 147.189 266.989 148.058Q267.737 148.928 268.463 149.816Q269.189 150.703 269.893 151.608Q270.597 152.513 271.278 153.435Q271.96 154.357 272.619 155.296Q273.278 156.234 273.913 157.188Q274.549 158.143 275.161 159.112Q275.774 160.082 276.362 161.066Q276.95 162.05 277.514 163.048Q278.079 164.046 278.618 165.058Q279.158 166.07 279.672 167.094Q280.187 168.119 280.676 169.156Q281.166 170.193 281.63 171.242Q282.094 172.29 282.532 173.35Q282.97 174.409 283.382 175.479Q283.794 176.549 284.18 177.629Q284.566 178.709 284.926 179.798Q285.285 180.886 285.617 181.984Q285.95 183.081 286.256 184.186Q286.562 185.291 286.84 186.404Q287.119 187.516 287.37 188.635Q287.621 189.753 287.845 190.878Q288.069 192.002 288.265 193.132Q288.462 194.262 288.63 195.396Q288.799 196.53 288.94 197.668Q289.08 198.761 289.192 199.857Q289.305 200.953 289.39 202.052Q289.475 203.15 289.532 204.251Q289.59 205.351 289.62 206.452Q289.65 207.554 289.652 208.656Q289.654 209.757 289.629 210.859Q289.604 211.96 289.551 213.061Q289.499 214.162 289.419 215.26Q289.338 216.359 289.231 217.456Q289.123 218.552 288.988 219.646Q288.853 220.74 288.691 221.829Q288.528 222.919 288.339 224.005Q288.149 225.09 287.933 226.17Q287.716 227.251 287.473 228.325Q287.229 229.4 286.959 230.468Q286.688 231.536 286.391 232.597Q286.094 233.658 285.771 234.711Q285.447 235.765 285.098 236.81Q284.748 237.855 284.372 238.89Q283.997 239.926 283.595 240.952Q283.194 241.978 282.767 242.994Q282.34 244.01 281.887 245.014Q281.435 246.019 280.958 247.012Q280.481 248.005 279.979 248.986Q279.477 249.967 278.951 250.935Q278.424 251.903 277.874 252.858Q277.324 253.812 276.75 254.753Q276.175 255.693 275.578 256.619Q274.981 257.545 274.36 258.455Q273.74 259.366 273.097 260.261Q272.454 261.156 271.789 262.034Q271.124 262.912 270.437 263.774C254.584 283.969 231.74 295.706 206.471 298.686C206.24 298.716 206.009 298.751 205.777 298.777C182.274 301.407 156.869 292.658 138.91 277.549C120.32 261.908 108.671 240.27 106.623 215.994C104.519 191.062 111.206 167.687 127.427 148.47Q128.149 147.604 128.893 146.756Q129.637 145.907 130.401 145.078Q131.166 144.249 131.951 143.439Q132.736 142.629 133.54 141.839Q134.345 141.049 135.17 140.279Q135.994 139.509 136.838 138.76Q137.681 138.011 138.543 137.283Q139.404 136.555 140.284 135.849Q141.164 135.143 142.06 134.459Q142.957 133.775 143.871 133.114Q144.785 132.453 145.715 131.814Q146.645 131.176 147.59 130.561Q148.536 129.946 149.496 129.355Q150.457 128.764 151.432 128.197Q152.407 127.63 153.396 127.087Q154.385 126.544 155.387 126.027Q156.389 125.509 157.404 125.016Q158.418 124.524 159.445 124.056Q160.471 123.589 161.509 123.148Q162.547 122.706 163.596 122.291Q164.645 121.876 165.703 121.487Q166.762 121.097 167.83 120.735Q168.898 120.372 169.975 120.036Q171.052 119.7 172.137 119.391Q173.221 119.083 174.314 118.801Q175.406 118.519 176.505 118.265Q177.603 118.01 178.708 117.783Q179.813 117.556 180.923 117.357Q182.033 117.157 183.148 116.986Q184.263 116.814 185.382 116.67Q186.501 116.527 187.623 116.411Q188.744 116.295 189.869 116.207Z"/>
	<path fill="#FDFDFC" d="M196.35 194.591C199.791 194.359 203.12 194.502 206.311 195.948C210.339 197.773 213.304 201.087 214.788 205.244C216.449 209.895 216.361 215.714 214.124 220.168C211.83 224.736 208.135 226.972 203.416 228.479C199.482 228.808 195.784 228.938 192.076 227.303Q191.714 227.148 191.36 226.973Q191.007 226.799 190.663 226.606Q190.319 226.413 189.986 226.203Q189.653 225.992 189.331 225.764Q189.009 225.536 188.7 225.292Q188.391 225.047 188.095 224.787Q187.8 224.526 187.518 224.251Q187.236 223.975 186.97 223.685Q186.703 223.394 186.452 223.09Q186.201 222.786 185.966 222.47Q185.732 222.153 185.514 221.824Q185.296 221.496 185.097 221.156Q184.897 220.816 184.715 220.466Q184.533 220.117 184.37 219.758Q184.207 219.399 184.063 219.032Q183.919 218.665 183.795 218.291C182.144 213.387 182.618 207.488 185.103 202.942C187.648 198.285 191.472 196.097 196.35 194.591Z"/>
	<path fill="#E0C308" d="M197.95 201.99C199.11 202 200.406 202.093 201.523 202.415C203.693 203.04 205.436 205.065 206.34 207.055C207.583 209.791 207.528 212.985 206.449 215.763C205.378 218.519 203.644 219.934 201.027 221.155C200.034 221.087 198.987 221.054 198.022 220.797C195.84 220.215 194.077 218.18 193.146 216.212C191.836 213.441 191.746 210.175 192.767 207.3C193.764 204.495 195.336 203.24 197.95 201.99Z"/>
	<path fill="#FDFDFC" d="M243.14 184.402L252.265 184.449C252.344 198.819 252.98 213.518 252.027 227.851L251.543 227.916L250.736 228.015C249.386 228.187 247.897 228.515 246.543 228.297C244.885 228.03 244.715 227.276 243.821 226.012C238.276 226.374 240.439 229.74 230.434 228.333Q229.448 227.904 228.491 227.414C224.819 225.498 222.347 221.976 221.196 218.052C219.639 212.745 220.249 206.359 223.032 201.55C224.992 198.162 228.085 195.494 231.964 194.637C236.256 193.688 239.849 195.082 243.358 197.455L243.14 184.402Z"/>
	<path fill="#E0C308" d="M234.473 202.481C235.561 202.445 236.695 202.382 237.778 202.503C239.71 202.717 241.379 204.065 242.417 205.64C244.095 208.185 244.372 211.439 243.65 214.354C242.84 217.621 241.45 219.384 238.581 221.065C237.805 221.091 237.012 221.117 236.239 221.028C234.239 220.796 232.442 219.653 231.233 218.067C229.438 215.711 228.975 212.535 229.524 209.675C230.187 206.225 231.641 204.436 234.473 202.481Z"/>
	<path fill="#FDFDFC" d="M167.556 184.556L176.837 184.536Q177.021 206.263 176.949 227.99C173.78 228.214 172.366 228.338 169.585 226.68C167.487 225.429 163.778 228.664 161.399 229.034C159.022 229.404 156.674 228.724 154.396 228.124Q153.935 227.895 153.481 227.651C149.408 225.442 146.768 221.794 145.537 217.348C144.038 211.936 144.657 205.78 147.644 200.973C149.678 197.701 152.87 194.978 156.696 194.136C161.009 193.187 164.107 194.675 167.621 197.022L167.556 184.556Z"/>
	<path fill="#E0C308" d="M158.928 202.478C160.192 202.452 161.642 202.309 162.865 202.661C164.448 203.116 165.789 204.419 166.594 205.813C168.306 208.774 168.321 212.586 167.402 215.801C166.506 218.938 165.286 220.136 162.477 221.681C162.273 221.666 162.068 221.66 161.865 221.634C159.521 221.342 157.48 220.284 156.056 218.367C154.214 215.886 153.733 212.71 154.23 209.712C154.795 206.301 156.19 204.477 158.928 202.478Z"/>
	<path fill="#E0C308" d="M195.271 731.228Q197.435 731.193 199.599 731.259Q201.763 731.324 203.922 731.489Q206.08 731.654 208.229 731.918Q210.377 732.182 212.511 732.545Q214.645 732.909 216.761 733.37Q218.876 733.831 220.967 734.389Q223.059 734.948 225.122 735.602Q227.186 736.256 229.217 737.004Q231.248 737.753 233.243 738.594Q235.237 739.436 237.191 740.369Q239.145 741.301 241.053 742.323Q242.962 743.344 244.821 744.453Q246.68 745.562 248.487 746.755Q250.293 747.948 252.042 749.224Q253.791 750.499 255.48 751.853Q257.169 753.208 258.793 754.639Q259.612 755.372 260.413 756.125Q261.214 756.878 261.997 757.65Q262.779 758.422 263.543 759.214Q264.306 760.005 265.05 760.815Q265.793 761.624 266.517 762.452Q267.24 763.28 267.944 764.125Q268.647 764.97 269.329 765.832Q270.011 766.694 270.672 767.573Q271.333 768.451 271.972 769.346Q272.611 770.24 273.228 771.15Q273.845 772.06 274.44 772.985Q275.035 773.909 275.606 774.848Q276.178 775.787 276.727 776.74Q277.275 777.693 277.8 778.659Q278.326 779.625 278.827 780.603Q279.328 781.582 279.805 782.572Q280.282 783.562 280.735 784.564Q281.188 785.566 281.616 786.579Q282.044 787.591 282.447 788.614Q282.851 789.637 283.229 790.669Q283.607 791.702 283.959 792.743Q284.312 793.784 284.639 794.834Q284.966 795.883 285.267 796.941Q285.568 797.998 285.843 799.062Q286.119 800.127 286.368 801.198Q286.617 802.268 286.839 803.345Q287.062 804.422 287.258 805.503Q287.455 806.585 287.624 807.671Q287.794 808.757 287.937 809.847Q288.08 810.938 288.197 812.031Q288.313 813.124 288.403 814.22Q288.492 815.315 288.555 816.413C289.94 841.748 281.765 867.083 264.658 886.032C247.65 904.87 224.485 914.574 199.394 915.768Q197.241 915.803 195.089 915.738Q192.937 915.672 190.79 915.505Q188.644 915.338 186.507 915.071Q184.371 914.803 182.25 914.435Q180.128 914.068 178.026 913.601Q175.924 913.134 173.847 912.569Q171.769 912.003 169.72 911.341Q167.672 910.679 165.656 909.921Q163.641 909.164 161.664 908.312Q159.686 907.46 157.751 906.517Q155.815 905.573 153.927 904.54Q152.038 903.506 150.2 902.385Q148.361 901.264 146.578 900.058Q144.794 898.851 143.07 897.562Q141.345 896.274 139.683 894.905Q138.02 893.537 136.424 892.092C117.975 875.212 107.705 851.869 106.598 826.999Q106.544 825.864 106.519 824.727Q106.493 823.591 106.495 822.454Q106.497 821.317 106.527 820.181Q106.557 819.044 106.615 817.909Q106.673 816.774 106.759 815.64Q106.845 814.507 106.958 813.376Q107.072 812.245 107.213 811.117Q107.354 809.989 107.523 808.865Q107.692 807.74 107.889 806.621Q108.085 805.501 108.309 804.387Q108.533 803.272 108.784 802.164Q109.036 801.055 109.314 799.953Q109.592 798.851 109.898 797.755Q110.203 796.661 110.535 795.573Q110.867 794.486 111.226 793.407Q111.585 792.329 111.97 791.259Q112.355 790.19 112.766 789.13Q113.177 788.07 113.614 787.021Q114.051 785.971 114.514 784.933Q114.977 783.895 115.465 782.868Q115.953 781.841 116.466 780.827Q116.979 779.813 117.517 778.811Q118.055 777.81 118.617 776.822Q119.179 775.834 119.766 774.86Q120.352 773.886 120.962 772.927Q121.572 771.968 122.206 771.024Q122.839 770.08 123.496 769.152Q124.152 768.224 124.831 767.312Q125.51 766.4 126.211 765.506Q126.912 764.611 127.635 763.734Q128.358 762.856 129.103 761.997Q129.847 761.138 130.612 760.297C147.443 742.032 170.632 732.256 195.271 731.228Z"/>
	<path fill="#FDFDFC" d="M197.493 814.106C201.246 813.94 204.93 814.203 208.355 815.9Q209.102 816.27 209.807 816.713Q210.513 817.156 211.171 817.668Q211.828 818.18 212.431 818.755Q213.034 819.331 213.575 819.964Q214.117 820.597 214.593 821.281Q215.068 821.966 215.472 822.695Q215.876 823.423 216.204 824.189Q216.533 824.955 216.783 825.75C218.481 830.981 218.158 837.448 215.491 842.309C212.923 846.989 208.983 849.128 204.056 850.553C199.21 850.942 194.721 850.88 190.484 848.116C186.714 845.657 184.428 841.689 183.499 837.347C182.343 831.941 182.95 825.55 186.143 820.908C188.943 816.838 192.744 814.949 197.493 814.106Z"/>
	<path fill="#E0C308" d="M197.955 822.499C199.292 822.433 201.099 822.181 202.366 822.676C204.893 823.662 206.682 825.856 207.565 828.385C208.706 831.652 208.609 835.522 207.105 838.657C205.926 841.114 204.435 842.022 201.943 842.943C201.253 842.951 200.586 842.923 199.903 842.817C197.332 842.422 195.413 841.35 193.942 839.162C192.025 836.31 191.67 832.774 192.486 829.486C193.333 826.073 195.058 824.338 197.955 822.499Z"/>
	<path fill="#FDFDFC" d="M248.017 803.442C248.965 803.353 250.053 803.217 250.994 803.351C252.4 803.55 252.949 804.24 253.799 805.276C254.834 811.301 254.627 841.723 253.736 847.959C253.535 849.364 252.857 850.407 251.567 851.11C250.894 851.477 250.347 851.565 249.608 851.399C247.596 850.944 246.744 849.44 245.762 847.792L245.469 847.289L244.867 847.13C243.977 847.552 243.292 847.951 242.518 848.572C241.598 849.31 240.697 850.152 239.638 850.686C236.259 852.391 232.084 850.929 228.808 849.713C227.994 849.153 227.184 848.589 226.424 847.957C222.709 844.868 221.249 839.636 220.919 835.001C220.508 829.244 221.584 822.813 225.55 818.406C227.887 815.81 231.117 814.094 234.64 813.954C239.163 813.774 242.338 815.996 245.489 818.888C245.479 815.794 245.02 812.654 245.193 809.568C245.356 806.669 245.855 805.423 248.017 803.442Z"/>
	<path fill="#E0C308" d="M235.514 822.505Q237.091 822.488 238.628 822.842C241.941 823.587 243.647 825.926 245.432 828.607C245.531 831.658 245.975 835.163 244.924 838.078C244.071 840.447 242.352 841.62 240.188 842.701C239.088 842.769 237.968 842.758 236.875 842.59C234.791 842.27 233.07 841.016 231.879 839.311C229.908 836.489 229.54 832.732 230.305 829.439C231.112 825.97 232.515 824.313 235.514 822.505Z"/>
	<path fill="#FDFDFC" d="M171.441 803.989C173.405 803.915 175.095 803.966 176.813 805.011C178.445 808.403 177.641 843.875 176.878 849.569C176.115 850.381 175.46 851.029 174.294 851.177C172.138 851.452 170.221 849.57 168.84 848.201L168.412 847.77C166.609 847.883 165.18 849.532 163.581 850.308C159.967 852.064 155.872 850.953 152.269 849.734C148.163 847.245 145.86 843.374 144.8 838.735C143.432 832.754 143.844 825.177 147.257 819.97C149.216 816.98 152.143 814.814 155.675 814.12C160.38 813.197 164.569 814.9 168.413 817.436C168.402 814.434 167.889 811.173 168.387 808.214C168.766 805.966 169.64 805.203 171.441 803.989Z"/>
	<path fill="#E0C308" d="M158.471 822.529C160.158 822.362 161.884 822.161 163.52 822.736C165.317 823.367 166.657 824.949 167.454 826.63C169.061 830.022 168.82 834.491 167.549 837.946C166.584 840.571 165.06 841.533 162.616 842.7C161.628 842.729 160.609 842.681 159.631 842.529C157.648 842.221 155.997 840.918 154.861 839.306C152.927 836.56 152.546 832.931 153.258 829.709C154.027 826.234 155.564 824.446 158.471 822.529Z"/>
	<path fill="#E0C308" d="M810.856 116.701C810.979 116.678 811.1 116.648 811.224 116.634C833.51 114.073 858.561 122.588 875.827 136.527C895.089 152.076 907.881 174.383 910.3 199.162Q910.419 200.292 910.51 201.424Q910.601 202.556 910.664 203.69Q910.727 204.824 910.762 205.96Q910.797 207.095 910.804 208.231Q910.81 209.367 910.789 210.503Q910.767 211.638 910.717 212.773Q910.667 213.908 910.589 215.041Q910.511 216.174 910.405 217.305Q910.299 218.436 910.165 219.564Q910.031 220.692 909.869 221.816Q909.707 222.941 909.517 224.061Q909.327 225.18 909.109 226.295Q908.891 227.41 908.646 228.519Q908.401 229.628 908.128 230.731Q907.855 231.834 907.555 232.929Q907.255 234.025 906.928 235.113Q906.601 236.2 906.247 237.28Q905.893 238.359 905.512 239.429Q905.131 240.499 904.724 241.56Q904.317 242.62 903.883 243.67Q903.45 244.72 902.99 245.759Q902.531 246.798 902.046 247.825Q901.561 248.852 901.051 249.867Q900.54 250.882 900.005 251.883Q899.469 252.885 898.909 253.873Q898.349 254.862 897.765 255.836Q897.18 256.809 896.572 257.769Q895.963 258.728 895.331 259.672Q894.699 260.615 894.043 261.543Q893.388 262.471 892.71 263.382Q892.032 264.293 891.331 265.187Q890.631 266.082 889.908 266.958C873.825 286.457 851.109 297.807 826.121 300.325C826.015 300.337 825.908 300.353 825.801 300.362Q824.703 300.454 823.604 300.519Q822.505 300.584 821.404 300.623Q820.303 300.662 819.202 300.675Q818.101 300.688 816.999 300.674Q815.898 300.66 814.797 300.62Q813.697 300.58 812.597 300.514Q811.498 300.447 810.401 300.355Q809.303 300.262 808.208 300.143Q807.113 300.024 806.022 299.879Q804.93 299.734 803.842 299.563Q802.754 299.392 801.67 299.194Q800.587 298.997 799.508 298.774Q798.43 298.551 797.357 298.302Q796.284 298.054 795.217 297.779Q794.151 297.505 793.091 297.205Q792.031 296.905 790.979 296.58Q789.927 296.255 788.882 295.904Q787.838 295.554 786.803 295.179Q785.767 294.804 784.741 294.404Q783.715 294.004 782.698 293.58Q781.682 293.156 780.676 292.707Q779.67 292.259 778.675 291.786Q777.68 291.314 776.697 290.818Q775.714 290.322 774.742 289.802Q773.771 289.283 772.813 288.74Q771.854 288.197 770.909 287.632Q769.964 287.067 769.033 286.479Q768.101 285.891 767.184 285.281Q766.267 284.671 765.365 284.039Q764.463 283.408 763.576 282.754Q762.689 282.101 761.818 281.427Q760.948 280.753 760.093 280.058Q759.224 279.359 758.372 278.639Q757.521 277.919 756.687 277.179Q755.853 276.438 755.038 275.678Q754.222 274.917 753.426 274.137Q752.629 273.356 751.852 272.556Q751.075 271.757 750.318 270.938Q749.56 270.119 748.823 269.283Q748.086 268.446 747.37 267.591Q746.654 266.736 745.959 265.864Q745.263 264.992 744.59 264.104Q743.916 263.215 743.265 262.31Q742.613 261.405 741.984 260.484Q741.355 259.564 740.748 258.628Q740.142 257.692 739.558 256.742Q738.975 255.791 738.415 254.827Q737.855 253.863 737.319 252.885Q736.783 251.907 736.271 250.916Q735.759 249.926 735.271 248.923Q734.784 247.92 734.321 246.905Q733.858 245.891 733.42 244.865Q732.982 243.84 732.57 242.804Q732.157 241.768 731.77 240.722Q731.383 239.676 731.021 238.621Q730.66 237.566 730.325 236.503Q729.989 235.439 729.68 234.368Q729.371 233.296 729.088 232.218Q728.805 231.139 728.548 230.054Q728.292 228.969 728.062 227.877Q727.833 226.786 727.63 225.69Q727.427 224.593 727.251 223.492Q727.075 222.391 726.926 221.286Q726.777 220.18 726.655 219.072C724.119 194.594 730.857 170.1 746.455 150.931C762.855 130.779 785.138 119.301 810.856 116.701Z"/>
	<path fill="#FDFDFC" d="M817.315 193.579C821.506 193.331 825.365 193.092 829.31 194.882C833.324 196.702 836.276 200.05 837.748 204.19C839.496 209.11 839.234 215.155 836.982 219.873C834.719 224.613 831.119 226.991 826.33 228.64C822.278 229.195 818.271 229.196 814.461 227.5Q814.057 227.318 813.663 227.116Q813.269 226.914 812.886 226.691Q812.504 226.469 812.133 226.226Q811.762 225.984 811.404 225.723Q811.047 225.462 810.703 225.182Q810.359 224.903 810.031 224.606Q809.702 224.309 809.39 223.996Q809.077 223.682 808.781 223.352Q808.485 223.023 808.206 222.679Q807.928 222.334 807.668 221.976Q807.408 221.617 807.167 221.246Q806.925 220.874 806.704 220.491Q806.482 220.107 806.281 219.713Q806.08 219.318 805.899 218.914Q805.719 218.51 805.56 218.096Q805.401 217.683 805.263 217.262C803.64 212.43 804.01 206.703 806.34 202.158C808.759 197.442 812.481 195.196 817.315 193.579Z"/>
	<path fill="#E0C308" d="M820.568 200.987C821.653 201.03 822.7 201.185 823.732 201.533C825.974 202.289 827.7 204.292 828.639 206.407C829.981 209.433 829.935 213.013 828.636 216.043C827.441 218.828 825.732 220.086 822.967 221.138C822.204 221.104 821.459 221.059 820.713 220.878C818.23 220.275 816.301 218.684 815.108 216.435C813.555 213.507 813.468 209.948 814.602 206.865C815.765 203.704 817.578 202.309 820.568 200.987Z"/>
	<path fill="#FDFDFC" d="M791.451 181.546C792.404 181.451 793.366 181.365 794.322 181.327C796.186 181.252 797.036 181.527 798.374 182.806C799.11 187.851 798.656 193.371 798.652 198.481L798.646 228.07C796.844 228.127 792.196 228.719 790.996 227.403C790.218 226.55 790.701 226.186 789.479 225.592C788.561 225.967 787.768 226.34 786.923 226.868L786.119 227.377C782.398 229.696 779.491 229.04 775.434 228.072C774.931 227.815 774.422 227.566 773.938 227.275C770.11 224.979 767.738 220.925 766.78 216.65C765.537 211.105 766.288 204.638 769.462 199.845C771.632 196.567 774.983 194.033 778.917 193.394C783.088 192.717 786.273 194.062 789.542 196.519C789.533 195.543 789.496 194.57 789.464 193.594C789.331 189.538 788.493 184.708 791.451 181.546Z"/>
	<path fill="#E0C308" d="M779.966 201.509C782.484 201.28 785.375 201.229 787.388 203.035C790.655 205.966 789.569 213.074 789.471 217.104C787.916 218.552 786.447 219.553 784.566 220.537C783.733 220.681 782.851 220.853 782.004 220.842C780.306 220.82 778.608 219.641 777.594 218.337C775.657 215.843 775.306 212.285 775.674 209.248C776.098 205.746 777.248 203.697 779.966 201.509Z"/>
	<path fill="#FDFDFC" d="M868.939 180.984C869.862 180.892 870.82 180.779 871.748 180.821C873.217 180.888 874.04 181.577 875.006 182.574C876.267 185.868 876.425 224.68 875.27 227.562C873.929 228.494 873.132 228.9 871.498 229.075C869.946 228.642 869.305 227.954 868.213 226.783C866.656 225.112 861.486 228.692 859.186 228.962C856.743 229.248 854.495 228.545 852.203 227.796C851.994 227.676 851.782 227.56 851.576 227.435C847.291 224.864 844.567 220.307 843.566 215.487C842.406 209.901 843.42 203.546 846.72 198.83C848.762 195.913 851.754 193.704 855.31 193.104C859.701 192.364 863.067 193.94 866.586 196.315C866.613 192.631 866.008 188.91 866.4 185.24C866.628 183.109 867.306 182.306 868.939 180.984Z"/>
	<path fill="#E0C308" d="M858.527 201.034C862.309 201.492 863.83 202.269 866.581 204.89C866.692 208.387 867.342 213.024 866.103 216.3C865.162 218.788 863.409 219.684 861.079 220.686C860.221 220.654 859.337 220.631 858.491 220.475C856.588 220.124 855.039 218.668 854.087 217.05C852.302 214.016 852.248 210.148 853.309 206.86C854.304 203.777 855.71 202.493 858.527 201.034Z"/>
	<path fill="#E0C308" d="M757.994 747.016C758.161 746.993 758.33 746.984 758.495 746.946C761.757 746.2 765.85 743.089 768.933 741.538C772.177 739.907 775.577 738.5 778.958 737.181Q780.183 736.701 781.42 736.255Q782.657 735.809 783.906 735.397Q785.155 734.986 786.415 734.608Q787.675 734.231 788.945 733.889Q790.215 733.546 791.494 733.239Q792.773 732.932 794.059 732.66Q795.346 732.388 796.64 732.151Q797.934 731.915 799.233 731.714Q800.533 731.513 801.838 731.348Q803.143 731.183 804.452 731.054Q805.761 730.925 807.073 730.832Q808.384 730.739 809.698 730.682Q811.012 730.626 812.327 730.605Q813.642 730.585 814.958 730.6Q816.273 730.616 817.587 730.668Q818.901 730.719 820.213 730.807Q821.526 730.896 822.835 731.02Q824.145 731.144 825.45 731.304Q826.755 731.464 828.056 731.66Q829.356 731.856 830.651 732.087Q831.946 732.319 833.234 732.586Q834.521 732.853 835.801 733.156Q837.081 733.458 838.352 733.796Q839.624 734.134 840.885 734.506Q842.146 734.879 843.397 735.286Q844.647 735.693 845.886 736.134Q847.125 736.576 848.352 737.051Q849.578 737.526 850.791 738.035Q852.004 738.544 853.202 739.086Q854.4 739.628 855.583 740.203Q856.766 740.778 857.933 741.385Q859.099 741.992 860.249 742.631Q861.212 743.151 862.163 743.694Q863.113 744.237 864.05 744.803Q864.986 745.369 865.909 745.958Q866.831 746.547 867.739 747.159Q868.647 747.771 869.539 748.404Q870.432 749.038 871.308 749.693Q872.185 750.349 873.045 751.025Q873.906 751.702 874.749 752.4Q875.592 753.098 876.418 753.816Q877.244 754.534 878.052 755.272Q878.86 756.01 879.65 756.768Q880.44 757.526 881.211 758.303Q881.981 759.08 882.733 759.876Q883.484 760.672 884.216 761.486Q884.948 762.3 885.66 763.131Q886.371 763.963 887.062 764.812Q887.753 765.661 888.423 766.526Q889.093 767.392 889.741 768.274Q890.389 769.156 891.016 770.053Q891.642 770.951 892.247 771.863Q892.851 772.776 893.433 773.703Q894.014 774.63 894.573 775.571Q895.132 776.513 895.667 777.467Q896.203 778.422 896.715 779.389Q897.227 780.357 897.714 781.337Q898.202 782.316 898.666 783.308Q899.13 784.299 899.569 785.302Q900.008 786.304 900.423 787.317Q900.837 788.33 901.227 789.353Q901.616 790.376 901.98 791.408Q902.344 792.441 902.683 793.481Q903.022 794.522 903.335 795.571Q903.651 796.674 903.941 797.785Q904.23 798.896 904.491 800.014Q904.753 801.131 904.987 802.255Q905.222 803.378 905.428 804.508Q905.635 805.637 905.813 806.77Q905.992 807.904 906.143 809.042Q906.294 810.18 906.417 811.321Q906.54 812.462 906.635 813.606Q906.73 814.75 906.796 815.896Q906.863 817.042 906.901 818.189Q906.94 819.336 906.95 820.484Q906.961 821.632 906.943 822.78Q906.925 823.927 906.879 825.074Q906.833 826.221 906.759 827.367Q906.685 828.512 906.582 829.655Q906.48 830.798 906.35 831.939Q906.219 833.079 906.061 834.216Q905.903 835.353 905.717 836.486Q905.531 837.618 905.317 838.746Q905.103 839.874 904.861 840.996Q904.62 842.118 904.351 843.234Q904.082 844.35 903.785 845.458Q903.489 846.567 903.165 847.669Q902.842 848.77 902.491 849.863Q902.141 850.956 901.764 852.04Q901.387 853.124 900.983 854.199Q900.579 855.273 900.149 856.337Q899.719 857.402 899.263 858.455Q898.807 859.508 898.326 860.55Q897.844 861.592 897.337 862.622Q896.83 863.652 896.297 864.669Q895.765 865.685 895.208 866.689Q894.648 867.707 894.064 868.71Q893.479 869.714 892.87 870.702Q892.261 871.691 891.628 872.665Q890.995 873.639 890.338 874.596Q889.681 875.554 889.001 876.496Q888.321 877.437 887.618 878.361Q886.915 879.286 886.189 880.193Q885.464 881.1 884.716 881.988Q883.969 882.877 883.2 883.748Q882.431 884.618 881.641 885.469Q880.851 886.32 880.04 887.152Q879.229 887.983 878.398 888.795Q877.567 889.606 876.717 890.397Q875.866 891.188 874.996 891.957Q874.126 892.727 873.238 893.475Q872.35 894.223 871.443 894.949Q870.537 895.675 869.613 896.379Q868.689 897.083 867.748 897.763Q866.807 898.444 865.85 899.102Q864.893 899.759 863.919 900.393Q862.946 901.027 861.958 901.636Q860.969 902.246 859.966 902.832Q858.963 903.417 857.946 903.978Q856.929 904.538 855.898 905.073Q854.868 905.609 853.824 906.119Q852.781 906.629 851.726 907.113Q850.67 907.598 849.603 908.056Q848.536 908.514 847.458 908.946Q846.38 909.378 845.291 909.783Q844.203 910.189 843.105 910.567Q842.007 910.946 840.9 911.297Q839.793 911.649 838.678 911.973Q837.586 912.284 836.487 912.568Q835.388 912.852 834.282 913.109Q833.177 913.366 832.065 913.596Q830.954 913.826 829.837 914.029Q828.72 914.231 827.598 914.406Q826.477 914.581 825.351 914.729Q824.226 914.877 823.097 914.997Q821.968 915.117 820.837 915.209Q819.705 915.302 818.572 915.366Q817.439 915.431 816.304 915.468Q815.169 915.504 814.034 915.513Q812.899 915.523 811.764 915.504Q810.629 915.485 809.495 915.438Q808.361 915.392 807.228 915.318Q806.095 915.243 804.965 915.141Q803.834 915.039 802.707 914.909Q801.579 914.78 800.455 914.622Q799.331 914.465 798.21 914.28Q797.09 914.095 795.975 913.883Q794.86 913.671 793.751 913.432Q792.641 913.192 791.538 912.926Q790.434 912.659 789.338 912.366Q788.241 912.072 787.152 911.752Q786.063 911.432 784.982 911.085Q783.901 910.738 782.829 910.365Q781.757 909.992 780.695 909.592Q779.632 909.193 778.58 908.768Q777.527 908.342 776.485 907.891Q775.444 907.44 774.413 906.964Q773.383 906.488 772.365 905.986Q771.346 905.485 770.34 904.959Q769.335 904.433 768.342 903.882C746.694 891.787 731.145 870.505 724.644 846.725Q724.34 845.598 724.063 844.463Q723.787 843.328 723.538 842.187Q723.29 841.046 723.069 839.899Q722.849 838.753 722.657 837.601Q722.464 836.449 722.301 835.293Q722.137 834.136 722.001 832.976Q721.866 831.816 721.759 830.653Q721.652 829.49 721.574 828.325Q721.496 827.16 721.446 825.993Q721.397 824.827 721.376 823.659Q721.355 822.491 721.363 821.324Q721.371 820.156 721.407 818.989Q721.444 817.821 721.509 816.655Q721.574 815.489 721.668 814.325Q721.762 813.161 721.884 812Q722.007 810.839 722.158 809.68Q722.309 808.522 722.488 807.369Q722.667 806.214 722.875 805.065Q723.082 803.916 723.318 802.772Q723.554 801.629 723.818 800.491Q724.082 799.353 724.373 798.223Q724.665 797.092 724.984 795.968Q725.304 794.845 725.651 793.73Q725.997 792.615 726.372 791.509Q726.746 790.402 727.147 789.306Q727.548 788.209 727.976 787.122Q728.405 786.036 728.859 784.96Q729.314 783.885 729.795 782.82Q730.276 781.756 730.783 780.704Q731.29 779.652 731.822 778.613Q732.355 777.574 732.913 776.548Q733.471 775.522 734.054 774.51C736.146 770.905 748.229 755.289 748.238 754.973C751.084 752.026 754.645 749.386 757.994 747.016Z"/>
	<path fill="#FDFDFC" d="M812.359 815.626C816.201 815.324 820.065 815.81 823.48 817.681C827.591 819.932 830.366 823.826 831.482 828.347C832.695 833.258 832.244 839.015 829.431 843.325C826.593 847.671 822.636 849.356 817.799 850.485C813.578 850.609 809.855 850.599 806.018 848.519C802.237 846.471 799.677 842.984 798.612 838.845C797.321 833.823 797.904 827.942 800.621 823.474C803.369 818.956 807.444 816.942 812.359 815.626Z"/>
	<path fill="#E0C308" d="M813.048 824.491C813.944 824.499 814.865 824.501 815.753 824.636C818.03 824.98 820.011 826.394 821.283 828.279Q821.546 828.676 821.767 829.099Q821.987 829.521 822.163 829.965Q822.338 830.408 822.466 830.867Q822.593 831.326 822.673 831.796Q822.752 832.266 822.781 832.742Q822.811 833.218 822.791 833.694Q822.771 834.17 822.701 834.642Q822.631 835.113 822.512 835.575C821.702 838.77 819.89 840.479 817.094 842.019C815.896 842.06 814.577 842.168 813.398 841.933C811.294 841.513 809.423 839.666 808.434 837.839Q808.201 837.4 808.014 836.939Q807.826 836.479 807.685 836.002Q807.545 835.525 807.452 835.037Q807.36 834.548 807.317 834.053Q807.274 833.558 807.281 833.06Q807.288 832.563 807.344 832.069Q807.4 831.575 807.506 831.09Q807.611 830.604 807.765 830.131C808.706 827.144 810.339 825.862 813.048 824.491Z"/>
	<path fill="#FDFDFC" d="M784.137 804.694C787.178 804.591 790.239 804.637 793.283 804.622C793.617 819.755 793.464 834.919 793.49 850.056C790.97 850.12 787.793 850.515 785.403 849.637C785.213 848.882 784.989 848.193 784.696 847.472C778.161 848.184 781.071 851.939 770.562 849.712C769.597 849.362 768.671 848.969 767.764 848.485C764.352 846.665 762.06 843.311 760.984 839.646C759.44 834.388 759.83 827.852 762.528 823.02C764.397 819.672 767.475 817.07 771.2 816.057C775.949 814.766 780.071 816.197 784.149 818.609L784.137 804.694Z"/>
	<path fill="#E0C308" d="M775.932 824.08C777.142 824.264 778.464 824.413 779.596 824.895C781.726 825.802 783.395 827.814 784.229 829.933Q784.404 830.386 784.533 830.856Q784.661 831.325 784.74 831.805Q784.82 832.284 784.849 832.77Q784.879 833.255 784.859 833.741Q784.839 834.227 784.769 834.708Q784.699 835.189 784.58 835.661Q784.462 836.133 784.295 836.59Q784.128 837.047 783.916 837.484C782.624 840.158 780.742 841.128 778.049 842.093L777.828 842.083C776.718 842.04 775.476 842.059 774.424 841.672C772.389 840.922 770.97 838.893 770.236 836.939C769.175 834.114 769.387 830.784 770.753 828.099C771.954 825.738 773.494 824.888 775.932 824.08Z"/>
	<path fill="#FDFDFC" d="M858.971 804.582L868.011 804.53L867.985 850.009C865.721 850.208 863.436 850.607 861.214 850.014C858.757 846.186 855.201 850.224 851.912 850.776C849.418 851.195 846.821 850.581 844.406 850.005Q843.345 849.476 842.321 848.88C838.71 846.734 836.41 842.814 835.453 838.803C834.134 833.274 834.891 826.86 838.065 822.073C840.242 818.79 843.557 816.285 847.485 815.599C852.033 814.804 855.486 816.52 859.024 819.142L858.971 804.582Z"/>
	<path fill="#E0C308" d="M850.059 824.518C851.223 824.545 852.463 824.541 853.587 824.867C855.775 825.5 857.57 827.183 858.562 829.204Q858.771 829.64 858.935 830.095Q859.099 830.55 859.217 831.019Q859.334 831.488 859.404 831.967Q859.473 832.445 859.494 832.928Q859.515 833.411 859.487 833.894Q859.459 834.377 859.382 834.854Q859.306 835.332 859.181 835.799Q859.057 836.267 858.886 836.719C857.84 839.48 856.227 840.88 853.636 842.15C852.676 842.15 851.686 842.163 850.734 842.031C848.511 841.722 846.601 840.163 845.425 838.316C844.03 836.126 843.717 833.362 844.393 830.873C845.306 827.512 847.1 826.105 850.059 824.518Z"/>
	<path fill="#FDFDFC" d="M499.222 338.709Q501.715 338.62 504.21 338.63Q506.705 338.639 509.198 338.746Q511.691 338.853 514.177 339.059Q516.664 339.264 519.14 339.567Q521.617 339.869 524.08 340.269Q526.542 340.669 528.987 341.165Q531.433 341.662 533.856 342.254Q536.28 342.846 538.679 343.533Q541.077 344.22 543.447 345Q545.817 345.781 548.154 346.654Q550.491 347.527 552.792 348.491Q555.093 349.456 557.355 350.51Q559.616 351.564 561.835 352.706Q564.053 353.848 566.224 355.076Q568.396 356.304 570.518 357.617Q572.64 358.93 574.708 360.325C602.417 379.063 620.024 408.14 626.272 440.767C633.006 439.541 639.722 438.537 646.583 438.49Q647.614 438.488 648.644 438.511Q649.674 438.535 650.704 438.583Q651.733 438.631 652.761 438.705Q653.789 438.778 654.815 438.877Q655.84 438.975 656.864 439.099Q657.887 439.222 658.907 439.371Q659.926 439.519 660.942 439.693Q661.958 439.866 662.969 440.064Q663.981 440.262 664.987 440.485Q665.993 440.707 666.994 440.954Q667.994 441.201 668.988 441.473Q669.982 441.744 670.97 442.04Q671.957 442.335 672.937 442.655Q673.916 442.975 674.888 443.318Q675.86 443.661 676.823 444.028Q677.786 444.395 678.739 444.786Q679.693 445.176 680.637 445.59Q681.581 446.003 682.515 446.44Q683.448 446.876 684.371 447.335Q685.293 447.794 686.205 448.276Q687.116 448.757 688.015 449.261Q688.914 449.764 689.801 450.29Q690.687 450.815 691.561 451.362Q692.434 451.909 693.294 452.477Q694.154 453.044 695 453.633Q695.846 454.222 696.677 454.831Q697.508 455.44 698.324 456.07Q699.14 456.699 699.941 457.348Q700.741 457.997 701.526 458.665Q702.31 459.334 703.078 460.021Q703.846 460.708 704.597 461.414Q705.348 462.12 706.081 462.844Q706.827 463.589 707.555 464.351Q708.283 465.114 708.992 465.894Q709.701 466.675 710.391 467.472Q711.08 468.27 711.75 469.084Q712.42 469.898 713.069 470.728Q713.719 471.559 714.348 472.405Q714.977 473.251 715.585 474.112Q716.193 474.973 716.78 475.849Q717.367 476.725 717.932 477.615Q718.497 478.505 719.041 479.408Q719.584 480.312 720.104 481.229Q720.625 482.145 721.123 483.075Q721.622 484.004 722.097 484.945Q722.572 485.886 723.024 486.838Q723.476 487.791 723.904 488.754Q724.333 489.717 724.737 490.691Q725.142 491.664 725.523 492.648Q725.904 493.631 726.26 494.623Q726.617 495.615 726.949 496.616Q727.281 497.616 727.588 498.625Q727.895 499.633 728.178 500.649Q728.46 501.665 728.718 502.687Q728.975 503.709 729.208 504.738Q729.44 505.766 729.647 506.8Q729.854 507.834 730.036 508.872Q730.217 509.911 730.373 510.953Q730.529 511.996 730.66 513.042Q730.79 514.088 730.895 515.137Q731 516.186 731.079 517.238Q731.158 518.289 731.211 519.342Q731.264 520.395 731.291 521.449Q731.319 522.503 731.32 523.557Q731.331 524.616 731.314 525.675Q731.298 526.733 731.255 527.792Q731.212 528.849 731.143 529.906Q731.073 530.963 730.977 532.017Q730.881 533.072 730.758 534.124Q730.635 535.175 730.486 536.224Q730.337 537.272 730.161 538.316Q729.986 539.36 729.784 540.4Q729.582 541.44 729.354 542.474Q729.125 543.508 728.871 544.536Q728.617 545.564 728.337 546.585Q728.057 547.606 727.752 548.62Q727.446 549.634 727.115 550.64Q726.784 551.645 726.427 552.642Q726.071 553.64 725.689 554.627Q725.308 555.615 724.902 556.593Q724.496 557.571 724.065 558.538Q723.634 559.506 723.179 560.462Q722.724 561.418 722.245 562.362Q721.766 563.307 721.263 564.239Q720.761 565.171 720.235 566.09Q719.709 567.009 719.16 567.914Q718.61 568.82 718.039 569.711Q717.467 570.602 716.873 571.479Q716.279 572.356 715.663 573.217Q715.047 574.078 714.41 574.924Q713.772 575.769 713.114 576.599Q712.455 577.428 711.776 578.24Q711.096 579.052 710.397 579.847Q709.697 580.642 708.978 581.419Q708.258 582.196 707.519 582.955Q706.781 583.713 706.023 584.453Q704.023 586.451 701.894 588.311Q699.766 590.171 697.518 591.886Q695.27 593.6 692.913 595.161Q690.556 596.722 688.101 598.122Q685.645 599.522 683.102 600.756Q680.558 601.99 677.938 603.052Q675.318 604.113 672.634 604.998Q669.949 605.883 667.211 606.587C650.174 610.858 627.624 609.2 609.766 609.322L516.25 609.494L410.59 609.388L376.952 609.424C365.606 609.421 353.976 609.959 342.849 607.38Q341.017 606.965 339.207 606.46Q337.398 605.955 335.615 605.362Q333.832 604.768 332.081 604.088Q330.33 603.407 328.615 602.641Q326.899 601.875 325.224 601.025Q323.548 600.175 321.917 599.244Q320.285 598.313 318.701 597.302Q317.117 596.292 315.585 595.204Q314.053 594.117 312.577 592.955Q311.1 591.794 309.683 590.561Q308.265 589.328 306.91 588.026Q305.555 586.725 304.266 585.358Q302.977 583.992 301.757 582.563Q300.536 581.135 299.388 579.648Q298.24 578.161 297.166 576.619Q296.092 575.078 295.096 573.485C285.038 557.097 281.046 537.519 285.562 518.687Q285.969 516.997 286.459 515.329Q286.949 513.662 287.521 512.021Q288.093 510.379 288.746 508.768Q289.398 507.157 290.129 505.58Q290.86 504.003 291.669 502.465Q292.477 500.926 293.36 499.429Q294.244 497.932 295.2 496.48Q296.156 495.029 297.183 493.627Q298.21 492.224 299.305 490.874Q300.4 489.524 301.561 488.23Q302.721 486.936 303.944 485.701Q305.167 484.466 306.45 483.293Q307.732 482.12 309.071 481.011Q310.41 479.903 311.802 478.862Q313.194 477.822 314.636 476.851Q316.078 475.88 317.566 474.982C335.019 464.298 354.396 462.847 373.986 467.598C374.701 460.4 374.929 453.296 376.158 446.141Q376.543 444.003 376.999 441.879Q377.455 439.755 377.981 437.647Q378.508 435.54 379.105 433.451Q379.702 431.362 380.368 429.295Q381.035 427.227 381.77 425.183Q382.505 423.139 383.308 421.121Q384.111 419.102 384.982 417.112Q385.852 415.121 386.788 413.161Q387.724 411.201 388.726 409.273Q389.727 407.345 390.792 405.452Q391.858 403.559 392.986 401.702Q394.114 399.846 395.303 398.028Q396.493 396.21 397.742 394.433Q398.992 392.656 400.3 390.922Q401.609 389.188 402.974 387.498Q404.34 385.809 405.761 384.166C430.789 355.689 461.541 341.139 499.222 338.709Z"/>
	<path fill="#E0C308" d="M411.497 502.679C421.7 501.828 432.593 502.609 442.862 502.627L510.479 502.862L566.854 502.798C577.629 502.734 589.015 501.956 599.72 502.985C604.887 503.482 609.803 504.882 614.163 507.764Q614.744 508.146 615.305 508.556Q615.866 508.967 616.405 509.405Q616.945 509.843 617.461 510.308Q617.978 510.773 618.471 511.263Q618.963 511.753 619.431 512.267Q619.898 512.782 620.339 513.319Q620.78 513.857 621.193 514.415Q621.606 514.974 621.991 515.553Q622.375 516.132 622.73 516.73Q623.085 517.327 623.409 517.942Q623.734 518.557 624.027 519.187Q624.32 519.817 624.581 520.462Q624.841 521.106 625.069 521.762Q625.297 522.419 625.492 523.086Q625.687 523.753 625.848 524.429Q626.008 525.106 626.135 525.789C627.934 535.578 627.333 553.488 621.378 561.659C616.114 568.882 608.451 571.988 599.909 573.183Q534.917 572.582 469.923 572.926L432.091 573.026C425.203 573.054 417.92 573.52 411.077 572.829C405.436 572.259 400.465 570.742 395.874 567.341C389.653 562.733 385.694 556.139 384.617 548.445C383.084 537.487 383.075 523.156 390.194 514.024C395.597 507.093 402.886 503.683 411.497 502.679Z"/>
</svg>
