<?xml version="1.0" encoding="utf-8" ?>
<svg xmlns="http://www.w3.org/2000/svg" xmlns:xlink="http://www.w3.org/1999/xlink" width="1024" height="1024">
	<path d="M0 0L1024 0L1024 1024L477.481 1024L473.777 1024L0 1024L0 0Z"/>
	<path fill="#FDFDFD" d="M557.317 799.607C559.649 799.782 561.783 800.029 563.893 801.113Q564.464 801.402 565.003 801.748Q565.541 802.095 566.041 802.495Q566.541 802.895 566.997 803.345Q567.453 803.794 567.86 804.288Q568.267 804.782 568.621 805.316Q568.975 805.85 569.272 806.417Q569.569 806.984 569.806 807.579Q570.043 808.174 570.217 808.79Q570.389 809.401 570.498 810.026Q570.607 810.652 570.653 811.285Q570.698 811.918 570.679 812.552Q570.66 813.187 570.576 813.816Q570.493 814.445 570.346 815.063Q570.199 815.68 569.991 816.28Q569.782 816.879 569.514 817.455Q569.245 818.03 568.92 818.575C566.73 822.163 563.649 823.463 559.704 824.315C557.367 824.163 555.223 823.944 553.096 822.889C549.952 821.331 547.593 818.615 546.647 815.222Q546.485 814.626 546.384 814.016Q546.282 813.406 546.243 812.79Q546.204 812.173 546.228 811.555Q546.251 810.938 546.337 810.326Q546.422 809.714 546.569 809.114Q546.716 808.513 546.923 807.931Q547.13 807.349 547.395 806.79Q547.659 806.232 547.979 805.703C550.168 802.069 553.356 800.589 557.317 799.607Z"/>
	<path fill="#FDFDFD" d="M970.919 463.581C973.506 463.754 975.794 464.081 978.061 465.43Q978.568 465.73 979.042 466.079Q979.516 466.428 979.953 466.823Q980.39 467.218 980.785 467.655Q981.18 468.092 981.529 468.566Q981.878 469.041 982.178 469.548Q982.478 470.055 982.725 470.589Q982.972 471.124 983.165 471.68Q983.357 472.237 983.493 472.81Q983.647 473.435 983.737 474.072Q983.827 474.709 983.851 475.352Q983.875 475.995 983.834 476.637Q983.792 477.279 983.686 477.913Q983.579 478.548 983.408 479.168Q983.237 479.789 983.004 480.388Q982.771 480.988 982.477 481.561Q982.184 482.133 981.834 482.673C979.426 486.321 976.234 487.592 972.092 488.376C969.736 488.171 967.705 487.831 965.613 486.665C962.6 484.985 960.417 482.267 959.545 478.913Q959.381 478.305 959.282 477.683Q959.183 477.061 959.15 476.432Q959.118 475.803 959.152 475.174Q959.187 474.545 959.288 473.924Q959.389 473.302 959.556 472.694Q959.723 472.087 959.953 471.501Q960.183 470.915 960.474 470.356Q960.765 469.797 961.114 469.273C963.524 465.687 966.858 464.436 970.919 463.581Z"/>
	<path fill="#FDFDFD" d="M773.64 53.048C776.225 52.8774 778.475 52.8959 780.893 53.9419Q781.49 54.1982 782.058 54.5139Q782.626 54.8295 783.159 55.2013Q783.693 55.573 784.185 55.997Q784.677 56.421 785.124 56.8928Q785.571 57.3647 785.968 57.8795Q786.364 58.3943 786.707 58.9468Q787.049 59.4992 787.333 60.0836Q787.618 60.668 787.841 61.2782C789.008 64.537 788.876 68.1644 787.261 71.2477C785.465 74.6764 782.699 76.3354 779.142 77.5482C776.581 77.6853 774.227 77.8362 771.79 76.8357Q771.205 76.602 770.647 76.3106Q770.088 76.0193 769.562 75.6733Q769.036 75.3273 768.547 74.9301Q768.058 74.533 767.612 74.0887Q767.166 73.6445 766.766 73.1576Q766.367 72.6707 766.018 72.1461Q765.67 71.6215 765.376 71.0645Q765.082 70.5076 764.845 69.9239Q764.613 69.3469 764.441 68.7493Q764.268 68.1517 764.158 67.5397Q764.047 66.9277 763.999 66.3076Q763.951 65.6875 763.967 65.0658Q763.982 64.444 764.061 63.8271Q764.139 63.2101 764.28 62.6043Q764.421 61.9986 764.623 61.4103Q764.825 60.822 765.085 60.2572C766.872 56.4122 769.816 54.5358 773.64 53.048Z"/>
	<path fill="#FDFDFD" d="M645.046 915.557C647.192 915.354 649.348 915.174 651.453 915.764Q652.087 915.944 652.699 916.187Q653.311 916.431 653.895 916.734Q654.479 917.038 655.03 917.4Q655.58 917.762 656.091 918.177Q656.602 918.593 657.068 919.058Q657.535 919.523 657.952 920.033Q658.369 920.543 658.732 921.092Q659.095 921.642 659.4 922.225C660.983 925.244 661.296 928.931 660.112 932.142C658.639 936.133 655.802 938.151 652.076 939.868C649.518 940.158 647.279 940.416 644.781 939.576Q644.169 939.377 643.58 939.116Q642.992 938.855 642.433 938.536Q641.874 938.217 641.351 937.842Q640.828 937.467 640.345 937.041Q639.863 936.615 639.427 936.142Q638.991 935.668 638.605 935.153Q638.219 934.638 637.888 934.086Q637.557 933.534 637.284 932.951Q637.018 932.38 636.809 931.785Q636.601 931.19 636.452 930.578Q636.304 929.965 636.216 929.341Q636.129 928.717 636.104 928.087Q636.078 927.458 636.115 926.829Q636.152 926.199 636.251 925.577Q636.35 924.955 636.51 924.345Q636.671 923.736 636.89 923.145C638.409 919.172 641.271 917.162 645.046 915.557Z"/>
	<path fill="#FDFDFD" d="M989.721 974.596C991.97 974.484 994.05 974.476 996.19 975.275Q996.797 975.498 997.376 975.783Q997.955 976.068 998.501 976.414Q999.047 976.759 999.554 977.16Q1000.06 977.561 1000.52 978.014Q1000.98 978.466 1001.39 978.965Q1001.8 979.464 1002.16 980.003Q1002.51 980.543 1002.81 981.117Q1003.11 981.691 1003.34 982.293Q1003.57 982.888 1003.74 983.505Q1003.92 984.121 1004.02 984.751Q1004.13 985.382 1004.17 986.02Q1004.21 986.658 1004.19 987.297Q1004.17 987.936 1004.08 988.569Q1003.99 989.203 1003.84 989.824Q1003.69 990.445 1003.47 991.047Q1003.26 991.649 1002.98 992.226C1001.14 996.067 998.228 997.972 994.361 999.431C991.756 999.538 989.57 999.615 987.116 998.561C983.95 997.201 981.452 994.676 980.257 991.428Q980.04 990.834 979.884 990.22Q979.728 989.607 979.634 988.982Q979.539 988.356 979.508 987.724Q979.477 987.092 979.51 986.46Q979.542 985.828 979.638 985.203Q979.733 984.577 979.891 983.965Q980.048 983.352 980.266 982.758Q980.484 982.164 980.761 981.595C982.69 977.646 985.702 975.929 989.721 974.596Z"/>
	<path fill="#FDFDFD" d="M45.4566 816.601C47.735 816.74 49.7631 816.982 51.8229 818.034Q52.3922 818.32 52.9297 818.661Q53.4673 819.003 53.9676 819.397Q54.4679 819.792 54.9259 820.234Q55.3838 820.677 55.7948 821.164Q56.2057 821.651 56.5654 822.176Q56.9252 822.702 57.23 823.261Q57.5348 823.821 57.7817 824.408Q58.0285 824.995 58.2148 825.604C59.2252 828.939 58.8627 832.571 57.0564 835.569C54.8248 839.272 51.6038 840.628 47.547 841.507C45.1028 841.505 42.7023 841.117 40.5066 840.007C37.3882 838.43 34.9648 835.736 33.9758 832.359Q33.8013 831.768 33.6896 831.162Q33.5779 830.556 33.5301 829.941Q33.4824 829.327 33.4991 828.711Q33.5159 828.095 33.5969 827.484Q33.678 826.873 33.8224 826.274Q33.9669 825.674 34.1732 825.094Q34.3795 824.513 34.6454 823.957Q34.9113 823.401 35.2339 822.876C37.6091 818.988 41.1861 817.524 45.4566 816.601Z"/>
	<path fill="#FDFDFD" d="M898.866 130.561C901.005 130.516 903.091 130.655 905.097 131.474Q905.696 131.724 906.267 132.035Q906.837 132.345 907.372 132.713Q907.907 133.081 908.401 133.502Q908.896 133.923 909.344 134.393Q909.792 134.863 910.189 135.377Q910.586 135.891 910.928 136.443Q911.269 136.995 911.552 137.58Q911.835 138.164 912.056 138.775C913.248 142.01 913.171 145.768 911.688 148.896C909.887 152.696 907.013 154.377 903.15 155.64C900.049 155.747 897.314 155.69 894.543 154.107C891.533 152.388 889.254 149.612 888.359 146.242Q888.198 145.64 888.098 145.025Q887.998 144.409 887.96 143.787Q887.923 143.165 887.948 142.542Q887.974 141.919 888.062 141.302Q888.149 140.685 888.299 140.08Q888.449 139.475 888.659 138.888Q888.868 138.301 889.136 137.738Q889.404 137.175 889.727 136.642C891.867 133.136 895.023 131.554 898.866 130.561Z"/>
	<path fill="#FDFDFD" d="M861.835 577.522C864.257 577.522 866.454 577.695 868.694 578.699Q869.265 578.95 869.808 579.259Q870.351 579.567 870.859 579.929Q871.367 580.291 871.836 580.703Q872.304 581.116 872.728 581.574Q873.152 582.032 873.527 582.531Q873.902 583.029 874.224 583.564Q874.546 584.099 874.812 584.663Q875.078 585.228 875.284 585.817Q875.497 586.411 875.648 587.024Q875.8 587.636 875.89 588.26Q875.98 588.885 876.006 589.516Q876.033 590.146 875.996 590.776Q875.959 591.406 875.859 592.029Q875.76 592.652 875.598 593.262Q875.436 593.872 875.214 594.462Q874.991 595.053 874.711 595.618C872.781 599.453 869.798 601.2 865.881 602.594C863.12 602.689 860.675 602.757 858.128 601.542Q857.543 601.268 856.99 600.935Q856.437 600.603 855.922 600.214Q855.406 599.826 854.933 599.387Q854.46 598.947 854.036 598.461Q853.611 597.975 853.239 597.448Q852.866 596.921 852.551 596.358Q852.235 595.795 851.979 595.202Q851.723 594.61 851.53 593.994Q851.339 593.39 851.209 592.77Q851.079 592.15 851.013 591.52Q850.947 590.89 850.945 590.256Q850.942 589.623 851.004 588.992Q851.065 588.362 851.19 587.741Q851.315 587.12 851.502 586.514Q851.689 585.909 851.936 585.326Q852.183 584.742 852.488 584.187C854.586 580.395 857.835 578.726 861.835 577.522Z"/>
	<path fill="#FDFDFD" d="M352.571 882.592C355.436 882.252 358.251 882.146 360.945 883.336Q361.543 883.6 362.112 883.922Q362.681 884.243 363.216 884.619Q363.751 884.995 364.246 885.422Q364.741 885.849 365.191 886.323Q365.642 886.796 366.044 887.312Q366.446 887.827 366.795 888.38Q367.144 888.932 367.438 889.517Q367.731 890.101 367.965 890.711C369.211 893.972 369.181 897.704 367.662 900.869C365.861 904.622 362.768 906.579 358.962 907.913C356.367 908.223 354.151 908.403 351.632 907.502Q351.028 907.283 350.45 907.005Q349.871 906.726 349.324 906.39Q348.777 906.055 348.266 905.665Q347.755 905.276 347.287 904.837Q346.818 904.398 346.396 903.914Q345.974 903.43 345.603 902.906Q345.232 902.382 344.916 901.823Q344.6 901.264 344.342 900.676Q344.074 900.067 343.868 899.435Q343.661 898.803 343.518 898.154Q343.375 897.505 343.297 896.844Q343.219 896.184 343.206 895.519Q343.194 894.854 343.247 894.191Q343.3 893.529 343.419 892.874Q343.537 892.22 343.72 891.581Q343.902 890.941 344.147 890.323C345.797 886.249 348.67 884.277 352.571 882.592Z"/>
	<path fill="#FDFDFD" d="M286.127 3.07023C288.901 2.71839 291.437 2.86734 294.022 4.03575Q294.615 4.30544 295.178 4.63347Q295.741 4.9615 296.268 5.34455Q296.796 5.72759 297.282 6.16176Q297.768 6.59592 298.207 7.0768Q298.647 7.55768 299.036 8.08038Q299.425 8.60308 299.76 9.1623Q300.094 9.72151 300.371 10.3116Q300.647 10.9016 300.863 11.5165C302.116 15.0241 301.931 19.0853 300.16 22.3857C298.2 26.0394 295.201 27.7377 291.34 28.877C288.707 29.0058 286.268 28.9056 283.821 27.823Q283.219 27.5626 282.646 27.2431Q282.073 26.9236 281.535 26.5481Q280.997 26.1726 280.499 25.745Q280.001 25.3174 279.549 24.842Q279.097 24.3666 278.695 23.8482Q278.293 23.3298 277.945 22.7736Q277.597 22.2174 277.306 21.6291Q277.016 21.0408 276.786 20.4263Q276.564 19.8343 276.401 19.2231Q276.239 18.6119 276.138 17.9876Q276.037 17.3633 275.999 16.732Q275.961 16.1008 275.986 15.4689Q276.011 14.8369 276.098 14.2106Q276.186 13.5843 276.335 12.9699Q276.485 12.3554 276.695 11.7588Q276.905 11.1623 277.173 10.5896C279.041 6.58823 282.154 4.62611 286.127 3.07023Z"/>
	<path fill="#FDFDFD" d="M269.788 746.539C272.277 746.39 274.682 746.449 277.001 747.459Q277.604 747.72 278.178 748.039Q278.751 748.359 279.291 748.733Q279.83 749.108 280.33 749.534Q280.829 749.961 281.284 750.434Q281.739 750.908 282.144 751.425Q282.55 751.942 282.902 752.496Q283.254 753.05 283.55 753.637Q283.845 754.223 284.081 754.836Q284.331 755.482 284.513 756.151Q284.694 756.819 284.805 757.503Q284.915 758.187 284.953 758.878Q284.991 759.57 284.956 760.262Q284.921 760.954 284.814 761.638Q284.707 762.323 284.529 762.992Q284.351 763.661 284.103 764.309Q283.856 764.956 283.542 765.573C281.619 769.319 278.472 771.259 274.588 772.531C272.067 772.719 269.566 772.71 267.204 771.708C263.906 770.31 261.278 767.734 259.958 764.387Q259.716 763.777 259.536 763.146Q259.356 762.514 259.241 761.868Q259.126 761.222 259.076 760.568Q259.026 759.913 259.043 759.257Q259.06 758.601 259.142 757.949Q259.224 757.298 259.372 756.659Q259.52 756.019 259.731 755.398Q259.942 754.776 260.215 754.179C262.187 749.932 265.547 748.019 269.788 746.539Z"/>
	<path fill="#FDFDFD" d="M62.3723 444.593C65.1738 444.461 67.8351 444.841 70.3193 446.225Q70.9203 446.562 71.4826 446.961Q72.0449 447.359 72.5624 447.814Q73.0799 448.27 73.547 448.776Q74.014 449.283 74.4254 449.836Q74.8367 450.389 75.188 450.982Q75.5392 451.575 75.8264 452.202Q76.1136 452.828 76.3336 453.481Q76.5537 454.134 76.7041 454.807Q76.851 455.441 76.9346 456.087Q77.0181 456.733 77.0375 457.383Q77.0569 458.034 77.0119 458.684Q76.967 459.333 76.8581 459.975Q76.7493 460.617 76.5775 461.245Q76.4058 461.873 76.173 462.481Q75.9401 463.089 75.6483 463.671Q75.3565 464.253 75.0087 464.803C72.781 468.323 69.6483 470.018 65.7034 470.959C63.2946 470.998 60.7952 470.61 58.6061 469.576C55.184 467.96 52.5234 465.037 51.3956 461.408Q51.2037 460.796 51.0741 460.168Q50.9444 459.54 50.8782 458.902Q50.812 458.264 50.81 457.623Q50.808 456.981 50.8702 456.343Q50.9324 455.705 51.0582 455.076Q51.1839 454.447 51.372 453.834Q51.56 453.221 51.8085 452.63Q52.0569 452.038 52.3633 451.475C54.5584 447.448 58.114 445.718 62.3723 444.593Z"/>
	<path fill="#FDFDFD" d="M55.8583 230.616C58.228 230.691 60.6494 231.163 62.7513 232.298Q63.362 232.62 63.9349 233.006Q64.5077 233.392 65.036 233.837Q65.5644 234.282 66.0422 234.781Q66.52 235.279 66.9418 235.826Q67.3637 236.373 67.7247 236.962Q68.0858 237.55 68.3819 238.174Q68.678 238.798 68.9058 239.45Q69.1336 240.102 69.2905 240.775Q69.4613 241.468 69.5585 242.175Q69.6557 242.883 69.6784 243.596Q69.701 244.31 69.6488 245.022Q69.5966 245.734 69.4701 246.437Q69.3436 247.139 69.1442 247.825Q68.9448 248.51 68.6747 249.171Q68.4046 249.832 68.0668 250.461Q67.729 251.09 67.3272 251.68C64.8621 255.264 61.6678 256.628 57.5455 257.512C54.8923 257.473 52.5262 257.068 50.1672 255.78Q49.6013 255.476 49.0688 255.117Q48.5363 254.757 48.0425 254.346Q47.5488 253.935 47.0988 253.477Q46.6488 253.018 46.2471 252.517Q45.8454 252.015 45.4961 251.476Q45.1468 250.937 44.8534 250.365Q44.56 249.794 44.3255 249.196Q44.0909 248.598 43.9176 247.979Q43.7258 247.292 43.6077 246.588Q43.4896 245.884 43.4465 245.172Q43.4034 244.46 43.4358 243.747Q43.4682 243.034 43.5757 242.328Q43.6832 241.623 43.8646 240.933Q44.0461 240.243 44.2994 239.575Q44.5527 238.908 44.8751 238.272Q45.1975 237.635 45.5853 237.036C48.0318 233.175 51.5545 231.58 55.8583 230.616Z"/>
	<path fill="#FFE75D" d="M928.295 681.363C929.115 683.328 929.423 685.696 930.002 687.767C933.796 701.327 941.92 707.997 953.79 714.734C941.442 718.074 931.645 721.887 924.926 733.477C924.024 735.033 922.921 738.138 921.436 739.029C920.87 736.669 920.248 734.28 919.459 731.984C915.161 719.484 906.083 713.052 894.75 707.368Q898.083 706.528 901.349 705.454C915.513 700.918 921.631 694.365 928.295 681.363Z"/>
	<path fill="#FFE75D" d="M135.752 638.437C136.867 641.735 137.509 645.224 138.645 648.547C142.842 660.822 150.895 667.025 162.243 672.595Q160.945 672.786 159.651 673.008C143.591 675.763 136.78 684.442 127.777 697.122Q126.897 694.217 125.947 691.334C121.273 677.343 113.356 671.664 100.619 665.367C104.8 664.357 108.998 663.359 113.036 661.858C124.626 657.552 130.791 649.419 135.752 638.437Z"/>
	<path fill="#FFE75D" d="M102.657 66.3566C103.358 69.4909 104.186 72.6756 105.233 75.7125C109.358 87.6802 117.831 93.6707 128.756 99.1095C112.432 104.085 103.64 111.385 95.5038 126.353Q94.4573 122.098 93.0352 117.953C88.5871 105.377 80.6462 98.9821 68.9029 93.4103C71.7376 92.7256 74.6224 92.0455 77.3781 91.0888C90.5518 86.5152 96.7537 78.4789 102.657 66.3566Z"/>
	<path fill="#FFE75D" d="M954.859 23.8813C956.474 25.6716 957.13 30.699 957.997 33.153C962.32 45.3891 971.788 51.6043 983.046 56.9031C981.213 57.3227 979.418 57.8661 977.63 58.448C963.502 63.0465 956.314 70.5441 949.712 83.5921C948.354 82.0301 947.664 77.3955 946.991 75.2478C943.009 62.5344 932.591 56.9504 921.547 51.2125Q927.42 49.5971 933.082 47.3521C944.373 42.7555 950.195 34.7699 954.859 23.8813Z"/>
	<path fill="#FFE75D" d="M162.559 900.269C163.787 903.112 164.347 906.493 165.277 909.464C169.733 923.705 176.284 927.891 188.986 934.481C186.066 935.182 183.187 935.94 180.344 936.913C167.241 941.401 160.246 948.88 154.198 961.121C153.475 960.352 153.335 958.972 153.064 957.945C148.736 941.578 142.872 935.322 128.268 926.824Q131.936 925.911 135.555 924.821C149.152 920.684 156.083 912.46 162.559 900.269Z"/>
	<path fill="#FFE75D" d="M449.505 992.641C462.536 990.036 471.75 986.014 479.308 974.632Q481.863 970.818 483.91 966.709C485.961 977.864 489.061 987.93 498.857 994.653C502.59 997.214 506.815 999.045 511.072 1000.54C496.097 1004.47 485.994 1010.95 477.481 1024L473.777 1024C470.066 1008.49 462.626 1001.16 449.505 992.641Z"/>
	<path fill="#FFE75D" d="M934.219 280.801C935.218 283.267 935.68 286.151 936.448 288.721C940.876 303.543 947.755 308.393 960.899 315.521C948.769 319.279 937.765 323.552 931.053 335.009C929.923 336.937 928.659 340.555 926.829 341.78Q926.631 340.733 926.349 339.705C922.127 323.835 913.443 316.818 899.609 308.872Q903.543 307.779 907.412 306.475C921.628 301.636 927.724 293.993 934.219 280.801Z"/>
	<path fill="#FDFDFD" d="M685.826 623.514C692.086 631.843 698.848 640.377 705.804 648.128C707.711 645.939 709.835 644.056 712.888 643.925C716.48 643.771 719.548 646.029 721.978 648.438C726.443 652.866 730.528 657.893 734.704 662.606C718.742 675.251 703.225 688.515 687.667 701.653C678.79 709.148 669.177 716.395 660.952 724.585C656.387 718.656 645.571 707.424 646.515 699.709C647.136 694.636 653.695 691.488 657.205 688.383C649.339 679.757 642.166 670.52 634.961 661.343C652.244 650.443 671.064 637.733 685.826 623.514Z"/>
	<path fill="#FFE75D" d="M736.413 664.427C746.592 674.089 756.184 684.489 765.903 694.612L805.883 736.237C844.087 776.415 882.557 816.899 917.003 860.406C931.22 878.363 936.857 895.986 934.027 919.027Q933.827 920.74 933.543 922.44Q933.258 924.141 932.89 925.825Q932.522 927.51 932.071 929.174Q931.619 930.838 931.086 932.478Q930.553 934.117 929.939 935.729Q929.325 937.34 928.632 938.919Q927.939 940.498 927.169 942.04Q926.399 943.583 925.553 945.086Q924.707 946.588 923.788 948.047Q922.869 949.506 921.879 950.917Q920.888 952.329 919.829 953.689Q918.77 955.05 917.645 956.357Q916.52 957.663 915.331 958.912Q914.143 960.161 912.894 961.35Q911.645 962.539 910.339 963.664Q909.032 964.79 907.672 965.849C894.454 975.98 877.236 979.051 860.997 976.88Q858.856 976.501 856.731 976.04C846.453 973.769 835.171 968.477 827.443 961.243C820.698 954.928 815.593 946.145 809.869 938.878C797.228 922.827 784.223 906.955 772.346 890.322C762.694 876.806 753.977 862.463 744.649 848.701C734.792 834.159 724.308 820.078 714.355 805.611Q687.732 766.537 662.337 726.653C672.099 718.935 681.432 710.589 690.938 702.553L736.413 664.427Z"/>
	<path fill="#FFE75D" d="M634.961 661.343C626.036 667.262 615.96 672.129 606.249 676.611Q602.214 678.477 598.129 680.231Q594.043 681.984 589.911 683.624Q585.779 685.263 581.602 686.787Q577.426 688.312 573.209 689.72Q568.992 691.128 564.738 692.419Q560.484 693.709 556.195 694.881Q551.907 696.053 547.588 697.106Q543.268 698.159 538.922 699.092Q534.575 700.024 530.204 700.836Q525.833 701.648 521.441 702.339Q517.049 703.029 512.64 703.597Q508.231 704.165 503.807 704.611Q499.384 705.057 494.95 705.38Q490.516 705.703 486.075 705.904Q481.634 706.104 477.189 706.18Q472.743 706.257 468.298 706.211Q464.342 706.166 460.389 706.025Q456.435 705.884 452.486 705.647Q448.537 705.41 444.595 705.078Q440.653 704.745 436.72 704.317Q432.787 703.888 428.866 703.365Q424.945 702.841 421.038 702.222Q417.13 701.603 413.239 700.89Q409.348 700.176 405.475 699.368Q401.602 698.561 397.75 697.659Q393.898 696.758 390.07 695.763Q386.241 694.768 382.437 693.68Q378.633 692.593 374.857 691.413Q371.081 690.234 367.335 688.963Q363.588 687.692 359.874 686.33Q356.16 684.969 352.479 683.518Q348.799 682.066 345.155 680.526Q341.511 678.986 337.906 677.357Q334.3 675.729 330.735 674.014Q327.171 672.298 323.649 670.497Q320.126 668.696 316.649 666.809Q313.172 664.923 309.741 662.953Q306.311 660.982 302.929 658.929Q299.547 656.876 296.217 654.742Q292.886 652.607 289.608 650.393Q286.33 648.178 283.106 645.884Q279.883 643.59 276.717 641.219Q273.55 638.848 270.442 636.4Q267.334 633.953 264.286 631.431Q261.238 628.908 258.253 626.313Q255.267 623.717 252.346 621.05Q249.424 618.383 246.568 615.645Q243.712 612.908 240.923 610.102Q238.106 607.271 235.361 604.371Q232.615 601.471 229.942 598.504Q227.268 595.537 224.669 592.505Q222.07 589.472 219.547 586.377Q217.023 583.281 214.577 580.124Q212.131 576.968 209.764 573.751Q207.397 570.535 205.11 567.261Q202.823 563.987 200.618 560.657Q198.412 557.328 196.29 553.944Q194.168 550.561 192.13 547.127Q190.092 543.692 188.139 540.209Q186.187 536.725 184.321 533.194Q182.455 529.663 180.677 526.087Q178.9 522.511 177.211 518.892Q175.522 515.273 173.923 511.613Q172.324 507.954 170.816 504.256Q169.308 500.558 167.892 496.823Q166.476 493.089 165.152 489.321Q163.829 485.553 162.599 481.754Q161.37 477.954 160.234 474.125Q159.099 470.296 158.058 466.44Q157.018 462.585 156.073 458.704Q155.128 454.824 154.28 450.922Q153.431 447.019 152.679 443.097Q151.928 439.175 151.273 435.235Q150.618 431.296 150.061 427.341Q149.504 423.386 149.045 419.419Q148.586 415.452 148.226 411.475Q147.865 407.497 147.602 403.512Q147.34 399.527 147.176 395.537Q147.012 391.547 146.947 387.554Q146.882 383.56 146.916 379.567Q146.925 375.545 147.034 371.524Q147.143 367.503 147.352 363.486Q147.562 359.469 147.871 355.458Q148.181 351.448 148.591 347.446Q149 343.445 149.51 339.455Q150.02 335.465 150.629 331.489Q151.238 327.513 151.946 323.553Q152.654 319.593 153.461 315.653Q154.267 311.712 155.172 307.793Q156.077 303.873 157.08 299.978Q158.082 296.082 159.182 292.213Q160.281 288.344 161.477 284.503Q162.673 280.663 163.964 276.853Q165.256 273.044 166.642 269.268Q168.028 265.491 169.508 261.751Q170.988 258.011 172.561 254.309Q174.133 250.607 175.798 246.945Q177.463 243.283 179.219 239.664Q180.975 236.045 182.82 232.471Q184.666 228.897 186.6 225.37Q188.534 221.843 190.556 218.366Q192.578 214.888 194.686 211.463Q196.794 208.037 198.987 204.665Q201.179 201.292 203.456 197.976Q205.732 194.66 208.091 191.401Q210.449 188.143 212.888 184.944Q215.327 181.746 217.846 178.609Q220.364 175.472 222.96 172.4Q225.555 169.327 228.227 166.32Q230.899 163.313 233.645 160.374Q236.391 157.434 239.209 154.564Q242.028 151.695 244.917 148.896Q247.752 146.116 250.655 143.407Q253.559 140.697 256.528 138.061Q259.497 135.424 262.53 132.861Q265.564 130.299 268.659 127.812Q271.755 125.325 274.911 122.915Q278.067 120.505 281.282 118.174Q284.497 115.843 287.768 113.592Q291.04 111.341 294.366 109.172Q297.691 107.002 301.07 104.915Q304.448 102.829 307.877 100.826Q311.306 98.8235 314.784 96.9061Q318.261 94.9888 321.785 93.1579Q325.308 91.327 328.876 89.5837Q332.444 87.8404 336.054 86.1857Q339.664 84.5311 343.313 82.966Q346.963 81.401 350.65 79.9266Q354.337 78.4521 358.059 77.0692Q361.781 75.6863 365.537 74.3957Q369.292 73.1051 373.078 71.9077Q376.864 70.7102 380.679 69.6066Q384.493 68.503 388.334 67.494Q392.175 66.4849 396.039 65.571Q399.903 64.6571 403.789 63.8389Q407.675 63.0207 411.579 62.2987Q415.484 61.5767 419.406 60.9514Q423.327 60.326 427.263 59.7977Q431.198 59.2694 435.146 58.8384Q439.093 58.4075 443.05 58.0741Q447.007 57.7408 450.971 57.5052Q454.935 57.2697 458.904 57.1321Q462.872 56.9945 466.843 56.955Q470.814 56.9155 474.784 56.974Q478.693 57.0427 482.599 57.2058Q486.505 57.3689 490.406 57.6262Q494.306 57.8835 498.2 58.2349Q502.094 58.5863 505.978 59.0316Q509.861 59.4768 513.734 60.0158Q517.606 60.5547 521.464 61.1869Q525.321 61.8191 529.163 62.5443Q533.004 63.2695 536.827 64.0872Q540.65 64.9049 544.452 65.8147Q548.254 66.7244 552.033 67.7257Q555.812 68.727 559.566 69.8192Q563.32 70.9114 567.046 72.0939Q570.772 73.2764 574.469 74.5485Q578.166 75.8206 581.83 77.1815Q585.495 78.5425 589.126 79.9916Q592.757 81.4406 596.352 82.9769Q599.947 84.5132 603.503 86.1358Q607.06 87.7584 610.577 89.4664Q614.093 91.1744 617.568 92.9667Q621.042 94.7591 624.472 96.6349Q627.902 98.5106 631.286 100.469Q634.669 102.427 638.005 104.466Q641.34 106.505 644.625 108.624Q647.911 110.743 651.144 112.941Q654.377 115.138 657.556 117.413Q660.735 119.689 663.859 122.04Q666.982 124.391 670.048 126.817Q673.113 129.243 676.12 131.742Q679.126 134.241 682.071 136.812Q685.016 139.383 687.898 142.025Q690.78 144.666 693.597 147.376Q696.415 150.087 699.166 152.864C760.033 215.39 794.361 297.232 793.164 384.836Q793.136 388.238 793.038 391.639Q792.939 395.04 792.769 398.439Q792.599 401.837 792.358 405.231Q792.117 408.625 791.805 412.013Q791.493 415.401 791.11 418.782Q790.727 422.163 790.273 425.535Q789.82 428.907 789.296 432.269Q788.771 435.631 788.177 438.981Q787.582 442.331 786.918 445.668Q786.253 449.005 785.519 452.327Q784.784 455.649 783.981 458.955Q783.177 462.262 782.304 465.55Q781.431 468.839 780.49 472.108Q779.548 475.378 778.539 478.627Q777.529 481.877 776.451 485.104Q775.374 488.331 774.229 491.535Q773.084 494.739 771.872 497.919Q770.66 501.098 769.382 504.251Q768.104 507.405 766.76 510.53Q765.417 513.656 764.007 516.753Q762.598 519.85 761.125 522.917Q759.651 525.984 758.114 529.019Q756.576 532.054 754.975 535.057Q753.375 538.059 751.711 541.027Q750.048 543.996 748.323 546.928Q746.598 549.861 744.812 552.757Q743.026 555.653 741.18 558.511Q739.333 561.369 737.427 564.188Q735.521 567.006 733.557 569.784Q731.593 572.562 729.57 575.299Q727.548 578.035 725.469 580.728Q723.39 583.422 721.255 586.071C710.288 599.597 698.259 611.395 685.826 623.514C671.064 637.733 652.244 650.443 634.961 661.343Z"/>
	<path d="M455.572 113.711C455.838 113.688 456.102 113.658 456.368 113.641C523.874 109.39 592.029 134.208 643.024 178.12Q645.543 180.277 648.008 182.496Q650.473 184.714 652.882 186.993Q655.291 189.272 657.643 191.609Q659.996 193.947 662.289 196.342Q664.583 198.737 666.817 201.188Q669.051 203.639 671.224 206.144Q673.397 208.649 675.507 211.207Q677.617 213.766 679.663 216.375Q681.71 218.985 683.691 221.644Q685.672 224.303 687.587 227.011Q689.502 229.718 691.35 232.472Q693.197 235.226 694.976 238.025Q696.755 240.824 698.464 243.665Q700.174 246.507 701.812 249.39Q703.451 252.274 705.018 255.196Q706.584 258.119 708.078 261.08Q709.573 264.04 710.993 267.037Q712.414 270.033 713.76 273.064Q715.106 276.095 716.377 279.158Q717.648 282.221 718.842 285.315Q720.037 288.408 721.155 291.53Q722.273 294.652 723.314 297.801Q724.354 300.95 725.317 304.123Q726.279 307.297 727.163 310.493Q728.047 313.69 728.851 316.907Q729.656 320.124 730.381 323.36Q731.105 326.596 731.75 329.849Q732.395 333.102 732.959 336.37Q733.523 339.638 734.006 342.919Q734.49 346.199 734.892 349.491Q735.294 352.783 735.614 356.084Q735.935 359.384 736.174 362.692Q736.411 365.937 736.569 369.186Q736.726 372.435 736.805 375.687Q736.883 378.94 736.883 382.193Q736.882 385.446 736.802 388.698Q736.722 391.95 736.563 395.199Q736.403 398.449 736.165 401.693Q735.927 404.937 735.609 408.175Q735.292 411.413 734.896 414.642Q734.5 417.871 734.026 421.089Q733.551 424.307 732.998 427.513Q732.445 430.719 731.815 433.91Q731.184 437.102 730.476 440.277Q729.767 443.452 728.982 446.609Q728.196 449.766 727.334 452.903Q726.472 456.039 725.534 459.154Q724.596 462.269 723.582 465.36Q722.568 468.451 721.479 471.517Q720.39 474.582 719.227 477.621Q718.064 480.659 716.827 483.667Q715.59 486.676 714.28 489.654Q712.97 492.632 711.588 495.577Q710.206 498.522 708.753 501.432Q707.3 504.343 705.776 507.217Q704.252 510.091 702.659 512.927Q701.066 515.764 699.404 518.56Q697.742 521.357 696.012 524.112Q694.283 526.867 692.486 529.58Q690.69 532.292 688.828 534.96Q686.967 537.628 685.041 540.249Q683.115 542.871 681.125 545.445Q679.136 548.019 677.084 550.543Q675.032 553.068 672.92 555.542Q670.712 558.077 668.442 560.557Q666.172 563.037 663.842 565.461Q661.511 567.884 659.122 570.248Q656.732 572.613 654.284 574.918Q651.837 577.223 649.333 579.466Q646.829 581.71 644.271 583.891Q641.712 586.072 639.1 588.189Q636.488 590.306 633.825 592.358Q631.162 594.409 628.449 596.395Q625.735 598.38 622.974 600.297Q620.212 602.215 617.404 604.063Q614.596 605.912 611.743 607.69Q608.89 609.469 605.994 611.176Q603.097 612.884 600.16 614.519Q597.222 616.154 594.245 617.716Q591.268 619.278 588.253 620.766Q585.239 622.254 582.188 623.667Q579.137 625.079 576.053 626.416Q572.968 627.753 569.851 629.013Q566.734 630.274 563.587 631.456Q560.44 632.639 557.265 633.744Q554.089 634.848 550.888 635.874Q547.686 636.899 544.46 637.845Q541.234 638.791 537.985 639.657Q534.736 640.523 531.468 641.308Q528.198 642.094 524.911 642.798Q521.624 643.502 518.32 644.125Q515.016 644.747 511.698 645.288Q508.38 645.829 505.049 646.287Q501.719 646.746 498.378 647.122Q495.037 647.498 491.688 647.791Q488.338 648.084 484.983 648.294C484.796 648.311 484.609 648.333 484.421 648.343Q481.211 648.523 477.998 648.625Q474.784 648.726 471.569 648.75Q468.354 648.773 465.14 648.719Q461.925 648.664 458.713 648.531Q455.5 648.398 452.292 648.186Q449.084 647.975 445.882 647.686Q442.68 647.396 439.486 647.029Q436.292 646.662 433.108 646.217Q429.924 645.772 426.751 645.25Q423.579 644.728 420.42 644.129Q417.262 643.529 414.118 642.853Q410.975 642.177 407.85 641.425Q404.724 640.672 401.617 639.844Q398.511 639.016 395.425 638.112Q392.34 637.208 389.277 636.23Q386.215 635.251 383.177 634.198Q380.139 633.146 377.128 632.019Q374.117 630.893 371.134 629.693Q368.151 628.494 365.198 627.222Q362.245 625.95 359.324 624.607Q356.403 623.264 353.516 621.85Q350.628 620.436 347.776 618.952Q344.924 617.468 342.109 615.915Q339.294 614.362 336.517 612.741Q333.741 611.12 331.005 609.432Q328.268 607.744 325.574 605.99Q322.88 604.235 320.229 602.416Q317.578 600.597 314.972 598.713Q312.367 596.83 309.808 594.884Q307.249 592.938 304.738 590.93Q302.227 588.922 299.765 586.853Q297.304 584.785 294.894 582.657Q292.456 580.498 290.071 578.281Q287.687 576.064 285.356 573.791Q283.025 571.517 280.75 569.187Q278.475 566.858 276.257 564.474Q274.039 562.09 271.879 559.654Q269.719 557.217 267.619 554.729Q265.518 552.241 263.478 549.703Q261.438 547.165 259.461 544.578Q257.483 541.992 255.568 539.358Q253.653 536.724 251.802 534.045Q249.951 531.366 248.166 528.644Q246.38 525.921 244.661 523.155Q242.942 520.39 241.29 517.584Q239.638 514.778 238.054 511.933Q236.47 509.088 234.956 506.206Q233.441 503.323 231.997 500.405Q230.552 497.487 229.179 494.535Q227.805 491.582 226.503 488.598Q225.201 485.613 223.971 482.598Q222.742 479.583 221.586 476.539Q220.429 473.496 219.347 470.425Q218.264 467.354 217.256 464.258Q216.248 461.161 215.315 458.042Q214.382 454.922 213.525 451.781Q212.667 448.64 211.886 445.479Q211.104 442.318 210.4 439.139Q209.695 435.96 209.067 432.765Q208.439 429.57 207.889 426.361Q207.338 423.151 206.866 419.93Q206.393 416.708 205.998 413.476Q205.603 410.244 205.286 407.003Q204.969 403.762 204.731 400.515C199.917 329.58 221.908 259.478 268.882 205.712Q271.066 203.184 273.313 200.712Q275.56 198.24 277.868 195.825Q280.176 193.41 282.544 191.053Q284.911 188.696 287.337 186.399Q289.763 184.103 292.246 181.867Q294.728 179.632 297.266 177.459Q299.804 175.287 302.395 173.178Q304.986 171.07 307.629 169.027Q310.273 166.984 312.966 165.008Q315.66 163.032 318.402 161.124Q321.144 159.215 323.933 157.376Q326.721 155.538 329.556 153.769Q332.39 152 335.267 150.303Q338.144 148.606 341.063 146.981Q343.982 145.356 346.941 143.805Q349.9 142.254 352.896 140.777Q355.893 139.3 358.925 137.899Q361.958 136.498 365.024 135.173Q368.091 133.848 371.19 132.6Q374.289 131.352 377.418 130.182Q380.547 129.012 383.704 127.921Q386.862 126.83 390.045 125.818Q393.229 124.806 396.437 123.873Q399.645 122.941 402.875 122.09Q406.106 121.238 409.356 120.468Q412.607 119.697 415.876 119.008Q419.145 118.32 422.43 117.713Q425.715 117.106 429.014 116.581Q432.313 116.056 435.624 115.615Q438.936 115.173 442.257 114.814Q445.578 114.455 448.908 114.179Q452.237 113.903 455.572 113.711Z"/>
	<path fill="#58D7CD" d="M458.075 137.706Q461.013 137.58 463.952 137.525Q466.892 137.471 469.833 137.487Q472.773 137.503 475.712 137.591Q478.651 137.678 481.587 137.836Q484.523 137.995 487.454 138.224Q490.386 138.453 493.311 138.753Q496.236 139.053 499.153 139.424Q502.069 139.794 504.977 140.236Q507.884 140.677 510.779 141.188Q513.675 141.699 516.557 142.28Q519.439 142.861 522.307 143.511Q525.174 144.162 528.025 144.881Q530.876 145.601 533.709 146.389Q536.541 147.178 539.354 148.034Q542.167 148.891 544.958 149.815Q547.75 150.739 550.518 151.731Q553.286 152.722 556.029 153.78Q558.773 154.838 561.49 155.962Q564.207 157.086 566.896 158.276Q569.585 159.465 572.244 160.719Q574.904 161.973 577.532 163.291Q580.161 164.609 582.756 165.99Q585.352 167.371 587.914 168.814Q590.475 170.258 593.001 171.763Q595.527 173.267 598.016 174.833Q600.505 176.398 602.956 178.024Q605.406 179.649 607.816 181.333Q610.227 183.017 612.596 184.758Q614.965 186.5 617.291 188.299Q619.617 190.097 621.899 191.951Q624.181 193.805 626.418 195.714Q628.654 197.623 630.844 199.585Q633.078 201.57 635.263 203.61Q637.447 205.649 639.581 207.742Q641.714 209.835 643.796 211.98Q645.877 214.125 647.905 216.32Q649.932 218.516 651.906 220.761Q653.879 223.005 655.796 225.298Q657.713 227.591 659.573 229.93Q661.433 232.27 663.235 234.654Q665.036 237.039 666.779 239.467Q668.521 241.895 670.203 244.365Q671.885 246.836 673.506 249.347Q675.126 251.858 676.685 254.409Q678.243 256.959 679.738 259.547Q681.232 262.135 682.663 264.759Q684.094 267.383 685.459 270.041Q686.825 272.7 688.124 275.391Q689.424 278.083 690.656 280.805Q691.889 283.528 693.054 286.28Q694.219 289.032 695.316 291.812Q696.413 294.592 697.442 297.399Q698.47 300.205 699.428 303.036Q700.387 305.866 701.276 308.72Q702.164 311.573 702.982 314.448Q703.8 317.323 704.547 320.216Q705.294 323.11 705.969 326.022Q706.644 328.933 707.247 331.86Q707.851 334.787 708.381 337.729Q708.912 340.67 709.371 343.623Q709.829 346.576 710.214 349.54Q710.599 352.504 710.911 355.476Q711.223 358.449 711.462 361.428Q711.701 364.407 711.866 367.391Q712.026 370.429 712.112 373.469Q712.197 376.51 712.208 379.552Q712.218 382.594 712.154 385.635Q712.09 388.677 711.951 391.715Q711.813 394.754 711.599 397.789Q711.386 400.823 711.098 403.852Q710.81 406.88 710.448 409.9Q710.085 412.92 709.649 415.931Q709.212 418.941 708.702 421.94Q708.192 424.939 707.608 427.924Q707.024 430.91 706.367 433.88Q705.71 436.85 704.98 439.803Q704.25 442.756 703.448 445.691Q702.646 448.625 701.772 451.539Q700.898 454.452 699.953 457.344Q699.007 460.235 697.991 463.102Q696.975 465.969 695.889 468.811Q694.802 471.652 693.646 474.466Q692.491 477.28 691.266 480.064Q690.041 482.849 688.749 485.603Q687.456 488.356 686.096 491.077Q684.736 493.798 683.309 496.485Q681.883 499.172 680.391 501.823Q678.899 504.474 677.342 507.087Q675.785 509.7 674.165 512.275Q672.544 514.849 670.861 517.383Q669.178 519.917 667.433 522.408Q665.688 524.9 663.882 527.348Q662.076 529.796 660.211 532.199Q658.345 534.602 656.422 536.958Q654.498 539.314 652.516 541.623Q650.535 543.931 648.498 546.19C607.024 592.174 544.943 620.375 483.345 623.636Q482.548 623.724 481.748 623.772C421.364 627.829 358.475 605.768 312.98 566.083Q310.677 564.097 308.424 562.054Q306.171 560.012 303.97 557.913Q301.769 555.815 299.62 553.662Q297.472 551.51 295.379 549.304Q293.285 547.098 291.247 544.841Q289.209 542.584 287.227 540.277Q285.246 537.969 283.323 535.613Q281.401 533.257 279.537 530.854Q277.674 528.451 275.871 526.002Q274.068 523.553 272.326 521.059Q270.585 518.566 268.907 516.03Q267.228 513.494 265.614 510.917Q263.999 508.34 262.449 505.724Q260.899 503.107 259.415 500.453Q257.931 497.798 256.514 495.108Q255.096 492.417 253.747 489.692Q252.397 486.967 251.115 484.209Q249.834 481.451 248.622 478.661Q247.41 475.872 246.268 473.054Q245.126 470.235 244.054 467.389Q242.983 464.543 241.983 461.671Q240.983 458.799 240.055 455.903Q239.127 453.007 238.271 450.089Q237.416 447.17 236.633 444.231Q235.851 441.293 235.142 438.335Q234.433 435.378 233.798 432.404Q233.163 429.43 232.603 426.441Q232.043 423.452 231.557 420.449Q231.072 417.447 230.661 414.434Q230.251 411.421 229.915 408.398Q229.58 405.376 229.321 402.346Q229.061 399.316 228.877 396.28Q228.676 393.3 228.549 390.316Q228.421 387.332 228.367 384.345Q228.312 381.359 228.331 378.372Q228.349 375.386 228.441 372.4Q228.532 369.415 228.697 366.433Q228.862 363.45 229.099 360.473Q229.336 357.496 229.647 354.525Q229.957 351.554 230.34 348.592Q230.722 345.63 231.178 342.678Q231.633 339.726 232.16 336.786Q232.687 333.847 233.286 330.92Q233.885 327.994 234.555 325.084Q235.226 322.173 235.967 319.28Q236.709 316.386 237.52 313.512Q238.332 310.638 239.214 307.784Q240.096 304.931 241.048 302.099Q241.999 299.268 243.02 296.461Q244.04 293.654 245.129 290.873Q246.218 288.092 247.375 285.338Q248.531 282.584 249.755 279.859Q250.978 277.135 252.268 274.441Q253.558 271.747 254.913 269.085Q256.269 266.424 257.689 263.796Q259.109 261.169 260.593 258.576Q262.077 255.984 263.623 253.429Q265.17 250.874 266.779 248.358Q268.388 245.841 270.058 243.365Q271.728 240.889 273.458 238.454Q275.188 236.019 276.977 233.628Q278.766 231.236 280.613 228.889Q282.461 226.542 284.364 224.24Q286.268 221.939 288.228 219.685C332.188 169.559 391.994 142.06 458.075 137.706Z"/>
	<path fill="#FDFDFD" d="M481.995 159.604C491.125 158.332 503.049 161.657 512.024 163.797C572.049 178.108 625.638 213.994 658.096 266.993Q660.542 270.921 662.807 274.956Q665.072 278.991 667.152 283.124Q669.232 287.257 671.122 291.481Q673.012 295.704 674.708 300.009Q676.405 304.314 677.905 308.692Q679.404 313.069 680.704 317.51Q682.003 321.951 683.1 326.446Q684.196 330.942 685.088 335.482C686.041 340.366 687.644 346.558 686.274 351.459C685.529 354.121 683.926 355.099 681.598 356.353C680.554 356.496 679.557 356.59 678.501 356.532C672.619 356.21 671.342 350.69 670.567 345.88Q669.988 342.465 669.291 339.072Q668.594 335.678 667.778 332.312Q666.963 328.945 666.031 325.608Q665.099 322.272 664.051 318.97Q663.003 315.669 661.841 312.405Q660.679 309.142 659.404 305.921Q658.128 302.7 656.742 299.526Q655.355 296.352 653.858 293.227Q652.362 290.103 650.757 287.033Q649.153 283.963 647.442 280.951Q645.732 277.938 643.917 274.988Q642.103 272.037 640.187 269.151Q638.271 266.265 636.255 263.448Q634.24 260.63 632.127 257.885Q630.015 255.14 627.808 252.47Q625.601 249.8 623.302 247.208C596.266 216.852 563.958 198.245 526.057 184.625C517.29 181.475 507.975 179.313 498.766 177.872C493.875 177.108 488.655 176.835 483.89 175.498C481.995 174.967 480.029 174.286 478.749 172.707C477.282 170.897 477.041 168.6 477.403 166.365C477.942 163.037 479.269 161.467 481.995 159.604Z"/>
	<path fill="#FDFDFD" d="M467.176 308.732C494.236 309.026 520.665 314.101 545.354 325.444C580.371 341.532 613.997 369.477 627.753 406.473Q626.395 409.762 624.876 412.98Q623.358 416.199 621.683 419.338Q620.008 422.478 618.18 425.531Q616.352 428.584 614.377 431.544Q612.401 434.504 610.282 437.363Q608.163 440.222 605.906 442.973Q603.649 445.724 601.259 448.36Q598.87 450.997 596.353 453.513C563.714 486.635 514.283 506.218 467.937 506.521C445.744 506.772 423.07 501.272 402.55 492.976C364.194 477.469 323.448 444.089 306.981 405.218C312.668 392.859 324.051 379.299 333.393 369.318C369.394 330.852 414.668 310.534 467.176 308.732Z"/>
	<path fill="#A16C01" d="M462.614 326.696C479.101 325.163 497.977 330.81 511.068 340.914Q512.476 342.009 513.829 343.172Q515.182 344.335 516.476 345.562Q517.77 346.79 519.003 348.08Q520.235 349.37 521.403 350.718Q522.57 352.067 523.671 353.471Q524.771 354.875 525.801 356.332Q526.831 357.788 527.788 359.293Q528.745 360.799 529.627 362.349Q530.51 363.9 531.315 365.491Q532.12 367.083 532.846 368.712Q533.573 370.342 534.218 372.005Q534.863 373.668 535.426 375.361Q535.99 377.053 536.469 378.772Q536.948 380.49 537.343 382.229Q537.737 383.969 538.046 385.726Q538.355 387.483 538.577 389.253Q538.802 391.056 538.938 392.869Q539.074 394.681 539.12 396.498Q539.166 398.315 539.121 400.132Q539.077 401.948 538.943 403.761Q538.809 405.573 538.585 407.377Q538.361 409.18 538.048 410.971Q537.735 412.761 537.334 414.534Q536.933 416.306 536.444 418.057Q535.955 419.807 535.381 421.531Q534.806 423.255 534.146 424.949Q533.487 426.642 532.744 428.301Q532.002 429.96 531.178 431.58Q530.354 433.2 529.451 434.777Q528.548 436.354 527.568 437.885Q526.587 439.415 525.533 440.895Q524.478 442.375 523.351 443.801C510.754 459.786 492.597 469.01 472.625 471.478C453.355 471.924 437.164 467.238 421.92 455.105C406.949 443.19 396.802 424.205 394.746 405.215C392.685 386.177 397.806 368.316 409.97 353.485C423.329 337.196 441.926 328.788 462.614 326.696Z"/>
	<path fill="#FDFDFD" d="M434.387 354.648C443.702 353.658 452.921 355.552 460.677 360.929C468.781 366.546 474.502 375.748 476.147 385.457Q476.298 386.339 476.405 387.228Q476.511 388.116 476.573 389.009Q476.634 389.902 476.65 390.797Q476.666 391.691 476.637 392.586Q476.608 393.48 476.533 394.372Q476.459 395.264 476.339 396.151Q476.22 397.038 476.055 397.917Q475.891 398.797 475.682 399.667Q475.474 400.538 475.221 401.396Q474.969 402.255 474.674 403.1Q474.378 403.944 474.04 404.773Q473.702 405.602 473.323 406.412Q472.943 407.223 472.523 408.013Q472.103 408.803 471.644 409.571Q471.184 410.339 470.687 411.083Q470.189 411.826 469.654 412.544C463.205 421.339 454.37 426.157 443.722 427.855C434.704 428.843 425.805 427.083 418.196 422.038Q417.45 421.549 416.73 421.024Q416.009 420.498 415.316 419.938Q414.623 419.377 413.959 418.782Q413.295 418.187 412.661 417.56Q412.027 416.932 411.426 416.274Q410.824 415.616 410.257 414.928Q409.689 414.241 409.156 413.526Q408.624 412.81 408.127 412.07Q407.631 411.329 407.173 410.564Q406.714 409.799 406.295 409.012Q405.875 408.226 405.495 407.419Q405.116 406.612 404.777 405.787Q404.438 404.963 404.141 404.122Q403.844 403.281 403.589 402.427Q403.334 401.572 403.123 400.706Q402.911 399.84 402.743 398.964C400.783 389.177 402.576 379.061 408.155 370.739C414.329 361.529 423.69 356.679 434.387 354.648Z"/>
</svg>
