<?xml version="1.0" encoding="utf-8" ?>
<svg xmlns="http://www.w3.org/2000/svg" xmlns:xlink="http://www.w3.org/1999/xlink" width="1024" height="1024">
	<path d="M0 0L1024 0L1024 400.331L1024 485.545L1024 914.907L1024 946.333L1024 1024L1023.62 1024L541.569 1024L484.32 1024L0.633941 1024L0 1024L0 944.995L0 913.164L0 750.83L0 728.263L0 490.895L0 413.141L0 0Z"/>
	<path fill="#FEFEFE" d="M508.695 239.592C509.433 239.853 509.84 240.121 510.469 240.567C511.388 242.634 510.971 244.695 510.774 246.885C509.419 246.661 509.324 246.745 508.434 245.727C507.888 243.634 508.362 241.688 508.695 239.592Z"/>
	<path fill="#FEFEFE" d="M507.502 255.287C509.097 255.472 509.718 255.259 510.822 256.477C511.181 258.336 510.981 260.2 510.876 262.078C509.759 262.128 508.975 262.254 507.952 261.724C506.816 260.04 507.384 257.255 507.502 255.287Z"/>
	<path fill="#FEFEFE" d="M507.461 272.423C508.713 272.44 509.536 272.323 510.588 273.091C511.696 275.022 511.126 277.914 510.996 280.086C510.046 280.073 509.265 279.958 508.344 279.728C506.848 277.611 507.362 274.928 507.461 272.423Z"/>
	<path fill="#FEFEFE" d="M507.928 291.753C509.401 291.815 510.052 291.687 511.302 292.514C512.359 294.535 511.842 297.189 511.716 299.412C510.537 299.523 509.726 299.688 508.612 299.197C507.294 297.28 507.858 294.044 507.928 291.753Z"/>
	<path fill="#FEFEFE" d="M508.543 314.551C510.17 314.647 510.818 314.524 512.18 315.472C513.193 317.559 512.632 320.305 512.48 322.571C510.905 322.5 510.192 322.641 508.864 321.746C507.811 319.681 508.398 316.816 508.543 314.551Z"/>
	<path fill="#FEFEFE" d="M508.512 338.483C509.873 338.449 510.84 338.336 512.027 339.13C513.347 341.679 512.69 345.168 512.569 347.994C511.199 348.035 510.167 348.184 508.984 347.357C507.637 344.715 508.334 341.373 508.512 338.483Z"/>
	<path fill="#FEFEFE" d="M508.436 364.439C510.297 364.427 511.203 364.241 512.664 365.457C513.933 368.432 513.22 372.258 513.08 375.447C511.324 375.512 510.156 375.751 508.828 374.538C507.663 371.486 508.353 367.693 508.436 364.439Z"/>
	<path fill="#FEFEFE" d="M508.209 392.442C509.703 392.367 511.197 392.103 512.565 392.823C514.876 395.67 513.572 402.105 513.457 405.621C512.023 405.645 510.715 405.775 509.378 405.163C508.1 403.663 507.768 402.15 507.903 400.214C508.083 397.624 508.137 395.037 508.209 392.442Z"/>
	<path fill="#FEFEFE" d="M507.787 424.468C509.851 424.388 511.929 424.443 513.995 424.448L513.98 440.014L507.804 439.974Q507.723 432.221 507.787 424.468Z"/>
	<path fill="#FEFEFE" d="M507.269 463.446L514.656 463.422Q514.734 472.714 514.551 482.004L507.339 482.002C507.175 475.825 507.269 469.625 507.269 463.446Z"/>
	<path fill="#FEFEFE" d="M506.678 511.598C509.728 511.488 512.801 511.535 515.853 511.508C515.769 519.832 517.132 529.042 515.875 537.235C512.753 537.307 509.619 537.256 506.495 537.255Q506.43 524.425 506.678 511.598Z"/>
	<path fill="#FEFEFE" d="M507.315 575.23L517.05 575.353C517.118 580.425 518.754 602.994 517.232 606.061L515.375 606.254L505.707 606.175C505.61 602.161 505.687 577.121 507.315 575.23Z"/>
	<path fill="#FEFEFE" d="M505.106 640.152C509.742 640.058 514.301 640.083 518.933 640.328C520.037 648.64 519.779 657.448 520.043 665.84C520.225 671.581 521 677.81 520.354 683.498L519.545 684.079L503.493 684.112C503.469 669.562 503.385 654.62 505.106 640.152Z"/>
	<path fill="#FEFEFE" d="M502.532 722.344Q512.017 722.319 521.5 722.471C521.64 731 524.991 779.746 523.653 782.89L522.376 783.265Q511.064 783.408 499.754 783.152L502.532 722.344Z"/>
	<path fill="#FEFEFE" d="M486.63 996.974Q513.007 996.883 539.384 997.085C539.81 1006.06 540.728 1015.05 541.569 1024L484.32 1024C484.985 1015.01 485.573 1005.92 486.63 996.974Z"/>
	<path fill="#FEFEFE" d="M497.695 829.496C507.295 829.404 516.913 829.545 526.514 829.573C527.968 842.593 528.547 855.827 529.463 868.901L534.192 937.449L526.75 937.451L490.443 937.474C490.48 925.961 491.919 914.153 492.693 902.636L497.695 829.496Z"/>
	<path fill="#FEFEFE" d="M514.533 229.51C516.046 232.16 516.524 236.153 517.212 239.153C519.344 248.45 520.771 258.885 524.31 267.759C538.15 320.996 563.308 369.736 589.916 417.525C639.405 506.407 699.691 589.03 764.071 667.642Q823.984 741.764 889.817 810.682Q937.369 860.225 985.963 908.748C998.581 921.332 1011.47 933.668 1024 946.333L1024 1024L1023.62 1024Q961.415 957.155 902.448 887.438Q843.48 817.721 787.882 745.288Q750.204 697.256 714.357 647.843Q685.135 606.943 658.372 564.394Q631.608 521.845 607.395 477.794C602.882 469.642 598.1 461.629 593.724 453.403C571.656 411.919 551.769 368.711 536.752 324.171C526.445 293.598 517.041 261.828 514.533 229.51Z"/>
	<path fill="#FEFEFE" d="M497.089 265.216C500.023 257.199 500.39 244.1 503.721 237.422L504.181 237.839C501.919 260.162 497.375 281.127 491.642 302.795C474.366 368.095 448.803 419.986 416.473 478.656Q402.265 504.996 386.937 530.701C313.452 653.151 224.029 765.854 132.233 874.937Q83.3803 933.329 31.9501 989.465Q22.1871 1000.02 12.5752 1010.71C8.63471 1015.12 4.82988 1019.84 0.633941 1024L0 1024L0 944.995C108.007 838.194 212.714 727.423 306.489 607.776C344.358 559.459 381.087 510.166 413.165 457.744C447.575 401.511 483.54 329.72 497.089 265.216Z"/>
	<path fill="#FDED06" d="M415.984 434.807C422.104 426.438 427.238 417.095 432.508 408.169Q445.175 386.881 456.339 364.767Q467.504 342.654 477.113 319.822C482.222 307.854 487.198 295.397 491.104 282.985C492.402 278.857 494.681 268.149 497.089 265.216C483.54 329.72 447.575 401.511 413.165 457.744C381.087 510.166 344.358 559.459 306.489 607.776C212.714 727.423 108.007 838.194 0 944.995L0 913.164L0 750.83L0 728.263L0 490.895L0 413.141C24.727 374.83 59.2001 341.929 92.9814 311.58C101.781 303.674 110.485 295.371 119.736 288.017C130.239 292.396 140.372 297.959 150.556 303.033Q171.951 313.428 193.228 324.062Q261.077 357.361 328.243 392.016Q356.791 406.892 385.831 420.784C395.735 425.57 405.725 430.844 415.984 434.807Z"/>
	<path fill="#FEFEFE" d="M103.687 759.068C105.93 758.933 108.23 758.89 110.323 759.829C112.923 760.995 115.2 762.805 116.159 765.531C115.944 766.722 115.934 767.301 114.873 768.071C113.495 769.07 110.278 768.556 108.625 768.467Q101.611 768.368 94.6062 767.982Q95.2817 766.577 96.0407 765.216C97.9545 761.719 99.8756 760.171 103.687 759.068Z"/>
	<path fill="#FEFEFE" d="M146.493 608.564C149.594 608.315 152.781 608.073 155.667 609.452C158.393 610.754 161.582 613.267 162.323 616.372C162.59 617.492 162.28 618.754 161.546 619.636C160.018 621.47 157.412 621.206 155.246 621.297C151.792 621.356 146.365 622.19 143.075 621.331C141.637 620.956 140.536 620.356 139.75 619.069C139.116 618.031 139.202 616.662 139.599 615.548C140.842 612.057 143.255 610.094 146.493 608.564Z"/>
	<path fill="#FEFEFE" d="M310.777 466.579C316.762 465.929 322.085 466.724 327.332 469.816C329.723 471.225 334.242 475.659 334.705 478.429C334.861 479.368 334.849 478.993 334.219 479.926C330.906 480.894 326.685 480.433 323.216 480.414C321.838 478.737 320.42 477.44 318.709 476.107C318.021 475.937 317.353 475.778 316.652 475.669C311.996 474.942 308.874 477.709 305.345 480.283C301.808 480.308 298.244 480.121 294.705 480.03C294.928 479.514 295.147 478.995 295.394 478.49C298.581 471.971 304.209 468.835 310.777 466.579Z"/>
	<path fill="#FEFEFE" d="M201.551 471.113C205.261 470.947 208.778 471.058 212.388 472.1C219.639 474.194 224.124 478.864 227.709 485.238C223.627 485.631 219.473 485.507 215.373 485.521C213.132 483.663 211.022 482.072 208.464 480.653C207.678 480.351 206.89 480.155 206.057 480.036C201.686 479.412 198.426 482.511 195.225 484.998C191.077 485.243 186.964 485.292 182.81 485.267C183.587 483.704 184.437 482.13 185.479 480.726C189.482 475.336 194.998 472.243 201.551 471.113Z"/>
	<path fill="#FEFEFE" d="M61.5404 805.655C65.6599 805.335 70.1857 805.928 74.0572 807.353C80.7314 809.809 84.4625 814.055 87.3508 820.328C84.6409 820.594 81.8716 820.574 79.1491 820.657C74.0901 816.896 69.4978 815.484 63.2409 815.277C57.32 816.044 53.929 818.081 49.4431 821.814C45.858 821.846 42.2356 821.606 38.6507 821.478C39.2327 819.612 39.9017 817.734 41.0363 816.123C45.6545 809.564 53.9642 806.824 61.5404 805.655Z"/>
	<path fill="#FEFEFE" d="M176.117 528.093C179.731 527.897 183.088 527.829 186.665 528.555C192.728 529.784 204.45 535.152 207.583 540.648C208.286 541.881 208.163 542.486 207.806 543.801C205.317 545.981 197.802 545.039 194.417 545.004C192.192 543.04 189.972 541.432 187.448 539.874C184.616 538.601 181.601 537.364 178.436 537.562C173.804 537.852 170.891 540.866 168.007 544.132L155.826 544.029C156.475 542.575 157.16 541.153 158.017 539.807C162.214 533.213 168.726 529.78 176.117 528.093Z"/>
	<path fill="#FEFEFE" d="M275.256 498.607C281.356 498.388 286.736 498.962 292.38 501.436C298.748 504.227 303.548 508.488 306.103 515.056C301.363 515.176 296.598 515.053 291.856 515.032C288.657 512.07 285.845 510.042 281.713 508.548C273.671 508.183 269.678 511.228 263.763 516.168C259.644 516.085 255.528 515.703 251.421 515.392Q252.185 513.045 253.577 511.006C258.56 503.699 266.894 500.21 275.256 498.607Z"/>
	<path fill="#FEFEFE" d="M55.6237 649.109C62.5486 648.485 69.2025 648.956 75.5001 652.175C80.0147 654.483 85.5184 658.95 86.8691 664.022C87.1611 665.118 87.2343 665.265 86.6855 666.29C82.4571 667.097 77.5378 666.529 73.2229 666.447C71.1356 664.239 68.861 662.78 66.2467 661.307C64.6115 660.835 63.0523 660.492 61.3457 660.398C54.8 660.038 50.992 662.743 46.3749 666.932C43.4587 667.006 38.8339 667.649 36.2816 666.038C34.99 665.224 34.9326 664.86 34.5128 663.477C34.6938 662.635 34.8675 661.925 35.3272 661.185C39.4282 654.582 48.3929 650.797 55.6237 649.109Z"/>
	<path fill="#FEFEFE" d="M152.126 673.611C158.888 672.908 165.468 673.851 171.664 676.681C179.613 680.311 185.053 685.841 188.068 694.08C183.192 694.263 178.277 694.157 173.396 694.177C169.983 690.384 166.916 688.165 162.008 686.678Q159.404 686.049 156.727 685.947C149.376 685.655 144.67 688.835 139.57 693.658L125.244 693.519C125.296 693.365 125.346 693.21 125.4 693.056L125.675 692.289C126.342 690.385 127.067 688.764 128.232 687.099C133.76 679.2 142.986 675.411 152.126 673.611Z"/>
	<path fill="#FEFEFE" d="M68.4454 494.656Q72.2712 494.254 76.1156 494.392Q79.9599 494.53 83.7472 495.204C96.5446 497.591 106.977 504.791 114.234 515.458C107.607 515.573 100.969 515.525 94.3402 515.551C90.3202 511.568 86.7759 508.699 81.3559 506.774C78.6325 506.054 76.1001 505.539 73.2517 505.689C64.4431 506.155 58.2541 510.601 52.5978 516.915L37.7783 516.515Q39.2289 513.211 41.3127 510.265C47.7364 501.333 57.8024 496.452 68.4454 494.656Z"/>
	<path fill="#FEFEFE" d="M237.743 568.703C246.596 568.073 256.072 570.151 264.021 574.03C274.533 579.158 281.374 586.926 285.181 597.916C279.758 597.928 274.364 597.978 268.955 597.516C261.126 590.31 254.01 586.705 243.508 584.935C242.259 584.817 241.003 584.712 239.747 584.699C226.381 584.561 217.373 589.758 208.091 598.922C203.985 598.839 199.866 598.581 195.76 598.408C196.999 593.208 198.951 588.683 202.442 584.59C211.381 574.11 224.416 569.812 237.743 568.703Z"/>
	<path fill="#FEFEFE" d="M0 728.263C16.7112 718.846 33.4265 714.959 52.3357 720.173C65.0612 723.681 77.1178 731.279 83.6696 743.003C84.91 745.222 85.8256 747.626 86.6562 750.023Q76.8923 750.297 67.1251 750.403C58.2837 741.248 47.2821 737.282 34.6092 737.033C22.0548 736.787 9.99948 741.033 0.962028 749.875Q0.477639 750.349 0 750.83L0 728.263Z"/>
	<path fill="#FEFEFE" d="M63.7855 567.183C74.3504 565.433 87.7671 568 97.6731 571.76C112.438 577.366 125.737 587.255 132.36 601.85C125.155 602.094 117.904 601.716 110.697 601.571C102.071 592.146 93.2054 586.878 80.5281 584.626C76.4227 584.103 72.365 583.871 68.2279 584.103C52.2789 584.997 40.9535 591.609 30.5557 603.364L19.1815 603.626C17.1905 603.663 14.341 604.104 12.8623 602.681C12.4786 598.911 15.5037 594.644 17.7669 591.765C28.8922 577.608 46.1217 569.299 63.7855 567.183Z"/>
	<path d="M415.984 434.807C422.104 426.438 427.238 417.095 432.508 408.169Q445.175 386.881 456.339 364.767Q467.504 342.654 477.113 319.822C482.222 307.854 487.198 295.397 491.104 282.985C492.402 278.857 494.681 268.149 497.089 265.216C483.54 329.72 447.575 401.511 413.165 457.744C381.087 510.166 344.358 559.459 306.489 607.776C212.714 727.423 108.007 838.194 0 944.995L0 913.164L55.5553 858.455Q90.7344 823.802 124.938 788.186Q159.142 752.57 192.344 716.018Q225.547 679.466 257.722 642.007Q289.897 604.548 321.02 566.211Q354.078 525.466 383.992 482.361C393.399 469.058 403.329 455.825 411.554 441.763C394.28 439.571 376.572 438.997 359.173 438.092C261.395 433.002 165.37 439.939 70.7628 466.285C46.9778 472.909 22.3844 480.374 0 490.895L0 413.141C24.727 374.83 59.2001 341.929 92.9814 311.58C101.781 303.674 110.485 295.371 119.736 288.017C130.239 292.396 140.372 297.959 150.556 303.033Q171.951 313.428 193.228 324.062Q261.077 357.361 328.243 392.016Q356.791 406.892 385.831 420.784C395.735 425.57 405.725 430.844 415.984 434.807Z"/>
	<path fill="#FDED06" d="M777.063 190.986C792.645 196.881 807.76 205.699 821.966 214.328C880.683 249.992 932.079 295.097 978.59 345.424C994.653 362.805 1010.63 380.756 1024 400.331L1024 485.545L1024 914.907L1024 946.333C1011.47 933.668 998.581 921.332 985.963 908.748Q937.369 860.226 889.817 810.682Q823.984 741.764 764.071 667.642C699.691 589.03 639.405 506.407 589.916 417.525C563.308 369.736 538.15 320.996 524.31 267.759C526.017 269.467 536.641 299.721 538.567 304.282Q556.27 345.561 578.39 384.651Q589.26 371.082 600.54 357.854Q611.821 344.625 623.503 331.749Q635.184 318.873 647.255 306.361Q659.326 293.849 671.776 281.714Q684.225 269.578 697.041 257.831Q709.856 246.083 723.027 234.734Q736.197 223.385 749.709 212.445Q763.221 201.506 777.063 190.986Z"/>
	<path fill="#FEFEFE" d="M799.687 553.609C802.395 553.405 805.016 553.204 807.518 554.463C810.157 555.791 812.45 557.659 813.395 560.516C813.249 561.8 813.256 562.396 812.196 563.306C810.77 564.528 807.601 564.127 805.825 564.114C801.854 564.161 797.468 564.552 793.528 564.059C792.157 563.887 791.609 563.486 790.765 562.453C790.697 561.526 790.796 561.101 791.22 560.243C792.948 556.744 796.183 554.841 799.687 553.609Z"/>
	<path fill="#FEFEFE" d="M949.56 553.606C952.407 553.272 955.254 553.037 957.914 554.268C961.195 555.787 964.496 558.306 965.765 561.792C965.656 563.049 965.621 563.152 964.829 564.134C962.567 565.126 958.962 564.704 956.48 564.737C952.951 564.833 948.994 565.249 945.509 564.743C943.957 564.517 942.94 564.119 941.941 562.848C941.717 561.83 941.672 561.147 942.027 560.169C943.298 556.672 946.349 555.027 949.56 553.606Z"/>
	<path fill="#FEFEFE" d="M723.366 463.704C727.288 463.79 730.927 464.253 734.6 465.745C740.818 468.271 744.81 472.611 747.273 478.735C732.437 479.579 736.404 475.836 725.77 473.011C724.441 472.956 723.106 472.964 721.784 473.122C718.001 473.572 715.961 475.927 713.717 478.698C711.003 478.681 704.162 479.428 701.907 478.057C701.685 476.1 702.59 474.924 703.79 473.428C708.946 467 715.368 464.527 723.366 463.704Z"/>
	<path fill="#FEFEFE" d="M985.105 801.652C989.286 801.517 993.179 802.336 996.97 804.105C1003.3 807.061 1007.49 811.444 1009.87 817.953C1005.86 818.26 1001.87 818.172 997.853 818.104C995.075 815.675 992.563 813.731 989.07 812.436C982.794 811.8 978.918 814.503 974.067 817.98L963.295 817.838C964.046 816.203 964.748 814.526 965.766 813.033C970.352 806.311 977.291 802.965 985.105 801.652Z"/>
	<path fill="#FEFEFE" d="M949.513 745.591C954.084 745.14 958.171 745.304 962.526 746.906C969.504 749.474 975.672 754.348 978.743 761.183C974.082 761.978 969.527 761.965 964.812 761.919C962.656 760.03 960.592 758.253 958.148 756.739C956.736 756.246 955.192 755.805 953.703 755.634C948.425 755.025 944.394 758.74 940.602 761.801C938.142 761.865 934.916 762.277 932.589 761.429C931.237 760.936 930.668 760.313 930.017 759.067C930.071 758.064 930.171 757.282 930.686 756.413C934.311 750.291 942.941 747.145 949.513 745.591Z"/>
	<path fill="#FEFEFE" d="M859.577 471.573C864.982 471.189 870.075 471.073 875.288 472.823C883.378 475.539 888.505 481.117 892.23 488.532C887.461 488.739 882.661 488.681 877.887 488.726C875.533 486.21 873.185 484.384 870.188 482.734C868.034 482.204 865.908 481.951 863.685 481.998C858.202 482.113 855.042 485.116 851.451 488.804L837.916 488.652C838.457 487.532 839.002 486.376 839.655 485.314C844.211 477.903 851.257 473.605 859.577 471.573Z"/>
	<path fill="#FEFEFE" d="M975.324 602.115C980.221 601.664 984.887 602.217 989.49 603.988C994.537 605.929 1002.72 610.947 1004.62 616.279C1005.08 617.582 1004.81 618.203 1004.28 619.414C1002.17 621.2 995.199 620.336 992.484 620.292C989.439 617.226 987.08 615.184 982.959 613.59C980.836 613.234 978.639 613.026 976.494 613.34C971.933 614.009 969.502 616.909 966.913 620.37C962.998 620.267 957.714 620.886 954.082 619.658L953.603 618.68C953.844 616.495 954.75 614.429 956.009 612.634C960.299 606.517 968.212 603.354 975.324 602.115Z"/>
	<path fill="#FEFEFE" d="M737.572 515.172C747.249 514.281 757.074 517.488 764.72 523.433C767.814 525.839 772.397 530.158 772.661 534.242C772.722 535.173 772.565 535.078 772.007 535.728C767.806 536.506 762.864 535.733 758.548 535.718C754.083 531.898 750.322 529.881 744.593 528.524Q743.02 528.374 741.443 528.284C733.403 527.853 727.933 531.405 722.212 536.51C718.695 536.601 712.539 537.516 709.364 536.356C708.595 536.075 708.659 535.713 708.366 535.024C708.656 532.924 709.768 531.263 711.035 529.608C717.408 521.283 727.274 516.461 737.572 515.172Z"/>
	<path fill="#FEFEFE" d="M958.551 497.189C964.253 496.597 970.502 497.411 975.932 499.21C986.256 502.63 993.964 509.245 998.798 518.953C993.272 519.183 987.662 519.009 982.127 519.019C976.956 513.282 972.482 511.045 965.03 509.453C954.014 509.381 948.233 512.982 940.317 519.943C935.125 519.949 929.916 520.137 924.724 520.243Q925.699 518.072 926.949 516.047Q928.198 514.022 929.7 512.176C936.834 503.262 947.358 498.449 958.551 497.189Z"/>
	<path fill="#FEFEFE" d="M856.002 598.208C862.697 598.335 869.018 599.438 875.263 601.902C888.233 607.02 897.68 615.659 903.242 628.44C896.729 628.618 890.192 628.506 883.677 628.491C875.603 620.551 868.758 616.397 857.351 615.457Q856.602 615.452 855.853 615.458C843.943 615.547 836.296 620.073 828.102 628.355C823.069 628.519 815.397 629.707 810.719 627.871C810.22 627.252 809.819 627.027 809.805 626.181C809.756 623.364 812.638 620.196 814.41 618.142C825.278 605.542 839.609 599.331 856.002 598.208Z"/>
	<path fill="#FEFEFE" d="M942.79 667.212Q946 667.038 949.21 667.2Q952.42 667.362 955.596 667.858Q958.772 668.354 961.879 669.178Q964.985 670.003 967.989 671.147C977.32 674.733 989.587 682.994 993.28 692.776C993.751 694.022 993.755 694.599 993.208 695.783C988.484 697.77 979.933 696.48 974.763 696.347C967.062 689.574 960.363 686.337 950.269 684.509Q948.213 684.475 946.156 684.499C933.745 684.653 926.66 688.086 917.985 696.984C911.919 697.035 904.768 697.777 898.889 696.452C898.283 695.961 897.945 695.968 897.929 695.105C897.874 692.049 901.49 687.699 903.474 685.409C913.18 674.203 928.28 668.27 942.79 667.212Z"/>
	<path fill="#FEFEFE" d="M871.921 517.191C880.695 515.77 891.174 517.321 899.576 520.039C914.896 524.994 926.615 535.043 933.86 549.346C926.837 550.355 919.632 549.987 912.56 549.873C904.658 540.835 896.925 536.538 885.114 534.081C882.453 533.693 879.871 533.432 877.176 533.505C863.343 533.883 853.385 540.176 844.195 549.979Q834.152 550.652 824.091 550.322C825.279 546.113 827.072 542.563 829.756 539.132C839.94 526.111 855.909 519.237 871.921 517.191Z"/>
	<path d="M777.063 190.986C792.645 196.881 807.76 205.699 821.966 214.328C880.683 249.992 932.079 295.097 978.59 345.424C994.653 362.805 1010.63 380.756 1024 400.331L1024 485.545C947.359 455.868 843.709 438.851 761.361 435.484Q715.539 433.893 669.768 436.588C650.866 437.661 631.58 438.836 612.851 441.613C642.683 487.889 675.89 532.004 709.737 575.388Q745.191 621.353 782.884 665.5Q820.577 709.647 860.416 751.868C875.57 767.834 891.25 783.177 906.766 798.779Q964.756 857.475 1024 914.907L1024 946.333C1011.47 933.668 998.581 921.332 985.963 908.748Q937.369 860.226 889.817 810.682Q823.984 741.764 764.071 667.642C699.691 589.03 639.405 506.407 589.916 417.525C563.308 369.736 538.15 320.996 524.31 267.759C526.017 269.467 536.641 299.721 538.567 304.282Q556.27 345.561 578.39 384.651Q589.26 371.082 600.54 357.854Q611.821 344.625 623.503 331.749Q635.184 318.873 647.255 306.361Q659.326 293.849 671.776 281.714Q684.225 269.578 697.041 257.831Q709.856 246.083 723.027 234.734Q736.197 223.385 749.709 212.445Q763.221 201.506 777.063 190.986Z"/>
	<path fill="#FEFEFE" d="M813.731 285.208C820.593 285.294 826.853 287.431 831.83 292.307C837.096 297.467 839.472 303.848 839.512 311.108C844.855 312.213 849.113 313.596 853.245 317.43C857.742 321.604 860.705 327.603 860.773 333.785Q860.779 334.335 860.758 334.884Q860.737 335.433 860.689 335.981Q860.64 336.529 860.564 337.073Q860.489 337.618 860.386 338.158Q860.283 338.698 860.153 339.232Q860.024 339.766 859.867 340.293Q859.711 340.82 859.529 341.339Q859.347 341.858 859.139 342.367Q858.931 342.876 858.698 343.374Q858.465 343.871 858.207 344.357Q857.95 344.843 857.668 345.315Q857.387 345.787 857.082 346.245Q856.777 346.702 856.45 347.144Q856.123 347.586 855.774 348.011Q855.426 348.436 855.056 348.843Q854.686 349.25 854.297 349.638C851.574 352.328 847.912 354.496 844.146 355.287C836.601 356.87 827.427 355.875 819.672 355.846L776.875 355.77C767.423 355.687 751.739 357.701 743.784 352.27C739.273 349.19 736.325 344.382 735.363 339.03C734.328 333.273 735.468 327.024 738.893 322.228C743.202 316.193 748.826 314.48 755.782 313.443C756.274 310.272 757.164 307.11 758.757 304.31C761.588 299.333 766.242 295.903 771.776 294.488C779.442 292.529 785.633 294.759 792.208 298.477Q793.905 296.064 795.814 293.815C800.589 288.215 806.533 285.795 813.731 285.208Z"/>
	<path fill="#0BC9AE" d="M0 0L1024 0L1024 400.331C1010.63 380.756 994.653 362.805 978.59 345.424C932.079 295.097 880.683 249.992 821.966 214.328C807.76 205.699 792.645 196.881 777.063 190.986Q763.221 201.506 749.709 212.445Q736.197 223.385 723.027 234.734Q709.856 246.083 697.041 257.831Q684.225 269.578 671.776 281.714Q659.326 293.849 647.255 306.361Q635.184 318.873 623.503 331.749Q611.821 344.625 600.54 357.854Q589.26 371.082 578.39 384.651Q556.27 345.561 538.567 304.282C536.641 299.721 526.017 269.467 524.31 267.759C520.771 258.885 519.344 248.45 517.212 239.153C516.524 236.153 516.046 232.16 514.533 229.51C513.624 222.04 513.267 214.516 512.325 207.054C510.718 207.046 508.726 206.801 507.288 207.556C505.108 214.924 506.526 231.94 504.181 237.839L503.721 237.422C500.39 244.1 500.023 257.199 497.089 265.216C494.681 268.149 492.402 278.857 491.104 282.985C487.198 295.397 482.222 307.854 477.113 319.822Q467.504 342.654 456.339 364.767Q445.175 386.881 432.508 408.169C427.238 417.095 422.104 426.438 415.984 434.807C405.725 430.844 395.735 425.57 385.831 420.784Q356.791 406.892 328.243 392.016Q261.077 357.361 193.228 324.062Q171.951 313.428 150.556 303.033C140.372 297.959 130.239 292.396 119.736 288.017C110.485 295.371 101.781 303.674 92.9814 311.58C59.2001 341.929 24.727 374.83 0 413.141L0 0Z"/>
	<path fill="#FEFEFE" d="M265.897 172.175C274.363 171.062 283.482 173.901 290.387 178.748C298.883 184.711 304.037 193.18 305.853 203.333C313.796 204.818 320.628 207.578 326.429 213.373C332.488 219.426 336.34 227.795 336.335 236.417Q336.335 237.236 336.294 238.055Q336.254 238.873 336.174 239.689Q336.094 240.504 335.975 241.315Q335.855 242.125 335.696 242.929Q335.537 243.733 335.34 244.528Q335.142 245.323 334.906 246.108Q334.669 246.892 334.395 247.665Q334.121 248.437 333.81 249.195Q333.499 249.953 333.151 250.695Q332.803 251.436 332.419 252.161Q332.036 252.885 331.618 253.589Q331.199 254.294 330.747 254.977Q330.295 255.661 329.81 256.321Q329.326 256.982 328.809 257.618Q328.293 258.254 327.746 258.865Q327.2 259.475 326.624 260.058Q325.712 260.95 324.742 261.778Q323.771 262.606 322.746 263.365Q321.721 264.124 320.646 264.812Q319.571 265.499 318.452 266.111Q317.332 266.723 316.174 267.257Q315.015 267.79 313.822 268.244Q312.63 268.697 311.409 269.067Q310.188 269.437 308.945 269.723C300.103 271.704 289.64 270.503 280.555 270.491L231.25 270.473L211.486 270.524C198.972 270.584 188.066 270.798 177.641 262.73Q177.014 262.245 176.413 261.73Q175.811 261.215 175.236 260.67Q174.661 260.125 174.114 259.552Q173.568 258.979 173.05 258.379Q172.532 257.779 172.046 257.154Q171.559 256.53 171.104 255.881Q170.649 255.233 170.227 254.562Q169.805 253.892 169.418 253.201Q169.03 252.51 168.677 251.801Q168.325 251.092 168.008 250.366Q167.691 249.639 167.411 248.898Q167.131 248.157 166.889 247.403Q166.647 246.649 166.442 245.884Q166.238 245.118 166.072 244.344Q165.907 243.569 165.78 242.787Q165.653 242.005 165.566 241.218C164.662 233.036 166.907 224.73 172.175 218.357C178.025 211.28 185.756 208.258 194.692 207.383C195.635 203.103 196.681 199.377 199.279 195.727C203.19 190.232 209.338 186.741 215.949 185.679C224.119 184.366 231.186 186.473 237.795 191.297C238.746 189.669 239.718 188.065 240.84 186.548C247.259 177.871 255.375 173.778 265.897 172.175Z"/>
	<path fill="#FDED06" d="M504.353 55.6776Q506.033 55.5007 507.719 55.4026Q509.405 55.3045 511.094 55.2854Q512.782 55.2664 514.47 55.3264Q516.158 55.3865 517.841 55.5254Q519.524 55.6644 521.199 55.8821Q522.874 56.0997 524.537 56.3955Q526.199 56.6913 527.847 57.0646Q529.494 57.438 531.121 57.888Q532.749 58.338 534.354 58.8638Q535.959 59.3895 537.538 59.9898Q539.117 60.5902 540.665 61.2637Q542.214 61.9373 543.73 62.6826Q545.245 63.4279 546.724 64.2434Q548.203 65.0589 549.642 65.9427Q551.081 66.8265 552.478 67.7767Q553.874 68.727 555.224 69.7415C570.259 81.0542 580.947 98.8559 583.555 117.52Q583.802 119.254 583.962 120.999Q584.123 122.743 584.196 124.493Q584.27 126.243 584.257 127.995Q584.244 129.747 584.144 131.496Q584.044 133.245 583.857 134.986Q583.671 136.728 583.398 138.458Q583.125 140.189 582.767 141.904Q582.409 143.618 581.966 145.313Q581.523 147.008 580.997 148.679Q580.471 150.35 579.862 151.992Q579.254 153.635 578.565 155.245Q577.876 156.856 577.107 158.43Q576.339 160.005 575.494 161.539Q574.648 163.073 573.728 164.564Q572.808 166.054 571.815 167.497Q570.821 168.94 569.758 170.332C557.406 186.609 540.666 195.64 520.62 198.449C501.728 200.191 483.638 196.262 468.264 184.834Q466.827 183.771 465.444 182.639Q464.061 181.507 462.736 180.308Q461.411 179.109 460.146 177.846Q458.882 176.583 457.681 175.258Q456.481 173.934 455.347 172.553Q454.213 171.171 453.149 169.735Q452.085 168.299 451.093 166.812Q450.102 165.325 449.184 163.792Q448.267 162.258 447.427 160.68Q446.587 159.103 445.825 157.486Q445.064 155.869 444.383 154.216Q443.703 152.564 443.104 150.879Q442.506 149.195 441.992 147.484Q441.478 145.772 441.049 144.037Q440.62 142.302 440.277 140.548Q439.934 138.794 439.678 137.025Q439.42 135.267 439.251 133.499Q439.082 131.731 439.002 129.956Q438.922 128.182 438.932 126.405Q438.942 124.629 439.041 122.855Q439.14 121.082 439.328 119.315Q439.516 117.549 439.793 115.794Q440.07 114.039 440.435 112.301Q440.8 110.562 441.252 108.845Q441.703 107.127 442.241 105.434Q442.779 103.741 443.401 102.077Q444.024 100.413 444.729 98.7826Q445.435 97.1522 446.221 95.5594Q447.008 93.9667 447.873 92.4155Q448.739 90.8643 449.682 89.3587Q450.624 87.853 451.641 86.3968Q452.659 84.9405 453.748 83.5373C466.352 67.0147 484.043 58.4539 504.353 55.6776Z"/>
	<path fill="#FEFEFE" d="M879.656 30.6067C891.019 29.856 901.007 32.1718 909.844 39.672C918.99 47.4351 923.014 57.08 924.01 68.8301C933.101 70.5182 941.178 73.5407 947.946 80.0577C955.112 86.9576 959.576 97.0786 959.617 107.046Q959.614 107.972 959.566 108.896Q959.518 109.821 959.425 110.742Q959.332 111.663 959.194 112.579Q959.056 113.494 958.873 114.402Q958.69 115.31 958.463 116.207Q958.236 117.105 957.966 117.991Q957.695 118.876 957.382 119.747Q957.068 120.618 956.713 121.473Q956.357 122.328 955.96 123.164Q955.563 124.001 955.125 124.817Q954.688 125.633 954.211 126.426Q953.734 127.22 953.219 127.989Q952.704 128.759 952.152 129.502Q951.6 130.245 951.012 130.961Q950.424 131.676 949.802 132.362Q949.18 133.047 948.525 133.702C944.14 138.066 938.354 141.493 932.312 142.915C919.647 145.897 903.57 144.222 890.484 144.175L832.875 144.234L809.995 144.293C796.126 144.348 783.617 145.146 772.743 135.075C765.612 128.47 760.951 118.639 760.615 108.901C760.298 99.7025 763.689 90.1716 770.055 83.4812C777.368 75.7953 785.972 73.8663 796.201 73.5363C797.193 68.4394 798.912 63.6375 802.033 59.439C807.172 52.527 815.171 48.0026 823.657 46.7753C833.435 45.3612 841.613 47.9 849.452 53.7447C850.47 51.913 851.434 50.0432 852.549 48.2682C858.553 38.7145 868.858 32.8927 879.656 30.6067Z"/>
	<path fill="#FEFEFE" d="M155.494 27.6614Q158.088 27.405 160.694 27.4092C173.048 27.3576 184.725 31.7601 193.507 40.5695C202.932 50.0247 206.639 61.215 206.557 74.3252C208.566 74.0774 210.57 73.8654 212.595 73.8121C223.618 73.5218 233.982 77.2586 241.964 84.9474C249.449 92.1585 254.465 102.101 254.651 112.589C254.846 123.526 250.233 134.486 242.553 142.236Q241.493 143.295 240.36 144.277Q239.228 145.259 238.029 146.158Q236.831 147.058 235.572 147.871Q234.313 148.684 233 149.406Q231.687 150.129 230.326 150.757Q228.965 151.385 227.564 151.915Q226.162 152.446 224.727 152.877Q223.291 153.307 221.829 153.636C207.61 156.895 185.903 155.328 170.873 155.228Q142.499 155.093 114.125 155.349L81.9293 155.243C64.9307 155.213 49.1643 156.95 35.649 144.611C27.8367 137.478 22.5866 127.473 22.248 116.802C21.9232 106.571 26.1193 96.1771 33.2188 88.838C41.9677 79.794 52.781 77.0413 64.9911 76.8148C64.9463 68.1194 66.9744 60.2763 72.5058 53.3779Q73.0274 52.7311 73.5802 52.1106Q74.1329 51.4902 74.7155 50.8976Q75.2981 50.3051 75.9091 49.7419Q76.5201 49.1787 77.158 48.6461Q77.7959 48.1136 78.4592 47.6131Q79.1225 47.1126 79.8095 46.6452Q80.4966 46.1779 81.2058 45.7448Q81.915 45.3118 82.6446 44.9141Q83.3743 44.5164 84.1226 44.1551Q84.8708 43.7937 85.636 43.4696Q86.4011 43.1454 87.1812 42.8592Q87.9613 42.573 88.7546 42.3255Q89.5478 42.078 90.3523 41.8698Q91.1567 41.6615 91.9704 41.493Q92.7841 41.3245 93.6051 41.1962Q94.4261 41.0679 95.2524 40.9801C106.03 39.8019 114.112 43.9206 122.224 50.4622Q123.73 47.6657 125.582 45.0851C132.818 34.9849 143.447 29.5885 155.494 27.6614Z"/>
</svg>
