<?xml version="1.0" encoding="utf-8" ?>
<svg xmlns="http://www.w3.org/2000/svg" xmlns:xlink="http://www.w3.org/1999/xlink" width="1024" height="1024">
	<path d="M0 0L1024 0L1024 1024L566.781 1024L529.884 1024L0 1024L0 0Z"/>
	<path fill="#FBFBF3" d="M478.101 751.528C479.365 751.468 480.746 751.48 481.984 751.777C484.19 752.305 486.265 753.959 487.339 755.944C488.582 758.241 488.644 760.919 487.766 763.348C486.6 766.579 484.454 767.918 481.434 769.253C479.929 769.339 478.463 769.316 477.002 768.881C474.898 768.255 473.022 766.681 472.008 764.74C470.805 762.436 470.766 759.769 471.684 757.364C472.897 754.184 475.116 752.848 478.101 751.528Z"/>
	<path fill="#FBFBF3" d="M671.552 521.5C673.063 521.42 674.6 521.349 676.065 521.813C678.21 522.491 680.182 524.208 681.201 526.206Q681.415 526.63 681.583 527.074Q681.751 527.518 681.873 527.977Q681.994 528.436 682.066 528.905Q682.139 529.375 682.162 529.849Q682.185 530.323 682.158 530.797Q682.131 531.271 682.056 531.74Q681.98 532.209 681.855 532.667Q681.731 533.125 681.559 533.568C680.311 536.798 678.052 538.053 675 539.314C673.579 539.413 672.012 539.304 670.65 538.863C668.447 538.15 666.493 536.577 665.489 534.471C664.466 532.326 664.428 529.877 665.226 527.654C666.371 524.465 668.629 522.935 671.552 521.5Z"/>
	<path fill="#FBFBF3" d="M421.564 68.5235C423.096 68.4178 424.749 68.2925 426.255 68.6706C428.761 69.2997 431.035 71.2167 432.23 73.4842Q432.437 73.8764 432.605 74.2873Q432.772 74.6983 432.897 75.1239Q433.022 75.5495 433.104 75.9854Q433.186 76.4214 433.224 76.8634Q433.262 77.3054 433.256 77.7489Q433.25 78.1925 433.199 78.6332Q433.148 79.074 433.054 79.5074Q432.959 79.9409 432.822 80.3627C431.775 83.5806 429.48 85.1287 426.556 86.5049C424.876 86.6393 423.152 86.7552 421.501 86.3347C419.14 85.7338 416.874 83.9156 415.78 81.7417Q415.582 81.3489 415.425 80.9384Q415.267 80.5278 415.151 80.1035Q415.036 79.6792 414.963 79.2455Q414.89 78.8118 414.861 78.373Q414.832 77.9342 414.847 77.4947Q414.862 77.0551 414.921 76.6193Q414.98 76.1835 415.082 75.7558Q415.185 75.3281 415.329 74.9127C416.425 71.6677 418.649 70.0512 421.564 68.5235Z"/>
	<path fill="#FBFBF3" d="M214.054 940.518C215.705 940.465 217.328 940.419 218.937 940.861Q219.401 940.992 219.849 941.17Q220.297 941.348 220.724 941.571Q221.152 941.795 221.553 942.062Q221.955 942.329 222.327 942.636Q222.698 942.943 223.036 943.287Q223.374 943.631 223.675 944.008Q223.975 944.385 224.234 944.792Q224.494 945.198 224.71 945.629Q224.916 946.054 225.077 946.498Q225.238 946.943 225.351 947.401Q225.465 947.86 225.53 948.328Q225.595 948.795 225.611 949.268Q225.627 949.74 225.593 950.211Q225.559 950.682 225.477 951.147Q225.394 951.612 225.263 952.066Q225.132 952.52 224.955 952.958C223.689 956.055 221.447 957.667 218.501 959.01C217.004 959.06 215.551 959.058 214.088 958.683C211.651 958.058 209.477 956.272 208.265 954.081Q208.032 953.659 207.845 953.216Q207.657 952.772 207.518 952.311Q207.378 951.85 207.289 951.376Q207.199 950.903 207.159 950.423Q207.12 949.943 207.132 949.461Q207.143 948.98 207.205 948.502Q207.268 948.025 207.38 947.556Q207.493 947.088 207.654 946.634C208.8 943.393 211.059 941.897 214.054 940.518Z"/>
	<path fill="#FBFBF3" d="M624.978 927.077C626.694 926.919 628.448 926.706 630.14 927.142Q630.616 927.264 631.078 927.436Q631.539 927.607 631.979 927.825Q632.42 928.044 632.835 928.307Q633.251 928.57 633.637 928.875Q634.022 929.18 634.374 929.524Q634.726 929.867 635.04 930.246Q635.354 930.624 635.627 931.033Q635.9 931.443 636.129 931.878Q636.346 932.302 636.516 932.748Q636.687 933.193 636.81 933.653Q636.933 934.114 637.007 934.585Q637.081 935.056 637.104 935.532Q637.128 936.008 637.102 936.484Q637.075 936.96 636.999 937.431Q636.922 937.901 636.797 938.361Q636.671 938.821 636.498 939.265C635.272 942.396 633.123 943.862 630.175 945.197C628.776 945.361 627.531 945.441 626.14 945.151C623.569 944.616 621.137 943.041 619.776 940.77Q619.53 940.36 619.327 939.927Q619.125 939.494 618.97 939.042Q618.814 938.59 618.707 938.124Q618.6 937.659 618.542 937.184Q618.485 936.71 618.477 936.232Q618.469 935.754 618.512 935.278Q618.555 934.802 618.647 934.333Q618.74 933.864 618.881 933.407C619.864 930.161 622.106 928.592 624.978 927.077Z"/>
	<path fill="#FBFBF3" d="M39.0789 601.085C41.037 600.904 43.0379 600.76 44.9149 601.477C47.1771 602.341 49.0359 604.232 50.0244 606.425Q50.2252 606.871 50.3798 607.336Q50.5343 607.8 50.641 608.278Q50.7476 608.755 50.8053 609.241Q50.863 609.727 50.8711 610.216Q50.8792 610.706 50.8377 611.194Q50.7961 611.681 50.7054 612.162Q50.6146 612.643 50.4756 613.112Q50.3365 613.581 50.1506 614.034C48.9902 616.858 46.9408 618.299 44.2564 619.532C42.5235 619.716 40.8321 619.904 39.1221 619.451C36.6079 618.785 34.3815 616.931 33.2219 614.61Q33.0078 614.179 32.8377 613.729Q32.6677 613.279 32.5434 612.814Q32.4192 612.35 32.342 611.875Q32.2648 611.4 32.2355 610.92Q32.2061 610.44 32.2249 609.959Q32.2436 609.478 32.3103 609.002Q32.377 608.525 32.491 608.058Q32.6049 607.591 32.765 607.137C33.8944 603.891 36.1165 602.521 39.0789 601.085Z"/>
	<path fill="#FBFBF3" d="M985.527 476.381C986.444 476.41 987.27 476.576 988.165 476.771C990.87 479.132 990.497 483.03 990.728 486.351C992.529 486.39 995.01 486.193 996.72 486.739C997.979 487.141 999.109 487.749 999.734 488.97C1000.13 489.744 999.824 490.059 999.597 490.834C997.009 493.411 994.416 493.221 990.986 493.47C990.884 497.193 991.107 500.265 988.749 503.368C987.306 503.511 986.721 503.416 985.437 502.739C983.151 500.13 983.614 496.474 983.548 493.206C980.088 492.949 977.483 493.15 974.988 490.4C974.643 489.117 974.635 489.105 975.161 487.886C977.74 485.621 980.192 485.963 983.409 485.987C983.435 482.216 983.41 479.672 985.527 476.381Z"/>
	<path fill="#FBFBF3" d="M565.836 111.317C567.598 111.233 569.276 111.078 570.652 112.407C572.267 113.968 571.689 118.037 571.631 120.128C574.32 120.206 577.38 119.958 579.581 121.772C580.759 122.742 581.06 123.677 581.16 125.145C580.86 125.815 580.586 126.426 580.042 126.94C577.748 129.104 574.6 128.619 571.693 128.585C571.714 130.25 571.799 131.971 571.675 133.631C571.524 135.666 570.534 136.638 569.042 137.886C567.736 137.744 566.24 137.492 565.267 136.526C563.444 134.718 563.904 131.037 563.9 128.664C562.258 128.645 560.446 128.735 558.83 128.438C557.161 128.132 555.025 126.466 554.292 124.896C553.729 123.688 553.94 123.354 554.374 122.199C556.938 119.914 560.086 119.674 563.348 119.163L563.859 118.281C563.765 115.154 563.68 113.731 565.836 111.317Z"/>
	<path fill="#FBFBF3" d="M212.932 15.8528C214.607 15.9271 216.248 16.0343 217.418 17.4452C219.051 19.415 218.57 23.0094 218.529 25.4155C219.921 25.4635 221.328 25.5163 222.709 25.7057C224.88 26.0036 225.915 26.7343 227.194 28.4627C227.414 29.6579 227.616 30.2358 226.812 31.3068C224.923 33.8221 221.352 33.5454 218.565 33.6035C218.589 35.4296 218.717 37.3849 218.414 39.1921C218.096 41.0796 217.061 41.9267 215.633 42.9973C214.555 42.9769 213.48 42.9116 212.442 42.5947C208.813 41.487 211.074 36.934 209.683 34.3645C207.588 32.7805 205.504 33.8976 203.367 32.891C202.285 32.3817 201.343 31.4438 201.104 30.2275C200.839 28.8812 201.045 28.3897 201.604 27.2251C204.164 25.105 207.145 25.2365 210.3 25.1146C210.358 23.9937 210.362 22.8783 210.386 21.7571C210.45 18.8308 210.799 17.9087 212.932 15.8528Z"/>
	<path fill="#FBFBF3" d="M868.017 583.542C870.436 583.302 872.844 583.213 875.177 584.022Q875.78 584.228 876.359 584.494Q876.937 584.761 877.485 585.087Q878.033 585.412 878.544 585.792Q879.056 586.172 879.525 586.604Q879.994 587.035 880.416 587.512Q880.838 587.989 881.208 588.508Q881.579 589.026 881.894 589.58Q882.208 590.134 882.464 590.718Q882.702 591.267 882.885 591.837Q883.068 592.407 883.194 592.993Q883.32 593.578 883.387 594.173Q883.454 594.768 883.463 595.366Q883.471 595.965 883.42 596.561Q883.369 597.158 883.259 597.746Q883.149 598.335 882.982 598.91Q882.814 599.484 882.591 600.04C881.012 603.933 878.067 606.031 874.306 607.568C871.795 607.993 869.502 608.072 867.042 607.291C864.021 606.332 861.555 604.282 860.127 601.444Q859.846 600.874 859.627 600.278Q859.407 599.682 859.251 599.067Q859.095 598.451 859.004 597.823Q858.912 597.194 858.887 596.559Q858.862 595.925 858.903 595.291Q858.944 594.657 859.051 594.031Q859.158 593.405 859.33 592.794Q859.502 592.182 859.736 591.592C861.311 587.554 864.187 585.304 868.017 583.542Z"/>
	<path fill="#FBFBF3" d="M851.161 943.589C853.33 943.41 855.778 943.136 857.908 943.656C861.563 944.549 864.86 946.939 866.668 950.258Q866.976 950.825 867.223 951.42Q867.471 952.016 867.656 952.633Q867.84 953.251 867.96 953.885Q868.08 954.519 868.134 955.161Q868.188 955.804 868.176 956.448Q868.163 957.093 868.084 957.733Q868.005 958.373 867.86 959.002Q867.715 959.63 867.506 960.24C865.969 964.642 862.923 966.866 858.843 968.728C856.329 969.201 853.76 969.466 851.28 968.673Q850.657 968.479 850.057 968.224Q849.457 967.969 848.885 967.655Q848.314 967.341 847.777 966.971Q847.24 966.601 846.743 966.179Q846.246 965.757 845.794 965.287Q845.341 964.817 844.939 964.304Q844.536 963.791 844.187 963.24Q843.838 962.689 843.546 962.106Q843.23 961.477 842.98 960.819Q842.731 960.161 842.552 959.48Q842.372 958.799 842.264 958.104Q842.156 957.408 842.122 956.705Q842.087 956.002 842.125 955.299Q842.164 954.596 842.276 953.901Q842.387 953.206 842.57 952.527Q842.753 951.847 843.006 951.19C844.58 947.209 847.38 945.268 851.161 943.589Z"/>
	<path fill="#FBFBF3" d="M757.672 27.5859C760.404 27.4783 762.906 27.6135 765.452 28.7202Q766.052 28.9807 766.624 29.2995Q767.195 29.6183 767.732 29.9924Q768.269 30.3664 768.766 30.7919Q769.263 31.2174 769.715 31.6901Q770.167 32.1629 770.57 32.6783Q770.973 33.1937 771.323 33.7465Q771.673 34.2994 771.966 34.8843Q772.259 35.4692 772.493 36.0803Q772.724 36.6843 772.894 37.3082Q773.065 37.9321 773.173 38.5697Q773.281 39.2073 773.326 39.8525Q773.371 40.4977 773.352 41.1441Q773.333 41.7906 773.25 42.432Q773.167 43.0735 773.022 43.7036Q772.877 44.3338 772.67 44.9466Q772.463 45.5594 772.197 46.1488C770.433 50.0321 767.499 52.0115 763.665 53.5575C761.089 53.8858 758.408 53.9699 755.93 53.0608Q755.315 52.8409 754.726 52.5602Q754.137 52.2795 753.579 51.9408Q753.021 51.6021 752.5 51.2089Q751.979 50.8156 751.5 50.3719Q751.021 49.9281 750.59 49.4383Q750.158 48.9485 749.778 48.4177Q749.399 47.8869 749.074 47.3205Q748.75 46.7541 748.484 46.1579Q748.199 45.5168 747.983 44.8494Q747.766 44.1821 747.62 43.4958Q747.475 42.8095 747.401 42.1117Q747.328 41.414 747.328 40.7124Q747.328 40.0108 747.401 39.313Q747.474 38.6152 747.62 37.9289Q747.765 37.2426 747.982 36.5752Q748.198 35.9078 748.483 35.2666C750.345 31.1354 753.555 29.0796 757.672 27.5859Z"/>
	<path fill="#FBFBF3" d="M326.519 252.104C328.855 251.764 331.197 251.735 333.475 252.43Q334.165 252.633 334.831 252.907Q335.496 253.18 336.13 253.52Q336.764 253.861 337.36 254.264Q337.955 254.668 338.506 255.131Q339.057 255.594 339.557 256.111Q340.058 256.628 340.502 257.194Q340.947 257.759 341.331 258.368Q341.715 258.976 342.034 259.621Q342.316 260.189 342.54 260.782Q342.763 261.375 342.926 261.987Q343.089 262.6 343.19 263.226Q343.291 263.852 343.329 264.484Q343.366 265.117 343.34 265.75Q343.315 266.384 343.225 267.011Q343.136 267.639 342.984 268.254Q342.833 268.87 342.62 269.467C341.007 273.991 337.741 276.436 333.549 278.414C331.244 278.747 328.893 278.892 326.627 278.231Q325.942 278.028 325.28 277.756Q324.619 277.484 323.989 277.147Q323.359 276.81 322.766 276.41Q322.173 276.01 321.624 275.553Q321.075 275.095 320.575 274.584Q320.075 274.073 319.63 273.514Q319.184 272.955 318.798 272.353Q318.411 271.752 318.088 271.114Q317.768 270.492 317.515 269.84Q317.262 269.187 317.078 268.512Q316.895 267.837 316.783 267.146Q316.671 266.456 316.631 265.757Q316.592 265.059 316.626 264.36Q316.659 263.661 316.766 262.97Q316.873 262.278 317.051 261.602Q317.229 260.925 317.477 260.271C319.125 255.933 322.443 253.821 326.519 252.104Z"/>
	<path fill="#FBFBF3" d="M210.748 352.148C213.555 352.195 216.046 352.59 218.485 354.077Q219.095 354.454 219.663 354.892Q220.231 355.331 220.75 355.826Q221.269 356.321 221.733 356.867Q222.198 357.414 222.603 358.005Q223.009 358.597 223.351 359.227Q223.692 359.858 223.967 360.521Q224.241 361.184 224.445 361.871Q224.649 362.559 224.78 363.264Q224.911 363.916 224.976 364.578Q225.041 365.24 225.039 365.905Q225.038 366.57 224.97 367.232Q224.902 367.893 224.768 368.545Q224.634 369.196 224.436 369.831Q224.237 370.466 223.976 371.078Q223.716 371.69 223.395 372.273Q223.074 372.855 222.697 373.403C220.245 376.944 216.868 378.486 212.769 379.329C210.238 379.221 207.817 378.833 205.553 377.628Q204.93 377.296 204.345 376.902Q203.76 376.507 203.219 376.054Q202.678 375.601 202.187 375.094Q201.696 374.587 201.26 374.032Q200.825 373.476 200.449 372.879Q200.074 372.281 199.763 371.648Q199.451 371.015 199.208 370.352Q198.964 369.69 198.79 369.006C197.862 365.394 198.365 361.376 200.426 358.234C202.929 354.419 206.411 352.929 210.748 352.148Z"/>
	<path fill="#FBFBF3" d="M639.87 625.801C642.678 628.339 649.802 646.862 652.045 651.823Q664.195 657.315 676.093 663.335C668.502 667.322 660.411 670.346 652.767 674.249C648.046 682.168 644.517 691.434 640.598 699.804C640.33 699.944 639.997 699.88 639.695 699.899Q633.495 687.206 627.94 674.218C620.266 670.272 612.293 666.776 604.535 662.974Q616.418 656.998 628.473 651.378C632.521 642.978 636.128 634.341 639.87 625.801Z"/>
	<path fill="#FBFBF3" d="M956.189 818.875C958.443 821.679 959.368 827.872 960.906 831.375C967.527 846.456 979.814 850.64 994.217 856.206C989.006 858.083 983.601 859.846 978.642 862.316C964.873 869.173 961.375 880.257 956.8 893.941L956.014 894.203C953.993 889.193 952.096 884.031 949.673 879.201C942.034 863.97 931.974 861.019 916.795 855.884C922.268 853.982 927.881 852.227 933.144 849.791C947.106 843.329 951.134 832.429 956.189 818.875Z"/>
	<path fill="#FBFBF3" d="M104.194 734.373C107.268 740.626 108.444 747.712 111.63 754.006C117.984 766.56 129.899 769.479 142.253 773.47C126.413 780.388 115.846 782.205 108.731 799.8C107.314 803.303 106.27 808.872 103.996 811.779C103.878 811.931 103.732 812.058 103.599 812.197C101.596 807.794 100.033 803.168 98.1962 798.69C91.2946 781.866 80.1337 779.906 64.9371 773.568C70.8209 771.673 76.8589 769.898 82.479 767.304C96.1243 761.005 99.3398 747.334 104.194 734.373Z"/>
	<path fill="#FBFBF3" d="M953.555 40.3018C956.468 45.1968 957.438 51.4987 960.055 56.6885C967.019 70.4981 979.14 74.9218 993.093 79.5515C987.186 82.2531 980.872 84.0024 975.02 86.8889C960.86 93.8724 958.238 104.842 953.544 118.701C951.973 114.401 950.471 110.034 948.665 105.827C941.282 88.6258 930.171 86.0119 914.112 79.5366C919.54 77.7269 925.037 75.9626 930.185 73.4435C944.521 66.4287 948.746 54.6113 953.555 40.3018Z"/>
	<path fill="#FBFBF3" d="M66.4659 71.2314C69.5053 76.153 70.5444 83.7828 73.1189 89.3057C79.5636 103.131 95.0877 106.506 108.184 111.293C102.092 113.848 95.6672 115.613 89.6898 118.457C75.104 125.397 72.3825 136.241 67.4141 150.368L67.0543 150.719C65.8108 150.037 65.3426 147.782 64.9507 146.433C63.8644 142.694 62.3804 139.051 60.8426 135.474C54.2312 120.095 40.9277 116.941 26.7291 111.306C33.2682 109.058 40.1723 106.997 46.2699 103.717C59.487 96.6063 62.4671 84.6499 66.4659 71.2314Z"/>
	<path fill="#43D2DC" d="M405.953 174.731C400.051 183.616 393.936 190.438 383.266 193.471C373.986 196.109 364.078 194.589 355.754 189.823Q355.016 189.401 354.3 188.942Q353.584 188.484 352.892 187.99Q352.2 187.497 351.533 186.97Q350.866 186.443 350.226 185.883Q349.586 185.324 348.975 184.733Q348.363 184.142 347.782 183.522Q347.201 182.902 346.651 182.253Q346.101 181.605 345.584 180.93Q345.067 180.255 344.585 179.555Q344.102 178.856 343.654 178.133Q343.207 177.41 342.796 176.666Q342.385 175.922 342.011 175.158Q341.637 174.395 341.302 173.613Q340.967 172.832 340.671 172.035Q340.375 171.239 340.119 170.428Q339.863 169.617 339.647 168.795Q339.421 167.924 339.239 167.043Q339.056 166.162 338.917 165.273Q338.778 164.384 338.683 163.489Q338.588 162.594 338.537 161.696Q338.486 160.797 338.479 159.898Q338.472 158.998 338.509 158.099Q338.547 157.2 338.628 156.304Q338.71 155.407 338.835 154.516Q338.96 153.625 339.129 152.742Q339.298 151.858 339.51 150.983Q339.723 150.109 339.978 149.246Q340.232 148.383 340.529 147.533Q340.826 146.684 341.165 145.85Q341.503 145.016 341.882 144.2Q342.261 143.384 342.679 142.588Q343.098 141.791 343.555 141.016Q343.981 140.278 344.444 139.562Q344.907 138.846 345.404 138.154Q345.902 137.462 346.434 136.796Q346.966 136.13 347.53 135.491Q348.094 134.852 348.69 134.242Q349.285 133.632 349.91 133.052Q350.535 132.473 351.189 131.925Q351.842 131.378 352.522 130.864Q353.202 130.349 353.906 129.87Q354.611 129.39 355.339 128.946Q356.066 128.502 356.815 128.095Q357.564 127.688 358.333 127.319Q359.101 126.95 359.887 126.619Q360.673 126.289 361.474 125.998Q362.275 125.707 363.09 125.457Q363.905 125.206 364.731 124.997Q365.624 124.767 366.528 124.582Q367.431 124.398 368.343 124.258Q369.255 124.119 370.172 124.025Q371.09 123.932 372.011 123.884Q372.932 123.837 373.854 123.836Q374.776 123.834 375.698 123.879Q376.619 123.924 377.536 124.015Q378.454 124.106 379.366 124.243Q380.278 124.379 381.182 124.562Q382.087 124.744 382.98 124.971Q383.874 125.198 384.756 125.47Q385.637 125.742 386.504 126.057Q387.37 126.373 388.22 126.731Q389.07 127.09 389.9 127.49Q390.731 127.891 391.541 128.333Q392.35 128.774 393.137 129.256C400.892 133.957 406.387 142.752 408.573 151.404C409.514 159.81 409.216 166.831 405.953 174.731Z"/>
	<path fill="#43D2DC" d="M205.715 154.411C207.975 144.192 212.831 135.891 221.774 130.102Q222.501 129.628 223.25 129.191Q223.999 128.754 224.769 128.354Q225.539 127.955 226.328 127.594Q227.117 127.234 227.923 126.913Q228.729 126.592 229.55 126.311Q230.371 126.031 231.205 125.792Q232.038 125.552 232.883 125.355Q233.728 125.157 234.581 125.002Q235.435 124.847 236.295 124.734Q237.155 124.622 238.02 124.552Q238.884 124.483 239.751 124.456Q240.619 124.43 241.486 124.446Q242.353 124.463 243.219 124.523Q244.084 124.583 244.945 124.685Q245.807 124.788 246.662 124.934Q247.517 125.079 248.364 125.267Q249.244 125.452 250.114 125.681Q250.984 125.909 251.841 126.181Q252.699 126.452 253.542 126.766Q254.385 127.079 255.211 127.434Q256.038 127.79 256.845 128.185Q257.653 128.581 258.44 129.016Q259.227 129.452 259.992 129.925Q260.756 130.399 261.496 130.91Q262.236 131.422 262.95 131.969Q263.664 132.516 264.349 133.098Q265.035 133.68 265.691 134.296Q266.347 134.911 266.971 135.558Q267.596 136.205 268.188 136.883Q268.779 137.56 269.337 138.266Q269.894 138.972 270.416 139.705Q270.937 140.437 271.422 141.195Q271.902 141.959 272.345 142.746Q272.788 143.533 273.191 144.34Q273.595 145.147 273.959 145.973Q274.323 146.8 274.646 147.642Q274.969 148.485 275.25 149.343Q275.532 150.201 275.771 151.071Q276.01 151.941 276.207 152.822Q276.404 153.703 276.557 154.593Q276.71 155.483 276.82 156.379Q276.93 157.275 276.995 158.175Q277.061 159.075 277.083 159.978Q277.105 160.88 277.083 161.782Q277.06 162.685 276.994 163.585Q276.928 164.485 276.818 165.381Q276.707 166.277 276.554 167.167Q276.4 168.056 276.203 168.937C274.142 178.268 268.219 186.932 260.109 192.03C251.815 197.245 241.805 198.357 232.346 196.124C223.178 193.96 215.524 188.133 210.659 180.11C210.098 179.183 209.551 178.249 209.063 177.281C205.868 169.739 204.682 162.554 205.715 154.411Z"/>
	<path fill="#FEEB51" d="M119.059 477.108C114.303 463.014 109.233 449.049 104.943 434.8C92.2539 392.658 83.4419 348.398 81.713 304.365C80.1892 265.556 86.5704 225.513 114.06 196.082C133.228 175.561 159.041 163.42 186.133 157.419C192.5 156.009 199.193 154.627 205.715 154.411C204.682 162.554 205.868 169.739 209.063 177.281C175.964 182.341 145.37 191.003 124.503 219.49C98.1062 255.525 103.223 311.223 109.876 353.101C116.13 392.466 127.091 430.127 139.962 467.77C132.09 469.736 125.822 472.645 119.059 477.108Z"/>
	<path fill="#FEEB51" d="M408.573 151.404C451.09 161.575 494.47 178.232 518.484 217.488C547.311 264.61 536.451 340.231 523.941 391.222Q518.477 413.336 511.618 435.058Q504.758 456.78 496.531 478.021C494.243 477.019 492.035 474.568 490.027 473.029C486.112 470.031 480.655 469.435 475.984 468.239C479.174 461.85 481.175 454.344 483.47 447.579C489.171 430.774 494.54 414.007 498.918 396.799C510.795 350.113 525.52 274.266 499.24 230.548C478.684 196.353 442.376 183.874 405.953 174.731C409.216 166.831 409.514 159.81 408.573 151.404Z"/>
	<path fill="#FBFBF3" d="M139.962 467.77C148.948 466.733 156.626 467.599 164.067 473.407C171.076 478.879 174.363 487.099 176.82 495.377C174.325 494.955 171.26 491.687 169.113 490.225C157.814 482.527 143.735 480.352 132.056 488.949C126.269 493.209 121.741 500.102 120.909 507.284C119.919 515.84 124.888 525.466 128.355 533.076Q132.684 542.667 137.627 551.957Q142.57 561.246 148.106 570.195Q153.642 579.145 159.747 587.716Q165.852 596.286 172.5 604.443C202.601 641.068 245.676 673.31 294.144 678.025C338.081 682.298 378.357 665.5 411.738 637.86C434.403 619.092 454.604 596.204 469.521 570.772C473.651 563.732 477.23 556.306 480.882 549.006C486.427 537.921 492.474 525.418 493.608 512.955C494.248 505.915 492.652 499.401 488.112 493.867Q487.673 493.335 487.208 492.826Q486.743 492.317 486.252 491.832Q485.762 491.346 485.248 490.887Q484.734 490.427 484.197 489.994Q483.66 489.561 483.102 489.156Q482.544 488.751 481.966 488.374Q481.389 487.997 480.793 487.65Q480.197 487.303 479.584 486.987Q478.971 486.671 478.343 486.386Q477.715 486.101 477.073 485.848Q476.432 485.595 475.778 485.375Q475.124 485.155 474.46 484.968Q473.797 484.781 473.124 484.628Q472.452 484.475 471.772 484.356Q471.093 484.237 470.408 484.153Q469.724 484.069 469.036 484.019C460.507 483.358 450.98 486.162 444.568 491.835C442.898 493.313 441.384 495.011 439.679 496.435C442.55 487.9 445.143 479.756 452.502 473.963C459.182 468.704 467.697 467.144 475.984 468.239C480.655 469.435 486.112 470.031 490.027 473.029C492.035 474.568 494.243 477.019 496.531 478.021C505.957 488.259 511.126 498.728 510.6 512.878C510.24 522.558 506.848 531.961 503.382 540.917C488.556 579.234 462.837 614.627 432.66 642.301C403.336 669.193 367.209 689.417 327.498 695.196C314.916 697.33 302.476 697.681 289.893 695.328C235.636 687.069 192.556 655.248 158.025 613.991C139.497 591.855 101.23 533.718 104.074 504.205C105.158 492.951 110.426 484.177 119.059 477.108C125.822 472.645 132.09 469.736 139.962 467.77Z"/>
	<path fill="#FEEB51" d="M439.679 496.435C441.384 495.011 442.898 493.313 444.568 491.835C450.98 486.162 460.507 483.358 469.036 484.019Q469.724 484.069 470.408 484.153Q471.093 484.237 471.772 484.356Q472.452 484.475 473.124 484.628Q473.797 484.781 474.46 484.968Q475.124 485.155 475.778 485.375Q476.431 485.595 477.073 485.848Q477.715 486.101 478.343 486.386Q478.971 486.671 479.584 486.987Q480.196 487.303 480.793 487.65Q481.389 487.997 481.966 488.374Q482.544 488.751 483.102 489.156Q483.66 489.561 484.197 489.994Q484.734 490.427 485.248 490.887Q485.762 491.346 486.252 491.832Q486.743 492.317 487.208 492.826Q487.673 493.335 488.112 493.867C492.652 499.401 494.248 505.915 493.608 512.955C492.474 525.418 486.427 537.921 480.882 549.006C477.23 556.306 473.651 563.732 469.521 570.772C454.604 596.204 434.403 619.092 411.738 637.86C378.357 665.5 338.081 682.298 294.144 678.025C245.676 673.31 202.601 641.068 172.5 604.443Q165.852 596.286 159.747 587.716Q153.642 579.145 148.106 570.195Q142.57 561.246 137.627 551.957Q132.684 542.667 128.355 533.076C124.888 525.466 119.919 515.84 120.909 507.284C121.741 500.102 126.269 493.209 132.056 488.949C143.735 480.352 157.814 482.527 169.113 490.225C171.26 491.687 174.325 494.955 176.82 495.377C194.66 538.366 222.973 581.157 267.605 599.715Q268.82 600.218 270.048 600.691Q271.276 601.163 272.515 601.605Q273.753 602.047 275.003 602.459Q276.253 602.87 277.512 603.25Q278.771 603.63 280.04 603.978Q281.308 604.327 282.585 604.644Q283.861 604.961 285.146 605.246Q286.43 605.531 287.721 605.784Q289.011 606.038 290.308 606.259Q291.605 606.48 292.907 606.669Q294.208 606.857 295.515 607.014Q296.821 607.17 298.13 607.294Q299.44 607.418 300.752 607.509Q302.064 607.601 303.379 607.659Q304.693 607.718 306.008 607.744Q307.323 607.77 308.638 607.763Q309.954 607.757 311.269 607.718Q312.584 607.678 313.897 607.606Q315.211 607.535 316.522 607.43Q317.833 607.326 319.141 607.188Q320.45 607.051 321.754 606.882Q323.059 606.712 324.358 606.51Q325.658 606.309 326.953 606.075Q328.247 605.84 329.535 605.574Q330.824 605.308 332.105 605.01Q333.386 604.712 334.66 604.382Q335.933 604.052 337.198 603.691Q338.463 603.33 339.718 602.937Q340.974 602.545 342.219 602.121Q343.464 601.697 344.699 601.243Q345.933 600.788 347.156 600.303Q348.379 599.818 349.589 599.303C383.723 584.99 409.413 554.748 426.865 522.907C431.562 514.336 434.853 504.843 439.679 496.435Z"/>
	<path fill="#43D2DC" d="M751.179 479.158C763.052 480.128 774.733 480.272 786.623 479.448L786.878 599.022L786.857 645.318C786.844 656.878 787.078 668.563 785.991 680.083C780.767 735.448 753.311 792.279 714.603 831.947C667.919 879.79 611.734 905.001 545.336 910.04C542.968 950.655 548.471 987.51 566.781 1024L529.884 1024C512.82 990.006 510.618 946.832 510.64 909.5C461.553 907.823 409.449 884.556 372.328 853.072Q370.141 851.239 367.999 849.354Q365.857 847.468 363.762 845.53Q361.668 843.593 359.621 841.604Q357.574 839.616 355.576 837.578Q353.579 835.54 351.632 833.454Q349.685 831.368 347.789 829.234Q345.894 827.101 344.051 824.922Q342.209 822.743 340.42 820.52Q338.631 818.296 336.898 816.03Q335.164 813.763 333.486 811.455Q331.809 809.146 330.188 806.798Q328.567 804.449 327.005 802.061Q325.442 799.674 323.938 797.248Q322.435 794.823 320.991 792.362Q319.547 789.9 318.164 787.404Q316.78 784.908 315.459 782.379Q314.137 779.85 312.878 777.29Q311.618 774.729 310.422 772.138Q309.226 769.547 308.093 766.928Q306.961 764.309 305.893 761.663Q304.825 759.016 303.822 756.345Q302.819 753.673 301.882 750.978Q300.945 748.283 300.074 745.565Q299.203 742.848 298.399 740.11Q297.595 737.372 296.858 734.615Q296.121 731.858 295.452 729.084Q294.783 726.31 294.182 723.521Q293.581 720.731 293.048 717.927Q292.516 715.124 292.052 712.308Q291.589 709.493 291.194 706.666Q290.799 703.84 290.474 701.005Q290.149 698.17 289.893 695.328C302.476 697.681 314.916 697.33 327.498 695.196C329.289 740.969 352.578 784.438 384.82 816.101C423.077 853.671 478.17 875.424 531.703 874.917Q534.372 874.898 537.04 874.814Q539.708 874.73 542.374 874.581Q545.039 874.432 547.699 874.218Q550.36 874.004 553.015 873.725Q555.67 873.446 558.317 873.102Q560.964 872.758 563.602 872.349Q566.24 871.941 568.867 871.468Q571.494 870.995 574.109 870.459Q576.724 869.922 579.324 869.321Q581.925 868.721 584.511 868.057Q587.096 867.393 589.665 866.666Q592.233 865.939 594.783 865.15Q597.333 864.36 599.863 863.509Q602.393 862.657 604.901 861.745Q607.41 860.831 609.895 859.857Q612.38 858.883 614.841 857.849Q617.302 856.815 619.737 855.72Q622.171 854.626 624.579 853.473Q626.986 852.319 629.364 851.107Q631.743 849.895 634.091 848.626Q636.439 847.356 638.755 846.03Q641.072 844.703 643.355 843.32Q645.638 841.937 647.887 840.499Q650.136 839.061 652.349 837.568Q654.562 836.076 656.738 834.529Q658.913 832.983 661.051 831.384Q663.188 829.785 665.286 828.134Q667.384 826.484 669.44 824.782Q671.497 823.081 673.512 821.329Q675.526 819.578 677.498 817.778Q679.469 815.978 681.396 814.131Q683.322 812.283 685.203 810.389C721.8 772.887 746.987 725.144 750.96 672.351C752.671 649.608 751.128 626.274 751.201 603.455Q751.613 541.306 751.179 479.158Z"/>
	<path fill="#FEEB51" d="M751.179 479.158C698.646 471.681 655.729 449.746 623.475 406.857Q622.082 405.026 620.734 403.161Q619.387 401.296 618.086 399.398Q616.786 397.501 615.533 395.571Q614.279 393.641 613.075 391.681Q611.87 389.721 610.714 387.732Q609.558 385.742 608.453 383.725Q607.347 381.707 606.291 379.663Q605.236 377.619 604.231 375.549Q603.227 373.479 602.274 371.385Q601.321 369.29 600.421 367.173Q599.521 365.056 598.673 362.917Q597.826 360.778 597.032 358.619Q596.238 356.459 595.497 354.281Q594.757 352.102 594.071 349.906Q593.385 347.71 592.754 345.498Q592.123 343.285 591.547 341.058Q590.971 338.83 590.451 336.589Q589.93 334.348 589.466 332.095Q589.001 329.841 588.592 327.577Q588.184 325.313 587.832 323.039Q587.479 320.766 587.184 318.484Q586.888 316.202 586.649 313.914Q586.411 311.626 586.229 309.332Q586.047 307.039 585.922 304.741Q585.797 302.444 585.729 300.144Q585.661 297.844 585.651 295.544Q585.64 293.243 585.687 290.943Q585.733 288.642 585.837 286.344Q585.94 284.046 586.101 281.75Q586.262 279.455 586.479 277.165Q586.697 274.874 586.971 272.59Q587.246 270.306 587.577 268.029Q587.912 265.719 588.305 263.417Q588.697 261.116 589.147 258.825Q589.596 256.534 590.102 254.255Q590.608 251.976 591.17 249.71Q591.732 247.444 592.35 245.193Q592.969 242.942 593.642 240.706Q594.316 238.471 595.045 236.253Q595.774 234.036 596.558 231.836Q597.341 229.637 598.179 227.458Q599.017 225.279 599.909 223.122Q600.8 220.964 601.745 218.829Q602.69 216.694 603.687 214.584Q604.685 212.473 605.734 210.387Q606.784 208.302 607.884 206.243Q608.985 204.184 610.136 202.153Q611.288 200.122 612.489 198.121Q613.69 196.119 614.941 194.148Q616.191 192.176 617.49 190.236Q618.789 188.297 620.136 186.39Q621.483 184.483 622.876 182.61Q624.27 180.736 625.709 178.898Q627.149 177.06 628.633 175.259Q630.118 173.457 631.647 171.693Q633.175 169.928 634.747 168.202Q636.319 166.476 637.934 164.79Q639.548 163.103 641.203 161.457Q642.859 159.811 644.555 158.206Q646.251 156.602 647.986 155.04Q649.721 153.478 651.494 151.959Q653.267 150.441 655.077 148.967Q656.887 147.492 658.734 146.064Q660.58 144.635 662.461 143.252C700.168 115.106 749.786 103.99 796.105 110.788Q798.375 111.122 800.636 111.512Q802.897 111.902 805.148 112.347Q807.398 112.793 809.637 113.293Q811.877 113.794 814.103 114.35Q816.329 114.905 818.541 115.515Q820.752 116.126 822.948 116.79Q825.144 117.454 827.324 118.173Q829.503 118.891 831.663 119.663Q833.824 120.434 835.965 121.259Q838.106 122.083 840.226 122.96Q842.347 123.837 844.445 124.766Q846.542 125.695 848.617 126.675Q850.691 127.656 852.741 128.687Q854.791 129.718 856.815 130.799Q858.838 131.88 860.835 133.01Q862.831 134.141 864.799 135.32Q866.768 136.499 868.706 137.727Q870.644 138.954 872.552 140.229Q874.46 141.504 876.336 142.825Q878.211 144.146 880.054 145.513Q881.897 146.88 883.705 148.292Q885.514 149.704 887.287 151.16Q889.06 152.616 890.797 154.115Q892.534 155.615 894.233 157.156Q895.933 158.698 897.594 160.28Q899.255 161.863 900.876 163.486Q902.498 165.11 904.079 166.772Q905.66 168.435 907.2 170.136Q908.739 171.837 910.237 173.575Q911.734 175.314 913.188 177.088Q914.643 178.863 916.053 180.673Q917.463 182.483 918.828 184.327Q920.186 186.171 921.498 188.047Q922.81 189.923 924.076 191.832Q925.341 193.74 926.56 195.678Q927.778 197.617 928.948 199.585Q930.119 201.552 931.241 203.548Q932.362 205.545 933.435 207.568Q934.507 209.59 935.53 211.639Q936.552 213.688 937.524 215.761Q938.496 217.834 939.417 219.931Q940.337 222.027 941.206 224.145Q942.075 226.264 942.891 228.403Q943.708 230.542 944.472 232.7Q945.236 234.859 945.947 237.035Q946.657 239.212 947.314 241.405Q947.971 243.599 948.574 245.808Q949.177 248.016 949.726 250.239Q950.274 252.462 950.768 254.698Q951.262 256.934 951.701 259.181Q952.139 261.428 952.523 263.686Q952.906 265.943 953.234 268.209Q953.562 270.475 953.834 272.748Q954.107 275.022 954.323 277.301Q954.539 279.581 954.699 281.865Q954.86 284.149 954.964 286.436Q955.068 288.723 955.116 291.012Q955.164 293.302 955.156 295.591Q955.147 297.881 955.083 300.17Q955.018 302.458 954.898 304.745Q954.777 307.031 954.601 309.314Q954.424 311.597 954.191 313.875Q953.958 316.153 953.67 318.424Q953.381 320.695 953.037 322.959Q952.712 325.211 952.331 327.455Q951.949 329.699 951.512 331.932Q951.075 334.165 950.583 336.387Q950.09 338.609 949.542 340.818Q948.994 343.026 948.392 345.221Q947.789 347.415 947.132 349.594Q946.474 351.773 945.763 353.934Q945.051 356.096 944.286 358.239Q943.521 360.383 942.703 362.506Q941.884 364.629 941.013 366.732Q940.142 368.834 939.219 370.914Q938.295 372.994 937.32 375.051Q936.346 377.107 935.32 379.138Q934.294 381.17 933.218 383.175Q932.141 385.18 931.016 387.158Q929.89 389.136 928.715 391.085Q927.54 393.034 926.317 394.953Q925.094 396.872 923.823 398.76Q922.552 400.648 921.235 402.503Q919.918 404.359 918.555 406.181Q917.191 408.004 915.783 409.791Q914.375 411.579 912.922 413.331Q911.47 415.083 909.974 416.798Q908.479 418.513 906.941 420.191Q905.403 421.868 903.824 423.507Q902.244 425.145 900.625 426.744Q899.005 428.343 897.346 429.9Q895.687 431.458 893.989 432.974Q892.292 434.49 890.557 435.963Q888.823 437.436 887.052 438.865Q885.281 440.294 883.475 441.679Q881.669 443.064 879.829 444.403C851.845 464.965 820.884 475.586 786.623 479.448C774.733 480.272 763.052 480.128 751.179 479.158Z"/>
	<path d="M762.27 146.711C796.496 143.957 835.829 157.261 862.239 179.025Q863.688 180.2 865.108 181.412Q866.527 182.623 867.916 183.869Q869.304 185.116 870.661 186.397Q872.018 187.677 873.342 188.992Q874.666 190.306 875.957 191.654Q877.248 193.001 878.505 194.38Q879.762 195.759 880.984 197.169Q882.206 198.579 883.392 200.02Q884.578 201.46 885.728 202.93Q886.878 204.399 887.991 205.897Q889.103 207.395 890.178 208.92Q891.253 210.446 892.289 211.998Q893.325 213.549 894.322 215.127Q895.319 216.704 896.276 218.306Q897.233 219.907 898.15 221.533Q899.066 223.158 899.942 224.805Q900.818 226.453 901.652 228.122Q902.486 229.791 903.278 231.481Q904.07 233.17 904.82 234.879Q905.569 236.588 906.276 238.315Q906.982 240.042 907.645 241.786Q908.308 243.53 908.927 245.29Q909.546 247.051 910.121 248.826Q910.696 250.601 911.226 252.39Q911.756 254.179 912.241 255.981Q912.726 257.783 913.166 259.596Q913.606 261.409 914 263.233Q914.395 265.057 914.743 266.89Q915.092 268.723 915.394 270.564Q915.697 272.406 915.953 274.254Q916.209 276.102 916.419 277.956Q916.629 279.81 916.792 281.669Q916.971 283.5 917.104 285.335Q917.237 287.17 917.324 289.007Q917.412 290.845 917.454 292.684Q917.496 294.523 917.493 296.363Q917.49 298.202 917.44 300.041Q917.391 301.88 917.297 303.717Q917.202 305.555 917.062 307.389Q916.922 309.223 916.737 311.053Q916.552 312.884 916.321 314.709Q916.09 316.534 915.815 318.353Q915.539 320.172 915.218 321.983Q914.897 323.794 914.532 325.597Q914.166 327.4 913.756 329.194Q913.346 330.987 912.892 332.77Q912.438 334.552 911.939 336.323Q911.441 338.094 910.899 339.852Q910.357 341.61 909.771 343.354Q909.186 345.098 908.557 346.827Q907.929 348.556 907.258 350.269Q906.587 351.982 905.874 353.677Q905.16 355.373 904.405 357.051Q903.65 358.728 902.854 360.386Q902.058 362.045 901.22 363.683Q900.383 365.321 899.506 366.938Q898.628 368.555 897.711 370.149Q896.794 371.744 895.837 373.315Q894.881 374.887 893.886 376.434Q892.891 377.981 891.858 379.503Q890.825 381.026 889.754 382.522Q888.684 384.018 887.576 385.487Q886.469 386.956 885.326 388.397Q884.183 389.839 883.004 391.251C863.679 414.366 835.946 432.319 806.643 439.515C797.765 441.696 788.89 442.649 779.814 443.452C740.121 444.38 706.071 434.611 675.441 408.349Q674.034 407.145 672.658 405.906Q671.282 404.668 669.937 403.396Q668.592 402.123 667.278 400.818Q665.965 399.513 664.684 398.176Q663.404 396.838 662.157 395.47Q660.91 394.101 659.697 392.702Q658.484 391.303 657.306 389.875Q656.129 388.446 654.987 386.989Q653.845 385.531 652.739 384.046Q651.633 382.561 650.565 381.049Q649.496 379.537 648.465 377.999Q647.435 376.461 646.442 374.897Q645.45 373.334 644.497 371.747Q643.543 370.16 642.63 368.55Q641.716 366.939 640.842 365.307Q639.969 363.674 639.136 362.021Q638.303 360.367 637.511 358.693Q636.719 357.02 635.969 355.327Q635.219 353.634 634.511 351.923Q633.803 350.212 633.138 348.485Q632.473 346.757 631.85 345.013Q631.228 343.269 630.649 341.51Q630.07 339.752 629.535 337.979Q629 336.207 628.508 334.422Q628.017 332.637 627.57 330.84Q627.123 329.043 626.721 327.236Q626.319 325.428 625.961 323.612Q625.604 321.795 625.292 319.97Q624.979 318.145 624.713 316.313Q624.445 314.481 624.224 312.642Q624.002 310.804 623.826 308.961Q623.65 307.118 623.52 305.271Q623.373 303.433 623.272 301.592Q623.171 299.751 623.115 297.908Q623.06 296.065 623.051 294.222Q623.041 292.378 623.078 290.535Q623.114 288.691 623.197 286.849Q623.279 285.007 623.408 283.168Q623.536 281.329 623.71 279.493Q623.884 277.658 624.104 275.827Q624.324 273.997 624.589 272.172Q624.855 270.348 625.166 268.53Q625.476 266.713 625.832 264.904Q626.188 263.095 626.589 261.295Q626.99 259.495 627.435 257.706Q627.881 255.917 628.371 254.14Q628.861 252.362 629.395 250.598Q629.93 248.833 630.508 247.082Q631.085 245.331 631.707 243.596Q632.328 241.86 632.993 240.14Q633.657 238.42 634.365 236.717Q635.072 235.014 635.821 233.33Q636.57 231.645 637.361 229.98Q638.152 228.314 638.985 226.669Q639.817 225.024 640.69 223.4Q641.563 221.776 642.477 220.175Q643.39 218.573 644.343 216.994Q645.295 215.416 646.287 213.862Q647.279 212.308 648.31 210.779Q649.34 209.25 650.408 207.747Q651.476 206.244 652.581 204.768Q653.687 203.292 654.828 201.845Q655.97 200.397 657.147 198.978Q658.325 197.559 659.537 196.17C685.627 166.177 722.94 149.39 762.27 146.711Z"/>
	<path fill="#FEEB51" d="M766.866 163.721C767.007 163.712 767.149 163.701 767.291 163.695C800.229 162.243 833.984 175.939 857.843 198.299Q859.059 199.442 860.246 200.615Q861.433 201.788 862.591 202.99Q863.748 204.192 864.876 205.422Q866.004 206.652 867.101 207.91Q868.198 209.167 869.264 210.452Q870.33 211.736 871.363 213.046Q872.397 214.356 873.398 215.691Q874.399 217.027 875.367 218.386Q876.335 219.746 877.269 221.128Q878.203 222.511 879.103 223.917Q880.003 225.323 880.867 226.75Q881.732 228.177 882.561 229.626Q883.391 231.074 884.184 232.542Q884.977 234.01 885.734 235.498Q886.491 236.985 887.211 238.491Q887.931 239.996 888.613 241.519Q889.296 243.042 889.94 244.581Q890.585 246.121 891.192 247.675Q891.798 249.23 892.366 250.799Q892.935 252.368 893.464 253.951Q893.993 255.534 894.483 257.129Q894.973 258.724 895.423 260.331Q895.874 261.938 896.285 263.556Q896.695 265.173 897.066 266.8Q897.437 268.427 897.767 270.063Q898.098 271.699 898.388 273.342Q898.678 274.986 898.927 276.636Q899.176 278.286 899.385 279.942Q899.594 281.598 899.761 283.258Q899.929 284.918 900.056 286.582Q900.182 288.246 900.268 289.913Q900.354 291.58 900.398 293.248Q900.446 294.851 900.455 296.454Q900.464 298.058 900.433 299.661Q900.401 301.264 900.33 302.866Q900.259 304.468 900.149 306.068Q900.038 307.668 899.888 309.264Q899.737 310.861 899.547 312.453Q899.357 314.045 899.128 315.632Q898.898 317.219 898.629 318.8Q898.361 320.381 898.053 321.955Q897.745 323.529 897.398 325.094Q897.051 326.66 896.665 328.216Q896.279 329.773 895.855 331.319Q895.431 332.866 894.969 334.401Q894.506 335.936 894.006 337.46Q893.505 338.983 892.967 340.494Q892.429 342.005 891.853 343.501Q891.278 344.998 890.665 346.48Q890.053 347.962 889.404 349.428Q888.755 350.895 888.07 352.344Q887.384 353.794 886.663 355.227Q885.942 356.659 885.186 358.073Q884.43 359.487 883.638 360.882Q882.847 362.276 882.021 363.651Q881.196 365.026 880.336 366.379Q879.477 367.733 878.584 369.065Q877.691 370.397 876.765 371.707Q875.84 373.016 874.882 374.302Q873.924 375.588 872.934 376.85Q871.945 378.112 870.924 379.349Q869.904 380.586 868.853 381.797Q867.802 383.008 866.721 384.193Q865.641 385.377 864.531 386.535Q863.448 387.681 862.337 388.8Q861.226 389.919 860.088 391.01Q858.949 392.101 857.785 393.164Q856.62 394.227 855.429 395.26Q854.239 396.294 853.023 397.299Q851.808 398.303 850.568 399.277Q849.328 400.251 848.064 401.195Q846.801 402.138 845.514 403.05Q844.228 403.962 842.92 404.842Q841.611 405.722 840.282 406.569Q838.952 407.417 837.602 408.232Q836.252 409.046 834.883 409.828Q833.513 410.609 832.124 411.356Q830.736 412.103 829.33 412.816Q827.923 413.529 826.5 414.207Q825.076 414.885 823.636 415.528Q822.197 416.171 820.741 416.778Q819.286 417.386 817.817 417.957Q816.347 418.528 814.864 419.063Q813.38 419.598 811.884 420.097Q810.388 420.595 808.881 421.056Q807.373 421.518 805.854 421.942Q804.336 422.366 802.807 422.753Q801.278 423.14 799.741 423.489Q798.203 423.838 796.657 424.149Q795.111 424.46 793.558 424.733Q792.005 425.006 790.446 425.241Q788.887 425.475 787.323 425.672Q785.758 425.868 784.189 426.026Q782.62 426.183 781.048 426.302Q779.476 426.422 777.901 426.502Q776.326 426.582 774.75 426.624C741.756 426.722 709.209 415.743 684.394 393.614Q683.165 392.505 681.963 391.366Q680.761 390.227 679.588 389.058Q678.415 387.89 677.271 386.693Q676.126 385.497 675.012 384.272Q673.897 383.048 672.813 381.796Q671.729 380.545 670.676 379.267Q669.623 377.99 668.602 376.686Q667.58 375.383 666.591 374.055Q665.602 372.728 664.646 371.376Q663.69 370.024 662.767 368.649Q661.845 367.275 660.956 365.877Q660.067 364.48 659.213 363.062Q658.359 361.644 657.54 360.205Q656.721 358.766 655.938 357.307Q655.154 355.848 654.407 354.371Q653.66 352.893 652.949 351.398Q652.238 349.903 651.564 348.39Q650.89 346.878 650.254 345.349Q649.617 343.821 649.018 342.277Q648.419 340.734 647.859 339.176Q647.298 337.618 646.776 336.047Q646.253 334.476 645.77 332.892Q645.286 331.309 644.841 329.714Q644.397 328.119 643.992 326.513Q643.586 324.908 643.221 323.293Q642.855 321.678 642.529 320.055Q642.203 318.432 641.917 316.801Q641.631 315.17 641.385 313.533Q641.139 311.895 640.934 310.252Q640.728 308.61 640.563 306.962Q640.398 305.315 640.273 303.664Q640.148 302.013 640.064 300.359C638.311 266.277 651.673 230.586 674.55 205.345C699.014 178.353 730.991 165.613 766.866 163.721Z"/>
	<path fill="#FEC22C" d="M851.785 312.076C858.946 311.112 866.672 310.967 872.687 315.696C875.564 317.957 878.368 321.357 878.703 325.138C878.936 327.776 877.787 330.294 876.079 332.245C872.216 336.656 865.843 338.901 860.093 339.126C854.107 339.36 846.511 337.776 842.076 333.511C839.973 331.488 838.469 328.257 838.402 325.324C838.369 323.881 838.724 322.481 839.098 321.099C842.845 316.981 846.407 313.927 851.785 312.076Z"/>
	<path fill="#FEC22C" d="M698.001 315.083C700.06 318.353 701.68 321.072 701.512 325.105C701.369 328.535 699.604 331.557 696.999 333.726C692.079 337.822 685.023 338.84 678.811 338.203C673.162 337.623 666.778 335.638 663.188 330.987C661.24 328.463 660.486 325.41 660.937 322.259C661.391 319.093 663.274 316.607 665.839 314.787C674.15 308.889 683.113 309.635 692.564 311.335L698.001 315.083Z"/>
	<path d="M748.199 339.858C753.136 342.431 758.061 344.331 763.614 345.036C773.878 346.339 790.24 343.786 795.416 333.681C796.465 331.631 797.099 326.517 798.53 325.404L800.005 325.675C802.507 326.266 804.974 326.707 807.516 327.079C807.76 334.253 803.973 342.526 799.615 348.105C793.843 355.493 784.736 360.413 775.43 361.417C766.173 362.415 756.892 359.962 749.612 354.089C741.008 347.146 737.68 337.762 736.585 327.086L743.937 326.945C744.961 331.468 745.834 335.805 748.199 339.858Z"/>
	<path fill="#FEEB51" d="M748.199 339.858C753.136 342.431 758.061 344.331 763.614 345.036C773.878 346.339 790.24 343.786 795.416 333.681C796.465 331.631 797.099 326.517 798.53 325.404L800.005 325.675C798.541 335.428 795.621 343.627 787.271 349.579C781.368 353.787 773.995 354.996 766.944 353.702C759.241 352.287 753.355 347.833 749.096 341.4C748.763 340.898 748.483 340.389 748.199 339.858Z"/>
	<path fill="#FBFBF3" d="M692.564 311.335C680.921 298.872 672.59 287.089 673.134 269.269C673.546 255.763 678.725 244.493 688.613 235.296Q689.466 234.497 690.357 233.742Q691.248 232.986 692.176 232.276Q693.104 231.566 694.066 230.903Q695.028 230.24 696.021 229.625Q697.015 229.01 698.038 228.446Q699.061 227.881 700.11 227.368Q701.16 226.855 702.234 226.395Q703.308 225.935 704.403 225.528Q705.499 225.122 706.613 224.771Q707.727 224.419 708.858 224.123Q709.988 223.828 711.132 223.589Q712.275 223.349 713.429 223.167Q714.584 222.985 715.745 222.861Q716.907 222.736 718.073 222.67Q719.24 222.603 720.408 222.594Q721.577 222.586 722.744 222.635Q724.033 222.696 725.318 222.819Q726.602 222.943 727.879 223.13Q729.156 223.317 730.422 223.566Q731.688 223.815 732.941 224.126Q734.193 224.437 735.429 224.809Q736.664 225.181 737.88 225.613Q739.096 226.045 740.289 226.536Q741.483 227.028 742.65 227.577Q743.818 228.126 744.957 228.732Q746.097 229.338 747.205 229.999Q748.313 230.66 749.388 231.375Q750.462 232.089 751.5 232.856Q752.538 233.622 753.538 234.439Q754.537 235.255 755.495 236.12Q756.453 236.985 757.367 237.895Q758.281 238.806 759.15 239.76C765.71 246.935 769.017 255.75 771.36 265.047C776.915 251.809 786.037 240.688 799.658 235.22C811.77 230.357 825.745 230.219 837.743 235.473C849.144 240.466 857.573 249.645 861.953 261.261C866.264 272.692 866.491 285.993 861.29 297.189C858.742 302.674 854.646 306.912 851.785 312.076C846.407 313.927 842.845 316.981 839.098 321.099C828.403 324.75 818.821 326.644 807.516 327.079C804.974 326.707 802.507 326.266 800.005 325.675L798.53 325.404C797.099 326.517 796.465 331.631 795.416 333.681C790.24 343.786 773.878 346.339 763.614 345.036C758.061 344.331 753.136 342.431 748.199 339.858C745.834 335.805 744.961 331.468 743.937 326.945L736.585 327.086C727.359 326.296 716.812 324.671 708.428 320.553C704.868 318.804 701.854 316.23 698.001 315.083L692.564 311.335Z"/>
	<path d="M717.186 251.685C722.294 251.678 727.183 252.861 731.53 255.623Q732.084 255.976 732.619 256.357Q733.154 256.737 733.669 257.144Q734.184 257.552 734.678 257.985Q735.172 258.417 735.643 258.875Q736.114 259.332 736.562 259.813Q737.009 260.293 737.431 260.796Q737.854 261.299 738.25 261.822Q738.647 262.346 739.016 262.889Q739.385 263.432 739.727 263.993Q740.068 264.554 740.38 265.131Q740.693 265.709 740.976 266.301Q741.258 266.894 741.511 267.5Q741.763 268.107 741.984 268.725Q742.206 269.343 742.395 269.972Q742.585 270.6 742.743 271.238Q742.9 271.875 743.025 272.52C744.462 279.801 743.091 287.064 738.799 293.16C733.967 300.022 727.665 302.687 719.717 304.063C713.362 304.129 707.33 302.276 702.285 298.358Q701.771 297.962 701.276 297.542Q700.782 297.121 700.31 296.676Q699.838 296.231 699.388 295.763Q698.938 295.295 698.513 294.805Q698.087 294.315 697.687 293.805Q697.286 293.294 696.912 292.764Q696.537 292.234 696.189 291.686Q695.842 291.138 695.522 290.573Q695.203 290.009 694.911 289.429Q694.62 288.849 694.359 288.255Q694.097 287.661 693.865 287.055Q693.634 286.449 693.433 285.832Q693.231 285.215 693.061 284.588Q692.891 283.962 692.753 283.328Q692.615 282.694 692.508 282.054Q692.401 281.414 692.327 280.769C691.52 273.827 693.435 266.573 697.847 261.114C702.84 254.939 709.543 252.477 717.186 251.685Z"/>
	<path fill="#FBFBF3" d="M724.084 260.106C726.79 259.895 729.269 259.729 731.836 260.768Q732.414 261.001 732.965 261.292Q733.517 261.583 734.035 261.929Q734.554 262.275 735.034 262.672Q735.515 263.069 735.952 263.513Q736.389 263.958 736.778 264.444Q737.168 264.931 737.505 265.455Q737.843 265.979 738.124 266.535Q738.406 267.091 738.63 267.673Q738.838 268.208 738.992 268.761Q739.147 269.314 739.245 269.879Q739.344 270.445 739.386 271.017Q739.428 271.59 739.413 272.164Q739.398 272.737 739.326 273.307Q739.254 273.876 739.126 274.436Q738.998 274.996 738.815 275.54Q738.632 276.084 738.396 276.607C736.731 280.244 733.736 282.081 730.162 283.509C727.457 284.008 725.19 284.143 722.584 283.118Q722.007 282.893 721.457 282.609Q720.907 282.325 720.389 281.985Q719.872 281.646 719.393 281.254Q718.914 280.862 718.478 280.422Q718.042 279.983 717.654 279.5Q717.267 279.017 716.932 278.497Q716.597 277.976 716.318 277.423Q716.039 276.871 715.819 276.292Q715.587 275.705 715.417 275.097Q715.246 274.489 715.139 273.867Q715.032 273.244 714.989 272.614Q714.946 271.984 714.968 271.353Q714.99 270.722 715.077 270.097Q715.164 269.471 715.314 268.858Q715.464 268.245 715.677 267.65Q715.89 267.056 716.162 266.486C717.877 262.962 720.544 261.424 724.084 260.106Z"/>
	<path d="M819.751 251.611Q820.725 251.529 821.702 251.52Q822.679 251.51 823.654 251.572Q824.629 251.634 825.597 251.768Q826.565 251.902 827.52 252.106Q828.475 252.311 829.413 252.585Q830.351 252.859 831.266 253.202Q832.181 253.544 833.069 253.953Q833.956 254.362 834.811 254.835Q835.41 255.172 835.992 255.539Q836.573 255.905 837.136 256.3Q837.698 256.696 838.24 257.118Q838.782 257.541 839.302 257.991Q839.822 258.44 840.319 258.915Q840.816 259.39 841.289 259.889Q841.761 260.389 842.208 260.911Q842.655 261.433 843.076 261.977Q843.496 262.521 843.888 263.086Q844.281 263.65 844.645 264.233Q845.008 264.816 845.343 265.417Q845.677 266.018 845.98 266.635Q846.284 267.251 846.556 267.883Q846.829 268.514 847.069 269.158Q847.309 269.802 847.517 270.457Q847.725 271.112 847.9 271.777C849.774 278.835 848.825 286.612 844.942 292.845C840.735 299.598 834.443 302.567 826.977 304.211C821.076 304.873 814.622 303.578 809.553 300.463C803.398 296.681 798.945 290.064 797.537 283C796.141 276.004 797.777 268.787 801.706 262.874C806.138 256.203 812.095 253.111 819.751 251.611Z"/>
	<path fill="#FBFBF3" d="M827.027 260.545C829.514 260.34 832.001 260.055 834.422 260.842Q835 261.031 835.556 261.277Q836.112 261.523 836.641 261.823Q837.169 262.124 837.664 262.477Q838.16 262.829 838.617 263.23Q839.075 263.631 839.489 264.076Q839.904 264.52 840.271 265.005Q840.639 265.489 840.956 266.008Q841.273 266.527 841.536 267.075Q841.799 267.633 842.003 268.215Q842.206 268.797 842.349 269.398Q842.492 269.998 842.573 270.609Q842.653 271.221 842.67 271.837Q842.687 272.454 842.64 273.069Q842.594 273.684 842.484 274.291Q842.375 274.898 842.203 275.491Q842.032 276.083 841.8 276.655C840.228 280.459 837.301 282.444 833.61 283.902C831.534 284.288 829.603 284.381 827.547 283.792Q826.925 283.614 826.324 283.374Q825.724 283.133 825.151 282.832Q824.579 282.53 824.04 282.172Q823.502 281.814 823.003 281.402Q822.504 280.99 822.05 280.529Q821.596 280.068 821.192 279.563Q820.788 279.058 820.438 278.514Q820.087 277.97 819.795 277.393Q819.516 276.847 819.294 276.275Q819.072 275.704 818.909 275.112Q818.747 274.521 818.646 273.916Q818.546 273.311 818.507 272.698Q818.469 272.086 818.494 271.473Q818.518 270.861 818.606 270.254Q818.693 269.646 818.842 269.052Q818.991 268.457 819.2 267.88C820.621 264.049 823.417 262.123 827.027 260.545Z"/>
</svg>
