<?xml version="1.0" encoding="utf-8" ?>
<svg xmlns="http://www.w3.org/2000/svg" xmlns:xlink="http://www.w3.org/1999/xlink" width="1024" height="1024">
	<path fill="#FDFCB0" d="M0 0L1024 0L1024 619.271L1024 865.334L1024 1024L1023 1024L0 1024L0 1023.54L0 864.914L0 687.86L0 0Z"/>
	<path fill="#FFE652" d="M258.544 625.114C263.307 624.577 267.747 624.875 272.429 625.857C294.617 630.514 320.366 645.826 332.717 665.225C335.667 669.858 338.528 676.036 337.122 681.603C335.977 686.14 332.666 688.605 328.851 690.812C326.829 691.508 324.873 691.925 322.748 692.08C305.305 693.355 286.485 682.593 273.853 671.453C262.453 661.4 251.31 648.864 250.339 633.014Q250.583 632.389 250.847 631.772C252.519 627.905 254.712 626.602 258.544 625.114Z"/>
	<path fill="#FFE652" d="M222.293 417.539C226.724 417.326 230.003 417.691 233.929 420.07C247.221 428.122 253.913 449.302 257.099 463.446C261.471 482.857 261.902 512.636 250.684 530.016C246.936 535.823 242.619 538.664 235.984 540.116C232.565 539.901 229.796 539.288 226.698 537.763C214.318 531.671 206.678 515.784 202.588 503.358C195.464 481.72 194.87 453.922 205.392 433.217C209.168 425.786 214.16 420.154 222.293 417.539Z"/>
	<path fill="#FFE652" d="M373.343 237.695C379.496 236.682 387.786 238.883 392.734 242.531C397.649 246.154 400.659 251.46 401.466 257.49C403.898 275.679 391.588 296.711 381.088 310.534C366.024 330.367 339.833 352.567 314.565 355.938C306.987 356.848 299.25 356.098 293.107 351.047C288.029 346.871 285.797 340.594 285.092 334.242C282.869 314.229 293.907 292.769 306.063 277.624C322.571 257.058 346.658 240.564 373.343 237.695Z"/>
	<path fill="#FFE652" d="M509.793 150.715C539.152 149.023 581.296 156.627 603.546 176.449C609.762 181.987 615.277 189.324 615.594 197.973C615.842 204.743 612.829 210.966 608.203 215.767C592.64 231.92 562.946 236.265 541.375 236.656C510.833 236.869 473.169 230.274 448.991 210.314C442.589 205.029 436.383 197.961 435.719 189.297C435.27 183.434 437.706 177.979 441.556 173.665C456.391 157.04 488.481 151.913 509.793 150.715Z"/>
	<path fill="#FFE652" d="M599.587 671.266C613.535 657.198 623.403 623.205 632.184 604.184C654.878 555.023 692.877 513.173 744.417 494.212C759.56 488.64 775.511 484.935 791.703 484.859C815.578 484.746 836.417 490.64 853.609 507.78C870.179 524.3 876.946 548.263 876.914 571.167C876.831 631.627 840.261 692.88 798.36 734.352C788.06 744.546 777.553 754.433 766.393 763.681C764.469 765.276 761.949 766.811 760.924 769.145C750.596 767.466 740.355 765.045 730.049 763.193Q700.514 757.956 670.767 754.106C661.765 752.945 652.161 751.056 643.094 751.003C641.127 750.039 640.142 749.957 638.096 750.597C631.885 738.32 626.328 725.694 620.398 713.279C613.665 699.183 606.557 685.246 599.587 671.266Z"/>
	<path fill="#AF8A06" d="M0 0L1024 0L1024 619.271C997.097 626.199 971.994 639.522 947.319 652.001C923.237 664.18 899.42 676.369 874.627 687.073C881.915 671.648 888.819 656.089 894.283 639.909Q895.608 635.96 896.851 631.985Q898.093 628.01 899.252 624.009Q900.412 620.008 901.487 615.984Q902.562 611.961 903.553 607.915Q904.545 603.87 905.451 599.804Q906.357 595.739 907.179 591.656Q908 587.573 908.736 583.473Q909.472 579.373 910.122 575.259Q910.772 571.145 911.336 567.019Q911.9 562.892 912.378 558.754Q912.856 554.617 913.247 550.47Q913.638 546.323 913.943 542.169Q914.247 538.015 914.465 533.856Q914.683 529.697 914.814 525.534Q914.945 521.371 914.989 517.206Q915.033 513.041 914.99 508.876Q914.947 504.711 914.817 500.548Q914.687 496.385 914.47 492.226Q914.253 488.066 913.949 483.912Q913.645 479.758 913.255 475.611Q912.864 471.465 912.387 467.327Q911.91 463.189 911.347 459.062Q910.784 454.935 910.135 450.821Q909.485 446.707 908.75 442.607Q908.015 438.508 907.195 434.424Q906.374 430.341 905.469 426.275Q904.563 422.21 903.573 418.164Q902.583 414.118 901.508 410.094Q900.433 406.07 899.275 402.07Q898.117 398.069 896.875 394.093Q895.633 390.117 894.309 386.168Q892.985 382.219 891.578 378.299C862.872 298.4 804.537 227.922 733.458 181.985C718.43 172.273 702.373 163.774 686.189 156.172Q681.936 154.167 677.635 152.267Q673.335 150.367 668.989 148.572Q664.643 146.777 660.255 145.089Q655.866 143.401 651.438 141.82Q647.01 140.24 642.544 138.768Q638.079 137.296 633.579 135.934Q629.078 134.572 624.546 133.32Q620.014 132.068 615.453 130.927Q610.892 129.786 606.304 128.757Q601.716 127.728 597.104 126.811Q592.493 125.894 587.86 125.09Q583.228 124.286 578.577 123.595Q573.926 122.905 569.26 122.328Q564.593 121.751 559.914 121.288Q555.235 120.826 550.546 120.477Q545.857 120.129 541.161 119.896Q536.465 119.662 531.765 119.543Q527.065 119.424 522.363 119.42Q517.661 119.416 512.961 119.527Q508.26 119.637 503.564 119.863Q498.867 120.088 494.178 120.428Q489.488 120.769 484.808 121.223Q480.129 121.678 475.461 122.246Q470.794 122.815 466.142 123.498Q461.49 124.18 456.856 124.976Q452.222 125.772 447.609 126.681Q442.996 127.59 438.406 128.611Q433.816 129.632 429.253 130.765Q424.69 131.898 420.156 133.142Q415.621 134.386 411.119 135.741Q406.616 137.095 402.148 138.559Q397.68 140.023 393.249 141.596Q388.66 143.228 384.113 144.973Q379.565 146.719 375.063 148.577Q370.561 150.436 366.107 152.406Q361.652 154.376 357.248 156.457Q352.844 158.537 348.493 160.727Q344.143 162.917 339.848 165.214Q335.553 167.512 331.317 169.916Q327.081 172.32 322.906 174.828Q318.731 177.337 314.62 179.949Q310.509 182.561 306.464 185.275Q302.419 187.988 298.444 190.802Q294.468 193.616 290.564 196.528Q286.659 199.44 282.829 202.448Q278.998 205.457 275.244 208.56Q271.489 211.662 267.813 214.858Q264.138 218.054 260.542 221.34Q256.947 224.626 253.435 228.001Q249.923 231.376 246.497 234.837Q243.07 238.298 239.73 241.844Q236.391 245.39 233.141 249.018Q229.891 252.646 226.733 256.353Q223.574 260.061 220.509 263.846Q217.444 267.632 214.474 271.492Q211.504 275.353 208.632 279.286Q205.759 283.22 202.985 287.224Q200.212 291.227 197.539 295.299Q194.866 299.371 192.295 303.508Q189.724 307.645 187.258 311.845Q184.791 316.045 182.43 320.305Q180.069 324.565 177.814 328.883Q175.56 333.2 173.414 337.573Q171.268 341.945 169.232 346.37Q167.153 350.88 165.186 355.439Q163.219 359.999 161.365 364.605Q159.511 369.212 157.77 373.863Q156.03 378.513 154.404 383.205Q152.779 387.898 151.269 392.628Q149.76 397.359 148.367 402.125Q146.974 406.892 145.699 411.691Q144.423 416.49 143.267 421.319Q142.11 426.148 141.072 431.004Q140.034 435.86 139.116 440.741Q138.198 445.621 137.401 450.522Q136.603 455.423 135.926 460.343Q135.249 465.262 134.693 470.196Q134.138 475.131 133.703 480.078Q133.269 485.024 132.957 489.98Q132.644 494.936 132.454 499.898Q132.263 504.86 132.195 509.826Q132.126 514.791 132.18 519.756Q132.234 524.722 132.41 529.684Q132.585 534.647 132.883 539.604Q133.181 544.56 133.601 549.508Q134.02 554.456 134.562 559.393Q135.103 564.329 135.765 569.25Q136.427 574.171 137.211 579.075Q137.994 583.979 138.897 588.861Q139.801 593.744 140.824 598.603Q141.848 603.462 142.99 608.295Q144.133 613.127 145.394 617.93Q146.655 622.733 148.034 627.504Q149.413 632.274 150.908 637.009Q152.404 641.744 154.016 646.441Q155.627 651.138 157.354 655.794Q160.633 664.664 164.334 673.368Q168.034 682.071 172.147 690.587Q176.26 699.103 180.776 707.412Q185.292 715.721 190.201 723.805C133.558 732.379 100.1 724.775 46.8095 705.438C31.1832 699.768 15.3315 694.295 0 687.86L0 0Z"/>
	<path fill="#FCFCFA" d="M138.06 689.161C138.57 689.34 138.831 689.413 139.337 689.688C140.565 690.355 140.923 690.957 141.377 692.226C141.16 693.81 140.415 694.597 139.433 695.777C138.828 695.595 138.413 695.493 137.824 695.206C136.659 694.641 136.294 693.933 135.889 692.779C136.15 691.047 136.899 690.357 138.06 689.161Z"/>
	<path fill="#FCFCFA" d="M874.92 274.306C875.87 274.306 877.116 274.294 877.988 274.705C879.241 275.296 879.42 276.009 879.872 277.194C879.739 278.847 879.309 279.601 878.353 280.939C877.447 281.029 876.272 281.072 875.425 280.701C874.408 280.257 873.689 279.392 873.521 278.29C873.283 276.725 874.091 275.531 874.92 274.306Z"/>
	<path fill="#FCFCFA" d="M969.942 463.269C970.813 463.318 971.902 463.309 972.727 463.631C973.744 464.028 974.58 464.927 974.805 466.005C975.113 467.485 974.193 468.838 973.479 470.044C972.469 470.084 971.217 470.129 970.293 469.645C969.217 469.081 968.584 468.253 968.423 467.049C968.226 465.574 969.15 464.397 969.942 463.269Z"/>
	<path fill="#FCFCFA" d="M950.547 595.296C951.333 595.428 952.545 595.582 953.226 596.056C954.446 596.906 954.578 597.369 954.937 598.715C954.663 600.458 954.042 601.162 952.861 602.44C951.887 602.402 950.702 602.225 949.859 601.709C948.877 601.107 948.383 600.188 948.365 599.05C948.339 597.511 949.587 596.345 950.547 595.296Z"/>
	<path fill="#FCFCFA" d="M780.515 80.191C781.666 80.4312 782.876 80.7041 783.717 81.61C784.543 82.4998 784.776 83.5356 784.579 84.7162C784.333 86.1967 783.106 87.0878 782.02 87.9632C781.296 87.67 780.441 87.3724 779.806 86.9152C778.903 86.2651 778.236 85.1576 778.266 84.0282C778.309 82.4096 779.478 81.2863 780.515 80.191Z"/>
	<path fill="#FCFCFA" d="M972.999 209.83C974.155 209.937 975.479 210.064 976.416 210.843C977.284 211.565 977.809 212.564 977.739 213.701C977.636 215.382 976.571 216.377 975.433 217.469C974.38 217.417 973.194 217.288 972.305 216.651C971.327 215.949 970.831 214.989 970.842 213.79C970.857 212.137 971.972 210.986 972.999 209.83Z"/>
	<path fill="#FCFCFA" d="M590.045 82.2771C591.139 82.5164 592.375 82.8679 593.219 83.654C594.08 84.4562 594.4 85.4843 594.198 86.6332C593.919 88.2242 592.549 89.2548 591.396 90.2336C590.259 89.9282 589.031 89.436 588.214 88.5377C587.398 87.6391 587.065 86.5546 587.293 85.3511C587.571 83.8808 588.916 83.0675 590.045 82.2771Z"/>
	<path fill="#FCFCFA" d="M100.953 79.2509C102.136 79.383 103.408 79.5219 104.351 80.3434C105.314 81.1821 105.79 82.1652 105.673 83.4501C105.527 85.0627 104.218 86.0237 103.071 86.9638C101.951 86.7566 100.774 86.4992 99.8719 85.7447C99.0166 85.0293 98.5447 84.1684 98.5678 83.0443C98.6009 81.4289 99.9052 80.3127 100.953 79.2509Z"/>
	<path fill="#FCFCFA" d="M48.0752 658.335C49.2458 658.35 50.4859 658.405 51.5196 659.041C52.4867 659.635 53.0987 660.493 53.2169 661.632C53.3796 663.199 52.3775 664.42 51.5102 665.593C50.1551 665.721 48.9159 665.837 47.7029 665.022C46.7036 664.35 46.29 663.455 46.2121 662.276C46.1083 660.704 47.1831 659.498 48.0752 658.335Z"/>
	<path fill="#FCFCFA" d="M302.938 161.849C304.29 161.877 305.649 161.885 306.776 162.784C307.705 163.525 308.155 164.511 308.058 165.697C307.931 167.261 306.716 168.253 305.634 169.213C304.287 169.153 302.93 169.14 301.81 168.245C300.933 167.545 300.528 166.679 300.585 165.557C300.667 163.985 301.91 162.89 302.938 161.849Z"/>
	<path fill="#FCFCFA" d="M450.554 54.3167C451.811 54.5293 453.171 54.8066 454.121 55.749C455.012 56.6335 455.296 57.7393 455.134 58.9574C454.928 60.4964 453.749 61.5204 452.695 62.5276C451.49 62.3115 450.125 61.9987 449.182 61.143C448.264 60.3109 447.847 59.2986 447.96 58.0539C448.105 56.4457 449.462 55.3488 450.554 54.3167Z"/>
	<path fill="#FCFCFA" d="M272.109 44.2866C273.67 44.2419 275.401 44.2622 276.588 45.458C277.404 46.2799 277.67 47.3242 277.539 48.4578C277.367 49.9416 276.269 50.9119 275.25 51.8657C273.87 51.8733 272.671 51.8436 271.515 50.9205C270.579 50.1728 270.232 49.1968 270.207 48.0253C270.174 46.5086 271.215 45.3848 272.109 44.2866Z"/>
	<path fill="#FCFCFA" d="M112.915 617.913C114.815 617.903 116.686 617.993 118.005 619.555C118.83 620.532 118.963 621.524 118.795 622.752C118.59 624.242 117.278 625.374 116.195 626.266C114.91 626.382 113.52 626.269 112.407 625.558C111.385 624.905 110.738 623.904 110.636 622.686C110.461 620.583 111.595 619.345 112.915 617.913Z"/>
	<path fill="#FCFCFA" d="M36.045 295.489C36.579 295.542 36.9136 295.561 37.4142 295.654Q37.7095 295.709 37.9975 295.795Q38.2855 295.881 38.5631 295.995Q38.8408 296.11 39.1052 296.253Q39.3697 296.395 39.618 296.564Q39.8663 296.733 40.096 296.927Q40.3256 297.121 40.5342 297.337Q40.7427 297.553 40.9279 297.79Q41.113 298.027 41.2729 298.281C42.2388 299.836 42.2738 301.499 41.6974 303.219C41.0074 305.278 39.3467 306.092 37.5266 306.952C37.2669 306.922 37.0066 306.897 36.7475 306.863C35.0285 306.632 33.2224 305.834 32.2683 304.305C31.2849 302.73 31.2 301.289 31.7491 299.537C32.422 297.391 34.2079 296.484 36.045 295.489Z"/>
	<path fill="#FCFCFA" d="M61.8098 499.097C63.5718 499.117 65.3228 499.287 66.9505 500.021C69.4017 501.125 71.3595 503.101 72.32 505.622Q72.5167 506.148 72.6588 506.691Q72.8009 507.234 72.887 507.789Q72.9731 508.344 73.0021 508.904Q73.0312 509.465 73.0031 510.026Q72.9749 510.586 72.8898 511.141Q72.8046 511.696 72.6634 512.24Q72.5222 512.783 72.3264 513.309Q72.1305 513.836 71.8821 514.339C70.2058 517.812 67.5971 519.439 64.049 520.633C61.7079 520.543 59.6935 520.405 57.6092 519.246Q57.1177 518.979 56.6561 518.662Q56.1946 518.346 55.7678 517.984Q55.341 517.622 54.9535 517.219Q54.566 516.815 54.2218 516.374Q53.8776 515.933 53.5804 515.459Q53.2831 514.985 53.0359 514.483Q52.7887 513.981 52.5942 513.456Q52.3996 512.932 52.2598 512.39Q52.1324 511.899 52.0544 511.399Q51.9763 510.898 51.9484 510.392Q51.9206 509.886 51.9431 509.379Q51.9656 508.873 52.0384 508.371Q52.1111 507.87 52.2333 507.378Q52.3555 506.886 52.5259 506.409Q52.6964 505.931 52.9135 505.473Q53.1305 505.015 53.392 504.581C55.3322 501.345 58.2742 499.96 61.8098 499.097Z"/>
	<path fill="#FCFCFA" d="M82.6206 360.052C84.7513 359.919 86.8648 359.901 88.8756 360.725Q89.359 360.922 89.8207 361.166Q90.2823 361.41 90.7178 361.698Q91.1533 361.986 91.5584 362.316Q91.9634 362.645 92.3342 363.013Q92.7049 363.38 93.0378 363.783Q93.3706 364.185 93.6623 364.618Q93.9541 365.051 94.2018 365.511Q94.4496 365.97 94.651 366.452Q94.8519 366.937 95.0043 367.439Q95.1566 367.941 95.2589 368.456Q95.3612 368.971 95.4125 369.493Q95.4637 370.016 95.4635 370.54Q95.4632 371.065 95.4114 371.588Q95.3596 372.11 95.2567 372.625Q95.1539 373.139 95.001 373.641Q94.8481 374.143 94.6467 374.628C93.0885 378.38 90.4076 379.822 86.8551 381.328C85.085 381.481 83.506 381.366 81.7926 380.844C78.8761 379.956 76.4333 377.924 75.1672 375.135Q74.9397 374.627 74.7657 374.097Q74.5917 373.568 74.4731 373.024Q74.3545 372.48 74.2924 371.926Q74.2304 371.373 74.2257 370.816Q74.221 370.259 74.2736 369.704Q74.3262 369.15 74.4356 368.603Q74.545 368.057 74.71 367.525Q74.8749 366.993 75.0938 366.481C76.5956 362.957 79.1718 361.356 82.6206 360.052Z"/>
	<path fill="#FCFCFA" d="M858.586 147.566C860.721 147.384 862.779 147.19 864.838 147.918Q865.372 148.109 865.884 148.352Q866.396 148.596 866.881 148.89Q867.366 149.184 867.818 149.525Q868.271 149.866 868.687 150.251Q869.103 150.637 869.478 151.062Q869.853 151.487 870.183 151.948Q870.514 152.409 870.796 152.9Q871.078 153.392 871.309 153.91Q871.52 154.383 871.682 154.874Q871.845 155.366 871.957 155.871Q872.069 156.377 872.13 156.891Q872.192 157.405 872.201 157.923Q872.21 158.44 872.168 158.956Q872.125 159.472 872.031 159.981Q871.937 160.491 871.793 160.988Q871.649 161.485 871.455 161.965C870.046 165.425 867.391 167.124 864.123 168.622C862.365 168.961 860.743 169.077 858.975 168.698C856.276 168.12 853.834 166.598 852.368 164.23Q852.073 163.752 851.83 163.246Q851.587 162.74 851.398 162.211Q851.208 161.683 851.075 161.137Q850.942 160.592 850.866 160.035Q850.791 159.479 850.773 158.918Q850.756 158.357 850.797 157.797Q850.838 157.237 850.937 156.684Q851.037 156.131 851.193 155.592C852.36 151.523 854.98 149.474 858.586 147.566Z"/>
	<path fill="#FCFCFA" d="M68.7271 31.0735C71.061 30.899 73.3432 31.0564 75.5071 32.0101Q76.0248 32.2388 76.5163 32.5193Q77.0078 32.7999 77.468 33.1292Q77.9282 33.4586 78.3522 33.8334Q78.7762 34.2082 79.1597 34.6245Q79.5431 35.0407 79.8819 35.494Q80.2207 35.9474 80.5112 36.433Q80.8018 36.9186 81.0411 37.4315Q81.2804 37.9443 81.4659 38.479Q81.6524 39.0172 81.7843 39.5714Q81.9162 40.1255 81.9923 40.69Q82.0684 41.2545 82.0879 41.8238Q82.1074 42.393 82.0701 42.9614Q82.0328 43.5298 81.939 44.0917Q81.8453 44.6535 81.696 45.2032Q81.5468 45.7529 81.3435 46.2851Q81.1403 46.8172 80.885 47.3264C79.1748 50.745 76.5633 52.3326 73.0609 53.5417C71.2044 53.5516 69.2021 53.7154 67.4106 53.1559C64.2598 52.172 61.4985 49.7298 60.1631 46.7151Q59.9315 46.1956 59.7557 45.6546Q59.5799 45.1136 59.4619 44.5572Q59.3438 44.0007 59.2849 43.435Q59.226 42.8692 59.2267 42.3004Q59.2275 41.7316 59.288 41.166Q59.3485 40.6004 59.4681 40.0443Q59.5876 39.4882 59.7649 38.9477Q59.9422 38.4072 60.1752 37.8883C61.8937 34.1188 64.9705 32.3611 68.7271 31.0735Z"/>
	<path fill="#EEEEDA" d="M938.172 41.8676C938.727 48.4001 938.723 56.5432 942.859 61.9439C947.433 67.9155 955.335 68.4536 962.201 69.4524C955.959 70.016 949.363 70.5628 944.493 75.002C938.846 80.1493 938.505 87.5141 938.253 94.6024L937.694 96.502C937.667 96.2114 937.644 95.9205 937.614 95.6301C936.914 88.82 936.94 81.2403 932.309 75.6893C927.98 70.5011 921.591 70.0404 915.351 69.5722C920.441 68.9444 926.096 68.271 930.459 65.3239C937.78 60.378 936.277 50.3356 937.942 42.8518C938.015 42.5229 938.095 42.1957 938.172 41.8676Z"/>
	<path fill="#FCFCFA" d="M720.655 68.1038C722.367 68.01 724.3 68.062 725.957 68.5391C729.092 69.4411 731.796 71.8947 733.178 74.8222C734.577 77.7844 734.77 81.2835 733.533 84.3334C731.962 88.2092 729.144 89.9665 725.424 91.4783C722.774 91.6338 720.361 91.6697 717.923 90.4633Q717.384 90.1968 716.874 89.8776Q716.364 89.5584 715.889 89.1897Q715.414 88.8211 714.978 88.4067Q714.542 87.9923 714.15 87.5364Q713.758 87.0804 713.414 86.5875Q713.069 86.0946 712.776 85.5696Q712.482 85.0446 712.243 84.4929Q712.004 83.9412 711.821 83.3683C710.823 80.252 711.075 76.6989 712.704 73.8371C714.51 70.6643 717.254 69.1122 720.655 68.1038Z"/>
	<path fill="#EEEEDA" d="M167.6 254.53C161.149 256.737 154.689 258.366 147.879 258.964Q146.13 259.109 144.375 259.168Q142.621 259.227 140.865 259.201Q139.11 259.174 137.358 259.062Q135.607 258.95 133.862 258.752Q132.118 258.555 130.385 258.272Q128.653 257.989 126.936 257.622Q125.22 257.255 123.523 256.805Q121.826 256.355 120.154 255.822Q118.481 255.289 116.836 254.675Q115.192 254.062 113.579 253.368Q111.966 252.675 110.389 251.904Q108.812 251.132 107.275 250.285Q105.738 249.438 104.244 248.516Q102.75 247.594 101.302 246.601Q99.8549 245.608 98.4578 244.545Q97.0608 243.482 95.7173 242.352Q94.2708 241.114 92.8865 239.808Q91.5022 238.501 90.1834 237.128Q88.8646 235.755 87.6144 234.319Q86.3643 232.883 85.1858 231.388Q84.0073 229.893 82.9033 228.342Q81.7992 226.792 80.7723 225.189Q79.7454 223.586 78.798 221.934Q77.8506 220.283 76.9851 218.588Q76.1195 216.892 75.3378 215.156Q74.5562 213.42 73.8602 211.648Q73.1643 209.876 72.5558 208.073Q71.9473 206.269 71.4277 204.437Q70.908 202.606 70.4785 200.751Q70.049 198.897 69.7106 197.023Q69.3722 195.15 69.1258 193.262Q68.8793 191.374 68.7254 189.477C67.2177 169.547 74.5978 148.488 87.6744 133.479C99.1297 120.332 117.029 110.03 134.635 108.86C134.477 109.046 134.324 109.238 134.16 109.419C133.955 109.645 122.888 115.555 120.292 117.566C101.085 132.445 90.9619 155.374 90.9449 179.518Q90.9555 181.31 91.0547 183.099Q91.1538 184.888 91.3412 186.669Q91.5285 188.451 91.8037 190.222Q92.0789 191.992 92.4411 193.747Q92.8034 195.502 93.252 197.236Q93.7005 198.971 94.2341 200.681Q94.7678 202.392 95.3853 204.073Q96.0028 205.755 96.7026 207.405Q97.4024 209.054 98.1829 210.667Q98.9633 212.28 99.8225 213.852Q100.682 215.424 101.617 216.952Q102.553 218.48 103.563 219.96Q104.573 221.44 105.655 222.868Q106.737 224.296 107.889 225.669Q109.04 227.042 110.257 228.356Q111.475 229.67 112.756 230.923C123.021 241.15 136.339 247.074 150.292 250.385C154.78 251.449 164.247 251.637 167.6 254.53Z"/>
	<path fill="#FCFCFA" d="M134.635 108.86C152.728 106.087 171.797 111.895 186.422 122.523C202.059 133.885 212.994 152.193 216.003 171.256Q216.307 173.089 216.519 174.935Q216.731 176.781 216.851 178.635Q216.971 180.489 216.998 182.346Q217.026 184.204 216.961 186.061Q216.896 187.918 216.739 189.769Q216.582 191.62 216.334 193.461Q216.085 195.303 215.744 197.129Q215.404 198.956 214.974 200.763Q214.543 202.57 214.023 204.354Q213.503 206.138 212.896 207.894Q212.288 209.649 211.593 211.372Q210.899 213.096 210.119 214.782Q209.34 216.469 208.478 218.115Q207.615 219.76 206.672 221.361Q205.729 222.962 204.708 224.514Q203.686 226.066 202.589 227.565C193.413 240.087 181.905 248.669 167.6 254.53C164.247 251.637 154.78 251.449 150.292 250.385C136.339 247.074 123.021 241.15 112.756 230.923Q111.475 229.67 110.257 228.356Q109.04 227.042 107.889 225.669Q106.737 224.296 105.655 222.868Q104.573 221.44 103.563 219.96Q102.553 218.48 101.617 216.952Q100.682 215.424 99.8225 213.852Q98.9633 212.28 98.1829 210.667Q97.4024 209.054 96.7026 207.405Q96.0028 205.755 95.3853 204.073Q94.7678 202.392 94.2341 200.681Q93.7005 198.971 93.252 197.236Q92.8034 195.502 92.4411 193.747Q92.0789 191.992 91.8037 190.222Q91.5285 188.451 91.3412 186.669Q91.1538 184.888 91.0547 183.099Q90.9555 181.31 90.9449 179.518C90.9619 155.374 101.085 132.445 120.292 117.566C122.888 115.555 133.955 109.645 134.16 109.419C134.324 109.238 134.477 109.046 134.635 108.86Z"/>
	<path fill="#EEEEDA" d="M148.26 125.201C155.414 124.624 163.501 126.308 170.133 128.941C180.678 133.129 190.213 141.5 194.735 152.033C196.799 156.841 198.197 163.383 195.968 168.345C195.27 169.897 194.11 171.152 192.464 171.696C189.653 172.624 187.256 170.989 184.895 169.686C175.898 163.215 173.16 155.898 168.625 146.311C160.298 128.709 147.727 140.159 136.335 135.675C134.552 134.974 133.579 133.923 132.817 132.158C132.894 131.355 132.804 130.908 133.316 130.233C136.234 126.392 143.719 125.571 148.26 125.201Z"/>
	<path fill="#010812" d="M672.528 355.196C674.967 346.751 679.159 338.493 686.832 333.696C691.377 330.854 696.461 328.693 701.276 326.34L727.461 313.485Q742.602 305.82 757.819 298.309C762.458 296.013 767.28 293.173 772.168 291.471C774.452 290.676 776.989 290.893 779.297 291.491C795.084 295.579 811.834 319.675 819.597 333.055C831.503 353.576 844.559 385.338 843.555 409.153C843.351 413.971 842.118 417.983 840.891 422.578L839.32 425.167C837.362 427.491 835.278 429.114 832.635 430.576C822.244 436.322 810.451 440.656 799.622 445.598C784.924 452.308 770.116 460.039 755.018 465.728C752.334 466.739 749.6 467.411 746.735 467.628C741.805 468.001 736.845 467.279 732.465 464.907C691.827 477.6 651.471 492.084 611.332 506.302C594.425 512.29 577.422 519.603 560.196 524.521C560.134 530.249 561.281 553.769 558.503 557.272C557.374 558.695 555.168 558.849 553.501 558.851C551.965 558.854 550.412 558.725 548.879 558.629L548.962 570.52C554.11 570.486 564.583 569.178 568.472 572.698C570.231 574.29 570.587 576.669 570.587 578.923C570.589 584.989 570.577 591.313 570.157 597.361C567.85 597.684 565.519 597.953 563.235 598.413C575.287 622.709 587.122 647.183 599.587 671.266C606.557 685.246 613.665 699.183 620.398 713.279C626.328 725.694 631.885 738.32 638.096 750.597C640.142 749.957 641.127 750.039 643.094 751.003C652.161 751.056 661.765 752.945 670.767 754.106Q700.514 757.956 730.049 763.193C740.355 765.045 750.596 767.466 760.924 769.145C776.795 772.638 792.737 776.133 808.424 780.383C835.384 751.77 856.009 721.709 874.627 687.073C899.42 676.369 923.237 664.18 947.319 652.001C971.994 639.522 997.097 626.199 1024 619.271L1024 865.334L1024 1024L1023 1024L0 1024L0 1023.54L0 864.914L0 687.86C15.3315 694.295 31.1832 699.768 46.8095 705.438C100.1 724.775 133.558 732.379 190.201 723.805C196.85 733.582 202.619 743.894 209.476 753.562C215.869 762.574 223.02 770.541 229.877 779.125C285.234 765.887 336.472 757.185 392.965 750.436C392.908 748.68 392.43 746.929 392.153 745.193C389.921 731.19 395.5 716.177 403.762 704.994C415.89 688.577 434.504 678.785 454.524 675.884C461.855 660.521 469.851 645.266 477.831 630.231C483.548 619.459 489.524 608.82 494.382 597.621C491.888 597.526 489.483 597.221 487.019 596.861C486.983 590.398 486.664 583.959 486.555 577.504C486.517 575.301 486.954 573.341 488.604 571.783C491.984 568.591 502.161 569.628 506.622 569.611L506.554 558.977Q504.971 559.049 503.387 559.064C499.977 559.084 496.171 558.183 493.754 555.61C490.652 552.308 490.81 548.111 490.917 543.91Q462.577 555.992 434.387 568.423C423.462 573.307 412.39 579.266 401.153 583.252C399.638 583.79 398.508 584.034 396.917 583.626C394.126 582.91 392.804 580.109 391.38 577.857C386.082 579.784 380.898 582.474 375.756 584.802L348.008 597.241C348.96 599.311 349.711 601.19 348.872 603.46C347.876 606.153 344.969 607.851 342.488 608.919C340.273 609.872 336.787 611.556 334.485 610.592C331.16 606.191 307.744 559.288 308.109 556.193C308.273 554.804 309.683 553.485 310.766 552.741C313.332 550.978 319.287 548.27 322.406 549.228C325.931 550.311 327.364 554.491 328.818 557.526L370.551 539.454L368.783 534.843C415.667 507.719 465.029 484.952 512.421 458.768C513.371 456.882 512.396 454.021 512.849 451.833C513.134 450.454 513.894 449.004 514.99 448.103C517.392 446.128 521.008 444.608 523.721 442.977L551.387 426.431Q591.461 402.538 631.778 379.056C645.312 371.143 659.421 363.78 672.528 355.196Z"/>
	<path fill="#2A3045" d="M519.486 878.452L520.488 878.493C521.566 887.341 520.887 901.952 520.239 911.114C519.76 900.358 518.732 889.187 519.486 878.452Z"/>
	<path fill="#EEEEDA" d="M517.198 744.754C518.029 742.678 517.839 740.396 518.853 738.206C519.658 738.993 519.72 741.104 519.913 742.265L520.557 834.322L520.416 863.413C520.379 868.291 519.929 873.652 520.488 878.493L519.486 878.452C520.502 867.917 519.456 856.281 519.158 845.674L517.495 775.722C517.329 765.513 516.326 754.934 517.198 744.754Z"/>
	<path fill="#2AC6B3" d="M320.239 555.004C323.495 556.409 340.833 594.949 344.09 601.868L337.899 604.765C334.832 602.808 316.705 563.083 314.241 557.032L320.239 555.004Z"/>
	<path fill="#2A3045" d="M0 1023.54L774.653 1023.44L963.075 1023.57L1005.02 1023.67C1010.14 1023.69 1018.3 1022.84 1023 1024L0 1024L0 1023.54Z"/>
	<path fill="#EEEEDA" d="M638.096 750.597C640.142 749.957 641.127 750.039 643.094 751.003C653.265 770.614 662.144 791.007 671.492 811.025C681.037 831.464 691.11 851.718 700.305 872.313L718.008 912.332C720.013 916.776 721.736 922.023 724.091 926.232C724.24 926.498 724.417 926.747 724.581 927.005L723.891 927.164L724.35 927.585C721.346 922.294 718.866 916.561 716.243 911.064C710.072 898.129 704.223 885.043 697.954 872.154L638.096 750.597Z"/>
	<path fill="#EEEEDA" d="M416.148 748.153L419.699 749.503C392.468 807.983 362.354 865.015 333.471 922.683L333.56 922.687L333.229 922.247C334.917 916.397 338.442 910.284 341.051 904.741L357.147 870.721L390.303 801.663Q402.931 774.766 416.148 748.153Z"/>
	<defs>
		<linearGradient id="gradient_0" gradientUnits="userSpaceOnUse" x1="640.78412" y1="812.33026" x2="660.21588" y2="805.16974">
			<stop offset="0" stop-color="#FFFFE2"/>
			<stop offset="1" stop-color="#FFFFF9"/>
		</linearGradient>
	</defs>
	<path fill="url(#gradient_0)" d="M616.012 748.581L619.907 746.745L685.646 869.505L705.921 907.31C710.694 916.118 715.917 925.003 719.924 934.178L719.743 934.542C710.976 920.072 703.04 905.022 694.666 890.319Q654.911 819.687 616.012 748.581Z"/>
	<path fill="#2AC6B3" d="M839.32 425.167C836.955 426.236 835.2 426.616 832.631 426.079C818.693 423.168 800.103 399.815 792.055 387.854C778.656 367.94 761.547 330.042 766.377 306.01C767.018 302.821 767.925 298.981 770.928 297.155C771.904 296.563 771.952 296.482 773.094 296.755C773.492 300.015 771.399 305.132 770.909 308.56C767.147 334.883 786.469 372.939 801.967 393.274C809.461 403.107 820.14 416.276 831.97 420.906C834.718 421.982 837.982 422.189 840.891 422.578L839.32 425.167Z"/>
	<path fill="#EEEEDA" d="M442.944 736.689L445.026 736.771C445.677 737.856 445.648 738.469 445.316 739.704C444.677 742.078 443.414 744.108 443.112 746.595C440.371 754.31 435.21 761.832 431.195 768.967L409.207 808.327Q385.341 852.203 360.696 895.645L346.257 921.439C343.235 926.824 340.358 932.512 336.78 937.546C336.444 936.394 345.038 920.722 346.296 918.275Q376.899 858.278 409.21 799.183C420.43 778.395 432.502 757.868 442.944 736.689Z"/>
	<path fill="#FCFCFA" d="M534.976 721.789C536.35 719.187 534.559 716.068 536.275 713.435L536.76 713.607C537.479 717.918 536.723 722.371 537.944 726.57C537.539 734.711 538.31 742.652 538.545 750.766C538.703 756.177 538.492 761.593 538.636 767.008C538.45 804.224 536.867 841.558 535.842 878.767Q535.009 907.774 533.455 936.752C532.897 947.451 532.724 958.385 531.181 968.993C530.146 952.142 530.847 934.923 530.993 918.044Q531.167 876.055 532.251 834.08L534.047 757.046C534.343 745.31 534.248 733.505 534.976 721.789Z"/>
	<path fill="#2AC6B3" d="M372.858 544.091C375.18 546.557 385.637 568.526 388.586 573.662Q367.457 582.683 346.694 592.516C346.59 592.509 346.477 592.54 346.382 592.497C344.293 591.554 332.944 565.949 331.337 562.502Q352.249 553.638 372.858 544.091Z"/>
	<path fill="#FDFCB0" d="M477.577 672.983C485.689 657.483 494.119 642.149 501.965 626.512C505.712 619.043 511.305 605.409 515.512 599.295L516.396 599.205C517.839 600.511 517.725 602.652 517.821 604.542C518.435 616.641 518.164 628.911 518.276 641.034C518.382 652.636 518.862 664.315 518.613 675.905C518.496 677.444 518.591 679.063 517.538 680.231C508.608 679.807 499.073 675.854 489.763 675.176C486.277 674.922 480.384 675.157 477.577 672.983Z"/>
	<path fill="#FFE652" d="M392.965 750.436C392.908 748.68 392.43 746.929 392.153 745.193C389.921 731.19 395.5 716.177 403.762 704.994C415.89 688.577 434.504 678.785 454.524 675.884Q442.101 701.308 430.119 726.943C426.626 734.41 423.436 742.173 419.699 749.503L416.148 748.153Q404.538 749.111 392.965 750.436Z"/>
	<path fill="#FDFCB0" d="M535.735 683.016L537.382 625.017C537.595 617.537 536.446 606.624 538.545 599.701C539.471 598.877 539.486 598.885 540.726 598.816C542.031 599.578 542.613 600.469 543.395 601.749C549.438 611.635 554.022 622.585 559.274 632.912C567.789 649.655 576.731 666.167 585.192 682.945C574.123 690.451 553.644 688.082 541.387 685.742Q539.925 685.463 538.474 685.128C538.336 685.113 538.193 685.118 538.059 685.082C536.454 684.66 536.47 684.428 535.735 683.016Z"/>
	<path fill="#FFE652" d="M534.976 721.789C533.876 713.877 535.487 692.101 535.735 683.016C536.47 684.428 536.454 684.66 538.059 685.082C538.193 685.118 538.336 685.113 538.474 685.128Q539.925 685.463 541.387 685.742C553.644 688.082 574.123 690.451 585.192 682.945L604.317 718.297C609.537 727.771 615.122 737.038 619.907 746.745L616.012 748.581C607.094 748.35 598.192 747.279 589.289 746.704C572.598 745.627 555.694 744.957 538.963 745.011C538.933 752.321 539.112 759.715 538.636 767.008C538.492 761.593 538.703 756.177 538.545 750.766C538.31 742.652 537.539 734.711 537.944 726.57C536.723 722.371 537.479 717.918 536.76 713.607L536.275 713.435C534.559 716.068 536.35 719.187 534.976 721.789Z"/>
	<path fill="#FFE652" d="M477.577 672.983C480.384 675.157 486.277 674.922 489.763 675.176C499.073 675.854 508.608 679.807 517.538 680.231C518.591 679.063 518.496 677.444 518.613 675.905C519.289 685.937 519.098 696.096 519.304 706.152C519.549 718.151 520.155 730.269 519.913 742.265C519.72 741.104 519.658 738.993 518.853 738.206C517.839 740.396 518.029 742.678 517.198 744.754C492.769 743.715 467.486 744.617 443.112 746.595C443.414 744.108 444.677 742.078 445.316 739.704C445.648 738.469 445.677 737.856 445.026 736.771L442.944 736.689C447.367 727.284 452.749 718.253 457.719 709.128C464.288 697.069 470.636 684.828 477.577 672.983Z"/>
	<path fill="#2AC6B3" d="M515.548 463.475C517.864 464.955 536.844 508.47 540.001 515.19C531.013 519.789 521.529 523.497 512.378 527.765C505.211 531.108 498.187 534.77 490.988 538.038C461.05 551.633 430.619 564.187 400.624 577.688C400.123 577.809 399.61 578.054 399.1 577.876C394.078 576.123 378.614 542.77 376.265 537.01C391.57 527.511 408.83 519.182 424.856 510.754L515.548 463.475Z"/>
	<path fill="#2AC6B3" d="M671.451 362.488C672.716 364.384 672.027 370.733 672.264 373.375C675.057 404.462 702.047 441.554 725.626 461.113C710.305 466.688 694.588 471.466 679.161 476.782Q623.312 495.911 567.86 516.16C561.872 518.33 555.946 520.831 549.768 522.408C539.549 499.256 529.299 475.795 517.904 453.208C530.117 444.145 544.488 437.202 557.508 429.317Q614.146 395.333 671.451 362.488Z"/>
	<path fill="#FFE652" d="M0 687.86C15.3315 694.295 31.1832 699.768 46.8095 705.438C100.1 724.775 133.558 732.379 190.201 723.805C196.85 733.582 202.619 743.894 209.476 753.562C215.869 762.574 223.02 770.541 229.877 779.125C211.161 783.343 192.552 788.793 174.202 794.376Q151.681 801.189 129.493 809.019Q107.304 816.849 85.4953 825.68Q63.6862 834.51 42.3013 844.324Q20.9164 854.138 0 864.914L0 687.86Z"/>
	<path fill="#FFE652" d="M1024 619.271L1024 865.334C1011.78 856.626 997.062 850.393 983.532 844.041Q951.148 828.662 917.727 815.689Q884.306 802.717 850.027 792.222C836.315 787.999 822.423 783.497 808.424 780.383C835.384 751.77 856.009 721.709 874.627 687.073C899.42 676.369 923.237 664.18 947.319 652.001C971.994 639.522 997.097 626.199 1024 619.271Z"/>
</svg>
