<?xml version="1.0" encoding="utf-8" ?>
<svg xmlns="http://www.w3.org/2000/svg" xmlns:xlink="http://www.w3.org/1999/xlink" width="1024" height="1024">
	<path fill="#F3D44C" d="M0 0L112.34 0L564.608 0L1024 0L1024 52.7572L1024 138.601L1024 856.391L1024 1024L0 1024L0 856.353L0 455.395L0 0Z"/>
	<path fill="#F9F3D9" d="M785.084 273.959C786.779 274.063 788.548 274.265 789.763 275.602C790.578 276.499 790.915 277.487 790.754 278.703C790.531 280.398 789.386 281.342 788.198 282.438C786.726 282.62 785.409 282.598 784.153 281.686C783.07 280.899 782.532 279.861 782.497 278.525C782.439 276.329 783.576 275.281 785.084 273.959Z"/>
	<path fill="#F9F3D9" d="M768.475 243.961C770.495 243.972 772.268 244.118 773.809 245.587C774.704 246.44 775.185 247.583 775.094 248.823C774.942 250.892 773.539 251.957 772.087 253.196C770.367 253.41 769.138 253.362 767.734 252.13C766.656 251.184 766.221 250.061 766.169 248.66C766.089 246.474 767.033 245.419 768.475 243.961Z"/>
	<path fill="#F9F3D9" d="M634.457 820.43C636.661 820.902 638.716 821.483 640.054 823.445C640.823 824.573 640.973 825.622 640.76 826.947C640.401 829.177 638.624 830.383 636.859 831.497C636.291 831.509 635.566 831.565 634.999 831.439C633.439 831.09 631.975 830.224 631.103 828.854C630.269 827.543 630.125 825.975 630.555 824.501C631.174 822.381 632.669 821.485 634.457 820.43Z"/>
	<path fill="#F9F3D9" d="M808.407 238.053C809.349 238.005 810.335 237.933 811.274 238.031C812.774 238.189 814.188 239.224 814.997 240.459C815.803 241.689 816.066 243.054 815.765 244.494C815.26 246.909 813.837 248.108 811.814 249.33C811.391 249.343 810.967 249.365 810.545 249.345C808.715 249.257 806.777 248.544 805.612 247.074C804.602 245.8 804.415 244.344 804.669 242.78C805.027 240.57 806.711 239.276 808.407 238.053Z"/>
	<path fill="#CBAB1A" d="M472.163 255.487C473.378 255.447 474.649 255.468 475.799 255.915Q476.083 256.028 476.354 256.168Q476.625 256.308 476.881 256.474Q477.138 256.64 477.377 256.829Q477.616 257.019 477.835 257.231Q478.055 257.443 478.253 257.675Q478.451 257.908 478.626 258.158Q478.8 258.408 478.95 258.675Q479.099 258.941 479.222 259.22C479.851 260.666 479.836 262.277 479.247 263.726C478.392 265.827 476.973 266.552 475.03 267.467C472.679 267.265 470.159 266.705 468.674 264.659C467.742 263.373 467.424 262.045 467.73 260.478C468.254 257.793 470.011 256.874 472.163 255.487Z"/>
	<path fill="#F9F3D9" d="M250.823 216.073C251.918 216.013 253.018 215.944 254.11 216.095C256.035 216.359 257.884 217.441 259.03 219.019C259.97 220.313 260.296 221.862 259.921 223.433C259.342 225.854 257.644 227.097 255.664 228.393C254.546 228.529 253.416 228.623 252.292 228.483C250.695 228.284 249.247 227.155 248.307 225.882C247.159 224.327 246.793 222.51 247.213 220.631C247.716 218.381 248.952 217.277 250.823 216.073Z"/>
	<path fill="#CBAB1A" d="M221.994 870.072C222.988 870.231 224.026 870.376 224.987 870.681C226.728 871.233 228.343 872.86 229.097 874.494Q229.24 874.81 229.349 875.138Q229.459 875.466 229.535 875.804Q229.611 876.142 229.653 876.485Q229.694 876.829 229.701 877.175Q229.707 877.521 229.678 877.867Q229.649 878.212 229.586 878.552Q229.522 878.892 229.425 879.224Q229.327 879.557 229.196 879.877C228.087 882.624 226.146 883.671 223.54 884.78C222.103 884.69 220.579 884.617 219.286 883.919Q218.954 883.741 218.642 883.53Q218.33 883.32 218.04 883.079Q217.751 882.839 217.486 882.571Q217.222 882.303 216.986 882.01Q216.749 881.717 216.543 881.402Q216.337 881.086 216.164 880.752Q215.99 880.418 215.851 880.069Q215.711 879.719 215.607 879.357Q215.512 879.012 215.452 878.659Q215.393 878.306 215.37 877.949Q215.348 877.592 215.362 877.234Q215.377 876.877 215.428 876.523Q215.479 876.169 215.566 875.822Q215.654 875.475 215.777 875.138Q215.899 874.802 216.056 874.481Q216.213 874.159 216.402 873.855C217.665 871.794 219.743 870.712 221.994 870.072Z"/>
	<path fill="#F9F3D9" d="M501.006 274.571C502.296 274.457 503.641 274.311 504.929 274.53C507.153 274.908 509.331 276.501 510.5 278.409C511.55 280.121 511.814 282.091 511.299 284.03C510.575 286.757 508.57 288.408 506.23 289.76C505.168 289.889 504.199 289.916 503.13 289.808C500.809 289.573 498.787 288.666 497.344 286.768C495.969 284.96 495.594 282.734 496.072 280.535C496.714 277.582 498.546 276.089 501.006 274.571Z"/>
	<path fill="#CBAB1A" d="M458.419 213.073C460.925 212.937 463.328 213.285 465.606 214.394Q466.133 214.648 466.63 214.954Q467.128 215.26 467.591 215.616Q468.055 215.972 468.479 216.374Q468.904 216.775 469.285 217.219Q469.665 217.662 469.999 218.142Q470.332 218.622 470.614 219.133Q470.896 219.645 471.124 220.183Q471.352 220.721 471.524 221.28Q471.696 221.824 471.813 222.382Q471.931 222.94 471.992 223.507Q472.054 224.073 472.06 224.644Q472.065 225.214 472.015 225.782Q471.964 226.35 471.858 226.91Q471.752 227.47 471.591 228.017Q471.43 228.564 471.215 229.093Q471.001 229.621 470.736 230.126C468.707 233.9 465.613 235.217 461.698 236.409C459.14 236.431 456.976 236.167 454.668 234.989Q454.112 234.71 453.589 234.373Q453.066 234.036 452.582 233.645Q452.098 233.255 451.658 232.815Q451.218 232.375 450.827 231.891Q450.436 231.407 450.098 230.884Q449.761 230.362 449.481 229.806Q449.201 229.25 448.982 228.668Q448.762 228.086 448.606 227.484Q448.455 226.907 448.363 226.318Q448.272 225.728 448.241 225.132Q448.211 224.537 448.242 223.941Q448.273 223.345 448.364 222.756Q448.456 222.167 448.608 221.59Q448.759 221.013 448.969 220.455Q449.179 219.896 449.445 219.363Q449.712 218.829 450.031 218.325C452.04 215.204 454.906 213.841 458.419 213.073Z"/>
	<path fill="#CBAB1A" d="M259.99 844.081C262.464 844.335 264.675 844.632 266.88 845.854Q267.447 846.163 267.978 846.53Q268.509 846.896 269 847.316Q269.491 847.735 269.935 848.204Q270.379 848.672 270.773 849.183Q271.167 849.695 271.505 850.245Q271.843 850.795 272.123 851.377Q272.402 851.959 272.62 852.566Q272.837 853.174 272.991 853.801Q273.149 854.414 273.243 855.039Q273.337 855.665 273.368 856.297Q273.398 856.929 273.364 857.56Q273.329 858.192 273.231 858.817Q273.132 859.442 272.971 860.053Q272.809 860.665 272.586 861.257Q272.363 861.849 272.081 862.415Q271.799 862.981 271.461 863.516C269.074 867.237 265.869 868.54 261.721 869.523C259.02 869.617 256.745 869.243 254.401 867.825Q253.845 867.495 253.325 867.11Q252.805 866.725 252.326 866.289Q251.848 865.853 251.417 865.371Q250.985 864.889 250.605 864.366Q250.224 863.843 249.899 863.283Q249.574 862.724 249.307 862.135Q249.04 861.545 248.835 860.932Q248.629 860.318 248.487 859.687Q248.343 859.062 248.264 858.426Q248.185 857.79 248.172 857.15Q248.158 856.509 248.211 855.87Q248.264 855.231 248.382 854.602Q248.501 853.972 248.683 853.357Q248.866 852.743 249.111 852.151Q249.356 851.558 249.66 850.994Q249.965 850.43 250.326 849.901C252.701 846.398 255.95 844.875 259.99 844.081Z"/>
	<path fill="#F9F3D9" d="M671.202 783.54C673.743 783.467 675.916 783.608 678.275 784.639Q678.884 784.899 679.464 785.218Q680.043 785.537 680.589 785.913Q681.134 786.288 681.638 786.716Q682.143 787.144 682.603 787.62Q683.063 788.097 683.473 788.616Q683.883 789.136 684.239 789.694Q684.595 790.252 684.893 790.843Q685.192 791.434 685.43 792.051Q685.658 792.66 685.823 793.29Q685.987 793.919 686.086 794.562Q686.185 795.205 686.217 795.855Q686.25 796.505 686.215 797.155Q686.18 797.804 686.079 798.447Q685.978 799.09 685.811 799.719Q685.645 800.348 685.414 800.956Q685.184 801.564 684.892 802.146C683.113 805.709 680.142 807.736 676.47 809.001C673.991 809.09 671.696 809.127 669.343 808.22C666.039 806.947 663.25 804.509 661.838 801.227Q661.59 800.637 661.404 800.025Q661.218 799.413 661.096 798.785Q660.974 798.157 660.919 797.52Q660.863 796.882 660.873 796.242Q660.884 795.603 660.96 794.968Q661.037 794.332 661.179 793.709Q661.321 793.085 661.527 792.479Q661.733 791.873 662 791.292C663.878 787.164 667.11 785.102 671.202 783.54Z"/>
	<path fill="#CBAB1A" d="M218.367 206.03C221.516 205.911 224.183 206.009 227.071 207.401C230.194 208.907 232.72 211.477 233.839 214.794Q234.019 215.329 234.144 215.88Q234.269 216.43 234.337 216.991Q234.405 217.551 234.417 218.116Q234.428 218.68 234.382 219.243Q234.336 219.806 234.233 220.361Q234.131 220.916 233.972 221.458Q233.814 222 233.602 222.523Q233.389 223.046 233.125 223.545C231.166 227.299 227.719 229.057 223.88 230.357C220.606 230.574 217.512 230.42 214.551 228.857C210.29 226.608 208.596 222.762 207.245 218.414C207.615 216.694 208.027 214.919 208.786 213.323C210.762 209.166 214.153 207.354 218.367 206.03Z"/>
	<path fill="#F9F3D9" d="M224.413 255.596C227.665 255.676 230.732 256.103 233.579 257.789Q234.265 258.189 234.906 258.658Q235.547 259.126 236.137 259.658Q236.727 260.189 237.259 260.779Q237.791 261.368 238.26 262.009Q238.729 262.65 239.13 263.336Q239.53 264.021 239.858 264.744Q240.187 265.467 240.439 266.22Q240.691 266.973 240.865 267.748Q241.036 268.533 241.126 269.332Q241.216 270.13 241.225 270.933Q241.234 271.737 241.161 272.537Q241.089 273.337 240.936 274.126Q240.782 274.915 240.55 275.684Q240.317 276.453 240.008 277.194Q239.699 277.936 239.316 278.643Q238.933 279.349 238.481 280.013C235.97 283.712 232.426 285.466 228.161 286.34C224.85 286.395 222.033 286.003 219.115 284.334Q218.41 283.925 217.749 283.449Q217.087 282.972 216.477 282.433Q215.866 281.893 215.312 281.295Q214.758 280.697 214.266 280.048Q213.774 279.398 213.348 278.702Q212.923 278.007 212.569 277.273Q212.215 276.539 211.936 275.773Q211.656 275.008 211.454 274.218C210.424 270.337 210.85 266.123 212.993 262.687C215.651 258.423 219.69 256.639 224.413 255.596Z"/>
	<path fill="#CBAB1A" d="M238.308 785.091C242.601 784.9 246.237 785.388 250.001 787.614C254.958 790.546 258.647 795.87 259.966 801.444C261.285 807.013 260.075 812.911 256.983 817.69C253.387 823.249 248.423 825.759 242.13 826.994C237.486 827.099 233.541 826.702 229.433 824.256Q228.981 823.984 228.543 823.689Q228.106 823.394 227.684 823.077Q227.262 822.76 226.858 822.421Q226.453 822.083 226.066 821.724Q225.679 821.366 225.311 820.988Q224.943 820.61 224.594 820.213Q224.246 819.817 223.919 819.403Q223.592 818.989 223.286 818.559Q222.98 818.128 222.697 817.683Q222.414 817.238 222.154 816.779Q221.895 816.319 221.659 815.848Q221.423 815.376 221.211 814.892Q221 814.409 220.814 813.915Q220.628 813.421 220.467 812.919Q220.306 812.416 220.172 811.906Q220.037 811.396 219.929 810.879C218.733 805.262 219.948 798.902 223.155 794.135C226.751 788.79 232.125 786.179 238.308 785.091Z"/>
	<path d="M391.786 296.724C410.475 296.303 437.741 294.092 452.28 308.018C464.723 319.935 466.175 340.613 466.495 356.843C467.035 384.263 467.301 432.254 447.086 452.904C435.701 464.535 419.231 467.32 403.625 467.532C378.103 467.958 352.526 467.594 326.999 467.509Q326.982 402.737 327.845 337.974C328.076 324.77 327.792 311.533 328.342 298.339C349.441 297.304 370.661 297.34 391.786 296.724Z"/>
	<path fill="#0AB1A9" d="M374.624 459.645C377.196 456.654 381.051 454.275 384.177 451.864C389.47 447.783 394.731 443.65 399.642 439.112Q404.114 434.945 408.411 430.596Q412.707 426.248 416.819 421.725Q420.932 417.202 424.853 412.513Q428.775 407.824 432.499 402.977Q436.224 398.129 439.744 393.132Q443.264 388.134 446.575 382.996Q449.886 377.857 452.981 372.585Q456.076 367.314 458.95 361.919C457.9 386.816 457.823 429.599 438.436 447.415C423.17 461.444 394.201 459.425 374.624 459.645Z"/>
	<path fill="#51D4DC" d="M329.549 299.857L330.96 299.861C345.463 299.903 359.959 300.349 374.462 300.456C393.065 300.593 413.704 299.251 431.85 303.873C438.222 305.496 444.505 308.36 449.11 313.172C460.321 324.887 459.122 346.88 458.95 361.919Q456.076 367.314 452.981 372.585Q449.886 377.857 446.575 382.996Q443.264 388.135 439.744 393.132Q436.224 398.129 432.499 402.977Q428.775 407.824 424.853 412.513Q420.932 417.202 416.819 421.725Q412.707 426.248 408.411 430.596Q404.114 434.945 399.642 439.112C394.731 443.65 389.47 447.783 384.177 451.864C381.051 454.275 377.196 456.654 374.624 459.645Q352.821 460.356 331.008 460.109L329.549 299.857Z"/>
	<path d="M607.478 367.411C612.471 363.209 616.546 356.56 620.584 351.393Q629.124 340.547 637.885 329.88C661.988 300.458 687.126 272.302 715.487 246.887C722.243 240.833 729.016 234.348 736.41 229.099L603.51 712.735C599.195 703.215 595.935 693.176 591.974 683.495L565.696 620.15C559.291 604.792 553.092 589.251 545.911 574.238C540.761 563.47 535.181 552.92 528.635 542.927C525.334 537.888 520.81 533.006 518.048 527.726C550.59 518.05 574.519 503.873 591.279 473.027C611.02 436.692 607.541 406.38 607.478 367.411Z"/>
	<path d="M326.957 580.79C329.929 578.88 361.479 580.47 366.584 580.901Q373.559 581.455 380.407 582.887C396.422 586.333 409.495 593.998 418.361 608.011C424.575 617.834 428.595 629.29 432.809 640.092Q441.331 662.234 449.538 684.494L509.101 844.122L527.077 892.456C532.719 907.528 537.989 922.389 545.828 936.515C532.465 928.394 525.837 912.378 519.714 898.7C513.803 884.952 507.766 871.048 502.934 856.881L334.458 856.911C333.875 873.665 334.156 890.862 332.309 907.52C330.682 916.417 327.415 923.199 321.066 929.632C322.875 923.859 324.637 917.96 325.499 911.96C326.832 902.69 326.451 893.094 326.468 883.75L326.519 842.624L326.743 679.471L326.623 631.734C326.583 623.337 325.841 614.266 326.854 605.958C327.14 597.58 326.986 589.173 326.957 580.79Z"/>
	<path fill="#F3D44C" d="M402.421 766.396Q402.944 766.371 403.467 766.366C405.336 766.357 407.239 766.765 408.493 768.288C409.518 769.534 409.956 770.889 409.755 772.503C409.422 775.181 408.063 776.488 405.981 778.034C403.898 778.053 402.133 777.662 400.589 776.199C399.421 775.091 398.88 773.567 398.962 771.969C399.096 769.342 400.526 768.023 402.421 766.396Z"/>
	<path fill="#F9F3D9" d="M375.686 811.522C377.719 811.416 379.777 811.404 381.739 812.026Q382.349 812.223 382.936 812.48Q383.523 812.737 384.082 813.051Q384.641 813.366 385.165 813.735Q385.689 814.104 386.174 814.523Q386.658 814.943 387.099 815.409Q387.539 815.875 387.93 816.382Q388.322 816.89 388.66 817.434Q388.999 817.979 389.281 818.554Q389.553 819.108 389.766 819.687Q389.979 820.266 390.13 820.865Q390.281 821.463 390.368 822.074Q390.456 822.685 390.479 823.302Q390.502 823.918 390.46 824.534Q390.419 825.15 390.313 825.758Q390.207 826.366 390.039 826.96Q389.87 827.553 389.64 828.126C388.072 831.97 385.033 834.059 381.314 835.549C378.556 835.914 375.985 835.924 373.393 834.769Q372.848 834.529 372.33 834.235Q371.811 833.941 371.326 833.596Q370.84 833.251 370.391 832.859Q369.943 832.467 369.536 832.031Q369.129 831.596 368.768 831.122Q368.408 830.648 368.097 830.14Q367.786 829.631 367.528 829.094Q367.27 828.557 367.067 827.997C365.905 824.85 366.151 821.186 367.619 818.182C369.369 814.598 372.053 812.858 375.686 811.522Z"/>
	<path fill="#51D4DC" d="M326.957 580.79C331.183 582.204 353.108 581.485 359.542 581.777C367.744 582.149 375.791 583.06 383.905 584.314C370.21 589.678 356.264 594.356 342.545 599.654C337.35 601.661 331.847 603.504 326.854 605.958C327.14 597.58 326.986 589.173 326.957 580.79Z"/>
	<path d="M279.859 172.16L366.416 172.08C416.727 172.139 469.471 170.493 517.425 188.076C552.144 201.137 578.062 221.29 593.793 255.678C606.186 282.769 607.98 312.288 607.927 341.616C607.916 347.717 608.545 354.766 607.506 360.751C606.104 347.903 605.957 334.833 604.845 321.939C601.433 282.362 590.02 245.975 557.861 220.113C510.457 181.992 426.522 182.607 368.709 182.532Q327.27 182.41 285.833 182.846L224.084 182.962C210.459 182.985 196.475 182.494 182.921 184.021C178.098 184.564 173.172 185.419 170.051 189.541C169.023 190.898 168.281 192.481 168.123 194.189C167.598 199.876 167.984 205.859 168.021 211.579L168.206 242.832L168.406 340.218L169.886 770.329C169.903 796.32 170.143 822.361 169.234 848.34Q168.685 863.792 167.883 879.234C167.255 890.878 165.86 903.862 167.769 915.363C168.671 920.792 170.771 925.734 173.655 930.398C167.289 927.869 162.928 924.49 160.202 918.007C159.353 915.987 158.814 913.753 158.306 911.623C155.23 893.74 156.385 874.8 156.485 856.73C137.888 856.332 119.246 856.554 100.644 856.538L0 856.353L0 455.395C35.6276 501.986 72.3865 539.99 121.571 572.577C132.733 579.972 144.414 587.634 156.452 593.516Q157.125 568.543 156.996 543.562L156.933 296.519L157.016 224.321C157.014 214.146 155.853 203.237 156.913 193.163C157.432 188.236 159.476 184.089 162.936 180.541C166.465 176.922 170.941 174.987 175.829 173.962C188.325 171.342 203.021 172.505 215.793 172.469L279.859 172.16Z"/>
	<path fill="#F9F3D9" d="M780.409 856.081C781.908 849.346 784.643 843.527 790.62 839.629C795.868 836.208 802.575 835.192 808.656 836.579C814.903 838.004 820.26 842.206 823.556 847.652C825.112 850.223 826.447 853.04 826.999 856.006C851.318 857.073 875.868 856.445 900.212 856.436L1024 856.391L1024 1024L0 1024L0 856.353L100.644 856.538C119.246 856.554 137.888 856.332 156.485 856.73C156.385 874.8 155.23 893.74 158.306 911.623C157.642 912.572 157.132 912.703 156.037 912.948C150.207 914.247 144.04 914.791 138.133 915.754Q130.148 917.004 122.302 918.943Q114.455 920.882 106.807 923.495C102.535 924.995 97.8768 926.657 94.2764 929.488C91.8926 931.362 89.9962 933.942 89.6734 937.033C87.0555 962.096 220.36 958.748 228.143 967.776C227.191 970.62 220.608 973.232 218.023 974.999C216.223 976.229 214.49 977.429 214.036 979.692C214.492 980.919 214.633 981.292 215.723 982.102C227.131 990.576 299.703 982.583 316.159 979.962C335.573 976.87 384.087 968.691 396.173 952.067C389.49 941.549 373.197 938.435 361.93 934.797C364.973 932.319 370.832 928.318 371.986 924.442C372.394 923.074 372.279 922.12 371.614 920.862C367.679 913.42 340.84 909.435 332.309 907.52C334.156 890.862 333.875 873.665 334.458 856.911L502.934 856.881C507.766 871.048 513.803 884.952 519.714 898.7C507.492 901.138 483.462 906.206 476.092 917.045C475.026 918.614 474.382 920.376 474.82 922.285C475.525 925.365 478.954 928.397 481.609 929.855C486.935 932.781 505.225 934.896 506.856 938.899C507.14 939.595 507.004 940.357 506.69 941.032C504.601 945.524 491.822 948.531 493.784 954.362C494.798 957.378 499.209 959.16 501.932 960.131C510.459 963.172 519.863 964.33 528.822 965.433C545.469 967.481 562.059 968.37 578.821 968.608C592.391 968.8 606.433 968.376 619.921 969.803C621.971 970.02 624.403 970.344 625.624 972.176C625.734 973.893 622.676 977.705 623.92 978.785C630.288 984.309 688.878 977.045 698.78 975.424C710.165 973.561 746.346 967.098 752.617 958.599C753.446 957.476 753.519 956.54 753.249 955.223C748.628 950.236 725.188 948.676 725.579 941.155C725.708 938.67 728.463 936.497 730.321 935.204C736.105 931.179 746.673 928.39 748.004 920.439C748.332 918.475 747.772 916.659 746.592 915.082C740.836 907.393 721.281 902.774 712.299 901.265C707.444 900.449 701.749 900.429 697.263 898.438C701.824 884.409 705.016 869.953 709.676 855.961L780.409 856.081Z"/>
	<path fill="#F3D44C" d="M439.341 923.114C440.585 923.282 441.858 923.574 442.999 924.114C444.82 924.976 446.335 926.491 447.028 928.395C447.706 930.258 447.53 932.203 446.651 933.972C445.364 936.563 443.29 937.729 440.661 938.648C439.453 938.386 438.248 938.084 437.109 937.593C435.028 936.697 433.503 934.906 432.803 932.769C432.184 930.878 432.334 928.967 433.349 927.239C434.698 924.94 436.86 923.81 439.341 923.114Z"/>
	<path fill="#F3D44C" d="M838.238 925.576C840.534 925.366 842.919 925.245 845.15 925.933Q845.827 926.143 846.479 926.422Q847.132 926.702 847.751 927.047Q848.371 927.391 848.952 927.798Q849.533 928.206 850.068 928.67Q850.604 929.135 851.089 929.653Q851.574 930.171 852.003 930.736Q852.432 931.301 852.8 931.907Q853.168 932.513 853.472 933.154Q853.776 933.787 854.013 934.449Q854.249 935.111 854.415 935.793Q854.581 936.476 854.674 937.173Q854.768 937.869 854.788 938.571Q854.808 939.274 854.754 939.974Q854.701 940.675 854.574 941.366Q854.447 942.057 854.249 942.731Q854.051 943.405 853.783 944.055C851.987 948.402 848.648 950.74 844.431 952.453C841.64 952.724 839.196 952.804 836.527 951.81C832.928 950.469 829.905 947.752 828.425 944.181Q828.157 943.53 827.958 942.855Q827.759 942.18 827.631 941.488Q827.503 940.796 827.447 940.095Q827.392 939.393 827.409 938.69Q827.426 937.986 827.516 937.288Q827.606 936.59 827.768 935.906Q827.93 935.221 828.162 934.556Q828.394 933.892 828.693 933.255C830.676 929.009 833.967 927.031 838.238 925.576Z"/>
	<path fill="#F3D44C" d="M780.409 856.081C781.908 849.346 784.643 843.527 790.62 839.629C795.868 836.208 802.575 835.192 808.656 836.579C814.903 838.004 820.26 842.206 823.556 847.652C825.112 850.223 826.447 853.04 826.999 856.006C826.891 863.476 826.22 869.299 821.072 875.23Q820.693 875.675 820.292 876.1Q819.891 876.525 819.468 876.928Q819.046 877.332 818.604 877.714Q818.161 878.096 817.7 878.455Q817.239 878.813 816.76 879.148Q816.281 879.483 815.786 879.793Q815.29 880.103 814.78 880.387Q814.269 880.671 813.745 880.929Q813.22 881.187 812.683 881.418Q812.146 881.648 811.599 881.851Q811.051 882.054 810.493 882.229Q809.935 882.404 809.37 882.55Q808.804 882.696 808.231 882.814Q807.659 882.931 807.081 883.018Q806.503 883.106 805.922 883.164Q805.341 883.222 804.757 883.251Q804.21 883.286 803.661 883.293Q803.113 883.301 802.565 883.281Q802.016 883.261 801.47 883.214Q800.924 883.168 800.38 883.094Q799.837 883.02 799.297 882.919Q798.758 882.818 798.225 882.69Q797.692 882.562 797.165 882.408Q796.639 882.254 796.121 882.074Q795.602 881.894 795.094 881.689Q794.585 881.483 794.088 881.253Q793.59 881.022 793.104 880.767Q792.619 880.512 792.147 880.233Q791.674 879.954 791.216 879.652Q790.759 879.35 790.316 879.026Q789.874 878.702 789.448 878.356Q789.023 878.01 788.615 877.643C781.929 871.586 780.894 864.564 780.409 856.081Z"/>
	<path fill="#0AB1A9" d="M0 0L112.34 0L564.608 0C563.633 0.43258 562.666 0.922701 561.644 1.22758C542.631 7.71137 523.33 12.9201 504.534 20.1633C431.08 48.4693 364.091 86.7498 307.886 142.336C301.388 148.763 295.216 155.44 289.013 162.147C285.985 165.422 282.614 168.668 279.859 172.16L215.793 172.469C203.021 172.505 188.325 171.342 175.829 173.962C170.941 174.987 166.465 176.922 162.936 180.541C159.476 184.089 157.432 188.236 156.913 193.163C155.853 203.237 157.014 214.146 157.016 224.321L156.933 296.519L156.996 543.562Q157.125 568.543 156.452 593.516C144.414 587.634 132.733 579.972 121.571 572.577C72.3865 539.99 35.6276 501.986 0 455.395L0 0Z"/>
	<path fill="#51D4DC" d="M112.34 0L564.608 0C563.633 0.43258 562.666 0.922701 561.644 1.22758C557.045 -0.237645 491.957 0.416999 482.477 0.403355L228.921 0.438553L150.013 0.4248C137.666 0.43429 124.637 1.45052 112.358 0.426732L112.34 0Z"/>
	<path fill="#51D4DC" d="M0 0L112.34 0L112.358 0.426732C108.061 3.69942 100.184 18.2594 97.1105 23.4153C66.3208 75.0638 43.7103 132.105 35.5814 191.964C21.3082 297.068 39.1589 401.72 104.448 487.385C117.235 504.163 131.415 519.437 146.574 534.084C149.773 537.175 153.232 541.221 156.996 543.562Q157.125 568.543 156.452 593.516C144.414 587.634 132.733 579.972 121.571 572.577C72.3865 539.99 35.6276 501.986 0 455.395L0 0Z"/>
	<path fill="#0AB1A9" d="M564.608 0L1024 0L1024 52.7572L1024 138.601C1013.74 134.133 1002.04 131.895 990.954 130.55Q987.831 130.155 984.697 129.857Q981.563 129.559 978.422 129.359Q975.28 129.159 972.134 129.058Q968.988 128.956 965.84 128.953Q962.692 128.949 959.546 129.044Q956.399 129.139 953.257 129.332Q950.115 129.525 946.981 129.816Q943.847 130.107 940.723 130.495Q937.599 130.884 934.489 131.37Q931.379 131.856 928.285 132.439Q925.192 133.022 922.118 133.701Q919.044 134.38 915.993 135.154Q912.942 135.929 909.916 136.799Q906.891 137.668 903.894 138.632Q900.897 139.595 897.932 140.652Q894.967 141.708 892.036 142.857C868.193 152.251 843.712 166.067 822.861 180.958C798.766 181.332 774.518 180.459 750.415 180.23L736.41 229.099C729.016 234.348 722.243 240.833 715.487 246.887C687.126 272.302 661.988 300.458 637.885 329.88Q629.124 340.547 620.584 351.393C616.546 356.56 612.471 363.209 607.478 367.411L607.506 360.751C608.545 354.766 607.916 347.717 607.927 341.616C607.98 312.288 606.186 282.769 593.793 255.678C578.062 221.29 552.144 201.137 517.425 188.076C469.471 170.493 416.727 172.139 366.416 172.08L279.859 172.16C282.614 168.668 285.985 165.422 289.013 162.147C295.216 155.44 301.388 148.763 307.886 142.336C364.091 86.7498 431.08 48.4693 504.534 20.1633C523.33 12.9201 542.631 7.71137 561.644 1.22758C562.666 0.922701 563.633 0.43258 564.608 0Z"/>
	<path fill="#F9F3D9" d="M673.582 155.978C674.685 155.989 675.862 155.972 676.942 156.22C678.814 156.649 680.652 158.08 681.571 159.756C682.49 161.433 682.551 163.406 681.918 165.192C680.966 167.878 678.941 169.058 676.508 170.258C675.468 170.277 674.392 170.303 673.385 170.009C671.511 169.461 669.762 168.174 668.839 166.435C667.91 164.683 667.826 162.544 668.498 160.689C669.426 158.126 671.242 157.109 673.582 155.978Z"/>
	<path fill="#51D4DC" d="M564.608 0L1024 0L1024 52.7572C1002.93 47.4595 981.964 42.5299 960.507 38.9381C946.06 36.5198 931.45 34.9387 916.878 33.4753Q897.06 31.3395 877.145 30.4833Q857.23 29.6271 837.302 30.0539C766.027 32.1443 693.136 49.5084 631.655 86.323C587.537 112.741 551.619 150.23 517.425 188.076C469.471 170.493 416.727 172.139 366.416 172.08L279.859 172.16C282.614 168.668 285.985 165.422 289.013 162.147C295.216 155.44 301.388 148.763 307.886 142.336C364.091 86.7498 431.08 48.4693 504.534 20.1633C523.33 12.9201 542.631 7.71137 561.644 1.22758C562.666 0.922701 563.633 0.43258 564.608 0Z"/>
	<path fill="#0AB1A9" d="M535.109 106.518C536.13 106.548 537.152 106.594 538.145 106.854C540.369 107.438 542.388 108.735 543.527 110.775Q543.729 111.139 543.892 111.523Q544.054 111.907 544.174 112.306Q544.294 112.705 544.37 113.114Q544.447 113.524 544.479 113.939Q544.511 114.355 544.498 114.771Q544.485 115.187 544.428 115.6Q544.371 116.013 544.269 116.417Q544.168 116.821 544.024 117.212C542.938 120.23 540.761 121.679 537.989 122.999C536.65 122.995 535.323 122.995 534.039 122.565Q533.639 122.433 533.255 122.261Q532.87 122.09 532.505 121.88Q532.14 121.671 531.797 121.426Q531.455 121.181 531.139 120.903Q530.823 120.625 530.536 120.316Q530.25 120.008 529.996 119.672Q529.742 119.336 529.523 118.976Q529.304 118.617 529.122 118.237Q528.94 117.845 528.8 117.436Q528.661 117.028 528.565 116.606Q528.47 116.185 528.42 115.756Q528.37 115.327 528.365 114.895Q528.361 114.463 528.403 114.033Q528.444 113.603 528.531 113.18Q528.618 112.756 528.749 112.345Q528.881 111.933 529.055 111.538C530.268 108.714 532.381 107.605 535.109 106.518Z"/>
	<path d="M822.861 180.958C843.712 166.067 868.193 152.251 892.036 142.857Q894.967 141.708 897.932 140.652Q900.897 139.595 903.894 138.632Q906.891 137.668 909.917 136.799Q912.942 135.929 915.993 135.154Q919.044 134.38 922.118 133.701Q925.192 133.022 928.285 132.439Q931.379 131.856 934.489 131.37Q937.599 130.884 940.723 130.495Q943.846 130.107 946.981 129.816Q950.115 129.525 953.257 129.332Q956.399 129.139 959.546 129.044Q962.692 128.949 965.84 128.953Q968.988 128.956 972.134 129.058Q975.28 129.159 978.422 129.359Q981.563 129.559 984.697 129.857Q987.831 130.155 990.954 130.55C1002.04 131.895 1013.74 134.133 1024 138.601L1024 856.391L900.212 856.436C875.868 856.445 851.318 857.073 826.999 856.006C826.447 853.04 825.112 850.223 823.556 847.652C820.26 842.206 814.903 838.004 808.656 836.579C802.575 835.192 795.868 836.208 790.62 839.629C784.643 843.527 781.908 849.346 780.409 856.081L709.676 855.961C705.016 869.953 701.824 884.409 697.263 898.438C694.244 908.792 691.771 920.222 684.394 928.487L770.268 625.602Q810.29 490.333 848.377 354.506L882.324 234.236L891.179 202.77C892.768 197.111 894.973 191.061 895.72 185.255C895.875 184.051 896.037 184.459 895.324 183.603C894.209 182.265 892.848 181.787 891.169 181.589C884.483 180.799 877.022 181.453 870.261 181.468C854.492 181.503 838.614 181.781 822.861 180.958Z"/>
	<path fill="#F9F3D9" d="M795.287 755.594C796.404 755.717 797.641 755.82 798.7 756.225C800.021 756.73 801.191 757.938 801.776 759.21C802.444 760.662 802.445 762.268 801.785 763.724C800.737 766.035 799.094 766.818 796.802 767.614C794.633 767.15 792.822 766.456 791.588 764.485Q791.432 764.241 791.303 763.982Q791.174 763.723 791.073 763.452Q790.973 763.181 790.901 762.901Q790.83 762.62 790.789 762.334Q790.747 762.048 790.737 761.759Q790.726 761.47 790.746 761.181Q790.766 760.892 790.817 760.608Q790.867 760.323 790.948 760.045C791.606 757.806 793.313 756.607 795.287 755.594Z"/>
</svg>
