<?xml version="1.0" encoding="utf-8" ?>
<svg xmlns="http://www.w3.org/2000/svg" xmlns:xlink="http://www.w3.org/1999/xlink" width="1024" height="1024">
	<path d="M0 0L1024 0L1024 628.849L1024 768.867L1024 800.052L1024 1024L863.729 1024L834.422 1024L760.81 1024L730.113 1024L295.832 1024L263.407 1024L194.393 1024L162.511 1024L0 1024L0 732.612L0 0Z"/>
	<path fill="#FBEE4D" d="M73.6359 391.754C75.6794 391.685 77.7803 391.566 79.8207 391.721C82.6467 391.937 85.962 393.574 87.7384 395.803C88.9656 397.342 89.4694 398.983 89.1308 400.935C88.5555 404.253 85.3948 406.778 82.7622 408.442C74.0397 409.027 65.1208 408.625 56.375 408.587C53.1383 408.618 49.0703 409.09 46.3376 407.018C44.2666 405.447 42.141 402.147 41.9734 399.511C41.8831 398.091 42.3726 396.863 43.3399 395.834C48.9133 389.908 65.7903 391.803 73.6359 391.754Z"/>
	<path fill="#FBEE4D" d="M879.437 350.102C887.262 349.61 907.648 349.044 914.756 350.052C917.667 350.465 920.765 351.712 922.465 354.233C923.645 355.984 923.751 357.864 923.227 359.871C922.462 362.8 920.832 364.048 918.295 365.485C913.275 366.744 886.784 366.812 881.226 365.871C878.917 365.48 877.058 364.472 875.768 362.471C874.39 360.334 874.013 357.574 874.681 355.118C875.348 352.667 877.415 351.373 879.437 350.102Z"/>
	<path fill="#FBEE4D" d="M137.941 280.731C140.949 280.586 143.275 280.609 145.681 282.64C147.759 284.395 148.738 286.948 148.855 289.632C148.94 291.562 148.373 293.255 147.013 294.647C145.43 296.266 143.154 297.054 140.967 297.416C134.09 298.555 117.89 297.556 109.875 297.518C107.293 297.545 104.87 297.235 102.734 295.654C100.736 294.175 99.1849 291.956 98.929 289.444Q98.8958 289.102 98.8992 288.758Q98.9026 288.414 98.9426 288.072Q98.9825 287.73 99.0584 287.395Q99.1344 287.059 99.2456 286.734Q99.3568 286.408 99.5019 286.096Q99.647 285.784 99.8245 285.49Q100.002 285.195 100.21 284.921Q100.417 284.647 100.653 284.396C102.185 282.752 104.426 281.802 106.589 281.353C110.854 280.468 115.751 281.029 120.118 281.021Q129.031 280.982 137.941 280.731Z"/>
	<path fill="#FBEE4D" d="M612.909 72.5641C621.029 72.1477 640.254 71.5211 647.713 72.54C650.753 72.9552 653.401 73.8464 655.263 76.4199C656.571 78.229 656.909 80.4078 656.424 82.5656C655.647 86.0211 653.627 87.9749 650.685 89.7311C644.605 90.3817 619.225 90.7895 614.074 89.4092C611.576 88.7398 609.059 87.3775 607.811 85.0109C606.73 82.9623 606.858 80.6514 607.52 78.4894C608.413 75.5733 610.349 74.0212 612.909 72.5641Z"/>
	<path fill="#F6E00C" d="M347.522 48.606C353.99 48.3534 385.298 47.6311 389.682 49.0895C392.146 49.9094 394.436 51.663 395.525 54.063C396.303 55.7751 396.404 57.5733 395.67 59.3249C394.452 62.2326 392.129 63.8962 389.344 65.1284C380.417 65.1422 351.788 66.5211 345.346 63.8143C343.178 62.9034 340.699 61.1972 340.069 58.7802C339.616 57.0392 340.248 55.225 341.059 53.6991C342.696 50.6169 344.276 49.676 347.522 48.606Z"/>
	<path fill="#FBEE4D" d="M115.218 617.536C119.689 606.931 125.3 596.715 129.359 585.963L129.06 585.45L126.472 585.839L126.048 585.242C130.114 573.168 135.988 561.57 140.437 549.6C140.819 548.572 140.983 548.763 140.504 547.718L137.663 547.544L137.224 546.981C139.331 540.381 142.621 533.912 145.392 527.549L156.437 501.645Q166.096 524.825 176.92 547.484L170.167 547.48C173.461 555.085 176.716 562.827 180.613 570.142C181.668 573.222 186.902 582.462 186.041 584.937C184.943 585.016 183.887 585.036 182.787 584.999L182.335 585.467C185.575 596.718 191.313 606.991 195.188 617.956C189.842 617.881 184.443 617.942 179.105 617.695C173.098 617.425 167.006 617.611 160.99 617.617L157.031 617.538L152.605 617.557Q133.912 617.656 115.218 617.536Z"/>
	<path fill="#FEFEFE" d="M152.605 617.557C151.627 607.419 152.923 549.829 151.54 547.319C150.376 546.638 149.664 546.633 148.355 546.586C147.156 542.884 154.232 518.989 155.789 514.039C157.224 518.536 164.323 542.771 163.015 545.885C161.692 546.915 161.234 546.951 161.034 548.743C160.345 554.942 161.014 562.025 161.013 568.346C161.009 584.751 161.32 601.219 160.99 617.617L157.031 617.538L152.605 617.557Z"/>
	<path fill="#FBEE4D" d="M58.5754 567.502Q71.6515 541.076 82.749 513.759Q89.3116 529.88 96.1734 545.877C98.9243 552.34 102.028 558.844 104.244 565.513L97.7714 565.432C103.245 577.486 108.949 589.726 113.099 602.307L106.937 602.12Q111.403 613.912 116.392 625.492C118.378 630.194 120.695 634.911 122.207 639.789L98.7666 639.861C95.0056 639.877 90.709 640.286 87.0217 639.72L84.6498 640.02C82.9474 639.904 81.1822 639.994 79.4726 639.989L78.9709 639.72L40.8844 639.672C45.0326 627.229 50.6607 615.243 55.1821 602.915L48.7572 602.911C54.2152 591.019 58.9191 578.689 64.5503 566.912L58.5754 567.502Z"/>
	<path fill="#FEFEFE" d="M78.9709 639.72C78.9326 630.078 79.4556 561.918 78.4105 560.134C77.3558 560.169 76.3128 560.232 75.2613 560.32C74.2371 556.589 81.5565 534.069 82.8416 528.402C84.0397 532.981 91.2974 557.907 89.9894 560.65Q88.6474 561.181 87.3195 561.747C86.0735 567.181 86.984 577.355 86.9899 583.149C87.0091 601.997 87.2572 620.875 87.0217 639.72L84.6498 640.02C82.9474 639.904 81.1822 639.994 79.4726 639.989L78.9709 639.72Z"/>
	<path fill="#FBEE4D" d="M925.121 442.759C931.649 454.465 936.937 467.104 942.712 479.218C947.255 488.748 953.074 498.593 956.147 508.656L947.592 508.501Q954.301 524.334 961.577 539.914C964.477 546.184 967.753 552.477 970.07 558.985L959.142 559.177C965.285 575.226 973.824 590.801 978.955 607.164L931.961 607.375L928.883 607.446L923.498 607.483L919.094 607.388L870.548 607.485C876.071 591.362 882.503 575.552 888.243 559.504C884.787 559.437 881.298 559.465 877.849 559.262C885.346 542.092 893.465 524.93 901.604 508.054L893.784 507.982C904.975 486.642 914.247 464.248 925.121 442.759Z"/>
	<path fill="#FEFEFE" d="M913.473 499.761C916.166 490.567 919.069 481.371 921.437 472.091C922.836 466.609 923.796 461.005 925.223 455.541C927.201 463.662 929.18 471.878 932.082 479.729C934.568 486.452 937.745 492.895 940.492 499.509C937.797 499.564 935.084 499.68 932.39 499.642L931.961 607.375L928.883 607.446L923.498 607.483L919.094 607.388Q918.366 553.544 918.511 499.697L913.473 499.761Z"/>
	<path fill="#FEFEFE" d="M124.867 108.689C124.927 108.681 124.987 108.668 125.048 108.663C136.579 107.808 146.859 110.069 156.032 117.371C166.088 125.377 170.634 135.522 172.132 148.017C176.139 146.273 180.146 145.174 184.529 145.058C192.016 144.859 198.976 147.812 204.358 152.926Q204.906 153.445 205.428 153.992Q205.95 154.538 206.443 155.109Q206.937 155.681 207.402 156.276Q207.867 156.872 208.301 157.489Q208.735 158.107 209.139 158.746Q209.542 159.385 209.912 160.043Q210.283 160.701 210.621 161.376Q210.958 162.052 211.262 162.744Q211.565 163.435 211.833 164.141Q212.102 164.847 212.335 165.566Q212.568 166.284 212.765 167.013Q212.962 167.742 213.122 168.48Q213.282 169.218 213.406 169.964Q213.529 170.709 213.615 171.459Q213.701 172.209 213.75 172.963Q213.798 173.717 213.809 174.472C213.946 182.452 211.214 189.876 205.534 195.57Q204.3 196.822 202.914 197.904Q201.529 198.986 200.016 199.881Q198.502 200.775 196.886 201.467Q195.271 202.16 193.579 202.638C184.187 205.205 151.481 203.922 139.75 203.909L96.3984 203.981C88.4579 203.998 79.2418 204.909 71.4709 203.225C63.795 201.561 57.0771 196.338 52.9489 189.745Q52.5306 189.068 52.1462 188.372Q51.7617 187.675 51.4121 186.96Q51.0625 186.245 50.7486 185.514Q50.4347 184.783 50.1572 184.037Q49.8797 183.292 49.6393 182.533Q49.3989 181.775 49.1962 181.005Q48.9935 180.236 48.8289 179.457Q48.6644 178.679 48.5385 177.893Q48.4126 177.108 48.3255 176.317Q48.2385 175.526 48.1906 174.732Q48.1426 173.938 48.1339 173.142Q48.1252 172.346 48.1557 171.551Q48.1863 170.756 48.256 169.963Q48.3256 169.171 48.4343 168.383Q48.543 167.594 48.6905 166.813Q48.8379 166.031 49.0237 165.257Q49.1923 164.531 49.3974 163.815Q49.6026 163.098 49.8438 162.393Q50.085 161.688 50.3616 160.996Q50.6382 160.304 50.9495 159.627Q51.2609 158.95 51.6061 158.29Q51.9513 157.629 52.3296 156.987Q52.7079 156.345 53.1182 155.723Q53.5285 155.101 53.9698 154.5Q54.4111 153.9 54.8822 153.323Q55.3534 152.745 55.8532 152.193Q56.353 151.64 56.8802 151.113Q57.4074 150.586 57.9606 150.087Q58.5138 149.588 59.0916 149.117Q59.6694 148.647 60.2703 148.206Q60.8712 147.765 61.4936 147.355Q62.1161 146.946 62.7585 146.568C71.0011 141.647 78.9585 142.49 87.7632 144.755C89.4618 137.318 92.2187 130.053 97.0171 124.035C104.074 115.185 113.672 109.922 124.867 108.689Z"/>
	<path fill="#FEFEFE" d="M864.166 82.708Q865.185 82.6801 866.204 82.6929Q867.223 82.7057 868.241 82.7593Q869.259 82.8129 870.274 82.9071Q871.289 83.0013 872.299 83.136Q873.31 83.2707 874.314 83.4457Q875.318 83.6207 876.314 83.8357Q877.311 84.0507 878.298 84.3054Q879.285 84.56 880.261 84.8539Q881.237 85.1479 882.2 85.4806Q883.164 85.8132 884.113 86.1842Q885.062 86.5551 885.996 86.9637Q886.93 87.3723 887.847 87.818Q888.763 88.2636 889.662 88.7455Q890.56 89.2274 891.438 89.7448Q892.316 90.2622 893.173 90.8143Q894.03 91.3665 894.864 91.9524C907.521 100.84 915.235 113.606 917.964 128.737C923.374 126.115 928.66 124.321 934.726 124.251C944.799 124.135 953.821 128.172 960.96 135.177C968.635 142.707 973.505 153.116 973.583 163.936Q973.59 164.952 973.546 165.967Q973.503 166.983 973.408 167.995Q973.314 169.007 973.17 170.012Q973.025 171.018 972.831 172.016Q972.637 173.013 972.393 174Q972.149 174.986 971.857 175.96Q971.564 176.933 971.223 177.89Q970.883 178.848 970.495 179.787Q970.107 180.726 969.672 181.645Q969.238 182.564 968.759 183.46Q968.279 184.356 967.756 185.227Q967.232 186.098 966.666 186.942Q966.1 187.786 965.492 188.6Q964.885 189.415 964.237 190.198Q963.59 190.982 962.905 191.732Q962.219 192.482 961.497 193.197C957.105 197.54 951.212 201.196 945.197 202.727C935.199 205.272 922.3 203.986 911.867 203.979L866.25 203.956L819.563 203.897C810.671 203.879 800.771 204.658 792.062 202.997C786.655 201.965 781.28 199.661 776.708 196.611Q775.875 196.044 775.069 195.437Q774.264 194.83 773.489 194.185Q772.714 193.54 771.971 192.858Q771.228 192.177 770.519 191.46Q769.81 190.743 769.136 189.993Q768.463 189.243 767.826 188.461Q767.19 187.679 766.592 186.867Q765.993 186.055 765.435 185.216Q764.877 184.376 764.36 183.51Q763.843 182.645 763.368 181.755Q762.894 180.865 762.463 179.954Q762.032 179.042 761.645 178.111Q761.259 177.18 760.918 176.231Q760.577 175.282 760.282 174.318Q759.987 173.354 759.739 172.376Q759.491 171.399 759.291 170.411C757.349 160.402 760.14 149.425 765.792 141.043C771.159 133.084 779.647 127.191 789.129 125.418C798.343 123.696 804.82 126.623 812.242 131.727C814.604 120.164 818.284 110.33 826.075 101.286C836.286 89.4318 848.718 83.8416 864.166 82.708Z"/>
	<path fill="#00E0CE" d="M180.613 570.142C179.357 543.556 177.388 517.013 178.719 490.368C182.995 404.793 213.933 320.015 272.05 256.167C331.761 190.57 410.084 151.608 499.001 147.567Q502.921 147.427 506.843 147.383Q510.765 147.339 514.687 147.391Q518.609 147.443 522.528 147.59Q526.447 147.738 530.362 147.981Q534.277 148.225 538.184 148.563Q542.092 148.902 545.99 149.336Q549.888 149.771 553.774 150.3Q557.661 150.829 561.533 151.453Q565.405 152.077 569.261 152.796Q573.117 153.514 576.954 154.326Q580.792 155.139 584.608 156.045Q588.424 156.951 592.217 157.949Q596.01 158.948 599.777 160.039Q603.545 161.131 607.284 162.313Q611.024 163.496 614.733 164.77Q618.443 166.044 622.12 167.408Q625.798 168.772 629.441 170.226Q633.084 171.679 636.69 173.221Q640.297 174.763 643.864 176.393Q647.432 178.023 650.958 179.739Q654.485 181.455 657.969 183.257Q661.453 185.059 664.892 186.946Q668.33 188.832 671.722 190.802Q675.114 192.772 678.456 194.824Q681.799 196.876 685.09 199.01Q688.381 201.143 691.62 203.356Q694.858 205.569 698.041 207.86Q701.225 210.152 704.351 212.52Q707.477 214.889 710.545 217.333Q713.613 219.777 716.62 222.295Q719.627 224.814 722.571 227.405Q725.516 229.996 728.396 232.658Q731.626 235.645 734.782 238.71Q737.938 241.775 741.017 244.917Q744.096 248.059 747.097 251.276Q750.098 254.492 753.019 257.782Q755.94 261.072 758.779 264.433Q761.618 267.793 764.373 271.223Q767.128 274.652 769.798 278.149Q772.469 281.645 775.052 285.206Q777.635 288.767 780.13 292.391Q782.624 296.014 785.029 299.698Q787.434 303.382 789.747 307.124Q792.06 310.866 794.281 314.664Q796.501 318.462 798.628 322.313Q800.754 326.164 802.785 330.067Q804.815 333.969 806.75 337.921Q808.684 341.872 810.52 345.87Q812.356 349.868 814.093 353.909Q815.83 357.951 817.467 362.035Q819.105 366.118 820.641 370.24Q822.177 374.363 823.611 378.522Q825.045 382.681 826.376 386.874Q827.708 391.067 828.935 395.291Q830.163 399.516 831.286 403.769Q832.41 408.023 833.428 412.302Q834.446 416.582 835.359 420.886Q836.271 425.19 837.077 429.514Q837.884 433.839 838.583 438.182Q839.283 442.526 839.875 446.885Q840.467 451.244 840.952 455.617Q841.437 459.989 841.814 464.372Q842.191 468.755 842.46 473.147Q842.729 477.538 842.89 481.934C843.863 505.28 843.353 528.815 843.393 552.189L843.342 669.003C824.59 679.523 806.248 690.169 788.241 701.96L756.776 702.305C751.663 702.356 745.601 703.036 740.635 702.085C736.238 703.064 725.364 702.07 720.391 702.053C709.752 702.015 695.726 702.783 685.401 701.971Q685.451 700.901 685.452 699.83L685.685 607.282C685.717 587.231 686.873 564.133 685.038 544.457C681.425 505.721 663.368 466.928 635.993 439.34C603.981 407.077 559.666 387.024 513.952 386.898C467.924 386.771 425.447 403.948 392.813 436.58C364.137 465.253 344.654 504.35 340.821 544.9C338.909 565.12 340.002 586.139 340.02 606.446L340.131 701.579C334.176 702.006 328.014 701.676 322.037 701.646Q302.976 701.381 283.917 701.739C284.363 685.402 284.049 668.988 284.039 652.643C284.035 644.831 284.99 634.937 283.667 627.418C283.52 652.129 283.941 676.856 283.6 701.562C276.279 701.634 268.832 701.999 261.58 700.803C245.306 698.118 230.849 689.614 216.467 682.033C205.379 676.189 194.264 670.487 182.534 666.022C182.191 649.942 179.693 633.834 179.105 617.695C184.443 617.942 189.842 617.881 195.188 617.956C191.313 606.991 185.575 596.718 182.335 585.467L182.787 584.999C183.887 585.036 184.943 585.016 186.041 584.937C186.902 582.462 181.668 573.222 180.613 570.142Z"/>
	<path fill="#F6E00C" d="M283.667 627.418Q283.495 597.295 283.811 567.174C283.909 553.108 283.647 539.012 285.166 525.007Q285.427 522.685 285.738 520.37Q286.048 518.054 286.407 515.746Q286.766 513.437 287.174 511.137Q287.581 508.836 288.038 506.545Q288.494 504.253 288.998 501.972Q289.502 499.691 290.055 497.421Q290.607 495.151 291.207 492.893Q291.807 490.635 292.454 488.39Q293.102 486.145 293.797 483.915Q294.492 481.684 295.233 479.469Q295.975 477.253 296.763 475.054Q297.551 472.854 298.385 470.672Q299.22 468.49 300.1 466.326Q300.98 464.162 301.906 462.016Q302.832 459.871 303.802 457.746Q304.773 455.621 305.788 453.517Q306.804 451.413 307.863 449.33Q308.922 447.248 310.026 445.189Q311.129 443.129 312.275 441.093Q313.421 439.058 314.61 437.046Q315.799 435.035 317.03 433.05Q318.261 431.064 319.534 429.105Q320.807 427.146 322.121 425.214Q323.434 423.282 324.789 421.378Q326.143 419.474 327.537 417.599Q328.931 415.725 330.364 413.88Q331.798 412.035 333.269 410.22Q334.741 408.406 336.251 406.623Q337.761 404.84 339.308 403.089Q340.855 401.339 342.439 399.621Q344.022 397.903 345.642 396.219Q347.261 394.535 348.916 392.886Q350.908 390.906 352.948 388.975Q354.988 387.044 357.074 385.164Q359.16 383.283 361.292 381.454Q363.423 379.625 365.599 377.849Q367.774 376.072 369.993 374.349Q372.211 372.626 374.47 370.958Q376.73 369.289 379.029 367.676Q381.329 366.064 383.667 364.507Q386.005 362.951 388.381 361.452Q390.756 359.954 393.167 358.513Q395.579 357.073 398.024 355.692Q400.47 354.311 402.949 352.99Q405.427 351.668 407.937 350.408Q410.448 349.148 412.988 347.949Q415.528 346.75 418.096 345.614Q420.665 344.478 423.26 343.404Q425.856 342.331 428.477 341.321Q431.098 340.311 433.743 339.366Q436.387 338.42 439.054 337.539Q441.721 336.658 444.409 335.843Q447.097 335.027 449.804 334.277Q452.51 333.528 455.235 332.844Q457.959 332.161 460.699 331.544Q463.439 330.927 466.194 330.377Q468.948 329.827 471.715 329.345Q474.482 328.862 477.26 328.447Q480.038 328.032 482.825 327.685Q485.612 327.338 488.407 327.059Q491.202 326.78 494.003 326.569Q496.804 326.358 499.609 326.216Q502.414 326.073 505.222 325.999Q508.029 325.925 510.838 325.92Q513.631 325.921 516.423 325.991Q519.215 326.06 522.004 326.198Q524.794 326.336 527.579 326.541Q530.364 326.746 533.144 327.02Q535.923 327.293 538.695 327.634Q541.467 327.975 544.23 328.383Q546.993 328.791 549.745 329.267Q552.497 329.742 555.237 330.285Q557.976 330.827 560.702 331.436Q563.428 332.045 566.138 332.72Q568.848 333.396 571.541 334.137Q574.233 334.878 576.907 335.684Q579.581 336.491 582.234 337.362Q584.888 338.233 587.519 339.169Q590.151 340.105 592.759 341.104Q595.366 342.104 597.949 343.167Q600.532 344.229 603.088 345.355Q605.644 346.48 608.172 347.668Q610.7 348.855 613.198 350.104Q615.696 351.352 618.163 352.661Q620.63 353.97 623.065 355.339Q625.499 356.708 627.9 358.136Q630.3 359.564 632.665 361.049Q635.03 362.535 637.358 364.078Q639.685 365.621 641.975 367.22Q644.265 368.82 646.515 370.474Q648.765 372.129 650.974 373.837Q653.183 375.546 655.35 377.309Q657.516 379.071 659.64 380.885Q661.763 382.7 663.841 384.565Q665.919 386.431 667.952 388.347Q669.984 390.262 671.969 392.227Q673.766 393.994 675.523 395.8Q677.281 397.606 678.998 399.451Q680.716 401.295 682.393 403.176Q684.069 405.058 685.704 406.975Q687.339 408.893 688.932 410.846Q690.524 412.799 692.074 414.787Q693.623 416.774 695.128 418.795Q696.634 420.816 698.095 422.87Q699.555 424.924 700.971 427.009Q702.386 429.094 703.755 431.209Q705.125 433.325 706.447 435.47Q707.77 437.615 709.045 439.789Q710.32 441.963 711.548 444.164Q712.775 446.365 713.954 448.592Q715.132 450.82 716.262 453.072Q717.391 455.325 718.471 457.602Q719.551 459.879 720.581 462.179Q721.611 464.479 722.59 466.801Q723.569 469.124 724.497 471.467Q725.425 473.81 726.301 476.173Q727.177 478.535 728.002 480.917Q728.826 483.298 729.598 485.697Q730.37 488.096 731.089 490.512Q731.808 492.927 732.474 495.357Q733.14 497.788 733.752 500.232Q734.365 502.677 734.923 505.134Q735.482 507.592 735.987 510.061Q736.492 512.53 736.942 515.009Q737.393 517.489 737.789 519.978Q738.185 522.466 738.526 524.963Q738.867 527.46 739.154 529.964Q739.44 532.468 739.672 534.977C741.455 555.322 740.426 577.815 740.426 598.322L740.635 702.085C736.238 703.064 725.364 702.07 720.391 702.053C709.752 702.015 695.726 702.783 685.401 701.971Q685.451 700.901 685.452 699.83L685.685 607.282C685.717 587.231 686.873 564.133 685.038 544.457C681.425 505.721 663.368 466.928 635.993 439.34C603.981 407.077 559.666 387.024 513.952 386.898C467.924 386.771 425.447 403.948 392.813 436.58C364.137 465.253 344.654 504.35 340.821 544.9C338.909 565.12 340.002 586.139 340.02 606.446L340.131 701.579C334.176 702.006 328.014 701.676 322.037 701.646Q302.976 701.381 283.917 701.739C284.363 685.402 284.049 668.988 284.039 652.643C284.035 644.831 284.99 634.937 283.667 627.418Z"/>
	<path d="M340.131 701.579L340.02 606.446C340.002 586.139 338.909 565.12 340.821 544.9C344.654 504.35 364.137 465.253 392.813 436.58C425.447 403.948 467.924 386.771 513.952 386.898C559.666 387.024 603.981 407.077 635.993 439.34C663.368 466.928 681.425 505.721 685.038 544.457C686.873 564.133 685.717 587.231 685.685 607.282L685.452 699.83Q685.451 700.901 685.401 701.971C695.726 702.783 709.752 702.015 720.391 702.053C725.364 702.07 736.238 703.064 740.635 702.085C745.601 703.036 751.663 702.356 756.776 702.305L788.241 701.96C806.248 690.169 824.59 679.523 843.342 669.003C869.033 655.468 895.344 642.168 923.432 634.385L923.498 607.483L928.883 607.446L928.962 632.851C960.016 624.082 992.266 625.203 1024 628.849L1024 768.867L1024 800.052L1024 1024L863.729 1024L834.422 1024L760.81 1024L730.113 1024L295.832 1024L263.407 1024L194.393 1024L162.511 1024L0 1024L0 732.612C21.6068 711.048 51.731 688.969 79.5407 676.246L79.4726 639.989C81.1822 639.994 82.9474 639.904 84.6498 640.02Q84.6792 656.734 85.0929 673.442C105.911 663.625 130.026 657.814 153.055 659.797Q152.959 646.175 153.028 632.552C153.027 627.64 153.316 622.416 152.605 617.557L157.031 617.538L160.99 617.617C167.006 617.611 173.098 617.425 179.105 617.695C179.693 633.834 182.191 649.942 182.534 666.022C194.264 670.487 205.379 676.189 216.467 682.033C230.849 689.614 245.306 698.118 261.58 700.803C268.832 701.999 276.279 701.634 283.6 701.562C283.941 676.856 283.52 652.129 283.667 627.418C284.99 634.937 284.035 644.831 284.039 652.643C284.049 668.988 284.363 685.402 283.917 701.739Q302.976 701.381 322.037 701.646C328.014 701.676 334.176 702.006 340.131 701.579Z"/>
	<path fill="#FEFEFE" d="M585.589 701.291C587.525 702.029 609.89 729.302 612.467 732.577C608.904 732.737 605.318 732.713 601.75 732.762L594.2 732.773C587.837 722.134 580.945 711.772 574.218 701.36L585.589 701.291Z"/>
	<path fill="#FEFEFE" d="M437.551 701.078C441.718 700.97 445.903 701.044 450.072 701.04L431.017 733.278L425.53 733.27Q418.779 733.232 412.029 733.113C420.318 722.583 428.083 710.541 437.551 701.078Z"/>
	<path fill="#FEFEFE" d="M407.582 739.178C414.238 739.056 420.878 739.266 427.531 739.463C421.224 749.666 415.11 760.008 408.97 770.313L403.625 770.231L383.339 770.118Q395.087 754.355 407.582 739.178Z"/>
	<path fill="#FEFEFE" d="M602.971 738.244Q610.081 738.161 617.191 738.3C625.323 747.588 635.814 760.014 642.063 770.55L641.629 771.067L639.625 771.2L617.137 771.183C614.148 765.824 599.073 742.747 598.665 738.753C599.979 738.058 601.521 738.245 602.971 738.244Z"/>
	<path fill="#FEFEFE" d="M204.547 1010.57C226.673 1010.59 248.854 1010.25 270.972 1010.6C268.352 1015 265.622 1019.37 263.407 1024L194.393 1024C197.919 1019.75 201.864 1015.42 204.547 1010.57Z"/>
	<path fill="#FEFEFE" d="M753.932 1011.36C777.289 1011.3 800.753 1010.78 824.1 1011.27C827.68 1015.41 831.053 1019.69 834.422 1024L760.81 1024C758.517 1019.83 755.963 1015.66 753.932 1011.36Z"/>
	<path fill="#FEFEFE" d="M621.024 777.65C629.743 777.179 638.658 777.546 647.399 777.533C656.593 788.757 666.56 800.456 674.201 812.774C663.231 813.261 652.085 812.975 641.107 812.85C634.777 801.269 626.468 789.482 621.024 777.65Z"/>
	<path fill="#FEFEFE" d="M378.248 776.602Q391.864 776.924 405.484 776.876C400.4 788.203 391.033 801.769 384.796 812.988L378.25 812.978Q364.452 812.987 350.656 812.757C360.283 801.213 369.772 789.011 378.248 776.602Z"/>
	<path fill="#FEFEFE" d="M644.66 819.069Q661.89 818.946 679.119 819.166C686.417 827.935 693.021 837.088 699.829 846.223C703.422 851.043 707.367 855.614 710.747 860.587Q689.703 860.912 668.657 860.774C660.677 846.961 651.642 833.412 644.66 819.069Z"/>
	<path fill="#FEFEFE" d="M349.696 817.255Q365.778 817.168 381.859 817.368C373.624 832.235 364.716 846.716 356.301 861.482L345.75 861.503L313.994 861.512C318.11 854.638 323.579 848.297 328.464 841.938C333.926 834.83 339.146 827.513 344.752 820.521C346.423 818.436 347 817.559 349.696 817.255Z"/>
	<path fill="#FEFEFE" d="M308.61 868.516Q330.244 868.407 351.876 868.761L321.598 922.518L312.318 922.25Q290.58 921.984 268.841 922.076C274.799 913.319 281.44 904.997 287.806 896.535L308.61 868.516Z"/>
	<path fill="#FEFEFE" d="M711.364 867.763C712.612 867.682 713.855 867.573 715.101 867.723C716.364 867.876 717.116 869.171 717.905 870.134C722.519 875.771 726.701 881.919 731.073 887.756Q743.766 904.879 757.039 921.557Q737.206 921.583 717.375 921.874L703.03 922.031C697.67 913.014 692.707 903.706 687.547 894.568C682.562 885.738 677.272 876.965 672.772 867.879Q692.069 868.006 711.364 867.763Z"/>
	<path fill="#FEFEFE" d="M261.627 932.38C279.788 931.963 298.032 932.363 316.198 932.483C309.547 944.484 302.434 956.205 295.59 968.094C289.573 978.548 283.866 989.124 277.45 999.347L268.499 999.338C250.135 999.323 231.634 999.916 213.294 999.211C218.731 989.807 226.079 981.028 232.472 972.233C242.143 958.928 251.517 945.355 261.627 932.38Z"/>
	<path fill="#FEFEFE" d="M708.851 931.26L763.604 931.25C780.646 953.886 798.784 975.964 814.859 999.295C807.436 1000.18 799.299 999.54 791.787 999.548L747.042 999.602C742.259 991.235 709.713 935.716 708.851 931.26Z"/>
	<path fill="#FEFEFE" d="M503.726 543.186C506.609 542.626 510.061 542.759 512.992 542.756C536.12 542.732 557.628 553.026 573.702 569.307C598.218 594.139 598.854 617.61 598.794 650.225L598.685 692.765L521.25 692.977L424.597 692.724C424.443 679.393 424.632 666.039 424.651 652.706C424.694 621.99 424.135 600.98 444.553 575.479C459.361 556.986 480.251 545.807 503.726 543.186Z"/>
	<path fill="#343434" d="M466.346 700.993L561.798 701.042L681.026 928.03Q697.354 959.262 713.279 990.702C718.954 1001.78 725.114 1012.59 730.113 1024L295.832 1024C300.017 1014.52 305.081 1005.36 309.82 996.146L332.965 951.16Q371.552 875.592 411.983 800.995L444.525 740.752L457.663 716.299C460.415 711.214 463.047 705.744 466.346 700.993Z"/>
	<path fill="#FBEE4D" d="M152.605 617.557L157.031 617.538L160.99 617.617C167.006 617.611 173.098 617.425 179.105 617.695C179.693 633.834 182.191 649.942 182.534 666.022C194.264 670.487 205.379 676.189 216.467 682.033C230.849 689.614 245.306 698.118 261.58 700.803C268.832 701.999 276.279 701.634 283.6 701.562C283.941 676.856 283.52 652.129 283.667 627.418C284.99 634.937 284.035 644.831 284.039 652.643C284.049 668.988 284.363 685.402 283.917 701.739Q302.976 701.381 322.037 701.646C328.014 701.676 334.176 702.006 340.131 701.579L425.924 701.5C418.8 709.749 412.214 718.469 405.366 726.947L364.862 776.871L256.144 908.727L196.307 982.307C185.066 996.187 174.093 1010.41 162.511 1024L0 1024L0 732.612C21.6068 711.048 51.731 688.969 79.5407 676.246L79.4726 639.989C81.1822 639.994 82.9474 639.904 84.6498 640.02Q84.6792 656.734 85.0929 673.442C105.911 663.625 130.026 657.814 153.055 659.797Q152.959 646.175 153.028 632.552C153.027 627.64 153.316 622.416 152.605 617.557Z"/>
	<path d="M160.99 617.617C167.006 617.611 173.098 617.425 179.105 617.695C179.693 633.834 182.191 649.942 182.534 666.022C174.211 662.905 166.142 661.043 157.309 660.06C157.379 645.89 156.712 631.708 157.031 617.538L160.99 617.617Z"/>
	<path fill="#F6E00C" d="M243.571 770.694C260.694 770.214 277.94 770.572 295.074 770.584C304.867 770.592 317.617 769.706 327.117 771.278C330.073 771.767 332.681 772.627 335.01 774.572C337.555 776.698 339.202 779.454 339.504 782.782C339.924 787.419 339.431 790.038 336.437 793.6C333.147 797.514 329.909 798.348 325.025 798.811L268.741 798.468C259.713 798.451 249.788 799.498 240.901 798.382C238.186 798.041 235.616 797.157 233.413 795.507C230.632 793.423 229.101 790.314 228.779 786.883Q228.708 786.162 228.71 785.438Q228.711 784.713 228.786 783.993Q228.861 783.272 229.007 782.562Q229.154 781.853 229.371 781.162Q229.588 780.471 229.873 779.805Q230.159 779.139 230.51 778.505Q230.861 777.871 231.274 777.276Q231.686 776.681 232.157 776.13C235.237 772.476 238.947 771.172 243.571 770.694Z"/>
	<path fill="#F6E00C" d="M70.1239 846.19C74.9654 845.766 80.0629 846.044 84.9347 846.029L112.213 845.925C123.044 845.882 142.571 844.793 152.592 846.247C155.202 846.626 157.566 847.621 159.667 849.236Q160.248 849.683 160.781 850.185Q161.314 850.688 161.794 851.242Q162.274 851.796 162.696 852.395Q163.117 852.995 163.476 853.633Q163.836 854.272 164.129 854.944Q164.422 855.615 164.646 856.313Q164.869 857.011 165.022 857.728Q165.174 858.445 165.254 859.173C165.711 863.517 164.268 867.667 161.42 870.947C158.088 874.785 154.183 875.422 149.396 875.794L97.038 875.856C88.2082 875.899 78.2879 876.845 69.5712 875.725C65.975 875.263 62.6199 874.086 59.7034 871.896C56.8377 869.745 54.6669 866.815 54.2341 863.185C53.7642 859.243 55.2808 854.226 57.8312 851.181C60.764 847.68 65.7887 846.532 70.1239 846.19Z"/>
	<path fill="#FBEE4D" d="M923.498 607.483L928.883 607.446L928.962 632.851C960.016 624.082 992.266 625.203 1024 628.849L1024 768.867L1024 800.052L1024 1024L863.729 1024L689.323 812.852C659.017 776.005 630.734 737.306 598.467 702.138C627.364 701.685 656.511 701.397 685.401 701.971C695.726 702.783 709.752 702.015 720.391 702.053C725.364 702.07 736.238 703.064 740.635 702.085C745.601 703.036 751.663 702.356 756.776 702.305L788.241 701.96C806.248 690.169 824.59 679.523 843.342 669.003C869.033 655.468 895.344 642.168 923.432 634.385L923.498 607.483Z"/>
	<path fill="#F6E00C" d="M721.203 732.092C732.821 731.364 803.062 730.777 808.899 732.961C812.526 734.318 815.14 737.344 816.589 740.865C817.939 744.147 818.158 747.48 816.701 750.774C814.583 755.563 810.512 758.287 805.801 760.068C800.679 760.868 795.1 760.514 789.921 760.498L762.572 760.274Q750.646 760.143 738.72 760.157C733.933 760.2 729.044 760.556 724.267 760.322C721.974 760.21 719.682 759.831 717.56 758.931C713.999 757.42 711.099 754.573 709.772 750.913C708.451 747.272 708.884 743.349 710.705 739.965C712.984 735.727 716.685 733.368 721.203 732.092Z"/>
	<path fill="#F6E00C" d="M877.068 886.605C891.509 885.571 906.408 886.426 920.915 886.451C933.459 886.472 946.293 885.715 958.806 886.375C961.173 886.5 963.552 886.859 965.779 887.699C969.767 889.202 973.166 892.103 974.777 896.107C976.257 899.786 976.006 903.933 974.408 907.526C972.377 912.09 968.808 914.576 964.276 916.311C956.593 918.102 933.436 916.718 924.399 916.675C910.535 916.609 896.228 917.369 882.418 916.459C879.721 916.281 876.674 915.896 874.15 914.915C870.669 913.562 867.972 910.444 866.702 906.989C865.407 903.465 865.196 898.131 866.805 894.67C868.832 890.308 872.806 888.24 877.068 886.605Z"/>
	<path fill="#F6E00C" d="M1024 800.052L950.832 799.84C939.237 799.835 925.273 800.946 914.026 799.545C910.805 799.144 907.918 798.291 905.403 796.149C902.084 793.324 900.407 789.082 900.265 784.783C900.133 780.76 901.363 776.982 904.208 774.08C906.844 771.391 910.267 769.99 913.937 769.41C923.535 767.893 936.92 769.023 946.906 768.961Q985.453 768.536 1024 768.867L1024 800.052Z"/>
</svg>
