<?xml version="1.0" encoding="utf-8" ?>
<svg xmlns="http://www.w3.org/2000/svg" xmlns:xlink="http://www.w3.org/1999/xlink" width="1024" height="1024">
	<path d="M0 0L1024 0L1024 1024L0 1024L0 0Z"/>
	<path fill="#FDF121" d="M940.101 754.556C942.179 754.436 944.423 754.211 946.411 754.957Q946.985 755.172 947.534 755.444Q948.083 755.717 948.6 756.046Q949.118 756.374 949.598 756.755Q950.079 757.135 950.517 757.563Q950.956 757.991 951.348 758.463Q951.739 758.934 952.08 759.444Q952.421 759.953 952.707 760.495Q952.993 761.037 953.221 761.606Q953.433 762.142 953.59 762.696Q953.747 763.25 953.847 763.818Q953.948 764.385 953.992 764.959Q954.035 765.534 954.021 766.11Q954.007 766.686 953.936 767.257Q953.864 767.829 953.736 768.391Q953.607 768.952 953.423 769.498Q953.24 770.044 953.002 770.569C951.41 774.03 948.844 775.656 945.407 776.977C943.597 777.124 941.832 777.221 940.06 776.735C936.857 775.856 934.001 773.715 932.518 770.708C931.166 767.966 930.872 764.765 931.953 761.881C933.458 757.868 936.342 756.186 940.101 754.556Z"/>
	<path fill="#FDF121" d="M107.419 596.611C109.274 596.731 111.228 596.985 112.902 597.834Q113.408 598.084 113.887 598.385Q114.366 598.685 114.812 599.031Q115.258 599.378 115.667 599.768Q116.076 600.157 116.444 600.586Q116.812 601.015 117.134 601.478Q117.457 601.942 117.732 602.435Q118.007 602.929 118.231 603.448Q118.454 603.966 118.625 604.505Q118.812 605.086 118.938 605.683Q119.064 606.281 119.127 606.888Q119.19 607.495 119.191 608.105Q119.191 608.716 119.128 609.323Q119.065 609.93 118.94 610.527Q118.814 611.125 118.628 611.706Q118.441 612.287 118.196 612.846Q117.95 613.405 117.648 613.935C115.622 617.432 112.81 618.63 109.065 619.645C106.672 619.585 104.418 619.249 102.305 618.045C99.5476 616.474 97.4855 613.894 96.7358 610.794Q96.6032 610.257 96.5245 609.709Q96.4458 609.161 96.4219 608.608Q96.3979 608.054 96.4288 607.502Q96.4597 606.949 96.5453 606.402Q96.6309 605.855 96.7702 605.319Q96.9095 604.784 97.1013 604.264Q97.293 603.745 97.5353 603.247Q97.7776 602.749 98.068 602.278C100.296 598.687 103.464 597.477 107.419 596.611Z"/>
	<path fill="#FDF121" d="M704.057 66.6199C706.124 66.5405 708.127 66.5274 710.1 67.2369C712.934 68.2555 715.395 70.4541 716.656 73.1968Q716.92 73.7579 717.123 74.3437Q717.327 74.9295 717.467 75.5334Q717.608 76.1373 717.684 76.7526Q717.761 77.3679 717.772 77.9879Q717.783 78.6078 717.73 79.2256Q717.676 79.8433 717.557 80.4519Q717.439 81.0605 717.257 81.6534Q717.075 82.2462 716.832 82.8166C715.254 86.523 712.725 88.2144 709.112 89.6885C706.781 89.9937 704.61 90.0553 702.364 89.2381Q701.827 89.0445 701.313 88.7971Q700.798 88.5497 700.312 88.2509Q699.825 87.9522 699.372 87.6053Q698.918 87.2585 698.503 86.8671Q698.087 86.4757 697.714 86.0438Q697.341 85.612 697.013 85.1443Q696.686 84.6766 696.408 84.1778Q696.13 83.6791 695.905 83.1546Q695.665 82.5922 695.483 82.0085Q695.301 81.4248 695.178 80.8257Q695.056 80.2266 694.994 79.6182Q694.933 79.0098 694.933 78.3983Q694.933 77.7868 694.994 77.1784Q695.056 76.5701 695.179 75.971Q695.301 75.3719 695.484 74.7882Q695.666 74.2046 695.906 73.6422C697.558 69.7924 700.265 68.0325 704.057 66.6199Z"/>
	<path fill="#FDF121" d="M794.533 959.56C796.883 959.33 799.311 959.206 801.565 960.034C804.756 961.206 807.433 963.708 808.701 966.872Q808.918 967.401 809.081 967.949Q809.244 968.497 809.352 969.058Q809.46 969.62 809.511 970.189Q809.563 970.759 809.557 971.331Q809.552 971.902 809.489 972.471Q809.427 973.039 809.308 973.598Q809.189 974.158 809.016 974.703Q808.842 975.247 808.615 975.772C807.13 979.12 804.403 981.143 801.093 982.473C798.729 982.728 796.182 982.839 793.907 982.049Q793.309 981.843 792.736 981.577Q792.163 981.31 791.621 980.986Q791.079 980.661 790.573 980.282Q790.068 979.903 789.604 979.473Q789.14 979.044 788.724 978.568Q788.307 978.093 787.943 977.577Q787.578 977.061 787.268 976.51Q786.959 975.959 786.708 975.379C785.53 972.58 785.43 969.382 786.614 966.566C788.167 962.872 791.012 961.112 794.533 959.56Z"/>
	<path fill="#FDF121" d="M64.6699 234.052C67.2293 233.777 69.7558 233.866 72.1633 234.856C75.0241 236.033 77.4105 238.307 78.5823 241.183Q78.7939 241.704 78.952 242.244Q79.1102 242.784 79.2134 243.337Q79.3165 243.89 79.3637 244.451Q79.4108 245.011 79.4014 245.574Q79.392 246.136 79.3262 246.695Q79.2604 247.254 79.1389 247.803Q79.0173 248.352 78.8412 248.887Q78.6651 249.421 78.4363 249.935C76.8367 253.507 74.1104 255.288 70.6157 256.731C68.0023 257.054 65.3373 257.223 62.8292 256.251Q62.2949 256.046 61.7839 255.789Q61.2728 255.531 60.7901 255.224Q60.3075 254.917 59.858 254.563Q59.4086 254.209 58.9969 253.811Q58.5853 253.414 58.2156 252.977Q57.8458 252.54 57.5218 252.069Q57.1977 251.597 56.9225 251.095Q56.6474 250.594 56.4239 250.067C55.1541 247.032 55.1431 243.517 56.5712 240.532C58.2781 236.965 61.1 235.366 64.6699 234.052Z"/>
	<path fill="#FDF121" d="M935.651 276.108C937.988 275.969 940.354 276.067 942.538 277.003Q943.104 277.244 943.641 277.543Q944.179 277.842 944.682 278.196Q945.185 278.549 945.649 278.954Q946.113 279.358 946.531 279.808Q946.95 280.259 947.32 280.75Q947.689 281.242 948.005 281.77Q948.321 282.297 948.58 282.855Q948.84 283.413 949.039 283.995Q949.22 284.528 949.349 285.077Q949.477 285.626 949.55 286.184Q949.623 286.743 949.642 287.306Q949.66 287.869 949.622 288.432Q949.585 288.994 949.492 289.55Q949.4 290.105 949.253 290.649Q949.106 291.193 948.907 291.72Q948.707 292.247 948.457 292.752C946.649 296.356 943.584 298.259 939.862 299.487C937.577 299.599 935.329 299.563 933.183 298.666Q932.647 298.441 932.136 298.164Q931.625 297.887 931.144 297.562Q930.662 297.236 930.216 296.864Q929.769 296.492 929.361 296.077Q928.954 295.663 928.589 295.211Q928.224 294.758 927.906 294.272Q927.588 293.785 927.319 293.27Q927.05 292.754 926.834 292.215Q926.604 291.642 926.435 291.049Q926.266 290.455 926.16 289.847Q926.053 289.239 926.01 288.623Q925.968 288.008 925.989 287.391Q926.01 286.774 926.096 286.163Q926.181 285.552 926.329 284.953Q926.478 284.353 926.687 283.773Q926.897 283.193 927.166 282.637C928.921 279.023 931.959 277.269 935.651 276.108Z"/>
	<path fill="#FDF121" d="M277.942 75.6139C280.087 75.8524 282.089 76.3091 283.978 77.4021C286.729 78.9939 288.699 81.495 289.484 84.5874Q289.633 85.1846 289.719 85.7941Q289.804 86.4036 289.826 87.0188Q289.847 87.6339 289.804 88.2479Q289.761 88.8619 289.654 89.468Q289.547 90.0741 289.377 90.6657Q289.207 91.2573 288.976 91.8278Q288.745 92.3984 288.456 92.9417Q288.167 93.485 287.822 93.995C285.425 97.5541 282.382 98.7718 278.297 99.4758C276.159 99.1699 274.176 98.7023 272.298 97.5851C269.269 95.7844 267.053 92.9422 266.335 89.4644Q266.22 88.9193 266.16 88.3652Q266.101 87.8112 266.098 87.254Q266.095 86.6968 266.149 86.1422Q266.203 85.5875 266.312 85.0412Q266.422 84.495 266.587 83.9627Q266.752 83.4304 266.97 82.9176Q267.188 82.4048 267.457 81.9168Q267.726 81.4288 268.043 80.9706C270.52 77.4393 273.863 76.321 277.942 75.6139Z"/>
	<path fill="#FDF121" d="M213.183 894.53C214.911 894.436 216.767 894.363 218.445 894.84Q219.057 895.016 219.649 895.253Q220.24 895.491 220.804 895.787Q221.368 896.084 221.898 896.437Q222.429 896.79 222.92 897.195Q223.412 897.6 223.86 898.054Q224.308 898.507 224.706 899.004Q225.105 899.5 225.451 900.035Q225.798 900.57 226.087 901.138Q226.372 901.695 226.597 902.28Q226.822 902.864 226.985 903.469Q227.147 904.074 227.245 904.692Q227.343 905.31 227.375 905.936Q227.408 906.561 227.374 907.186Q227.341 907.812 227.242 908.43Q227.143 909.048 226.979 909.653Q226.816 910.257 226.59 910.841C224.949 914.976 221.905 916.788 217.97 918.357C215.745 918.535 213.703 918.46 211.599 917.621Q210.993 917.384 210.415 917.087Q209.837 916.789 209.293 916.433Q208.748 916.077 208.244 915.667Q207.739 915.256 207.28 914.796Q206.82 914.336 206.411 913.831Q206.001 913.326 205.646 912.781Q205.291 912.236 204.994 911.658Q204.697 911.079 204.461 910.473Q204.249 909.929 204.093 909.367Q203.936 908.805 203.837 908.229Q203.737 907.654 203.696 907.072Q203.655 906.49 203.672 905.906Q203.689 905.323 203.764 904.744Q203.84 904.165 203.972 903.597Q204.105 903.029 204.294 902.477Q204.484 901.924 204.727 901.394C206.45 897.633 209.434 895.858 213.183 894.53Z"/>
	<path fill="#FDF121" d="M614.494 944.579C617.362 944.275 619.96 944.063 622.651 945.296Q623.218 945.55 623.756 945.86Q624.294 946.17 624.799 946.533Q625.303 946.895 625.769 947.306Q626.235 947.717 626.657 948.173Q627.079 948.629 627.453 949.124Q627.827 949.62 628.15 950.151Q628.473 950.682 628.741 951.242Q629.009 951.802 629.219 952.387C630.261 955.305 630.184 958.604 628.834 961.411C627.176 964.861 624.428 966.562 620.969 967.871C618.765 968.06 616.47 968.191 614.327 967.535Q613.72 967.349 613.135 967.101Q612.551 966.853 611.995 966.546Q611.439 966.24 610.917 965.877Q610.396 965.515 609.914 965.101Q609.433 964.687 608.996 964.225Q608.56 963.764 608.174 963.26Q607.787 962.756 607.455 962.215Q607.122 961.674 606.847 961.102Q606.599 960.584 606.404 960.043Q606.208 959.503 606.067 958.946Q605.926 958.388 605.841 957.82Q605.757 957.252 605.729 956.678Q605.7 956.104 605.729 955.53Q605.758 954.956 605.844 954.388Q605.93 953.82 606.072 953.263Q606.214 952.706 606.41 952.166C607.896 948.153 610.736 946.228 614.494 944.579Z"/>
	<path fill="#FDF121" d="M944.137 903.869C945.524 905.549 946.395 908.485 947.294 910.504C951.816 920.656 955.881 921.765 965.69 926.128C952.599 931.844 950.629 934.71 944.853 947.279C943.372 947.514 939.441 937.282 938.482 935.749C935.266 930.609 928.697 928.504 923.34 926.358C936.117 919.363 939.201 918.521 944.137 903.869Z"/>
	<path fill="#FDF121" d="M92.5848 739.771C95.77 742.667 96.2663 748.151 98.1022 751.846C101.075 757.828 110.545 760.394 116.445 762.509C101.194 769.412 99.5743 770.47 93.5008 786.267C93.285 786.248 93.0396 786.321 92.8535 786.21C92.7207 786.131 87.8904 774.316 87.0401 772.857C84.0491 767.722 75.2503 765.78 70.1823 763.093L69.6994 762.831C72.5127 761.723 75.3532 760.642 78.1222 759.427C87.0679 755.504 89.3359 748.157 92.5848 739.771Z"/>
	<path fill="#FDF121" d="M109.375 53.4171C110.658 54.8863 111.454 57.9074 112.155 59.7539C117.133 72.8702 121.317 74.5554 133.275 80.4998C116.319 88.9479 116.449 90.3624 109.393 107.851C102.117 90.9346 101.464 88.4586 84.4695 80.543L85.7859 80.0049C101.494 73.5486 103.192 68.1869 109.375 53.4171Z"/>
	<path fill="#FDF121" d="M97.4714 919.073C104.516 920.785 98.88 931.256 103.673 934.716C107.94 937.796 113.866 927.522 118.36 927.466C118.815 927.951 119.254 928.193 119.318 928.898C119.579 931.758 115.23 936.307 113.555 938.619C112.505 940.069 111.677 941.278 111.986 943.158C113.996 946.204 121.726 945.463 125.217 946.325C126.8 946.715 127.593 947.16 128.465 948.529L128.171 949.672C124.856 952.313 118.941 951.165 114.883 951.952C113.237 952.271 112.563 953.028 111.699 954.383C111.265 958.327 116.55 961.607 118.491 964.792C119.169 965.905 119.385 966.887 119.114 968.17C116.602 969.797 107.571 961.073 103.632 960.959C101.323 963.134 102.186 968.426 101.762 971.491C101.397 974.123 101.119 975.482 98.935 977.114C94.9378 973.228 96.1277 965.202 94.3014 960.096C90.2051 959.896 85.6414 968.394 80.7246 969.303C79.3972 968.737 79.4008 968.621 78.6746 967.354C78.7075 963.378 83.1784 960.593 85.1891 957.324C86.0172 955.978 86.0648 955.08 85.671 953.591C82.714 950.633 76.3463 951.497 72.2689 950.733C70.6517 950.43 69.8352 950.117 68.9355 948.734L69.3489 947.482C72.1741 945.143 77.3596 945.768 80.8874 945.574C82.905 945.463 84.5472 945.319 85.9542 943.744C86.4809 938.609 79.0908 935.516 78.2703 930.832C78.0176 929.389 78.2127 929.135 78.9501 927.972C82.2781 927.209 86.011 932.088 88.8658 933.777C90.6095 934.808 91.8423 935.175 93.8206 934.688C96.7489 931.737 95.9085 923.253 97.4714 919.073Z"/>
	<path fill="#FDF121" d="M88.8605 387.152C89.7229 387.284 90.8369 387.264 91.5293 387.822C94.8243 390.48 94.3257 401.32 94.5406 405.3C98.3368 402.9 104.51 396.292 108.387 395.421C109.631 395.142 110.314 395.494 111.286 396.186L111.408 397.544C109.372 402.925 104.059 407.783 100.298 412.088C105.419 412.227 115.594 411.447 119.475 415.009L119.385 415.861C115.178 419.858 105.776 419.512 100.253 420.088C103.027 423.661 111.462 430.571 111.975 434.563C111.569 435.673 111.566 435.773 110.598 436.431C105.534 436.464 98.5645 429.277 94.7427 426.087C93.5625 431.874 95.2476 439.604 90.8709 444.098C90.2798 443.877 89.6495 443.641 89.149 443.244C86.1736 440.883 86.255 430.206 85.5913 426.375C82.2319 429.119 75.092 436.535 70.6974 436.68C69.4111 436.723 69.2171 436.617 68.4098 435.748C67.8145 431.422 76.8443 423.158 79.503 419.596C74.6327 419.311 68.0413 419.582 63.5873 417.596C62.3528 417.046 61.9005 416.705 61.4168 415.456L62.0606 414.455C67.2689 411.482 74.1347 411.972 79.9725 411.872C76.9222 408.569 69.3635 401.821 69.0642 397.306C69.0004 396.344 69.1716 396.461 69.7765 395.818C75.0592 395.405 82.3311 402.589 86.3462 405.735C86.4897 399.523 86.5086 392.99 88.8605 387.152Z"/>
	<path fill="#FDF121" d="M937.177 562.799C937.781 563.117 938.101 563.222 938.577 563.697C941.777 566.895 941.59 577.423 941.932 581.862C945.901 578.33 950.436 573.616 955.443 571.681C956.626 571.224 957.216 571.044 958.422 571.554C958.474 571.73 958.549 571.9 958.577 572.082C959.271 576.516 951.199 585.173 948.598 588.469C953.321 588.429 961.244 588.147 965.221 590.79C966.223 591.456 966.247 591.65 966.492 592.756C966.202 593.29 966.196 593.383 965.691 593.861C962.338 597.032 952.193 596.494 947.958 596.527C950.49 599.328 953.109 602.136 955.395 605.145C956.893 607.116 958.634 609.664 958.247 612.244L957.34 612.896C952.008 612.792 945.634 606.159 941.662 602.857C941.378 607.6 941.347 612.609 940.244 617.235C939.704 619.504 939.175 620.565 937.177 621.806C933.059 617.585 933.532 608.661 933.02 603.072C928.427 606.185 921.924 613.812 916.324 614.031C915.847 613.628 915.418 613.523 915.414 612.841C915.389 608.479 923.139 599.769 926.269 596.595C921.331 596.541 913.203 596.891 909.08 593.997C908.161 593.352 908.176 593.106 907.964 592.068C908.21 591.644 908.341 591.351 908.75 591.015C912.439 587.982 921.614 588.535 926.34 588.406C923.667 584.255 919.973 580.719 917.518 576.446C916.672 574.975 915.404 572.917 915.891 571.17C916.103 571.12 916.31 571.023 916.528 571.019C920.174 570.961 930.195 579.212 933.607 581.651C933.502 575.427 933.457 568.055 937.177 562.799Z"/>
	<path fill="#FDF121" d="M569.197 38.7352C576.551 40.5333 571.875 49.0536 575.347 54.0226C578.241 54.6868 585.167 47.2061 588.469 45.9316C589.556 45.5122 589.735 45.5096 590.755 45.9322C593.105 52.3953 584.401 55.8246 582.961 60.4455C582.739 61.1573 583.099 61.4961 583.395 62.1172C586.914 64.4512 591.182 63.7546 595.192 64.2688C596.974 64.4973 598.165 64.8139 599.301 66.2787C599.364 67.4047 599.522 68.0291 598.671 68.9316C596.254 71.494 588.934 71.4065 585.453 71.744L582.497 74.766C585.335 77.4098 591.412 83.4458 591.76 87.3229C591.046 88.3608 590.644 88.9039 589.495 89.4506C585.695 89.27 581.405 84.0032 578.296 81.8308C577.237 81.0909 576.278 80.6346 574.963 80.836C572.728 82.9983 573.52 91.8655 572.446 95.5208C572.394 95.6969 572.338 95.872 572.285 96.0476C572.038 96.2162 571.805 96.4061 571.544 96.5533C570.362 97.2231 570 97.3103 568.736 97.067C566.143 94.3425 567.22 87.71 566.333 84.0506C566.024 82.7728 565.588 81.8372 564.443 81.122C559.699 80.6758 556.418 87.9385 551.919 88.7827C550.771 88.998 549.77 88.9845 548.84 88.1648C544.843 84.6428 556.431 77.7463 556.565 72.9726C554.981 69.768 546.1 72.0556 542.865 70.1559C541.713 69.4799 541.711 69.1895 541.412 67.9822C542.906 63.0247 552.164 65.6518 556.412 63.3528C559.363 59.2693 548.956 53.8008 548.235 49.2524C548.699 47.8932 548.733 47.9025 549.948 47.1234C554.203 46.7918 560.308 53.287 564.409 55.1728C564.613 55.2667 564.819 55.356 565.024 55.4476C566.937 50.0831 566.263 43.6209 569.197 38.7352Z"/>
	<path fill="#FDF121" d="M901.746 44.197C902.189 44.2379 902.866 44.2831 903.279 44.4044C909.335 46.1833 905.039 59.2383 907.711 63.7269C908.33 64.766 909.127 65.555 910.358 65.7229C914.833 66.3332 919.158 60.8049 922.54 58.4154C924.293 57.1772 927.096 55.4716 929.344 56.0769C930.095 56.2793 930.045 56.613 930.359 57.244C929.589 62.2783 924.419 65.9736 921.698 70.0793C920.379 72.0693 919.644 73.6864 920.084 76.0872C923.687 81.637 934.762 78.0641 939.984 81.56C940.581 82.9017 940.52 82.8973 940.114 84.3212C935.408 88.8475 926.387 85.1222 920.863 87.8379C919.552 88.4823 919.45 88.7481 918.885 90.0099C919.408 94.6082 926.214 99.9307 928.847 103.91C929.74 105.259 930.232 106.31 929.904 107.963C929.133 108.892 928.933 109.044 927.813 109.491C922.805 108.668 918.165 102.357 913.916 99.5585C912.339 98.5199 911.385 98.2137 909.53 98.6173C904.145 103.395 909.144 113.956 905.336 119.632C904.531 120.832 903.276 120.949 901.969 121.165C898.053 116.259 900.437 107.495 899.099 101.599C898.72 99.928 898.172 99.2417 896.755 98.333C889.461 98.0478 885.646 107.901 879.734 109.172C878.339 109.471 877.996 109.303 876.797 108.697C876.491 108.24 876.06 107.845 875.877 107.325C874.731 104.066 886.339 95.654 886.926 90.7658C887.014 90.0283 886.621 89.4154 886.085 88.9186C883.461 86.4849 875.499 87.1622 871.884 86.8137C869.436 86.5777 866.393 86.3959 864.734 84.3941C864.521 83.0214 864.543 82.9514 865.175 81.7112C869.035 79.1172 875.953 80.0254 880.562 79.386C882.887 79.0635 884.708 78.7663 886.2 76.785C888.144 69.5845 877.68 64.9386 875.997 58.9317C875.608 57.5418 875.747 57.3612 876.455 56.2262C882.039 53.4775 889.528 66.7182 896.742 66.4161C901.819 63.5282 898.128 49.8927 901.746 44.197Z"/>
	<path fill="#FDF121" d="M454.883 902.713C456.151 902.827 456.756 902.975 457.807 903.703C460.651 908.307 460.242 917.03 460.657 922.371C462.089 923.406 463.797 924.121 465.384 924.898C470.194 921.643 474.41 917.363 479.329 914.319C480.587 913.541 480.949 913.426 482.404 913.721C483.564 914.706 483.829 914.681 484.038 916.161C482.219 921.741 476.822 927.183 473.215 931.771L476.236 937.945Q476.896 937.951 477.555 937.975C481.828 938.121 492.869 938.169 495.751 941.223C496.05 942.587 496.072 942.738 495.58 944.038C492.116 946.538 480.74 946.674 476.106 947.219L473.429 953.713C476.385 956.997 482.798 962.791 483.638 967.021C483.886 968.265 483.526 968.522 482.886 969.542C476.687 972.495 471.186 959.805 465.026 960.487C458.762 961.18 460.9 977.294 457.029 982.272C456.26 982.014 455.434 981.774 454.803 981.234C451.772 978.637 451.751 966.28 451.231 962.388L446.023 960.085C442.968 963.116 439.465 966.331 435.774 968.566C433.893 969.705 432.298 970.409 430.08 969.828C429.009 968.89 428.796 968.713 428.348 967.377C430.11 962.323 436.432 957.901 439.972 953.824C439.192 951.334 438.162 948.951 437.156 946.546C432.496 946.605 425.153 946.533 420.831 944.777C419.65 944.296 418.703 943.605 418.208 942.4C417.908 941.671 418.17 941.444 418.416 940.755C421.613 938.336 432.274 938.611 436.73 937.627C436.946 937.579 437.16 937.526 437.375 937.476L439.798 932.377C436.544 928.363 430.779 923.054 428.921 918.277C428.432 917.023 428.421 916.475 428.949 915.263C434.8 912.624 441.857 924.165 448.232 924.441C453.946 922.163 450.259 907.87 454.883 902.713Z"/>
	<path fill="#FDF121" d="M253.522 840.605C269.341 841.334 285.259 841.045 301.094 841.042L380.562 841.047C373.074 859.171 366.123 877.513 358.629 895.635L277.187 895.541Q265.004 868.224 253.522 840.605Z"/>
	<path fill="#FDF121" d="M644.032 840.66C674.375 841.665 704.917 840.916 735.283 840.979C746.292 841.001 758.077 839.872 768.988 840.979C761.522 859.131 755.573 878.056 748.859 896.514L667.803 896.512Q655.63 868.708 644.032 840.66Z"/>
	<path fill="#FDD221" d="M253.522 840.605L227.438 840.611C209.348 840.595 194.636 840.386 180.852 826.736C165.017 811.055 166.391 793.138 166.423 772.531L166.35 368.308L166.392 246.994L166.397 212.62C166.386 205.154 165.957 197.341 166.873 189.93C168.101 179.985 173.389 169.653 180.442 162.594C187.721 155.309 197.926 149.852 208.176 148.468C216.435 147.354 224.985 147.686 233.307 147.681L269.713 147.677L391.176 147.646L795.773 147.723C814.141 147.839 828.059 148.638 841.86 162.512Q842.636 163.277 843.379 164.074Q844.121 164.871 844.829 165.699Q845.538 166.527 846.21 167.385Q846.882 168.242 847.517 169.128Q848.152 170.013 848.749 170.925Q849.346 171.836 849.904 172.772Q850.461 173.708 850.978 174.667Q851.496 175.626 851.971 176.607Q852.447 177.587 852.881 178.586Q853.315 179.586 853.706 180.603Q854.096 181.62 854.444 182.653Q854.791 183.685 855.094 184.732Q855.397 185.779 855.655 186.837Q855.913 187.896 856.126 188.964Q856.339 190.033 856.506 191.11Q856.673 192.186 856.794 193.269C857.779 201.585 857.338 210.222 857.325 218.595L857.318 258.453L857.448 399.47L857.444 671.656C857.452 713.657 857.998 755.735 857.481 797.727C857.328 810.212 853.318 820.358 844.275 829.1C832.736 840.256 819.181 840.848 804.002 840.88L780.904 840.807C777.07 840.792 772.763 840.449 768.988 840.979C758.077 839.872 746.292 841.001 735.283 840.979C704.917 840.916 674.375 841.665 644.032 840.66C620.746 841.109 597.395 840.625 574.098 840.653L437.123 840.87C428.967 840.868 384.645 839.818 380.562 841.047L301.094 841.042C285.259 841.045 269.341 841.334 253.522 840.605Z"/>
	<path d="M293.78 233.149C295.916 232.831 298.228 232.919 300.392 232.908L605.959 232.887L693.666 233.043L720.629 233.067C726.252 233.078 732.061 232.823 737.641 233.537C745.675 234.564 753.397 238.588 759.097 244.294C768.472 253.68 770.315 265.229 770.361 277.982L770.303 587.011L770.319 675.984L770.299 702.773C770.28 708.342 770.541 714.377 769.675 719.88C768.422 727.841 764.112 735.306 758.436 740.941C746.507 752.783 733.699 753.153 717.897 753.105L694.75 753.005L409.49 752.92L330.736 752.515L306.012 752.574C300.949 752.59 295.54 752.919 290.52 752.264C283.006 751.286 276.306 747.669 270.991 742.322Q270.075 741.39 269.227 740.397Q268.378 739.403 267.602 738.352Q266.826 737.3 266.126 736.197Q265.426 735.094 264.805 733.944Q264.185 732.794 263.646 731.603Q263.108 730.413 262.656 729.187Q262.203 727.961 261.837 726.707Q261.472 725.452 261.196 724.175C259.21 715.094 260.417 703.122 260.431 693.712L260.524 636.907L259.727 636.929C253.173 637.103 247.614 637.026 242.65 632.097C239.303 628.774 238.965 623.529 238.915 619.038C238.805 609.248 238.015 589.502 239.501 580.741C240.029 577.63 240.923 574.216 243.257 571.966C248.223 567.178 254.092 567.279 260.527 567.466C260.843 549.667 260.582 531.811 260.58 514.005L260.436 405.513C254.864 405.505 249.268 405.172 244.712 401.552C240.565 398.257 239.216 394.164 238.767 389.003C238.171 382.146 238.578 374.937 238.584 368.049C238.589 361.287 237.997 353.859 239.075 347.179C239.573 344.091 240.693 340.293 242.829 337.916C247.34 332.897 253.863 332.888 260.056 332.667L260.065 289.555C260.059 280.871 259.29 271.488 260.961 262.946Q261.331 260.994 261.911 259.094Q262.492 257.194 263.276 255.368Q264.061 253.543 265.04 251.814Q266.018 250.085 267.18 248.473C273.681 239.509 283.048 234.871 293.78 233.149Z"/>
	<path fill="#5ED7CD" d="M298.527 257.224L582.33 257.25L680.574 257.134C696.9 257.113 713.815 256.203 730.086 257.265C733.925 257.516 737.738 258.588 740.545 261.356C744.487 265.243 745.135 269.801 745.23 275.086C745.76 304.453 745.253 333.908 745.309 363.285L745.415 560.123L745.183 657.906L745.426 693.676C745.473 700.376 745.826 707.267 745.323 713.945C745.048 717.608 743.015 721.129 740.439 723.674C738.403 725.685 735.9 726.989 733.098 727.564C725.308 729.162 716.059 728.17 708.055 728.176L659.25 728.177L356.01 728.426L314.651 728.52C308.165 728.525 300.698 729.219 294.33 728.228C291.92 727.853 288.965 726.291 287.331 724.486C285.777 722.768 285.262 718.78 285.065 716.569C284.292 707.925 284.957 698.734 284.969 690.031L285.049 636.819C294.83 636.769 309.812 639.427 317.51 632.357C321.817 628.402 322.758 624.186 323.011 618.594C323.344 611.246 324.001 585.848 322.279 579.729C321.554 577.152 319.982 574.675 318.133 572.759C310.792 565.149 294.797 567.476 284.97 567.509L285.176 405.897C294.895 405.814 307.541 408.036 315.032 400.47C322.327 393.103 320.144 377.312 320.147 367.581C320.151 357.82 322.16 345.254 314.454 337.853C307.391 331.068 294.085 333.056 284.905 333.157C284.728 319.497 284.882 305.812 284.868 292.15C284.861 284.998 284.211 277.159 285.045 270.075C285.359 267.4 285.924 264.998 287.587 262.822C290.264 259.317 294.297 257.787 298.527 257.224Z"/>
	<path d="M696.273 467.16C702.12 466.95 707.534 467.979 712.494 471.246Q712.998 471.575 713.485 471.93Q713.972 472.285 714.441 472.664Q714.909 473.042 715.358 473.444Q715.806 473.847 716.234 474.271Q716.661 474.695 717.067 475.141Q717.472 475.586 717.855 476.052Q718.237 476.517 718.596 477.001Q718.954 477.485 719.287 477.987Q719.621 478.489 719.928 479.007Q720.236 479.525 720.517 480.058Q720.797 480.591 721.051 481.137Q721.304 481.684 721.53 482.242Q721.755 482.801 721.952 483.37Q722.149 483.94 722.317 484.518Q722.484 485.097 722.623 485.683Q722.761 486.269 722.869 486.862Q722.981 487.488 723.062 488.119Q723.143 488.75 723.192 489.384Q723.242 490.018 723.259 490.653Q723.276 491.289 723.262 491.925Q723.248 492.561 723.201 493.195Q723.155 493.829 723.077 494.46Q722.999 495.092 722.89 495.718Q722.78 496.345 722.64 496.965Q722.499 497.585 722.327 498.197Q722.156 498.81 721.954 499.413Q721.752 500.016 721.52 500.608Q721.288 501.2 721.027 501.78Q720.765 502.36 720.475 502.926Q720.186 503.492 719.868 504.043Q719.55 504.593 719.205 505.128Q718.859 505.662 718.488 506.178C714.275 512.041 708.482 514.733 701.526 515.782C695.676 516.163 690.233 515.139 685.245 511.894Q684.717 511.544 684.207 511.168Q683.697 510.792 683.207 510.39Q682.717 509.988 682.249 509.561Q681.78 509.134 681.334 508.684Q680.888 508.234 680.466 507.761Q680.044 507.289 679.646 506.795Q679.249 506.302 678.878 505.788Q678.506 505.275 678.161 504.743Q677.817 504.212 677.5 503.663Q677.183 503.114 676.894 502.55Q676.606 501.986 676.347 501.407Q676.088 500.829 675.859 500.238Q675.63 499.647 675.432 499.046Q675.234 498.444 675.067 497.832Q674.9 497.221 674.764 496.602Q674.629 495.983 674.525 495.358Q674.414 494.74 674.336 494.118Q674.257 493.496 674.21 492.87Q674.164 492.244 674.149 491.617Q674.135 490.99 674.152 490.363Q674.17 489.736 674.22 489.11Q674.27 488.485 674.352 487.863Q674.434 487.241 674.548 486.624Q674.662 486.007 674.807 485.397Q674.953 484.786 675.129 484.184Q675.306 483.582 675.513 482.99Q675.72 482.398 675.957 481.817Q676.195 481.237 676.462 480.669Q676.728 480.101 677.024 479.548Q677.32 478.994 677.644 478.457Q677.967 477.92 678.318 477.399Q678.669 476.879 679.046 476.378C683.359 470.697 689.379 468.07 696.273 467.16Z"/>
	<path fill="#FEFEFD" d="M504.57 339.211C539.386 336.424 579.37 349.84 606.101 371.994Q607.613 373.237 609.094 374.518Q610.575 375.798 612.024 377.115Q613.473 378.432 614.889 379.784Q616.304 381.137 617.686 382.524Q619.068 383.911 620.415 385.332Q621.762 386.753 623.073 388.207Q624.384 389.66 625.659 391.146Q626.933 392.633 628.171 394.15Q629.408 395.667 630.608 397.214Q631.807 398.762 632.968 400.338Q634.129 401.915 635.25 403.52Q636.371 405.125 637.452 406.757Q638.533 408.39 639.573 410.048Q640.613 411.707 641.612 413.391Q642.611 415.075 643.567 416.783Q644.524 418.491 645.438 420.223Q646.352 421.954 647.222 423.708Q648.093 425.461 648.92 427.236Q649.747 429.011 650.529 430.805Q651.312 432.6 652.05 434.413Q652.788 436.227 653.48 438.058Q654.173 439.889 654.82 441.737Q655.467 443.585 656.068 445.448Q656.669 447.311 657.223 449.189Q657.778 451.067 658.286 452.958Q658.793 454.849 659.254 456.751Q659.715 458.654 660.128 460.568Q660.541 462.482 660.907 464.405Q661.273 466.328 661.591 468.26Q661.909 470.192 662.179 472.131Q662.448 474.07 662.67 476.016Q662.892 477.961 663.065 479.911C666.553 517.922 653.239 559.377 628.85 588.615C600.962 622.049 564.918 641.034 521.625 644.927C482.446 647.05 444.482 634.924 414.77 608.932Q413.339 607.696 411.938 606.426Q410.538 605.155 409.169 603.85Q407.8 602.545 406.464 601.207Q405.128 599.869 403.826 598.498Q402.523 597.128 401.255 595.725Q399.986 594.323 398.753 592.889Q397.519 591.456 396.322 589.992Q395.124 588.529 393.963 587.036Q392.802 585.544 391.678 584.023Q390.554 582.502 389.468 580.954Q388.382 579.406 387.334 577.832Q386.287 576.258 385.278 574.658Q384.27 573.058 383.302 571.434Q382.333 569.81 381.405 568.163Q380.477 566.515 379.589 564.845Q378.702 563.175 377.857 561.484Q377.011 559.793 376.207 558.081Q375.403 556.369 374.642 554.638Q373.881 552.907 373.163 551.158Q372.444 549.409 371.77 547.642Q371.095 545.876 370.464 544.093Q369.833 542.31 369.246 540.513Q368.659 538.715 368.117 536.904Q367.574 535.092 367.077 533.268Q366.579 531.443 366.127 529.607Q365.675 527.771 365.268 525.924Q364.861 524.078 364.5 522.221Q364.139 520.365 363.824 518.501Q363.509 516.636 363.24 514.764Q362.971 512.893 362.748 511.015Q362.525 509.137 362.349 507.254Q362.173 505.371 362.043 503.485Q361.905 501.562 361.815 499.637Q361.725 497.711 361.682 495.784Q361.64 493.856 361.646 491.929Q361.651 490.001 361.704 488.074Q361.758 486.147 361.859 484.222Q361.96 482.297 362.109 480.375Q362.258 478.453 362.454 476.535Q362.65 474.618 362.894 472.705Q363.138 470.793 363.43 468.888Q363.721 466.982 364.06 465.084Q364.398 463.186 364.784 461.298Q365.169 459.409 365.601 457.53Q366.033 455.652 366.512 453.784Q366.991 451.917 367.516 450.062Q368.04 448.207 368.611 446.366Q369.182 444.525 369.798 442.698Q370.414 440.872 371.076 439.061Q371.737 437.25 372.443 435.456Q373.149 433.663 373.899 431.887Q374.65 430.111 375.444 428.355Q376.238 426.598 377.076 424.862Q377.913 423.125 378.793 421.41Q379.674 419.695 380.596 418.003Q381.519 416.31 382.483 414.641Q383.447 412.972 384.453 411.327Q385.458 409.682 386.504 408.063Q387.55 406.444 388.635 404.851Q389.721 403.258 390.846 401.692Q391.971 400.127 393.134 398.59Q394.298 397.053 395.499 395.545Q396.7 394.037 397.938 392.56Q399.176 391.082 400.451 389.636C427.28 359.204 464.264 341.826 504.57 339.211Z"/>
	<path d="M510.025 370.715C537.823 370.126 566.078 380.776 587.369 398.494Q588.539 399.469 589.684 400.473Q590.829 401.477 591.949 402.509Q593.069 403.541 594.162 404.6Q595.256 405.66 596.323 406.746Q597.39 407.833 598.43 408.946Q599.47 410.058 600.481 411.197Q601.493 412.335 602.476 413.498Q603.459 414.661 604.413 415.848Q605.366 417.036 606.29 418.246Q607.214 419.457 608.107 420.69Q609.001 421.923 609.863 423.178Q610.726 424.433 611.557 425.71Q612.388 426.986 613.187 428.282Q613.985 429.579 614.752 430.895Q615.518 432.211 616.252 433.545Q616.985 434.88 617.685 436.232Q618.385 437.585 619.051 438.954Q619.717 440.324 620.349 441.709Q620.98 443.095 621.577 444.496Q622.174 445.897 622.736 447.312Q623.298 448.728 623.825 450.156Q624.351 451.585 624.842 453.027Q625.333 454.469 625.788 455.922Q626.243 457.375 626.661 458.84Q627.079 460.304 627.461 461.778Q627.843 463.252 628.188 464.735Q628.533 466.219 628.841 467.71Q629.149 469.201 629.42 470.7Q629.691 472.199 629.924 473.703Q630.158 475.208 630.353 476.719Q630.549 478.229 630.707 479.743Q630.866 481.258 630.986 482.776C633.648 514.399 622.15 546.041 601.729 570.032C580.061 595.487 550.231 609.437 517.125 612Q515.748 612.055 514.37 612.078Q512.993 612.1 511.615 612.091Q510.237 612.081 508.86 612.038Q507.482 611.995 506.106 611.92Q504.73 611.845 503.357 611.738Q501.983 611.63 500.612 611.49Q499.241 611.35 497.874 611.177Q496.507 611.005 495.144 610.8Q493.782 610.596 492.424 610.359Q491.067 610.122 489.715 609.853Q488.364 609.584 487.019 609.283Q485.674 608.982 484.337 608.65Q483 608.317 481.671 607.953Q480.342 607.589 479.022 607.194Q477.702 606.799 476.392 606.372Q475.081 605.946 473.781 605.488Q472.482 605.031 471.193 604.543Q469.904 604.055 468.628 603.537Q467.351 603.019 466.087 602.47Q464.822 601.922 463.572 601.344Q462.321 600.766 461.084 600.159Q459.847 599.551 458.625 598.914Q457.403 598.278 456.196 597.613Q454.989 596.947 453.799 596.254Q452.608 595.56 451.434 594.839Q450.26 594.117 449.104 593.368Q447.947 592.619 446.809 591.843Q445.67 591.066 444.55 590.263Q443.43 589.46 442.33 588.631Q441.229 587.802 440.149 586.947Q439.068 586.092 438.008 585.212Q436.948 584.331 435.909 583.426C411.389 561.859 396.282 532.136 394.427 499.41C392.553 466.343 402.857 433.654 425.228 408.933C447.624 384.185 477.176 372.415 510.025 370.715Z"/>
	<path fill="#FEFEFD" d="M509.645 402.54C509.855 402.529 510.064 402.509 510.273 402.505C513.717 402.434 516.975 403.226 519.395 405.823C524.847 411.673 522.707 430.17 522.561 438.217C529.461 440.045 535.587 442.393 541.655 446.186C542.671 444.711 543.844 443.335 545.06 442.021C549.666 437.043 558.447 426.092 565.611 426.09Q566.158 426.087 566.703 426.14Q567.248 426.193 567.784 426.301Q568.32 426.41 568.843 426.573Q569.365 426.736 569.868 426.951Q570.371 427.167 570.849 427.433Q571.327 427.7 571.775 428.013Q572.224 428.327 572.638 428.685Q573.051 429.043 573.426 429.442Q573.797 429.844 574.123 430.283Q574.45 430.721 574.728 431.192Q575.006 431.663 575.232 432.161Q575.459 432.659 575.631 433.178Q575.804 433.697 575.92 434.231Q576.037 434.765 576.096 435.309Q576.155 435.852 576.157 436.399Q576.158 436.946 576.101 437.49Q576.031 438.199 575.88 438.895Q575.73 439.591 575.501 440.265Q575.273 440.94 574.97 441.584Q574.667 442.228 574.292 442.834C571.544 447.244 560.852 457.13 556.62 460.658C560.223 467.481 563.62 474.035 564.784 481.761Q565.327 481.716 565.871 481.684C573.339 481.294 592.573 479.481 597.872 484.543C599.875 486.456 600.688 489.001 600.766 491.716C600.85 494.687 600.072 497.64 597.87 499.742C592.418 504.946 572.143 502.829 564.377 502.668C562.868 509.281 560.433 514.675 556.856 520.434C561.756 525.541 575.91 536.592 576.623 543.231C576.94 546.181 575.796 549.088 573.83 551.262C571.978 553.308 569.36 554.707 566.573 554.787C558.462 555.021 547.397 541.332 541.878 535.79C535.899 540.015 530.112 542.027 523.034 543.794C522.998 551.561 524.149 565.412 521.804 572.407C520.687 575.737 518.819 577.27 515.766 578.812C514.967 578.992 514.16 579.168 513.346 579.259C510.479 579.58 507.442 579.01 505.189 577.119C498.772 571.734 501.607 552.966 500.64 544.595L500.552 543.868C493.253 542.183 487.648 539.625 481.343 535.568C475.386 541.471 465.468 554.338 456.747 554.59C454.209 554.663 451.822 553.73 450.046 551.907C447.983 549.789 446.945 546.763 447.15 543.827C447.704 535.911 460.847 526.093 466.57 520.951C463.536 514.843 460.707 509.158 459.283 502.445C451.356 502.676 433.191 504.928 427.526 499.606C425.486 497.69 424.684 494.988 424.69 492.248C424.697 489.282 425.538 486.483 427.768 484.433C433.305 479.341 451.569 481.539 459.177 481.719C460.388 474.23 463.113 467.819 467.066 461.395C461.503 455.549 446.526 444.998 446.479 436.698C446.463 433.862 448.176 429.857 450.203 427.864C451.664 426.428 453.552 425.83 455.571 425.828C464.96 425.819 475.792 439.689 482.195 446.16C488.703 442.756 494.265 440.446 501.372 438.542C501.307 431.07 499.889 414.624 502.665 408.427C504.164 405.08 506.371 403.882 509.645 402.54Z"/>
	<path fill="#5ED7CD" d="M511.318 458.709C518.69 458.645 525.703 460.698 531.621 465.135C538.504 470.295 543.013 477.629 544.217 486.167Q544.335 486.956 544.414 487.75Q544.494 488.544 544.533 489.341Q544.573 490.138 544.573 490.936Q544.573 491.734 544.534 492.531Q544.494 493.328 544.416 494.122Q544.337 494.916 544.219 495.705Q544.101 496.494 543.944 497.276Q543.787 498.058 543.591 498.832Q543.396 499.606 543.162 500.369Q542.928 501.131 542.657 501.882Q542.386 502.632 542.078 503.368Q541.77 504.104 541.426 504.824Q541.082 505.544 540.702 506.246Q540.323 506.948 539.91 507.631Q539.496 508.313 539.049 508.974Q538.602 509.635 538.123 510.273C531.873 518.525 523.425 522.193 513.406 523.512C504.738 523.638 497.226 521.364 490.565 515.724C483.64 509.861 479.455 502.026 478.8 492.943Q478.748 492.167 478.734 491.39Q478.72 490.613 478.745 489.836Q478.77 489.059 478.833 488.285Q478.896 487.51 478.997 486.739Q479.098 485.969 479.238 485.204Q479.377 484.439 479.554 483.683Q479.731 482.926 479.945 482.179Q480.159 481.431 480.41 480.696Q480.661 479.96 480.948 479.238Q481.234 478.515 481.557 477.808Q481.879 477.101 482.236 476.41Q482.593 475.72 482.983 475.048Q483.374 474.376 483.797 473.724Q484.22 473.072 484.676 472.442Q485.131 471.812 485.616 471.205Q486.102 470.598 486.617 470.016C493.153 462.635 501.664 459.354 511.318 458.709Z"/>
</svg>
