<?xml version="1.0" encoding="utf-8" ?>
<svg xmlns="http://www.w3.org/2000/svg" xmlns:xlink="http://www.w3.org/1999/xlink" width="1024" height="1024">
	<path d="M0 0L1024 0L1024 856.042L1024 946.792L1024 960.259L1024 1024L0 1024L0 962.756L0 949.483L0 856.459L0 0Z"/>
	<path fill="#11BAB2" d="M981.878 508.582C983.593 508.733 985.332 509.04 986.862 509.871Q987.306 510.108 987.724 510.387Q988.141 510.667 988.529 510.987Q988.917 511.307 989.271 511.665Q989.625 512.022 989.941 512.413Q990.257 512.803 990.533 513.224Q990.809 513.644 991.041 514.09Q991.274 514.536 991.46 515.003Q991.647 515.47 991.786 515.953Q991.927 516.448 992.019 516.956Q992.11 517.463 992.151 517.976Q992.192 518.49 992.182 519.005Q992.172 519.52 992.111 520.032Q992.05 520.543 991.939 521.046Q991.828 521.549 991.668 522.039Q991.507 522.529 991.3 523Q991.092 523.471 990.838 523.92C988.984 527.205 986.321 528.407 982.812 529.315C981.292 529.159 979.724 528.91 978.302 528.327C975.589 527.216 973.207 524.88 972.218 522.104Q972.052 521.639 971.937 521.159Q971.822 520.678 971.759 520.188Q971.696 519.698 971.685 519.205Q971.675 518.711 971.717 518.219Q971.759 517.727 971.854 517.242Q971.949 516.758 972.095 516.286Q972.241 515.814 972.436 515.36Q972.632 514.907 972.875 514.477C974.826 510.957 978.157 509.511 981.878 508.582Z"/>
	<path d="M979.531 513.56C980.261 513.477 980.993 513.394 981.728 513.358C983.452 513.274 984.998 513.832 986.236 515.053C987.385 516.187 987.933 517.694 987.812 519.301C987.609 521.971 986.252 523.295 984.262 524.906C983.44 524.962 982.574 525.029 981.755 524.923C980.087 524.707 978.32 523.712 977.301 522.372C976.344 521.113 975.966 519.583 976.247 518.013C976.634 515.849 977.9 514.83 979.531 513.56Z"/>
	<path fill="#11BAB2" d="M163.488 341.564C165.368 341.357 167.413 341.222 169.242 341.785C171.797 342.573 174.11 344.43 175.352 346.804Q175.591 347.265 175.782 347.747Q175.973 348.23 176.114 348.729Q176.255 349.229 176.346 349.74Q176.436 350.251 176.474 350.769Q176.512 351.286 176.497 351.805Q176.483 352.324 176.416 352.839Q176.35 353.353 176.231 353.859Q176.113 354.364 175.944 354.855C174.69 358.56 172.276 360.226 168.9 361.882C167.155 362.077 165.308 362.189 163.588 361.762C161.001 361.12 158.595 359.429 157.242 357.118Q156.988 356.687 156.779 356.233Q156.57 355.779 156.408 355.305Q156.246 354.832 156.132 354.345Q156.018 353.859 155.954 353.363Q155.89 352.867 155.876 352.367Q155.862 351.867 155.898 351.368Q155.935 350.869 156.021 350.377Q156.108 349.884 156.243 349.403C157.309 345.487 160.063 343.386 163.488 341.564Z"/>
	<path d="M164.975 345.947C165.647 345.968 166.321 345.991 166.99 346.065C168.693 346.253 170.262 347.12 171.24 348.553C172.146 349.88 172.384 351.462 171.963 353.015C171.278 355.538 169.723 356.6 167.542 357.823C166.858 357.773 166.172 357.722 165.494 357.619C163.779 357.358 162.229 356.433 161.279 354.958C160.423 353.628 160.193 352.066 160.637 350.537C161.321 348.178 162.932 347.093 164.975 345.947Z"/>
	<path fill="#11BAB2" d="M222.578 215.582C224.901 215.373 227.065 215.206 229.268 216.124Q229.777 216.335 230.261 216.597Q230.746 216.859 231.2 217.17Q231.655 217.481 232.075 217.838Q232.494 218.195 232.875 218.593Q233.255 218.992 233.592 219.427Q233.929 219.863 234.219 220.332Q234.509 220.8 234.749 221.296Q234.988 221.792 235.175 222.31Q235.349 222.799 235.474 223.304Q235.599 223.808 235.674 224.322Q235.748 224.836 235.771 225.355Q235.794 225.874 235.766 226.393Q235.737 226.911 235.657 227.425Q235.578 227.938 235.447 228.441Q235.317 228.944 235.137 229.431Q234.958 229.919 234.731 230.386C233.221 233.435 230.829 234.927 227.737 236.069C225.91 236.349 224.149 236.377 222.366 235.835C219.726 235.032 217.5 233.343 216.223 230.869Q215.99 230.412 215.803 229.935Q215.616 229.457 215.478 228.964Q215.339 228.47 215.249 227.965Q215.159 227.46 215.12 226.949Q215.08 226.438 215.092 225.925Q215.103 225.412 215.164 224.903Q215.225 224.394 215.337 223.894Q215.448 223.393 215.608 222.906C216.792 219.179 219.225 217.327 222.578 215.582Z"/>
	<path d="M224.613 219.412C225.594 219.536 226.453 219.699 227.386 220.026C229.002 220.592 230.449 221.815 231.171 223.384C231.843 224.847 231.925 226.473 231.333 227.982C230.404 230.35 228.775 231.214 226.532 232.154C225.691 232.082 224.849 232.019 224.026 231.82C222.429 231.435 220.963 230.237 220.188 228.796C219.377 227.29 219.282 225.565 219.843 223.956C220.724 221.425 222.3 220.533 224.613 219.412Z"/>
	<path fill="#11BAB2" d="M690.259 43.5571C691.992 43.4988 693.778 43.6753 695.405 44.3101Q695.914 44.5112 696.399 44.7645Q696.885 45.0178 697.341 45.3205Q697.797 45.6233 698.218 45.9722Q698.64 46.3211 699.023 46.7123Q699.406 47.1034 699.746 47.5326Q700.085 47.9617 700.378 48.4241Q700.671 48.8865 700.914 49.3771Q701.157 49.8676 701.347 50.3809Q701.547 50.911 701.691 51.459Q701.835 52.0069 701.922 52.5667Q702.009 53.1265 702.037 53.6923Q702.066 54.2581 702.036 54.8239Q702.007 55.3896 701.919 55.9493Q701.831 56.509 701.686 57.0566Q701.541 57.6043 701.341 58.1341Q701.14 58.664 700.886 59.1703C699.29 62.2779 696.925 63.4857 693.715 64.4942C691.943 64.5657 690.19 64.6053 688.486 64.036Q687.959 63.859 687.453 63.6278Q686.948 63.3966 686.469 63.1136Q685.99 62.8307 685.544 62.4992Q685.098 62.1676 684.688 61.7912Q684.279 61.4147 683.912 60.9974Q683.544 60.5801 683.223 60.1266Q682.901 59.6732 682.629 59.1885Q682.356 58.7038 682.136 58.1932Q681.926 57.6913 681.771 57.1702Q681.615 56.6491 681.515 56.1145Q681.415 55.5799 681.371 55.0378Q681.327 54.4957 681.341 53.952Q681.354 53.4082 681.425 52.8689Q681.495 52.3296 681.622 51.8007Q681.748 51.2717 681.93 50.759Q682.111 50.2462 682.345 49.7553C683.996 46.2795 686.75 44.7344 690.259 43.5571Z"/>
	<path d="M689.415 48.0105C690.312 47.9538 691.208 47.9241 692.104 48.0087C693.993 48.1871 695.656 49.1773 696.785 50.7054C697.772 52.041 698.169 53.6393 697.829 55.2728C697.288 57.8668 695.816 58.8787 693.693 60.1952C692.864 60.3244 692.102 60.3873 691.259 60.3606C689.482 60.3044 687.629 59.3823 686.547 57.968C685.562 56.6813 685.256 55.0282 685.495 53.4499C685.896 50.8067 687.351 49.5255 689.415 48.0105Z"/>
	<path fill="#11BAB2" d="M783.326 194.034C784.896 193.962 786.657 194.092 788.15 194.61C790.714 195.499 792.971 197.424 794.161 199.868Q794.411 200.373 794.606 200.901Q794.8 201.43 794.938 201.976Q795.075 202.522 795.153 203.08Q795.232 203.638 795.25 204.201Q795.269 204.764 795.227 205.326Q795.185 205.887 795.084 206.441Q794.983 206.996 794.823 207.536Q794.663 208.076 794.447 208.596C792.967 212.219 790.439 213.767 786.965 215.24C784.942 215.381 783.113 215.421 781.195 214.669C778.399 213.573 776.225 211.466 775.14 208.653Q774.942 208.134 774.798 207.598Q774.654 207.061 774.565 206.513Q774.477 205.965 774.445 205.411Q774.412 204.856 774.437 204.301Q774.461 203.747 774.542 203.197Q774.622 202.648 774.758 202.109Q774.895 201.571 775.085 201.049Q775.275 200.528 775.518 200.028C777.18 196.639 779.86 195.143 783.326 194.034Z"/>
	<path d="M782.999 198.51C783.602 198.488 784.207 198.469 784.81 198.501Q785.14 198.52 785.466 198.573Q785.792 198.626 786.111 198.712Q786.43 198.798 786.739 198.917Q787.047 199.035 787.342 199.185Q787.636 199.334 787.914 199.513Q788.192 199.692 788.45 199.899Q788.708 200.105 788.943 200.337Q789.179 200.569 789.389 200.824C790.486 202.141 790.933 203.73 790.741 205.425C790.428 208.184 789.133 209.363 787.004 210.981C786.343 210.989 785.691 211.001 785.031 210.956C783.041 210.822 781.361 209.947 780.138 208.348C779.117 207.012 778.771 205.344 779.049 203.699C779.49 201.094 780.914 199.941 782.999 198.51Z"/>
	<path fill="#11BAB2" d="M843.094 227.591C844.909 227.438 846.883 227.285 848.656 227.79C851.238 228.525 853.585 230.433 854.877 232.778Q855.148 233.274 855.365 233.795Q855.583 234.316 855.745 234.858Q855.907 235.399 856.011 235.954Q856.115 236.51 856.161 237.073Q856.207 237.636 856.193 238.201Q856.179 238.765 856.107 239.326Q856.034 239.886 855.903 240.436Q855.773 240.985 855.585 241.518C854.323 245.068 851.836 246.85 848.578 248.453C846.665 248.617 844.474 248.856 842.602 248.339C840.129 247.655 837.786 245.735 836.543 243.505Q836.275 243.021 836.059 242.513Q835.843 242.004 835.68 241.476Q835.517 240.947 835.41 240.405Q835.302 239.863 835.251 239.312Q835.2 238.762 835.206 238.209Q835.212 237.657 835.275 237.107Q835.338 236.558 835.457 236.018Q835.577 235.479 835.751 234.954C837.029 231.13 839.647 229.341 843.094 227.591Z"/>
	<path d="M843.969 231.994C844.842 231.951 845.712 231.937 846.583 232.033C848.356 232.23 850.215 233.172 851.212 234.705C852.087 236.051 852.394 237.457 852.098 239.026C851.585 241.739 850.017 242.932 847.852 244.445C846.855 244.543 845.821 244.59 844.823 244.459C843.198 244.246 841.687 243.174 840.779 241.829C839.801 240.379 839.541 238.63 839.929 236.935C840.502 234.427 841.871 233.311 843.969 231.994Z"/>
	<path fill="#11BAB2" d="M295.109 51.074C297.037 50.963 298.941 50.839 300.794 51.4968C303.625 52.5019 305.881 54.7996 306.994 57.5723C308.214 60.6092 308.198 64.1837 306.734 67.1346C305.232 70.1606 302.977 71.5322 299.905 72.6682C297.771 72.6835 295.62 72.5232 293.488 72.4273C290.892 70.9732 288.895 69.3545 287.632 66.5724C286.355 63.7573 286.237 60.5959 287.485 57.7459C289.034 54.2071 291.674 52.525 295.109 51.074Z"/>
	<path d="M295.495 55.4386C296.203 55.3903 297.041 55.2862 297.758 55.3573Q298.119 55.3935 298.473 55.4688Q298.828 55.544 299.172 55.6573Q299.517 55.7706 299.847 55.9207Q300.177 56.0707 300.489 56.2557Q300.801 56.4408 301.09 56.6585Q301.38 56.8763 301.645 57.1243Q301.909 57.3723 302.145 57.6476Q302.381 57.9228 302.586 58.2221C303.635 59.7875 303.831 61.7399 303.364 63.54C302.703 66.0862 301.14 67.1923 298.997 68.5227C298.36 68.5402 297.894 68.5688 297.239 68.5074C295.405 68.3354 293.746 67.5282 292.58 66.0794C291.421 64.639 291.013 62.8298 291.315 61.0161C291.776 58.2541 293.272 56.9324 295.495 55.4386Z"/>
	<path fill="#FEFEFE" d="M961.067 100.116C963 99.8826 964.783 99.7389 966.686 100.258C969.612 101.057 972.173 102.925 973.589 105.636Q973.851 106.137 974.058 106.663Q974.266 107.188 974.417 107.733Q974.568 108.278 974.66 108.835Q974.753 109.393 974.787 109.957Q974.821 110.521 974.795 111.086Q974.769 111.651 974.683 112.209Q974.598 112.768 974.455 113.315Q974.311 113.861 974.111 114.39C972.74 118.083 970.296 119.713 966.888 121.388C964.94 121.557 962.918 121.808 961.005 121.277Q960.472 121.125 959.958 120.921Q959.443 120.717 958.951 120.463Q958.459 120.209 957.994 119.907Q957.53 119.605 957.098 119.258Q956.666 118.912 956.271 118.524Q955.875 118.136 955.52 117.711Q955.166 117.286 954.855 116.827Q954.544 116.369 954.28 115.882Q954.018 115.383 953.81 114.86Q953.601 114.336 953.448 113.794Q953.295 113.252 953.2 112.697Q953.104 112.142 953.068 111.579Q953.03 111.017 953.052 110.454Q953.074 109.891 953.154 109.334Q953.235 108.776 953.373 108.23Q953.511 107.684 953.705 107.155C955.071 103.445 957.627 101.746 961.067 100.116Z"/>
	<path fill="#FEFEFE" d="M597.586 119.601C599.495 119.409 601.435 119.149 603.321 119.64Q603.868 119.785 604.398 119.985Q604.928 120.186 605.435 120.438Q605.942 120.691 606.421 120.994Q606.899 121.298 607.345 121.648Q607.79 121.998 608.197 122.391Q608.605 122.785 608.97 123.218Q609.336 123.651 609.655 124.118Q609.975 124.586 610.245 125.084Q610.509 125.578 610.723 126.096Q610.937 126.615 611.099 127.151Q611.26 127.688 611.368 128.238Q611.475 128.788 611.527 129.347Q611.579 129.905 611.576 130.465Q611.572 131.026 611.513 131.583Q611.454 132.141 611.34 132.689Q611.226 133.238 611.058 133.773C609.805 137.7 607.106 139.727 603.544 141.458C600.455 141.823 597.576 141.775 594.864 140.037C591.43 137.836 590.244 134.23 589.36 130.485C589.546 129.584 589.746 128.697 590.013 127.815C591.315 123.526 593.762 121.669 597.586 119.601Z"/>
	<path fill="#FEFEFE" d="M51.5655 197.073C53.3588 196.992 55.0823 196.932 56.8243 197.443Q57.3669 197.599 57.8908 197.809Q58.4147 198.02 58.9145 198.282Q59.4143 198.545 59.8848 198.857Q60.3553 199.169 60.7917 199.527Q61.228 199.885 61.6257 200.286Q62.0234 200.686 62.3783 201.125Q62.7332 201.564 63.0416 202.037Q63.35 202.51 63.6088 203.012Q63.8571 203.508 64.0545 204.027Q64.2518 204.546 64.3961 205.082Q64.5405 205.618 64.6304 206.166Q64.7202 206.714 64.7548 207.268Q64.7893 207.822 64.7681 208.377Q64.7469 208.931 64.6702 209.481Q64.5935 210.031 64.4621 210.57Q64.3307 211.11 64.1459 211.633C62.6966 215.728 59.7809 217.685 55.9787 219.391C53.9079 219.497 52.0451 219.545 50.0801 218.787C47.1631 217.663 44.8346 215.547 43.6213 212.646Q43.4039 212.129 43.2395 211.593Q43.0751 211.058 42.9654 210.508Q42.8556 209.958 42.8016 209.4Q42.7476 208.842 42.7499 208.282Q42.7522 207.721 42.8107 207.164Q42.8693 206.606 42.9835 206.058Q43.0977 205.509 43.2665 204.974Q43.4352 204.44 43.6568 203.925C45.2593 200.195 47.987 198.615 51.5655 197.073Z"/>
	<path fill="#FEFEFE" d="M48.6312 45.6039C50.9806 45.3555 53.4564 45.0363 55.7588 45.7208Q56.3469 45.8916 56.9142 46.1222Q57.4815 46.3527 58.0221 46.6405Q58.5626 46.9283 59.0707 47.2702Q59.5787 47.6122 60.0488 48.0046Q60.5188 48.3971 60.946 48.8359Q61.3731 49.2747 61.7527 49.7552Q62.1324 50.2357 62.4605 50.7528Q62.7886 51.2699 63.0617 51.818Q63.35 52.4061 63.5769 53.0205Q63.8037 53.6349 63.9668 54.2693Q64.1298 54.9036 64.2274 55.5513Q64.3249 56.199 64.356 56.8532Q64.387 57.5074 64.3512 58.1614Q64.3154 58.8154 64.2131 59.4623Q64.1108 60.1093 63.9431 60.7424Q63.7754 61.3756 63.544 61.9883C62.0139 66.1203 58.9359 68.4494 55.0362 70.1693C52.7082 70.4931 50.8353 70.567 48.5801 69.8148C45.2664 68.7094 42.7276 66.5078 41.1759 63.3729C39.6483 60.2869 39.3327 56.6731 40.5165 53.4185C42.0016 49.3359 44.8951 47.4082 48.6312 45.6039Z"/>
	<path fill="#FEFEFE" d="M55.4266 449.563C58.565 449.465 61.2287 449.75 64.0505 451.229Q64.6695 451.551 65.2528 451.934Q65.836 452.316 66.3776 452.756Q66.9192 453.196 67.4135 453.688Q67.9079 454.181 68.3499 454.721Q68.7919 455.26 69.1771 455.842Q69.5623 456.424 69.8866 457.041Q70.211 457.659 70.4713 458.306Q70.7315 458.954 70.925 459.624Q71.1038 460.25 71.22 460.89Q71.3363 461.53 71.3889 462.178Q71.4415 462.827 71.4299 463.477Q71.4183 464.128 71.3427 464.774Q71.2671 465.42 71.1281 466.056Q70.9892 466.691 70.7883 467.31Q70.5873 467.929 70.3264 468.525Q70.0655 469.121 69.7471 469.688C67.4835 473.697 63.9729 475.646 59.6992 476.95C56.6659 477.23 53.9479 476.989 51.19 475.624Q50.5515 475.313 49.9487 474.938Q49.3459 474.562 48.7852 474.126Q48.2246 473.69 47.7123 473.199Q47.1999 472.707 46.7414 472.164Q46.2828 471.622 45.883 471.035Q45.4832 470.448 45.1464 469.823Q44.8096 469.198 44.5396 468.541Q44.2695 467.884 44.069 467.203Q43.8701 466.52 43.7418 465.821Q43.6134 465.122 43.5569 464.413Q43.5004 463.704 43.5163 462.994Q43.5321 462.283 43.6203 461.577Q43.7084 460.872 43.8678 460.179Q44.0273 459.486 44.2564 458.813Q44.4856 458.14 44.782 457.494Q45.0784 456.848 45.4391 456.235C47.7987 452.258 51.1154 450.697 55.4266 449.563Z"/>
	<path fill="#FEFEFE" d="M928.634 192.669C932.055 192.998 935.202 193.865 938.009 195.914Q938.659 196.386 939.258 196.922Q939.856 197.458 940.396 198.053Q940.937 198.648 941.414 199.295Q941.89 199.942 942.298 200.634Q942.706 201.327 943.041 202.057Q943.375 202.788 943.633 203.549Q943.892 204.31 944.07 205.093Q944.249 205.876 944.347 206.674C944.894 210.975 943.754 215.479 941.039 218.883C937.862 222.867 933.72 224.319 928.819 224.8C925.365 224.578 922.501 224.041 919.592 222.053C915.956 219.567 913.621 215.631 912.963 211.294Q912.839 210.495 912.799 209.687Q912.758 208.879 912.801 208.072Q912.844 207.264 912.969 206.465Q913.095 205.666 913.302 204.885Q913.509 204.103 913.796 203.347Q914.083 202.59 914.446 201.868Q914.809 201.145 915.244 200.464Q915.68 199.782 916.183 199.149C919.429 194.988 923.603 193.39 928.634 192.669Z"/>
	<path fill="#FEFEFE" d="M917.672 30.6062C921.224 30.2618 924.56 30.2272 927.912 31.621C932.36 33.4705 935.738 37.1162 937.411 41.6186Q937.567 42.0297 937.701 42.4481Q937.836 42.8666 937.949 43.2913Q938.062 43.716 938.153 44.146Q938.244 44.5759 938.313 45.01Q938.383 45.444 938.43 45.881Q938.477 46.318 938.502 46.7568Q938.526 47.1956 938.529 47.6351Q938.531 48.0746 938.511 48.5137Q938.491 48.9528 938.449 49.3903Q938.407 49.8278 938.342 50.2625Q938.278 50.6973 938.192 51.1282Q938.105 51.5592 937.997 51.9851Q937.889 52.4111 937.759 52.831Q937.629 53.2509 937.478 53.6637Q937.327 54.0764 937.155 54.481Q936.983 54.8855 936.791 55.2808C934.315 60.2503 930.338 62.6052 925.317 64.3704C922.078 64.6616 918.923 64.7839 915.808 63.6901Q915.394 63.5468 914.988 63.3822Q914.582 63.2176 914.185 63.0321Q913.788 62.8466 913.402 62.6408Q913.015 62.435 912.639 62.2093Q912.264 61.9837 911.9 61.7388Q911.537 61.494 911.187 61.2306Q910.837 60.9672 910.501 60.686Q910.165 60.4048 909.844 60.1065Q909.523 59.8083 909.218 59.4937Q908.913 59.1792 908.625 58.8493Q908.337 58.5193 908.066 58.1749Q907.796 57.8304 907.543 57.4723Q907.291 57.1143 907.057 56.7436Q906.824 56.3729 906.61 55.9906Q906.396 55.6083 906.202 55.2154Q906.008 54.8224 905.835 54.42Q905.659 54.0196 905.503 53.6105Q905.348 53.2013 905.214 52.7847Q905.081 52.368 904.969 51.9449Q904.857 51.5217 904.768 51.0934Q904.679 50.665 904.612 50.2325Q904.545 49.8 904.501 49.3647Q904.457 48.9293 904.436 48.4922Q904.415 48.0551 904.417 47.6175Q904.419 47.18 904.443 46.7431Q904.468 46.3062 904.515 45.8712Q904.563 45.4362 904.633 45.0042Q904.703 44.5723 904.796 44.1447Q904.889 43.717 905.004 43.2949Q905.119 42.8727 905.256 42.4571Q905.393 42.0415 905.552 41.6336Q905.71 41.2258 905.89 40.8268C908.274 35.4789 912.431 32.6708 917.672 30.6062Z"/>
	<path fill="#F9DD1F" d="M247.419 98.6142C251.283 98.4479 254.892 98.9863 258.266 100.978Q258.646 101.202 259.013 101.444Q259.381 101.687 259.735 101.949Q260.09 102.211 260.431 102.49Q260.771 102.77 261.097 103.067Q261.422 103.364 261.732 103.677Q262.042 103.99 262.335 104.319Q262.628 104.648 262.904 104.992Q263.18 105.336 263.437 105.693Q263.695 106.051 263.934 106.421Q264.172 106.791 264.392 107.174Q264.611 107.556 264.81 107.949Q265.009 108.342 265.188 108.745Q265.366 109.147 265.524 109.559Q265.681 109.971 265.817 110.39Q265.953 110.809 266.067 111.234Q266.181 111.66 266.273 112.091C267.284 116.785 266.345 121.904 263.58 125.847C260.694 129.964 256.566 131.894 251.746 132.793C248.179 132.968 244.976 132.595 241.752 130.98C237.558 128.879 234.473 124.922 233.196 120.437Q232.954 119.608 232.797 118.759Q232.641 117.91 232.57 117.049Q232.5 116.189 232.518 115.326Q232.535 114.462 232.64 113.605Q232.744 112.748 232.935 111.906Q233.126 111.064 233.4 110.246Q233.675 109.427 234.032 108.641Q234.388 107.854 234.822 107.108C237.721 102.125 242.045 99.9328 247.419 98.6142Z"/>
	<path fill="#FEFEFE" d="M605.554 290.669C609.529 290.782 613.377 291.879 616.601 294.272Q616.998 294.57 617.379 294.887Q617.761 295.205 618.125 295.542Q618.49 295.878 618.838 296.233Q619.185 296.587 619.514 296.959Q619.843 297.33 620.153 297.718Q620.462 298.106 620.752 298.509Q621.042 298.912 621.311 299.329Q621.58 299.746 621.827 300.176Q622.075 300.606 622.3 301.048Q622.526 301.49 622.729 301.943Q622.931 302.396 623.111 302.859Q623.291 303.322 623.447 303.793Q623.603 304.264 623.735 304.742Q623.867 305.221 623.974 305.705Q624.082 306.19 624.165 306.679Q624.248 307.168 624.306 307.661Q624.41 308.545 624.427 309.436Q624.443 310.326 624.372 311.214Q624.301 312.101 624.143 312.978Q623.985 313.854 623.742 314.711Q623.499 315.567 623.172 316.396Q622.846 317.225 622.44 318.017Q622.034 318.81 621.552 319.558Q621.07 320.307 620.517 321.005C617.246 325.114 612.775 327.084 607.647 327.613C603.267 327.608 599.54 327.039 595.754 324.608Q595.378 324.367 595.014 324.107Q594.65 323.847 594.3 323.569Q593.95 323.29 593.615 322.995Q593.28 322.699 592.96 322.387Q592.64 322.075 592.336 321.746Q592.032 321.418 591.746 321.075Q591.459 320.732 591.19 320.375Q590.922 320.018 590.671 319.647Q590.421 319.277 590.19 318.894Q589.959 318.511 589.747 318.117Q589.536 317.723 589.345 317.319Q589.154 316.915 588.984 316.502Q588.813 316.088 588.664 315.667Q588.515 315.245 588.388 314.817Q588.26 314.388 588.155 313.954Q588.049 313.519 587.966 313.08Q587.876 312.613 587.81 312.143Q587.745 311.672 587.703 311.199Q587.661 310.726 587.644 310.251Q587.627 309.776 587.634 309.301Q587.641 308.826 587.672 308.352Q587.704 307.878 587.759 307.406Q587.815 306.934 587.895 306.466Q587.974 305.997 588.078 305.534Q588.182 305.07 588.309 304.612Q588.436 304.155 588.587 303.704Q588.738 303.253 588.911 302.811Q589.084 302.369 589.28 301.936Q589.476 301.503 589.694 301.081Q589.912 300.658 590.151 300.248Q590.39 299.837 590.65 299.44Q590.91 299.042 591.19 298.658C594.771 293.676 599.712 291.619 605.554 290.669Z"/>
	<path fill="#F9DD1F" d="M736.309 82.6111C740.631 82.3637 744.382 82.6066 748.315 84.6748Q748.746 84.903 749.165 85.1527Q749.584 85.4025 749.99 85.6731Q750.396 85.9438 750.787 86.2347Q751.179 86.5256 751.555 86.8359Q751.932 87.1463 752.292 87.4753Q752.652 87.8044 752.995 88.1513Q753.338 88.4981 753.663 88.8619Q753.988 89.2257 754.294 89.6056Q754.6 89.9854 754.887 90.3802Q755.173 90.7751 755.439 91.1839Q755.705 91.5928 755.95 92.0146Q756.195 92.4364 756.419 92.8701Q756.642 93.3038 756.843 93.7483Q757.044 94.1928 757.222 94.6469Q757.401 95.1009 757.556 95.5635Q757.711 96.026 757.842 96.4958Q757.977 96.971 758.088 97.4524Q758.199 97.9338 758.285 98.4201Q758.372 98.9065 758.434 99.3966Q758.496 99.8866 758.534 100.379Q758.571 100.872 758.584 101.366Q758.597 101.859 758.585 102.353Q758.573 102.847 758.536 103.34Q758.499 103.832 758.438 104.323Q758.376 104.813 758.29 105.299Q758.204 105.786 758.094 106.267Q757.984 106.749 757.849 107.224Q757.715 107.7 757.557 108.168Q757.399 108.636 757.218 109.095Q757.037 109.555 756.833 110.005Q756.629 110.455 756.402 110.894Q756.176 111.333 755.928 111.76C753.019 116.674 748.733 119.098 743.368 120.464C738.944 120.742 735.108 120.663 731.047 118.543Q730.245 118.12 729.488 117.62Q728.732 117.12 728.028 116.548Q727.324 115.976 726.681 115.338Q726.037 114.699 725.46 114Q724.882 113.301 724.376 112.548Q723.871 111.795 723.442 110.996Q723.013 110.197 722.665 109.36Q722.317 108.523 722.053 107.655C720.493 102.656 720.786 96.8832 723.257 92.2242C726.109 86.8481 730.7 84.2802 736.309 82.6111Z"/>
	<path fill="#FEFEFE" d="M95.9285 275.141C100.271 275.149 104.191 275.787 108.008 277.979Q108.47 278.249 108.917 278.541Q109.365 278.834 109.797 279.149Q110.229 279.464 110.644 279.801Q111.06 280.137 111.458 280.494Q111.856 280.851 112.235 281.228Q112.615 281.605 112.975 282Q113.334 282.396 113.674 282.809Q114.013 283.222 114.331 283.652Q114.649 284.082 114.945 284.527Q115.241 284.972 115.514 285.432Q115.787 285.892 116.036 286.365Q116.286 286.838 116.511 287.323Q116.736 287.808 116.936 288.303Q117.137 288.799 117.312 289.304Q117.487 289.81 117.636 290.323Q117.785 290.837 117.908 291.357Q118.037 291.877 118.138 292.402Q118.24 292.928 118.314 293.458Q118.388 293.988 118.434 294.521Q118.481 295.055 118.5 295.59Q118.519 296.125 118.51 296.66Q118.501 297.195 118.464 297.729Q118.427 298.263 118.363 298.795Q118.299 299.326 118.207 299.853Q118.115 300.381 117.996 300.903Q117.877 301.425 117.731 301.94Q117.585 302.455 117.413 302.961Q117.24 303.468 117.042 303.965Q116.843 304.463 116.619 304.949Q116.395 305.435 116.146 305.909Q115.897 306.383 115.624 306.843Q115.351 307.303 115.054 307.749C111.325 313.436 106.061 316.188 99.5808 317.484C94.6346 317.627 90.1549 316.767 85.995 313.931Q85.5569 313.628 85.1346 313.303Q84.7122 312.978 84.3065 312.633Q83.9009 312.288 83.5131 311.922Q83.1252 311.557 82.7561 311.173Q82.3869 310.789 82.0375 310.387Q81.688 309.985 81.3591 309.565Q81.0301 309.146 80.7226 308.711Q80.415 308.276 80.1295 307.827Q79.844 307.377 79.5814 306.913Q79.3188 306.45 79.0797 305.974Q78.8405 305.497 78.6255 305.01Q78.4104 304.523 78.22 304.025Q78.0296 303.527 77.8642 303.021Q77.6989 302.515 77.5591 302Q77.4193 301.486 77.3054 300.966Q77.1914 300.445 77.1036 299.92C76.1236 294.324 77.3181 288.288 80.6628 283.656C84.3907 278.495 89.7994 276.051 95.9285 275.141Z"/>
	<path fill="#F9DD1F" d="M325.451 325.575C323.204 330.806 319.863 334.837 314.4 336.889C310.156 338.483 305.643 338.355 301.549 336.401C296.75 334.11 292.848 330.311 291.206 325.172Q291.06 324.706 290.938 324.233Q290.815 323.76 290.717 323.281Q290.618 322.803 290.544 322.32Q290.47 321.837 290.42 321.351Q290.37 320.865 290.344 320.377Q290.319 319.889 290.318 319.4Q290.317 318.911 290.341 318.423Q290.365 317.935 290.413 317.449Q290.461 316.963 290.534 316.48Q290.607 315.997 290.704 315.518Q290.8 315.039 290.921 314.565Q291.042 314.092 291.187 313.625Q291.331 313.158 291.499 312.699Q291.667 312.241 291.857 311.791Q292.048 311.341 292.261 310.901Q292.474 310.461 292.709 310.033C294.992 305.882 298.884 302.533 303.466 301.213C308.06 299.888 313.365 300.611 317.466 303.061C322.317 305.96 325.527 311.543 326.724 316.951Q327.03 318.361 327.248 319.788C339.664 323.22 349.341 331.768 355.711 342.875C360.645 351.479 365.592 365.908 363.122 375.888C363.078 376.066 363.016 376.239 362.963 376.414C361.347 376.612 359.606 376.481 357.975 376.476C356.949 360.252 353.051 345.358 340.347 334.281C335.877 330.384 330.961 327.692 325.451 325.575Z"/>
	<path fill="#F9DD1F" d="M409.492 298.058C408.97 291.345 409.431 284.881 414.03 279.499C417.776 275.114 422.811 272.759 428.543 272.521C433.984 272.295 439.241 274.117 443.257 277.822Q443.65 278.184 444.024 278.566Q444.398 278.947 444.752 279.347Q445.106 279.747 445.44 280.165Q445.774 280.582 446.086 281.016Q446.398 281.449 446.688 281.898Q446.977 282.347 447.244 282.81Q447.511 283.273 447.754 283.749Q447.997 284.225 448.215 284.712Q448.434 285.2 448.627 285.698Q448.821 286.196 448.989 286.703Q449.158 287.21 449.3 287.725Q449.442 288.24 449.559 288.762Q449.675 289.283 449.764 289.81Q449.854 290.336 449.917 290.867Q449.98 291.398 450.016 291.931Q450.052 292.464 450.061 292.998Q450.063 293.532 450.038 294.065Q450.014 294.598 449.962 295.129Q449.91 295.66 449.832 296.188Q449.753 296.715 449.648 297.239Q449.543 297.762 449.411 298.279Q449.28 298.796 449.122 299.306Q448.965 299.816 448.781 300.317Q448.598 300.818 448.39 301.31Q448.182 301.801 447.949 302.281Q447.716 302.761 447.459 303.229Q447.202 303.697 446.922 304.151Q446.642 304.605 446.339 305.044Q446.036 305.484 445.712 305.907Q445.387 306.331 445.041 306.737Q444.696 307.144 444.33 307.532Q443.964 307.921 443.579 308.29C439.313 312.321 433.587 313.86 427.815 313.556C421.809 313.239 417.182 309.982 413.342 305.544Q412.604 304.687 411.9 303.802C392.883 318.722 384.494 334.984 381.661 359.072C380.921 365.36 380.814 371.672 380.839 377.997C378.731 377.993 376.582 377.672 374.483 377.463C374.681 352.363 378.649 326.237 397.362 307.732C401.054 304.081 405.195 300.956 409.492 298.058Z"/>
	<path fill="#F9DD1F" d="M497.003 237.682C501.969 237.908 506.424 239.014 510.652 241.67Q511.199 242.011 511.728 242.379Q512.258 242.747 512.769 243.14Q513.28 243.534 513.771 243.952Q514.261 244.37 514.731 244.811Q515.201 245.253 515.649 245.717Q516.096 246.181 516.521 246.666Q516.945 247.151 517.345 247.657Q517.745 248.163 518.12 248.687Q518.495 249.212 518.843 249.754Q519.192 250.297 519.513 250.855Q519.835 251.414 520.129 251.988Q520.422 252.562 520.688 253.15Q520.953 253.737 521.189 254.337Q521.425 254.937 521.632 255.548Q521.838 256.159 522.014 256.779Q522.19 257.399 522.336 258.027Q522.484 258.699 522.599 259.378Q522.713 260.057 522.792 260.741Q522.872 261.424 522.917 262.111Q522.961 262.798 522.971 263.486Q522.981 264.175 522.956 264.863Q522.931 265.55 522.871 266.236Q522.811 266.922 522.716 267.604Q522.622 268.286 522.493 268.962Q522.363 269.638 522.2 270.307Q522.037 270.975 521.84 271.635Q521.643 272.294 521.413 272.943Q521.182 273.592 520.92 274.228Q520.657 274.864 520.362 275.486Q520.067 276.108 519.741 276.715Q519.415 277.321 519.059 277.91Q518.703 278.499 518.317 279.069C513.649 285.913 507.221 288.647 499.385 290.043C493.143 290.185 487.299 288.804 482.27 284.953C476.603 280.613 473.087 274.035 472.207 266.994Q472.125 266.348 472.075 265.698Q472.025 265.049 472.008 264.398Q471.991 263.747 472.007 263.095Q472.022 262.444 472.071 261.795Q472.119 261.145 472.2 260.499Q472.281 259.852 472.395 259.211Q472.508 258.569 472.654 257.935Q472.8 257.3 472.977 256.673Q473.154 256.046 473.363 255.429Q473.571 254.812 473.811 254.206Q474.05 253.6 474.32 253.007Q474.589 252.414 474.888 251.836Q475.187 251.257 475.515 250.694Q475.843 250.131 476.198 249.585Q476.554 249.04 476.937 248.512Q477.319 247.985 477.728 247.478C482.741 241.202 489.227 238.514 497.003 237.682Z"/>
	<path fill="#F9DD1F" d="M402.708 167.084C408.652 166.74 413.855 167.385 419.092 170.508C425.838 174.531 430.362 181.474 432.145 189.04Q432.302 189.723 432.425 190.412Q432.547 191.102 432.636 191.797Q432.724 192.492 432.778 193.19Q432.832 193.888 432.851 194.589Q432.87 195.289 432.855 195.989Q432.839 196.689 432.789 197.388Q432.739 198.087 432.654 198.782Q432.57 199.478 432.451 200.168Q432.331 200.858 432.178 201.542Q432.025 202.225 431.838 202.9Q431.651 203.575 431.431 204.24Q431.211 204.905 430.959 205.559Q430.706 206.212 430.421 206.852Q430.136 207.492 429.82 208.117Q429.504 208.742 429.157 209.351Q428.81 209.959 428.434 210.55C423.996 217.642 417.719 221.051 409.813 222.933C403.667 223.503 397.644 222.532 392.296 219.298C385.866 215.409 381.714 209.033 380.034 201.783C378.292 194.267 379.422 185.763 383.642 179.266C388.063 172.46 394.872 168.661 402.708 167.084Z"/>
	<path fill="#F9DD1F" d="M351.615 277.643C345.733 281.556 339.653 283.55 332.532 282.118C325.979 280.801 320.724 276.81 317.047 271.325C313.832 266.528 312.666 258.626 313.942 253.085C315.377 246.852 319.052 241.271 324.564 237.936Q325.066 237.631 325.582 237.352Q326.098 237.073 326.628 236.82Q327.157 236.567 327.699 236.341Q328.24 236.115 328.793 235.916Q329.345 235.717 329.906 235.546Q330.468 235.375 331.037 235.233Q331.606 235.09 332.182 234.976Q332.758 234.862 333.338 234.777Q333.919 234.692 334.503 234.637Q335.088 234.581 335.674 234.554Q336.26 234.528 336.847 234.531Q337.434 234.533 338.02 234.566Q338.606 234.598 339.19 234.659Q339.773 234.721 340.353 234.811Q340.933 234.902 341.508 235.021Q342.082 235.141 342.65 235.289C348.88 236.931 354.093 241.217 357.275 246.772C360.697 252.745 361.454 259.516 359.447 266.097C358.719 268.482 357.523 270.723 356.289 272.879C376.205 310.252 372.248 337.066 371.57 377.101C369.577 377.073 367.581 376.906 365.593 376.781C367.163 371.841 366.36 363.843 366.42 358.646C366.75 330.203 364.731 303.479 351.615 277.643Z"/>
	<path fill="#F9DD1F" d="M595.53 776.535C639.754 766.141 690.641 733.632 726.021 705.732Q737.59 696.558 748.835 686.989C752.774 683.601 756.789 679.14 761.264 676.533C731.406 724.45 691.317 758.192 640.212 781.817C629.381 786.824 617.935 792.174 606.404 795.343C602.44 789.54 597.746 783.254 595.53 776.535Z"/>
	<path fill="#F9DD1F" d="M328.547 782.731C342.945 785.31 356.946 789.73 371.383 792.232Q379.259 793.584 387.178 794.66Q395.097 795.737 403.049 796.536Q411 797.335 418.975 797.856Q426.95 798.378 434.938 798.62Q442.926 798.863 450.917 798.827Q458.909 798.79 466.894 798.475Q474.88 798.16 482.849 797.566Q490.819 796.972 498.763 796.101C506.431 795.203 514.548 794.494 522.05 792.631C528.011 801.225 537.112 808.177 545.301 814.596C542.73 815.306 540.106 815.885 537.5 816.453C485.154 827.857 427.353 826.484 376.886 807.483C360.187 801.196 343.573 792.345 328.547 782.731Z"/>
	<path fill="#2CD7D2" d="M940.058 757.469C930.378 744.537 925.699 731.581 928.107 715.308C929.407 706.52 934.175 690.847 941.393 685.187C942.771 684.107 944.187 683.555 945.967 683.687C948.536 683.878 950.725 686.227 952.088 688.199C960.327 700.114 963.694 718.629 960.713 732.757C958.536 743.076 953.121 751.145 945.681 758.379C945.337 770.069 944.037 781.366 941.945 792.872C951.853 776.625 964.017 763.86 983.134 759.215C987.639 758.12 992.179 757.66 996.81 757.705C992.713 774.788 984.419 791.329 968.911 800.846C959.683 806.508 949.186 807.406 938.788 805.043C935.598 822.396 927.82 837.953 922.041 854.462C934.741 839.993 948.213 830.523 967.98 829.196C972.123 828.918 976.171 829.14 980.299 829.509C975.643 844.963 966.217 858.313 951.817 866.119C941.064 871.948 928.834 874.216 916.993 870.596C916.221 870.36 915.482 870.083 914.73 869.791C911.352 876.956 907.289 883.523 902.854 890.063C901.122 888.998 899.996 888.309 899.191 886.423L909.062 868.627C898.053 866.396 889.184 860.093 883.021 850.738C873.776 836.705 870.247 817.924 873.947 801.499C874.311 799.881 874.788 798.284 875.266 796.697Q876.878 797.704 878.439 798.787Q880 799.87 881.507 801.028Q883.014 802.185 884.463 803.414Q885.913 804.643 887.301 805.94Q888.689 807.238 890.014 808.6Q891.338 809.963 892.595 811.388Q893.852 812.813 895.038 814.298Q896.225 815.782 897.339 817.321Q898.452 818.861 899.49 820.453Q900.528 822.044 901.488 823.684Q902.448 825.324 903.328 827.008Q904.208 828.692 905.005 830.417Q905.803 832.142 906.516 833.903Q907.229 835.664 907.857 837.458Q908.484 839.252 909.024 841.073Q909.564 842.895 910.016 844.741C911.292 850.174 911.974 855.845 912.251 861.416C920.015 842.653 928.134 824.353 933.044 804.585C921.504 803.903 912.504 798.923 904.849 790.373C891.967 775.986 887.919 760.442 888.558 741.486C906.558 748.264 919.43 757.007 927.546 774.992C930.678 781.932 932.196 789.415 935.208 796.355C937.449 783.402 939.398 770.61 940.058 757.469Z"/>
	<path fill="#2CD7D2" d="M79.485 757.562C72.7754 751.37 67.8731 744.549 64.5627 735.997C59.2064 722.159 59.9475 709.044 65.9241 695.532C67.7372 691.433 70.3865 685.324 74.7901 683.614C77.3281 683.613 78.9395 684.727 80.8038 686.388C90.497 695.024 95.3327 709.437 95.9664 722.087C96.6254 735.241 92.6997 747.244 83.861 757.028C83.8263 771.383 84.0525 786.318 88.5233 800.081C89.3888 791.769 92.322 783.107 96.1595 775.708C105.144 758.384 119.73 748.241 138.03 742.451C137.082 751.596 135.523 760.204 132.19 768.807C123.885 790.241 111.888 803.172 90.936 812.347C96.9432 829.935 103.554 846.936 111.931 863.562Q111.713 860.188 111.812 856.809Q111.911 853.43 112.324 850.075Q112.738 846.72 113.464 843.418Q114.189 840.117 115.22 836.897C120.754 819.836 133.188 803.837 149.272 795.59C151.208 806.554 152.274 817.251 149.934 828.248C145.915 847.131 133.493 862.213 117.515 872.525L125.377 885.971C124.282 887.55 123.089 888.701 121.631 889.945C117.372 883.663 113.735 877.001 110.023 870.389C108.221 871.092 106.453 871.722 104.567 872.17C92.9349 874.934 79.8701 871.362 69.9287 865.164C57.7499 857.57 47.1908 844.092 43.9487 829.988C67.6342 829.904 84.1588 837.51 101.749 852.858C94.5827 837.903 88.4596 821.215 85.04 804.96C73.07 807.98 60.753 805.099 50.3233 798.81C34.2878 789.141 26.9478 771.875 22.7244 754.394Q28.8262 754.6 34.8141 755.791C56.4987 760.067 70.1782 773.763 82.2297 791.482C80.1323 779.905 79.2985 769.327 79.485 757.562Z"/>
	<path fill="#F9DD1F" d="M145.559 48.6191C149.38 48.3493 153.013 48.544 156.721 49.5058C168.745 52.6243 178.034 62.11 184.137 72.5658C193.932 89.3484 196.364 110.345 191.305 129.06C187.207 144.221 177.703 156.866 164.022 164.663C146.434 174.685 125.984 174.813 106.89 169.606C99.2475 167.212 91.6462 163.725 85.1725 158.976C76.7111 152.769 69.8706 143.985 68.281 133.39C67.1588 125.911 69.1669 118.565 73.6795 112.515C79.5276 104.674 88.2854 100.074 97.8893 98.7916Q98.9215 98.6487 99.9594 98.5571Q100.997 98.4654 102.039 98.4251Q103.08 98.3848 104.122 98.3961Q105.164 98.4073 106.204 98.47Q107.244 98.5328 108.28 98.6468Q109.316 98.7608 110.344 98.9259Q111.373 99.091 112.393 99.3067Q113.412 99.5225 114.42 99.7883Q115.427 100.054 116.42 100.369Q117.414 100.685 118.39 101.049Q119.366 101.413 120.324 101.825Q121.281 102.236 122.216 102.695Q123.152 103.154 124.064 103.658Q124.976 104.162 125.862 104.711Q126.747 105.26 127.605 105.852Q128.463 106.443 129.29 107.077Q128.288 105.435 127.422 103.718Q126.556 102.001 125.831 100.219Q125.105 98.4378 124.526 96.6038Q123.947 94.7697 123.517 92.895C121.073 82.5044 121.168 70.1925 127.063 60.9165C131.476 53.9732 137.695 50.3336 145.559 48.6191Z"/>
	<path d="M155.078 73.0414Q156.261 72.9544 157.441 73.0673C159.447 73.2517 161.271 74.1731 162.517 75.7812Q162.709 76.0244 162.875 76.2863Q163.04 76.5483 163.177 76.8263Q163.315 77.1042 163.422 77.395Q163.529 77.6858 163.605 77.9863Q163.681 78.2867 163.725 78.5935Q163.769 78.9003 163.781 79.21Q163.792 79.5197 163.771 79.8289Q163.75 80.1381 163.697 80.4434C163.265 83.0267 161.697 84.3129 159.665 85.7603C158.488 85.7921 157.303 85.7598 156.146 85.5175C154.193 85.1086 152.292 83.7457 151.292 82.0124C150.484 80.611 150.457 79.0792 150.866 77.5567C151.453 75.3689 153.269 74.1593 155.078 73.0414Z"/>
	<path d="M99.2039 128.054Q100.805 128.057 102.346 128.493C104.303 129.03 106.084 130.419 107.052 132.21C108.096 134.141 108.101 136.408 107.314 138.432C106.225 141.232 104.128 142.365 101.527 143.556C100.094 143.561 98.5215 143.671 97.1758 143.107C95.1767 142.27 93.4689 140.499 92.7295 138.464Q92.5941 138.092 92.4975 137.709Q92.401 137.326 92.3442 136.934Q92.2875 136.543 92.2712 136.148Q92.2549 135.753 92.2792 135.358Q92.3035 134.963 92.3681 134.573Q92.4328 134.183 92.5371 133.802Q92.6414 133.42 92.7843 133.052Q92.9272 132.683 93.1071 132.331C94.3908 129.788 96.6135 128.842 99.2039 128.054Z"/>
	<path fill="#F9DD1F" d="M835.131 49.5842C839.835 49.163 844.343 49.2088 848.884 50.7131C856.217 53.1419 861.929 59.119 865.19 65.9886C871.824 79.961 868.881 96.8476 863.937 110.833C876.395 103.462 890.786 96.9174 905.586 100.338C913.216 102.101 920.062 106.807 924.118 113.559C928.268 120.468 928.948 128.82 926.827 136.496C923.085 150.036 911.156 159.799 899.453 166.475C894.213 169.032 888.937 171.081 883.237 172.371C864.928 176.518 846.913 172.642 831.148 162.691C814.998 152.497 802.967 136.672 798.742 117.94Q798.385 116.425 798.104 114.893Q797.822 113.362 797.617 111.819Q797.413 110.275 797.285 108.724Q797.157 107.172 797.106 105.616Q797.056 104.06 797.083 102.503Q797.109 100.946 797.214 99.393Q797.318 97.8395 797.499 96.2932Q797.681 94.7469 797.938 93.2115Q798.196 91.6761 798.53 90.1554Q798.864 88.6348 799.274 87.1326Q799.683 85.6304 800.166 84.1504Q800.649 82.6704 801.206 81.2163Q801.762 79.7621 802.39 78.3375Q803.018 76.9128 803.716 75.5211Q804.414 74.1294 805.18 72.7741Q805.946 71.4188 806.779 70.1033C813.397 59.6695 823.014 52.2299 835.131 49.5842Z"/>
	<path d="M836.153 73.0521C837.109 73.0705 838.007 73.1604 838.934 73.3918Q839.345 73.4914 839.744 73.6323Q840.143 73.7732 840.526 73.954Q840.909 74.1348 841.271 74.3535Q841.633 74.5723 841.972 74.8267Q842.31 75.0812 842.62 75.3687Q842.931 75.6562 843.211 75.9739Q843.49 76.2915 843.736 76.6359Q843.982 76.9803 844.192 77.348C845.301 79.301 845.509 81.4699 844.744 83.5896C843.784 86.2502 841.636 87.481 839.178 88.55C837.389 88.5589 835.45 88.7281 833.789 87.945C831.809 87.011 830.211 85.3106 829.541 83.2119Q829.43 82.8622 829.354 82.5032Q829.278 82.1442 829.238 81.7793Q829.199 81.4145 829.196 81.0475Q829.193 80.6806 829.226 80.3152Q829.26 79.9498 829.33 79.5895Q829.4 79.2293 829.506 78.8779Q829.612 78.5265 829.752 78.1874Q829.892 77.8484 830.066 77.525C831.411 74.9686 833.525 73.9273 836.153 73.0521Z"/>
	<path d="M896.61 127.055C897.806 127.11 898.922 127.176 900.075 127.527C902.229 128.182 904.209 129.618 905.22 131.669C906.132 133.519 906.152 135.616 905.484 137.548C904.398 140.682 902.16 142.001 899.294 143.334C897.969 143.262 896.6 143.217 895.341 142.758Q894.946 142.61 894.567 142.424Q894.189 142.238 893.83 142.014Q893.472 141.791 893.138 141.533Q892.804 141.275 892.498 140.985Q892.191 140.695 891.915 140.376Q891.639 140.057 891.396 139.712Q891.154 139.367 890.947 138.999Q890.739 138.632 890.57 138.245Q890.399 137.854 890.27 137.447Q890.141 137.04 890.057 136.621Q889.973 136.203 889.935 135.778Q889.896 135.353 889.903 134.926Q889.911 134.499 889.964 134.075Q890.017 133.652 890.115 133.236Q890.213 132.821 890.355 132.418Q890.497 132.016 890.682 131.631C891.936 129.013 893.979 127.955 896.61 127.055Z"/>
	<path fill="#F9DD1F" d="M242.053 702.634L242.614 702.799C258.585 707.635 273.737 715.737 289.643 721.038C345.87 739.779 400.94 751.329 460.493 751.556C473.076 751.604 485.828 751.65 498.334 750.1C502.237 764.282 508.443 777.754 518.516 788.698C520.107 789.466 521.056 791.214 522.05 792.631C514.548 794.494 506.431 795.203 498.763 796.101Q490.819 796.972 482.849 797.566Q474.88 798.16 466.894 798.475Q458.909 798.79 450.917 798.827Q442.926 798.863 434.938 798.62Q426.95 798.378 418.975 797.856Q411 797.335 403.049 796.536Q395.097 795.737 387.178 794.66Q379.259 793.584 371.383 792.232C356.946 789.73 342.945 785.31 328.547 782.731C324.565 780.435 320.7 777.65 317.008 774.923C313.408 772.958 309.894 770.108 306.544 767.716C282.559 750.585 258.164 727.44 242.053 702.634Z"/>
	<path fill="#FEFEFE" d="M317.008 774.923C320.317 774.426 336.713 779.947 341.172 781.114Q366.905 787.781 393.284 791.067Q401.088 791.918 408.915 792.519Q416.743 793.121 424.585 793.473Q432.427 793.825 440.277 793.926Q448.127 794.028 455.976 793.879Q463.825 793.731 471.665 793.332Q479.505 792.934 487.328 792.286Q495.152 791.638 502.951 790.74Q510.75 789.843 518.516 788.698C520.107 789.466 521.056 791.214 522.05 792.631C514.548 794.494 506.431 795.203 498.763 796.101Q490.819 796.972 482.849 797.566Q474.88 798.16 466.894 798.475Q458.909 798.79 450.917 798.827Q442.926 798.863 434.938 798.62Q426.95 798.378 418.975 797.856Q411 797.335 403.049 796.536Q395.097 795.737 387.178 794.66Q379.259 793.584 371.383 792.232C356.946 789.73 342.945 785.31 328.547 782.731C324.565 780.435 320.7 777.65 317.008 774.923Z"/>
	<defs>
		<linearGradient id="gradient_0" gradientUnits="userSpaceOnUse" x1="564.36542" y1="534.33514" x2="464.47458" y2="788.84644">
			<stop offset="0" stop-color="#FDF8E1"/>
			<stop offset="1" stop-color="white"/>
		</linearGradient>
	</defs>
	<path fill="url(#gradient_0)" d="M570.259 734.516C582.244 731.31 594.658 729.657 606.7 726.473Q613.391 724.654 620.016 722.612Q626.642 720.57 633.196 718.307Q639.75 716.045 646.225 713.564Q652.699 711.084 659.087 708.388Q665.475 705.692 671.769 702.784Q678.064 699.877 684.257 696.76Q690.45 693.643 696.536 690.321Q702.622 686.999 708.593 683.475Q720.785 676.393 732.366 668.352Q743.948 660.31 754.844 651.362C759.778 647.295 764.76 643.22 769.508 638.937C774.862 634.107 784.456 622.482 791.308 620.597C789.374 624.923 787.367 629.143 785.138 633.328C779.691 645.092 772.863 656.307 766.443 667.562C764.78 670.597 763.094 673.595 761.264 676.533C756.789 679.14 752.774 683.601 748.835 686.989Q737.59 696.558 726.021 705.732C690.641 733.632 639.754 766.141 595.53 776.535C597.746 783.254 602.44 789.54 606.404 795.343C612.025 804.034 621.591 815.144 631.079 819.678C634.946 821.526 640.085 822.961 643.445 825.62C644.926 826.792 645.372 828.058 645.313 829.942C644.07 833.052 640.565 834.447 637.649 835.677C618.612 843.705 592.273 838.334 573.991 830.69C568.522 828.404 563.194 825.897 558.147 822.777C553.843 820.115 549.76 816.982 545.301 814.596C537.112 808.177 528.011 801.225 522.05 792.631C521.056 791.214 520.107 789.466 518.516 788.698C508.443 777.754 502.237 764.282 498.334 750.1C485.828 751.65 473.076 751.604 460.493 751.556C400.94 751.329 345.87 739.779 289.643 721.038C273.737 715.737 258.585 707.635 242.614 702.799L242.053 702.634C240.515 700.879 239.368 698.973 238.155 696.992C242.839 696.969 289.842 716.37 299.141 719.5C362.028 740.666 431.134 751.529 497.493 745.07C496.945 741.537 496.469 738.098 496.573 734.515C496.794 726.864 498.768 718.051 504.679 712.739C509.272 708.61 515.302 707.509 521.294 707.856C540.026 708.941 558.131 720.838 570.259 734.516Z"/>
	<path fill="#F9DD1F" d="M573.684 737.794C584.316 736.606 594.953 734.21 605.332 731.675Q610.099 730.469 614.835 729.148Q619.571 727.827 624.273 726.391Q628.976 724.956 633.643 723.408Q638.309 721.859 642.937 720.198Q647.565 718.537 652.151 716.765Q656.738 714.993 661.28 713.11Q665.822 711.227 670.317 709.235Q674.812 707.243 679.258 705.143Q683.704 703.043 688.098 700.836Q692.491 698.629 696.83 696.317Q701.169 694.004 705.451 691.587Q709.733 689.171 713.955 686.651Q718.177 684.131 722.337 681.51Q726.497 678.889 730.593 676.169Q734.688 673.448 738.716 670.629Q742.745 667.81 746.704 664.894Q758.73 656.164 769.854 646.31C774.366 642.35 779.271 636.86 784.357 633.785C784.615 633.629 784.878 633.481 785.138 633.328C779.691 645.092 772.863 656.307 766.443 667.562C764.78 670.597 763.094 673.595 761.264 676.533C756.789 679.14 752.774 683.601 748.835 686.989Q737.59 696.558 726.021 705.732C690.641 733.632 639.754 766.141 595.53 776.535C595.526 776.174 595.542 775.785 595.432 775.435C595.04 774.18 594.682 773.958 593.61 773.376C588.063 760.712 581.847 749.012 573.684 737.794Z"/>
	<path fill="#FEFEFE" d="M593.61 773.376C599.104 770.861 605.267 769.153 610.957 767.042Q623.515 762.341 635.57 756.469Q648.332 750.24 660.704 743.268Q673.075 736.295 685.013 728.602Q696.95 720.91 708.411 712.525Q719.873 704.14 730.818 695.091C739.747 687.844 748.106 679.938 756.963 672.617C759.475 670.541 763.024 667.243 766.443 667.562C764.78 670.597 763.094 673.595 761.264 676.533C756.789 679.14 752.774 683.601 748.835 686.989Q737.59 696.558 726.021 705.732C690.641 733.632 639.754 766.141 595.53 776.535C595.526 776.174 595.542 775.785 595.432 775.435C595.04 774.18 594.682 773.958 593.61 773.376Z"/>
	<path fill="#F9DD1F" d="M215.757 652.237C243.371 661.443 271.346 670.784 299.559 678.017C325.216 684.595 351.671 689.384 377.926 692.828C491.061 707.666 643.798 698.268 742.403 637.263Q748.396 633.579 754.184 629.582Q759.972 625.584 765.539 621.284Q771.106 616.984 776.436 612.393Q781.766 607.803 786.844 602.935C792.719 597.362 799.323 589.016 805.568 584.403C805.817 584.219 806.071 584.041 806.322 583.86C803.236 593.859 796.329 611.528 791.308 620.597C784.456 622.482 774.862 634.107 769.508 638.937C764.76 643.22 759.778 647.295 754.844 651.362Q743.948 660.31 732.366 668.352Q720.785 676.393 708.593 683.475Q702.622 686.999 696.536 690.321Q690.45 693.643 684.257 696.76Q678.064 699.877 671.769 702.784Q665.475 705.692 659.087 708.388Q652.699 711.084 646.225 713.564Q639.75 716.045 633.196 718.307Q626.642 720.57 620.016 722.612Q613.391 724.654 606.7 726.473C594.658 729.657 582.244 731.31 570.259 734.516C558.131 720.838 540.026 708.941 521.294 707.856C515.302 707.509 509.272 708.61 504.679 712.739C498.768 718.051 496.794 726.864 496.573 734.515C496.469 738.098 496.945 741.537 497.493 745.07C431.134 751.529 362.028 740.666 299.141 719.5C289.842 716.37 242.839 696.969 238.155 696.992C236.521 695.099 235.176 692.477 233.85 690.332C226.348 678.185 220.983 665.479 215.757 652.237Z"/>
	<path fill="#11BAB2" d="M125.377 885.971C127.273 882.696 129.989 879.661 132.502 876.824C142.854 865.143 155.11 856.513 170.336 852.526Q171.955 852.108 173.593 851.77Q175.23 851.432 176.883 851.176Q178.535 850.92 180.198 850.745Q181.861 850.571 183.531 850.478Q185.2 850.386 186.872 850.376Q188.544 850.367 190.215 850.44Q191.886 850.513 193.55 850.668Q195.215 850.823 196.871 851.06Q198.526 851.298 200.167 851.616Q201.809 851.935 203.433 852.334Q205.056 852.734 206.658 853.213Q208.26 853.692 209.837 854.249Q211.413 854.807 212.96 855.441Q214.507 856.076 216.021 856.786Q217.535 857.497 219.012 858.281Q220.489 859.065 221.925 859.921C233.288 866.63 240.06 876.593 249.039 885.804C265.472 902.66 290.191 908.952 312.923 903.21C351.058 893.577 354.094 851.556 403.254 851.425Q405.519 851.404 407.781 851.534Q410.042 851.665 412.29 851.946Q414.538 852.228 416.762 852.66Q418.985 853.092 421.175 853.671Q423.365 854.251 425.511 854.976Q427.658 855.701 429.75 856.568Q431.843 857.436 433.873 858.441Q435.903 859.447 437.861 860.586C463.402 875.515 469.106 900.199 503.011 904.543C512.167 905.716 521.628 905.446 530.592 903.143C568.05 893.521 573.666 851.438 620.196 850.955Q622.362 850.926 624.526 851.042Q626.689 851.158 628.84 851.418Q630.991 851.679 633.12 852.083Q635.248 852.487 637.345 853.032Q639.442 853.578 641.498 854.263Q643.553 854.947 645.558 855.768Q647.563 856.589 649.509 857.542Q651.455 858.496 653.332 859.577C666.104 866.952 672.854 877.366 683.031 887.349C699.255 903.263 724.39 908.612 746.196 902.944C779.724 894.23 779.501 867.23 811.688 856.02Q814.669 854.969 817.732 854.188Q820.795 853.408 823.915 852.904Q827.036 852.401 830.189 852.179Q833.342 851.956 836.502 852.017C848.968 852.235 861.576 855.282 872.393 861.572Q876.984 864.297 881.147 867.638Q885.31 870.979 888.964 874.871C891.008 877.02 897.298 885.674 899.191 886.423C899.996 888.309 901.122 888.998 902.854 890.063C914.192 897.96 924.303 903.621 938.275 905.303C948.065 906.482 957.957 905.921 967.442 903.149C988.625 896.96 994.547 885.534 1008.29 870.28C1013.11 864.933 1018.34 860.446 1024 856.042L1024 946.792L1024 960.259L1024 1024L0 1024L0 962.756L0 949.483L0 856.459C7.21211 861.68 13.6466 867.375 19.6009 874.012C33.5599 889.572 39.8092 899.745 61.7328 904.183C70.6389 905.986 80.2174 906.256 89.1908 904.778C101.26 902.789 112.193 897.684 121.631 889.945C123.089 888.701 124.282 887.55 125.377 885.971Z"/>
	<path fill="#2CD7D2" d="M0 949.483C24.101 958.838 30.403 980.164 51.5476 990.072C60.4569 994.247 71.1073 996.017 80.8969 995.203C120.844 991.883 124.682 957.133 158.952 944.834C170.119 940.826 182.532 939.901 194.248 941.56C237.332 947.66 236.945 975.869 266.924 989.966Q268.756 990.842 270.642 991.594Q272.528 992.346 274.461 992.971Q276.393 993.595 278.363 994.089Q280.332 994.583 282.331 994.945Q284.329 995.306 286.347 995.534Q288.365 995.761 290.393 995.853Q292.422 995.945 294.452 995.902Q296.482 995.858 298.505 995.679C313.331 994.464 326.343 988.553 336.608 977.726C341.42 972.652 345.726 967.088 350.708 962.174Q352.133 960.758 353.633 959.421Q355.134 958.085 356.705 956.832Q358.276 955.579 359.913 954.414Q361.55 953.25 363.248 952.176Q364.946 951.102 366.7 950.122Q368.455 949.143 370.26 948.26Q372.065 947.378 373.916 946.596Q375.766 945.813 377.657 945.133C403.983 935.802 432.323 943.156 452.144 962.349C462.313 972.196 470.56 983.939 483.679 990.174C493.339 994.765 503.778 996.475 514.418 996.035C557.748 994.243 560.037 958.123 595.148 945.759Q596.26 945.363 597.386 945.006Q598.511 944.648 599.648 944.33Q600.785 944.012 601.932 943.733Q603.079 943.453 604.236 943.214Q605.392 942.975 606.556 942.776Q607.719 942.576 608.889 942.417Q610.059 942.258 611.234 942.139Q612.408 942.02 613.587 941.942Q614.765 941.864 615.945 941.827Q617.125 941.789 618.306 941.792Q619.486 941.796 620.666 941.839Q621.846 941.883 623.024 941.968Q624.201 942.052 625.375 942.177Q626.549 942.302 627.718 942.468Q628.887 942.633 630.05 942.839Q631.213 943.044 632.368 943.29Q633.522 943.535 634.668 943.821Q635.814 944.106 636.949 944.43Q638.084 944.755 639.208 945.118Q640.331 945.482 641.441 945.884Q642.551 946.286 643.647 946.726Q644.743 947.166 645.823 947.643Q646.902 948.12 647.965 948.635Q649.028 949.149 650.072 949.7Q651.117 950.251 652.141 950.837Q653.166 951.423 654.17 952.045Q655.174 952.666 656.156 953.322Q657.138 953.977 658.097 954.666Q659.056 955.355 659.99 956.077Q660.925 956.798 661.834 957.552Q662.743 958.305 663.625 959.09Q664.508 959.874 665.363 960.688C676.108 971.087 683.904 983.357 697.958 989.939C707.3 994.314 718.028 996.098 728.298 995.691C771.484 993.981 775.03 958.017 809.262 945.711C835.166 936.399 862.547 941.579 882.289 961.047C892.913 971.525 900.986 983.382 914.964 989.882Q916.788 990.742 918.665 991.48Q920.542 992.218 922.464 992.831Q924.385 993.444 926.342 993.93Q928.3 994.416 930.285 994.772Q932.27 995.129 934.274 995.354Q936.278 995.579 938.293 995.673Q940.307 995.766 942.324 995.727Q944.34 995.688 946.35 995.517C980.072 992.62 981.601 974.348 1003.61 957.239C1009.82 952.414 1016.7 949.507 1024 946.792L1024 960.259C992.366 975.023 992.653 1002.8 950.071 1007.37C938.667 1008.6 926.989 1007.57 916.175 1003.62Q912.792 1002.39 909.546 1000.83Q906.301 999.276 903.224 997.408Q900.146 995.54 897.268 993.379Q894.389 991.218 891.736 988.785C872.857 971.601 864.66 953.677 835.382 953.433C826.534 953.359 817.451 955.039 809.377 958.714C795.751 964.917 788.651 976.37 778.307 986.33Q777.324 987.274 776.308 988.182Q775.292 989.09 774.245 989.962Q773.198 990.834 772.121 991.669Q771.044 992.503 769.938 993.299Q768.832 994.096 767.699 994.852Q766.566 995.609 765.406 996.325Q764.247 997.042 763.063 997.717Q761.88 998.392 760.673 999.024Q759.466 999.657 758.238 1000.25Q757.01 1000.84 755.762 1001.38Q754.513 1001.93 753.246 1002.43Q751.98 1002.93 750.696 1003.39Q749.412 1003.85 748.113 1004.26Q746.814 1004.67 745.502 1005.04Q744.189 1005.4 742.864 1005.72Q741.54 1006.04 740.204 1006.31Q738.869 1006.59 737.525 1006.81Q736.182 1007.04 734.831 1007.21Q733.48 1007.39 732.123 1007.52Q730.767 1007.65 729.406 1007.73Q728.046 1007.82 726.684 1007.85Q725.322 1007.88 723.959 1007.87Q722.597 1007.86 721.236 1007.8Q719.874 1007.73 718.516 1007.62Q717.158 1007.51 715.804 1007.36Q714.451 1007.2 713.104 1006.99Q711.757 1006.79 710.417 1006.54Q709.078 1006.28 707.749 1005.98Q706.42 1005.69 705.102 1005.34Q703.784 1004.99 702.479 1004.6Q701.174 1004.21 699.883 1003.77Q698.593 1003.33 697.319 1002.85C666.483 991.37 657.442 955.754 621.238 953.93Q619.615 953.842 617.989 953.849Q616.363 953.856 614.74 953.959Q613.118 954.062 611.504 954.259Q609.89 954.456 608.291 954.748Q606.692 955.04 605.112 955.425Q603.532 955.81 601.978 956.287Q600.424 956.764 598.9 957.331Q597.377 957.898 595.889 958.554C581.965 964.848 574.693 976.532 564.159 986.751C542.916 1007.36 511.755 1013.23 484.051 1003.05Q481.036 1001.96 478.137 1000.59Q475.239 999.227 472.483 997.59Q469.727 995.953 467.139 994.062Q464.551 992.172 462.154 990.044C456.599 985.143 451.913 979.275 446.761 973.959C435.052 961.876 420.448 953.847 403.344 953.462C394.502 953.263 385.203 954.703 377.125 958.408C362.788 964.982 354.103 977.753 343.063 988.339C322.538 1008.02 293.414 1012.56 267.014 1002.86C231.402 989.768 227.436 954.52 186.506 953.003C176.951 952.649 167.519 954.226 158.78 958.18C128.76 971.762 129.244 1001.84 85.2635 1006.72C74.0099 1007.97 62.1627 1006.9 51.5151 1002.95C24.9888 993.103 20.4818 974.491 0 962.756L0 949.483Z"/>
	<path fill="#11BAB2" d="M0 962.756C20.4818 974.491 24.9888 993.103 51.5151 1002.95C62.1627 1006.9 74.0099 1007.97 85.2635 1006.72C129.244 1001.84 128.76 971.762 158.78 958.18C167.519 954.226 176.951 952.649 186.506 953.003C227.436 954.52 231.402 989.768 267.014 1002.86C293.414 1012.56 322.538 1008.02 343.063 988.339C354.103 977.753 362.788 964.982 377.125 958.408C385.203 954.703 394.502 953.263 403.344 953.462C420.448 953.847 435.052 961.876 446.761 973.959C451.913 979.275 456.599 985.143 462.154 990.044Q464.551 992.172 467.139 994.062Q469.727 995.953 472.483 997.59Q475.239 999.227 478.137 1000.59Q481.036 1001.96 484.051 1003.05C511.755 1013.23 542.916 1007.36 564.159 986.751C574.693 976.532 581.965 964.848 595.889 958.554Q597.377 957.898 598.9 957.331Q600.424 956.764 601.978 956.287Q603.532 955.81 605.112 955.425Q606.692 955.04 608.291 954.748Q609.89 954.456 611.504 954.259Q613.118 954.062 614.74 953.959Q616.363 953.856 617.989 953.849Q619.615 953.842 621.238 953.93C657.442 955.754 666.483 991.37 697.319 1002.85Q698.593 1003.33 699.883 1003.77Q701.174 1004.21 702.479 1004.6Q703.784 1004.99 705.102 1005.34Q706.42 1005.69 707.749 1005.98Q709.078 1006.28 710.417 1006.54Q711.757 1006.79 713.104 1006.99Q714.451 1007.2 715.804 1007.36Q717.158 1007.51 718.516 1007.62Q719.874 1007.73 721.236 1007.8Q722.597 1007.86 723.959 1007.87Q725.322 1007.88 726.684 1007.85Q728.046 1007.82 729.406 1007.73Q730.767 1007.65 732.123 1007.52Q733.479 1007.39 734.831 1007.21Q736.182 1007.04 737.525 1006.81Q738.869 1006.59 740.204 1006.31Q741.54 1006.04 742.864 1005.72Q744.189 1005.4 745.502 1005.04Q746.814 1004.67 748.113 1004.26Q749.412 1003.85 750.696 1003.39Q751.98 1002.93 753.247 1002.43Q754.513 1001.93 755.762 1001.38Q757.01 1000.84 758.238 1000.25Q759.466 999.657 760.673 999.024Q761.88 998.392 763.063 997.717Q764.247 997.042 765.406 996.325Q766.566 995.609 767.699 994.852Q768.832 994.096 769.938 993.299Q771.044 992.503 772.121 991.669Q773.198 990.834 774.245 989.962Q775.292 989.09 776.308 988.182Q777.324 987.274 778.307 986.33C788.651 976.37 795.751 964.917 809.377 958.714C817.451 955.039 826.534 953.359 835.382 953.433C864.66 953.677 872.857 971.601 891.736 988.785Q894.389 991.218 897.268 993.379Q900.146 995.54 903.224 997.408Q906.301 999.276 909.546 1000.83Q912.792 1002.39 916.175 1003.62C926.989 1007.57 938.667 1008.6 950.071 1007.37C992.653 1002.8 992.366 975.023 1024 960.259L1024 1024L0 1024L0 962.756Z"/>
	<path fill="#FEFEFE" d="M682.618 287.552L683.044 288.025C697.218 304 707.895 324.927 731.852 326.432C739.959 326.942 748.129 325.621 756.232 325.373C778.761 324.685 799.574 331.143 814.918 348.287Q817.068 350.708 818.964 353.333Q820.861 355.957 822.485 358.758Q824.109 361.559 825.444 364.509Q826.78 367.458 827.813 370.527C834.666 353.945 845.2 341.384 862.162 334.446C890.038 323.043 912.977 338.139 937.202 331.062C954.412 326.034 964.039 306.194 976.309 301.23C977.583 301.939 977.922 303.165 978.313 304.526C984.514 326.13 975.951 351.367 965.273 370.151C950.007 397.006 925.015 415.307 895.405 423.301C878.477 427.872 849.802 432.14 838.848 446.928C837.261 457.07 836.081 467.277 834.323 477.39Q830.706 498.137 825.772 518.611Q820.838 539.085 814.607 559.202C812.06 567.323 809.814 576.113 806.322 583.86C806.071 584.041 805.817 584.219 805.568 584.403C799.323 589.016 792.719 597.362 786.844 602.935Q781.766 607.803 776.436 612.393Q771.106 616.984 765.539 621.284Q759.972 625.584 754.184 629.582Q748.396 633.579 742.403 637.263C643.798 698.268 491.061 707.666 377.926 692.828C351.671 689.384 325.216 684.595 299.559 678.017C271.346 670.784 243.371 661.443 215.757 652.237C211.294 640.417 207.827 628.156 204.359 616.01C192.09 573.037 182.555 527.446 184.682 482.498C185.943 455.875 192.471 434.616 212.835 416.198C249.409 383.119 310.275 373.964 357.975 376.476C359.606 376.481 361.347 376.612 362.963 376.414L365.593 376.781C367.581 376.906 369.577 377.073 371.57 377.101L374.483 377.463C376.582 377.672 378.731 377.993 380.839 377.997C400.615 380.241 419.72 383.773 438.757 389.67C490.461 405.685 539.787 437.826 577.67 476.226C595.187 493.981 609.971 515.809 631.332 529.199C672.122 554.767 721.86 546.528 758.479 517.448C776.918 502.805 789.848 484.923 798.859 463.288C801.548 456.833 804.089 449.996 804.844 443C804.904 442.435 804.93 441.885 804.947 441.317C794.359 426.632 769.572 422.064 753.395 415.732C723.125 403.883 700.979 381.065 687.983 351.525C680.81 335.22 676.678 316.561 679.627 298.784C680.261 294.967 681.2 291.156 682.618 287.552Z"/>
	<path d="M340.229 622.705C341.096 623.064 342.02 623.384 342.571 624.194C345.169 628.015 345.474 633.187 348.775 637.192C353.239 642.608 361.09 646.146 367.947 646.885Q368.474 646.944 369.002 646.984Q369.531 647.024 370.06 647.045Q370.59 647.066 371.12 647.068Q371.65 647.069 372.179 647.052Q372.709 647.035 373.238 646.999Q373.766 646.962 374.294 646.907Q374.821 646.852 375.345 646.777Q375.87 646.703 376.392 646.61Q376.914 646.517 377.432 646.405Q377.95 646.293 378.463 646.163Q378.977 646.032 379.486 645.884Q379.994 645.735 380.497 645.568Q381 645.401 381.497 645.216Q381.993 645.031 382.483 644.828Q382.973 644.625 383.455 644.405Q383.937 644.184 384.411 643.947Q384.884 643.709 385.349 643.455Q385.814 643.201 386.27 642.929Q386.725 642.659 387.17 642.371Q387.616 642.084 388.051 641.781Q388.485 641.478 388.909 641.159Q389.333 640.841 389.744 640.507Q390.156 640.174 390.556 639.826Q390.955 639.477 391.342 639.115Q391.729 638.753 392.102 638.377Q392.476 638.001 392.835 637.611Q393.195 637.222 393.54 636.82Q393.886 636.418 394.217 636.004Q394.547 635.59 394.863 635.164Q395.179 634.739 395.479 634.302Q395.779 633.865 396.063 633.418Q396.347 632.97 396.615 632.513C397.724 630.595 398.937 626.406 400.671 625.222C401.272 624.812 401.58 625.005 402.247 625.085C403.029 625.73 403.602 626.217 404.024 627.176C404.895 629.151 404.048 630.854 403.332 632.709Q402.683 634.122 401.913 635.474Q401.143 636.825 400.258 638.103Q399.372 639.381 398.378 640.577Q397.384 641.773 396.289 642.877C389.672 649.573 380.868 653.076 371.48 653.1Q370.59 653.111 369.701 653.078Q368.812 653.046 367.926 652.969Q367.04 652.893 366.158 652.773Q365.277 652.653 364.402 652.489Q363.528 652.326 362.662 652.119Q361.797 651.913 360.943 651.664Q360.089 651.416 359.248 651.125Q358.407 650.834 357.581 650.503Q356.756 650.171 355.948 649.799Q355.14 649.427 354.351 649.016Q353.562 648.604 352.795 648.154Q352.027 647.705 351.283 647.217Q350.538 646.73 349.819 646.207Q349.099 645.684 348.406 645.126Q347.713 644.568 347.049 643.976Q346.385 643.385 345.75 642.761C341.905 638.915 337.893 633.444 338.008 627.808C338.056 625.489 338.572 624.297 340.229 622.705Z"/>
	<path d="M456.942 568.103C461.799 567.69 466.149 567.937 470.634 570.14C476.8 573.168 481.293 579.125 483.558 585.515Q483.805 586.233 484.016 586.962Q484.227 587.691 484.402 588.429Q484.576 589.168 484.714 589.914Q484.852 590.66 484.952 591.412Q485.053 592.164 485.116 592.921Q485.179 593.677 485.205 594.435Q485.23 595.194 485.218 595.953Q485.206 596.712 485.156 597.469Q485.107 598.226 485.019 598.98Q484.932 599.734 484.808 600.482Q484.683 601.231 484.522 601.972Q484.36 602.714 484.162 603.447Q483.964 604.179 483.73 604.901Q483.496 605.623 483.226 606.332Q482.957 607.042 482.652 607.737Q482.348 608.432 482.009 609.111C478.305 616.644 472.501 620.918 464.647 623.57C459.213 624.361 454.588 623.866 449.652 621.269C443.186 617.868 438.692 611.64 436.637 604.72C434.365 597.07 435.007 588.296 438.916 581.29C442.954 574.052 449.162 570.244 456.942 568.103Z"/>
	<path fill="#FEFEFE" d="M448.934 581.967C450.936 582.119 452.647 582.281 454.035 583.963C455.013 585.149 455.43 586.642 455.076 588.154C454.59 590.229 453.327 591.107 451.615 592.116C449.561 591.792 447.654 591.47 446.359 589.647C445.553 588.514 445.176 587.465 445.433 586.063C445.825 583.926 447.251 583.038 448.934 581.967Z"/>
</svg>
