<?xml version="1.0" encoding="utf-8" ?>
<svg xmlns="http://www.w3.org/2000/svg" xmlns:xlink="http://www.w3.org/1999/xlink" width="1024" height="1024">
	<path d="M0 0L779.411 0L1024 0L1024 230.381L1024 1024L257.362 1024L0 1024L0 796.06L0 0Z"/>
	<path fill="#FDFDFD" d="M955.167 595.475C955.897 595.473 956.6 595.503 957.319 595.642C959.747 596.11 962.113 597.343 963.428 599.506C964.573 601.389 964.711 603.617 964.032 605.694C963.119 608.49 960.972 610.103 958.503 611.471C957.355 611.514 956.256 611.561 955.129 611.298C952.943 610.786 950.846 609.346 949.754 607.362C948.672 605.398 948.573 603.14 949.319 601.039C950.365 598.093 952.509 596.82 955.167 595.475Z"/>
	<path fill="#FDFDFD" d="M690.056 238.054C691.48 238.111 692.847 238.22 694.19 238.738C696.078 239.467 697.76 240.954 698.561 242.829C699.447 244.9 699.287 247.119 698.345 249.144C697.065 251.894 694.809 253.089 692.118 254.171C690.827 254.102 689.676 253.941 688.457 253.481C686.351 252.686 684.539 250.979 683.717 248.871Q683.583 248.521 683.485 248.16Q683.387 247.799 683.325 247.43Q683.263 247.061 683.239 246.688Q683.214 246.315 683.226 245.941Q683.238 245.567 683.287 245.196Q683.337 244.825 683.423 244.461Q683.509 244.097 683.63 243.743Q683.752 243.389 683.908 243.049C685.164 240.275 687.353 239.136 690.056 238.054Z"/>
	<path fill="#FDFDFD" d="M241.537 661.971C242.748 661.891 243.951 661.818 245.146 662.089C247.264 662.57 249.309 663.853 250.433 665.742C251.553 667.624 251.691 669.873 251.073 671.949C250.161 675.017 248.111 676.409 245.441 677.909C244.256 677.974 243.175 678.005 242.007 677.756C239.775 677.281 237.706 676.004 236.503 674.033C235.407 672.237 235.182 670.144 235.716 668.123C236.554 664.957 238.812 663.451 241.537 661.971Z"/>
	<path fill="#FDFDFD" d="M762.174 325.498C763.571 325.559 764.949 325.611 766.262 326.142C768.39 327.004 770.163 328.622 771.03 330.769Q771.181 331.152 771.292 331.548Q771.404 331.944 771.474 332.349Q771.544 332.754 771.573 333.164Q771.602 333.575 771.589 333.986Q771.576 334.397 771.521 334.804Q771.466 335.212 771.369 335.612Q771.273 336.012 771.137 336.4Q771 336.788 770.825 337.16C769.567 339.811 767.55 341.062 764.903 342.092C764.139 342.051 764.105 342.066 763.252 341.928C760.791 341.529 758.255 340.093 756.883 337.978C755.649 336.076 755.482 333.931 756.072 331.776C756.971 328.494 759.336 327.02 762.174 325.498Z"/>
	<path fill="#FDFDFD" d="M248.139 422.995C249.533 423.096 250.928 423.183 252.224 423.751Q252.615 423.922 252.986 424.131Q253.358 424.34 253.707 424.585Q254.056 424.829 254.379 425.108Q254.702 425.386 254.996 425.695Q255.289 426.003 255.551 426.34Q255.813 426.677 256.04 427.037Q256.267 427.398 256.457 427.78Q256.647 428.161 256.798 428.56Q256.94 428.947 257.042 429.345Q257.144 429.744 257.205 430.152Q257.266 430.559 257.286 430.97Q257.305 431.382 257.283 431.793Q257.26 432.204 257.196 432.611Q257.133 433.018 257.028 433.416Q256.923 433.814 256.778 434.2Q256.633 434.585 256.45 434.954C255.158 437.618 252.979 438.674 250.296 439.562C249.291 439.522 248.341 439.494 247.372 439.199C244.998 438.476 242.846 436.925 241.813 434.619C240.863 432.496 240.966 430.146 241.916 428.042C243.177 425.245 245.43 424.107 248.139 422.995Z"/>
	<path fill="#FDFDFD" d="M581.086 58.9726C582.231 58.957 583.478 58.8915 584.595 59.1733C586.909 59.7568 589.073 61.6331 590.109 63.7572Q590.296 64.1456 590.442 64.5512Q590.587 64.9568 590.691 65.3753Q590.794 65.7938 590.853 66.2206Q590.913 66.6475 590.928 67.0782Q590.944 67.509 590.914 67.939Q590.885 68.369 590.812 68.7938Q590.739 69.2185 590.622 69.6334Q590.506 70.0484 590.347 70.4491C589.254 73.2283 587.188 74.4359 584.574 75.5831C583.286 75.6224 581.85 75.7407 580.592 75.433C578.541 74.9315 576.577 73.3159 575.555 71.4944C574.432 69.4925 574.331 67.0716 575.063 64.9191C576.11 61.8417 578.297 60.3515 581.086 58.9726Z"/>
	<path fill="#FDFDFD" d="M322.031 27.1131C323.369 27.304 324.756 27.4659 325.972 28.0969C328.045 29.173 329.783 31.0373 330.48 33.2909Q330.607 33.7 330.691 34.1198Q330.776 34.5397 330.817 34.966Q330.858 35.3923 330.855 35.8205Q330.852 36.2488 330.806 36.6745Q330.759 37.1003 330.669 37.519Q330.58 37.9378 330.447 38.3451Q330.315 38.7525 330.142 39.1442Q329.969 39.536 329.757 39.908C328.194 42.6824 325.717 43.7414 322.764 44.4968C321.578 44.2611 320.305 44.0496 319.204 43.5352C316.934 42.4742 315.126 40.2702 314.479 37.8593Q314.368 37.4456 314.301 37.0227Q314.234 36.5998 314.21 36.1721Q314.187 35.7445 314.208 35.3168Q314.229 34.889 314.294 34.4657Q314.358 34.0424 314.467 33.6281Q314.575 33.2137 314.726 32.8128Q314.876 32.4119 315.067 32.0286Q315.258 31.6454 315.488 31.2839C317.04 28.8498 319.313 27.7647 322.031 27.1131Z"/>
	<path fill="#FDFDFD" d="M420.159 763.494C421.518 763.458 422.998 763.541 424.287 764.001C426.744 764.878 428.822 766.638 429.841 769.07Q430.002 769.463 430.122 769.87Q430.242 770.278 430.32 770.695Q430.398 771.112 430.433 771.536Q430.469 771.959 430.461 772.383Q430.453 772.808 430.402 773.229Q430.351 773.651 430.257 774.065Q430.163 774.479 430.028 774.882Q429.893 775.284 429.717 775.671C428.463 778.485 426.2 779.79 423.484 780.952C421.977 781.028 420.306 781.032 418.855 780.562C416.693 779.86 414.793 778.355 413.789 776.295C412.776 774.22 412.777 771.822 413.575 769.677C414.778 766.445 417.18 764.922 420.159 763.494Z"/>
	<path fill="#FDFDFD" d="M414.08 930.369C415.718 933.433 416.708 937.021 418.077 940.234C421.947 949.321 429.908 950.703 438.3 954.088C435.576 955.371 432.715 956.352 429.914 957.455C418.407 961.984 418.632 967.48 414.077 977.919C412.99 975.07 411.924 972.2 410.745 969.388C406.719 959.782 398.85 957.666 389.985 953.996C393.821 952.091 398.014 950.881 401.886 949.034C409.813 945.252 411.322 937.965 414.08 930.369Z"/>
	<path fill="#FDFDFD" d="M775.74 610.715C778.609 612.413 782.916 621.684 785.111 624.946C790.122 627.145 794.922 630.037 799.731 632.65C794.857 635.737 789.709 638.479 784.552 641.056C781.58 645.363 779.241 650.231 776.739 654.826L776.421 655.182C774.017 654.082 769.919 644.065 768.517 641.169C763.424 638.45 758.388 635.609 753.329 632.824C767.216 625.53 767.985 624.281 775.74 610.715Z"/>
	<path fill="#FDFDFD" d="M965.763 346.74C969.19 349.052 972.465 357.496 974.441 361.324C979.579 364.119 984.855 366.512 989.871 369.554C984.933 373.277 979.697 375.646 974.096 378.176C971.614 383.075 969.078 387.828 966.18 392.501C963.481 389.058 962.052 384.714 959.834 380.955C956.763 375.748 947.786 373.388 942.855 369.945L942.267 369.532C947.378 366.691 952.716 364.16 957.933 361.511C960.45 356.542 963.263 351.727 965.763 346.74Z"/>
	<path fill="#FDFDFD" d="M33.7951 355.76C37.7351 358.324 39.0149 367.304 42.731 371C46.6268 374.874 53.4831 377.108 58.261 379.958C54.9952 381.964 51.4732 383.409 48.0502 385.113C40.382 388.93 37.9791 396.523 34.2047 403.722C31.4276 401.166 28.2208 392.031 26.1539 388.298C20.7678 385.325 15.1337 382.668 9.68898 379.78Q18.0046 375.674 26.1455 371.232C28.83 366.129 31.5288 361.068 33.7951 355.76Z"/>
	<path fill="#FDFDFD" d="M670.081 709.373C673.709 714.235 675.999 721.218 678.096 726.891C684.03 728.387 689.796 732.136 695.142 735.083C689.855 738.217 684.191 740.839 678.634 743.455C676.101 749.185 673.523 754.773 670.549 760.29C668.076 758.313 663.451 746.518 662.317 743.1C656.463 741.048 651.018 738.147 645.579 735.202C651.024 731.905 656.848 729.118 662.505 726.197C664.475 720.409 667.339 714.832 670.081 709.373Z"/>
	<path fill="#FCD912" d="M659.548 29.0773C663.727 28.7745 667.624 29.2711 671.316 31.3895Q672.11 31.8465 672.854 32.3802Q673.598 32.9139 674.285 33.519Q674.972 34.1242 675.596 34.7947Q676.22 35.4653 676.774 36.1946Q677.327 36.9239 677.806 37.7047Q678.284 38.4855 678.683 39.31Q679.081 40.1346 679.396 40.9947Q679.71 41.8548 679.937 42.7419Q680.159 43.6087 680.293 44.4935Q680.426 45.3782 680.47 46.2719Q680.515 47.1656 680.469 48.0592Q680.423 48.9528 680.288 49.8373Q680.153 50.7218 679.929 51.5882Q679.706 52.4547 679.397 53.2943Q679.088 54.134 678.696 54.9384Q678.304 55.7427 677.833 56.5037C674.854 61.3925 670.588 63.5725 665.25 64.9742C661.151 65.3692 657.383 64.9706 653.71 62.9694Q652.908 62.5266 652.153 62.0068Q651.398 61.4869 650.698 60.8951Q649.999 60.3033 649.361 59.6453Q648.723 58.9873 648.153 58.2695Q647.583 57.5517 647.087 56.7812Q646.591 56.0107 646.173 55.195Q645.755 54.3793 645.42 53.5263Q645.085 52.6733 644.836 51.7914C643.467 46.8957 644.354 41.7104 647.031 37.4165C650.009 32.6389 654.202 30.3493 659.548 29.0773Z"/>
	<path fill="#EAAF09" d="M60.0298 594.093C65.4507 593.541 70.7725 593.838 75.7273 596.358C81.3664 599.226 85.7584 604.576 87.6402 610.601Q87.8133 611.171 87.9583 611.749Q88.1033 612.327 88.2197 612.911Q88.3362 613.495 88.4239 614.084Q88.5115 614.674 88.5702 615.266Q88.6289 615.859 88.6585 616.454Q88.688 617.049 88.6884 617.645Q88.6887 618.241 88.6599 618.836Q88.631 619.431 88.573 620.024Q88.515 620.617 88.428 621.206Q88.341 621.795 88.2253 622.38Q88.1095 622.964 87.9652 623.542Q87.8209 624.12 87.6484 624.69Q87.476 625.26 87.2758 625.822Q87.0756 626.383 86.8481 626.933Q86.6207 627.484 86.3665 628.023Q86.1123 628.561 85.832 629.087C82.2468 635.79 76.6833 639.016 69.6667 641.155C63.9636 642.005 58.2039 641.499 53.089 638.644C47.3939 635.465 43.3312 629.965 41.5925 623.715Q41.4313 623.149 41.2986 622.575Q41.1658 622.001 41.0618 621.421Q40.9579 620.842 40.8829 620.258Q40.8079 619.674 40.7622 619.087Q40.7165 618.499 40.7001 617.911Q40.6836 617.322 40.6966 616.733Q40.7095 616.144 40.7518 615.557Q40.7941 614.97 40.8656 614.385Q40.9372 613.801 41.0377 613.22Q41.1383 612.64 41.2677 612.066Q41.397 611.491 41.5549 610.924Q41.7128 610.356 41.8987 609.798Q42.0846 609.239 42.2982 608.69Q42.5118 608.141 42.7524 607.604Q42.9931 607.066 43.2603 606.542Q43.5274 606.017 43.8204 605.506C47.4617 599.157 53.1499 595.884 60.0298 594.093Z"/>
	<path fill="#0DD0BE" d="M693.809 957.677C699.925 957.325 706.679 959.996 711.407 963.774Q711.941 964.2 712.452 964.653Q712.964 965.106 713.452 965.585Q713.94 966.063 714.403 966.565Q714.867 967.067 715.304 967.593Q715.741 968.118 716.151 968.664Q716.562 969.211 716.944 969.777Q717.326 970.344 717.679 970.929Q718.031 971.514 718.354 972.116Q718.677 972.719 718.969 973.336Q719.261 973.954 719.522 974.586Q719.782 975.218 720.01 975.862Q720.238 976.506 720.434 977.161Q720.629 977.815 720.791 978.479Q720.953 979.143 721.081 979.814Q721.209 980.486 721.303 981.162Q721.397 981.839 721.457 982.52C722.131 989.87 719.931 997.51 715.133 1003.16C710.011 1009.2 703.322 1012.07 695.623 1012.83C689.509 1012.96 683.984 1011.51 678.968 1007.91Q678.4 1007.5 677.853 1007.06Q677.306 1006.63 676.782 1006.16Q676.258 1005.7 675.759 1005.21Q675.259 1004.72 674.784 1004.21Q674.31 1003.69 673.862 1003.15Q673.414 1002.62 672.994 1002.06Q672.574 1001.5 672.183 1000.92Q671.792 1000.34 671.43 999.736Q671.069 999.136 670.739 998.52Q670.408 997.903 670.109 997.27Q669.81 996.637 669.543 995.99Q669.277 995.343 669.043 994.683Q668.81 994.023 668.61 993.353Q668.41 992.682 668.244 992.002Q668.078 991.322 667.947 990.635Q667.816 989.947 667.72 989.254Q667.623 988.561 667.56 987.864Q667.498 987.167 667.471 986.468Q667.443 985.768 667.451 985.068Q667.458 984.369 667.501 983.67Q667.544 982.972 667.622 982.276Q667.699 981.581 667.812 980.89Q667.924 980.199 668.071 979.515Q668.218 978.83 668.399 978.154Q668.58 977.478 668.794 976.812Q669.009 976.146 669.257 975.492Q669.505 974.837 669.785 974.196Q670.065 973.554 670.377 972.928Q670.689 972.302 671.032 971.691Q671.375 971.081 671.748 970.489Q672.121 969.897 672.523 969.325Q672.926 968.752 673.356 968.2C678.614 961.488 685.658 958.688 693.809 957.677Z"/>
	<path fill="#0DD0BE" d="M745.384 394.633C752.119 394.249 757.932 394.956 763.837 398.467C770.209 402.256 774.463 408.339 776.239 415.493Q776.41 416.166 776.547 416.847Q776.684 417.528 776.787 418.214Q776.89 418.901 776.959 419.592Q777.028 420.283 777.063 420.977Q777.097 421.67 777.098 422.365Q777.098 423.059 777.064 423.753Q777.03 424.446 776.962 425.137Q776.894 425.828 776.791 426.515Q776.689 427.202 776.552 427.883Q776.416 428.564 776.246 429.237Q776.076 429.911 775.873 430.575Q775.67 431.239 775.435 431.892Q775.199 432.545 774.932 433.186Q774.664 433.827 774.365 434.454Q774.066 435.081 773.736 435.692Q773.406 436.303 773.047 436.897C768.787 443.953 762.644 447.653 754.857 449.627C748.106 450.615 741.247 449.665 735.358 446.046C729.032 442.159 724.497 435.463 722.929 428.235Q722.779 427.54 722.664 426.839Q722.55 426.137 722.47 425.431Q722.391 424.724 722.347 424.015Q722.303 423.305 722.295 422.595Q722.287 421.884 722.315 421.173Q722.343 420.463 722.406 419.755Q722.47 419.047 722.569 418.343Q722.668 417.639 722.802 416.941Q722.936 416.243 723.105 415.553Q723.274 414.862 723.478 414.181Q723.682 413.5 723.919 412.83Q724.157 412.16 724.428 411.503Q724.699 410.846 725.003 410.203Q725.306 409.561 725.642 408.934Q725.978 408.308 726.344 407.699Q726.711 407.09 727.108 406.5C731.482 400.044 737.758 396.101 745.384 394.633Z"/>
	<path fill="#FAEC7D" d="M503.428 303.404C508.936 303.394 514.471 303.273 519.974 303.435L519.896 371.178C527.421 364.004 534.646 356.464 541.986 349.098C545.8 352.806 549.445 356.741 553.15 360.56C546.116 368.098 538.705 375.307 531.448 382.63C526.938 387.18 522.509 392.294 517.569 396.352C516.237 397.446 513.734 399.389 511.878 399.313C510.247 399.246 508.099 397.472 506.915 396.481C502.589 392.857 498.711 388.372 494.689 384.399C486.839 376.646 478.79 369.027 471.241 360.984Q477.023 355.181 482.624 349.203C489.428 356.145 496.718 362.682 503.152 369.966L503.428 303.404Z"/>
	<path fill="#FAEC7D" d="M659.577 831.643C670.793 842.516 682.255 853.119 693.369 864.097C695.856 860.758 698.274 857.324 701.027 854.198C704.579 857.797 708.322 861.321 711.586 865.183C706.381 869.917 701.208 874.969 695.668 879.294C694.301 878.916 693.56 878.439 692.211 879.229C689.982 880.534 687.308 883.854 685.403 885.717C676.963 893.975 668.808 902.93 660.001 910.754C656.283 906.591 652.381 902.585 648.689 898.405C656.343 892.006 663.403 884.936 671.012 878.506L463.934 878.178L393.425 878.184C381.893 878.187 370.177 878.618 358.663 878.186C344.062 877.842 329.412 878.087 314.805 878.104C314.243 872.763 314.678 867.377 313.957 862.03L549.121 862.214L625.502 862.18C640.339 862.148 655.383 861.662 670.202 862.368C662.79 856.447 654.899 849.766 648.635 842.627C652.486 839.097 655.993 835.44 659.577 831.643Z"/>
	<path fill="#FAEC7D" d="M723.542 482.439C728.135 486.088 732.021 490.477 735.942 494.813C728.664 501.116 721.939 508.268 715.096 515.04C718.273 514.608 721.516 514.6 724.716 514.573L826.447 514.513L857.139 514.449C862.485 514.44 868.399 513.932 873.661 514.734C875.656 515.038 877.26 516.259 878.64 517.661C880.535 519.585 880.654 522.217 880.86 524.795C881.312 530.417 881 536.235 880.971 541.88L880.813 571.588L880.675 662.09C886.234 655.706 892.323 649.752 898.442 643.91C903.245 648.149 907.653 652.811 912.119 657.398C907.456 662.925 901.93 667.943 896.812 673.065C890.802 679.08 885.018 685.253 879.124 691.375C877.323 693.245 876.005 694.482 873.264 694.424C872.213 694.401 871.494 694.218 870.604 693.622C866.799 691.074 863.418 686.824 860.178 683.526L843.528 666.75C840.517 663.77 837.428 660.853 834.822 657.504Q841.268 650.962 847.583 644.293Q856.243 653.229 864.994 662.077L865.161 530.449L715.678 530.434Q725.887 539.343 735.453 548.94C731.437 553.082 727.502 557.367 723.118 561.124Q703.579 541.994 685.027 521.906C697.628 508.517 710.659 495.554 723.542 482.439Z"/>
	<path fill="#FAEC7D" d="M143.941 333.876L160.336 333.868L160.451 514.821C190.698 514.457 220.99 514.742 251.242 514.845C270.285 514.911 289.721 514.302 308.717 515.475C300.673 508.465 293.002 500.885 285.384 493.415L297.028 481.761C301.779 486.509 334.888 518.554 335.786 520.779C336.018 521.354 336.04 522.572 336.037 523.194C336.03 524.519 335.484 525.705 334.666 526.722C329.631 532.972 323.15 538.635 317.545 544.424C310.444 551.758 303.735 559.481 296.581 566.76Q290.154 561.48 284.747 555.161C292.741 547.127 300.626 538.632 309.144 531.162C302.711 531.621 296.18 531.346 289.729 531.31L257.999 531.181L160.372 531.095L160.321 649.743C160.315 671.922 160.883 694.254 159.969 716.409C154.835 715.489 149.076 715.902 143.854 715.948Q143.847 712.538 143.798 709.128L143.941 333.876Z"/>
	<path fill="#FDFDFD" d="M503.428 303.404Q470.432 303.2 437.435 303.357C427.412 303.399 412.711 304.7 403.184 302.751C398.097 301.711 393.762 299.303 390.151 295.566Q389.517 294.912 388.932 294.213Q388.348 293.513 387.818 292.772Q387.288 292.031 386.814 291.253Q386.34 290.475 385.925 289.663Q385.511 288.852 385.158 288.012Q384.805 287.172 384.515 286.308Q384.226 285.444 384.001 284.561Q383.777 283.677 383.619 282.78C382.715 277.823 383.069 272.561 383.082 267.54L383.124 244.578C383.023 217.91 382.123 190.952 383.116 164.32C383.407 156.512 384.668 150.203 390.812 144.705Q391.501 144.089 392.235 143.528Q392.969 142.966 393.744 142.463Q394.519 141.96 395.33 141.517Q396.141 141.075 396.984 140.696Q397.827 140.318 398.697 140.005Q399.566 139.692 400.457 139.447Q401.348 139.201 402.255 139.025Q403.162 138.849 404.08 138.743C414.117 137.63 425.034 138.461 435.183 138.47L495.434 138.443L578.698 138.439C592.677 138.44 607.094 137.655 621.014 138.62C626.678 139.013 631.506 141.676 635.192 145.953C637.647 148.801 639.694 152.456 640.308 156.207C641.176 161.517 640.669 167.524 640.654 172.921L640.588 204.57L640.571 254.161C640.564 263.236 641.129 272.75 640.178 281.754C639.463 288.527 634.945 294.766 629.669 298.855C626.295 301.47 621.404 302.605 617.207 303.109C606.273 304.42 594.459 303.422 583.41 303.405L519.974 303.435C514.471 303.273 508.936 303.394 503.428 303.404Z"/>
	<path d="M506.151 200.154C508.302 200.134 510.604 200.453 512.544 201.415C515.366 202.813 517.539 205.246 518.483 208.262Q518.652 208.802 518.765 209.357Q518.878 209.912 518.932 210.475Q518.987 211.038 518.983 211.604Q518.979 212.171 518.916 212.733Q518.854 213.296 518.733 213.849Q518.613 214.402 518.436 214.94Q518.259 215.477 518.027 215.994Q517.796 216.51 517.512 217C515.535 220.405 512.404 221.959 508.731 222.93C506.085 222.964 503.624 222.55 501.333 221.141Q500.845 220.841 500.39 220.492Q499.935 220.144 499.518 219.751Q499.101 219.358 498.726 218.925Q498.35 218.492 498.021 218.023Q497.692 217.554 497.412 217.054Q497.132 216.555 496.904 216.029Q496.676 215.503 496.502 214.957Q496.329 214.411 496.212 213.85Q496.096 213.298 496.035 212.738Q495.974 212.178 495.968 211.614Q495.962 211.051 496.011 210.489Q496.061 209.928 496.165 209.374Q496.269 208.82 496.427 208.279Q496.585 207.738 496.795 207.215Q497.005 206.692 497.265 206.193Q497.526 205.693 497.834 205.221C499.864 202.17 502.666 200.854 506.151 200.154Z"/>
	<path d="M433.34 199.537C435.313 199.752 437.54 200.135 439.331 201.013C442.231 202.435 444.629 205.1 445.545 208.214Q445.71 208.758 445.819 209.316Q445.928 209.874 445.979 210.44Q446.031 211.006 446.025 211.574Q446.018 212.142 445.954 212.707Q445.89 213.272 445.768 213.827Q445.647 214.383 445.47 214.923Q445.293 215.463 445.061 215.982Q444.83 216.501 444.547 216.994C442.561 220.395 439.458 221.937 435.774 222.884C433.629 222.914 431.37 222.487 429.432 221.555C426.656 220.219 424.497 217.902 423.511 214.969Q423.329 214.427 423.203 213.869Q423.077 213.312 423.008 212.744Q422.94 212.176 422.93 211.605Q422.919 211.033 422.967 210.463Q423.015 209.893 423.121 209.331Q423.226 208.769 423.388 208.221Q423.551 207.673 423.768 207.144Q423.985 206.615 424.255 206.111C426.26 202.355 429.405 200.718 433.34 199.537Z"/>
	<path d="M474.202 241.137C476.077 241.305 477.979 241.498 479.708 242.291C482.513 243.577 484.81 245.927 485.835 248.858Q486.038 249.436 486.179 250.032Q486.32 250.628 486.397 251.236Q486.474 251.844 486.487 252.456Q486.5 253.069 486.448 253.679Q486.396 254.289 486.28 254.891Q486.164 255.492 485.985 256.078Q485.806 256.664 485.566 257.228Q485.327 257.792 485.029 258.327C482.925 262.082 479.918 263.523 475.908 264.564C473.32 264.546 471.18 264.005 468.948 262.646Q468.444 262.343 467.974 261.99Q467.504 261.638 467.072 261.239Q466.64 260.841 466.251 260.4Q465.862 259.96 465.52 259.482Q465.177 259.004 464.885 258.494Q464.593 257.984 464.355 257.447Q464.116 256.91 463.933 256.352Q463.75 255.793 463.625 255.219Q463.494 254.631 463.425 254.032Q463.356 253.433 463.35 252.831Q463.344 252.228 463.402 251.628Q463.459 251.028 463.579 250.437Q463.699 249.847 463.881 249.272Q464.062 248.697 464.303 248.144Q464.544 247.592 464.841 247.067Q465.138 246.543 465.489 246.053C467.677 243.007 470.618 241.772 474.202 241.137Z"/>
	<path d="M549.474 165.056C551.759 164.714 553.973 164.747 556.194 165.46Q556.745 165.631 557.277 165.857Q557.808 166.083 558.315 166.36Q558.821 166.638 559.297 166.965Q559.773 167.291 560.214 167.664Q560.655 168.037 561.057 168.452Q561.458 168.867 561.816 169.32Q562.174 169.773 562.485 170.259Q562.796 170.746 563.057 171.261Q563.307 171.764 563.503 172.29Q563.7 172.817 563.842 173.36Q563.984 173.904 564.069 174.459Q564.155 175.014 564.183 175.575Q564.211 176.136 564.182 176.697Q564.153 177.258 564.066 177.814Q563.979 178.369 563.837 178.912Q563.694 179.455 563.496 179.981C562.007 183.981 559.138 186.058 555.365 187.695C553.228 188.026 551.209 188.117 549.11 187.484C545.899 186.517 543.238 184.326 541.807 181.274Q541.568 180.766 541.381 180.237Q541.194 179.708 541.061 179.162Q540.928 178.617 540.851 178.061Q540.774 177.505 540.753 176.944Q540.732 176.383 540.768 175.822Q540.804 175.262 540.896 174.708Q540.988 174.155 541.135 173.613Q541.282 173.071 541.483 172.547C542.979 168.657 545.798 166.694 549.474 165.056Z"/>
	<path fill="#FCD912" d="M369.262 422.125C390.506 421.415 411.951 422.102 433.219 422.082L566.744 422.092L623.636 422.074C634.671 422.053 647.058 420.765 657.841 423.061C658.671 423.238 658.726 423.459 659.141 424.17C660.441 426.397 660.768 429.504 660.854 432.054C661.297 445.105 660.81 458.341 660.783 471.411L660.647 548.913C660.623 556.93 661.613 596.596 660.101 601.424C659.464 603.46 657.668 604.538 655.864 605.37C642.111 605.738 628.205 605.232 614.434 605.19L534.019 605.145L424.475 605.114C406.645 605.103 388.734 605.466 370.911 605.101C369.541 605.073 368.504 605.012 367.237 604.428C365.893 603.808 365.069 602.586 364.59 601.236C363.191 597.299 364.084 571.081 364.094 564.868L364.243 482.971C364.251 466.086 363.568 449.096 363.977 432.226C364.031 430.008 363.918 427.034 365.045 425.067C366.005 423.392 367.534 422.74 369.262 422.125Z"/>
	<path fill="#FDFDFD" d="M396.095 546.235C415.219 545.759 434.446 546.12 453.58 546.088C462.818 546.072 475.281 545.281 484.012 545.973C485.905 546.123 487.79 546.421 489.431 547.434C491.382 548.639 492.613 550.564 493 552.816C493.41 555.207 492.812 557.94 491.341 559.886C489.707 562.046 487.711 562.695 485.125 563.015C467.027 563.259 448.903 563.11 430.802 563.138C419.971 563.154 408.88 563.692 398.087 563.031C395.993 562.902 392.935 562.717 391.205 561.48C389.458 560.231 387.907 557.832 387.479 555.736C387.026 553.513 387.566 551.307 388.953 549.517C390.858 547.059 393.129 546.5 396.095 546.235Z"/>
	<path fill="#FDFDFD" d="M393.431 460.567C410.322 459.758 427.551 460.47 444.481 460.49L543.066 460.528L602.737 460.452C611.626 460.444 621.689 459.474 630.456 460.81C632.833 461.173 634.687 462.17 636.012 464.221C637.301 466.217 637.639 468.642 637.109 470.945C636.383 474.1 634.163 475.802 631.537 477.412C612.736 478.356 593.515 477.597 574.674 477.609L463.715 477.566L413.64 477.494C407.661 477.482 400.013 478.536 394.293 477.197C391.885 476.633 389.647 475.021 388.483 472.825C387.378 470.739 387.341 468.219 388.072 466.007C389.008 463.172 390.842 461.818 393.431 460.567Z"/>
	<path fill="#FDFDFD" d="M394.515 503.118C407.654 502.582 420.965 502.949 434.12 502.933L516.273 503.006L593.794 503.004C604.086 503.019 616.391 502.36 626.442 502.857C628.945 502.981 631.422 503.477 633.514 504.935Q633.88 505.188 634.218 505.477Q634.556 505.766 634.863 506.087Q635.17 506.409 635.443 506.76Q635.716 507.111 635.952 507.488Q636.188 507.865 636.384 508.264Q636.581 508.663 636.736 509.079Q636.891 509.496 637.003 509.926Q637.115 510.357 637.183 510.796C637.535 513.037 636.99 515.26 635.588 517.055C634.218 518.81 632.279 519.744 630.127 520.077C616.226 521.008 601.909 520.364 587.971 520.371L506.976 520.218Q470.613 520.094 434.251 520.402C420.274 520.493 406.08 521.09 392.125 520.408C390.416 518.856 388.816 517.171 388.032 514.954C387.21 512.629 387.121 509.936 388.324 507.727C389.679 505.236 391.887 503.937 394.515 503.118Z"/>
	<path fill="#0DD0BE" d="M868.368 707.213C904.885 705.561 940.052 721.715 966.566 745.984C993.409 770.555 1011.03 806.146 1012.48 842.737Q1012.55 844.463 1012.58 846.191Q1012.62 847.919 1012.6 849.647Q1012.59 851.375 1012.54 853.102Q1012.48 854.829 1012.39 856.555Q1012.29 858.28 1012.15 860.002Q1012.01 861.724 1011.82 863.443Q1011.64 865.161 1011.42 866.874Q1011.19 868.587 1010.92 870.295Q1010.65 872.002 1010.34 873.702Q1010.03 875.402 1009.68 877.093Q1009.33 878.785 1008.93 880.467Q1008.54 882.15 1008.1 883.822Q1007.67 885.494 1007.19 887.155Q1006.71 888.816 1006.2 890.464Q1005.68 892.113 1005.12 893.748Q1004.56 895.383 1003.96 897.004Q1003.36 898.624 1002.72 900.23Q1002.08 901.835 1001.4 903.424Q1000.72 905.013 1000 906.585Q999.287 908.156 998.53 909.71Q997.773 911.263 996.977 912.797Q996.182 914.331 995.349 915.845Q994.515 917.359 993.645 918.852Q992.774 920.345 991.867 921.815Q990.96 923.286 990.016 924.734Q989.073 926.181 988.094 927.605Q987.115 929.029 986.101 930.428Q985.086 931.828 984.038 933.201Q982.989 934.575 981.907 935.922Q980.825 937.269 979.709 938.589Q978.594 939.909 977.446 941.2Q976.298 942.492 975.119 943.755Q973.932 945.037 972.714 946.289Q971.495 947.541 970.246 948.762Q968.997 949.983 967.718 951.173Q966.439 952.362 965.131 953.52Q963.822 954.678 962.486 955.802Q961.149 956.927 959.785 958.018Q958.421 959.11 957.03 960.167Q955.639 961.224 954.222 962.245Q952.806 963.268 951.364 964.254Q949.922 965.241 948.457 966.191Q946.991 967.141 945.502 968.055Q944.013 968.969 942.502 969.845Q940.991 970.721 939.458 971.56Q937.926 972.399 936.373 973.199Q934.82 973.999 933.248 974.76Q931.676 975.522 930.085 976.244Q928.494 976.966 926.886 977.648Q925.278 978.33 923.653 978.973Q922.029 979.615 920.389 980.216Q918.749 980.818 917.094 981.378Q915.44 981.939 913.772 982.458Q912.104 982.978 910.424 983.455Q908.743 983.933 907.052 984.369Q905.36 984.805 903.658 985.198Q901.956 985.592 900.245 985.943Q898.534 986.294 896.814 986.603Q895.095 986.911 893.368 987.177Q891.642 987.443 889.909 987.665Q888.176 987.888 886.439 988.068Q884.701 988.248 882.959 988.384Q881.218 988.52 879.474 988.613Q877.729 988.706 875.983 988.756C840.207 989.452 804.822 977.799 777.949 953.754Q776.684 952.615 775.447 951.446Q774.21 950.276 773.003 949.077Q771.795 947.877 770.617 946.648Q769.439 945.419 768.292 944.162Q767.145 942.904 766.029 941.619Q764.913 940.334 763.829 939.022Q762.745 937.709 761.693 936.371Q760.642 935.032 759.623 933.668Q758.605 932.304 757.621 930.916Q756.636 929.527 755.686 928.115Q754.736 926.703 753.821 925.267Q752.906 923.832 752.026 922.375Q751.147 920.917 750.303 919.439Q749.46 917.961 748.653 916.462Q747.846 914.963 747.077 913.445Q746.307 911.927 745.574 910.39Q744.842 908.853 744.148 907.299Q743.454 905.745 742.798 904.174Q742.142 902.604 741.525 901.017Q740.908 899.431 740.33 897.83Q739.752 896.229 739.214 894.614Q738.675 892.999 738.177 891.372Q737.678 889.744 737.22 888.105Q736.761 886.466 736.343 884.816Q735.925 883.166 735.548 881.506Q735.171 879.846 734.834 878.178Q734.498 876.509 734.203 874.833Q733.907 873.156 733.653 871.473Q733.399 869.79 733.187 868.101Q732.974 866.412 732.803 864.719Q732.632 863.025 732.503 861.328Q732.374 859.631 732.286 857.931C730.237 819.945 742.519 782.095 768.18 753.743Q769.378 752.438 770.607 751.162Q771.836 749.887 773.097 748.642Q774.357 747.397 775.648 746.183Q776.938 744.97 778.258 743.788Q779.578 742.607 780.927 741.458Q782.276 740.31 783.652 739.195Q785.029 738.08 786.432 736.999Q787.836 735.918 789.266 734.872Q790.696 733.826 792.151 732.816Q793.606 731.805 795.085 730.831Q796.565 729.857 798.068 728.919Q799.571 727.981 801.096 727.081Q802.622 726.18 804.169 725.318Q805.716 724.455 807.285 723.631Q808.853 722.806 810.44 722.021Q812.028 721.235 813.635 720.489Q815.242 719.743 816.866 719.037Q818.491 718.33 820.132 717.664Q821.774 716.998 823.431 716.372Q825.088 715.746 826.76 715.162Q828.433 714.577 830.119 714.033Q831.805 713.49 833.504 712.988Q835.203 712.486 836.914 712.027Q838.624 711.567 840.346 711.149Q842.068 710.732 843.799 710.357Q845.53 709.981 847.27 709.649Q849.01 709.317 850.758 709.027Q852.506 708.737 854.26 708.491Q856.014 708.245 857.774 708.042Q859.534 707.838 861.298 707.678Q863.062 707.519 864.83 707.402Q866.598 707.286 868.368 707.213Z"/>
	<path d="M803.105 772.538C812.687 772.203 822.411 772.565 832.006 772.589L887.914 772.561L925.72 772.378C930.791 772.372 937.648 771.605 942.509 772.772C944.116 773.158 946.251 774.293 947.079 775.774C947.943 777.32 947.986 779.764 948.041 781.516C948.615 799.684 947.892 818.109 947.925 836.31C947.968 859.622 948.646 883.114 948.004 906.407C947.946 908.528 948.016 911.165 947.15 913.119C946.227 915.203 943.768 916.235 941.802 917.02C913.352 917.317 884.873 917.036 856.42 917.026C840.157 917.02 823.72 917.621 807.476 917.127C803.905 917.018 800.106 916.761 797.529 914.041Q796.784 909.869 796.644 905.633C796.158 890.978 796.884 876.067 796.887 861.383L796.685 807.877C796.652 801.963 795.613 782.584 797.184 777.85C798.104 775.078 800.692 773.806 803.105 772.538Z"/>
	<path fill="#FDFDFD" d="M812.555 788.385L932.452 788.538L932.539 837.405L812.772 837.476L812.555 788.385Z"/>
	<path fill="#FDFDFD" d="M812.597 852.614L932.462 852.571L932.337 901.981L812.642 901.867Q812.473 877.24 812.597 852.614Z"/>
	<path fill="#0DD0BE" d="M139.183 35.2Q140.908 35.0759 142.635 34.9937Q144.362 34.9114 146.091 34.8709Q147.819 34.8305 149.548 34.8319Q151.277 34.8333 153.006 34.8766Q154.734 34.9199 156.461 35.005Q158.188 35.0901 159.913 35.217Q161.637 35.3438 163.358 35.5124Q165.079 35.681 166.795 35.8912Q168.512 36.1014 170.222 36.3531Q171.933 36.6047 173.637 36.8977Q175.341 37.1908 177.038 37.5249Q178.734 37.8591 180.422 38.2342Q182.11 38.6094 183.788 39.0253Q185.467 39.4412 187.134 39.8976Q188.802 40.354 190.458 40.8506Q192.115 41.3472 193.758 41.8838Q195.402 42.4204 197.032 42.9966Q198.663 43.5728 200.278 44.1883Q201.894 44.8038 203.495 45.4583Q205.095 46.1127 206.679 46.8057Q208.264 47.4987 209.83 48.2298Q211.397 48.961 212.946 49.7298Q214.495 50.4987 216.025 51.3048Q217.554 52.1109 219.064 52.9538Q220.574 53.7967 222.063 54.6759Q223.552 55.5551 225.019 56.4701Q226.486 57.3851 227.93 58.3353Q229.375 59.2855 230.796 60.2705Q232.217 61.2554 233.614 62.2744Q235.011 63.2935 236.383 64.346Q237.755 65.3986 239.101 66.484Q240.447 67.5695 241.766 68.6872Q243.069 69.8027 244.343 70.9498Q245.618 72.0969 246.865 73.2749Q248.111 74.4529 249.328 75.6611Q250.545 76.8692 251.732 78.1068Q252.92 79.3444 254.076 80.6108Q255.233 81.8771 256.358 83.1713Q257.483 84.4656 258.576 85.787Q259.669 87.1084 260.729 88.4563Q261.79 89.8041 262.817 91.1774Q263.844 92.5508 264.837 93.9489Q265.83 95.347 266.789 96.7691Q267.747 98.1911 268.671 99.6362Q269.594 101.081 270.482 102.548Q271.37 104.016 272.222 105.504Q273.073 106.993 273.888 108.502Q274.703 110.011 275.481 111.539Q276.258 113.068 276.998 114.615Q277.738 116.162 278.44 117.727Q279.142 119.291 279.806 120.873Q280.469 122.454 281.093 124.052Q281.718 125.649 282.303 127.261Q282.888 128.873 283.434 130.499Q283.979 132.125 284.484 133.763Q284.99 135.402 285.455 137.053Q285.92 138.703 286.345 140.365Q286.77 142.026 287.153 143.698Q287.537 145.369 287.88 147.05Q288.223 148.73 288.524 150.418Q288.826 152.107 289.086 153.802Q289.346 155.497 289.564 157.198Q289.783 158.899 289.959 160.605Q290.136 162.31 290.271 164.02Q290.409 165.754 290.504 167.491Q290.599 169.228 290.652 170.967Q290.705 172.706 290.715 174.445Q290.726 176.185 290.694 177.924Q290.661 179.663 290.587 181.401Q290.512 183.139 290.395 184.875Q290.278 186.61 290.118 188.343Q289.958 190.075 289.757 191.803Q289.555 193.531 289.311 195.253Q289.067 196.975 288.781 198.691Q288.495 200.407 288.167 202.116Q287.839 203.824 287.469 205.524Q287.099 207.224 286.688 208.914Q286.277 210.604 285.825 212.284Q285.373 213.964 284.88 215.632Q284.387 217.3 283.853 218.956Q283.319 220.612 282.745 222.254Q282.171 223.896 281.557 225.523Q280.943 227.151 280.289 228.763Q279.635 230.375 278.942 231.971Q278.249 233.566 277.518 235.145Q276.786 236.723 276.016 238.283Q275.246 239.842 274.438 241.383Q273.63 242.924 272.785 244.444Q271.939 245.964 271.057 247.463Q270.175 248.963 269.256 250.44Q268.337 251.917 267.383 253.371Q266.428 254.826 265.438 256.256Q264.449 257.687 263.424 259.093Q262.4 260.499 261.341 261.879Q260.283 263.26 259.191 264.614Q258.099 265.968 256.974 267.295C231.819 296.635 198.158 313.968 159.623 316.862Q157.97 316.973 156.314 317.046Q154.659 317.118 153.003 317.152Q151.346 317.186 149.689 317.182Q148.032 317.178 146.376 317.135Q144.719 317.092 143.064 317.011Q141.409 316.929 139.757 316.81Q138.104 316.69 136.455 316.532Q134.806 316.374 133.16 316.178Q131.515 315.981 129.875 315.747Q128.234 315.513 126.6 315.24Q124.966 314.968 123.338 314.657Q121.711 314.347 120.091 313.999Q118.471 313.651 116.859 313.265Q115.248 312.879 113.646 312.457Q112.044 312.034 110.452 311.574Q108.86 311.114 107.279 310.617Q105.699 310.12 104.13 309.587Q102.561 309.053 101.005 308.483Q99.4494 307.914 97.9072 307.308Q96.3649 306.702 94.8371 306.061Q93.3093 305.42 91.7969 304.743Q90.2844 304.066 88.788 303.355Q87.2917 302.643 85.8122 301.897Q84.3328 301.151 82.8711 300.371Q81.4094 299.59 79.9662 298.776Q78.5231 297.962 77.0992 297.115Q75.6753 296.268 74.2714 295.388Q72.8676 294.507 71.4846 293.595Q70.1016 292.682 68.7401 291.738Q67.3787 290.794 66.0395 289.818Q64.7004 288.842 63.3842 287.835Q62.0681 286.829 60.7757 285.792Q59.4054 284.693 58.0631 283.56Q56.7207 282.427 55.407 281.261Q54.0933 280.095 52.8092 278.896Q51.5251 277.698 50.2713 276.467Q49.0175 275.237 47.7948 273.976Q46.5721 272.715 45.3813 271.423Q44.1904 270.132 43.0322 268.811Q41.874 267.491 40.7492 266.141Q39.6243 264.792 38.5335 263.415Q37.4427 262.038 36.3866 260.635Q35.3305 259.231 34.3098 257.801Q33.2891 256.372 32.3044 254.917Q31.3198 253.463 30.3717 251.984Q29.4236 250.505 28.5128 249.003Q27.602 247.501 26.729 245.977Q25.8559 244.452 25.0212 242.907Q24.1865 241.361 23.3907 239.795Q22.5948 238.229 21.8384 236.644Q21.0819 235.059 20.3652 233.455Q19.6486 231.851 18.9722 230.23Q18.2958 228.609 17.6601 226.971Q17.0244 225.334 16.4298 223.681Q15.8352 222.028 15.2821 220.361Q14.7289 218.694 14.2176 217.013Q13.7063 215.332 13.2371 213.64Q12.7679 211.947 12.3411 210.243Q11.9143 208.539 11.5302 206.825Q11.1461 205.111 10.8049 203.388Q10.4637 201.665 10.1657 199.933Q9.86765 198.202 9.61294 196.464Q9.35822 194.726 9.14699 192.982Q8.93576 191.239 8.76814 189.49C5.23005 152.571 17.7417 114.186 41.4017 85.8218C66.2118 56.0793 100.754 38.668 139.183 35.2Z"/>
	<path d="M139.839 89.9547Q150.265 89.957 160.687 90.2705C161.202 97.6051 162.039 104.906 162.84 112.213C171.669 114.252 179.736 117.825 187.389 122.653C193.157 117.682 198.697 112.473 204.546 107.588L218.681 122.065C214.219 127.785 208.834 133.043 203.976 138.456C208.309 146.448 211.834 154.031 214.439 162.76C221.412 162.895 228.369 163.433 235.326 163.896C235.491 170.919 235.368 177.963 235.345 184.988C228.516 185.693 221.611 185.847 214.751 185.948C212.958 195.522 208.675 203.636 204.011 212.044C208.843 217.561 214.048 222.765 218.964 228.214C213.783 233.479 208.363 238.536 203.044 243.664C197.688 238.737 191.94 234.113 187.076 228.692C178.955 233.782 171.207 236.422 162.42 239.912C161.679 246.907 161.444 253.923 160.254 260.87L159.848 261.779C156.827 262.922 144.009 262.243 139.712 262.389C138.877 254.914 138.455 247.391 137.944 239.888C128.057 237.853 119.514 233.664 110.85 228.686C104.931 233.594 99.3504 239.049 93.1068 243.53C88.5269 238.474 83.3343 234.014 78.8361 228.858Q86.7957 220.576 93.7348 211.422C89.5411 203.068 86.1279 196.082 84.6032 186.805C77.9285 186.227 71.2186 185.033 64.5805 184.091L64.6046 163.876Q74.6179 162.813 84.6524 161.975C86.9843 152.913 90.6363 145.746 95.4283 137.801Q88.5993 129.863 82.0577 121.686Q88.922 114.636 95.6959 107.498Q104.235 114.706 113.272 121.279C121.109 117.036 129.005 113.792 137.778 112.104L139.839 89.9547Z"/>
	<path fill="#FDFDFD" d="M145.282 132.175C155.159 130.648 167.4 134.814 175.405 140.44C184.522 146.847 191.182 157.37 193.019 168.361Q193.203 169.431 193.334 170.509Q193.464 171.586 193.542 172.669Q193.619 173.752 193.643 174.837Q193.666 175.922 193.636 177.008Q193.606 178.093 193.523 179.175Q193.439 180.257 193.302 181.334Q193.165 182.411 192.975 183.48Q192.785 184.549 192.543 185.607Q192.3 186.665 192.006 187.71Q191.711 188.755 191.365 189.784Q191.019 190.813 190.623 191.823Q190.227 192.834 189.781 193.824Q189.335 194.814 188.841 195.78Q188.347 196.747 187.806 197.688Q187.265 198.629 186.678 199.542Q186.09 200.455 185.459 201.338C177.895 211.797 167.185 217.447 154.624 219.445C143.247 220.636 131.968 217.933 122.722 211.069Q121.85 210.421 121.011 209.731Q120.173 209.041 119.369 208.31Q118.565 207.579 117.798 206.81Q117.032 206.041 116.304 205.234Q115.576 204.428 114.889 203.587Q114.202 202.746 113.557 201.872Q112.912 200.997 112.311 200.093Q111.71 199.188 111.154 198.254Q110.599 197.321 110.09 196.361Q109.581 195.402 109.12 194.418Q108.659 193.435 108.247 192.43Q107.835 191.425 107.473 190.4Q107.112 189.376 106.801 188.335Q106.49 187.295 106.231 186.24Q105.972 185.185 105.765 184.119Q105.558 183.052 105.404 181.977C103.805 170.624 106.729 158.595 113.742 149.483C121.721 139.114 132.508 133.832 145.282 132.175Z"/>
	<path fill="#FCD912" d="M779.411 0L1024 0L1024 230.381C1012.98 246.634 1001.08 260.456 985.606 272.731Q983.974 274.007 982.311 275.242Q980.649 276.477 978.956 277.671Q977.263 278.865 975.542 280.018Q973.821 281.17 972.072 282.279Q970.323 283.389 968.547 284.456Q966.771 285.522 964.97 286.545Q963.169 287.567 961.343 288.546Q959.517 289.524 957.667 290.457Q955.818 291.39 953.947 292.277Q952.075 293.165 950.182 294.006Q948.289 294.847 946.376 295.642Q944.463 296.437 942.532 297.184Q940.6 297.932 938.65 298.632Q936.701 299.332 934.735 299.984Q932.769 300.635 930.787 301.239Q928.806 301.843 926.81 302.397Q924.814 302.952 922.805 303.458Q920.797 303.963 918.776 304.42Q916.756 304.876 914.724 305.282Q912.693 305.689 910.653 306.046Q908.613 306.402 906.564 306.709Q904.515 307.016 902.46 307.272Q900.404 307.528 898.343 307.734Q896.282 307.939 894.217 308.095Q892.151 308.25 890.082 308.354Q888.014 308.459 885.943 308.512Q883.872 308.566 881.801 308.569Q879.729 308.572 877.659 308.524Q875.588 308.476 873.519 308.378Q871.45 308.279 869.384 308.13Q867.318 307.98 865.256 307.78Q863.194 307.58 861.138 307.33Q859.098 307.077 857.064 306.774Q855.03 306.471 853.005 306.118Q850.979 305.766 848.963 305.364Q846.946 304.963 844.94 304.512Q842.934 304.062 840.94 303.563Q838.945 303.063 836.964 302.516Q834.982 301.968 833.014 301.373Q831.046 300.777 829.093 300.134Q827.14 299.49 825.204 298.799Q823.267 298.109 821.348 297.371Q819.429 296.634 817.528 295.849Q815.628 295.065 813.747 294.235Q811.866 293.405 810.006 292.53Q808.145 291.654 806.307 290.733Q804.469 289.813 802.653 288.847Q800.838 287.882 799.046 286.873Q797.255 285.864 795.489 284.812Q793.722 283.76 791.982 282.665Q790.242 281.57 788.529 280.433Q786.816 279.296 785.131 278.117Q783.446 276.939 781.79 275.72Q780.135 274.501 778.509 273.242Q776.884 271.983 775.289 270.685Q773.695 269.387 772.133 268.05Q770.57 266.714 769.041 265.34Q767.511 263.966 766.016 262.555Q764.521 261.144 763.06 259.697Q761.599 258.25 760.174 256.768Q758.749 255.286 757.36 253.769Q755.972 252.253 754.621 250.703Q753.27 249.154 751.956 247.572Q750.643 245.99 749.369 244.376Q748.061 242.696 746.795 240.984Q745.528 239.273 744.303 237.531Q743.078 235.79 741.896 234.019Q740.714 232.248 739.574 230.45Q738.435 228.651 737.339 226.825Q736.244 225 735.193 223.148Q734.142 221.296 733.136 219.42Q732.13 217.543 731.17 215.643Q730.209 213.743 729.295 211.82Q728.381 209.897 727.514 207.953Q726.646 206.008 725.826 204.043Q725.006 202.078 724.233 200.094Q723.461 198.11 722.737 196.108Q722.012 194.106 721.337 192.087Q720.661 190.068 720.034 188.033Q719.408 185.998 718.83 183.949Q718.253 181.899 717.726 179.836Q717.198 177.774 716.72 175.699Q716.243 173.624 715.815 171.538Q715.388 169.452 715.011 167.357Q714.634 165.261 714.308 163.157Q713.982 161.053 713.707 158.942Q713.432 156.83 713.208 154.713Q712.984 152.596 712.811 150.474Q712.639 148.352 712.517 146.226Q712.396 144.1 712.326 141.972Q712.256 139.844 712.237 137.715Q712.219 135.586 712.252 133.457Q712.284 131.328 712.369 129.201Q712.453 127.073 712.589 124.948Q712.725 122.824 712.912 120.703Q713.099 118.582 713.337 116.466C718.837 70.0739 742.896 28.9421 779.411 0Z"/>
	<path fill="#EAAF09" d="M953.463 92.0253C956.019 92.7776 959.669 93.3798 960.942 96.0217C961.487 97.1532 961.495 98.2749 961.524 99.5012C962.294 132.415 960.722 165.435 961.14 198.369C961.202 203.275 962.579 228.011 961.211 230.994C960.459 232.635 957.883 233.705 956.236 233.956C948.712 235.1 940.711 234.247 933.149 233.896C922.35 233.394 911.42 232.78 900.614 232.682C885.534 232.545 824.84 236.903 815.514 233.158C813.614 231.014 812.187 229.328 811.466 226.493L905.95 226.337C917.295 226.255 934.138 227.31 944.835 225.89C947.098 225.589 949.08 224.48 950.681 222.872C952.362 221.184 952.609 219.114 952.855 216.853C953.802 208.174 953.098 198.687 953.092 189.926L953.167 138.261C954.777 123.712 953.058 106.872 953.463 92.0253Z"/>
	<path fill="#FDFDFD" d="M811.466 226.493C808.247 226.036 804.753 225.272 802.381 222.884C800.396 220.885 799.936 218.154 799.642 215.458C799.14 210.862 799.419 205.953 799.406 201.325L799.381 175.464L799.456 96.8664C799.495 92.6634 799.175 88.4056 802.543 85.3437C804.089 83.9381 805.658 83.2875 807.715 83.0582C813.735 82.3869 820.128 82.8429 826.2 82.8724L858.246 82.9481L914.178 82.9152C925.019 82.9097 935.932 82.6525 946.762 83.1056C948.191 83.9285 949.486 84.7845 950.64 85.9778C951.94 87.3222 952.446 88.7337 952.751 90.5637C953.67 96.0847 953.181 102.166 953.172 107.75L953.167 138.261L953.092 189.926C953.098 198.687 953.802 208.174 952.855 216.853C952.609 219.114 952.362 221.184 950.681 222.872C949.08 224.48 947.098 225.589 944.835 225.89C934.138 227.31 917.295 226.255 905.95 226.337L811.466 226.493Z"/>
	<path fill="#FCD912" d="M815.998 99.0283L935.858 99.0832C935.454 136.044 935.845 173.048 936.021 210.012L815.958 210.016L815.998 99.0283Z"/>
	<path fill="#FCD912" d="M143.798 709.128Q143.847 712.538 143.854 715.948C149.076 715.902 154.835 715.489 159.969 716.409C188.73 717.69 219.892 730.282 243.188 746.803C253.111 753.841 262.293 762.301 270.512 771.261C289.93 792.427 303.101 817.969 310.594 845.614C312.056 851.01 312.623 856.609 313.957 862.03C314.678 867.377 314.243 872.763 314.805 878.104C329.412 878.087 344.062 877.842 358.663 878.186Q337.039 878.354 315.414 878.296C315.562 892.948 315.125 907.201 312.748 921.683C306.75 958.228 288.342 992.461 262.549 1018.85C260.848 1020.59 259.131 1022.33 257.362 1024L0 1024L0 796.06C6.97445 786.277 14.0808 776.777 22.4809 768.154C55.0849 734.685 96.9506 716.55 143.68 715.946L143.798 709.128Z"/>
	<path fill="#EAAF09" d="M241.783 803.972C243.991 803.912 245.31 804.592 246.879 806.15C248.513 807.772 249.862 810.268 250.212 812.552C250.881 816.912 250.208 822.129 250.149 826.563C250.067 832.731 250.341 838.907 250.166 845.072C249.877 855.229 250.304 865.266 250.264 875.41C250.171 899.145 250.046 922.96 249.442 946.689C244.779 947.611 240.262 947.93 235.518 948.023C224.729 948.237 213.953 947.739 203.167 947.643L150.138 947.521C139.049 947.45 127.977 947.055 116.885 947.138C112.303 947.173 85.2264 948.559 82.5308 947.023C80.0124 945.588 79.0021 942.514 77.9465 939.98C84.8083 939.991 109.369 940.914 114.401 939.658C142.062 938.955 169.901 939.624 197.574 939.688C208.834 939.714 220.64 940.504 231.828 939.559C234.185 939.359 238.492 938.97 240.138 937.185C241.436 935.776 242.027 933.776 242.206 931.909C242.9 924.643 242.378 916.885 242.341 909.576L242.133 867.826L242.118 827.904C242.128 819.988 242.524 811.85 241.783 803.972Z"/>
	<path fill="#FDFDFD" d="M76.605 797.119C83.147 796.277 90.1989 796.785 96.802 796.799L131.764 796.852L204.099 796.855C210.682 796.858 228.996 795.888 234.528 797.381C238.164 798.362 240 800.857 241.783 803.972C242.524 811.85 242.128 819.988 242.118 827.904L242.133 867.826L242.341 909.576C242.378 916.885 242.9 924.643 242.206 931.909C242.027 933.776 241.436 935.776 240.138 937.185C238.492 938.97 234.185 939.359 231.828 939.559C220.64 940.504 208.834 939.714 197.574 939.688C169.901 939.624 142.062 938.955 114.401 939.658C103.136 938.939 91.0874 940.979 79.9434 939.491C77.3477 939.144 74.3944 938.373 72.7977 936.118C71.5274 934.323 71.0022 932.235 70.8061 930.077C70.0663 921.937 70.5422 913.331 70.5173 905.143L70.4509 857.218L70.4853 823.91C70.4985 817.574 69.8941 810.4 71.0991 804.192C71.7785 800.693 73.7287 798.995 76.605 797.119Z"/>
	<path fill="#FCD912" d="M87.2077 813.002Q156.608 813.472 226.008 813.047L225.94 923.929L87.0936 923.934Q87.6291 868.469 87.2077 813.002Z"/>
	<path fill="#EAAF09" d="M214.85 886.568C215.6 886.567 216.83 886.335 217.392 886.861C219.683 889.006 220.959 894.915 220.803 897.964C220.749 899.018 220.543 900.177 219.687 900.89C217.719 902.529 214.244 902.879 211.789 903.017C205.368 903.378 198.79 902.984 192.362 902.859Q179.851 902.671 167.339 902.725L135.434 902.787C128.562 902.848 120.061 903.833 113.349 902.394C111.659 902.031 109.741 900.849 108.842 899.335C108.369 898.538 108.131 897.777 107.873 896.899C122.448 897.578 137.265 897.079 151.867 897.082C169.403 897.084 187.054 897.492 204.577 897.018C207.622 896.936 210.706 896.791 212.851 894.328C214.801 892.087 214.937 889.393 214.85 886.568Z"/>
	<path fill="#FDFDFD" d="M106.802 835.679Q142.138 835.98 177.475 835.868C183.944 835.862 204.149 834.692 209.133 836.233C211.039 836.822 212.768 838.052 213.684 839.853C214.756 841.963 214.676 844.298 213.974 846.513C213.014 849.541 211.296 850.966 208.596 852.459C192.845 853.345 176.715 852.696 160.928 852.704C142.731 852.714 124.265 853.314 106.097 852.403C103.617 850.842 101.708 848.96 100.822 846.095C100.144 843.901 100.135 841.606 101.315 839.578C102.539 837.473 104.55 836.372 106.802 835.679Z"/>
	<path fill="#FDFDFD" d="M107.873 896.899C107.583 896.818 107.291 896.743 107.002 896.657C104.481 895.91 102.104 894.396 100.896 892.002C99.8756 889.979 99.6224 887.897 100.388 885.747C101.12 883.693 102.788 881.641 104.835 880.789C106.675 880.022 109.076 880.065 111.056 879.993C120.25 879.656 206.198 879.063 209.957 880.533C212.807 881.647 213.73 883.901 214.85 886.568C214.937 889.393 214.801 892.087 212.851 894.328C210.706 896.791 207.622 896.936 204.577 897.018C187.054 897.492 169.403 897.084 151.867 897.082C137.265 897.079 122.448 897.578 107.873 896.899Z"/>
</svg>
