<?xml version="1.0" encoding="utf-8" ?>
<svg xmlns="http://www.w3.org/2000/svg" xmlns:xlink="http://www.w3.org/1999/xlink" width="1024" height="1024">
	<path d="M0 0L769.442 0L1024 0L1024 213.954L1024 1024L182.715 1024L0 1024L0 733.677L0 0Z"/>
	<path fill="#FEFEFE" d="M83.9494 407.509C86.4424 407.409 89.0593 407.959 91.2362 409.193Q91.7884 409.507 92.3059 409.876Q92.8234 410.244 93.301 410.663Q93.7786 411.082 94.2113 411.547Q94.6441 412.013 95.0275 412.519Q95.4109 413.026 95.7412 413.568Q96.0714 414.111 96.345 414.685Q96.6185 415.258 96.8327 415.856Q97.0469 416.454 97.1994 417.071Q97.3642 417.704 97.4633 418.35Q97.5625 418.997 97.5949 419.65Q97.6273 420.303 97.5927 420.956Q97.5581 421.609 97.4568 422.255Q97.3555 422.901 97.1886 423.534Q97.0216 424.166 96.7908 424.778Q96.56 425.39 96.2678 425.975Q95.9756 426.56 95.625 427.112C93.3671 430.623 90.1752 432.155 86.198 432.902C84.1595 432.791 82.2129 432.653 80.3082 431.855Q79.711 431.609 79.1423 431.302Q78.5736 430.995 78.0395 430.632Q77.5054 430.268 77.0116 429.852Q76.5177 429.435 76.0694 428.97Q75.6211 428.505 75.2231 427.996Q74.8251 427.487 74.4816 426.94Q74.1382 426.392 73.8528 425.813Q73.5675 425.233 73.3434 424.627C72.1639 421.432 72.282 417.886 73.822 414.829C76.0148 410.477 79.5647 408.864 83.9494 407.509Z"/>
	<path fill="#FEFEFE" d="M867.334 640.119C869.61 640.01 871.95 640.308 874.029 641.278Q874.657 641.567 875.252 641.921Q875.846 642.275 876.399 642.691Q876.952 643.106 877.458 643.578Q877.964 644.05 878.417 644.573Q878.869 645.096 879.264 645.665Q879.658 646.233 879.99 646.84Q880.321 647.447 880.586 648.086Q880.851 648.725 881.047 649.389Q881.249 650.049 881.383 650.726Q881.516 651.404 881.58 652.091Q881.643 652.779 881.635 653.469Q881.627 654.159 881.548 654.845Q881.469 655.531 881.319 656.205Q881.17 656.879 880.952 657.534Q880.734 658.189 880.45 658.818Q880.166 659.447 879.819 660.044C877.586 663.816 874.547 665.415 870.455 666.577C867.548 666.612 864.917 666.19 862.341 664.753Q861.76 664.434 861.213 664.059Q860.666 663.684 860.16 663.256Q859.653 662.828 859.192 662.352Q858.731 661.876 858.32 661.355Q857.909 660.835 857.552 660.276Q857.194 659.718 856.895 659.126Q856.596 658.535 856.357 657.916Q856.119 657.297 855.943 656.658Q855.779 656.034 855.677 655.396Q855.575 654.759 855.536 654.115Q855.496 653.47 855.519 652.825Q855.543 652.18 855.629 651.54Q855.714 650.901 855.862 650.272Q856.01 649.644 856.218 649.033Q856.426 648.422 856.693 647.834Q856.959 647.246 857.282 646.687C859.621 642.716 863.015 641.139 867.334 640.119Z"/>
	<path fill="#FEFEFE" d="M588.65 36.8655C591.822 41.6462 593.406 47.5197 596.442 52.4917C601.845 55.6593 607.873 57.6187 613.272 60.8792C595.169 70.8867 597.385 65.0812 589.477 85.613C587.584 82.6714 586.168 79.2574 584.553 76.1421C579.677 66.7337 573.129 65.3398 564.135 61.0044C569.698 58.0563 575.542 55.6667 580.961 52.4414C583.938 47.5449 586.094 42.0039 588.65 36.8655Z"/>
	<path fill="#FEFEFE" d="M122.751 570.389C124.472 572.503 125.922 582.621 126.972 585.859C127.974 588.95 129.239 591.65 130.899 594.439C137.702 598.419 145.987 599.432 153.512 601.444C147.843 602.69 141.515 603.632 136.189 605.917C124.524 610.922 126.792 622.856 122.711 632.448C122.594 632.721 122.471 632.99 122.351 633.262C121 626.452 119.912 617.181 115.875 611.361C111.069 604.434 98.8156 602.834 91.1442 601.446C97.9396 599.778 106.985 598.981 112.797 594.977C119.715 590.21 121.192 578.116 122.751 570.389Z"/>
	<path fill="#FDDD1B" d="M731.456 249.364C734.011 251.568 738.847 262.752 740.645 266.325C746.219 269.866 752.966 272.472 758.95 275.311C752.896 277.834 746.998 280.729 741.072 283.536C737.377 289.044 734.589 295.215 731.784 301.211C728.707 298.411 725.235 287.483 721.289 282.807C715.457 280.703 709.811 277.846 704.155 275.298C722.721 267.021 722.852 267.88 731.456 249.364Z"/>
	<path fill="#FEFEFE" d="M569.953 926.085C573.779 925.662 577.395 926.083 580.878 927.808Q581.688 928.213 582.453 928.698Q583.219 929.182 583.932 929.741Q584.645 930.3 585.298 930.927Q585.951 931.555 586.538 932.245Q587.125 932.935 587.64 933.68Q588.155 934.425 588.592 935.218Q589.029 936.011 589.385 936.844Q589.741 937.678 590.011 938.542Q590.28 939.385 590.465 940.25Q590.649 941.116 590.748 941.995Q590.846 942.874 590.857 943.759Q590.868 944.643 590.792 945.525Q590.716 946.406 590.553 947.276Q590.39 948.146 590.142 948.995Q589.895 949.844 589.564 950.665Q589.234 951.486 588.824 952.27C585.884 957.824 581.27 960.455 575.462 962.153C571.41 962.6 567.677 962.122 564.03 960.176Q563.612 959.95 563.207 959.703Q562.801 959.457 562.409 959.189Q562.016 958.922 561.638 958.636Q561.259 958.349 560.896 958.043Q560.532 957.738 560.185 957.414Q559.837 957.09 559.507 956.749Q559.176 956.409 558.864 956.051Q558.551 955.694 558.257 955.321Q557.962 954.949 557.687 954.561Q557.413 954.174 557.158 953.773Q556.903 953.373 556.669 952.96Q556.435 952.547 556.222 952.122Q556.009 951.698 555.818 951.263Q555.627 950.828 555.458 950.384Q555.29 949.94 555.144 949.489Q554.998 949.037 554.875 948.578Q554.644 947.724 554.499 946.852Q554.353 945.98 554.295 945.097Q554.237 944.215 554.266 943.331Q554.296 942.447 554.413 941.57Q554.53 940.694 554.733 939.833Q554.937 938.972 555.224 938.136Q555.512 937.3 555.881 936.496Q556.25 935.692 556.697 934.929C559.744 929.76 564.317 927.405 569.953 926.085Z"/>
	<path fill="#FEFEFE" d="M818.88 373.628C822.547 373.526 826.628 374.642 829.805 376.459Q830.605 376.911 831.356 377.441Q832.108 377.97 832.803 378.572Q833.498 379.173 834.129 379.841Q834.761 380.509 835.324 381.236Q835.886 381.963 836.373 382.742Q836.86 383.521 837.268 384.345Q837.675 385.169 837.999 386.029Q838.322 386.89 838.559 387.778C839.84 392.56 839.277 397.619 836.754 401.902C833.514 407.401 828.702 409.637 822.787 411.105C818.381 411.223 814.4 410.708 810.509 408.477Q810.098 408.24 809.699 407.981Q809.301 407.723 808.916 407.444Q808.532 407.166 808.162 406.868Q807.792 406.57 807.439 406.253Q807.085 405.936 806.748 405.602Q806.411 405.267 806.092 404.916Q805.773 404.564 805.472 404.197Q805.171 403.829 804.89 403.446Q804.609 403.064 804.348 402.667Q804.086 402.271 803.846 401.861Q803.606 401.452 803.387 401.03Q803.168 400.609 802.971 400.177Q802.774 399.745 802.6 399.303Q802.426 398.861 802.275 398.411Q802.123 397.961 801.996 397.504Q801.868 397.046 801.764 396.583Q801.658 396.113 801.577 395.639Q801.496 395.165 801.439 394.687Q801.382 394.209 801.35 393.728Q801.317 393.248 801.31 392.767Q801.302 392.286 801.319 391.805Q801.337 391.324 801.378 390.844Q801.42 390.365 801.487 389.888Q801.553 389.411 801.644 388.938Q801.735 388.466 801.849 387.998Q801.964 387.531 802.103 387.07Q802.242 386.609 802.404 386.156Q802.566 385.703 802.752 385.259Q802.937 384.814 803.145 384.38Q803.353 383.946 803.583 383.523Q803.812 383.1 804.064 382.69Q804.315 382.279 804.587 381.882C808.054 376.857 813.051 374.626 818.88 373.628Z"/>
	<path fill="#FDDD1B" d="M922.795 435.387C924.125 436.97 924.463 441.769 924.985 443.983C926.189 449.09 928.429 454.17 931.258 458.581C941.382 474.363 955.623 479.657 973.156 483.505C964.534 485.216 956.094 487.559 948.542 492.196C934.026 501.112 927.242 514.22 923.398 530.379L923.185 531.289C922.673 530.517 922.687 530.724 922.536 530.003C921.022 522.787 918.762 515.882 914.882 509.547C905.637 494.454 891.723 488.221 875.166 484.224C884.408 481.604 893.17 478.777 901.029 473.038C913.899 463.637 920.427 450.909 922.795 435.387Z"/>
	<path fill="#FDDD1B" d="M919.282 885.403C921.187 887.649 922.679 895.031 923.87 898.171C924.925 900.952 926.358 903.697 927.84 906.27C937.748 923.481 953.833 930.583 972.207 935.478C963.533 937.65 955.324 940.088 947.559 944.652C931.623 954.018 923.688 968.911 919.254 986.311L918.711 986.547C916.932 978.919 914.072 971.023 910.111 964.238C900.767 948.235 884.628 939.911 867.234 935.38C874.72 933.429 882.172 931.108 889.028 927.47C906.362 918.271 913.695 903.411 919.282 885.403Z"/>
	<path fill="#FDDD1B" d="M96.4348 53.7674C97.6041 56.3517 98.1766 59.447 98.9715 62.1834C101.129 69.6103 103.807 76.4383 108.146 82.906C118.082 97.7192 133.829 105.548 150.965 109.007C140.37 112.318 130.268 116.123 121.255 122.793C107.149 133.232 98.7707 150.171 96.1451 167.297C93.8273 159.146 91.6479 150.863 87.7475 143.294C78.0892 124.551 61.0076 115.471 41.6709 109.187C50.4658 107.391 58.7901 104.375 66.5629 99.8566C84.7185 89.3022 91.3249 73.1983 96.4348 53.7674Z"/>
	<path fill="#FDDD1B" d="M374.574 764.817C378.48 776.205 380.03 784.746 386.501 795.558C397.944 814.677 415.26 823.138 436.159 828.479Q431.144 829.527 426.259 831.071Q421.374 832.615 416.668 834.64C398.818 842.326 386.203 855.413 379.581 873.699C377.639 879.06 376.591 884.895 374.485 890.122L374.15 890.104L373.077 886.703C369.767 875.565 366.166 865.535 358.939 856.232C346.39 840.081 327.508 831.14 307.534 828.591C318.167 825.624 328.498 822.296 338.063 816.667C358.184 804.824 368.756 786.904 374.574 764.817Z"/>
	<path fill="#FDDD1B" d="M769.442 0L1024 0L1024 213.954C983.225 209.276 946.094 198.971 909.999 179.059C838.916 139.846 791.775 77.5646 769.442 0Z"/>
	<path fill="#FEFEFE" d="M954.187 65.3712C956.145 67.6428 960.611 87.6152 961.784 92.1479C971.088 94.7841 980.523 96.7932 989.673 99.9655C980.667 103.088 971.331 104.511 962.295 107.354C960.106 113.579 958.279 120.002 956.443 126.34C955.74 128.769 955.331 131.383 954.421 133.728L953.837 133.682C950.931 125.231 948.751 116.646 946.733 107.947L916.788 99.5541Q931.548 95.6097 946.413 92.0794C948.685 83.1075 951.486 74.2239 954.187 65.3712Z"/>
	<path fill="#FDDD1B" d="M0 733.677C15.3166 731.878 30.5743 730.558 46.0107 731.413C83.0467 733.466 121.865 747.919 150.973 770.958Q152.764 772.354 154.52 773.795Q156.275 775.236 157.994 776.72Q159.713 778.203 161.395 779.73Q163.077 781.256 164.72 782.824Q166.363 784.392 167.966 786Q169.569 787.609 171.132 789.257Q172.695 790.905 174.216 792.591Q175.737 794.277 177.215 796.001Q178.694 797.725 180.129 799.485Q181.564 801.245 182.955 803.04Q184.346 804.836 185.691 806.665Q187.037 808.495 188.336 810.357Q189.636 812.22 190.888 814.114Q192.141 816.009 193.346 817.934Q194.551 819.859 195.707 821.813Q196.864 823.768 197.971 825.75Q199.078 827.733 200.136 829.743Q201.194 831.753 202.201 833.788Q203.208 835.823 204.164 837.884Q205.12 839.944 206.024 842.027Q206.929 844.11 207.781 846.215Q208.633 848.32 209.432 850.446Q210.231 852.572 210.977 854.717Q211.724 856.862 212.416 859.024Q213.108 861.187 213.746 863.367Q214.384 865.546 214.968 867.741Q215.551 869.936 216.08 872.145Q216.609 874.353 217.082 876.574Q217.555 878.796 217.973 881.028Q218.391 883.26 218.753 885.502Q219.115 887.744 219.42 889.995Q219.726 892.245 219.976 894.502C223.763 927.392 217.021 963.48 202.224 993.08C196.72 1004.09 189.949 1014.07 182.715 1024L0 1024L0 733.677Z"/>
	<path fill="#FEFEFE" d="M93.1292 859.888C96.0914 864.817 100.402 886.206 101.769 892.289C112.739 894.711 123.535 897.286 134.28 900.573C123.772 904.216 112.762 906.431 102.031 909.324C99.4312 919.936 97.2228 930.971 93.7275 941.313C89.365 932.141 87.392 919.134 84.2752 909.179C73.3534 906.632 62.3581 903.967 51.6751 900.545Q68.2347 896.707 84.6856 892.427C87.0595 881.559 89.8138 870.498 93.1292 859.888Z"/>
	<path fill="#FEFEFE" d="M302.563 104.882C348.079 90.0097 395.65 92.9631 438.447 114.719C482.667 137.2 516.381 175.123 531.845 222.514C544.694 261.891 543.317 295.102 535.074 335.071C537.401 339.086 536.74 346.716 537.292 351.364L536.754 351.148C532.907 362.01 530.389 369.926 525.307 380.541C523.094 385.165 514.273 399.799 513.479 402.859C514.739 414.966 516.969 425.388 521.246 436.772C511.03 441.316 501.624 446.43 490.414 448.219L488.156 446.017C486.432 443.581 484.633 441.241 482.761 438.917C479.016 441.355 475.644 444.349 472.216 447.208C469.951 448.629 465.518 450.761 464.205 453.011C464.436 453.427 464.654 453.909 464.941 454.286C456.752 461.167 445.624 465.918 436.082 470.657L436.195 470.924C424.274 475.336 412.564 479.336 400.008 481.511C394.511 482.464 388.846 482.692 383.391 483.711C377.893 480.476 371.722 477.965 365.898 475.359C330.458 477.019 293.573 469.195 262.49 451.878Q260.45 450.752 258.438 449.577Q256.427 448.402 254.445 447.177Q252.463 445.952 250.511 444.679Q248.56 443.406 246.641 442.086Q244.721 440.765 242.835 439.397Q240.949 438.03 239.097 436.616Q237.245 435.202 235.428 433.743Q233.611 432.285 231.831 430.781Q230.051 429.278 228.309 427.732Q226.566 426.185 224.862 424.596Q223.158 423.007 221.494 421.377Q219.83 419.746 218.206 418.075Q216.582 416.404 215 414.694Q213.418 412.983 211.879 411.235Q210.34 409.486 208.844 407.699Q207.348 405.913 205.896 404.091Q204.445 402.268 203.039 400.41Q201.633 398.552 200.273 396.661Q198.913 394.769 197.6 392.844Q196.288 390.919 195.022 388.963Q193.757 387.006 192.541 385.019Q191.324 383.032 190.157 381.016Q188.99 378.999 187.873 376.955Q186.756 374.91 185.689 372.839Q184.623 370.767 183.608 368.67Q182.593 366.573 181.63 364.451Q180.666 362.33 179.756 360.185Q178.845 358.041 177.988 355.874Q177.13 353.708 176.326 351.521Q175.522 349.335 174.773 347.129Q174.023 344.923 173.327 342.699Q172.632 340.475 171.992 338.235C159.524 294.129 162.494 242.585 185.1 202.13C188.543 207.325 192.469 212.187 195.88 217.415C217.981 246.35 238.716 276.404 259.928 305.985C267.36 316.35 274.847 323.158 287.814 325.195C301.666 327.372 312.241 322.862 323.275 314.803C333.955 307.002 344.032 298.271 354.413 290.073C363.813 282.65 379.796 271.719 387.058 262.901C391.111 257.98 393.993 251.549 394.907 245.243C395.805 239.039 394.999 232.157 392.372 226.453C386.911 214.594 376.357 203.219 368.569 192.706Q343.263 158.365 317.465 124.393C312.254 118.562 306.552 111.599 302.563 104.882Z"/>
	<path fill="#AAA7EC" d="M365.898 475.359C371.502 474.271 377.508 474.094 383.197 473.233C397.381 471.085 410.701 467.005 423.957 461.564C428.085 464.456 432.366 467.238 436.082 470.657L436.195 470.924C424.274 475.336 412.564 479.336 400.008 481.511C394.511 482.464 388.846 482.692 383.391 483.711C377.893 480.476 371.722 477.965 365.898 475.359Z"/>
	<path fill="#2326D0" d="M535.074 335.071C537.401 339.086 536.74 346.716 537.292 351.364L536.754 351.148C532.907 362.01 530.389 369.926 525.307 380.541C523.094 385.165 514.273 399.799 513.479 402.859C514.739 414.966 516.969 425.388 521.246 436.772C511.03 441.316 501.624 446.43 490.414 448.219L488.156 446.017C486.432 443.581 484.633 441.241 482.761 438.917C479.016 441.355 475.644 444.349 472.216 447.208C469.951 448.629 465.518 450.761 464.205 453.011C464.436 453.427 464.654 453.909 464.941 454.286C456.752 461.167 445.624 465.918 436.082 470.657C432.366 467.238 428.085 464.456 423.957 461.564Q432.909 457.884 441.455 453.338C488.36 428.19 519.862 385.47 535.074 335.071Z"/>
	<path fill="#21A0E3" d="M482.761 438.917C494.577 430.369 505.161 414.664 513.479 402.859C514.739 414.966 516.969 425.388 521.246 436.772C511.03 441.316 501.624 446.43 490.414 448.219L488.156 446.017C486.432 443.581 484.633 441.241 482.761 438.917Z"/>
	<path fill="#18DBCF" d="M317.465 124.393Q319.821 124.438 322.175 124.541Q324.53 124.645 326.881 124.805Q329.232 124.966 331.578 125.184Q333.925 125.402 336.265 125.677Q338.606 125.953 340.939 126.285Q343.272 126.618 345.596 127.008Q347.92 127.397 350.234 127.844Q352.548 128.29 354.85 128.793Q357.152 129.296 359.442 129.855Q361.731 130.414 364.006 131.029Q366.281 131.643 368.54 132.314Q370.799 132.984 373.041 133.709Q375.283 134.435 377.507 135.215Q379.731 135.995 381.935 136.829Q384.139 137.663 386.322 138.551Q388.505 139.439 390.665 140.38Q392.826 141.321 394.963 142.315Q397.099 143.309 399.211 144.354Q401.323 145.4 403.409 146.497Q405.495 147.594 407.553 148.741Q409.611 149.889 411.641 151.087Q413.67 152.284 415.67 153.531Q417.669 154.778 419.638 156.074Q421.606 157.369 423.542 158.713Q425.479 160.056 427.381 161.446Q429.284 162.837 431.152 164.273Q433.021 165.709 434.853 167.191Q436.686 168.673 438.481 170.199Q440.277 171.725 442.035 173.295Q443.793 174.864 445.511 176.476Q447.23 178.088 448.909 179.742Q450.588 181.396 452.226 183.09C477.163 209.301 492.727 242.046 501.081 277.02L385.319 374.771L348.444 405.765C342.937 410.417 336.985 414.793 331.87 419.862C290.138 411.144 250.686 381.382 227.611 345.982C201.662 306.171 194.61 264.219 195.88 217.415C217.981 246.35 238.716 276.404 259.928 305.985C267.36 316.35 274.847 323.158 287.814 325.195C301.666 327.372 312.241 322.862 323.275 314.803C333.955 307.002 344.032 298.271 354.413 290.073C363.813 282.65 379.796 271.719 387.058 262.901C391.111 257.98 393.993 251.549 394.907 245.243C395.805 239.039 394.999 232.157 392.372 226.453C386.911 214.594 376.357 203.219 368.569 192.706Q343.263 158.365 317.465 124.393Z"/>
	<path fill="#FEFEFE" d="M408.534 279.375C411.242 279.834 430.5 306.85 433.629 311.057C424.91 317.539 416.611 324.659 408.221 331.562L362.974 369.147C360.76 368.002 340.858 341.911 337.688 337.86C345.911 332.109 353.409 325.043 361.073 318.556C376.659 305.363 392.335 291.791 408.534 279.375Z"/>
	<path fill="#FEFEFE" d="M513.479 402.859C514.273 399.799 523.094 385.165 525.307 380.541C530.389 369.926 532.907 362.01 536.754 351.148L537.292 351.364L537.364 352.056C539.612 372.665 546.788 394.713 556.822 412.708C566.309 429.721 578.358 444.932 589.868 460.585L642.971 532.318Q725.253 643.491 805.674 756.015L834.938 796.065C847.583 813.4 861.964 830.871 868.519 851.613C876.344 876.376 872.045 902.787 855.77 923.222Q855.082 924.074 854.374 924.909Q853.665 925.743 852.937 926.561Q852.208 927.378 851.46 928.177Q850.711 928.977 849.944 929.757Q849.176 930.538 848.39 931.3Q847.604 932.062 846.799 932.805Q845.995 933.547 845.172 934.27Q844.35 934.993 843.51 935.696Q842.67 936.398 841.813 937.08Q840.957 937.762 840.084 938.423Q839.211 939.084 838.322 939.723Q837.433 940.363 836.529 940.98Q835.625 941.598 834.706 942.193Q833.787 942.789 832.854 943.361Q831.921 943.934 830.974 944.484Q830.028 945.034 829.068 945.561Q828.108 946.088 827.135 946.591Q826.163 947.094 825.179 947.574Q824.194 948.053 823.199 948.509Q822.203 948.964 821.196 949.395Q820.19 949.826 819.173 950.232Q818.156 950.639 817.13 951.02Q816.104 951.401 815.068 951.758Q814.033 952.114 812.99 952.445Q811.946 952.776 810.894 953.082Q809.843 953.387 808.784 953.667Q807.726 953.947 806.661 954.201Q805.596 954.455 804.525 954.683Q803.454 954.911 802.378 955.113Q801.302 955.315 800.221 955.491Q799.14 955.667 798.056 955.816Q796.971 955.965 795.883 956.088C773.665 958.516 751.432 952.774 733.95 938.583C722.439 929.239 714.083 914.456 705.41 902.464Q685.11 874.517 665.142 846.333Q585.831 736.445 505.306 627.445L449.454 550.657C439.835 537.419 430.719 522.763 419.723 510.647C409.865 499.784 396.289 490.628 383.391 483.711C388.846 482.692 394.511 482.464 400.008 481.511C412.564 479.336 424.274 475.336 436.195 470.924L436.082 470.657C445.624 465.918 456.752 461.167 464.941 454.286C464.654 453.909 464.436 453.427 464.205 453.011C465.518 450.761 469.951 448.629 472.216 447.208C475.644 444.349 479.016 441.355 482.761 438.917C484.633 441.241 486.432 443.581 488.156 446.017L490.414 448.219C501.624 446.43 511.03 441.316 521.246 436.772C516.969 425.388 514.739 414.966 513.479 402.859Z"/>
	<path d="M779.776 827.215C790.961 827.355 800.574 830.337 809.269 837.579C817.756 844.649 822.748 854.714 823.726 865.686C824.684 876.447 821.644 886.825 814.669 895.126C806.768 904.526 796.69 908.43 784.708 909.512C773.686 909.666 762.926 906.214 754.479 899.021Q753.679 898.327 752.913 897.595Q752.148 896.864 751.419 896.095Q750.69 895.327 750 894.523Q749.31 893.72 748.66 892.884Q748.01 892.048 747.401 891.181Q746.793 890.314 746.228 889.419Q745.662 888.523 745.142 887.601Q744.621 886.679 744.146 885.732Q743.671 884.786 743.243 883.817Q742.815 882.849 742.435 881.86Q742.055 880.872 741.723 879.866Q741.392 878.86 741.11 877.839Q740.829 876.818 740.597 875.785Q740.366 874.751 740.185 873.708Q740.005 872.664 739.876 871.613Q739.747 870.562 739.669 869.506C738.9 859.412 742.223 848.887 748.935 841.26C757.009 832.087 767.836 828.011 779.776 827.215Z"/>
	<path fill="#18DBCF" d="M521.246 436.772C528.173 453 540.405 466.328 551.034 480.251Q563.773 497.172 576.293 514.256L642.631 604.18Q679.667 653.486 715.865 703.41L739.144 735.306C744.314 742.446 750.526 749.783 753.952 757.929C758.337 768.354 758.211 781.162 753.944 791.611Q753.551 792.568 753.111 793.505Q752.671 794.441 752.185 795.355Q751.699 796.269 751.169 797.157Q750.638 798.046 750.065 798.907Q749.491 799.769 748.876 800.6Q748.26 801.432 747.604 802.233Q746.949 803.033 746.254 803.801Q745.56 804.568 744.828 805.3Q744.097 806.032 743.33 806.726Q742.563 807.421 741.763 808.077Q740.963 808.734 740.131 809.349Q739.299 809.965 738.438 810.539Q737.577 811.113 736.689 811.644Q735.801 812.175 734.887 812.661Q733.974 813.147 733.037 813.588Q732.101 814.028 731.144 814.422C721.155 818.607 710.617 818.501 700.626 814.363C695.111 812.079 689.9 808.601 685.865 804.187C679.809 797.56 674.632 789.403 669.446 782.07C659.071 767.402 648.978 752.5 638.301 738.051L505.86 557.775L477.556 519.037C463.932 500.524 453.721 486.237 436.195 470.924L436.082 470.657C445.624 465.918 456.752 461.167 464.941 454.286C464.654 453.909 464.436 453.427 464.205 453.011C465.518 450.761 469.951 448.629 472.216 447.208C475.644 444.349 479.016 441.355 482.761 438.917C484.633 441.241 486.432 443.581 488.156 446.017L490.414 448.219C501.624 446.43 511.03 441.316 521.246 436.772Z"/>
	<path fill="#FEFEFE" d="M482.761 438.917C484.633 441.241 486.432 443.581 488.156 446.017L490.414 448.219C511.039 474.146 530.27 501.181 549.944 527.832L641.747 652.865Q670.666 691.815 698.908 731.259C708.56 744.497 719.268 757.646 727.984 771.498C729.639 774.129 730.96 776.505 730.577 779.713C730.147 783.301 728.264 786.083 725.4 788.218C722.931 790.059 719.879 791.324 716.751 790.856C710.849 789.973 707.058 783.497 703.967 778.992C694.687 765.466 684.71 752.467 675.019 739.238Q653.866 709.962 632.372 680.935L534.774 548.369L488.303 485.402Q480.455 474.677 472.427 464.087C469.995 460.869 467.651 457.249 464.941 454.286C464.654 453.909 464.436 453.427 464.205 453.011C465.518 450.761 469.951 448.629 472.216 447.208C475.644 444.349 479.016 441.355 482.761 438.917Z"/>
</svg>
